G04 #@! TF.GenerationSoftware,KiCad,Pcbnew,(5.0.0)*
G04 #@! TF.CreationDate,2018-08-20T08:15:06+02:00*
G04 #@! TF.ProjectId,CockpitLED,436F636B7069744C45442E6B69636164,rev?*
G04 #@! TF.SameCoordinates,Original*
G04 #@! TF.FileFunction,Copper,L1,Top,Signal*
G04 #@! TF.FilePolarity,Positive*
%FSLAX46Y46*%
G04 Gerber Fmt 4.6, Leading zero omitted, Abs format (unit mm)*
G04 Created by KiCad (PCBNEW (5.0.0)) date 08/20/18 08:15:06*
%MOMM*%
%LPD*%
G01*
G04 APERTURE LIST*
G04 #@! TA.AperFunction,SMDPad,CuDef*
%ADD10R,1.500000X0.970000*%
G04 #@! TD*
G04 #@! TA.AperFunction,SMDPad,CuDef*
%ADD11R,1.800000X1.070000*%
G04 #@! TD*
G04 #@! TA.AperFunction,ComponentPad*
%ADD12R,1.800000X1.800000*%
G04 #@! TD*
G04 #@! TA.AperFunction,ComponentPad*
%ADD13O,1.800000X1.800000*%
G04 #@! TD*
G04 #@! TA.AperFunction,ComponentPad*
%ADD14C,1.800000*%
G04 #@! TD*
G04 #@! TA.AperFunction,SMDPad,CuDef*
%ADD15R,1.220000X0.650000*%
G04 #@! TD*
G04 #@! TA.AperFunction,Conductor*
%ADD16C,0.100000*%
G04 #@! TD*
G04 #@! TA.AperFunction,SMDPad,CuDef*
%ADD17C,0.975000*%
G04 #@! TD*
G04 #@! TA.AperFunction,SMDPad,CuDef*
%ADD18C,1.250000*%
G04 #@! TD*
G04 #@! TA.AperFunction,ComponentPad*
%ADD19C,2.499360*%
G04 #@! TD*
G04 #@! TA.AperFunction,Conductor*
%ADD20C,0.500000*%
G04 #@! TD*
G04 APERTURE END LIST*
D10*
G04 #@! TO.P,C4,2*
G04 #@! TO.N,GND*
X151230000Y-110905000D03*
G04 #@! TO.P,C4,1*
G04 #@! TO.N,/BMS*
X151230000Y-108995000D03*
G04 #@! TD*
D11*
G04 #@! TO.P,C2,2*
G04 #@! TO.N,GND*
X145000000Y-106990000D03*
G04 #@! TO.P,C2,1*
G04 #@! TO.N,+5V*
X145000000Y-110000000D03*
G04 #@! TD*
D10*
G04 #@! TO.P,C3,1*
G04 #@! TO.N,/IMD*
X131310000Y-108995000D03*
G04 #@! TO.P,C3,2*
G04 #@! TO.N,GND*
X131310000Y-110905000D03*
G04 #@! TD*
D12*
G04 #@! TO.P,U1,1*
G04 #@! TO.N,+12V*
X140000000Y-104920000D03*
D13*
G04 #@! TO.P,U1,2*
G04 #@! TO.N,GND*
X140000000Y-107460000D03*
G04 #@! TO.P,U1,3*
G04 #@! TO.N,+5V*
X140000000Y-110000000D03*
G04 #@! TD*
D11*
G04 #@! TO.P,C1,1*
G04 #@! TO.N,+12V*
X135000000Y-104920000D03*
G04 #@! TO.P,C1,2*
G04 #@! TO.N,GND*
X135000000Y-107930000D03*
G04 #@! TD*
D12*
G04 #@! TO.P,D1,1*
G04 #@! TO.N,GND*
X120000000Y-110000000D03*
D14*
G04 #@! TO.P,D1,2*
G04 #@! TO.N,Net-(D1-Pad2)*
X122540000Y-110000000D03*
G04 #@! TD*
G04 #@! TO.P,D2,2*
G04 #@! TO.N,Net-(D2-Pad2)*
X160000000Y-110000000D03*
D12*
G04 #@! TO.P,D2,1*
G04 #@! TO.N,GND*
X162540000Y-110000000D03*
G04 #@! TD*
D15*
G04 #@! TO.P,Q1,1*
G04 #@! TO.N,/IMD*
X131310000Y-105950000D03*
G04 #@! TO.P,Q1,2*
G04 #@! TO.N,+12V*
X131310000Y-104050000D03*
G04 #@! TO.P,Q1,3*
G04 #@! TO.N,Net-(Q1-Pad3)*
X128690000Y-105000000D03*
G04 #@! TD*
G04 #@! TO.P,Q2,3*
G04 #@! TO.N,Net-(Q2-Pad3)*
X153850000Y-105000000D03*
G04 #@! TO.P,Q2,2*
G04 #@! TO.N,+12V*
X151230000Y-105950000D03*
G04 #@! TO.P,Q2,1*
G04 #@! TO.N,/BMS*
X151230000Y-104050000D03*
G04 #@! TD*
D16*
G04 #@! TO.N,/IMD*
G04 #@! TO.C,R1*
G36*
X128790142Y-108526174D02*
X128813803Y-108529684D01*
X128837007Y-108535496D01*
X128859529Y-108543554D01*
X128881153Y-108553782D01*
X128901670Y-108566079D01*
X128920883Y-108580329D01*
X128938607Y-108596393D01*
X128954671Y-108614117D01*
X128968921Y-108633330D01*
X128981218Y-108653847D01*
X128991446Y-108675471D01*
X128999504Y-108697993D01*
X129005316Y-108721197D01*
X129008826Y-108744858D01*
X129010000Y-108768750D01*
X129010000Y-109256250D01*
X129008826Y-109280142D01*
X129005316Y-109303803D01*
X128999504Y-109327007D01*
X128991446Y-109349529D01*
X128981218Y-109371153D01*
X128968921Y-109391670D01*
X128954671Y-109410883D01*
X128938607Y-109428607D01*
X128920883Y-109444671D01*
X128901670Y-109458921D01*
X128881153Y-109471218D01*
X128859529Y-109481446D01*
X128837007Y-109489504D01*
X128813803Y-109495316D01*
X128790142Y-109498826D01*
X128766250Y-109500000D01*
X127853750Y-109500000D01*
X127829858Y-109498826D01*
X127806197Y-109495316D01*
X127782993Y-109489504D01*
X127760471Y-109481446D01*
X127738847Y-109471218D01*
X127718330Y-109458921D01*
X127699117Y-109444671D01*
X127681393Y-109428607D01*
X127665329Y-109410883D01*
X127651079Y-109391670D01*
X127638782Y-109371153D01*
X127628554Y-109349529D01*
X127620496Y-109327007D01*
X127614684Y-109303803D01*
X127611174Y-109280142D01*
X127610000Y-109256250D01*
X127610000Y-108768750D01*
X127611174Y-108744858D01*
X127614684Y-108721197D01*
X127620496Y-108697993D01*
X127628554Y-108675471D01*
X127638782Y-108653847D01*
X127651079Y-108633330D01*
X127665329Y-108614117D01*
X127681393Y-108596393D01*
X127699117Y-108580329D01*
X127718330Y-108566079D01*
X127738847Y-108553782D01*
X127760471Y-108543554D01*
X127782993Y-108535496D01*
X127806197Y-108529684D01*
X127829858Y-108526174D01*
X127853750Y-108525000D01*
X128766250Y-108525000D01*
X128790142Y-108526174D01*
X128790142Y-108526174D01*
G37*
D17*
G04 #@! TD*
G04 #@! TO.P,R1,1*
G04 #@! TO.N,/IMD*
X128310000Y-109012500D03*
D16*
G04 #@! TO.N,GND*
G04 #@! TO.C,R1*
G36*
X128790142Y-110401174D02*
X128813803Y-110404684D01*
X128837007Y-110410496D01*
X128859529Y-110418554D01*
X128881153Y-110428782D01*
X128901670Y-110441079D01*
X128920883Y-110455329D01*
X128938607Y-110471393D01*
X128954671Y-110489117D01*
X128968921Y-110508330D01*
X128981218Y-110528847D01*
X128991446Y-110550471D01*
X128999504Y-110572993D01*
X129005316Y-110596197D01*
X129008826Y-110619858D01*
X129010000Y-110643750D01*
X129010000Y-111131250D01*
X129008826Y-111155142D01*
X129005316Y-111178803D01*
X128999504Y-111202007D01*
X128991446Y-111224529D01*
X128981218Y-111246153D01*
X128968921Y-111266670D01*
X128954671Y-111285883D01*
X128938607Y-111303607D01*
X128920883Y-111319671D01*
X128901670Y-111333921D01*
X128881153Y-111346218D01*
X128859529Y-111356446D01*
X128837007Y-111364504D01*
X128813803Y-111370316D01*
X128790142Y-111373826D01*
X128766250Y-111375000D01*
X127853750Y-111375000D01*
X127829858Y-111373826D01*
X127806197Y-111370316D01*
X127782993Y-111364504D01*
X127760471Y-111356446D01*
X127738847Y-111346218D01*
X127718330Y-111333921D01*
X127699117Y-111319671D01*
X127681393Y-111303607D01*
X127665329Y-111285883D01*
X127651079Y-111266670D01*
X127638782Y-111246153D01*
X127628554Y-111224529D01*
X127620496Y-111202007D01*
X127614684Y-111178803D01*
X127611174Y-111155142D01*
X127610000Y-111131250D01*
X127610000Y-110643750D01*
X127611174Y-110619858D01*
X127614684Y-110596197D01*
X127620496Y-110572993D01*
X127628554Y-110550471D01*
X127638782Y-110528847D01*
X127651079Y-110508330D01*
X127665329Y-110489117D01*
X127681393Y-110471393D01*
X127699117Y-110455329D01*
X127718330Y-110441079D01*
X127738847Y-110428782D01*
X127760471Y-110418554D01*
X127782993Y-110410496D01*
X127806197Y-110404684D01*
X127829858Y-110401174D01*
X127853750Y-110400000D01*
X128766250Y-110400000D01*
X128790142Y-110401174D01*
X128790142Y-110401174D01*
G37*
D17*
G04 #@! TD*
G04 #@! TO.P,R1,2*
G04 #@! TO.N,GND*
X128310000Y-110887500D03*
D16*
G04 #@! TO.N,Net-(Q1-Pad3)*
G04 #@! TO.C,R2*
G36*
X125739504Y-104126204D02*
X125763773Y-104129804D01*
X125787571Y-104135765D01*
X125810671Y-104144030D01*
X125832849Y-104154520D01*
X125853893Y-104167133D01*
X125873598Y-104181747D01*
X125891777Y-104198223D01*
X125908253Y-104216402D01*
X125922867Y-104236107D01*
X125935480Y-104257151D01*
X125945970Y-104279329D01*
X125954235Y-104302429D01*
X125960196Y-104326227D01*
X125963796Y-104350496D01*
X125965000Y-104375000D01*
X125965000Y-105625000D01*
X125963796Y-105649504D01*
X125960196Y-105673773D01*
X125954235Y-105697571D01*
X125945970Y-105720671D01*
X125935480Y-105742849D01*
X125922867Y-105763893D01*
X125908253Y-105783598D01*
X125891777Y-105801777D01*
X125873598Y-105818253D01*
X125853893Y-105832867D01*
X125832849Y-105845480D01*
X125810671Y-105855970D01*
X125787571Y-105864235D01*
X125763773Y-105870196D01*
X125739504Y-105873796D01*
X125715000Y-105875000D01*
X124965000Y-105875000D01*
X124940496Y-105873796D01*
X124916227Y-105870196D01*
X124892429Y-105864235D01*
X124869329Y-105855970D01*
X124847151Y-105845480D01*
X124826107Y-105832867D01*
X124806402Y-105818253D01*
X124788223Y-105801777D01*
X124771747Y-105783598D01*
X124757133Y-105763893D01*
X124744520Y-105742849D01*
X124734030Y-105720671D01*
X124725765Y-105697571D01*
X124719804Y-105673773D01*
X124716204Y-105649504D01*
X124715000Y-105625000D01*
X124715000Y-104375000D01*
X124716204Y-104350496D01*
X124719804Y-104326227D01*
X124725765Y-104302429D01*
X124734030Y-104279329D01*
X124744520Y-104257151D01*
X124757133Y-104236107D01*
X124771747Y-104216402D01*
X124788223Y-104198223D01*
X124806402Y-104181747D01*
X124826107Y-104167133D01*
X124847151Y-104154520D01*
X124869329Y-104144030D01*
X124892429Y-104135765D01*
X124916227Y-104129804D01*
X124940496Y-104126204D01*
X124965000Y-104125000D01*
X125715000Y-104125000D01*
X125739504Y-104126204D01*
X125739504Y-104126204D01*
G37*
D18*
G04 #@! TD*
G04 #@! TO.P,R2,1*
G04 #@! TO.N,Net-(Q1-Pad3)*
X125340000Y-105000000D03*
D16*
G04 #@! TO.N,Net-(D1-Pad2)*
G04 #@! TO.C,R2*
G36*
X122939504Y-104126204D02*
X122963773Y-104129804D01*
X122987571Y-104135765D01*
X123010671Y-104144030D01*
X123032849Y-104154520D01*
X123053893Y-104167133D01*
X123073598Y-104181747D01*
X123091777Y-104198223D01*
X123108253Y-104216402D01*
X123122867Y-104236107D01*
X123135480Y-104257151D01*
X123145970Y-104279329D01*
X123154235Y-104302429D01*
X123160196Y-104326227D01*
X123163796Y-104350496D01*
X123165000Y-104375000D01*
X123165000Y-105625000D01*
X123163796Y-105649504D01*
X123160196Y-105673773D01*
X123154235Y-105697571D01*
X123145970Y-105720671D01*
X123135480Y-105742849D01*
X123122867Y-105763893D01*
X123108253Y-105783598D01*
X123091777Y-105801777D01*
X123073598Y-105818253D01*
X123053893Y-105832867D01*
X123032849Y-105845480D01*
X123010671Y-105855970D01*
X122987571Y-105864235D01*
X122963773Y-105870196D01*
X122939504Y-105873796D01*
X122915000Y-105875000D01*
X122165000Y-105875000D01*
X122140496Y-105873796D01*
X122116227Y-105870196D01*
X122092429Y-105864235D01*
X122069329Y-105855970D01*
X122047151Y-105845480D01*
X122026107Y-105832867D01*
X122006402Y-105818253D01*
X121988223Y-105801777D01*
X121971747Y-105783598D01*
X121957133Y-105763893D01*
X121944520Y-105742849D01*
X121934030Y-105720671D01*
X121925765Y-105697571D01*
X121919804Y-105673773D01*
X121916204Y-105649504D01*
X121915000Y-105625000D01*
X121915000Y-104375000D01*
X121916204Y-104350496D01*
X121919804Y-104326227D01*
X121925765Y-104302429D01*
X121934030Y-104279329D01*
X121944520Y-104257151D01*
X121957133Y-104236107D01*
X121971747Y-104216402D01*
X121988223Y-104198223D01*
X122006402Y-104181747D01*
X122026107Y-104167133D01*
X122047151Y-104154520D01*
X122069329Y-104144030D01*
X122092429Y-104135765D01*
X122116227Y-104129804D01*
X122140496Y-104126204D01*
X122165000Y-104125000D01*
X122915000Y-104125000D01*
X122939504Y-104126204D01*
X122939504Y-104126204D01*
G37*
D18*
G04 #@! TD*
G04 #@! TO.P,R2,2*
G04 #@! TO.N,Net-(D1-Pad2)*
X122540000Y-105000000D03*
D16*
G04 #@! TO.N,GND*
G04 #@! TO.C,R3*
G36*
X154710142Y-110401174D02*
X154733803Y-110404684D01*
X154757007Y-110410496D01*
X154779529Y-110418554D01*
X154801153Y-110428782D01*
X154821670Y-110441079D01*
X154840883Y-110455329D01*
X154858607Y-110471393D01*
X154874671Y-110489117D01*
X154888921Y-110508330D01*
X154901218Y-110528847D01*
X154911446Y-110550471D01*
X154919504Y-110572993D01*
X154925316Y-110596197D01*
X154928826Y-110619858D01*
X154930000Y-110643750D01*
X154930000Y-111131250D01*
X154928826Y-111155142D01*
X154925316Y-111178803D01*
X154919504Y-111202007D01*
X154911446Y-111224529D01*
X154901218Y-111246153D01*
X154888921Y-111266670D01*
X154874671Y-111285883D01*
X154858607Y-111303607D01*
X154840883Y-111319671D01*
X154821670Y-111333921D01*
X154801153Y-111346218D01*
X154779529Y-111356446D01*
X154757007Y-111364504D01*
X154733803Y-111370316D01*
X154710142Y-111373826D01*
X154686250Y-111375000D01*
X153773750Y-111375000D01*
X153749858Y-111373826D01*
X153726197Y-111370316D01*
X153702993Y-111364504D01*
X153680471Y-111356446D01*
X153658847Y-111346218D01*
X153638330Y-111333921D01*
X153619117Y-111319671D01*
X153601393Y-111303607D01*
X153585329Y-111285883D01*
X153571079Y-111266670D01*
X153558782Y-111246153D01*
X153548554Y-111224529D01*
X153540496Y-111202007D01*
X153534684Y-111178803D01*
X153531174Y-111155142D01*
X153530000Y-111131250D01*
X153530000Y-110643750D01*
X153531174Y-110619858D01*
X153534684Y-110596197D01*
X153540496Y-110572993D01*
X153548554Y-110550471D01*
X153558782Y-110528847D01*
X153571079Y-110508330D01*
X153585329Y-110489117D01*
X153601393Y-110471393D01*
X153619117Y-110455329D01*
X153638330Y-110441079D01*
X153658847Y-110428782D01*
X153680471Y-110418554D01*
X153702993Y-110410496D01*
X153726197Y-110404684D01*
X153749858Y-110401174D01*
X153773750Y-110400000D01*
X154686250Y-110400000D01*
X154710142Y-110401174D01*
X154710142Y-110401174D01*
G37*
D17*
G04 #@! TD*
G04 #@! TO.P,R3,2*
G04 #@! TO.N,GND*
X154230000Y-110887500D03*
D16*
G04 #@! TO.N,/BMS*
G04 #@! TO.C,R3*
G36*
X154710142Y-108526174D02*
X154733803Y-108529684D01*
X154757007Y-108535496D01*
X154779529Y-108543554D01*
X154801153Y-108553782D01*
X154821670Y-108566079D01*
X154840883Y-108580329D01*
X154858607Y-108596393D01*
X154874671Y-108614117D01*
X154888921Y-108633330D01*
X154901218Y-108653847D01*
X154911446Y-108675471D01*
X154919504Y-108697993D01*
X154925316Y-108721197D01*
X154928826Y-108744858D01*
X154930000Y-108768750D01*
X154930000Y-109256250D01*
X154928826Y-109280142D01*
X154925316Y-109303803D01*
X154919504Y-109327007D01*
X154911446Y-109349529D01*
X154901218Y-109371153D01*
X154888921Y-109391670D01*
X154874671Y-109410883D01*
X154858607Y-109428607D01*
X154840883Y-109444671D01*
X154821670Y-109458921D01*
X154801153Y-109471218D01*
X154779529Y-109481446D01*
X154757007Y-109489504D01*
X154733803Y-109495316D01*
X154710142Y-109498826D01*
X154686250Y-109500000D01*
X153773750Y-109500000D01*
X153749858Y-109498826D01*
X153726197Y-109495316D01*
X153702993Y-109489504D01*
X153680471Y-109481446D01*
X153658847Y-109471218D01*
X153638330Y-109458921D01*
X153619117Y-109444671D01*
X153601393Y-109428607D01*
X153585329Y-109410883D01*
X153571079Y-109391670D01*
X153558782Y-109371153D01*
X153548554Y-109349529D01*
X153540496Y-109327007D01*
X153534684Y-109303803D01*
X153531174Y-109280142D01*
X153530000Y-109256250D01*
X153530000Y-108768750D01*
X153531174Y-108744858D01*
X153534684Y-108721197D01*
X153540496Y-108697993D01*
X153548554Y-108675471D01*
X153558782Y-108653847D01*
X153571079Y-108633330D01*
X153585329Y-108614117D01*
X153601393Y-108596393D01*
X153619117Y-108580329D01*
X153638330Y-108566079D01*
X153658847Y-108553782D01*
X153680471Y-108543554D01*
X153702993Y-108535496D01*
X153726197Y-108529684D01*
X153749858Y-108526174D01*
X153773750Y-108525000D01*
X154686250Y-108525000D01*
X154710142Y-108526174D01*
X154710142Y-108526174D01*
G37*
D17*
G04 #@! TD*
G04 #@! TO.P,R3,1*
G04 #@! TO.N,/BMS*
X154230000Y-109012500D03*
D16*
G04 #@! TO.N,Net-(D2-Pad2)*
G04 #@! TO.C,R4*
G36*
X160399504Y-104126204D02*
X160423773Y-104129804D01*
X160447571Y-104135765D01*
X160470671Y-104144030D01*
X160492849Y-104154520D01*
X160513893Y-104167133D01*
X160533598Y-104181747D01*
X160551777Y-104198223D01*
X160568253Y-104216402D01*
X160582867Y-104236107D01*
X160595480Y-104257151D01*
X160605970Y-104279329D01*
X160614235Y-104302429D01*
X160620196Y-104326227D01*
X160623796Y-104350496D01*
X160625000Y-104375000D01*
X160625000Y-105625000D01*
X160623796Y-105649504D01*
X160620196Y-105673773D01*
X160614235Y-105697571D01*
X160605970Y-105720671D01*
X160595480Y-105742849D01*
X160582867Y-105763893D01*
X160568253Y-105783598D01*
X160551777Y-105801777D01*
X160533598Y-105818253D01*
X160513893Y-105832867D01*
X160492849Y-105845480D01*
X160470671Y-105855970D01*
X160447571Y-105864235D01*
X160423773Y-105870196D01*
X160399504Y-105873796D01*
X160375000Y-105875000D01*
X159625000Y-105875000D01*
X159600496Y-105873796D01*
X159576227Y-105870196D01*
X159552429Y-105864235D01*
X159529329Y-105855970D01*
X159507151Y-105845480D01*
X159486107Y-105832867D01*
X159466402Y-105818253D01*
X159448223Y-105801777D01*
X159431747Y-105783598D01*
X159417133Y-105763893D01*
X159404520Y-105742849D01*
X159394030Y-105720671D01*
X159385765Y-105697571D01*
X159379804Y-105673773D01*
X159376204Y-105649504D01*
X159375000Y-105625000D01*
X159375000Y-104375000D01*
X159376204Y-104350496D01*
X159379804Y-104326227D01*
X159385765Y-104302429D01*
X159394030Y-104279329D01*
X159404520Y-104257151D01*
X159417133Y-104236107D01*
X159431747Y-104216402D01*
X159448223Y-104198223D01*
X159466402Y-104181747D01*
X159486107Y-104167133D01*
X159507151Y-104154520D01*
X159529329Y-104144030D01*
X159552429Y-104135765D01*
X159576227Y-104129804D01*
X159600496Y-104126204D01*
X159625000Y-104125000D01*
X160375000Y-104125000D01*
X160399504Y-104126204D01*
X160399504Y-104126204D01*
G37*
D18*
G04 #@! TD*
G04 #@! TO.P,R4,2*
G04 #@! TO.N,Net-(D2-Pad2)*
X160000000Y-105000000D03*
D16*
G04 #@! TO.N,Net-(Q2-Pad3)*
G04 #@! TO.C,R4*
G36*
X157599504Y-104126204D02*
X157623773Y-104129804D01*
X157647571Y-104135765D01*
X157670671Y-104144030D01*
X157692849Y-104154520D01*
X157713893Y-104167133D01*
X157733598Y-104181747D01*
X157751777Y-104198223D01*
X157768253Y-104216402D01*
X157782867Y-104236107D01*
X157795480Y-104257151D01*
X157805970Y-104279329D01*
X157814235Y-104302429D01*
X157820196Y-104326227D01*
X157823796Y-104350496D01*
X157825000Y-104375000D01*
X157825000Y-105625000D01*
X157823796Y-105649504D01*
X157820196Y-105673773D01*
X157814235Y-105697571D01*
X157805970Y-105720671D01*
X157795480Y-105742849D01*
X157782867Y-105763893D01*
X157768253Y-105783598D01*
X157751777Y-105801777D01*
X157733598Y-105818253D01*
X157713893Y-105832867D01*
X157692849Y-105845480D01*
X157670671Y-105855970D01*
X157647571Y-105864235D01*
X157623773Y-105870196D01*
X157599504Y-105873796D01*
X157575000Y-105875000D01*
X156825000Y-105875000D01*
X156800496Y-105873796D01*
X156776227Y-105870196D01*
X156752429Y-105864235D01*
X156729329Y-105855970D01*
X156707151Y-105845480D01*
X156686107Y-105832867D01*
X156666402Y-105818253D01*
X156648223Y-105801777D01*
X156631747Y-105783598D01*
X156617133Y-105763893D01*
X156604520Y-105742849D01*
X156594030Y-105720671D01*
X156585765Y-105697571D01*
X156579804Y-105673773D01*
X156576204Y-105649504D01*
X156575000Y-105625000D01*
X156575000Y-104375000D01*
X156576204Y-104350496D01*
X156579804Y-104326227D01*
X156585765Y-104302429D01*
X156594030Y-104279329D01*
X156604520Y-104257151D01*
X156617133Y-104236107D01*
X156631747Y-104216402D01*
X156648223Y-104198223D01*
X156666402Y-104181747D01*
X156686107Y-104167133D01*
X156707151Y-104154520D01*
X156729329Y-104144030D01*
X156752429Y-104135765D01*
X156776227Y-104129804D01*
X156800496Y-104126204D01*
X156825000Y-104125000D01*
X157575000Y-104125000D01*
X157599504Y-104126204D01*
X157599504Y-104126204D01*
G37*
D18*
G04 #@! TD*
G04 #@! TO.P,R4,1*
G04 #@! TO.N,Net-(Q2-Pad3)*
X157200000Y-105000000D03*
D19*
G04 #@! TO.P,REF\002A\002A,1*
G04 #@! TO.N,/BMS*
X148000000Y-114920000D03*
G04 #@! TD*
G04 #@! TO.P,REF\002A\002A,1*
G04 #@! TO.N,GND*
X144000000Y-114920000D03*
G04 #@! TD*
G04 #@! TO.P,REF\002A\002A,1*
G04 #@! TO.N,+5V*
X140000000Y-114920000D03*
G04 #@! TD*
G04 #@! TO.P,REF\002A\002A,1*
G04 #@! TO.N,/IMD*
X132000000Y-114920000D03*
G04 #@! TD*
G04 #@! TO.P,REF\002A\002A,1*
G04 #@! TO.N,+12V*
X136000000Y-114920000D03*
G04 #@! TD*
D20*
G04 #@! TO.N,GND*
X131292500Y-110887500D02*
X131310000Y-110905000D01*
X128310000Y-110887500D02*
X131292500Y-110887500D01*
X140470000Y-106990000D02*
X140000000Y-107460000D01*
X145000000Y-106990000D02*
X140470000Y-106990000D01*
X154212500Y-110905000D02*
X154230000Y-110887500D01*
X151230000Y-110905000D02*
X154212500Y-110905000D01*
X154230000Y-110887500D02*
X157967500Y-110887500D01*
X157967500Y-110887500D02*
X159000000Y-111920000D01*
X159000000Y-111920000D02*
X162000000Y-111920000D01*
X162540000Y-111380000D02*
X162000000Y-111920000D01*
X162540000Y-110000000D02*
X162540000Y-111380000D01*
X139530000Y-107930000D02*
X140000000Y-107460000D01*
X135000000Y-107930000D02*
X139530000Y-107930000D01*
X162540000Y-104460000D02*
X162540000Y-110000000D01*
X160000000Y-101920000D02*
X162540000Y-104460000D01*
X123000000Y-101920000D02*
X160000000Y-101920000D01*
X120000000Y-110000000D02*
X120000000Y-104920000D01*
X120000000Y-104920000D02*
X123000000Y-101920000D01*
X132025000Y-110905000D02*
X135000000Y-107930000D01*
X131310000Y-110905000D02*
X132025000Y-110905000D01*
X145990000Y-106990000D02*
X145000000Y-106990000D01*
X147000000Y-108000000D02*
X145990000Y-106990000D01*
X147000000Y-111000000D02*
X147000000Y-108000000D01*
X144000000Y-114920000D02*
X144000000Y-114000000D01*
X144000000Y-114000000D02*
X147000000Y-111000000D01*
X144000000Y-114920000D02*
X144000000Y-115000000D01*
X144000000Y-115000000D02*
X146000000Y-117000000D01*
X146000000Y-117000000D02*
X150000000Y-117000000D01*
X151230000Y-115770000D02*
X151230000Y-110905000D01*
X150000000Y-117000000D02*
X151230000Y-115770000D01*
G04 #@! TO.N,Net-(D1-Pad2)*
X122540000Y-110000000D02*
X122540000Y-105000000D01*
G04 #@! TO.N,Net-(D2-Pad2)*
X160000000Y-105000000D02*
X160000000Y-110000000D01*
G04 #@! TO.N,+12V*
X135000000Y-104920000D02*
X140000000Y-104920000D01*
X132180000Y-104920000D02*
X131310000Y-104050000D01*
X135000000Y-104920000D02*
X132180000Y-104920000D01*
X140000000Y-104920000D02*
X147000000Y-104920000D01*
X148030000Y-105950000D02*
X151230000Y-105950000D01*
X147000000Y-104920000D02*
X148030000Y-105950000D01*
X133920000Y-117000000D02*
X136000000Y-114920000D01*
X125000000Y-114660000D02*
X127340000Y-117000000D01*
X127340000Y-117000000D02*
X133920000Y-117000000D01*
X131310000Y-104050000D02*
X131130000Y-104050000D01*
X125000000Y-108360000D02*
X125000000Y-114660000D01*
X130000000Y-102920000D02*
X124520000Y-102920000D01*
X131130000Y-104050000D02*
X130000000Y-102920000D01*
X124520000Y-102920000D02*
X123940000Y-103500000D01*
X123940000Y-103500000D02*
X123940000Y-107300000D01*
X123940000Y-107300000D02*
X125000000Y-108360000D01*
G04 #@! TO.N,/IMD*
X131310000Y-108995000D02*
X131310000Y-105950000D01*
X128327500Y-108995000D02*
X128310000Y-109012500D01*
X131310000Y-108995000D02*
X128327500Y-108995000D01*
X128310000Y-109012500D02*
X126907500Y-109012500D01*
X126907500Y-109012500D02*
X126000000Y-109920000D01*
X126000000Y-109920000D02*
X126000000Y-113920000D01*
X127000000Y-114920000D02*
X132000000Y-114920000D01*
X126000000Y-113920000D02*
X127000000Y-114920000D01*
G04 #@! TO.N,/BMS*
X154212500Y-108995000D02*
X154230000Y-109012500D01*
X151230000Y-108995000D02*
X154212500Y-108995000D01*
X154230000Y-109012500D02*
X157087500Y-109012500D01*
X157087500Y-109012500D02*
X158600000Y-107500000D01*
X158600000Y-107500000D02*
X158600000Y-103700000D01*
X158600000Y-103700000D02*
X157900000Y-103000000D01*
X152280000Y-103000000D02*
X151230000Y-104050000D01*
X157900000Y-103000000D02*
X152280000Y-103000000D01*
X148000000Y-114920000D02*
X148000000Y-111000000D01*
X150005000Y-108995000D02*
X151230000Y-108995000D01*
X148000000Y-111000000D02*
X150005000Y-108995000D01*
G04 #@! TO.N,Net-(Q1-Pad3)*
X125340000Y-105000000D02*
X128690000Y-105000000D01*
G04 #@! TO.N,Net-(Q2-Pad3)*
X155205001Y-105000000D02*
X157200000Y-105000000D01*
X153850000Y-105000000D02*
X155205001Y-105000000D01*
G04 #@! TO.N,+5V*
X140000000Y-110000000D02*
X145000000Y-110000000D01*
X140000000Y-114920000D02*
X140000000Y-110000000D01*
G04 #@! TD*
G04 #@! TO.N,GND*
G36*
X167175000Y-103341727D02*
X167175001Y-112658273D01*
X162658275Y-117175000D01*
X135159212Y-117175000D01*
X135469510Y-116864702D01*
X135602239Y-116919680D01*
X136397761Y-116919680D01*
X137132728Y-116615247D01*
X137695247Y-116052728D01*
X137999680Y-115317761D01*
X137999680Y-114522239D01*
X138000320Y-114522239D01*
X138000320Y-115317761D01*
X138304753Y-116052728D01*
X138867272Y-116615247D01*
X139602239Y-116919680D01*
X140397761Y-116919680D01*
X141132728Y-116615247D01*
X141695247Y-116052728D01*
X141999680Y-115317761D01*
X141999680Y-114522239D01*
X141695247Y-113787272D01*
X141132728Y-113224753D01*
X141000000Y-113169775D01*
X141000000Y-111316259D01*
X141189583Y-111189583D01*
X141316259Y-111000000D01*
X143508686Y-111000000D01*
X143559280Y-111075720D01*
X143807365Y-111241484D01*
X144100000Y-111299693D01*
X145900000Y-111299693D01*
X146192635Y-111241484D01*
X146440720Y-111075720D01*
X146606484Y-110827635D01*
X146664693Y-110535000D01*
X146664693Y-109465000D01*
X146606484Y-109172365D01*
X146440720Y-108924280D01*
X146192635Y-108758516D01*
X145900000Y-108700307D01*
X144100000Y-108700307D01*
X143807365Y-108758516D01*
X143559280Y-108924280D01*
X143508686Y-109000000D01*
X141316259Y-109000000D01*
X141189583Y-108810417D01*
X140643798Y-108445734D01*
X140162509Y-108350000D01*
X139837491Y-108350000D01*
X139356202Y-108445734D01*
X138810417Y-108810417D01*
X138445734Y-109356202D01*
X138317675Y-110000000D01*
X138445734Y-110643798D01*
X138810417Y-111189583D01*
X139000001Y-111316259D01*
X139000000Y-113169775D01*
X138867272Y-113224753D01*
X138304753Y-113787272D01*
X138000320Y-114522239D01*
X137999680Y-114522239D01*
X137695247Y-113787272D01*
X137132728Y-113224753D01*
X136397761Y-112920320D01*
X135602239Y-112920320D01*
X134867272Y-113224753D01*
X134304753Y-113787272D01*
X134000320Y-114522239D01*
X134000320Y-115317761D01*
X134055298Y-115450490D01*
X133866499Y-115639289D01*
X133999680Y-115317761D01*
X133999680Y-114522239D01*
X133695247Y-113787272D01*
X133132728Y-113224753D01*
X132397761Y-112920320D01*
X131602239Y-112920320D01*
X130867272Y-113224753D01*
X130304753Y-113787272D01*
X130249775Y-113920000D01*
X127414213Y-113920000D01*
X127000000Y-113505787D01*
X127000000Y-110334212D01*
X127275079Y-110059134D01*
X127467836Y-110187930D01*
X127853750Y-110264693D01*
X128766250Y-110264693D01*
X129152164Y-110187930D01*
X129440905Y-109995000D01*
X130002095Y-109995000D01*
X130019280Y-110020720D01*
X130267365Y-110186484D01*
X130560000Y-110244693D01*
X132060000Y-110244693D01*
X132352635Y-110186484D01*
X132600720Y-110020720D01*
X132766484Y-109772635D01*
X132824693Y-109480000D01*
X132824693Y-108510000D01*
X132766484Y-108217365D01*
X132600720Y-107969280D01*
X132352635Y-107803516D01*
X132310000Y-107795035D01*
X132310000Y-106916427D01*
X132460720Y-106815720D01*
X132626484Y-106567635D01*
X132684693Y-106275000D01*
X132684693Y-105920000D01*
X133508686Y-105920000D01*
X133559280Y-105995720D01*
X133807365Y-106161484D01*
X134100000Y-106219693D01*
X135900000Y-106219693D01*
X136192635Y-106161484D01*
X136440720Y-105995720D01*
X136491314Y-105920000D01*
X138355198Y-105920000D01*
X138393516Y-106112635D01*
X138559280Y-106360720D01*
X138807365Y-106526484D01*
X139100000Y-106584693D01*
X140900000Y-106584693D01*
X141192635Y-106526484D01*
X141440720Y-106360720D01*
X141606484Y-106112635D01*
X141644802Y-105920000D01*
X146585788Y-105920000D01*
X147253247Y-106587460D01*
X147309040Y-106670960D01*
X147639819Y-106891979D01*
X148030000Y-106969591D01*
X148128490Y-106950000D01*
X150280246Y-106950000D01*
X150327365Y-106981484D01*
X150620000Y-107039693D01*
X151840000Y-107039693D01*
X152132635Y-106981484D01*
X152380720Y-106815720D01*
X152546484Y-106567635D01*
X152604693Y-106275000D01*
X152604693Y-105724160D01*
X152699280Y-105865720D01*
X152947365Y-106031484D01*
X153240000Y-106089693D01*
X154460000Y-106089693D01*
X154752635Y-106031484D01*
X154799754Y-106000000D01*
X155884899Y-106000000D01*
X155887546Y-106013306D01*
X156107504Y-106342496D01*
X156436694Y-106562454D01*
X156825000Y-106639693D01*
X157575000Y-106639693D01*
X157600000Y-106634720D01*
X157600000Y-107085787D01*
X156673288Y-108012500D01*
X155334714Y-108012500D01*
X155072164Y-107837070D01*
X154686250Y-107760307D01*
X153773750Y-107760307D01*
X153387836Y-107837070D01*
X153151477Y-107995000D01*
X152537905Y-107995000D01*
X152520720Y-107969280D01*
X152272635Y-107803516D01*
X151980000Y-107745307D01*
X150480000Y-107745307D01*
X150187365Y-107803516D01*
X149939280Y-107969280D01*
X149924484Y-107991425D01*
X149776000Y-108020960D01*
X149614819Y-108053021D01*
X149284040Y-108274040D01*
X149228247Y-108357540D01*
X147362540Y-110223248D01*
X147279041Y-110279040D01*
X147108014Y-110535000D01*
X147058021Y-110609820D01*
X146980409Y-111000000D01*
X147000001Y-111098495D01*
X147000000Y-113169775D01*
X146867272Y-113224753D01*
X146304753Y-113787272D01*
X146000320Y-114522239D01*
X146000320Y-115317761D01*
X146304753Y-116052728D01*
X146867272Y-116615247D01*
X147602239Y-116919680D01*
X148397761Y-116919680D01*
X149132728Y-116615247D01*
X149695247Y-116052728D01*
X149999680Y-115317761D01*
X149999680Y-114522239D01*
X149695247Y-113787272D01*
X149132728Y-113224753D01*
X149000000Y-113169775D01*
X149000000Y-111414212D01*
X150221032Y-110193181D01*
X150480000Y-110244693D01*
X151980000Y-110244693D01*
X152272635Y-110186484D01*
X152520720Y-110020720D01*
X152537905Y-109995000D01*
X153099095Y-109995000D01*
X153387836Y-110187930D01*
X153773750Y-110264693D01*
X154686250Y-110264693D01*
X155072164Y-110187930D01*
X155334714Y-110012500D01*
X156989010Y-110012500D01*
X157087500Y-110032091D01*
X157185990Y-110012500D01*
X157477681Y-109954479D01*
X157808460Y-109733460D01*
X157864254Y-109649958D01*
X159000001Y-108514212D01*
X159000001Y-108666547D01*
X158601198Y-109065350D01*
X158350000Y-109671795D01*
X158350000Y-110328205D01*
X158601198Y-110934650D01*
X159065350Y-111398802D01*
X159671795Y-111650000D01*
X160328205Y-111650000D01*
X160934650Y-111398802D01*
X161398802Y-110934650D01*
X161650000Y-110328205D01*
X161650000Y-109671795D01*
X161398802Y-109065350D01*
X161000000Y-108666548D01*
X161000000Y-106404300D01*
X161092496Y-106342496D01*
X161312454Y-106013306D01*
X161389693Y-105625000D01*
X161389693Y-104375000D01*
X161312454Y-103986694D01*
X161092496Y-103657504D01*
X160763306Y-103437546D01*
X160375000Y-103360307D01*
X159625000Y-103360307D01*
X159554799Y-103374271D01*
X159541979Y-103309819D01*
X159505555Y-103255307D01*
X159320960Y-102979040D01*
X159237463Y-102923249D01*
X158676754Y-102362541D01*
X158620960Y-102279040D01*
X158290181Y-102058021D01*
X157998490Y-102000000D01*
X157900000Y-101980409D01*
X157801510Y-102000000D01*
X152378489Y-102000000D01*
X152279999Y-101980409D01*
X151889819Y-102058021D01*
X151559040Y-102279040D01*
X151503249Y-102362537D01*
X150905480Y-102960307D01*
X150620000Y-102960307D01*
X150327365Y-103018516D01*
X150079280Y-103184280D01*
X149913516Y-103432365D01*
X149855307Y-103725000D01*
X149855307Y-104375000D01*
X149913516Y-104667635D01*
X150079280Y-104915720D01*
X150130584Y-104950000D01*
X148444213Y-104950000D01*
X147776754Y-104282542D01*
X147720960Y-104199040D01*
X147390181Y-103978021D01*
X147098490Y-103920000D01*
X147000000Y-103900409D01*
X146901510Y-103920000D01*
X141644802Y-103920000D01*
X141606484Y-103727365D01*
X141440720Y-103479280D01*
X141192635Y-103313516D01*
X140900000Y-103255307D01*
X139100000Y-103255307D01*
X138807365Y-103313516D01*
X138559280Y-103479280D01*
X138393516Y-103727365D01*
X138355198Y-103920000D01*
X136491314Y-103920000D01*
X136440720Y-103844280D01*
X136192635Y-103678516D01*
X135900000Y-103620307D01*
X134100000Y-103620307D01*
X133807365Y-103678516D01*
X133559280Y-103844280D01*
X133508686Y-103920000D01*
X132684693Y-103920000D01*
X132684693Y-103725000D01*
X132626484Y-103432365D01*
X132460720Y-103184280D01*
X132212635Y-103018516D01*
X131920000Y-102960307D01*
X131454520Y-102960307D01*
X130776754Y-102282542D01*
X130720960Y-102199040D01*
X130390181Y-101978021D01*
X130098490Y-101920000D01*
X130000000Y-101900409D01*
X129901510Y-101920000D01*
X124618490Y-101920000D01*
X124520000Y-101900409D01*
X124421510Y-101920000D01*
X124129819Y-101978021D01*
X123799040Y-102199040D01*
X123743246Y-102282542D01*
X123302542Y-102723246D01*
X123219040Y-102779040D01*
X123029616Y-103062535D01*
X122998021Y-103109820D01*
X122946932Y-103366659D01*
X122915000Y-103360307D01*
X122165000Y-103360307D01*
X121776694Y-103437546D01*
X121447504Y-103657504D01*
X121227546Y-103986694D01*
X121150307Y-104375000D01*
X121150307Y-105625000D01*
X121227546Y-106013306D01*
X121447504Y-106342496D01*
X121540001Y-106404300D01*
X121540000Y-108666548D01*
X121141198Y-109065350D01*
X120890000Y-109671795D01*
X120890000Y-110328205D01*
X121141198Y-110934650D01*
X121605350Y-111398802D01*
X122211795Y-111650000D01*
X122868205Y-111650000D01*
X123474650Y-111398802D01*
X123938802Y-110934650D01*
X124000000Y-110786904D01*
X124000001Y-114561505D01*
X123980409Y-114660000D01*
X124058021Y-115050180D01*
X124058022Y-115050181D01*
X124279041Y-115380960D01*
X124362540Y-115436752D01*
X126100787Y-117175000D01*
X119341726Y-117175000D01*
X114825000Y-112658275D01*
X114825000Y-103341725D01*
X116341727Y-101825000D01*
X165658275Y-101825000D01*
X167175000Y-103341727D01*
X167175000Y-103341727D01*
G37*
X167175000Y-103341727D02*
X167175001Y-112658273D01*
X162658275Y-117175000D01*
X135159212Y-117175000D01*
X135469510Y-116864702D01*
X135602239Y-116919680D01*
X136397761Y-116919680D01*
X137132728Y-116615247D01*
X137695247Y-116052728D01*
X137999680Y-115317761D01*
X137999680Y-114522239D01*
X138000320Y-114522239D01*
X138000320Y-115317761D01*
X138304753Y-116052728D01*
X138867272Y-116615247D01*
X139602239Y-116919680D01*
X140397761Y-116919680D01*
X141132728Y-116615247D01*
X141695247Y-116052728D01*
X141999680Y-115317761D01*
X141999680Y-114522239D01*
X141695247Y-113787272D01*
X141132728Y-113224753D01*
X141000000Y-113169775D01*
X141000000Y-111316259D01*
X141189583Y-111189583D01*
X141316259Y-111000000D01*
X143508686Y-111000000D01*
X143559280Y-111075720D01*
X143807365Y-111241484D01*
X144100000Y-111299693D01*
X145900000Y-111299693D01*
X146192635Y-111241484D01*
X146440720Y-111075720D01*
X146606484Y-110827635D01*
X146664693Y-110535000D01*
X146664693Y-109465000D01*
X146606484Y-109172365D01*
X146440720Y-108924280D01*
X146192635Y-108758516D01*
X145900000Y-108700307D01*
X144100000Y-108700307D01*
X143807365Y-108758516D01*
X143559280Y-108924280D01*
X143508686Y-109000000D01*
X141316259Y-109000000D01*
X141189583Y-108810417D01*
X140643798Y-108445734D01*
X140162509Y-108350000D01*
X139837491Y-108350000D01*
X139356202Y-108445734D01*
X138810417Y-108810417D01*
X138445734Y-109356202D01*
X138317675Y-110000000D01*
X138445734Y-110643798D01*
X138810417Y-111189583D01*
X139000001Y-111316259D01*
X139000000Y-113169775D01*
X138867272Y-113224753D01*
X138304753Y-113787272D01*
X138000320Y-114522239D01*
X137999680Y-114522239D01*
X137695247Y-113787272D01*
X137132728Y-113224753D01*
X136397761Y-112920320D01*
X135602239Y-112920320D01*
X134867272Y-113224753D01*
X134304753Y-113787272D01*
X134000320Y-114522239D01*
X134000320Y-115317761D01*
X134055298Y-115450490D01*
X133866499Y-115639289D01*
X133999680Y-115317761D01*
X133999680Y-114522239D01*
X133695247Y-113787272D01*
X133132728Y-113224753D01*
X132397761Y-112920320D01*
X131602239Y-112920320D01*
X130867272Y-113224753D01*
X130304753Y-113787272D01*
X130249775Y-113920000D01*
X127414213Y-113920000D01*
X127000000Y-113505787D01*
X127000000Y-110334212D01*
X127275079Y-110059134D01*
X127467836Y-110187930D01*
X127853750Y-110264693D01*
X128766250Y-110264693D01*
X129152164Y-110187930D01*
X129440905Y-109995000D01*
X130002095Y-109995000D01*
X130019280Y-110020720D01*
X130267365Y-110186484D01*
X130560000Y-110244693D01*
X132060000Y-110244693D01*
X132352635Y-110186484D01*
X132600720Y-110020720D01*
X132766484Y-109772635D01*
X132824693Y-109480000D01*
X132824693Y-108510000D01*
X132766484Y-108217365D01*
X132600720Y-107969280D01*
X132352635Y-107803516D01*
X132310000Y-107795035D01*
X132310000Y-106916427D01*
X132460720Y-106815720D01*
X132626484Y-106567635D01*
X132684693Y-106275000D01*
X132684693Y-105920000D01*
X133508686Y-105920000D01*
X133559280Y-105995720D01*
X133807365Y-106161484D01*
X134100000Y-106219693D01*
X135900000Y-106219693D01*
X136192635Y-106161484D01*
X136440720Y-105995720D01*
X136491314Y-105920000D01*
X138355198Y-105920000D01*
X138393516Y-106112635D01*
X138559280Y-106360720D01*
X138807365Y-106526484D01*
X139100000Y-106584693D01*
X140900000Y-106584693D01*
X141192635Y-106526484D01*
X141440720Y-106360720D01*
X141606484Y-106112635D01*
X141644802Y-105920000D01*
X146585788Y-105920000D01*
X147253247Y-106587460D01*
X147309040Y-106670960D01*
X147639819Y-106891979D01*
X148030000Y-106969591D01*
X148128490Y-106950000D01*
X150280246Y-106950000D01*
X150327365Y-106981484D01*
X150620000Y-107039693D01*
X151840000Y-107039693D01*
X152132635Y-106981484D01*
X152380720Y-106815720D01*
X152546484Y-106567635D01*
X152604693Y-106275000D01*
X152604693Y-105724160D01*
X152699280Y-105865720D01*
X152947365Y-106031484D01*
X153240000Y-106089693D01*
X154460000Y-106089693D01*
X154752635Y-106031484D01*
X154799754Y-106000000D01*
X155884899Y-106000000D01*
X155887546Y-106013306D01*
X156107504Y-106342496D01*
X156436694Y-106562454D01*
X156825000Y-106639693D01*
X157575000Y-106639693D01*
X157600000Y-106634720D01*
X157600000Y-107085787D01*
X156673288Y-108012500D01*
X155334714Y-108012500D01*
X155072164Y-107837070D01*
X154686250Y-107760307D01*
X153773750Y-107760307D01*
X153387836Y-107837070D01*
X153151477Y-107995000D01*
X152537905Y-107995000D01*
X152520720Y-107969280D01*
X152272635Y-107803516D01*
X151980000Y-107745307D01*
X150480000Y-107745307D01*
X150187365Y-107803516D01*
X149939280Y-107969280D01*
X149924484Y-107991425D01*
X149776000Y-108020960D01*
X149614819Y-108053021D01*
X149284040Y-108274040D01*
X149228247Y-108357540D01*
X147362540Y-110223248D01*
X147279041Y-110279040D01*
X147108014Y-110535000D01*
X147058021Y-110609820D01*
X146980409Y-111000000D01*
X147000001Y-111098495D01*
X147000000Y-113169775D01*
X146867272Y-113224753D01*
X146304753Y-113787272D01*
X146000320Y-114522239D01*
X146000320Y-115317761D01*
X146304753Y-116052728D01*
X146867272Y-116615247D01*
X147602239Y-116919680D01*
X148397761Y-116919680D01*
X149132728Y-116615247D01*
X149695247Y-116052728D01*
X149999680Y-115317761D01*
X149999680Y-114522239D01*
X149695247Y-113787272D01*
X149132728Y-113224753D01*
X149000000Y-113169775D01*
X149000000Y-111414212D01*
X150221032Y-110193181D01*
X150480000Y-110244693D01*
X151980000Y-110244693D01*
X152272635Y-110186484D01*
X152520720Y-110020720D01*
X152537905Y-109995000D01*
X153099095Y-109995000D01*
X153387836Y-110187930D01*
X153773750Y-110264693D01*
X154686250Y-110264693D01*
X155072164Y-110187930D01*
X155334714Y-110012500D01*
X156989010Y-110012500D01*
X157087500Y-110032091D01*
X157185990Y-110012500D01*
X157477681Y-109954479D01*
X157808460Y-109733460D01*
X157864254Y-109649958D01*
X159000001Y-108514212D01*
X159000001Y-108666547D01*
X158601198Y-109065350D01*
X158350000Y-109671795D01*
X158350000Y-110328205D01*
X158601198Y-110934650D01*
X159065350Y-111398802D01*
X159671795Y-111650000D01*
X160328205Y-111650000D01*
X160934650Y-111398802D01*
X161398802Y-110934650D01*
X161650000Y-110328205D01*
X161650000Y-109671795D01*
X161398802Y-109065350D01*
X161000000Y-108666548D01*
X161000000Y-106404300D01*
X161092496Y-106342496D01*
X161312454Y-106013306D01*
X161389693Y-105625000D01*
X161389693Y-104375000D01*
X161312454Y-103986694D01*
X161092496Y-103657504D01*
X160763306Y-103437546D01*
X160375000Y-103360307D01*
X159625000Y-103360307D01*
X159554799Y-103374271D01*
X159541979Y-103309819D01*
X159505555Y-103255307D01*
X159320960Y-102979040D01*
X159237463Y-102923249D01*
X158676754Y-102362541D01*
X158620960Y-102279040D01*
X158290181Y-102058021D01*
X157998490Y-102000000D01*
X157900000Y-101980409D01*
X157801510Y-102000000D01*
X152378489Y-102000000D01*
X152279999Y-101980409D01*
X151889819Y-102058021D01*
X151559040Y-102279040D01*
X151503249Y-102362537D01*
X150905480Y-102960307D01*
X150620000Y-102960307D01*
X150327365Y-103018516D01*
X150079280Y-103184280D01*
X149913516Y-103432365D01*
X149855307Y-103725000D01*
X149855307Y-104375000D01*
X149913516Y-104667635D01*
X150079280Y-104915720D01*
X150130584Y-104950000D01*
X148444213Y-104950000D01*
X147776754Y-104282542D01*
X147720960Y-104199040D01*
X147390181Y-103978021D01*
X147098490Y-103920000D01*
X147000000Y-103900409D01*
X146901510Y-103920000D01*
X141644802Y-103920000D01*
X141606484Y-103727365D01*
X141440720Y-103479280D01*
X141192635Y-103313516D01*
X140900000Y-103255307D01*
X139100000Y-103255307D01*
X138807365Y-103313516D01*
X138559280Y-103479280D01*
X138393516Y-103727365D01*
X138355198Y-103920000D01*
X136491314Y-103920000D01*
X136440720Y-103844280D01*
X136192635Y-103678516D01*
X135900000Y-103620307D01*
X134100000Y-103620307D01*
X133807365Y-103678516D01*
X133559280Y-103844280D01*
X133508686Y-103920000D01*
X132684693Y-103920000D01*
X132684693Y-103725000D01*
X132626484Y-103432365D01*
X132460720Y-103184280D01*
X132212635Y-103018516D01*
X131920000Y-102960307D01*
X131454520Y-102960307D01*
X130776754Y-102282542D01*
X130720960Y-102199040D01*
X130390181Y-101978021D01*
X130098490Y-101920000D01*
X130000000Y-101900409D01*
X129901510Y-101920000D01*
X124618490Y-101920000D01*
X124520000Y-101900409D01*
X124421510Y-101920000D01*
X124129819Y-101978021D01*
X123799040Y-102199040D01*
X123743246Y-102282542D01*
X123302542Y-102723246D01*
X123219040Y-102779040D01*
X123029616Y-103062535D01*
X122998021Y-103109820D01*
X122946932Y-103366659D01*
X122915000Y-103360307D01*
X122165000Y-103360307D01*
X121776694Y-103437546D01*
X121447504Y-103657504D01*
X121227546Y-103986694D01*
X121150307Y-104375000D01*
X121150307Y-105625000D01*
X121227546Y-106013306D01*
X121447504Y-106342496D01*
X121540001Y-106404300D01*
X121540000Y-108666548D01*
X121141198Y-109065350D01*
X120890000Y-109671795D01*
X120890000Y-110328205D01*
X121141198Y-110934650D01*
X121605350Y-111398802D01*
X122211795Y-111650000D01*
X122868205Y-111650000D01*
X123474650Y-111398802D01*
X123938802Y-110934650D01*
X124000000Y-110786904D01*
X124000001Y-114561505D01*
X123980409Y-114660000D01*
X124058021Y-115050180D01*
X124058022Y-115050181D01*
X124279041Y-115380960D01*
X124362540Y-115436752D01*
X126100787Y-117175000D01*
X119341726Y-117175000D01*
X114825000Y-112658275D01*
X114825000Y-103341725D01*
X116341727Y-101825000D01*
X165658275Y-101825000D01*
X167175000Y-103341727D01*
G04 #@! TD*
M02*
