%TF.GenerationSoftware,KiCad,Pcbnew,(5.0.0-rc2-dev-632-g76d3b6f04)*%
%TF.CreationDate,2018-06-22T20:28:34+02:00*%
%TF.ProjectId,CellsBoard,43656C6C73426F6172642E6B69636164,rev?*%
%TF.SameCoordinates,Original*%
%TF.FileFunction,Legend,Bot*%
%TF.FilePolarity,Positive*%
%FSLAX46Y46*%
G04 Gerber Fmt 4.6, Leading zero omitted, Abs format (unit mm)*
G04 Created by KiCad (PCBNEW (5.0.0-rc2-dev-632-g76d3b6f04)) date 06/22/18 20:28:34*
%MOMM*%
%LPD*%
G01*
G04 APERTURE LIST*
%ADD10C,0.150000*%
%ADD11C,0.120000*%
G04 APERTURE END LIST*
D10*
X69750000Y-132300000D02*
X72750000Y-132300000D01*
X68750000Y-147300000D02*
X68750000Y-133300000D01*
X72750000Y-148300000D02*
X69750000Y-148300000D01*
X73750000Y-133300000D02*
X73750000Y-147300000D01*
X69750000Y-148300000D02*
G75*
G02X68750000Y-147300000I0J1000000D01*
G01*
X68750000Y-133300000D02*
G75*
G02X69750000Y-132300000I1000000J0D01*
G01*
X72750000Y-132300000D02*
G75*
G02X73750000Y-133300000I0J-1000000D01*
G01*
X73750000Y-147300000D02*
G75*
G02X72750000Y-148300000I-1000000J0D01*
G01*
X250000000Y-90000000D02*
X52500000Y-90000000D01*
X250000000Y-90000000D02*
G75*
G02X252500000Y-92500000I0J-2500000D01*
G01*
X252500000Y-147500000D02*
X252500000Y-92500000D01*
X252500000Y-147500000D02*
G75*
G02X250000000Y-150000000I-2500000J0D01*
G01*
X52500000Y-150000000D02*
X250000000Y-150000000D01*
X52500000Y-150000000D02*
G75*
G02X50000000Y-147500000I0J2500000D01*
G01*
X50000000Y-92500000D02*
X50000000Y-147500000D01*
X50000000Y-92500000D02*
G75*
G02X52500000Y-90000000I2500000J0D01*
G01*
X103750000Y-106200000D02*
G75*
G02X103750000Y-93200000I0J6500000D01*
G01*
X127500000Y-93200000D02*
G75*
G02X127500000Y-106200000I0J-6500000D01*
G01*
X103750000Y-93200000D02*
X127500000Y-93200000D01*
X103750000Y-106200000D02*
X127500000Y-106200000D01*
X172500000Y-146800000D02*
G75*
G02X172500000Y-133800000I0J6500000D01*
G01*
X196250000Y-133800000D02*
G75*
G02X196250000Y-146800000I0J-6500000D01*
G01*
X172500000Y-133800000D02*
X196250000Y-133800000D01*
X172500000Y-146800000D02*
X196250000Y-146800000D01*
X97250000Y-120000000D02*
G75*
G02X110250000Y-120000000I6500000J0D01*
G01*
X110250000Y-140300000D02*
G75*
G02X97250000Y-140300000I-6500000J0D01*
G01*
X110250000Y-120000000D02*
X110250000Y-140300000D01*
X97250000Y-120000000D02*
X97250000Y-140300000D01*
X52250000Y-99700000D02*
G75*
G02X65250000Y-99700000I6500000J0D01*
G01*
X65250000Y-120000000D02*
G75*
G02X52250000Y-120000000I-6500000J0D01*
G01*
X65250000Y-99700000D02*
X65250000Y-120000000D01*
X52250000Y-99700000D02*
X52250000Y-120000000D01*
X179000000Y-120000000D02*
G75*
G02X166000000Y-120000000I-6500000J0D01*
G01*
X166000000Y-99700000D02*
G75*
G02X179000000Y-99700000I6500000J0D01*
G01*
X166000000Y-120000000D02*
X166000000Y-99700000D01*
X179000000Y-120000000D02*
X179000000Y-99700000D01*
X134000000Y-140300000D02*
G75*
G02X121000000Y-140300000I-6500000J0D01*
G01*
X121000000Y-120000000D02*
G75*
G02X134000000Y-120000000I6500000J0D01*
G01*
X121000000Y-140300000D02*
X121000000Y-120000000D01*
X134000000Y-140300000D02*
X134000000Y-120000000D01*
X234750000Y-120000000D02*
G75*
G02X247750000Y-120000000I6500000J0D01*
G01*
X247750000Y-140300000D02*
G75*
G02X234750000Y-140300000I-6500000J0D01*
G01*
X247750000Y-120000000D02*
X247750000Y-140300000D01*
X234750000Y-120000000D02*
X234750000Y-140300000D01*
X189750000Y-99700000D02*
G75*
G02X202750000Y-99700000I6500000J0D01*
G01*
X202750000Y-120000000D02*
G75*
G02X189750000Y-120000000I-6500000J0D01*
G01*
X202750000Y-99700000D02*
X202750000Y-120000000D01*
X189750000Y-99700000D02*
X189750000Y-120000000D01*
X58750000Y-133800000D02*
X66750000Y-133800000D01*
X58750000Y-146800000D02*
X66750000Y-146800000D01*
X58750000Y-146800000D02*
G75*
G02X58750000Y-133800000I0J6500000D01*
G01*
X241250000Y-106200000D02*
G75*
G02X241250000Y-93200000I0J6500000D01*
G01*
X241250000Y-106200000D02*
X249250000Y-106200000D01*
X241250000Y-93200000D02*
X249250000Y-93200000D01*
D11*
X81900000Y-137700000D02*
X80570000Y-137700000D01*
X80570000Y-137700000D02*
X80570000Y-139030000D01*
X80570000Y-140300000D02*
X80570000Y-142900000D01*
X83230000Y-142900000D02*
X80570000Y-142900000D01*
X83230000Y-140300000D02*
X83230000Y-142900000D01*
X83230000Y-140300000D02*
X80570000Y-140300000D01*
X79170000Y-120000000D02*
X81830000Y-120000000D01*
X79170000Y-120000000D02*
X79170000Y-117400000D01*
X79170000Y-117400000D02*
X81830000Y-117400000D01*
X81830000Y-120000000D02*
X81830000Y-117400000D01*
X81830000Y-122600000D02*
X81830000Y-121270000D01*
X80500000Y-122600000D02*
X81830000Y-122600000D01*
X82000000Y-97200000D02*
X80670000Y-97200000D01*
X80670000Y-97200000D02*
X80670000Y-98530000D01*
X80670000Y-99800000D02*
X80670000Y-102400000D01*
X83330000Y-102400000D02*
X80670000Y-102400000D01*
X83330000Y-99800000D02*
X83330000Y-102400000D01*
X83330000Y-99800000D02*
X80670000Y-99800000D01*
X150750000Y-97100000D02*
X149420000Y-97100000D01*
X149420000Y-97100000D02*
X149420000Y-98430000D01*
X149420000Y-99700000D02*
X149420000Y-102300000D01*
X152080000Y-102300000D02*
X149420000Y-102300000D01*
X152080000Y-99700000D02*
X152080000Y-102300000D01*
X152080000Y-99700000D02*
X149420000Y-99700000D01*
X149250000Y-122600000D02*
X150580000Y-122600000D01*
X150580000Y-122600000D02*
X150580000Y-121270000D01*
X150580000Y-120000000D02*
X150580000Y-117400000D01*
X147920000Y-117400000D02*
X150580000Y-117400000D01*
X147920000Y-120000000D02*
X147920000Y-117400000D01*
X147920000Y-120000000D02*
X150580000Y-120000000D01*
X150750000Y-137700000D02*
X149420000Y-137700000D01*
X149420000Y-137700000D02*
X149420000Y-139030000D01*
X149420000Y-140300000D02*
X149420000Y-142900000D01*
X152080000Y-142900000D02*
X149420000Y-142900000D01*
X152080000Y-140300000D02*
X152080000Y-142900000D01*
X152080000Y-140300000D02*
X149420000Y-140300000D01*
X219500000Y-137700000D02*
X218170000Y-137700000D01*
X218170000Y-137700000D02*
X218170000Y-139030000D01*
X218170000Y-140300000D02*
X218170000Y-142900000D01*
X220830000Y-142900000D02*
X218170000Y-142900000D01*
X220830000Y-140300000D02*
X220830000Y-142900000D01*
X220830000Y-140300000D02*
X218170000Y-140300000D01*
X218000000Y-122600000D02*
X219330000Y-122600000D01*
X219330000Y-122600000D02*
X219330000Y-121270000D01*
X219330000Y-120000000D02*
X219330000Y-117400000D01*
X216670000Y-117400000D02*
X219330000Y-117400000D01*
X216670000Y-120000000D02*
X216670000Y-117400000D01*
X216670000Y-120000000D02*
X219330000Y-120000000D01*
X220830000Y-99700000D02*
X218170000Y-99700000D01*
X220830000Y-99700000D02*
X220830000Y-102300000D01*
X220830000Y-102300000D02*
X218170000Y-102300000D01*
X218170000Y-99700000D02*
X218170000Y-102300000D01*
X218170000Y-97100000D02*
X218170000Y-98430000D01*
X219500000Y-97100000D02*
X218170000Y-97100000D01*
D10*
X82233333Y-135482380D02*
X82233333Y-136196666D01*
X82280952Y-136339523D01*
X82376190Y-136434761D01*
X82519047Y-136482380D01*
X82614285Y-136482380D01*
X81233333Y-136482380D02*
X81804761Y-136482380D01*
X81519047Y-136482380D02*
X81519047Y-135482380D01*
X81614285Y-135625238D01*
X81709523Y-135720476D01*
X81804761Y-135768095D01*
X80833333Y-115182380D02*
X80833333Y-115896666D01*
X80880952Y-116039523D01*
X80976190Y-116134761D01*
X81119047Y-116182380D01*
X81214285Y-116182380D01*
X80452380Y-115182380D02*
X79833333Y-115182380D01*
X80166666Y-115563333D01*
X80023809Y-115563333D01*
X79928571Y-115610952D01*
X79880952Y-115658571D01*
X79833333Y-115753809D01*
X79833333Y-115991904D01*
X79880952Y-116087142D01*
X79928571Y-116134761D01*
X80023809Y-116182380D01*
X80309523Y-116182380D01*
X80404761Y-116134761D01*
X80452380Y-116087142D01*
X82333333Y-94982380D02*
X82333333Y-95696666D01*
X82380952Y-95839523D01*
X82476190Y-95934761D01*
X82619047Y-95982380D01*
X82714285Y-95982380D01*
X81380952Y-94982380D02*
X81857142Y-94982380D01*
X81904761Y-95458571D01*
X81857142Y-95410952D01*
X81761904Y-95363333D01*
X81523809Y-95363333D01*
X81428571Y-95410952D01*
X81380952Y-95458571D01*
X81333333Y-95553809D01*
X81333333Y-95791904D01*
X81380952Y-95887142D01*
X81428571Y-95934761D01*
X81523809Y-95982380D01*
X81761904Y-95982380D01*
X81857142Y-95934761D01*
X81904761Y-95887142D01*
X151083333Y-94882380D02*
X151083333Y-95596666D01*
X151130952Y-95739523D01*
X151226190Y-95834761D01*
X151369047Y-95882380D01*
X151464285Y-95882380D01*
X150702380Y-94882380D02*
X150035714Y-94882380D01*
X150464285Y-95882380D01*
X150059523Y-115182380D02*
X150059523Y-115896666D01*
X150107142Y-116039523D01*
X150202380Y-116134761D01*
X150345238Y-116182380D01*
X150440476Y-116182380D01*
X149059523Y-116182380D02*
X149630952Y-116182380D01*
X149345238Y-116182380D02*
X149345238Y-115182380D01*
X149440476Y-115325238D01*
X149535714Y-115420476D01*
X149630952Y-115468095D01*
X148440476Y-115182380D02*
X148345238Y-115182380D01*
X148250000Y-115230000D01*
X148202380Y-115277619D01*
X148154761Y-115372857D01*
X148107142Y-115563333D01*
X148107142Y-115801428D01*
X148154761Y-115991904D01*
X148202380Y-116087142D01*
X148250000Y-116134761D01*
X148345238Y-116182380D01*
X148440476Y-116182380D01*
X148535714Y-116134761D01*
X148583333Y-116087142D01*
X148630952Y-115991904D01*
X148678571Y-115801428D01*
X148678571Y-115563333D01*
X148630952Y-115372857D01*
X148583333Y-115277619D01*
X148535714Y-115230000D01*
X148440476Y-115182380D01*
X151559523Y-135482380D02*
X151559523Y-136196666D01*
X151607142Y-136339523D01*
X151702380Y-136434761D01*
X151845238Y-136482380D01*
X151940476Y-136482380D01*
X150559523Y-136482380D02*
X151130952Y-136482380D01*
X150845238Y-136482380D02*
X150845238Y-135482380D01*
X150940476Y-135625238D01*
X151035714Y-135720476D01*
X151130952Y-135768095D01*
X150178571Y-135577619D02*
X150130952Y-135530000D01*
X150035714Y-135482380D01*
X149797619Y-135482380D01*
X149702380Y-135530000D01*
X149654761Y-135577619D01*
X149607142Y-135672857D01*
X149607142Y-135768095D01*
X149654761Y-135910952D01*
X150226190Y-136482380D01*
X149607142Y-136482380D01*
X220309523Y-135482380D02*
X220309523Y-136196666D01*
X220357142Y-136339523D01*
X220452380Y-136434761D01*
X220595238Y-136482380D01*
X220690476Y-136482380D01*
X219309523Y-136482380D02*
X219880952Y-136482380D01*
X219595238Y-136482380D02*
X219595238Y-135482380D01*
X219690476Y-135625238D01*
X219785714Y-135720476D01*
X219880952Y-135768095D01*
X218452380Y-135815714D02*
X218452380Y-136482380D01*
X218690476Y-135434761D02*
X218928571Y-136149047D01*
X218309523Y-136149047D01*
X218809523Y-115182380D02*
X218809523Y-115896666D01*
X218857142Y-116039523D01*
X218952380Y-116134761D01*
X219095238Y-116182380D01*
X219190476Y-116182380D01*
X217809523Y-116182380D02*
X218380952Y-116182380D01*
X218095238Y-116182380D02*
X218095238Y-115182380D01*
X218190476Y-115325238D01*
X218285714Y-115420476D01*
X218380952Y-115468095D01*
X216952380Y-115182380D02*
X217142857Y-115182380D01*
X217238095Y-115230000D01*
X217285714Y-115277619D01*
X217380952Y-115420476D01*
X217428571Y-115610952D01*
X217428571Y-115991904D01*
X217380952Y-116087142D01*
X217333333Y-116134761D01*
X217238095Y-116182380D01*
X217047619Y-116182380D01*
X216952380Y-116134761D01*
X216904761Y-116087142D01*
X216857142Y-115991904D01*
X216857142Y-115753809D01*
X216904761Y-115658571D01*
X216952380Y-115610952D01*
X217047619Y-115563333D01*
X217238095Y-115563333D01*
X217333333Y-115610952D01*
X217380952Y-115658571D01*
X217428571Y-115753809D01*
X220309523Y-94882380D02*
X220309523Y-95596666D01*
X220357142Y-95739523D01*
X220452380Y-95834761D01*
X220595238Y-95882380D01*
X220690476Y-95882380D01*
X219309523Y-95882380D02*
X219880952Y-95882380D01*
X219595238Y-95882380D02*
X219595238Y-94882380D01*
X219690476Y-95025238D01*
X219785714Y-95120476D01*
X219880952Y-95168095D01*
X218738095Y-95310952D02*
X218833333Y-95263333D01*
X218880952Y-95215714D01*
X218928571Y-95120476D01*
X218928571Y-95072857D01*
X218880952Y-94977619D01*
X218833333Y-94930000D01*
X218738095Y-94882380D01*
X218547619Y-94882380D01*
X218452380Y-94930000D01*
X218404761Y-94977619D01*
X218357142Y-95072857D01*
X218357142Y-95120476D01*
X218404761Y-95215714D01*
X218452380Y-95263333D01*
X218547619Y-95310952D01*
X218738095Y-95310952D01*
X218833333Y-95358571D01*
X218880952Y-95406190D01*
X218928571Y-95501428D01*
X218928571Y-95691904D01*
X218880952Y-95787142D01*
X218833333Y-95834761D01*
X218738095Y-95882380D01*
X218547619Y-95882380D01*
X218452380Y-95834761D01*
X218404761Y-95787142D01*
X218357142Y-95691904D01*
X218357142Y-95501428D01*
X218404761Y-95406190D01*
X218452380Y-95358571D01*
X218547619Y-95310952D01*
M02*
