%TF.GenerationSoftware,KiCad,Pcbnew,(5.0.0-rc2-dev-632-g76d3b6f04)*%
%TF.CreationDate,2018-06-22T20:28:33+02:00*%
%TF.ProjectId,CellsBoard,43656C6C73426F6172642E6B69636164,rev?*%
%TF.SameCoordinates,Original*%
%TF.FileFunction,Copper,L1,Top,Signal*%
%TF.FilePolarity,Positive*%
%FSLAX46Y46*%
G04 Gerber Fmt 4.6, Leading zero omitted, Abs format (unit mm)*
G04 Created by KiCad (PCBNEW (5.0.0-rc2-dev-632-g76d3b6f04)) date 06/22/18 20:28:33*
%MOMM*%
%LPD*%
G01*
G04 APERTURE LIST*
%ADD10C,0.150000*%
%ADD11C,11.000000*%
%ADD12C,0.900000*%
%ADD13C,1.500000*%
%ADD14O,2.000000X1.500000*%
%ADD15R,2.000000X1.500000*%
%ADD16C,1.200000*%
%ADD17R,1.250000X0.250000*%
%ADD18R,1.300000X0.750000*%
%ADD19O,1.700000X1.700000*%
%ADD20R,1.700000X1.700000*%
%ADD21R,1.500000X0.970000*%
%ADD22R,0.970000X1.500000*%
%ADD23R,1.070000X1.800000*%
%ADD24R,1.500000X1.000000*%
%ADD25R,0.900000X0.800000*%
%ADD26C,0.400000*%
%ADD27C,0.800000*%
%ADD28C,0.200000*%
%ADD29C,0.250000*%
%ADD30C,0.500000*%
G04 APERTURE END LIST*
D10*
X69750000Y-132300000D02*
X72750000Y-132300000D01*
X68750000Y-147300000D02*
X68750000Y-133300000D01*
X72750000Y-148300000D02*
X69750000Y-148300000D01*
X73750000Y-133300000D02*
X73750000Y-147300000D01*
X69750000Y-148300000D02*
G75*
G02X68750000Y-147300000I0J1000000D01*
G01*
X68750000Y-133300000D02*
G75*
G02X69750000Y-132300000I1000000J0D01*
G01*
X72750000Y-132300000D02*
G75*
G02X73750000Y-133300000I0J-1000000D01*
G01*
X73750000Y-147300000D02*
G75*
G02X72750000Y-148300000I-1000000J0D01*
G01*
X250000000Y-90000000D02*
X52500000Y-90000000D01*
X250000000Y-90000000D02*
G75*
G02X252500000Y-92500000I0J-2500000D01*
G01*
X252500000Y-147500000D02*
X252500000Y-92500000D01*
X252500000Y-147500000D02*
G75*
G02X250000000Y-150000000I-2500000J0D01*
G01*
X52500000Y-150000000D02*
X250000000Y-150000000D01*
X52500000Y-150000000D02*
G75*
G02X50000000Y-147500000I0J2500000D01*
G01*
X50000000Y-92500000D02*
X50000000Y-147500000D01*
X50000000Y-92500000D02*
G75*
G02X52500000Y-90000000I2500000J0D01*
G01*
D11*
X103750000Y-99700000D03*
D12*
X107875000Y-99700000D03*
X106676815Y-102626815D03*
X103750000Y-103825000D03*
X100823185Y-102626815D03*
X99625000Y-99700000D03*
X100823185Y-96773185D03*
X103750000Y-95575000D03*
X106676815Y-96773185D03*
X131625000Y-99700000D03*
X123375000Y-99700000D03*
X127500000Y-103825000D03*
X124573185Y-96773185D03*
X130426815Y-96773185D03*
X130426815Y-102626815D03*
X127500000Y-95575000D03*
X124573185Y-102626815D03*
D11*
X127500000Y-99700000D03*
D10*
G36*
X119111756Y-98201806D02*
X119148159Y-98207206D01*
X119183857Y-98216147D01*
X119218506Y-98228545D01*
X119251774Y-98244280D01*
X119283339Y-98263199D01*
X119312897Y-98285121D01*
X119340165Y-98309835D01*
X119364879Y-98337103D01*
X119386801Y-98366661D01*
X119405720Y-98398226D01*
X119421455Y-98431494D01*
X119433853Y-98466143D01*
X119442794Y-98501841D01*
X119448194Y-98538244D01*
X119450000Y-98575000D01*
X119450000Y-100825000D01*
X119448194Y-100861756D01*
X119442794Y-100898159D01*
X119433853Y-100933857D01*
X119421455Y-100968506D01*
X119405720Y-101001774D01*
X119386801Y-101033339D01*
X119364879Y-101062897D01*
X119340165Y-101090165D01*
X119312897Y-101114879D01*
X119283339Y-101136801D01*
X119251774Y-101155720D01*
X119218506Y-101171455D01*
X119183857Y-101183853D01*
X119148159Y-101192794D01*
X119111756Y-101198194D01*
X119075000Y-101200000D01*
X118325000Y-101200000D01*
X118288244Y-101198194D01*
X118251841Y-101192794D01*
X118216143Y-101183853D01*
X118181494Y-101171455D01*
X118148226Y-101155720D01*
X118116661Y-101136801D01*
X118087103Y-101114879D01*
X118059835Y-101090165D01*
X118035121Y-101062897D01*
X118013199Y-101033339D01*
X117994280Y-101001774D01*
X117978545Y-100968506D01*
X117966147Y-100933857D01*
X117957206Y-100898159D01*
X117951806Y-100861756D01*
X117950000Y-100825000D01*
X117950000Y-98575000D01*
X117951806Y-98538244D01*
X117957206Y-98501841D01*
X117966147Y-98466143D01*
X117978545Y-98431494D01*
X117994280Y-98398226D01*
X118013199Y-98366661D01*
X118035121Y-98337103D01*
X118059835Y-98309835D01*
X118087103Y-98285121D01*
X118116661Y-98263199D01*
X118148226Y-98244280D01*
X118181494Y-98228545D01*
X118216143Y-98216147D01*
X118251841Y-98207206D01*
X118288244Y-98201806D01*
X118325000Y-98200000D01*
X119075000Y-98200000D01*
X119111756Y-98201806D01*
X119111756Y-98201806D01*
G37*
D13*
X118700000Y-99700000D03*
D10*
G36*
X112961756Y-98201806D02*
X112998159Y-98207206D01*
X113033857Y-98216147D01*
X113068506Y-98228545D01*
X113101774Y-98244280D01*
X113133339Y-98263199D01*
X113162897Y-98285121D01*
X113190165Y-98309835D01*
X113214879Y-98337103D01*
X113236801Y-98366661D01*
X113255720Y-98398226D01*
X113271455Y-98431494D01*
X113283853Y-98466143D01*
X113292794Y-98501841D01*
X113298194Y-98538244D01*
X113300000Y-98575000D01*
X113300000Y-100825000D01*
X113298194Y-100861756D01*
X113292794Y-100898159D01*
X113283853Y-100933857D01*
X113271455Y-100968506D01*
X113255720Y-101001774D01*
X113236801Y-101033339D01*
X113214879Y-101062897D01*
X113190165Y-101090165D01*
X113162897Y-101114879D01*
X113133339Y-101136801D01*
X113101774Y-101155720D01*
X113068506Y-101171455D01*
X113033857Y-101183853D01*
X112998159Y-101192794D01*
X112961756Y-101198194D01*
X112925000Y-101200000D01*
X112175000Y-101200000D01*
X112138244Y-101198194D01*
X112101841Y-101192794D01*
X112066143Y-101183853D01*
X112031494Y-101171455D01*
X111998226Y-101155720D01*
X111966661Y-101136801D01*
X111937103Y-101114879D01*
X111909835Y-101090165D01*
X111885121Y-101062897D01*
X111863199Y-101033339D01*
X111844280Y-101001774D01*
X111828545Y-100968506D01*
X111816147Y-100933857D01*
X111807206Y-100898159D01*
X111801806Y-100861756D01*
X111800000Y-100825000D01*
X111800000Y-98575000D01*
X111801806Y-98538244D01*
X111807206Y-98501841D01*
X111816147Y-98466143D01*
X111828545Y-98431494D01*
X111844280Y-98398226D01*
X111863199Y-98366661D01*
X111885121Y-98337103D01*
X111909835Y-98309835D01*
X111937103Y-98285121D01*
X111966661Y-98263199D01*
X111998226Y-98244280D01*
X112031494Y-98228545D01*
X112066143Y-98216147D01*
X112101841Y-98207206D01*
X112138244Y-98201806D01*
X112175000Y-98200000D01*
X112925000Y-98200000D01*
X112961756Y-98201806D01*
X112961756Y-98201806D01*
G37*
D13*
X112550000Y-99700000D03*
D11*
X172500000Y-140300000D03*
D12*
X176625000Y-140300000D03*
X175426815Y-143226815D03*
X172500000Y-144425000D03*
X169573185Y-143226815D03*
X168375000Y-140300000D03*
X169573185Y-137373185D03*
X172500000Y-136175000D03*
X175426815Y-137373185D03*
X200375000Y-140300000D03*
X192125000Y-140300000D03*
X196250000Y-144425000D03*
X193323185Y-137373185D03*
X199176815Y-137373185D03*
X199176815Y-143226815D03*
X196250000Y-136175000D03*
X193323185Y-143226815D03*
D11*
X196250000Y-140300000D03*
D10*
G36*
X187861756Y-138801806D02*
X187898159Y-138807206D01*
X187933857Y-138816147D01*
X187968506Y-138828545D01*
X188001774Y-138844280D01*
X188033339Y-138863199D01*
X188062897Y-138885121D01*
X188090165Y-138909835D01*
X188114879Y-138937103D01*
X188136801Y-138966661D01*
X188155720Y-138998226D01*
X188171455Y-139031494D01*
X188183853Y-139066143D01*
X188192794Y-139101841D01*
X188198194Y-139138244D01*
X188200000Y-139175000D01*
X188200000Y-141425000D01*
X188198194Y-141461756D01*
X188192794Y-141498159D01*
X188183853Y-141533857D01*
X188171455Y-141568506D01*
X188155720Y-141601774D01*
X188136801Y-141633339D01*
X188114879Y-141662897D01*
X188090165Y-141690165D01*
X188062897Y-141714879D01*
X188033339Y-141736801D01*
X188001774Y-141755720D01*
X187968506Y-141771455D01*
X187933857Y-141783853D01*
X187898159Y-141792794D01*
X187861756Y-141798194D01*
X187825000Y-141800000D01*
X187075000Y-141800000D01*
X187038244Y-141798194D01*
X187001841Y-141792794D01*
X186966143Y-141783853D01*
X186931494Y-141771455D01*
X186898226Y-141755720D01*
X186866661Y-141736801D01*
X186837103Y-141714879D01*
X186809835Y-141690165D01*
X186785121Y-141662897D01*
X186763199Y-141633339D01*
X186744280Y-141601774D01*
X186728545Y-141568506D01*
X186716147Y-141533857D01*
X186707206Y-141498159D01*
X186701806Y-141461756D01*
X186700000Y-141425000D01*
X186700000Y-139175000D01*
X186701806Y-139138244D01*
X186707206Y-139101841D01*
X186716147Y-139066143D01*
X186728545Y-139031494D01*
X186744280Y-138998226D01*
X186763199Y-138966661D01*
X186785121Y-138937103D01*
X186809835Y-138909835D01*
X186837103Y-138885121D01*
X186866661Y-138863199D01*
X186898226Y-138844280D01*
X186931494Y-138828545D01*
X186966143Y-138816147D01*
X187001841Y-138807206D01*
X187038244Y-138801806D01*
X187075000Y-138800000D01*
X187825000Y-138800000D01*
X187861756Y-138801806D01*
X187861756Y-138801806D01*
G37*
D13*
X187450000Y-140300000D03*
D10*
G36*
X181711756Y-138801806D02*
X181748159Y-138807206D01*
X181783857Y-138816147D01*
X181818506Y-138828545D01*
X181851774Y-138844280D01*
X181883339Y-138863199D01*
X181912897Y-138885121D01*
X181940165Y-138909835D01*
X181964879Y-138937103D01*
X181986801Y-138966661D01*
X182005720Y-138998226D01*
X182021455Y-139031494D01*
X182033853Y-139066143D01*
X182042794Y-139101841D01*
X182048194Y-139138244D01*
X182050000Y-139175000D01*
X182050000Y-141425000D01*
X182048194Y-141461756D01*
X182042794Y-141498159D01*
X182033853Y-141533857D01*
X182021455Y-141568506D01*
X182005720Y-141601774D01*
X181986801Y-141633339D01*
X181964879Y-141662897D01*
X181940165Y-141690165D01*
X181912897Y-141714879D01*
X181883339Y-141736801D01*
X181851774Y-141755720D01*
X181818506Y-141771455D01*
X181783857Y-141783853D01*
X181748159Y-141792794D01*
X181711756Y-141798194D01*
X181675000Y-141800000D01*
X180925000Y-141800000D01*
X180888244Y-141798194D01*
X180851841Y-141792794D01*
X180816143Y-141783853D01*
X180781494Y-141771455D01*
X180748226Y-141755720D01*
X180716661Y-141736801D01*
X180687103Y-141714879D01*
X180659835Y-141690165D01*
X180635121Y-141662897D01*
X180613199Y-141633339D01*
X180594280Y-141601774D01*
X180578545Y-141568506D01*
X180566147Y-141533857D01*
X180557206Y-141498159D01*
X180551806Y-141461756D01*
X180550000Y-141425000D01*
X180550000Y-139175000D01*
X180551806Y-139138244D01*
X180557206Y-139101841D01*
X180566147Y-139066143D01*
X180578545Y-139031494D01*
X180594280Y-138998226D01*
X180613199Y-138966661D01*
X180635121Y-138937103D01*
X180659835Y-138909835D01*
X180687103Y-138885121D01*
X180716661Y-138863199D01*
X180748226Y-138844280D01*
X180781494Y-138828545D01*
X180816143Y-138816147D01*
X180851841Y-138807206D01*
X180888244Y-138801806D01*
X180925000Y-138800000D01*
X181675000Y-138800000D01*
X181711756Y-138801806D01*
X181711756Y-138801806D01*
G37*
D13*
X181300000Y-140300000D03*
D11*
X103750000Y-120000000D03*
D12*
X103750000Y-124125000D03*
X100823185Y-122926815D03*
X99625000Y-120000000D03*
X100823185Y-117073185D03*
X103750000Y-115875000D03*
X106676815Y-117073185D03*
X107875000Y-120000000D03*
X106676815Y-122926815D03*
X103750000Y-144425000D03*
X103750000Y-136175000D03*
X99625000Y-140300000D03*
X106676815Y-137373185D03*
X106676815Y-143226815D03*
X100823185Y-143226815D03*
X107875000Y-140300000D03*
X100823185Y-137373185D03*
D11*
X103750000Y-140300000D03*
D10*
G36*
X104911756Y-130901806D02*
X104948159Y-130907206D01*
X104983857Y-130916147D01*
X105018506Y-130928545D01*
X105051774Y-130944280D01*
X105083339Y-130963199D01*
X105112897Y-130985121D01*
X105140165Y-131009835D01*
X105164879Y-131037103D01*
X105186801Y-131066661D01*
X105205720Y-131098226D01*
X105221455Y-131131494D01*
X105233853Y-131166143D01*
X105242794Y-131201841D01*
X105248194Y-131238244D01*
X105250000Y-131275000D01*
X105250000Y-132025000D01*
X105248194Y-132061756D01*
X105242794Y-132098159D01*
X105233853Y-132133857D01*
X105221455Y-132168506D01*
X105205720Y-132201774D01*
X105186801Y-132233339D01*
X105164879Y-132262897D01*
X105140165Y-132290165D01*
X105112897Y-132314879D01*
X105083339Y-132336801D01*
X105051774Y-132355720D01*
X105018506Y-132371455D01*
X104983857Y-132383853D01*
X104948159Y-132392794D01*
X104911756Y-132398194D01*
X104875000Y-132400000D01*
X102625000Y-132400000D01*
X102588244Y-132398194D01*
X102551841Y-132392794D01*
X102516143Y-132383853D01*
X102481494Y-132371455D01*
X102448226Y-132355720D01*
X102416661Y-132336801D01*
X102387103Y-132314879D01*
X102359835Y-132290165D01*
X102335121Y-132262897D01*
X102313199Y-132233339D01*
X102294280Y-132201774D01*
X102278545Y-132168506D01*
X102266147Y-132133857D01*
X102257206Y-132098159D01*
X102251806Y-132061756D01*
X102250000Y-132025000D01*
X102250000Y-131275000D01*
X102251806Y-131238244D01*
X102257206Y-131201841D01*
X102266147Y-131166143D01*
X102278545Y-131131494D01*
X102294280Y-131098226D01*
X102313199Y-131066661D01*
X102335121Y-131037103D01*
X102359835Y-131009835D01*
X102387103Y-130985121D01*
X102416661Y-130963199D01*
X102448226Y-130944280D01*
X102481494Y-130928545D01*
X102516143Y-130916147D01*
X102551841Y-130907206D01*
X102588244Y-130901806D01*
X102625000Y-130900000D01*
X104875000Y-130900000D01*
X104911756Y-130901806D01*
X104911756Y-130901806D01*
G37*
D13*
X103750000Y-131650000D03*
D10*
G36*
X104911756Y-127901806D02*
X104948159Y-127907206D01*
X104983857Y-127916147D01*
X105018506Y-127928545D01*
X105051774Y-127944280D01*
X105083339Y-127963199D01*
X105112897Y-127985121D01*
X105140165Y-128009835D01*
X105164879Y-128037103D01*
X105186801Y-128066661D01*
X105205720Y-128098226D01*
X105221455Y-128131494D01*
X105233853Y-128166143D01*
X105242794Y-128201841D01*
X105248194Y-128238244D01*
X105250000Y-128275000D01*
X105250000Y-129025000D01*
X105248194Y-129061756D01*
X105242794Y-129098159D01*
X105233853Y-129133857D01*
X105221455Y-129168506D01*
X105205720Y-129201774D01*
X105186801Y-129233339D01*
X105164879Y-129262897D01*
X105140165Y-129290165D01*
X105112897Y-129314879D01*
X105083339Y-129336801D01*
X105051774Y-129355720D01*
X105018506Y-129371455D01*
X104983857Y-129383853D01*
X104948159Y-129392794D01*
X104911756Y-129398194D01*
X104875000Y-129400000D01*
X102625000Y-129400000D01*
X102588244Y-129398194D01*
X102551841Y-129392794D01*
X102516143Y-129383853D01*
X102481494Y-129371455D01*
X102448226Y-129355720D01*
X102416661Y-129336801D01*
X102387103Y-129314879D01*
X102359835Y-129290165D01*
X102335121Y-129262897D01*
X102313199Y-129233339D01*
X102294280Y-129201774D01*
X102278545Y-129168506D01*
X102266147Y-129133857D01*
X102257206Y-129098159D01*
X102251806Y-129061756D01*
X102250000Y-129025000D01*
X102250000Y-128275000D01*
X102251806Y-128238244D01*
X102257206Y-128201841D01*
X102266147Y-128166143D01*
X102278545Y-128131494D01*
X102294280Y-128098226D01*
X102313199Y-128066661D01*
X102335121Y-128037103D01*
X102359835Y-128009835D01*
X102387103Y-127985121D01*
X102416661Y-127963199D01*
X102448226Y-127944280D01*
X102481494Y-127928545D01*
X102516143Y-127916147D01*
X102551841Y-127907206D01*
X102588244Y-127901806D01*
X102625000Y-127900000D01*
X104875000Y-127900000D01*
X104911756Y-127901806D01*
X104911756Y-127901806D01*
G37*
D13*
X103750000Y-128650000D03*
D11*
X58750000Y-99700000D03*
D12*
X58750000Y-103825000D03*
X55823185Y-102626815D03*
X54625000Y-99700000D03*
X55823185Y-96773185D03*
X58750000Y-95575000D03*
X61676815Y-96773185D03*
X62875000Y-99700000D03*
X61676815Y-102626815D03*
X58750000Y-124125000D03*
X58750000Y-115875000D03*
X54625000Y-120000000D03*
X61676815Y-117073185D03*
X61676815Y-122926815D03*
X55823185Y-122926815D03*
X62875000Y-120000000D03*
X55823185Y-117073185D03*
D11*
X58750000Y-120000000D03*
D10*
G36*
X59911756Y-110601806D02*
X59948159Y-110607206D01*
X59983857Y-110616147D01*
X60018506Y-110628545D01*
X60051774Y-110644280D01*
X60083339Y-110663199D01*
X60112897Y-110685121D01*
X60140165Y-110709835D01*
X60164879Y-110737103D01*
X60186801Y-110766661D01*
X60205720Y-110798226D01*
X60221455Y-110831494D01*
X60233853Y-110866143D01*
X60242794Y-110901841D01*
X60248194Y-110938244D01*
X60250000Y-110975000D01*
X60250000Y-111725000D01*
X60248194Y-111761756D01*
X60242794Y-111798159D01*
X60233853Y-111833857D01*
X60221455Y-111868506D01*
X60205720Y-111901774D01*
X60186801Y-111933339D01*
X60164879Y-111962897D01*
X60140165Y-111990165D01*
X60112897Y-112014879D01*
X60083339Y-112036801D01*
X60051774Y-112055720D01*
X60018506Y-112071455D01*
X59983857Y-112083853D01*
X59948159Y-112092794D01*
X59911756Y-112098194D01*
X59875000Y-112100000D01*
X57625000Y-112100000D01*
X57588244Y-112098194D01*
X57551841Y-112092794D01*
X57516143Y-112083853D01*
X57481494Y-112071455D01*
X57448226Y-112055720D01*
X57416661Y-112036801D01*
X57387103Y-112014879D01*
X57359835Y-111990165D01*
X57335121Y-111962897D01*
X57313199Y-111933339D01*
X57294280Y-111901774D01*
X57278545Y-111868506D01*
X57266147Y-111833857D01*
X57257206Y-111798159D01*
X57251806Y-111761756D01*
X57250000Y-111725000D01*
X57250000Y-110975000D01*
X57251806Y-110938244D01*
X57257206Y-110901841D01*
X57266147Y-110866143D01*
X57278545Y-110831494D01*
X57294280Y-110798226D01*
X57313199Y-110766661D01*
X57335121Y-110737103D01*
X57359835Y-110709835D01*
X57387103Y-110685121D01*
X57416661Y-110663199D01*
X57448226Y-110644280D01*
X57481494Y-110628545D01*
X57516143Y-110616147D01*
X57551841Y-110607206D01*
X57588244Y-110601806D01*
X57625000Y-110600000D01*
X59875000Y-110600000D01*
X59911756Y-110601806D01*
X59911756Y-110601806D01*
G37*
D13*
X58750000Y-111350000D03*
D10*
G36*
X59911756Y-107601806D02*
X59948159Y-107607206D01*
X59983857Y-107616147D01*
X60018506Y-107628545D01*
X60051774Y-107644280D01*
X60083339Y-107663199D01*
X60112897Y-107685121D01*
X60140165Y-107709835D01*
X60164879Y-107737103D01*
X60186801Y-107766661D01*
X60205720Y-107798226D01*
X60221455Y-107831494D01*
X60233853Y-107866143D01*
X60242794Y-107901841D01*
X60248194Y-107938244D01*
X60250000Y-107975000D01*
X60250000Y-108725000D01*
X60248194Y-108761756D01*
X60242794Y-108798159D01*
X60233853Y-108833857D01*
X60221455Y-108868506D01*
X60205720Y-108901774D01*
X60186801Y-108933339D01*
X60164879Y-108962897D01*
X60140165Y-108990165D01*
X60112897Y-109014879D01*
X60083339Y-109036801D01*
X60051774Y-109055720D01*
X60018506Y-109071455D01*
X59983857Y-109083853D01*
X59948159Y-109092794D01*
X59911756Y-109098194D01*
X59875000Y-109100000D01*
X57625000Y-109100000D01*
X57588244Y-109098194D01*
X57551841Y-109092794D01*
X57516143Y-109083853D01*
X57481494Y-109071455D01*
X57448226Y-109055720D01*
X57416661Y-109036801D01*
X57387103Y-109014879D01*
X57359835Y-108990165D01*
X57335121Y-108962897D01*
X57313199Y-108933339D01*
X57294280Y-108901774D01*
X57278545Y-108868506D01*
X57266147Y-108833857D01*
X57257206Y-108798159D01*
X57251806Y-108761756D01*
X57250000Y-108725000D01*
X57250000Y-107975000D01*
X57251806Y-107938244D01*
X57257206Y-107901841D01*
X57266147Y-107866143D01*
X57278545Y-107831494D01*
X57294280Y-107798226D01*
X57313199Y-107766661D01*
X57335121Y-107737103D01*
X57359835Y-107709835D01*
X57387103Y-107685121D01*
X57416661Y-107663199D01*
X57448226Y-107644280D01*
X57481494Y-107628545D01*
X57516143Y-107616147D01*
X57551841Y-107607206D01*
X57588244Y-107601806D01*
X57625000Y-107600000D01*
X59875000Y-107600000D01*
X59911756Y-107601806D01*
X59911756Y-107601806D01*
G37*
D13*
X58750000Y-108350000D03*
D11*
X172500000Y-120000000D03*
D12*
X172500000Y-115875000D03*
X175426815Y-117073185D03*
X176625000Y-120000000D03*
X175426815Y-122926815D03*
X172500000Y-124125000D03*
X169573185Y-122926815D03*
X168375000Y-120000000D03*
X169573185Y-117073185D03*
X172500000Y-95575000D03*
X172500000Y-103825000D03*
X176625000Y-99700000D03*
X169573185Y-102626815D03*
X169573185Y-96773185D03*
X175426815Y-96773185D03*
X168375000Y-99700000D03*
X175426815Y-102626815D03*
D11*
X172500000Y-99700000D03*
D10*
G36*
X173661756Y-107601806D02*
X173698159Y-107607206D01*
X173733857Y-107616147D01*
X173768506Y-107628545D01*
X173801774Y-107644280D01*
X173833339Y-107663199D01*
X173862897Y-107685121D01*
X173890165Y-107709835D01*
X173914879Y-107737103D01*
X173936801Y-107766661D01*
X173955720Y-107798226D01*
X173971455Y-107831494D01*
X173983853Y-107866143D01*
X173992794Y-107901841D01*
X173998194Y-107938244D01*
X174000000Y-107975000D01*
X174000000Y-108725000D01*
X173998194Y-108761756D01*
X173992794Y-108798159D01*
X173983853Y-108833857D01*
X173971455Y-108868506D01*
X173955720Y-108901774D01*
X173936801Y-108933339D01*
X173914879Y-108962897D01*
X173890165Y-108990165D01*
X173862897Y-109014879D01*
X173833339Y-109036801D01*
X173801774Y-109055720D01*
X173768506Y-109071455D01*
X173733857Y-109083853D01*
X173698159Y-109092794D01*
X173661756Y-109098194D01*
X173625000Y-109100000D01*
X171375000Y-109100000D01*
X171338244Y-109098194D01*
X171301841Y-109092794D01*
X171266143Y-109083853D01*
X171231494Y-109071455D01*
X171198226Y-109055720D01*
X171166661Y-109036801D01*
X171137103Y-109014879D01*
X171109835Y-108990165D01*
X171085121Y-108962897D01*
X171063199Y-108933339D01*
X171044280Y-108901774D01*
X171028545Y-108868506D01*
X171016147Y-108833857D01*
X171007206Y-108798159D01*
X171001806Y-108761756D01*
X171000000Y-108725000D01*
X171000000Y-107975000D01*
X171001806Y-107938244D01*
X171007206Y-107901841D01*
X171016147Y-107866143D01*
X171028545Y-107831494D01*
X171044280Y-107798226D01*
X171063199Y-107766661D01*
X171085121Y-107737103D01*
X171109835Y-107709835D01*
X171137103Y-107685121D01*
X171166661Y-107663199D01*
X171198226Y-107644280D01*
X171231494Y-107628545D01*
X171266143Y-107616147D01*
X171301841Y-107607206D01*
X171338244Y-107601806D01*
X171375000Y-107600000D01*
X173625000Y-107600000D01*
X173661756Y-107601806D01*
X173661756Y-107601806D01*
G37*
D13*
X172500000Y-108350000D03*
D10*
G36*
X173661756Y-110601806D02*
X173698159Y-110607206D01*
X173733857Y-110616147D01*
X173768506Y-110628545D01*
X173801774Y-110644280D01*
X173833339Y-110663199D01*
X173862897Y-110685121D01*
X173890165Y-110709835D01*
X173914879Y-110737103D01*
X173936801Y-110766661D01*
X173955720Y-110798226D01*
X173971455Y-110831494D01*
X173983853Y-110866143D01*
X173992794Y-110901841D01*
X173998194Y-110938244D01*
X174000000Y-110975000D01*
X174000000Y-111725000D01*
X173998194Y-111761756D01*
X173992794Y-111798159D01*
X173983853Y-111833857D01*
X173971455Y-111868506D01*
X173955720Y-111901774D01*
X173936801Y-111933339D01*
X173914879Y-111962897D01*
X173890165Y-111990165D01*
X173862897Y-112014879D01*
X173833339Y-112036801D01*
X173801774Y-112055720D01*
X173768506Y-112071455D01*
X173733857Y-112083853D01*
X173698159Y-112092794D01*
X173661756Y-112098194D01*
X173625000Y-112100000D01*
X171375000Y-112100000D01*
X171338244Y-112098194D01*
X171301841Y-112092794D01*
X171266143Y-112083853D01*
X171231494Y-112071455D01*
X171198226Y-112055720D01*
X171166661Y-112036801D01*
X171137103Y-112014879D01*
X171109835Y-111990165D01*
X171085121Y-111962897D01*
X171063199Y-111933339D01*
X171044280Y-111901774D01*
X171028545Y-111868506D01*
X171016147Y-111833857D01*
X171007206Y-111798159D01*
X171001806Y-111761756D01*
X171000000Y-111725000D01*
X171000000Y-110975000D01*
X171001806Y-110938244D01*
X171007206Y-110901841D01*
X171016147Y-110866143D01*
X171028545Y-110831494D01*
X171044280Y-110798226D01*
X171063199Y-110766661D01*
X171085121Y-110737103D01*
X171109835Y-110709835D01*
X171137103Y-110685121D01*
X171166661Y-110663199D01*
X171198226Y-110644280D01*
X171231494Y-110628545D01*
X171266143Y-110616147D01*
X171301841Y-110607206D01*
X171338244Y-110601806D01*
X171375000Y-110600000D01*
X173625000Y-110600000D01*
X173661756Y-110601806D01*
X173661756Y-110601806D01*
G37*
D13*
X172500000Y-111350000D03*
D11*
X127500000Y-140300000D03*
D12*
X127500000Y-136175000D03*
X130426815Y-137373185D03*
X131625000Y-140300000D03*
X130426815Y-143226815D03*
X127500000Y-144425000D03*
X124573185Y-143226815D03*
X123375000Y-140300000D03*
X124573185Y-137373185D03*
X127500000Y-115875000D03*
X127500000Y-124125000D03*
X131625000Y-120000000D03*
X124573185Y-122926815D03*
X124573185Y-117073185D03*
X130426815Y-117073185D03*
X123375000Y-120000000D03*
X130426815Y-122926815D03*
D11*
X127500000Y-120000000D03*
D10*
G36*
X128661756Y-127901806D02*
X128698159Y-127907206D01*
X128733857Y-127916147D01*
X128768506Y-127928545D01*
X128801774Y-127944280D01*
X128833339Y-127963199D01*
X128862897Y-127985121D01*
X128890165Y-128009835D01*
X128914879Y-128037103D01*
X128936801Y-128066661D01*
X128955720Y-128098226D01*
X128971455Y-128131494D01*
X128983853Y-128166143D01*
X128992794Y-128201841D01*
X128998194Y-128238244D01*
X129000000Y-128275000D01*
X129000000Y-129025000D01*
X128998194Y-129061756D01*
X128992794Y-129098159D01*
X128983853Y-129133857D01*
X128971455Y-129168506D01*
X128955720Y-129201774D01*
X128936801Y-129233339D01*
X128914879Y-129262897D01*
X128890165Y-129290165D01*
X128862897Y-129314879D01*
X128833339Y-129336801D01*
X128801774Y-129355720D01*
X128768506Y-129371455D01*
X128733857Y-129383853D01*
X128698159Y-129392794D01*
X128661756Y-129398194D01*
X128625000Y-129400000D01*
X126375000Y-129400000D01*
X126338244Y-129398194D01*
X126301841Y-129392794D01*
X126266143Y-129383853D01*
X126231494Y-129371455D01*
X126198226Y-129355720D01*
X126166661Y-129336801D01*
X126137103Y-129314879D01*
X126109835Y-129290165D01*
X126085121Y-129262897D01*
X126063199Y-129233339D01*
X126044280Y-129201774D01*
X126028545Y-129168506D01*
X126016147Y-129133857D01*
X126007206Y-129098159D01*
X126001806Y-129061756D01*
X126000000Y-129025000D01*
X126000000Y-128275000D01*
X126001806Y-128238244D01*
X126007206Y-128201841D01*
X126016147Y-128166143D01*
X126028545Y-128131494D01*
X126044280Y-128098226D01*
X126063199Y-128066661D01*
X126085121Y-128037103D01*
X126109835Y-128009835D01*
X126137103Y-127985121D01*
X126166661Y-127963199D01*
X126198226Y-127944280D01*
X126231494Y-127928545D01*
X126266143Y-127916147D01*
X126301841Y-127907206D01*
X126338244Y-127901806D01*
X126375000Y-127900000D01*
X128625000Y-127900000D01*
X128661756Y-127901806D01*
X128661756Y-127901806D01*
G37*
D13*
X127500000Y-128650000D03*
D10*
G36*
X128661756Y-130901806D02*
X128698159Y-130907206D01*
X128733857Y-130916147D01*
X128768506Y-130928545D01*
X128801774Y-130944280D01*
X128833339Y-130963199D01*
X128862897Y-130985121D01*
X128890165Y-131009835D01*
X128914879Y-131037103D01*
X128936801Y-131066661D01*
X128955720Y-131098226D01*
X128971455Y-131131494D01*
X128983853Y-131166143D01*
X128992794Y-131201841D01*
X128998194Y-131238244D01*
X129000000Y-131275000D01*
X129000000Y-132025000D01*
X128998194Y-132061756D01*
X128992794Y-132098159D01*
X128983853Y-132133857D01*
X128971455Y-132168506D01*
X128955720Y-132201774D01*
X128936801Y-132233339D01*
X128914879Y-132262897D01*
X128890165Y-132290165D01*
X128862897Y-132314879D01*
X128833339Y-132336801D01*
X128801774Y-132355720D01*
X128768506Y-132371455D01*
X128733857Y-132383853D01*
X128698159Y-132392794D01*
X128661756Y-132398194D01*
X128625000Y-132400000D01*
X126375000Y-132400000D01*
X126338244Y-132398194D01*
X126301841Y-132392794D01*
X126266143Y-132383853D01*
X126231494Y-132371455D01*
X126198226Y-132355720D01*
X126166661Y-132336801D01*
X126137103Y-132314879D01*
X126109835Y-132290165D01*
X126085121Y-132262897D01*
X126063199Y-132233339D01*
X126044280Y-132201774D01*
X126028545Y-132168506D01*
X126016147Y-132133857D01*
X126007206Y-132098159D01*
X126001806Y-132061756D01*
X126000000Y-132025000D01*
X126000000Y-131275000D01*
X126001806Y-131238244D01*
X126007206Y-131201841D01*
X126016147Y-131166143D01*
X126028545Y-131131494D01*
X126044280Y-131098226D01*
X126063199Y-131066661D01*
X126085121Y-131037103D01*
X126109835Y-131009835D01*
X126137103Y-130985121D01*
X126166661Y-130963199D01*
X126198226Y-130944280D01*
X126231494Y-130928545D01*
X126266143Y-130916147D01*
X126301841Y-130907206D01*
X126338244Y-130901806D01*
X126375000Y-130900000D01*
X128625000Y-130900000D01*
X128661756Y-130901806D01*
X128661756Y-130901806D01*
G37*
D13*
X127500000Y-131650000D03*
D11*
X241250000Y-120000000D03*
D12*
X241250000Y-124125000D03*
X238323185Y-122926815D03*
X237125000Y-120000000D03*
X238323185Y-117073185D03*
X241250000Y-115875000D03*
X244176815Y-117073185D03*
X245375000Y-120000000D03*
X244176815Y-122926815D03*
X241250000Y-144425000D03*
X241250000Y-136175000D03*
X237125000Y-140300000D03*
X244176815Y-137373185D03*
X244176815Y-143226815D03*
X238323185Y-143226815D03*
X245375000Y-140300000D03*
X238323185Y-137373185D03*
D11*
X241250000Y-140300000D03*
D10*
G36*
X242411756Y-130901806D02*
X242448159Y-130907206D01*
X242483857Y-130916147D01*
X242518506Y-130928545D01*
X242551774Y-130944280D01*
X242583339Y-130963199D01*
X242612897Y-130985121D01*
X242640165Y-131009835D01*
X242664879Y-131037103D01*
X242686801Y-131066661D01*
X242705720Y-131098226D01*
X242721455Y-131131494D01*
X242733853Y-131166143D01*
X242742794Y-131201841D01*
X242748194Y-131238244D01*
X242750000Y-131275000D01*
X242750000Y-132025000D01*
X242748194Y-132061756D01*
X242742794Y-132098159D01*
X242733853Y-132133857D01*
X242721455Y-132168506D01*
X242705720Y-132201774D01*
X242686801Y-132233339D01*
X242664879Y-132262897D01*
X242640165Y-132290165D01*
X242612897Y-132314879D01*
X242583339Y-132336801D01*
X242551774Y-132355720D01*
X242518506Y-132371455D01*
X242483857Y-132383853D01*
X242448159Y-132392794D01*
X242411756Y-132398194D01*
X242375000Y-132400000D01*
X240125000Y-132400000D01*
X240088244Y-132398194D01*
X240051841Y-132392794D01*
X240016143Y-132383853D01*
X239981494Y-132371455D01*
X239948226Y-132355720D01*
X239916661Y-132336801D01*
X239887103Y-132314879D01*
X239859835Y-132290165D01*
X239835121Y-132262897D01*
X239813199Y-132233339D01*
X239794280Y-132201774D01*
X239778545Y-132168506D01*
X239766147Y-132133857D01*
X239757206Y-132098159D01*
X239751806Y-132061756D01*
X239750000Y-132025000D01*
X239750000Y-131275000D01*
X239751806Y-131238244D01*
X239757206Y-131201841D01*
X239766147Y-131166143D01*
X239778545Y-131131494D01*
X239794280Y-131098226D01*
X239813199Y-131066661D01*
X239835121Y-131037103D01*
X239859835Y-131009835D01*
X239887103Y-130985121D01*
X239916661Y-130963199D01*
X239948226Y-130944280D01*
X239981494Y-130928545D01*
X240016143Y-130916147D01*
X240051841Y-130907206D01*
X240088244Y-130901806D01*
X240125000Y-130900000D01*
X242375000Y-130900000D01*
X242411756Y-130901806D01*
X242411756Y-130901806D01*
G37*
D13*
X241250000Y-131650000D03*
D10*
G36*
X242411756Y-127901806D02*
X242448159Y-127907206D01*
X242483857Y-127916147D01*
X242518506Y-127928545D01*
X242551774Y-127944280D01*
X242583339Y-127963199D01*
X242612897Y-127985121D01*
X242640165Y-128009835D01*
X242664879Y-128037103D01*
X242686801Y-128066661D01*
X242705720Y-128098226D01*
X242721455Y-128131494D01*
X242733853Y-128166143D01*
X242742794Y-128201841D01*
X242748194Y-128238244D01*
X242750000Y-128275000D01*
X242750000Y-129025000D01*
X242748194Y-129061756D01*
X242742794Y-129098159D01*
X242733853Y-129133857D01*
X242721455Y-129168506D01*
X242705720Y-129201774D01*
X242686801Y-129233339D01*
X242664879Y-129262897D01*
X242640165Y-129290165D01*
X242612897Y-129314879D01*
X242583339Y-129336801D01*
X242551774Y-129355720D01*
X242518506Y-129371455D01*
X242483857Y-129383853D01*
X242448159Y-129392794D01*
X242411756Y-129398194D01*
X242375000Y-129400000D01*
X240125000Y-129400000D01*
X240088244Y-129398194D01*
X240051841Y-129392794D01*
X240016143Y-129383853D01*
X239981494Y-129371455D01*
X239948226Y-129355720D01*
X239916661Y-129336801D01*
X239887103Y-129314879D01*
X239859835Y-129290165D01*
X239835121Y-129262897D01*
X239813199Y-129233339D01*
X239794280Y-129201774D01*
X239778545Y-129168506D01*
X239766147Y-129133857D01*
X239757206Y-129098159D01*
X239751806Y-129061756D01*
X239750000Y-129025000D01*
X239750000Y-128275000D01*
X239751806Y-128238244D01*
X239757206Y-128201841D01*
X239766147Y-128166143D01*
X239778545Y-128131494D01*
X239794280Y-128098226D01*
X239813199Y-128066661D01*
X239835121Y-128037103D01*
X239859835Y-128009835D01*
X239887103Y-127985121D01*
X239916661Y-127963199D01*
X239948226Y-127944280D01*
X239981494Y-127928545D01*
X240016143Y-127916147D01*
X240051841Y-127907206D01*
X240088244Y-127901806D01*
X240125000Y-127900000D01*
X242375000Y-127900000D01*
X242411756Y-127901806D01*
X242411756Y-127901806D01*
G37*
D13*
X241250000Y-128650000D03*
D11*
X196250000Y-99700000D03*
D12*
X196250000Y-103825000D03*
X193323185Y-102626815D03*
X192125000Y-99700000D03*
X193323185Y-96773185D03*
X196250000Y-95575000D03*
X199176815Y-96773185D03*
X200375000Y-99700000D03*
X199176815Y-102626815D03*
X196250000Y-124125000D03*
X196250000Y-115875000D03*
X192125000Y-120000000D03*
X199176815Y-117073185D03*
X199176815Y-122926815D03*
X193323185Y-122926815D03*
X200375000Y-120000000D03*
X193323185Y-117073185D03*
D11*
X196250000Y-120000000D03*
D10*
G36*
X197411756Y-110601806D02*
X197448159Y-110607206D01*
X197483857Y-110616147D01*
X197518506Y-110628545D01*
X197551774Y-110644280D01*
X197583339Y-110663199D01*
X197612897Y-110685121D01*
X197640165Y-110709835D01*
X197664879Y-110737103D01*
X197686801Y-110766661D01*
X197705720Y-110798226D01*
X197721455Y-110831494D01*
X197733853Y-110866143D01*
X197742794Y-110901841D01*
X197748194Y-110938244D01*
X197750000Y-110975000D01*
X197750000Y-111725000D01*
X197748194Y-111761756D01*
X197742794Y-111798159D01*
X197733853Y-111833857D01*
X197721455Y-111868506D01*
X197705720Y-111901774D01*
X197686801Y-111933339D01*
X197664879Y-111962897D01*
X197640165Y-111990165D01*
X197612897Y-112014879D01*
X197583339Y-112036801D01*
X197551774Y-112055720D01*
X197518506Y-112071455D01*
X197483857Y-112083853D01*
X197448159Y-112092794D01*
X197411756Y-112098194D01*
X197375000Y-112100000D01*
X195125000Y-112100000D01*
X195088244Y-112098194D01*
X195051841Y-112092794D01*
X195016143Y-112083853D01*
X194981494Y-112071455D01*
X194948226Y-112055720D01*
X194916661Y-112036801D01*
X194887103Y-112014879D01*
X194859835Y-111990165D01*
X194835121Y-111962897D01*
X194813199Y-111933339D01*
X194794280Y-111901774D01*
X194778545Y-111868506D01*
X194766147Y-111833857D01*
X194757206Y-111798159D01*
X194751806Y-111761756D01*
X194750000Y-111725000D01*
X194750000Y-110975000D01*
X194751806Y-110938244D01*
X194757206Y-110901841D01*
X194766147Y-110866143D01*
X194778545Y-110831494D01*
X194794280Y-110798226D01*
X194813199Y-110766661D01*
X194835121Y-110737103D01*
X194859835Y-110709835D01*
X194887103Y-110685121D01*
X194916661Y-110663199D01*
X194948226Y-110644280D01*
X194981494Y-110628545D01*
X195016143Y-110616147D01*
X195051841Y-110607206D01*
X195088244Y-110601806D01*
X195125000Y-110600000D01*
X197375000Y-110600000D01*
X197411756Y-110601806D01*
X197411756Y-110601806D01*
G37*
D13*
X196250000Y-111350000D03*
D10*
G36*
X197411756Y-107601806D02*
X197448159Y-107607206D01*
X197483857Y-107616147D01*
X197518506Y-107628545D01*
X197551774Y-107644280D01*
X197583339Y-107663199D01*
X197612897Y-107685121D01*
X197640165Y-107709835D01*
X197664879Y-107737103D01*
X197686801Y-107766661D01*
X197705720Y-107798226D01*
X197721455Y-107831494D01*
X197733853Y-107866143D01*
X197742794Y-107901841D01*
X197748194Y-107938244D01*
X197750000Y-107975000D01*
X197750000Y-108725000D01*
X197748194Y-108761756D01*
X197742794Y-108798159D01*
X197733853Y-108833857D01*
X197721455Y-108868506D01*
X197705720Y-108901774D01*
X197686801Y-108933339D01*
X197664879Y-108962897D01*
X197640165Y-108990165D01*
X197612897Y-109014879D01*
X197583339Y-109036801D01*
X197551774Y-109055720D01*
X197518506Y-109071455D01*
X197483857Y-109083853D01*
X197448159Y-109092794D01*
X197411756Y-109098194D01*
X197375000Y-109100000D01*
X195125000Y-109100000D01*
X195088244Y-109098194D01*
X195051841Y-109092794D01*
X195016143Y-109083853D01*
X194981494Y-109071455D01*
X194948226Y-109055720D01*
X194916661Y-109036801D01*
X194887103Y-109014879D01*
X194859835Y-108990165D01*
X194835121Y-108962897D01*
X194813199Y-108933339D01*
X194794280Y-108901774D01*
X194778545Y-108868506D01*
X194766147Y-108833857D01*
X194757206Y-108798159D01*
X194751806Y-108761756D01*
X194750000Y-108725000D01*
X194750000Y-107975000D01*
X194751806Y-107938244D01*
X194757206Y-107901841D01*
X194766147Y-107866143D01*
X194778545Y-107831494D01*
X194794280Y-107798226D01*
X194813199Y-107766661D01*
X194835121Y-107737103D01*
X194859835Y-107709835D01*
X194887103Y-107685121D01*
X194916661Y-107663199D01*
X194948226Y-107644280D01*
X194981494Y-107628545D01*
X195016143Y-107616147D01*
X195051841Y-107607206D01*
X195088244Y-107601806D01*
X195125000Y-107600000D01*
X197375000Y-107600000D01*
X197411756Y-107601806D01*
X197411756Y-107601806D01*
G37*
D13*
X196250000Y-108350000D03*
D10*
G36*
X59911756Y-130751806D02*
X59948159Y-130757206D01*
X59983857Y-130766147D01*
X60018506Y-130778545D01*
X60051774Y-130794280D01*
X60083339Y-130813199D01*
X60112897Y-130835121D01*
X60140165Y-130859835D01*
X60164879Y-130887103D01*
X60186801Y-130916661D01*
X60205720Y-130948226D01*
X60221455Y-130981494D01*
X60233853Y-131016143D01*
X60242794Y-131051841D01*
X60248194Y-131088244D01*
X60250000Y-131125000D01*
X60250000Y-131875000D01*
X60248194Y-131911756D01*
X60242794Y-131948159D01*
X60233853Y-131983857D01*
X60221455Y-132018506D01*
X60205720Y-132051774D01*
X60186801Y-132083339D01*
X60164879Y-132112897D01*
X60140165Y-132140165D01*
X60112897Y-132164879D01*
X60083339Y-132186801D01*
X60051774Y-132205720D01*
X60018506Y-132221455D01*
X59983857Y-132233853D01*
X59948159Y-132242794D01*
X59911756Y-132248194D01*
X59875000Y-132250000D01*
X57625000Y-132250000D01*
X57588244Y-132248194D01*
X57551841Y-132242794D01*
X57516143Y-132233853D01*
X57481494Y-132221455D01*
X57448226Y-132205720D01*
X57416661Y-132186801D01*
X57387103Y-132164879D01*
X57359835Y-132140165D01*
X57335121Y-132112897D01*
X57313199Y-132083339D01*
X57294280Y-132051774D01*
X57278545Y-132018506D01*
X57266147Y-131983857D01*
X57257206Y-131948159D01*
X57251806Y-131911756D01*
X57250000Y-131875000D01*
X57250000Y-131125000D01*
X57251806Y-131088244D01*
X57257206Y-131051841D01*
X57266147Y-131016143D01*
X57278545Y-130981494D01*
X57294280Y-130948226D01*
X57313199Y-130916661D01*
X57335121Y-130887103D01*
X57359835Y-130859835D01*
X57387103Y-130835121D01*
X57416661Y-130813199D01*
X57448226Y-130794280D01*
X57481494Y-130778545D01*
X57516143Y-130766147D01*
X57551841Y-130757206D01*
X57588244Y-130751806D01*
X57625000Y-130750000D01*
X59875000Y-130750000D01*
X59911756Y-130751806D01*
X59911756Y-130751806D01*
G37*
D13*
X58750000Y-131500000D03*
D12*
X61676815Y-143226815D03*
X62875000Y-140300000D03*
X61676815Y-137373185D03*
X58750000Y-136175000D03*
X55823185Y-137373185D03*
X54625000Y-140300000D03*
X55823185Y-143226815D03*
X58750000Y-144425000D03*
D11*
X58750000Y-140300000D03*
D14*
X81250000Y-108350000D03*
D15*
X81250000Y-111350000D03*
D16*
X79290000Y-105350000D03*
X79290000Y-114350000D03*
D14*
X218750000Y-108350000D03*
D15*
X218750000Y-111350000D03*
D16*
X216790000Y-105350000D03*
X216790000Y-114350000D03*
D17*
X153375000Y-104100000D03*
X146625000Y-104100000D03*
X153375000Y-104600000D03*
X146625000Y-104600000D03*
X153375000Y-105100000D03*
X146625000Y-105100000D03*
X153375000Y-105600000D03*
X146625000Y-105600000D03*
X153375000Y-106100000D03*
X146625000Y-106100000D03*
X153375000Y-106600000D03*
X146625000Y-106600000D03*
X153375000Y-107100000D03*
X146625000Y-107100000D03*
X153375000Y-107600000D03*
X146625000Y-107600000D03*
X153375000Y-108100000D03*
X146625000Y-108100000D03*
X153375000Y-108600000D03*
X146625000Y-108600000D03*
X153375000Y-109100000D03*
X146625000Y-109100000D03*
X153375000Y-109600000D03*
X146625000Y-109600000D03*
X153375000Y-110100000D03*
X146625000Y-110100000D03*
X153375000Y-110600000D03*
X146625000Y-110600000D03*
X153375000Y-111100000D03*
X146625000Y-111100000D03*
X153375000Y-111600000D03*
X146625000Y-111600000D03*
X153375000Y-112100000D03*
X146625000Y-112100000D03*
X153375000Y-112600000D03*
X146625000Y-112600000D03*
X153375000Y-113100000D03*
X146625000Y-113100000D03*
X153375000Y-113600000D03*
X146625000Y-113600000D03*
X153375000Y-114100000D03*
X146625000Y-114100000D03*
X153375000Y-114600000D03*
X146625000Y-114600000D03*
X153375000Y-115100000D03*
X146625000Y-115100000D03*
X153375000Y-115600000D03*
X146625000Y-115600000D03*
D11*
X241250000Y-99700000D03*
D12*
X241250000Y-103825000D03*
X238323185Y-102626815D03*
X237125000Y-99700000D03*
X238323185Y-96773185D03*
X241250000Y-95575000D03*
X244176815Y-96773185D03*
X245375000Y-99700000D03*
X244176815Y-102626815D03*
D10*
G36*
X242411756Y-107751806D02*
X242448159Y-107757206D01*
X242483857Y-107766147D01*
X242518506Y-107778545D01*
X242551774Y-107794280D01*
X242583339Y-107813199D01*
X242612897Y-107835121D01*
X242640165Y-107859835D01*
X242664879Y-107887103D01*
X242686801Y-107916661D01*
X242705720Y-107948226D01*
X242721455Y-107981494D01*
X242733853Y-108016143D01*
X242742794Y-108051841D01*
X242748194Y-108088244D01*
X242750000Y-108125000D01*
X242750000Y-108875000D01*
X242748194Y-108911756D01*
X242742794Y-108948159D01*
X242733853Y-108983857D01*
X242721455Y-109018506D01*
X242705720Y-109051774D01*
X242686801Y-109083339D01*
X242664879Y-109112897D01*
X242640165Y-109140165D01*
X242612897Y-109164879D01*
X242583339Y-109186801D01*
X242551774Y-109205720D01*
X242518506Y-109221455D01*
X242483857Y-109233853D01*
X242448159Y-109242794D01*
X242411756Y-109248194D01*
X242375000Y-109250000D01*
X240125000Y-109250000D01*
X240088244Y-109248194D01*
X240051841Y-109242794D01*
X240016143Y-109233853D01*
X239981494Y-109221455D01*
X239948226Y-109205720D01*
X239916661Y-109186801D01*
X239887103Y-109164879D01*
X239859835Y-109140165D01*
X239835121Y-109112897D01*
X239813199Y-109083339D01*
X239794280Y-109051774D01*
X239778545Y-109018506D01*
X239766147Y-108983857D01*
X239757206Y-108948159D01*
X239751806Y-108911756D01*
X239750000Y-108875000D01*
X239750000Y-108125000D01*
X239751806Y-108088244D01*
X239757206Y-108051841D01*
X239766147Y-108016143D01*
X239778545Y-107981494D01*
X239794280Y-107948226D01*
X239813199Y-107916661D01*
X239835121Y-107887103D01*
X239859835Y-107859835D01*
X239887103Y-107835121D01*
X239916661Y-107813199D01*
X239948226Y-107794280D01*
X239981494Y-107778545D01*
X240016143Y-107766147D01*
X240051841Y-107757206D01*
X240088244Y-107751806D01*
X240125000Y-107750000D01*
X242375000Y-107750000D01*
X242411756Y-107751806D01*
X242411756Y-107751806D01*
G37*
D13*
X241250000Y-108500000D03*
D18*
X214550000Y-132690000D03*
X222950000Y-132690000D03*
X214550000Y-130150000D03*
X222950000Y-130150000D03*
X214550000Y-127610000D03*
X222950000Y-127610000D03*
D19*
X81900000Y-141570000D03*
D20*
X81900000Y-139030000D03*
X80500000Y-121270000D03*
D19*
X80500000Y-118730000D03*
X82000000Y-101070000D03*
D20*
X82000000Y-98530000D03*
D19*
X150750000Y-100970000D03*
D20*
X150750000Y-98430000D03*
D19*
X149250000Y-118730000D03*
D20*
X149250000Y-121270000D03*
D19*
X150750000Y-141570000D03*
D20*
X150750000Y-139030000D03*
D19*
X219500000Y-141570000D03*
D20*
X219500000Y-139030000D03*
D19*
X218000000Y-118730000D03*
D20*
X218000000Y-121270000D03*
X219500000Y-98430000D03*
D19*
X219500000Y-100970000D03*
D21*
X156985000Y-106355000D03*
X156985000Y-108265000D03*
X160795000Y-113345000D03*
X160795000Y-111435000D03*
X156985000Y-111435000D03*
X156985000Y-113345000D03*
D22*
X218545000Y-145380000D03*
X220455000Y-145380000D03*
D21*
X160795000Y-106355000D03*
X160795000Y-108265000D03*
D23*
X70235000Y-130150000D03*
X73245000Y-130150000D03*
X92165000Y-120000000D03*
X89155000Y-120000000D03*
X70335000Y-99800000D03*
X73345000Y-99800000D03*
X142095000Y-99700000D03*
X139085000Y-99700000D03*
X160915000Y-120000000D03*
X157905000Y-120000000D03*
X142095000Y-140300000D03*
X139085000Y-140300000D03*
X207835000Y-140300000D03*
X210845000Y-140300000D03*
X226655000Y-120000000D03*
X229665000Y-120000000D03*
X210845000Y-99700000D03*
X207835000Y-99700000D03*
X226655000Y-99700000D03*
X229665000Y-99700000D03*
D24*
X141000000Y-95150000D03*
X141000000Y-93850000D03*
X141000000Y-92550000D03*
X147000000Y-92550000D03*
X147000000Y-93850000D03*
X147000000Y-95150000D03*
X153000000Y-95150000D03*
X153000000Y-93850000D03*
X153000000Y-92550000D03*
X159000000Y-95150000D03*
X159000000Y-93850000D03*
X159000000Y-92550000D03*
D25*
X208340000Y-144430000D03*
X208340000Y-146330000D03*
X210340000Y-145380000D03*
D22*
X215375000Y-145380000D03*
X213465000Y-145380000D03*
X75865000Y-125070000D03*
X77775000Y-125070000D03*
X77775000Y-130150000D03*
X75865000Y-130150000D03*
X86535000Y-120000000D03*
X84625000Y-120000000D03*
X75965000Y-99800000D03*
X77875000Y-99800000D03*
X146625000Y-99700000D03*
X144715000Y-99700000D03*
X155285000Y-120000000D03*
X153375000Y-120000000D03*
X146625000Y-140300000D03*
X144715000Y-140300000D03*
X213465000Y-140300000D03*
X215375000Y-140300000D03*
X222125000Y-120000000D03*
X224035000Y-120000000D03*
D21*
X164605000Y-111435000D03*
X164605000Y-113345000D03*
X164605000Y-106355000D03*
X164605000Y-108265000D03*
D22*
X215375000Y-99700000D03*
X213465000Y-99700000D03*
X227080000Y-133325000D03*
X225170000Y-133325000D03*
D21*
X227395000Y-129195000D03*
X227395000Y-131105000D03*
D22*
X222125000Y-99700000D03*
X224035000Y-99700000D03*
X225170000Y-126975000D03*
X227080000Y-126975000D03*
D26*
X86275000Y-125070000D03*
X86275000Y-108350000D03*
X150875000Y-108100000D03*
X150875000Y-132150000D03*
X142000000Y-95150000D03*
X148000000Y-95150000D03*
X152000000Y-95150000D03*
X158000000Y-95150000D03*
D27*
X225905000Y-99700000D03*
D26*
X221205000Y-145380000D03*
X150000000Y-109850000D03*
X150000000Y-114850000D03*
X150000000Y-104850000D03*
X160000000Y-104850000D03*
X158000000Y-104850000D03*
D27*
X68965000Y-130150000D03*
X93435000Y-120000000D03*
X69065000Y-99800000D03*
X137815000Y-99700000D03*
X162185000Y-120000000D03*
X137815000Y-140300000D03*
X206565000Y-140300000D03*
X230935000Y-120000000D03*
X206565000Y-99700000D03*
X230935000Y-99700000D03*
D26*
X86775000Y-108850000D03*
X87275000Y-109350000D03*
X88275000Y-110850000D03*
X87775000Y-111350000D03*
X148125000Y-110100000D03*
X147625000Y-109600000D03*
X148125000Y-112100000D03*
X152375000Y-115600000D03*
X152375000Y-127150000D03*
X147625000Y-111600000D03*
X232950000Y-109600000D03*
X232450000Y-110100000D03*
X154375000Y-104100000D03*
X142375000Y-94600000D03*
X154875000Y-104600000D03*
X148375000Y-94100000D03*
X155375000Y-105100000D03*
X155375000Y-94100000D03*
X155875000Y-105600000D03*
X156375000Y-94100000D03*
X151375000Y-109100000D03*
X151375000Y-131650000D03*
X154875000Y-106600000D03*
X163375000Y-106600000D03*
X154375000Y-106100000D03*
X164605000Y-105605000D03*
X151875000Y-115100000D03*
X151875000Y-128150000D03*
X154375000Y-107600000D03*
X154375000Y-129650000D03*
X155125000Y-107350000D03*
X154875000Y-130150000D03*
D28*
X146625000Y-104100000D02*
X143500000Y-104100000D01*
X143500000Y-104100000D02*
X139250000Y-108350000D01*
X77775000Y-125070000D02*
X86275000Y-125070000D01*
X139250000Y-108350000D02*
X86275000Y-108350000D01*
X156985000Y-103710000D02*
X156985000Y-106355000D01*
X155875000Y-102600000D02*
X156985000Y-103710000D01*
X152375000Y-102600000D02*
X155875000Y-102600000D01*
X146625000Y-104100000D02*
X150875000Y-104100000D01*
X150875000Y-104100000D02*
X152375000Y-102600000D01*
X159960000Y-110600000D02*
X160795000Y-111435000D01*
X153375000Y-110600000D02*
X159960000Y-110600000D01*
X156650000Y-111100000D02*
X156985000Y-111435000D01*
X153375000Y-111100000D02*
X156650000Y-111100000D01*
D29*
X213465000Y-145380000D02*
X210340000Y-145380000D01*
X213465000Y-145380000D02*
X213465000Y-146330000D01*
X213465000Y-146330000D02*
X213785000Y-146650000D01*
X213785000Y-146650000D02*
X218230000Y-146650000D01*
X218545000Y-146335000D02*
X218230000Y-146650000D01*
X218545000Y-145380000D02*
X218545000Y-146335000D01*
D28*
X159960000Y-109100000D02*
X160795000Y-108265000D01*
X156125000Y-109100000D02*
X159960000Y-109100000D01*
X155125000Y-108100000D02*
X156125000Y-109100000D01*
X153375000Y-109600000D02*
X154125000Y-109600000D01*
X154375000Y-109350000D02*
X154375000Y-108100000D01*
X154125000Y-109600000D02*
X154375000Y-109350000D01*
X153375000Y-108100000D02*
X154375000Y-108100000D01*
X154375000Y-108100000D02*
X155125000Y-108100000D01*
X153375000Y-108100000D02*
X150875000Y-108100000D01*
X208340000Y-146330000D02*
X207430000Y-146330000D01*
X207430000Y-146330000D02*
X205000000Y-143900000D01*
X205000000Y-143900000D02*
X205000000Y-132650000D01*
X205000000Y-132650000D02*
X204500000Y-132150000D01*
X204500000Y-132150000D02*
X150875000Y-132150000D01*
X141000000Y-92550000D02*
X147000000Y-92550000D01*
X147000000Y-92550000D02*
X153000000Y-92550000D01*
X153000000Y-92550000D02*
X159000000Y-92550000D01*
X159000000Y-92550000D02*
X159825000Y-92550000D01*
X159825000Y-92550000D02*
X161875000Y-94600000D01*
X161875000Y-107185000D02*
X160795000Y-108265000D01*
X161875000Y-94600000D02*
X161875000Y-107185000D01*
X224035000Y-99700000D02*
X226655000Y-99700000D01*
X141000000Y-95150000D02*
X142000000Y-95150000D01*
X147000000Y-95150000D02*
X148000000Y-95150000D01*
X153000000Y-95150000D02*
X152000000Y-95150000D01*
X159000000Y-95150000D02*
X158000000Y-95150000D01*
D30*
X226655000Y-99700000D02*
X225905000Y-99700000D01*
D28*
X220455000Y-145380000D02*
X221205000Y-145380000D01*
D30*
X70235000Y-130150000D02*
X68965000Y-130150000D01*
D28*
X73245000Y-130150000D02*
X75865000Y-130150000D01*
X75865000Y-130150000D02*
X75865000Y-125070000D01*
X86535000Y-120000000D02*
X89155000Y-120000000D01*
D30*
X92165000Y-120000000D02*
X93435000Y-120000000D01*
X70335000Y-99800000D02*
X69065000Y-99800000D01*
D28*
X73345000Y-99800000D02*
X75965000Y-99800000D01*
X142095000Y-99700000D02*
X144715000Y-99700000D01*
D30*
X139085000Y-99700000D02*
X137815000Y-99700000D01*
X160915000Y-120000000D02*
X162185000Y-120000000D01*
D28*
X155285000Y-120000000D02*
X157905000Y-120000000D01*
X142095000Y-140300000D02*
X144715000Y-140300000D01*
D30*
X139085000Y-140300000D02*
X137815000Y-140300000D01*
X207835000Y-140300000D02*
X206565000Y-140300000D01*
D28*
X210845000Y-140300000D02*
X213465000Y-140300000D01*
D29*
X213465000Y-140300000D02*
X213465000Y-141885000D01*
X215375000Y-143795000D02*
X215375000Y-145380000D01*
X213465000Y-141885000D02*
X215375000Y-143795000D01*
D28*
X224035000Y-120000000D02*
X226655000Y-120000000D01*
D30*
X229665000Y-120000000D02*
X230935000Y-120000000D01*
X207835000Y-99700000D02*
X206565000Y-99700000D01*
D28*
X213465000Y-99700000D02*
X210845000Y-99700000D01*
D30*
X229665000Y-99700000D02*
X230935000Y-99700000D01*
D28*
X80620000Y-130150000D02*
X77775000Y-130150000D01*
X81900000Y-139030000D02*
X81900000Y-131430000D01*
X81900000Y-131430000D02*
X80620000Y-130150000D01*
X139500000Y-108850000D02*
X141750000Y-106600000D01*
X86775000Y-108850000D02*
X139500000Y-108850000D01*
X146625000Y-104600000D02*
X145125000Y-104600000D01*
X141750000Y-106600000D02*
X145125000Y-106600000D01*
X145125000Y-106600000D02*
X146625000Y-106600000D01*
X146625000Y-105600000D02*
X145125000Y-105600000D01*
X145125000Y-104600000D02*
X145125000Y-105600000D01*
X145125000Y-105600000D02*
X145125000Y-106600000D01*
X142000000Y-107100000D02*
X146625000Y-107100000D01*
X139750000Y-109350000D02*
X142000000Y-107100000D01*
X87275000Y-109350000D02*
X139750000Y-109350000D01*
X146625000Y-108100000D02*
X142500000Y-108100000D01*
X142500000Y-108100000D02*
X140250000Y-110350000D01*
X80500000Y-118730000D02*
X82895000Y-118730000D01*
X82895000Y-118730000D02*
X86775000Y-114850000D01*
X86775000Y-111350000D02*
X87775000Y-110350000D01*
X86775000Y-114850000D02*
X86775000Y-111350000D01*
X140250000Y-110350000D02*
X87775000Y-110350000D01*
X80500000Y-121270000D02*
X81770000Y-121270000D01*
X83040000Y-120000000D02*
X84625000Y-120000000D01*
X81770000Y-121270000D02*
X83040000Y-120000000D01*
X146625000Y-107600000D02*
X142250000Y-107600000D01*
X142250000Y-107600000D02*
X140000000Y-109850000D01*
X87775000Y-109850000D02*
X87525000Y-109850000D01*
X140000000Y-109850000D02*
X87775000Y-109850000D01*
X87525000Y-109850000D02*
X86275000Y-111100000D01*
X86275000Y-111100000D02*
X86275000Y-114600000D01*
X86275000Y-114600000D02*
X83525000Y-117350000D01*
X83525000Y-117350000D02*
X80025000Y-117350000D01*
X80025000Y-117350000D02*
X79275000Y-118100000D01*
X79275000Y-120045000D02*
X80500000Y-121270000D01*
X79275000Y-118100000D02*
X79275000Y-120045000D01*
X82000000Y-98530000D02*
X80730000Y-98530000D01*
X80730000Y-98530000D02*
X79460000Y-99800000D01*
X79460000Y-99800000D02*
X77875000Y-99800000D01*
X140500000Y-110850000D02*
X142750000Y-108600000D01*
X142750000Y-108600000D02*
X146625000Y-108600000D01*
X88275000Y-110850000D02*
X140500000Y-110850000D01*
X146625000Y-109100000D02*
X143000000Y-109100000D01*
X143000000Y-109100000D02*
X140750000Y-111350000D01*
X140750000Y-111350000D02*
X87775000Y-111350000D01*
X146625000Y-110100000D02*
X148125000Y-110100000D01*
X150750000Y-98430000D02*
X149480000Y-98430000D01*
X148210000Y-99700000D02*
X146625000Y-99700000D01*
X149480000Y-98430000D02*
X148210000Y-99700000D01*
X146625000Y-109600000D02*
X147625000Y-109600000D01*
X146625000Y-112100000D02*
X148125000Y-112100000D01*
X146625000Y-113100000D02*
X144625000Y-113100000D01*
X144625000Y-113100000D02*
X142875000Y-114850000D01*
X142875000Y-114850000D02*
X142875000Y-127850000D01*
X142875000Y-127850000D02*
X152125000Y-137100000D01*
X152125000Y-140195000D02*
X150750000Y-141570000D01*
X152125000Y-137100000D02*
X152125000Y-140195000D01*
X220080000Y-141570000D02*
X219500000Y-141570000D01*
X220750000Y-140900000D02*
X220080000Y-141570000D01*
X220750000Y-137900000D02*
X220750000Y-140900000D01*
X220250000Y-137400000D02*
X220750000Y-137900000D01*
X217250000Y-137400000D02*
X220250000Y-137400000D01*
X145125000Y-114100000D02*
X143875000Y-115350000D01*
X146625000Y-114100000D02*
X145125000Y-114100000D01*
X143875000Y-115350000D02*
X143875000Y-127350000D01*
X143875000Y-127350000D02*
X147175000Y-130650000D01*
X147175000Y-130650000D02*
X210500000Y-130650000D01*
X210500000Y-130650000D02*
X217250000Y-137400000D01*
X217420000Y-118730000D02*
X218000000Y-118730000D01*
X216750000Y-119400000D02*
X217420000Y-118730000D01*
X216750000Y-122900000D02*
X216750000Y-119400000D01*
X146625000Y-115100000D02*
X145625000Y-115100000D01*
X144875000Y-115850000D02*
X144875000Y-126850000D01*
X144875000Y-126850000D02*
X146675000Y-128650000D01*
X146675000Y-128650000D02*
X211000000Y-128650000D01*
X145625000Y-115100000D02*
X144875000Y-115850000D01*
X211000000Y-128650000D02*
X216750000Y-122900000D01*
X219500000Y-100970000D02*
X219820000Y-100970000D01*
X219820000Y-100970000D02*
X221000000Y-102150000D01*
X221000000Y-102150000D02*
X221000000Y-114650000D01*
X221000000Y-114650000D02*
X219750000Y-115900000D01*
X219750000Y-115900000D02*
X217000000Y-115900000D01*
X217000000Y-115900000D02*
X215250000Y-117650000D01*
X215250000Y-117650000D02*
X215250000Y-122150000D01*
X215250000Y-122150000D02*
X210250000Y-127150000D01*
X153375000Y-115600000D02*
X152375000Y-115600000D01*
X210250000Y-127150000D02*
X152375000Y-127150000D01*
X149250000Y-121270000D02*
X150520000Y-121270000D01*
X150520000Y-121270000D02*
X151790000Y-120000000D01*
X151790000Y-120000000D02*
X153375000Y-120000000D01*
X146625000Y-110600000D02*
X147625000Y-110600000D01*
X147625000Y-110600000D02*
X147625000Y-111600000D01*
X147625000Y-111600000D02*
X146625000Y-111600000D01*
X150750000Y-139030000D02*
X149480000Y-139030000D01*
X149480000Y-139030000D02*
X148210000Y-140300000D01*
X148210000Y-140300000D02*
X146625000Y-140300000D01*
X150750000Y-136475000D02*
X150750000Y-139030000D01*
X142375000Y-128100000D02*
X150750000Y-136475000D01*
X142375000Y-114600000D02*
X142375000Y-128100000D01*
X146625000Y-112600000D02*
X144375000Y-112600000D01*
X144375000Y-112600000D02*
X142375000Y-114600000D01*
X218230000Y-139030000D02*
X216960000Y-140300000D01*
X215375000Y-140300000D02*
X216960000Y-140300000D01*
X219500000Y-139030000D02*
X218230000Y-139030000D01*
X210350000Y-131150000D02*
X218230000Y-139030000D01*
X146925000Y-131150000D02*
X210350000Y-131150000D01*
X143375000Y-127600000D02*
X146925000Y-131150000D01*
X143375000Y-115100000D02*
X143375000Y-127600000D01*
X146625000Y-113600000D02*
X144875000Y-113600000D01*
X144875000Y-113600000D02*
X143375000Y-115100000D01*
X218000000Y-121270000D02*
X219270000Y-121270000D01*
X219270000Y-121270000D02*
X220540000Y-120000000D01*
X220540000Y-120000000D02*
X222125000Y-120000000D01*
X218000000Y-122400000D02*
X218000000Y-121270000D01*
X145375000Y-114600000D02*
X144375000Y-115600000D01*
X146625000Y-114600000D02*
X145375000Y-114600000D01*
X144375000Y-115600000D02*
X144375000Y-127100000D01*
X144375000Y-127100000D02*
X146425000Y-129150000D01*
X146425000Y-129150000D02*
X211250000Y-129150000D01*
X211250000Y-129150000D02*
X218000000Y-122400000D01*
X219500000Y-98430000D02*
X218230000Y-98430000D01*
X218230000Y-98430000D02*
X216960000Y-99700000D01*
X216960000Y-99700000D02*
X215375000Y-99700000D01*
X219500000Y-98650000D02*
X219500000Y-98430000D01*
X221000000Y-100150000D02*
X219500000Y-98650000D01*
X221000000Y-101150000D02*
X221000000Y-100150000D01*
X221500000Y-114900000D02*
X221500000Y-101650000D01*
X220000000Y-116400000D02*
X221500000Y-114900000D01*
X217250000Y-116400000D02*
X220000000Y-116400000D01*
X221500000Y-101650000D02*
X221000000Y-101150000D01*
X215750000Y-117900000D02*
X217250000Y-116400000D01*
X215750000Y-122400000D02*
X215750000Y-117900000D01*
X145875000Y-115600000D02*
X145375000Y-116100000D01*
X146625000Y-115600000D02*
X145875000Y-115600000D01*
X146425000Y-127650000D02*
X210500000Y-127650000D01*
X145375000Y-116100000D02*
X145375000Y-126600000D01*
X145375000Y-126600000D02*
X146425000Y-127650000D01*
X210500000Y-127650000D02*
X215750000Y-122400000D01*
X227995000Y-131105000D02*
X228700000Y-130400000D01*
X227395000Y-131105000D02*
X227995000Y-131105000D01*
X228700000Y-130400000D02*
X232200000Y-130400000D01*
X232200000Y-130400000D02*
X232950000Y-129650000D01*
X232950000Y-129650000D02*
X232950000Y-109600000D01*
X232950000Y-109600000D02*
X232950000Y-91950000D01*
X232950000Y-91950000D02*
X232250000Y-91250000D01*
X81250000Y-108350000D02*
X81250000Y-109100000D01*
X81250000Y-109100000D02*
X81750000Y-109600000D01*
X81750000Y-109600000D02*
X84000000Y-109600000D01*
X84000000Y-109600000D02*
X84500000Y-109100000D01*
X84500000Y-92250000D02*
X85500000Y-91250000D01*
X84500000Y-109100000D02*
X84500000Y-92250000D01*
X232250000Y-91250000D02*
X85500000Y-91250000D01*
X227080000Y-132370000D02*
X227395000Y-132055000D01*
X227080000Y-133325000D02*
X227080000Y-132370000D01*
X227395000Y-132055000D02*
X227395000Y-131105000D01*
X227995000Y-129195000D02*
X227395000Y-129195000D01*
X228700000Y-129900000D02*
X227995000Y-129195000D01*
X231900000Y-129900000D02*
X228700000Y-129900000D01*
X232450000Y-110100000D02*
X232450000Y-129350000D01*
X232450000Y-129350000D02*
X231900000Y-129900000D01*
X232450000Y-92250000D02*
X232450000Y-110100000D01*
X231950000Y-91750000D02*
X232450000Y-92250000D01*
X85750000Y-91750000D02*
X231950000Y-91750000D01*
X81250000Y-111350000D02*
X81250000Y-110600000D01*
X81250000Y-110600000D02*
X81750000Y-110100000D01*
X81750000Y-110100000D02*
X84250000Y-110100000D01*
X84250000Y-110100000D02*
X85000000Y-109350000D01*
X85000000Y-109350000D02*
X85000000Y-92500000D01*
X85000000Y-92500000D02*
X85750000Y-91750000D01*
X227395000Y-129195000D02*
X227395000Y-128245000D01*
X227395000Y-128245000D02*
X227080000Y-127930000D01*
X227080000Y-127930000D02*
X227080000Y-126975000D01*
X153375000Y-104100000D02*
X154375000Y-104100000D01*
X141625000Y-93850000D02*
X142375000Y-94600000D01*
X141000000Y-93850000D02*
X141625000Y-93850000D01*
X153375000Y-104600000D02*
X154875000Y-104600000D01*
X147250000Y-94100000D02*
X147000000Y-93850000D01*
X148375000Y-94100000D02*
X147250000Y-94100000D01*
X153375000Y-105100000D02*
X155375000Y-105100000D01*
X153250000Y-94100000D02*
X153000000Y-93850000D01*
X155375000Y-94100000D02*
X153250000Y-94100000D01*
X153375000Y-105600000D02*
X155875000Y-105600000D01*
X156625000Y-93850000D02*
X159000000Y-93850000D01*
X156375000Y-94100000D02*
X156625000Y-93850000D01*
X153375000Y-109100000D02*
X151375000Y-109100000D01*
X208340000Y-144430000D02*
X206280000Y-144430000D01*
X206280000Y-144430000D02*
X205500000Y-143650000D01*
X205500000Y-143650000D02*
X205500000Y-132400000D01*
X205500000Y-132400000D02*
X204750000Y-131650000D01*
X204750000Y-131650000D02*
X151375000Y-131650000D01*
X153375000Y-106600000D02*
X154875000Y-106600000D01*
X164605000Y-108265000D02*
X164290000Y-108265000D01*
X163375000Y-107350000D02*
X163375000Y-106600000D01*
X164290000Y-108265000D02*
X163375000Y-107350000D01*
X164605000Y-111435000D02*
X164605000Y-108265000D01*
X153375000Y-106100000D02*
X154375000Y-106100000D01*
X164605000Y-106355000D02*
X164605000Y-105605000D01*
X223585000Y-132690000D02*
X224220000Y-133325000D01*
X222950000Y-132690000D02*
X223585000Y-132690000D01*
X224220000Y-133325000D02*
X225170000Y-133325000D01*
X153375000Y-115100000D02*
X151875000Y-115100000D01*
X222125000Y-99700000D02*
X222125000Y-115025000D01*
X222125000Y-115025000D02*
X220250000Y-116900000D01*
X220250000Y-116900000D02*
X217500000Y-116900000D01*
X217500000Y-116900000D02*
X216250000Y-118150000D01*
X216250000Y-118150000D02*
X216250000Y-122650000D01*
X216250000Y-122650000D02*
X210750000Y-128150000D01*
X210750000Y-128150000D02*
X151875000Y-128150000D01*
X223585000Y-127610000D02*
X224220000Y-126975000D01*
X222950000Y-127610000D02*
X223585000Y-127610000D01*
X224220000Y-126975000D02*
X225170000Y-126975000D01*
X153375000Y-107600000D02*
X154375000Y-107600000D01*
X212790000Y-129110000D02*
X212250000Y-129650000D01*
X212790000Y-128245000D02*
X212790000Y-129110000D01*
X214550000Y-127610000D02*
X213425000Y-127610000D01*
X213425000Y-127610000D02*
X212790000Y-128245000D01*
X212250000Y-129650000D02*
X154375000Y-129650000D01*
X213425000Y-132690000D02*
X212790000Y-132055000D01*
X214550000Y-132690000D02*
X213425000Y-132690000D01*
X212790000Y-132055000D02*
X212790000Y-130785000D01*
X153375000Y-107100000D02*
X154875000Y-107100000D01*
X154875000Y-107100000D02*
X155125000Y-107350000D01*
X212790000Y-130785000D02*
X212790000Y-130690000D01*
X212790000Y-130690000D02*
X212250000Y-130150000D01*
X212250000Y-130150000D02*
X154875000Y-130150000D01*
G36*
X156535000Y-103896396D02*
X156535001Y-105513144D01*
X156425000Y-105513144D01*
X156425000Y-105490598D01*
X156341267Y-105288450D01*
X156186550Y-105133733D01*
X155984402Y-105050000D01*
X155925000Y-105050000D01*
X155925000Y-104990598D01*
X155841267Y-104788450D01*
X155686550Y-104633733D01*
X155484402Y-104550000D01*
X155425000Y-104550000D01*
X155425000Y-104490598D01*
X155341267Y-104288450D01*
X155186550Y-104133733D01*
X154984402Y-104050000D01*
X154925000Y-104050000D01*
X154925000Y-103990598D01*
X154841267Y-103788450D01*
X154686550Y-103633733D01*
X154484402Y-103550000D01*
X154265598Y-103550000D01*
X154068291Y-103631728D01*
X154000000Y-103618144D01*
X152750000Y-103618144D01*
X152613437Y-103645308D01*
X152497665Y-103722665D01*
X152420308Y-103838437D01*
X152393144Y-103975000D01*
X152393144Y-104225000D01*
X152418008Y-104350000D01*
X152393144Y-104475000D01*
X152393144Y-104725000D01*
X152418008Y-104850000D01*
X152393144Y-104975000D01*
X152393144Y-105225000D01*
X152418008Y-105350000D01*
X152393144Y-105475000D01*
X152393144Y-105725000D01*
X152418008Y-105850000D01*
X152393144Y-105975000D01*
X152393144Y-106225000D01*
X152418008Y-106350000D01*
X152393144Y-106475000D01*
X152393144Y-106725000D01*
X152418008Y-106850000D01*
X152393144Y-106975000D01*
X152393144Y-107225000D01*
X152418008Y-107349999D01*
X152393144Y-107475000D01*
X152393144Y-107650000D01*
X151202817Y-107650000D01*
X151186550Y-107633733D01*
X150984402Y-107550000D01*
X150765598Y-107550000D01*
X150563450Y-107633733D01*
X150408733Y-107788450D01*
X150325000Y-107990598D01*
X150325000Y-108209402D01*
X150408733Y-108411550D01*
X150563450Y-108566267D01*
X150765598Y-108650000D01*
X150984402Y-108650000D01*
X151186550Y-108566267D01*
X151202817Y-108550000D01*
X151265598Y-108550000D01*
X151063450Y-108633733D01*
X150908733Y-108788450D01*
X150825000Y-108990598D01*
X150825000Y-109209402D01*
X150908733Y-109411550D01*
X151063450Y-109566267D01*
X151265598Y-109650000D01*
X151484402Y-109650000D01*
X151686550Y-109566267D01*
X151702817Y-109550000D01*
X152393144Y-109550000D01*
X152393144Y-109725000D01*
X152420308Y-109861563D01*
X152497665Y-109977335D01*
X152613437Y-110054692D01*
X152750000Y-110081856D01*
X154000000Y-110081856D01*
X154120415Y-110057904D01*
X154125000Y-110058816D01*
X154169320Y-110050000D01*
X154169321Y-110050000D01*
X154300581Y-110023891D01*
X154449432Y-109924432D01*
X154474540Y-109886855D01*
X154661855Y-109699540D01*
X154699432Y-109674432D01*
X154798891Y-109525581D01*
X154825000Y-109394321D01*
X154825000Y-109394317D01*
X154833815Y-109350001D01*
X154825000Y-109305684D01*
X154825000Y-108550000D01*
X154938605Y-108550000D01*
X155775463Y-109386860D01*
X155800568Y-109424432D01*
X155838139Y-109449536D01*
X155838141Y-109449538D01*
X155949418Y-109523891D01*
X156125000Y-109558816D01*
X156169321Y-109550000D01*
X159915680Y-109550000D01*
X159960000Y-109558816D01*
X160004320Y-109550000D01*
X160004321Y-109550000D01*
X160135581Y-109523891D01*
X160284432Y-109424432D01*
X160309540Y-109386855D01*
X160589539Y-109106856D01*
X161545000Y-109106856D01*
X161681563Y-109079692D01*
X161797335Y-109002335D01*
X161874692Y-108886563D01*
X161901856Y-108750000D01*
X161901856Y-107794540D01*
X162161857Y-107534539D01*
X162199432Y-107509432D01*
X162298891Y-107360581D01*
X162325000Y-107229321D01*
X162325000Y-107229320D01*
X162333816Y-107185000D01*
X162325000Y-107140680D01*
X162325000Y-106490598D01*
X162825000Y-106490598D01*
X162825000Y-106709402D01*
X162908733Y-106911550D01*
X162925001Y-106927818D01*
X162925000Y-107305679D01*
X162916184Y-107350000D01*
X162925000Y-107394320D01*
X162951109Y-107525580D01*
X163050568Y-107674432D01*
X163088145Y-107699540D01*
X163498144Y-108109539D01*
X163498144Y-108750000D01*
X163525308Y-108886563D01*
X163602665Y-109002335D01*
X163718437Y-109079692D01*
X163855000Y-109106856D01*
X164155001Y-109106856D01*
X164155000Y-110593144D01*
X163855000Y-110593144D01*
X163718437Y-110620308D01*
X163602665Y-110697665D01*
X163525308Y-110813437D01*
X163498144Y-110950000D01*
X163498144Y-111920000D01*
X163525308Y-112056563D01*
X163602665Y-112172335D01*
X163718437Y-112249692D01*
X163855000Y-112276856D01*
X165355000Y-112276856D01*
X165491563Y-112249692D01*
X165607335Y-112172335D01*
X165684692Y-112056563D01*
X165711856Y-111920000D01*
X165711856Y-110950000D01*
X165684692Y-110813437D01*
X165607335Y-110697665D01*
X165491563Y-110620308D01*
X165355000Y-110593144D01*
X165055000Y-110593144D01*
X165055000Y-109106856D01*
X165355000Y-109106856D01*
X165491563Y-109079692D01*
X165607335Y-109002335D01*
X165684692Y-108886563D01*
X165711856Y-108750000D01*
X165711856Y-107780000D01*
X165684692Y-107643437D01*
X165607335Y-107527665D01*
X165491563Y-107450308D01*
X165355000Y-107423144D01*
X164084539Y-107423144D01*
X163858251Y-107196856D01*
X165355000Y-107196856D01*
X165491563Y-107169692D01*
X165607335Y-107092335D01*
X165684692Y-106976563D01*
X165711856Y-106840000D01*
X165711856Y-105870000D01*
X165684692Y-105733437D01*
X165607335Y-105617665D01*
X165491563Y-105540308D01*
X165355000Y-105513144D01*
X165155000Y-105513144D01*
X165155000Y-105495598D01*
X165071267Y-105293450D01*
X164916550Y-105138733D01*
X164714402Y-105055000D01*
X164495598Y-105055000D01*
X164293450Y-105138733D01*
X164138733Y-105293450D01*
X164055000Y-105495598D01*
X164055000Y-105513144D01*
X163855000Y-105513144D01*
X163718437Y-105540308D01*
X163602665Y-105617665D01*
X163525308Y-105733437D01*
X163498144Y-105870000D01*
X163498144Y-106055692D01*
X163484402Y-106050000D01*
X163265598Y-106050000D01*
X163063450Y-106133733D01*
X162908733Y-106288450D01*
X162825000Y-106490598D01*
X162325000Y-106490598D01*
X162325000Y-103200000D01*
X165900000Y-103200000D01*
X165900000Y-116750000D01*
X145825000Y-116750000D01*
X145825000Y-116286395D01*
X146029540Y-116081856D01*
X147250000Y-116081856D01*
X147386563Y-116054692D01*
X147502335Y-115977335D01*
X147579692Y-115861563D01*
X147606856Y-115725000D01*
X147606856Y-115475000D01*
X147581992Y-115350000D01*
X147606856Y-115225000D01*
X147606856Y-114990598D01*
X151325000Y-114990598D01*
X151325000Y-115209402D01*
X151408733Y-115411550D01*
X151563450Y-115566267D01*
X151765598Y-115650000D01*
X151825000Y-115650000D01*
X151825000Y-115709402D01*
X151908733Y-115911550D01*
X152063450Y-116066267D01*
X152265598Y-116150000D01*
X152484402Y-116150000D01*
X152681709Y-116068272D01*
X152750000Y-116081856D01*
X154000000Y-116081856D01*
X154136563Y-116054692D01*
X154252335Y-115977335D01*
X154329692Y-115861563D01*
X154356856Y-115725000D01*
X154356856Y-115475000D01*
X154331992Y-115350000D01*
X154356856Y-115225000D01*
X154356856Y-114975000D01*
X154331992Y-114850000D01*
X154356856Y-114725000D01*
X154356856Y-114475000D01*
X154331992Y-114350000D01*
X154356856Y-114225000D01*
X154356856Y-113975000D01*
X154331992Y-113850000D01*
X154356856Y-113725000D01*
X154356856Y-113475000D01*
X154329692Y-113338437D01*
X154252335Y-113222665D01*
X154136563Y-113145308D01*
X154000000Y-113118144D01*
X152750000Y-113118144D01*
X152613437Y-113145308D01*
X152497665Y-113222665D01*
X152420308Y-113338437D01*
X152393144Y-113475000D01*
X152393144Y-113725000D01*
X152418008Y-113850000D01*
X152393144Y-113975000D01*
X152393144Y-114225000D01*
X152418008Y-114350000D01*
X152393144Y-114475000D01*
X152393144Y-114650000D01*
X152202817Y-114650000D01*
X152186550Y-114633733D01*
X151984402Y-114550000D01*
X151765598Y-114550000D01*
X151563450Y-114633733D01*
X151408733Y-114788450D01*
X151325000Y-114990598D01*
X147606856Y-114990598D01*
X147606856Y-114975000D01*
X147581992Y-114850000D01*
X147606856Y-114725000D01*
X147606856Y-114475000D01*
X147581992Y-114350000D01*
X147606856Y-114225000D01*
X147606856Y-113975000D01*
X147581992Y-113850000D01*
X147606856Y-113725000D01*
X147606856Y-113475000D01*
X147581992Y-113350000D01*
X147606856Y-113225000D01*
X147606856Y-112975000D01*
X147581992Y-112850000D01*
X147606856Y-112725000D01*
X147606856Y-112550000D01*
X147797183Y-112550000D01*
X147813450Y-112566267D01*
X148015598Y-112650000D01*
X148234402Y-112650000D01*
X148436550Y-112566267D01*
X148591267Y-112411550D01*
X148675000Y-112209402D01*
X148675000Y-111990598D01*
X148591267Y-111788450D01*
X148436550Y-111633733D01*
X148234402Y-111550000D01*
X148175000Y-111550000D01*
X148175000Y-111490598D01*
X148091267Y-111288450D01*
X148075000Y-111272183D01*
X148075000Y-110650000D01*
X148234402Y-110650000D01*
X148436550Y-110566267D01*
X148527817Y-110475000D01*
X152393144Y-110475000D01*
X152393144Y-110725000D01*
X152418008Y-110850000D01*
X152393144Y-110975000D01*
X152393144Y-111225000D01*
X152418008Y-111350000D01*
X152393144Y-111475000D01*
X152393144Y-111725000D01*
X152418008Y-111850000D01*
X152393144Y-111975000D01*
X152393144Y-112225000D01*
X152420308Y-112361563D01*
X152497665Y-112477335D01*
X152613437Y-112554692D01*
X152750000Y-112581856D01*
X154000000Y-112581856D01*
X154136563Y-112554692D01*
X154252335Y-112477335D01*
X154329692Y-112361563D01*
X154356856Y-112225000D01*
X154356856Y-111975000D01*
X154331992Y-111850000D01*
X154356856Y-111725000D01*
X154356856Y-111550000D01*
X155878144Y-111550000D01*
X155878144Y-111920000D01*
X155905308Y-112056563D01*
X155982665Y-112172335D01*
X156098437Y-112249692D01*
X156235000Y-112276856D01*
X157735000Y-112276856D01*
X157871563Y-112249692D01*
X157987335Y-112172335D01*
X158064692Y-112056563D01*
X158091856Y-111920000D01*
X158091856Y-111050000D01*
X159688144Y-111050000D01*
X159688144Y-111920000D01*
X159715308Y-112056563D01*
X159792665Y-112172335D01*
X159908437Y-112249692D01*
X160045000Y-112276856D01*
X161545000Y-112276856D01*
X161681563Y-112249692D01*
X161797335Y-112172335D01*
X161874692Y-112056563D01*
X161901856Y-111920000D01*
X161901856Y-110950000D01*
X161874692Y-110813437D01*
X161797335Y-110697665D01*
X161681563Y-110620308D01*
X161545000Y-110593144D01*
X160589539Y-110593144D01*
X160309540Y-110313145D01*
X160284432Y-110275568D01*
X160135581Y-110176109D01*
X160004321Y-110150000D01*
X160004320Y-110150000D01*
X159960000Y-110141184D01*
X159915680Y-110150000D01*
X154143585Y-110150000D01*
X154136563Y-110145308D01*
X154000000Y-110118144D01*
X152750000Y-110118144D01*
X152613437Y-110145308D01*
X152497665Y-110222665D01*
X152420308Y-110338437D01*
X152393144Y-110475000D01*
X148527817Y-110475000D01*
X148591267Y-110411550D01*
X148675000Y-110209402D01*
X148675000Y-109990598D01*
X148591267Y-109788450D01*
X148436550Y-109633733D01*
X148234402Y-109550000D01*
X148175000Y-109550000D01*
X148175000Y-109490598D01*
X148091267Y-109288450D01*
X147936550Y-109133733D01*
X147734402Y-109050000D01*
X147606856Y-109050000D01*
X147606856Y-108975000D01*
X147581992Y-108850000D01*
X147606856Y-108725000D01*
X147606856Y-108475000D01*
X147581992Y-108350000D01*
X147606856Y-108225000D01*
X147606856Y-107975000D01*
X147581992Y-107850000D01*
X147606856Y-107725000D01*
X147606856Y-107475000D01*
X147581992Y-107349999D01*
X147606856Y-107225000D01*
X147606856Y-106975000D01*
X147581992Y-106850000D01*
X147606856Y-106725000D01*
X147606856Y-106475000D01*
X147581992Y-106350000D01*
X147606856Y-106225000D01*
X147606856Y-105975000D01*
X147581992Y-105850000D01*
X147606856Y-105725000D01*
X147606856Y-105475000D01*
X147581992Y-105350000D01*
X147606856Y-105225000D01*
X147606856Y-104975000D01*
X147581992Y-104850000D01*
X147606856Y-104725000D01*
X147606856Y-104550000D01*
X150830680Y-104550000D01*
X150875000Y-104558816D01*
X150919320Y-104550000D01*
X150919321Y-104550000D01*
X151050581Y-104523891D01*
X151199432Y-104424432D01*
X151224540Y-104386855D01*
X152411396Y-103200000D01*
X155838605Y-103200000D01*
X156535000Y-103896396D01*
X156535000Y-103896396D01*
G37*
X156535000Y-103896396D02*
X156535001Y-105513144D01*
X156425000Y-105513144D01*
X156425000Y-105490598D01*
X156341267Y-105288450D01*
X156186550Y-105133733D01*
X155984402Y-105050000D01*
X155925000Y-105050000D01*
X155925000Y-104990598D01*
X155841267Y-104788450D01*
X155686550Y-104633733D01*
X155484402Y-104550000D01*
X155425000Y-104550000D01*
X155425000Y-104490598D01*
X155341267Y-104288450D01*
X155186550Y-104133733D01*
X154984402Y-104050000D01*
X154925000Y-104050000D01*
X154925000Y-103990598D01*
X154841267Y-103788450D01*
X154686550Y-103633733D01*
X154484402Y-103550000D01*
X154265598Y-103550000D01*
X154068291Y-103631728D01*
X154000000Y-103618144D01*
X152750000Y-103618144D01*
X152613437Y-103645308D01*
X152497665Y-103722665D01*
X152420308Y-103838437D01*
X152393144Y-103975000D01*
X152393144Y-104225000D01*
X152418008Y-104350000D01*
X152393144Y-104475000D01*
X152393144Y-104725000D01*
X152418008Y-104850000D01*
X152393144Y-104975000D01*
X152393144Y-105225000D01*
X152418008Y-105350000D01*
X152393144Y-105475000D01*
X152393144Y-105725000D01*
X152418008Y-105850000D01*
X152393144Y-105975000D01*
X152393144Y-106225000D01*
X152418008Y-106350000D01*
X152393144Y-106475000D01*
X152393144Y-106725000D01*
X152418008Y-106850000D01*
X152393144Y-106975000D01*
X152393144Y-107225000D01*
X152418008Y-107349999D01*
X152393144Y-107475000D01*
X152393144Y-107650000D01*
X151202817Y-107650000D01*
X151186550Y-107633733D01*
X150984402Y-107550000D01*
X150765598Y-107550000D01*
X150563450Y-107633733D01*
X150408733Y-107788450D01*
X150325000Y-107990598D01*
X150325000Y-108209402D01*
X150408733Y-108411550D01*
X150563450Y-108566267D01*
X150765598Y-108650000D01*
X150984402Y-108650000D01*
X151186550Y-108566267D01*
X151202817Y-108550000D01*
X151265598Y-108550000D01*
X151063450Y-108633733D01*
X150908733Y-108788450D01*
X150825000Y-108990598D01*
X150825000Y-109209402D01*
X150908733Y-109411550D01*
X151063450Y-109566267D01*
X151265598Y-109650000D01*
X151484402Y-109650000D01*
X151686550Y-109566267D01*
X151702817Y-109550000D01*
X152393144Y-109550000D01*
X152393144Y-109725000D01*
X152420308Y-109861563D01*
X152497665Y-109977335D01*
X152613437Y-110054692D01*
X152750000Y-110081856D01*
X154000000Y-110081856D01*
X154120415Y-110057904D01*
X154125000Y-110058816D01*
X154169320Y-110050000D01*
X154169321Y-110050000D01*
X154300581Y-110023891D01*
X154449432Y-109924432D01*
X154474540Y-109886855D01*
X154661855Y-109699540D01*
X154699432Y-109674432D01*
X154798891Y-109525581D01*
X154825000Y-109394321D01*
X154825000Y-109394317D01*
X154833815Y-109350001D01*
X154825000Y-109305684D01*
X154825000Y-108550000D01*
X154938605Y-108550000D01*
X155775463Y-109386860D01*
X155800568Y-109424432D01*
X155838139Y-109449536D01*
X155838141Y-109449538D01*
X155949418Y-109523891D01*
X156125000Y-109558816D01*
X156169321Y-109550000D01*
X159915680Y-109550000D01*
X159960000Y-109558816D01*
X160004320Y-109550000D01*
X160004321Y-109550000D01*
X160135581Y-109523891D01*
X160284432Y-109424432D01*
X160309540Y-109386855D01*
X160589539Y-109106856D01*
X161545000Y-109106856D01*
X161681563Y-109079692D01*
X161797335Y-109002335D01*
X161874692Y-108886563D01*
X161901856Y-108750000D01*
X161901856Y-107794540D01*
X162161857Y-107534539D01*
X162199432Y-107509432D01*
X162298891Y-107360581D01*
X162325000Y-107229321D01*
X162325000Y-107229320D01*
X162333816Y-107185000D01*
X162325000Y-107140680D01*
X162325000Y-106490598D01*
X162825000Y-106490598D01*
X162825000Y-106709402D01*
X162908733Y-106911550D01*
X162925001Y-106927818D01*
X162925000Y-107305679D01*
X162916184Y-107350000D01*
X162925000Y-107394320D01*
X162951109Y-107525580D01*
X163050568Y-107674432D01*
X163088145Y-107699540D01*
X163498144Y-108109539D01*
X163498144Y-108750000D01*
X163525308Y-108886563D01*
X163602665Y-109002335D01*
X163718437Y-109079692D01*
X163855000Y-109106856D01*
X164155001Y-109106856D01*
X164155000Y-110593144D01*
X163855000Y-110593144D01*
X163718437Y-110620308D01*
X163602665Y-110697665D01*
X163525308Y-110813437D01*
X163498144Y-110950000D01*
X163498144Y-111920000D01*
X163525308Y-112056563D01*
X163602665Y-112172335D01*
X163718437Y-112249692D01*
X163855000Y-112276856D01*
X165355000Y-112276856D01*
X165491563Y-112249692D01*
X165607335Y-112172335D01*
X165684692Y-112056563D01*
X165711856Y-111920000D01*
X165711856Y-110950000D01*
X165684692Y-110813437D01*
X165607335Y-110697665D01*
X165491563Y-110620308D01*
X165355000Y-110593144D01*
X165055000Y-110593144D01*
X165055000Y-109106856D01*
X165355000Y-109106856D01*
X165491563Y-109079692D01*
X165607335Y-109002335D01*
X165684692Y-108886563D01*
X165711856Y-108750000D01*
X165711856Y-107780000D01*
X165684692Y-107643437D01*
X165607335Y-107527665D01*
X165491563Y-107450308D01*
X165355000Y-107423144D01*
X164084539Y-107423144D01*
X163858251Y-107196856D01*
X165355000Y-107196856D01*
X165491563Y-107169692D01*
X165607335Y-107092335D01*
X165684692Y-106976563D01*
X165711856Y-106840000D01*
X165711856Y-105870000D01*
X165684692Y-105733437D01*
X165607335Y-105617665D01*
X165491563Y-105540308D01*
X165355000Y-105513144D01*
X165155000Y-105513144D01*
X165155000Y-105495598D01*
X165071267Y-105293450D01*
X164916550Y-105138733D01*
X164714402Y-105055000D01*
X164495598Y-105055000D01*
X164293450Y-105138733D01*
X164138733Y-105293450D01*
X164055000Y-105495598D01*
X164055000Y-105513144D01*
X163855000Y-105513144D01*
X163718437Y-105540308D01*
X163602665Y-105617665D01*
X163525308Y-105733437D01*
X163498144Y-105870000D01*
X163498144Y-106055692D01*
X163484402Y-106050000D01*
X163265598Y-106050000D01*
X163063450Y-106133733D01*
X162908733Y-106288450D01*
X162825000Y-106490598D01*
X162325000Y-106490598D01*
X162325000Y-103200000D01*
X165900000Y-103200000D01*
X165900000Y-116750000D01*
X145825000Y-116750000D01*
X145825000Y-116286395D01*
X146029540Y-116081856D01*
X147250000Y-116081856D01*
X147386563Y-116054692D01*
X147502335Y-115977335D01*
X147579692Y-115861563D01*
X147606856Y-115725000D01*
X147606856Y-115475000D01*
X147581992Y-115350000D01*
X147606856Y-115225000D01*
X147606856Y-114990598D01*
X151325000Y-114990598D01*
X151325000Y-115209402D01*
X151408733Y-115411550D01*
X151563450Y-115566267D01*
X151765598Y-115650000D01*
X151825000Y-115650000D01*
X151825000Y-115709402D01*
X151908733Y-115911550D01*
X152063450Y-116066267D01*
X152265598Y-116150000D01*
X152484402Y-116150000D01*
X152681709Y-116068272D01*
X152750000Y-116081856D01*
X154000000Y-116081856D01*
X154136563Y-116054692D01*
X154252335Y-115977335D01*
X154329692Y-115861563D01*
X154356856Y-115725000D01*
X154356856Y-115475000D01*
X154331992Y-115350000D01*
X154356856Y-115225000D01*
X154356856Y-114975000D01*
X154331992Y-114850000D01*
X154356856Y-114725000D01*
X154356856Y-114475000D01*
X154331992Y-114350000D01*
X154356856Y-114225000D01*
X154356856Y-113975000D01*
X154331992Y-113850000D01*
X154356856Y-113725000D01*
X154356856Y-113475000D01*
X154329692Y-113338437D01*
X154252335Y-113222665D01*
X154136563Y-113145308D01*
X154000000Y-113118144D01*
X152750000Y-113118144D01*
X152613437Y-113145308D01*
X152497665Y-113222665D01*
X152420308Y-113338437D01*
X152393144Y-113475000D01*
X152393144Y-113725000D01*
X152418008Y-113850000D01*
X152393144Y-113975000D01*
X152393144Y-114225000D01*
X152418008Y-114350000D01*
X152393144Y-114475000D01*
X152393144Y-114650000D01*
X152202817Y-114650000D01*
X152186550Y-114633733D01*
X151984402Y-114550000D01*
X151765598Y-114550000D01*
X151563450Y-114633733D01*
X151408733Y-114788450D01*
X151325000Y-114990598D01*
X147606856Y-114990598D01*
X147606856Y-114975000D01*
X147581992Y-114850000D01*
X147606856Y-114725000D01*
X147606856Y-114475000D01*
X147581992Y-114350000D01*
X147606856Y-114225000D01*
X147606856Y-113975000D01*
X147581992Y-113850000D01*
X147606856Y-113725000D01*
X147606856Y-113475000D01*
X147581992Y-113350000D01*
X147606856Y-113225000D01*
X147606856Y-112975000D01*
X147581992Y-112850000D01*
X147606856Y-112725000D01*
X147606856Y-112550000D01*
X147797183Y-112550000D01*
X147813450Y-112566267D01*
X148015598Y-112650000D01*
X148234402Y-112650000D01*
X148436550Y-112566267D01*
X148591267Y-112411550D01*
X148675000Y-112209402D01*
X148675000Y-111990598D01*
X148591267Y-111788450D01*
X148436550Y-111633733D01*
X148234402Y-111550000D01*
X148175000Y-111550000D01*
X148175000Y-111490598D01*
X148091267Y-111288450D01*
X148075000Y-111272183D01*
X148075000Y-110650000D01*
X148234402Y-110650000D01*
X148436550Y-110566267D01*
X148527817Y-110475000D01*
X152393144Y-110475000D01*
X152393144Y-110725000D01*
X152418008Y-110850000D01*
X152393144Y-110975000D01*
X152393144Y-111225000D01*
X152418008Y-111350000D01*
X152393144Y-111475000D01*
X152393144Y-111725000D01*
X152418008Y-111850000D01*
X152393144Y-111975000D01*
X152393144Y-112225000D01*
X152420308Y-112361563D01*
X152497665Y-112477335D01*
X152613437Y-112554692D01*
X152750000Y-112581856D01*
X154000000Y-112581856D01*
X154136563Y-112554692D01*
X154252335Y-112477335D01*
X154329692Y-112361563D01*
X154356856Y-112225000D01*
X154356856Y-111975000D01*
X154331992Y-111850000D01*
X154356856Y-111725000D01*
X154356856Y-111550000D01*
X155878144Y-111550000D01*
X155878144Y-111920000D01*
X155905308Y-112056563D01*
X155982665Y-112172335D01*
X156098437Y-112249692D01*
X156235000Y-112276856D01*
X157735000Y-112276856D01*
X157871563Y-112249692D01*
X157987335Y-112172335D01*
X158064692Y-112056563D01*
X158091856Y-111920000D01*
X158091856Y-111050000D01*
X159688144Y-111050000D01*
X159688144Y-111920000D01*
X159715308Y-112056563D01*
X159792665Y-112172335D01*
X159908437Y-112249692D01*
X160045000Y-112276856D01*
X161545000Y-112276856D01*
X161681563Y-112249692D01*
X161797335Y-112172335D01*
X161874692Y-112056563D01*
X161901856Y-111920000D01*
X161901856Y-110950000D01*
X161874692Y-110813437D01*
X161797335Y-110697665D01*
X161681563Y-110620308D01*
X161545000Y-110593144D01*
X160589539Y-110593144D01*
X160309540Y-110313145D01*
X160284432Y-110275568D01*
X160135581Y-110176109D01*
X160004321Y-110150000D01*
X160004320Y-110150000D01*
X159960000Y-110141184D01*
X159915680Y-110150000D01*
X154143585Y-110150000D01*
X154136563Y-110145308D01*
X154000000Y-110118144D01*
X152750000Y-110118144D01*
X152613437Y-110145308D01*
X152497665Y-110222665D01*
X152420308Y-110338437D01*
X152393144Y-110475000D01*
X148527817Y-110475000D01*
X148591267Y-110411550D01*
X148675000Y-110209402D01*
X148675000Y-109990598D01*
X148591267Y-109788450D01*
X148436550Y-109633733D01*
X148234402Y-109550000D01*
X148175000Y-109550000D01*
X148175000Y-109490598D01*
X148091267Y-109288450D01*
X147936550Y-109133733D01*
X147734402Y-109050000D01*
X147606856Y-109050000D01*
X147606856Y-108975000D01*
X147581992Y-108850000D01*
X147606856Y-108725000D01*
X147606856Y-108475000D01*
X147581992Y-108350000D01*
X147606856Y-108225000D01*
X147606856Y-107975000D01*
X147581992Y-107850000D01*
X147606856Y-107725000D01*
X147606856Y-107475000D01*
X147581992Y-107349999D01*
X147606856Y-107225000D01*
X147606856Y-106975000D01*
X147581992Y-106850000D01*
X147606856Y-106725000D01*
X147606856Y-106475000D01*
X147581992Y-106350000D01*
X147606856Y-106225000D01*
X147606856Y-105975000D01*
X147581992Y-105850000D01*
X147606856Y-105725000D01*
X147606856Y-105475000D01*
X147581992Y-105350000D01*
X147606856Y-105225000D01*
X147606856Y-104975000D01*
X147581992Y-104850000D01*
X147606856Y-104725000D01*
X147606856Y-104550000D01*
X150830680Y-104550000D01*
X150875000Y-104558816D01*
X150919320Y-104550000D01*
X150919321Y-104550000D01*
X151050581Y-104523891D01*
X151199432Y-104424432D01*
X151224540Y-104386855D01*
X152411396Y-103200000D01*
X155838605Y-103200000D01*
X156535000Y-103896396D01*
G36*
X161425001Y-106998603D02*
X161000461Y-107423144D01*
X160045000Y-107423144D01*
X159908437Y-107450308D01*
X159792665Y-107527665D01*
X159715308Y-107643437D01*
X159688144Y-107780000D01*
X159688144Y-108650000D01*
X156311397Y-108650000D01*
X155474540Y-107813145D01*
X155460574Y-107792243D01*
X155591267Y-107661550D01*
X155675000Y-107459402D01*
X155675000Y-107240598D01*
X155591267Y-107038450D01*
X155436550Y-106883733D01*
X155365056Y-106854119D01*
X155425000Y-106709402D01*
X155425000Y-106490598D01*
X155341267Y-106288450D01*
X155186550Y-106133733D01*
X154984402Y-106050000D01*
X155547183Y-106050000D01*
X155563450Y-106066267D01*
X155765598Y-106150000D01*
X155878144Y-106150000D01*
X155878144Y-106840000D01*
X155905308Y-106976563D01*
X155982665Y-107092335D01*
X156098437Y-107169692D01*
X156235000Y-107196856D01*
X157735000Y-107196856D01*
X157871563Y-107169692D01*
X157987335Y-107092335D01*
X158064692Y-106976563D01*
X158091856Y-106840000D01*
X158091856Y-105870000D01*
X158064692Y-105733437D01*
X157987335Y-105617665D01*
X157871563Y-105540308D01*
X157735000Y-105513144D01*
X157435000Y-105513144D01*
X157435000Y-103754319D01*
X157443816Y-103709999D01*
X157430948Y-103645308D01*
X157408891Y-103534419D01*
X157309432Y-103385568D01*
X157271858Y-103360462D01*
X157111396Y-103200000D01*
X161425001Y-103200000D01*
X161425001Y-106998603D01*
X161425001Y-106998603D01*
G37*
X161425001Y-106998603D02*
X161000461Y-107423144D01*
X160045000Y-107423144D01*
X159908437Y-107450308D01*
X159792665Y-107527665D01*
X159715308Y-107643437D01*
X159688144Y-107780000D01*
X159688144Y-108650000D01*
X156311397Y-108650000D01*
X155474540Y-107813145D01*
X155460574Y-107792243D01*
X155591267Y-107661550D01*
X155675000Y-107459402D01*
X155675000Y-107240598D01*
X155591267Y-107038450D01*
X155436550Y-106883733D01*
X155365056Y-106854119D01*
X155425000Y-106709402D01*
X155425000Y-106490598D01*
X155341267Y-106288450D01*
X155186550Y-106133733D01*
X154984402Y-106050000D01*
X155547183Y-106050000D01*
X155563450Y-106066267D01*
X155765598Y-106150000D01*
X155878144Y-106150000D01*
X155878144Y-106840000D01*
X155905308Y-106976563D01*
X155982665Y-107092335D01*
X156098437Y-107169692D01*
X156235000Y-107196856D01*
X157735000Y-107196856D01*
X157871563Y-107169692D01*
X157987335Y-107092335D01*
X158064692Y-106976563D01*
X158091856Y-106840000D01*
X158091856Y-105870000D01*
X158064692Y-105733437D01*
X157987335Y-105617665D01*
X157871563Y-105540308D01*
X157735000Y-105513144D01*
X157435000Y-105513144D01*
X157435000Y-103754319D01*
X157443816Y-103709999D01*
X157430948Y-103645308D01*
X157408891Y-103534419D01*
X157309432Y-103385568D01*
X157271858Y-103360462D01*
X157111396Y-103200000D01*
X161425001Y-103200000D01*
X161425001Y-106998603D01*
M02*
