%TF.GenerationSoftware,KiCad,Pcbnew,(5.0.0-rc2-dev-632-g76d3b6f04)*%
%TF.CreationDate,2018-06-22T20:28:34+02:00*%
%TF.ProjectId,CellsBoard,43656C6C73426F6172642E6B69636164,rev?*%
%TF.SameCoordinates,Original*%
%TF.FileFunction,Legend,Top*%
%TF.FilePolarity,Positive*%
%FSLAX46Y46*%
G04 Gerber Fmt 4.6, Leading zero omitted, Abs format (unit mm)*
G04 Created by KiCad (PCBNEW (5.0.0-rc2-dev-632-g76d3b6f04)) date 06/22/18 20:28:34*
%MOMM*%
%LPD*%
G01*
G04 APERTURE LIST*
%ADD10C,0.300000*%
%ADD11C,0.150000*%
%ADD12C,0.120000*%
%ADD13C,0.010000*%
G04 APERTURE END LIST*
D10*
X215428571Y-112957142D02*
X214428571Y-112957142D01*
X213928571Y-112957142D02*
X214000000Y-113028571D01*
X214071428Y-112957142D01*
X214000000Y-112885714D01*
X213928571Y-112957142D01*
X214071428Y-112957142D01*
X215357142Y-112314285D02*
X215428571Y-112171428D01*
X215428571Y-111885714D01*
X215357142Y-111742857D01*
X215214285Y-111671428D01*
X215142857Y-111671428D01*
X215000000Y-111742857D01*
X214928571Y-111885714D01*
X214928571Y-112100000D01*
X214857142Y-112242857D01*
X214714285Y-112314285D01*
X214642857Y-112314285D01*
X214500000Y-112242857D01*
X214428571Y-112100000D01*
X214428571Y-111885714D01*
X214500000Y-111742857D01*
X215428571Y-110814285D02*
X215357142Y-110957142D01*
X215285714Y-111028571D01*
X215142857Y-111100000D01*
X214714285Y-111100000D01*
X214571428Y-111028571D01*
X214500000Y-110957142D01*
X214428571Y-110814285D01*
X214428571Y-110600000D01*
X214500000Y-110457142D01*
X214571428Y-110385714D01*
X214714285Y-110314285D01*
X215142857Y-110314285D01*
X215285714Y-110385714D01*
X215357142Y-110457142D01*
X215428571Y-110600000D01*
X215428571Y-110814285D01*
X215357142Y-109742857D02*
X215428571Y-109528571D01*
X215428571Y-109171428D01*
X215357142Y-109028571D01*
X215285714Y-108957142D01*
X215142857Y-108885714D01*
X215000000Y-108885714D01*
X214857142Y-108957142D01*
X214785714Y-109028571D01*
X214714285Y-109171428D01*
X214642857Y-109457142D01*
X214571428Y-109600000D01*
X214500000Y-109671428D01*
X214357142Y-109742857D01*
X214214285Y-109742857D01*
X214071428Y-109671428D01*
X214000000Y-109600000D01*
X213928571Y-109457142D01*
X213928571Y-109100000D01*
X214000000Y-108885714D01*
X215428571Y-108242857D02*
X213928571Y-108242857D01*
X213928571Y-107671428D01*
X214000000Y-107528571D01*
X214071428Y-107457142D01*
X214214285Y-107385714D01*
X214428571Y-107385714D01*
X214571428Y-107457142D01*
X214642857Y-107528571D01*
X214714285Y-107671428D01*
X214714285Y-108242857D01*
X215428571Y-106742857D02*
X213928571Y-106742857D01*
X114242857Y-118522857D02*
X114314285Y-118308571D01*
X114385714Y-118237142D01*
X114528571Y-118165714D01*
X114742857Y-118165714D01*
X114885714Y-118237142D01*
X114957142Y-118308571D01*
X115028571Y-118451428D01*
X115028571Y-119022857D01*
X113528571Y-119022857D01*
X113528571Y-118522857D01*
X113600000Y-118380000D01*
X113671428Y-118308571D01*
X113814285Y-118237142D01*
X113957142Y-118237142D01*
X114100000Y-118308571D01*
X114171428Y-118380000D01*
X114242857Y-118522857D01*
X114242857Y-119022857D01*
X115028571Y-117522857D02*
X113528571Y-117522857D01*
X114600000Y-117022857D01*
X113528571Y-116522857D01*
X115028571Y-116522857D01*
X114957142Y-115880000D02*
X115028571Y-115665714D01*
X115028571Y-115308571D01*
X114957142Y-115165714D01*
X114885714Y-115094285D01*
X114742857Y-115022857D01*
X114600000Y-115022857D01*
X114457142Y-115094285D01*
X114385714Y-115165714D01*
X114314285Y-115308571D01*
X114242857Y-115594285D01*
X114171428Y-115737142D01*
X114100000Y-115808571D01*
X113957142Y-115880000D01*
X113814285Y-115880000D01*
X113671428Y-115808571D01*
X113600000Y-115737142D01*
X113528571Y-115594285D01*
X113528571Y-115237142D01*
X113600000Y-115022857D01*
X114885714Y-112380000D02*
X114957142Y-112451428D01*
X115028571Y-112665714D01*
X115028571Y-112808571D01*
X114957142Y-113022857D01*
X114814285Y-113165714D01*
X114671428Y-113237142D01*
X114385714Y-113308571D01*
X114171428Y-113308571D01*
X113885714Y-113237142D01*
X113742857Y-113165714D01*
X113600000Y-113022857D01*
X113528571Y-112808571D01*
X113528571Y-112665714D01*
X113600000Y-112451428D01*
X113671428Y-112380000D01*
X114957142Y-111165714D02*
X115028571Y-111308571D01*
X115028571Y-111594285D01*
X114957142Y-111737142D01*
X114814285Y-111808571D01*
X114242857Y-111808571D01*
X114100000Y-111737142D01*
X114028571Y-111594285D01*
X114028571Y-111308571D01*
X114100000Y-111165714D01*
X114242857Y-111094285D01*
X114385714Y-111094285D01*
X114528571Y-111808571D01*
X115028571Y-110237142D02*
X114957142Y-110380000D01*
X114814285Y-110451428D01*
X113528571Y-110451428D01*
X115028571Y-109451428D02*
X114957142Y-109594285D01*
X114814285Y-109665714D01*
X113528571Y-109665714D01*
X114957142Y-108951428D02*
X115028571Y-108808571D01*
X115028571Y-108522857D01*
X114957142Y-108380000D01*
X114814285Y-108308571D01*
X114742857Y-108308571D01*
X114600000Y-108380000D01*
X114528571Y-108522857D01*
X114528571Y-108737142D01*
X114457142Y-108880000D01*
X114314285Y-108951428D01*
X114242857Y-108951428D01*
X114100000Y-108880000D01*
X114028571Y-108737142D01*
X114028571Y-108522857D01*
X114100000Y-108380000D01*
X114242857Y-106022857D02*
X114314285Y-105808571D01*
X114385714Y-105737142D01*
X114528571Y-105665714D01*
X114742857Y-105665714D01*
X114885714Y-105737142D01*
X114957142Y-105808571D01*
X115028571Y-105951428D01*
X115028571Y-106522857D01*
X113528571Y-106522857D01*
X113528571Y-106022857D01*
X113600000Y-105880000D01*
X113671428Y-105808571D01*
X113814285Y-105737142D01*
X113957142Y-105737142D01*
X114100000Y-105808571D01*
X114171428Y-105880000D01*
X114242857Y-106022857D01*
X114242857Y-106522857D01*
X115028571Y-104808571D02*
X114957142Y-104951428D01*
X114885714Y-105022857D01*
X114742857Y-105094285D01*
X114314285Y-105094285D01*
X114171428Y-105022857D01*
X114100000Y-104951428D01*
X114028571Y-104808571D01*
X114028571Y-104594285D01*
X114100000Y-104451428D01*
X114171428Y-104380000D01*
X114314285Y-104308571D01*
X114742857Y-104308571D01*
X114885714Y-104380000D01*
X114957142Y-104451428D01*
X115028571Y-104594285D01*
X115028571Y-104808571D01*
X115028571Y-103022857D02*
X114242857Y-103022857D01*
X114100000Y-103094285D01*
X114028571Y-103237142D01*
X114028571Y-103522857D01*
X114100000Y-103665714D01*
X114957142Y-103022857D02*
X115028571Y-103165714D01*
X115028571Y-103522857D01*
X114957142Y-103665714D01*
X114814285Y-103737142D01*
X114671428Y-103737142D01*
X114528571Y-103665714D01*
X114457142Y-103522857D01*
X114457142Y-103165714D01*
X114385714Y-103022857D01*
X115028571Y-102308571D02*
X114028571Y-102308571D01*
X114314285Y-102308571D02*
X114171428Y-102237142D01*
X114100000Y-102165714D01*
X114028571Y-102022857D01*
X114028571Y-101880000D01*
X115028571Y-100737142D02*
X113528571Y-100737142D01*
X114957142Y-100737142D02*
X115028571Y-100880000D01*
X115028571Y-101165714D01*
X114957142Y-101308571D01*
X114885714Y-101380000D01*
X114742857Y-101451428D01*
X114314285Y-101451428D01*
X114171428Y-101380000D01*
X114100000Y-101308571D01*
X114028571Y-101165714D01*
X114028571Y-100880000D01*
X114100000Y-100737142D01*
X117578571Y-120022857D02*
X116078571Y-120022857D01*
X116650000Y-120022857D02*
X116578571Y-119880000D01*
X116578571Y-119594285D01*
X116650000Y-119451428D01*
X116721428Y-119380000D01*
X116864285Y-119308571D01*
X117292857Y-119308571D01*
X117435714Y-119380000D01*
X117507142Y-119451428D01*
X117578571Y-119594285D01*
X117578571Y-119880000D01*
X117507142Y-120022857D01*
X116578571Y-118808571D02*
X117578571Y-118451428D01*
X116578571Y-118094285D02*
X117578571Y-118451428D01*
X117935714Y-118594285D01*
X118007142Y-118665714D01*
X118078571Y-118808571D01*
X116150000Y-115594285D02*
X116078571Y-115737142D01*
X116078571Y-115951428D01*
X116150000Y-116165714D01*
X116292857Y-116308571D01*
X116435714Y-116380000D01*
X116721428Y-116451428D01*
X116935714Y-116451428D01*
X117221428Y-116380000D01*
X117364285Y-116308571D01*
X117507142Y-116165714D01*
X117578571Y-115951428D01*
X117578571Y-115808571D01*
X117507142Y-115594285D01*
X117435714Y-115522857D01*
X116935714Y-115522857D01*
X116935714Y-115808571D01*
X117578571Y-114880000D02*
X116578571Y-114880000D01*
X116864285Y-114880000D02*
X116721428Y-114808571D01*
X116650000Y-114737142D01*
X116578571Y-114594285D01*
X116578571Y-114451428D01*
X117507142Y-113380000D02*
X117578571Y-113522857D01*
X117578571Y-113808571D01*
X117507142Y-113951428D01*
X117364285Y-114022857D01*
X116792857Y-114022857D01*
X116650000Y-113951428D01*
X116578571Y-113808571D01*
X116578571Y-113522857D01*
X116650000Y-113380000D01*
X116792857Y-113308571D01*
X116935714Y-113308571D01*
X117078571Y-114022857D01*
X116578571Y-112022857D02*
X117792857Y-112022857D01*
X117935714Y-112094285D01*
X118007142Y-112165714D01*
X118078571Y-112308571D01*
X118078571Y-112522857D01*
X118007142Y-112665714D01*
X117507142Y-112022857D02*
X117578571Y-112165714D01*
X117578571Y-112451428D01*
X117507142Y-112594285D01*
X117435714Y-112665714D01*
X117292857Y-112737142D01*
X116864285Y-112737142D01*
X116721428Y-112665714D01*
X116650000Y-112594285D01*
X116578571Y-112451428D01*
X116578571Y-112165714D01*
X116650000Y-112022857D01*
X117578571Y-111094285D02*
X117507142Y-111237142D01*
X117435714Y-111308571D01*
X117292857Y-111380000D01*
X116864285Y-111380000D01*
X116721428Y-111308571D01*
X116650000Y-111237142D01*
X116578571Y-111094285D01*
X116578571Y-110880000D01*
X116650000Y-110737142D01*
X116721428Y-110665714D01*
X116864285Y-110594285D01*
X117292857Y-110594285D01*
X117435714Y-110665714D01*
X117507142Y-110737142D01*
X117578571Y-110880000D01*
X117578571Y-111094285D01*
X117578571Y-109951428D02*
X116578571Y-109951428D01*
X116864285Y-109951428D02*
X116721428Y-109880000D01*
X116650000Y-109808571D01*
X116578571Y-109665714D01*
X116578571Y-109522857D01*
X116150000Y-107094285D02*
X116078571Y-107237142D01*
X116078571Y-107451428D01*
X116150000Y-107665714D01*
X116292857Y-107808571D01*
X116435714Y-107880000D01*
X116721428Y-107951428D01*
X116935714Y-107951428D01*
X117221428Y-107880000D01*
X117364285Y-107808571D01*
X117507142Y-107665714D01*
X117578571Y-107451428D01*
X117578571Y-107308571D01*
X117507142Y-107094285D01*
X117435714Y-107022857D01*
X116935714Y-107022857D01*
X116935714Y-107308571D01*
X117578571Y-106165714D02*
X117507142Y-106308571D01*
X117435714Y-106380000D01*
X117292857Y-106451428D01*
X116864285Y-106451428D01*
X116721428Y-106380000D01*
X116650000Y-106308571D01*
X116578571Y-106165714D01*
X116578571Y-105951428D01*
X116650000Y-105808571D01*
X116721428Y-105737142D01*
X116864285Y-105665714D01*
X117292857Y-105665714D01*
X117435714Y-105737142D01*
X117507142Y-105808571D01*
X117578571Y-105951428D01*
X117578571Y-106165714D01*
X117578571Y-105022857D02*
X116578571Y-105022857D01*
X116721428Y-105022857D02*
X116650000Y-104951428D01*
X116578571Y-104808571D01*
X116578571Y-104594285D01*
X116650000Y-104451428D01*
X116792857Y-104380000D01*
X117578571Y-104380000D01*
X116792857Y-104380000D02*
X116650000Y-104308571D01*
X116578571Y-104165714D01*
X116578571Y-103951428D01*
X116650000Y-103808571D01*
X116792857Y-103737142D01*
X117578571Y-103737142D01*
X117578571Y-103022857D02*
X116078571Y-103022857D01*
X116650000Y-103022857D02*
X116578571Y-102880000D01*
X116578571Y-102594285D01*
X116650000Y-102451428D01*
X116721428Y-102380000D01*
X116864285Y-102308571D01*
X117292857Y-102308571D01*
X117435714Y-102380000D01*
X117507142Y-102451428D01*
X117578571Y-102594285D01*
X117578571Y-102880000D01*
X117507142Y-103022857D01*
X117578571Y-101022857D02*
X116792857Y-101022857D01*
X116650000Y-101094285D01*
X116578571Y-101237142D01*
X116578571Y-101522857D01*
X116650000Y-101665714D01*
X117507142Y-101022857D02*
X117578571Y-101165714D01*
X117578571Y-101522857D01*
X117507142Y-101665714D01*
X117364285Y-101737142D01*
X117221428Y-101737142D01*
X117078571Y-101665714D01*
X117007142Y-101522857D01*
X117007142Y-101165714D01*
X116935714Y-101022857D01*
X117507142Y-99665714D02*
X117578571Y-99808571D01*
X117578571Y-100094285D01*
X117507142Y-100237142D01*
X117435714Y-100308571D01*
X117292857Y-100380000D01*
X116864285Y-100380000D01*
X116721428Y-100308571D01*
X116650000Y-100237142D01*
X116578571Y-100094285D01*
X116578571Y-99808571D01*
X116650000Y-99665714D01*
X116007142Y-100237142D02*
X116221428Y-99951428D01*
X116007142Y-99665714D01*
X78028571Y-112957142D02*
X77028571Y-112957142D01*
X76528571Y-112957142D02*
X76600000Y-113028571D01*
X76671428Y-112957142D01*
X76600000Y-112885714D01*
X76528571Y-112957142D01*
X76671428Y-112957142D01*
X77957142Y-112314285D02*
X78028571Y-112171428D01*
X78028571Y-111885714D01*
X77957142Y-111742857D01*
X77814285Y-111671428D01*
X77742857Y-111671428D01*
X77600000Y-111742857D01*
X77528571Y-111885714D01*
X77528571Y-112100000D01*
X77457142Y-112242857D01*
X77314285Y-112314285D01*
X77242857Y-112314285D01*
X77100000Y-112242857D01*
X77028571Y-112100000D01*
X77028571Y-111885714D01*
X77100000Y-111742857D01*
X78028571Y-110814285D02*
X77957142Y-110957142D01*
X77885714Y-111028571D01*
X77742857Y-111100000D01*
X77314285Y-111100000D01*
X77171428Y-111028571D01*
X77100000Y-110957142D01*
X77028571Y-110814285D01*
X77028571Y-110600000D01*
X77100000Y-110457142D01*
X77171428Y-110385714D01*
X77314285Y-110314285D01*
X77742857Y-110314285D01*
X77885714Y-110385714D01*
X77957142Y-110457142D01*
X78028571Y-110600000D01*
X78028571Y-110814285D01*
X77957142Y-109742857D02*
X78028571Y-109528571D01*
X78028571Y-109171428D01*
X77957142Y-109028571D01*
X77885714Y-108957142D01*
X77742857Y-108885714D01*
X77600000Y-108885714D01*
X77457142Y-108957142D01*
X77385714Y-109028571D01*
X77314285Y-109171428D01*
X77242857Y-109457142D01*
X77171428Y-109600000D01*
X77100000Y-109671428D01*
X76957142Y-109742857D01*
X76814285Y-109742857D01*
X76671428Y-109671428D01*
X76600000Y-109600000D01*
X76528571Y-109457142D01*
X76528571Y-109100000D01*
X76600000Y-108885714D01*
X78028571Y-108242857D02*
X76528571Y-108242857D01*
X76528571Y-107671428D01*
X76600000Y-107528571D01*
X76671428Y-107457142D01*
X76814285Y-107385714D01*
X77028571Y-107385714D01*
X77171428Y-107457142D01*
X77242857Y-107528571D01*
X77314285Y-107671428D01*
X77314285Y-108242857D01*
X78028571Y-106742857D02*
X76528571Y-106742857D01*
X68178571Y-144800000D02*
X66678571Y-144800000D01*
X66678571Y-144228571D01*
X66750000Y-144085714D01*
X66821428Y-144014285D01*
X66964285Y-143942857D01*
X67178571Y-143942857D01*
X67321428Y-144014285D01*
X67392857Y-144085714D01*
X67464285Y-144228571D01*
X67464285Y-144800000D01*
X66678571Y-143014285D02*
X66678571Y-142728571D01*
X66750000Y-142585714D01*
X66892857Y-142442857D01*
X67178571Y-142371428D01*
X67678571Y-142371428D01*
X67964285Y-142442857D01*
X68107142Y-142585714D01*
X68178571Y-142728571D01*
X68178571Y-143014285D01*
X68107142Y-143157142D01*
X67964285Y-143300000D01*
X67678571Y-143371428D01*
X67178571Y-143371428D01*
X66892857Y-143300000D01*
X66750000Y-143157142D01*
X66678571Y-143014285D01*
X68107142Y-141800000D02*
X68178571Y-141585714D01*
X68178571Y-141228571D01*
X68107142Y-141085714D01*
X68035714Y-141014285D01*
X67892857Y-140942857D01*
X67750000Y-140942857D01*
X67607142Y-141014285D01*
X67535714Y-141085714D01*
X67464285Y-141228571D01*
X67392857Y-141514285D01*
X67321428Y-141657142D01*
X67250000Y-141728571D01*
X67107142Y-141800000D01*
X66964285Y-141800000D01*
X66821428Y-141728571D01*
X66750000Y-141657142D01*
X66678571Y-141514285D01*
X66678571Y-141157142D01*
X66750000Y-140942857D01*
X68178571Y-140300000D02*
X66678571Y-140300000D01*
X66678571Y-139800000D02*
X66678571Y-138942857D01*
X68178571Y-139371428D02*
X66678571Y-139371428D01*
X68178571Y-138442857D02*
X66678571Y-138442857D01*
X66678571Y-137942857D02*
X68178571Y-137442857D01*
X66678571Y-136942857D01*
X67392857Y-136442857D02*
X67392857Y-135942857D01*
X68178571Y-135728571D02*
X68178571Y-136442857D01*
X66678571Y-136442857D01*
X66678571Y-135728571D01*
X233178571Y-104450000D02*
X231678571Y-104450000D01*
X233178571Y-103592857D01*
X231678571Y-103592857D01*
X232392857Y-102878571D02*
X232392857Y-102378571D01*
X233178571Y-102164285D02*
X233178571Y-102878571D01*
X231678571Y-102878571D01*
X231678571Y-102164285D01*
X231750000Y-100735714D02*
X231678571Y-100878571D01*
X231678571Y-101092857D01*
X231750000Y-101307142D01*
X231892857Y-101450000D01*
X232035714Y-101521428D01*
X232321428Y-101592857D01*
X232535714Y-101592857D01*
X232821428Y-101521428D01*
X232964285Y-101450000D01*
X233107142Y-101307142D01*
X233178571Y-101092857D01*
X233178571Y-100950000D01*
X233107142Y-100735714D01*
X233035714Y-100664285D01*
X232535714Y-100664285D01*
X232535714Y-100950000D01*
X232750000Y-100092857D02*
X232750000Y-99378571D01*
X233178571Y-100235714D02*
X231678571Y-99735714D01*
X233178571Y-99235714D01*
X231678571Y-98950000D02*
X231678571Y-98092857D01*
X233178571Y-98521428D02*
X231678571Y-98521428D01*
X233178571Y-97592857D02*
X231678571Y-97592857D01*
X231678571Y-97092857D02*
X233178571Y-96592857D01*
X231678571Y-96092857D01*
X232392857Y-95592857D02*
X232392857Y-95092857D01*
X233178571Y-94878571D02*
X233178571Y-95592857D01*
X231678571Y-95592857D01*
X231678571Y-94878571D01*
D11*
X69750000Y-132300000D02*
X72750000Y-132300000D01*
X68750000Y-147300000D02*
X68750000Y-133300000D01*
X72750000Y-148300000D02*
X69750000Y-148300000D01*
X73750000Y-133300000D02*
X73750000Y-147300000D01*
X69750000Y-148300000D02*
G75*
G02X68750000Y-147300000I0J1000000D01*
G01*
X68750000Y-133300000D02*
G75*
G02X69750000Y-132300000I1000000J0D01*
G01*
X72750000Y-132300000D02*
G75*
G02X73750000Y-133300000I0J-1000000D01*
G01*
X73750000Y-147300000D02*
G75*
G02X72750000Y-148300000I-1000000J0D01*
G01*
X250000000Y-90000000D02*
X52500000Y-90000000D01*
X250000000Y-90000000D02*
G75*
G02X252500000Y-92500000I0J-2500000D01*
G01*
X252500000Y-147500000D02*
X252500000Y-92500000D01*
X252500000Y-147500000D02*
G75*
G02X250000000Y-150000000I-2500000J0D01*
G01*
X52500000Y-150000000D02*
X250000000Y-150000000D01*
X52500000Y-150000000D02*
G75*
G02X50000000Y-147500000I0J2500000D01*
G01*
X50000000Y-92500000D02*
X50000000Y-147500000D01*
X50000000Y-92500000D02*
G75*
G02X52500000Y-90000000I2500000J0D01*
G01*
X127500000Y-92700000D02*
G75*
G02X127500000Y-106700000I0J-7000000D01*
G01*
X126000000Y-106700000D02*
X127500000Y-106700000D01*
X126000000Y-92700000D02*
X127500000Y-92700000D01*
X126000000Y-106700000D02*
G75*
G02X126000000Y-92700000I0J7000000D01*
G01*
X103750000Y-106700000D02*
X105250000Y-106700000D01*
X103750000Y-92700000D02*
X105250000Y-92700000D01*
X105250000Y-92700000D02*
G75*
G02X105250000Y-106700000I0J-7000000D01*
G01*
X103750000Y-106700000D02*
G75*
G02X103750000Y-92700000I0J7000000D01*
G01*
X196250000Y-133300000D02*
G75*
G02X196250000Y-147300000I0J-7000000D01*
G01*
X194750000Y-147300000D02*
X196250000Y-147300000D01*
X194750000Y-133300000D02*
X196250000Y-133300000D01*
X194750000Y-147300000D02*
G75*
G02X194750000Y-133300000I0J7000000D01*
G01*
X172500000Y-147300000D02*
X174000000Y-147300000D01*
X172500000Y-133300000D02*
X174000000Y-133300000D01*
X174000000Y-133300000D02*
G75*
G02X174000000Y-147300000I0J-7000000D01*
G01*
X172500000Y-147300000D02*
G75*
G02X172500000Y-133300000I0J7000000D01*
G01*
X110750000Y-121500000D02*
G75*
G02X96750000Y-121500000I-7000000J0D01*
G01*
X96750000Y-120000000D02*
G75*
G02X110750000Y-120000000I7000000J0D01*
G01*
X110750000Y-120000000D02*
X110750000Y-121500000D01*
X96750000Y-120000000D02*
X96750000Y-121500000D01*
X96750000Y-138800000D02*
G75*
G02X110750000Y-138800000I7000000J0D01*
G01*
X110750000Y-140300000D02*
G75*
G02X96750000Y-140300000I-7000000J0D01*
G01*
X110750000Y-138800000D02*
X110750000Y-140300000D01*
X96750000Y-138800000D02*
X96750000Y-140300000D01*
X65750000Y-101200000D02*
G75*
G02X51750000Y-101200000I-7000000J0D01*
G01*
X51750000Y-99700000D02*
G75*
G02X65750000Y-99700000I7000000J0D01*
G01*
X65750000Y-99700000D02*
X65750000Y-101200000D01*
X51750000Y-99700000D02*
X51750000Y-101200000D01*
X51750000Y-118500000D02*
G75*
G02X65750000Y-118500000I7000000J0D01*
G01*
X65750000Y-120000000D02*
G75*
G02X51750000Y-120000000I-7000000J0D01*
G01*
X65750000Y-118500000D02*
X65750000Y-120000000D01*
X51750000Y-118500000D02*
X51750000Y-120000000D01*
X165500000Y-118500000D02*
G75*
G02X179500000Y-118500000I7000000J0D01*
G01*
X179500000Y-120000000D02*
G75*
G02X165500000Y-120000000I-7000000J0D01*
G01*
X165500000Y-120000000D02*
X165500000Y-118500000D01*
X179500000Y-120000000D02*
X179500000Y-118500000D01*
X179500000Y-101200000D02*
G75*
G02X165500000Y-101200000I-7000000J0D01*
G01*
X165500000Y-99700000D02*
G75*
G02X179500000Y-99700000I7000000J0D01*
G01*
X165500000Y-101200000D02*
X165500000Y-99700000D01*
X179500000Y-101200000D02*
X179500000Y-99700000D01*
X120500000Y-138800000D02*
G75*
G02X134500000Y-138800000I7000000J0D01*
G01*
X134500000Y-140300000D02*
G75*
G02X120500000Y-140300000I-7000000J0D01*
G01*
X120500000Y-140300000D02*
X120500000Y-138800000D01*
X134500000Y-140300000D02*
X134500000Y-138800000D01*
X134500000Y-121500000D02*
G75*
G02X120500000Y-121500000I-7000000J0D01*
G01*
X120500000Y-120000000D02*
G75*
G02X134500000Y-120000000I7000000J0D01*
G01*
X120500000Y-121500000D02*
X120500000Y-120000000D01*
X134500000Y-121500000D02*
X134500000Y-120000000D01*
X248250000Y-121500000D02*
G75*
G02X234250000Y-121500000I-7000000J0D01*
G01*
X234250000Y-120000000D02*
G75*
G02X248250000Y-120000000I7000000J0D01*
G01*
X248250000Y-120000000D02*
X248250000Y-121500000D01*
X234250000Y-120000000D02*
X234250000Y-121500000D01*
X234250000Y-138800000D02*
G75*
G02X248250000Y-138800000I7000000J0D01*
G01*
X248250000Y-140300000D02*
G75*
G02X234250000Y-140300000I-7000000J0D01*
G01*
X248250000Y-138800000D02*
X248250000Y-140300000D01*
X234250000Y-138800000D02*
X234250000Y-140300000D01*
X203250000Y-101200000D02*
G75*
G02X189250000Y-101200000I-7000000J0D01*
G01*
X189250000Y-99700000D02*
G75*
G02X203250000Y-99700000I7000000J0D01*
G01*
X203250000Y-99700000D02*
X203250000Y-101200000D01*
X189250000Y-99700000D02*
X189250000Y-101200000D01*
X189250000Y-118500000D02*
G75*
G02X203250000Y-118500000I7000000J0D01*
G01*
X203250000Y-120000000D02*
G75*
G02X189250000Y-120000000I-7000000J0D01*
G01*
X203250000Y-118500000D02*
X203250000Y-120000000D01*
X189250000Y-118500000D02*
X189250000Y-120000000D01*
X51750000Y-138800000D02*
G75*
G02X65750000Y-138800000I7000000J0D01*
G01*
X65750000Y-138800000D02*
X65750000Y-140300000D01*
X51750000Y-138800000D02*
X51750000Y-140300000D01*
X65750000Y-140300000D02*
G75*
G02X51750000Y-140300000I-7000000J0D01*
G01*
D12*
X78670000Y-106335000D02*
X78670000Y-106220000D01*
X79170000Y-106335000D02*
X78670000Y-106335000D01*
X79170000Y-113365000D02*
X79170000Y-106335000D01*
X78670000Y-113365000D02*
X79170000Y-113365000D01*
X78670000Y-113480000D02*
X78670000Y-113365000D01*
X83260000Y-104915000D02*
X80050000Y-104915000D01*
X83260000Y-114785000D02*
X83260000Y-104915000D01*
X80050000Y-114785000D02*
X83260000Y-114785000D01*
X216170000Y-106335000D02*
X216170000Y-106220000D01*
X216670000Y-106335000D02*
X216170000Y-106335000D01*
X216670000Y-113365000D02*
X216670000Y-106335000D01*
X216170000Y-113365000D02*
X216670000Y-113365000D01*
X216170000Y-113480000D02*
X216170000Y-113365000D01*
X220760000Y-104915000D02*
X217550000Y-104915000D01*
X220760000Y-114785000D02*
X220760000Y-104915000D01*
X217550000Y-114785000D02*
X220760000Y-114785000D01*
D13*
G36*
X153820160Y-128839360D02*
X153251200Y-128839360D01*
X153251200Y-128656480D01*
X153820160Y-128656480D01*
X153820160Y-128839360D01*
X153820160Y-128839360D01*
G37*
X153820160Y-128839360D02*
X153251200Y-128839360D01*
X153251200Y-128656480D01*
X153820160Y-128656480D01*
X153820160Y-128839360D01*
G36*
X162940619Y-128210428D02*
X163020922Y-128229610D01*
X163086867Y-128262873D01*
X163139555Y-128311113D01*
X163180089Y-128375225D01*
X163198435Y-128419951D01*
X163204389Y-128437611D01*
X163209290Y-128454554D01*
X163213260Y-128472935D01*
X163216425Y-128494909D01*
X163218908Y-128522632D01*
X163220833Y-128558258D01*
X163222322Y-128603943D01*
X163223501Y-128661843D01*
X163224493Y-128734111D01*
X163225422Y-128822904D01*
X163226162Y-128902860D01*
X163229911Y-129316880D01*
X163128168Y-129316880D01*
X163124300Y-128913020D01*
X163123209Y-128809056D01*
X163122049Y-128723327D01*
X163120723Y-128653749D01*
X163119132Y-128598236D01*
X163117179Y-128554704D01*
X163114766Y-128521067D01*
X163111794Y-128495240D01*
X163108166Y-128475140D01*
X163103784Y-128458680D01*
X163102820Y-128455676D01*
X163074362Y-128395829D01*
X163033371Y-128346300D01*
X162983703Y-128311653D01*
X162979487Y-128309668D01*
X162942281Y-128298841D01*
X162892653Y-128292452D01*
X162838073Y-128290786D01*
X162786012Y-128294130D01*
X162750195Y-128300879D01*
X162709663Y-128317038D01*
X162659835Y-128344389D01*
X162605771Y-128379745D01*
X162552532Y-128419921D01*
X162527397Y-128441179D01*
X162466320Y-128495118D01*
X162466320Y-129316880D01*
X162364720Y-129316880D01*
X162364720Y-128229760D01*
X162456160Y-128229760D01*
X162456160Y-128284370D01*
X162457365Y-128322426D01*
X162460428Y-128357388D01*
X162462461Y-128370485D01*
X162468762Y-128401991D01*
X162536121Y-128345836D01*
X162626921Y-128280699D01*
X162718755Y-128235811D01*
X162811575Y-128211186D01*
X162905333Y-128206841D01*
X162940619Y-128210428D01*
X162940619Y-128210428D01*
G37*
X162940619Y-128210428D02*
X163020922Y-128229610D01*
X163086867Y-128262873D01*
X163139555Y-128311113D01*
X163180089Y-128375225D01*
X163198435Y-128419951D01*
X163204389Y-128437611D01*
X163209290Y-128454554D01*
X163213260Y-128472935D01*
X163216425Y-128494909D01*
X163218908Y-128522632D01*
X163220833Y-128558258D01*
X163222322Y-128603943D01*
X163223501Y-128661843D01*
X163224493Y-128734111D01*
X163225422Y-128822904D01*
X163226162Y-128902860D01*
X163229911Y-129316880D01*
X163128168Y-129316880D01*
X163124300Y-128913020D01*
X163123209Y-128809056D01*
X163122049Y-128723327D01*
X163120723Y-128653749D01*
X163119132Y-128598236D01*
X163117179Y-128554704D01*
X163114766Y-128521067D01*
X163111794Y-128495240D01*
X163108166Y-128475140D01*
X163103784Y-128458680D01*
X163102820Y-128455676D01*
X163074362Y-128395829D01*
X163033371Y-128346300D01*
X162983703Y-128311653D01*
X162979487Y-128309668D01*
X162942281Y-128298841D01*
X162892653Y-128292452D01*
X162838073Y-128290786D01*
X162786012Y-128294130D01*
X162750195Y-128300879D01*
X162709663Y-128317038D01*
X162659835Y-128344389D01*
X162605771Y-128379745D01*
X162552532Y-128419921D01*
X162527397Y-128441179D01*
X162466320Y-128495118D01*
X162466320Y-129316880D01*
X162364720Y-129316880D01*
X162364720Y-128229760D01*
X162456160Y-128229760D01*
X162456160Y-128284370D01*
X162457365Y-128322426D01*
X162460428Y-128357388D01*
X162462461Y-128370485D01*
X162468762Y-128401991D01*
X162536121Y-128345836D01*
X162626921Y-128280699D01*
X162718755Y-128235811D01*
X162811575Y-128211186D01*
X162905333Y-128206841D01*
X162940619Y-128210428D01*
G36*
X160921066Y-128205528D02*
X160950914Y-128214348D01*
X160967257Y-128226406D01*
X160968373Y-128236801D01*
X160961207Y-128258849D01*
X160956670Y-128275405D01*
X160952650Y-128287034D01*
X160944871Y-128293594D01*
X160928857Y-128296020D01*
X160900130Y-128295249D01*
X160870819Y-128293361D01*
X160827959Y-128291227D01*
X160797439Y-128292746D01*
X160771417Y-128299179D01*
X160742055Y-128311786D01*
X160734986Y-128315211D01*
X160679889Y-128351054D01*
X160625734Y-128402731D01*
X160576647Y-128466004D01*
X160556561Y-128498437D01*
X160525760Y-128552273D01*
X160525760Y-129316880D01*
X160424160Y-129316880D01*
X160424160Y-128229760D01*
X160463712Y-128229760D01*
X160487002Y-128231242D01*
X160502060Y-128238094D01*
X160510675Y-128253921D01*
X160514636Y-128282330D01*
X160515729Y-128326927D01*
X160515755Y-128334730D01*
X160517016Y-128382697D01*
X160521153Y-128411355D01*
X160529069Y-128421619D01*
X160541669Y-128414405D01*
X160559857Y-128390628D01*
X160564292Y-128383892D01*
X160619445Y-128313581D01*
X160682774Y-128259011D01*
X160752128Y-128221620D01*
X160825358Y-128202847D01*
X160836411Y-128201737D01*
X160881602Y-128200980D01*
X160921066Y-128205528D01*
X160921066Y-128205528D01*
G37*
X160921066Y-128205528D02*
X160950914Y-128214348D01*
X160967257Y-128226406D01*
X160968373Y-128236801D01*
X160961207Y-128258849D01*
X160956670Y-128275405D01*
X160952650Y-128287034D01*
X160944871Y-128293594D01*
X160928857Y-128296020D01*
X160900130Y-128295249D01*
X160870819Y-128293361D01*
X160827959Y-128291227D01*
X160797439Y-128292746D01*
X160771417Y-128299179D01*
X160742055Y-128311786D01*
X160734986Y-128315211D01*
X160679889Y-128351054D01*
X160625734Y-128402731D01*
X160576647Y-128466004D01*
X160556561Y-128498437D01*
X160525760Y-128552273D01*
X160525760Y-129316880D01*
X160424160Y-129316880D01*
X160424160Y-128229760D01*
X160463712Y-128229760D01*
X160487002Y-128231242D01*
X160502060Y-128238094D01*
X160510675Y-128253921D01*
X160514636Y-128282330D01*
X160515729Y-128326927D01*
X160515755Y-128334730D01*
X160517016Y-128382697D01*
X160521153Y-128411355D01*
X160529069Y-128421619D01*
X160541669Y-128414405D01*
X160559857Y-128390628D01*
X160564292Y-128383892D01*
X160619445Y-128313581D01*
X160682774Y-128259011D01*
X160752128Y-128221620D01*
X160825358Y-128202847D01*
X160836411Y-128201737D01*
X160881602Y-128200980D01*
X160921066Y-128205528D01*
G36*
X160129520Y-127904640D02*
X159621520Y-127904640D01*
X159621520Y-129316880D01*
X159509760Y-129316880D01*
X159509760Y-127904640D01*
X159001760Y-127904640D01*
X159001760Y-127823360D01*
X160129520Y-127823360D01*
X160129520Y-127904640D01*
X160129520Y-127904640D01*
G37*
X160129520Y-127904640D02*
X159621520Y-127904640D01*
X159621520Y-129316880D01*
X159509760Y-129316880D01*
X159509760Y-127904640D01*
X159001760Y-127904640D01*
X159001760Y-127823360D01*
X160129520Y-127823360D01*
X160129520Y-127904640D01*
G36*
X154798537Y-127907180D02*
X154808367Y-127935714D01*
X154823700Y-127979927D01*
X154843871Y-128037914D01*
X154868213Y-128107774D01*
X154896062Y-128187605D01*
X154926751Y-128275503D01*
X154959614Y-128369567D01*
X154993987Y-128467894D01*
X155029202Y-128568581D01*
X155064594Y-128669725D01*
X155099498Y-128769426D01*
X155133248Y-128865779D01*
X155165177Y-128956883D01*
X155194621Y-129040835D01*
X155220914Y-129115732D01*
X155243389Y-129179673D01*
X155261381Y-129230754D01*
X155274224Y-129267073D01*
X155281252Y-129286728D01*
X155282173Y-129289210D01*
X155293062Y-129317421D01*
X155144707Y-129314610D01*
X154996352Y-129311800D01*
X154938854Y-129121546D01*
X154920549Y-129062180D01*
X154903549Y-129009280D01*
X154888931Y-128966024D01*
X154877772Y-128935590D01*
X154871149Y-128921155D01*
X154870775Y-128920711D01*
X154856604Y-128917110D01*
X154822562Y-128914503D01*
X154769072Y-128912900D01*
X154696559Y-128912316D01*
X154605449Y-128912761D01*
X154597096Y-128912844D01*
X154334000Y-128915560D01*
X154273288Y-129116220D01*
X154212575Y-129316880D01*
X153932540Y-129316880D01*
X154007061Y-129100980D01*
X154025210Y-129048369D01*
X154048995Y-128979374D01*
X154077441Y-128896828D01*
X154109572Y-128803560D01*
X154144414Y-128702403D01*
X154146794Y-128695490D01*
X154402653Y-128695490D01*
X154406818Y-128699965D01*
X154418154Y-128703143D01*
X154439156Y-128705244D01*
X154472321Y-128706487D01*
X154520145Y-128707090D01*
X154585124Y-128707274D01*
X154605772Y-128707280D01*
X154813633Y-128707280D01*
X154789019Y-128628540D01*
X154779318Y-128596872D01*
X154765030Y-128549380D01*
X154747249Y-128489748D01*
X154727073Y-128421661D01*
X154705596Y-128348802D01*
X154688919Y-128291963D01*
X154668578Y-128222964D01*
X154649900Y-128160522D01*
X154633689Y-128107250D01*
X154620749Y-128065763D01*
X154611884Y-128038676D01*
X154607956Y-128028650D01*
X154603115Y-128026151D01*
X154598003Y-128030289D01*
X154591729Y-128043504D01*
X154583402Y-128068236D01*
X154572130Y-128106926D01*
X154557023Y-128162016D01*
X154550725Y-128185395D01*
X154532597Y-128251400D01*
X154510796Y-128328502D01*
X154487704Y-128408399D01*
X154465704Y-128482790D01*
X154459282Y-128504080D01*
X154442219Y-128560341D01*
X154426962Y-128610697D01*
X154414598Y-128651554D01*
X154406216Y-128679318D01*
X154403163Y-128689500D01*
X154402653Y-128695490D01*
X154146794Y-128695490D01*
X154180990Y-128596187D01*
X154218327Y-128487743D01*
X154255448Y-128379903D01*
X154262539Y-128359300D01*
X154443496Y-127833520D01*
X154773363Y-127833520D01*
X154798537Y-127907180D01*
X154798537Y-127907180D01*
G37*
X154798537Y-127907180D02*
X154808367Y-127935714D01*
X154823700Y-127979927D01*
X154843871Y-128037914D01*
X154868213Y-128107774D01*
X154896062Y-128187605D01*
X154926751Y-128275503D01*
X154959614Y-128369567D01*
X154993987Y-128467894D01*
X155029202Y-128568581D01*
X155064594Y-128669725D01*
X155099498Y-128769426D01*
X155133248Y-128865779D01*
X155165177Y-128956883D01*
X155194621Y-129040835D01*
X155220914Y-129115732D01*
X155243389Y-129179673D01*
X155261381Y-129230754D01*
X155274224Y-129267073D01*
X155281252Y-129286728D01*
X155282173Y-129289210D01*
X155293062Y-129317421D01*
X155144707Y-129314610D01*
X154996352Y-129311800D01*
X154938854Y-129121546D01*
X154920549Y-129062180D01*
X154903549Y-129009280D01*
X154888931Y-128966024D01*
X154877772Y-128935590D01*
X154871149Y-128921155D01*
X154870775Y-128920711D01*
X154856604Y-128917110D01*
X154822562Y-128914503D01*
X154769072Y-128912900D01*
X154696559Y-128912316D01*
X154605449Y-128912761D01*
X154597096Y-128912844D01*
X154334000Y-128915560D01*
X154273288Y-129116220D01*
X154212575Y-129316880D01*
X153932540Y-129316880D01*
X154007061Y-129100980D01*
X154025210Y-129048369D01*
X154048995Y-128979374D01*
X154077441Y-128896828D01*
X154109572Y-128803560D01*
X154144414Y-128702403D01*
X154146794Y-128695490D01*
X154402653Y-128695490D01*
X154406818Y-128699965D01*
X154418154Y-128703143D01*
X154439156Y-128705244D01*
X154472321Y-128706487D01*
X154520145Y-128707090D01*
X154585124Y-128707274D01*
X154605772Y-128707280D01*
X154813633Y-128707280D01*
X154789019Y-128628540D01*
X154779318Y-128596872D01*
X154765030Y-128549380D01*
X154747249Y-128489748D01*
X154727073Y-128421661D01*
X154705596Y-128348802D01*
X154688919Y-128291963D01*
X154668578Y-128222964D01*
X154649900Y-128160522D01*
X154633689Y-128107250D01*
X154620749Y-128065763D01*
X154611884Y-128038676D01*
X154607956Y-128028650D01*
X154603115Y-128026151D01*
X154598003Y-128030289D01*
X154591729Y-128043504D01*
X154583402Y-128068236D01*
X154572130Y-128106926D01*
X154557023Y-128162016D01*
X154550725Y-128185395D01*
X154532597Y-128251400D01*
X154510796Y-128328502D01*
X154487704Y-128408399D01*
X154465704Y-128482790D01*
X154459282Y-128504080D01*
X154442219Y-128560341D01*
X154426962Y-128610697D01*
X154414598Y-128651554D01*
X154406216Y-128679318D01*
X154403163Y-128689500D01*
X154402653Y-128695490D01*
X154146794Y-128695490D01*
X154180990Y-128596187D01*
X154218327Y-128487743D01*
X154255448Y-128379903D01*
X154262539Y-128359300D01*
X154443496Y-127833520D01*
X154773363Y-127833520D01*
X154798537Y-127907180D01*
G36*
X152997200Y-128046880D02*
X152326640Y-128046880D01*
X152326640Y-128432960D01*
X152895600Y-128432960D01*
X152895600Y-128646320D01*
X152326251Y-128646320D01*
X152328985Y-128872380D01*
X152331720Y-129098440D01*
X153027680Y-129103786D01*
X153027680Y-129316880D01*
X152042160Y-129316880D01*
X152042160Y-127833520D01*
X152997200Y-127833520D01*
X152997200Y-128046880D01*
X152997200Y-128046880D01*
G37*
X152997200Y-128046880D02*
X152326640Y-128046880D01*
X152326640Y-128432960D01*
X152895600Y-128432960D01*
X152895600Y-128646320D01*
X152326251Y-128646320D01*
X152328985Y-128872380D01*
X152331720Y-129098440D01*
X153027680Y-129103786D01*
X153027680Y-129316880D01*
X152042160Y-129316880D01*
X152042160Y-127833520D01*
X152997200Y-127833520D01*
X152997200Y-128046880D01*
G36*
X164918175Y-128204097D02*
X165004530Y-128222768D01*
X165086792Y-128255705D01*
X165162646Y-128302898D01*
X165229784Y-128364337D01*
X165285891Y-128440015D01*
X165306196Y-128477226D01*
X165340476Y-128566565D01*
X165361942Y-128666096D01*
X165370104Y-128769857D01*
X165364470Y-128871882D01*
X165346038Y-128961280D01*
X165307506Y-129058640D01*
X165253768Y-129143926D01*
X165186236Y-129215725D01*
X165106320Y-129272630D01*
X165015430Y-129313230D01*
X164984664Y-129322441D01*
X164932594Y-129331536D01*
X164869114Y-129335626D01*
X164802502Y-129334739D01*
X164741036Y-129328900D01*
X164704207Y-129321537D01*
X164619349Y-129289244D01*
X164540055Y-129241016D01*
X164470248Y-129180077D01*
X164413852Y-129109650D01*
X164386198Y-129060215D01*
X164349198Y-128958016D01*
X164329400Y-128848991D01*
X164327474Y-128767353D01*
X164427200Y-128767353D01*
X164435435Y-128873473D01*
X164459648Y-128970574D01*
X164499101Y-129056964D01*
X164553055Y-129130954D01*
X164608137Y-129181596D01*
X164675477Y-129220803D01*
X164752444Y-129245117D01*
X164834385Y-129254104D01*
X164916647Y-129247327D01*
X164994577Y-129224350D01*
X165006810Y-129218919D01*
X165083303Y-129172365D01*
X165146277Y-129110765D01*
X165195513Y-129034429D01*
X165230793Y-128943673D01*
X165246681Y-128873997D01*
X165256000Y-128773435D01*
X165249451Y-128677536D01*
X165228324Y-128588044D01*
X165193908Y-128506702D01*
X165147493Y-128435252D01*
X165090368Y-128375438D01*
X165023823Y-128329003D01*
X164949148Y-128297690D01*
X164867632Y-128283241D01*
X164810063Y-128283844D01*
X164726178Y-128300547D01*
X164649792Y-128334844D01*
X164582328Y-128384939D01*
X164525207Y-128449035D01*
X164479852Y-128525337D01*
X164447685Y-128612048D01*
X164430129Y-128707372D01*
X164427200Y-128767353D01*
X164327474Y-128767353D01*
X164326758Y-128737055D01*
X164341225Y-128626124D01*
X164372753Y-128520112D01*
X164393206Y-128473600D01*
X164443501Y-128392156D01*
X164505881Y-128325043D01*
X164578036Y-128272249D01*
X164657655Y-128233768D01*
X164742425Y-128209588D01*
X164830036Y-128199701D01*
X164918175Y-128204097D01*
X164918175Y-128204097D01*
G37*
X164918175Y-128204097D02*
X165004530Y-128222768D01*
X165086792Y-128255705D01*
X165162646Y-128302898D01*
X165229784Y-128364337D01*
X165285891Y-128440015D01*
X165306196Y-128477226D01*
X165340476Y-128566565D01*
X165361942Y-128666096D01*
X165370104Y-128769857D01*
X165364470Y-128871882D01*
X165346038Y-128961280D01*
X165307506Y-129058640D01*
X165253768Y-129143926D01*
X165186236Y-129215725D01*
X165106320Y-129272630D01*
X165015430Y-129313230D01*
X164984664Y-129322441D01*
X164932594Y-129331536D01*
X164869114Y-129335626D01*
X164802502Y-129334739D01*
X164741036Y-129328900D01*
X164704207Y-129321537D01*
X164619349Y-129289244D01*
X164540055Y-129241016D01*
X164470248Y-129180077D01*
X164413852Y-129109650D01*
X164386198Y-129060215D01*
X164349198Y-128958016D01*
X164329400Y-128848991D01*
X164327474Y-128767353D01*
X164427200Y-128767353D01*
X164435435Y-128873473D01*
X164459648Y-128970574D01*
X164499101Y-129056964D01*
X164553055Y-129130954D01*
X164608137Y-129181596D01*
X164675477Y-129220803D01*
X164752444Y-129245117D01*
X164834385Y-129254104D01*
X164916647Y-129247327D01*
X164994577Y-129224350D01*
X165006810Y-129218919D01*
X165083303Y-129172365D01*
X165146277Y-129110765D01*
X165195513Y-129034429D01*
X165230793Y-128943673D01*
X165246681Y-128873997D01*
X165256000Y-128773435D01*
X165249451Y-128677536D01*
X165228324Y-128588044D01*
X165193908Y-128506702D01*
X165147493Y-128435252D01*
X165090368Y-128375438D01*
X165023823Y-128329003D01*
X164949148Y-128297690D01*
X164867632Y-128283241D01*
X164810063Y-128283844D01*
X164726178Y-128300547D01*
X164649792Y-128334844D01*
X164582328Y-128384939D01*
X164525207Y-128449035D01*
X164479852Y-128525337D01*
X164447685Y-128612048D01*
X164430129Y-128707372D01*
X164427200Y-128767353D01*
X164327474Y-128767353D01*
X164326758Y-128737055D01*
X164341225Y-128626124D01*
X164372753Y-128520112D01*
X164393206Y-128473600D01*
X164443501Y-128392156D01*
X164505881Y-128325043D01*
X164578036Y-128272249D01*
X164657655Y-128233768D01*
X164742425Y-128209588D01*
X164830036Y-128199701D01*
X164918175Y-128204097D01*
G36*
X157940707Y-128178690D02*
X157943111Y-128179038D01*
X158040378Y-128202389D01*
X158125453Y-128241767D01*
X158197785Y-128296542D01*
X158256825Y-128366085D01*
X158302022Y-128449769D01*
X158332825Y-128546964D01*
X158347375Y-128640770D01*
X158349847Y-128688112D01*
X158349546Y-128737044D01*
X158347013Y-128772249D01*
X158339897Y-128829200D01*
X157581519Y-128829200D01*
X157591084Y-128872380D01*
X157618422Y-128952798D01*
X157661226Y-129020749D01*
X157717973Y-129074908D01*
X157787138Y-129113952D01*
X157867196Y-129136557D01*
X157899972Y-129140547D01*
X157986050Y-129138690D01*
X158074490Y-129120914D01*
X158157379Y-129088829D01*
X158159581Y-129087722D01*
X158187909Y-129074086D01*
X158207742Y-129065899D01*
X158213857Y-129064736D01*
X158222922Y-129078568D01*
X158237864Y-129103634D01*
X158255804Y-129134824D01*
X158273863Y-129167029D01*
X158289163Y-129195138D01*
X158298824Y-129214042D01*
X158300720Y-129218911D01*
X158291771Y-129228080D01*
X158267683Y-129241905D01*
X158232591Y-129258610D01*
X158190630Y-129276419D01*
X158145936Y-129293554D01*
X158102643Y-129308240D01*
X158073034Y-129316718D01*
X158003126Y-129329421D01*
X157923440Y-129335684D01*
X157842008Y-129335407D01*
X157766864Y-129328487D01*
X157728086Y-129321091D01*
X157628432Y-129286992D01*
X157539558Y-129236292D01*
X157462978Y-129170476D01*
X157400206Y-129091026D01*
X157352753Y-128999426D01*
X157329968Y-128930800D01*
X157318428Y-128867045D01*
X157313059Y-128792104D01*
X157313861Y-128714143D01*
X157319383Y-128656480D01*
X157567585Y-128656480D01*
X158107680Y-128656480D01*
X158107680Y-128622764D01*
X158099741Y-128561192D01*
X158077778Y-128502404D01*
X158044574Y-128450625D01*
X158002909Y-128410085D01*
X157955565Y-128385009D01*
X157950166Y-128383386D01*
X157873924Y-128371803D01*
X157798859Y-128378487D01*
X157728950Y-128402698D01*
X157680396Y-128433405D01*
X157651226Y-128464222D01*
X157621881Y-128508033D01*
X157596229Y-128557920D01*
X157578139Y-128606962D01*
X157574147Y-128623460D01*
X157567585Y-128656480D01*
X157319383Y-128656480D01*
X157320835Y-128641327D01*
X157329978Y-128595520D01*
X157366058Y-128495394D01*
X157417456Y-128406398D01*
X157482265Y-128329827D01*
X157558577Y-128266975D01*
X157644485Y-128219141D01*
X157738081Y-128187618D01*
X157837458Y-128173702D01*
X157940707Y-128178690D01*
X157940707Y-128178690D01*
G37*
X157940707Y-128178690D02*
X157943111Y-128179038D01*
X158040378Y-128202389D01*
X158125453Y-128241767D01*
X158197785Y-128296542D01*
X158256825Y-128366085D01*
X158302022Y-128449769D01*
X158332825Y-128546964D01*
X158347375Y-128640770D01*
X158349847Y-128688112D01*
X158349546Y-128737044D01*
X158347013Y-128772249D01*
X158339897Y-128829200D01*
X157581519Y-128829200D01*
X157591084Y-128872380D01*
X157618422Y-128952798D01*
X157661226Y-129020749D01*
X157717973Y-129074908D01*
X157787138Y-129113952D01*
X157867196Y-129136557D01*
X157899972Y-129140547D01*
X157986050Y-129138690D01*
X158074490Y-129120914D01*
X158157379Y-129088829D01*
X158159581Y-129087722D01*
X158187909Y-129074086D01*
X158207742Y-129065899D01*
X158213857Y-129064736D01*
X158222922Y-129078568D01*
X158237864Y-129103634D01*
X158255804Y-129134824D01*
X158273863Y-129167029D01*
X158289163Y-129195138D01*
X158298824Y-129214042D01*
X158300720Y-129218911D01*
X158291771Y-129228080D01*
X158267683Y-129241905D01*
X158232591Y-129258610D01*
X158190630Y-129276419D01*
X158145936Y-129293554D01*
X158102643Y-129308240D01*
X158073034Y-129316718D01*
X158003126Y-129329421D01*
X157923440Y-129335684D01*
X157842008Y-129335407D01*
X157766864Y-129328487D01*
X157728086Y-129321091D01*
X157628432Y-129286992D01*
X157539558Y-129236292D01*
X157462978Y-129170476D01*
X157400206Y-129091026D01*
X157352753Y-128999426D01*
X157329968Y-128930800D01*
X157318428Y-128867045D01*
X157313059Y-128792104D01*
X157313861Y-128714143D01*
X157319383Y-128656480D01*
X157567585Y-128656480D01*
X158107680Y-128656480D01*
X158107680Y-128622764D01*
X158099741Y-128561192D01*
X158077778Y-128502404D01*
X158044574Y-128450625D01*
X158002909Y-128410085D01*
X157955565Y-128385009D01*
X157950166Y-128383386D01*
X157873924Y-128371803D01*
X157798859Y-128378487D01*
X157728950Y-128402698D01*
X157680396Y-128433405D01*
X157651226Y-128464222D01*
X157621881Y-128508033D01*
X157596229Y-128557920D01*
X157578139Y-128606962D01*
X157574147Y-128623460D01*
X157567585Y-128656480D01*
X157319383Y-128656480D01*
X157320835Y-128641327D01*
X157329978Y-128595520D01*
X157366058Y-128495394D01*
X157417456Y-128406398D01*
X157482265Y-128329827D01*
X157558577Y-128266975D01*
X157644485Y-128219141D01*
X157738081Y-128187618D01*
X157837458Y-128173702D01*
X157940707Y-128178690D01*
G36*
X163787120Y-128229760D02*
X164122400Y-128229760D01*
X164122400Y-128311040D01*
X163786263Y-128311040D01*
X163789231Y-128725060D01*
X163790007Y-128827902D01*
X163790791Y-128912426D01*
X163791688Y-128980633D01*
X163792805Y-129034523D01*
X163794247Y-129076098D01*
X163796122Y-129107359D01*
X163798534Y-129130307D01*
X163801590Y-129146944D01*
X163805397Y-129159270D01*
X163810060Y-129169286D01*
X163813069Y-129174605D01*
X163850675Y-129220221D01*
X163899803Y-129249465D01*
X163959566Y-129262060D01*
X164029080Y-129257726D01*
X164057826Y-129251593D01*
X164091692Y-129243565D01*
X164116571Y-129238573D01*
X164127197Y-129237670D01*
X164127234Y-129237709D01*
X164134961Y-129254017D01*
X164141518Y-129277439D01*
X164145025Y-129299375D01*
X164143598Y-129311228D01*
X164143365Y-129311401D01*
X164122889Y-129319251D01*
X164088667Y-129327854D01*
X164047175Y-129336006D01*
X164004891Y-129342499D01*
X163968294Y-129346129D01*
X163954760Y-129346502D01*
X163911884Y-129342796D01*
X163867019Y-129334232D01*
X163855266Y-129330978D01*
X163800565Y-129304091D01*
X163753839Y-129261474D01*
X163719245Y-129207353D01*
X163709534Y-129182819D01*
X163704991Y-129166908D01*
X163701219Y-129147926D01*
X163698121Y-129123800D01*
X163695601Y-129092453D01*
X163693561Y-129051811D01*
X163691906Y-128999799D01*
X163690537Y-128934342D01*
X163689358Y-128853364D01*
X163688273Y-128754792D01*
X163687937Y-128719980D01*
X163684086Y-128311040D01*
X163502640Y-128311040D01*
X163502640Y-128242540D01*
X163592944Y-128235476D01*
X163683249Y-128228412D01*
X163689464Y-128197336D01*
X163692060Y-128174276D01*
X163694124Y-128136757D01*
X163695397Y-128090634D01*
X163695680Y-128056600D01*
X163696229Y-128010036D01*
X163697716Y-127970050D01*
X163699894Y-127941629D01*
X163701847Y-127930870D01*
X163716794Y-127918583D01*
X163747567Y-127914800D01*
X163787120Y-127914800D01*
X163787120Y-128229760D01*
X163787120Y-128229760D01*
G37*
X163787120Y-128229760D02*
X164122400Y-128229760D01*
X164122400Y-128311040D01*
X163786263Y-128311040D01*
X163789231Y-128725060D01*
X163790007Y-128827902D01*
X163790791Y-128912426D01*
X163791688Y-128980633D01*
X163792805Y-129034523D01*
X163794247Y-129076098D01*
X163796122Y-129107359D01*
X163798534Y-129130307D01*
X163801590Y-129146944D01*
X163805397Y-129159270D01*
X163810060Y-129169286D01*
X163813069Y-129174605D01*
X163850675Y-129220221D01*
X163899803Y-129249465D01*
X163959566Y-129262060D01*
X164029080Y-129257726D01*
X164057826Y-129251593D01*
X164091692Y-129243565D01*
X164116571Y-129238573D01*
X164127197Y-129237670D01*
X164127234Y-129237709D01*
X164134961Y-129254017D01*
X164141518Y-129277439D01*
X164145025Y-129299375D01*
X164143598Y-129311228D01*
X164143365Y-129311401D01*
X164122889Y-129319251D01*
X164088667Y-129327854D01*
X164047175Y-129336006D01*
X164004891Y-129342499D01*
X163968294Y-129346129D01*
X163954760Y-129346502D01*
X163911884Y-129342796D01*
X163867019Y-129334232D01*
X163855266Y-129330978D01*
X163800565Y-129304091D01*
X163753839Y-129261474D01*
X163719245Y-129207353D01*
X163709534Y-129182819D01*
X163704991Y-129166908D01*
X163701219Y-129147926D01*
X163698121Y-129123800D01*
X163695601Y-129092453D01*
X163693561Y-129051811D01*
X163691906Y-128999799D01*
X163690537Y-128934342D01*
X163689358Y-128853364D01*
X163688273Y-128754792D01*
X163687937Y-128719980D01*
X163684086Y-128311040D01*
X163502640Y-128311040D01*
X163502640Y-128242540D01*
X163592944Y-128235476D01*
X163683249Y-128228412D01*
X163689464Y-128197336D01*
X163692060Y-128174276D01*
X163694124Y-128136757D01*
X163695397Y-128090634D01*
X163695680Y-128056600D01*
X163696229Y-128010036D01*
X163697716Y-127970050D01*
X163699894Y-127941629D01*
X163701847Y-127930870D01*
X163716794Y-127918583D01*
X163747567Y-127914800D01*
X163787120Y-127914800D01*
X163787120Y-128229760D01*
G36*
X161664323Y-128204861D02*
X161700738Y-128206213D01*
X161728470Y-128210006D01*
X161753335Y-128217370D01*
X161781152Y-128229438D01*
X161808438Y-128242743D01*
X161884682Y-128290708D01*
X161945486Y-128351758D01*
X161991154Y-128426269D01*
X162019116Y-128503473D01*
X162027669Y-128543562D01*
X162035022Y-128593042D01*
X162040547Y-128645370D01*
X162043616Y-128694003D01*
X162043603Y-128732399D01*
X162042317Y-128745267D01*
X162036941Y-128778400D01*
X161206480Y-128778400D01*
X161206480Y-128828129D01*
X161212312Y-128883004D01*
X161228124Y-128945876D01*
X161251382Y-129008730D01*
X161279555Y-129063549D01*
X161282106Y-129067597D01*
X161339016Y-129138561D01*
X161407566Y-129194114D01*
X161485562Y-129233730D01*
X161570809Y-129256881D01*
X161661113Y-129263040D01*
X161754281Y-129251681D01*
X161848117Y-129222277D01*
X161875554Y-129210103D01*
X161910557Y-129193693D01*
X161937790Y-129181310D01*
X161952666Y-129175025D01*
X161954033Y-129174640D01*
X161960664Y-129182594D01*
X161971382Y-129201152D01*
X161982005Y-129222353D01*
X161988353Y-129238238D01*
X161988800Y-129240836D01*
X161980234Y-129247650D01*
X161957417Y-129260362D01*
X161924670Y-129276625D01*
X161911928Y-129282599D01*
X161809876Y-129320035D01*
X161703571Y-129341045D01*
X161597779Y-129344986D01*
X161518509Y-129335762D01*
X161425294Y-129307962D01*
X161340899Y-129262983D01*
X161266866Y-129202617D01*
X161204733Y-129128654D01*
X161156042Y-129042887D01*
X161122333Y-128947107D01*
X161106319Y-128856299D01*
X161103083Y-128740323D01*
X161107142Y-128707280D01*
X161204218Y-128707280D01*
X161960687Y-128707280D01*
X161953346Y-128638700D01*
X161935697Y-128541024D01*
X161905458Y-128458170D01*
X161863006Y-128390649D01*
X161808718Y-128338970D01*
X161742972Y-128303643D01*
X161695798Y-128290005D01*
X161608786Y-128281469D01*
X161526064Y-128291828D01*
X161449222Y-128319838D01*
X161379854Y-128364254D01*
X161319550Y-128423831D01*
X161269903Y-128497325D01*
X161232503Y-128583490D01*
X161210922Y-128669180D01*
X161204218Y-128707280D01*
X161107142Y-128707280D01*
X161116539Y-128630784D01*
X161146006Y-128529495D01*
X161190804Y-128438267D01*
X161250253Y-128358913D01*
X161315448Y-128299352D01*
X161371954Y-128260182D01*
X161424747Y-128233050D01*
X161479835Y-128216047D01*
X161543227Y-128207268D01*
X161613406Y-128204818D01*
X161664323Y-128204861D01*
X161664323Y-128204861D01*
G37*
X161664323Y-128204861D02*
X161700738Y-128206213D01*
X161728470Y-128210006D01*
X161753335Y-128217370D01*
X161781152Y-128229438D01*
X161808438Y-128242743D01*
X161884682Y-128290708D01*
X161945486Y-128351758D01*
X161991154Y-128426269D01*
X162019116Y-128503473D01*
X162027669Y-128543562D01*
X162035022Y-128593042D01*
X162040547Y-128645370D01*
X162043616Y-128694003D01*
X162043603Y-128732399D01*
X162042317Y-128745267D01*
X162036941Y-128778400D01*
X161206480Y-128778400D01*
X161206480Y-128828129D01*
X161212312Y-128883004D01*
X161228124Y-128945876D01*
X161251382Y-129008730D01*
X161279555Y-129063549D01*
X161282106Y-129067597D01*
X161339016Y-129138561D01*
X161407566Y-129194114D01*
X161485562Y-129233730D01*
X161570809Y-129256881D01*
X161661113Y-129263040D01*
X161754281Y-129251681D01*
X161848117Y-129222277D01*
X161875554Y-129210103D01*
X161910557Y-129193693D01*
X161937790Y-129181310D01*
X161952666Y-129175025D01*
X161954033Y-129174640D01*
X161960664Y-129182594D01*
X161971382Y-129201152D01*
X161982005Y-129222353D01*
X161988353Y-129238238D01*
X161988800Y-129240836D01*
X161980234Y-129247650D01*
X161957417Y-129260362D01*
X161924670Y-129276625D01*
X161911928Y-129282599D01*
X161809876Y-129320035D01*
X161703571Y-129341045D01*
X161597779Y-129344986D01*
X161518509Y-129335762D01*
X161425294Y-129307962D01*
X161340899Y-129262983D01*
X161266866Y-129202617D01*
X161204733Y-129128654D01*
X161156042Y-129042887D01*
X161122333Y-128947107D01*
X161106319Y-128856299D01*
X161103083Y-128740323D01*
X161107142Y-128707280D01*
X161204218Y-128707280D01*
X161960687Y-128707280D01*
X161953346Y-128638700D01*
X161935697Y-128541024D01*
X161905458Y-128458170D01*
X161863006Y-128390649D01*
X161808718Y-128338970D01*
X161742972Y-128303643D01*
X161695798Y-128290005D01*
X161608786Y-128281469D01*
X161526064Y-128291828D01*
X161449222Y-128319838D01*
X161379854Y-128364254D01*
X161319550Y-128423831D01*
X161269903Y-128497325D01*
X161232503Y-128583490D01*
X161210922Y-128669180D01*
X161204218Y-128707280D01*
X161107142Y-128707280D01*
X161116539Y-128630784D01*
X161146006Y-128529495D01*
X161190804Y-128438267D01*
X161250253Y-128358913D01*
X161315448Y-128299352D01*
X161371954Y-128260182D01*
X161424747Y-128233050D01*
X161479835Y-128216047D01*
X161543227Y-128207268D01*
X161613406Y-128204818D01*
X161664323Y-128204861D01*
G36*
X157002442Y-128401419D02*
X157003025Y-128536734D01*
X157003595Y-128653196D01*
X157004197Y-128752271D01*
X157004876Y-128835427D01*
X157005679Y-128904129D01*
X157006652Y-128959846D01*
X157007840Y-129004043D01*
X157009289Y-129038188D01*
X157011046Y-129063746D01*
X157013155Y-129082186D01*
X157015663Y-129094973D01*
X157018616Y-129103574D01*
X157022059Y-129109456D01*
X157024674Y-129112619D01*
X157053128Y-129130323D01*
X157076258Y-129134000D01*
X157093659Y-129134940D01*
X157104374Y-129140760D01*
X157111432Y-129155961D01*
X157117862Y-129185043D01*
X157120634Y-129199923D01*
X157127974Y-129239371D01*
X157134723Y-129275000D01*
X157138687Y-129295375D01*
X157140935Y-129312786D01*
X157135815Y-129323025D01*
X157118899Y-129329974D01*
X157092236Y-129336131D01*
X157007300Y-129346375D01*
X156928551Y-129338715D01*
X156888480Y-129327488D01*
X156831534Y-129299036D01*
X156799413Y-129270055D01*
X156787677Y-129256403D01*
X156777489Y-129243372D01*
X156768738Y-129229496D01*
X156761316Y-129213308D01*
X156755113Y-129193342D01*
X156750021Y-129168131D01*
X156745928Y-129136209D01*
X156742727Y-129096109D01*
X156740307Y-129046366D01*
X156738560Y-128985512D01*
X156737375Y-128912081D01*
X156736644Y-128824607D01*
X156736258Y-128721623D01*
X156736106Y-128601664D01*
X156736079Y-128463262D01*
X156736080Y-128420955D01*
X156736080Y-127711600D01*
X156999564Y-127711600D01*
X157002442Y-128401419D01*
X157002442Y-128401419D01*
G37*
X157002442Y-128401419D02*
X157003025Y-128536734D01*
X157003595Y-128653196D01*
X157004197Y-128752271D01*
X157004876Y-128835427D01*
X157005679Y-128904129D01*
X157006652Y-128959846D01*
X157007840Y-129004043D01*
X157009289Y-129038188D01*
X157011046Y-129063746D01*
X157013155Y-129082186D01*
X157015663Y-129094973D01*
X157018616Y-129103574D01*
X157022059Y-129109456D01*
X157024674Y-129112619D01*
X157053128Y-129130323D01*
X157076258Y-129134000D01*
X157093659Y-129134940D01*
X157104374Y-129140760D01*
X157111432Y-129155961D01*
X157117862Y-129185043D01*
X157120634Y-129199923D01*
X157127974Y-129239371D01*
X157134723Y-129275000D01*
X157138687Y-129295375D01*
X157140935Y-129312786D01*
X157135815Y-129323025D01*
X157118899Y-129329974D01*
X157092236Y-129336131D01*
X157007300Y-129346375D01*
X156928551Y-129338715D01*
X156888480Y-129327488D01*
X156831534Y-129299036D01*
X156799413Y-129270055D01*
X156787677Y-129256403D01*
X156777489Y-129243372D01*
X156768738Y-129229496D01*
X156761316Y-129213308D01*
X156755113Y-129193342D01*
X156750021Y-129168131D01*
X156745928Y-129136209D01*
X156742727Y-129096109D01*
X156740307Y-129046366D01*
X156738560Y-128985512D01*
X156737375Y-128912081D01*
X156736644Y-128824607D01*
X156736258Y-128721623D01*
X156736106Y-128601664D01*
X156736079Y-128463262D01*
X156736080Y-128420955D01*
X156736080Y-127711600D01*
X156999564Y-127711600D01*
X157002442Y-128401419D01*
G36*
X155915589Y-128183299D02*
X155943614Y-128185251D01*
X155988280Y-128187438D01*
X156045910Y-128189722D01*
X156112828Y-128191967D01*
X156185357Y-128194034D01*
X156235700Y-128195262D01*
X156492240Y-128201073D01*
X156492240Y-128392320D01*
X156384713Y-128392320D01*
X156341231Y-128392985D01*
X156306936Y-128394786D01*
X156285811Y-128397430D01*
X156281060Y-128399940D01*
X156306083Y-128449912D01*
X156323023Y-128487166D01*
X156333269Y-128516960D01*
X156338214Y-128544553D01*
X156339248Y-128575202D01*
X156337761Y-128614165D01*
X156337755Y-128614284D01*
X156328435Y-128689904D01*
X156307554Y-128752436D01*
X156272929Y-128806820D01*
X156235079Y-128846666D01*
X156175062Y-128893383D01*
X156108702Y-128926846D01*
X156048455Y-128946088D01*
X155994966Y-128955696D01*
X155932529Y-128960297D01*
X155868798Y-128959865D01*
X155811428Y-128954372D01*
X155777627Y-128947050D01*
X155748862Y-128939102D01*
X155731757Y-128938721D01*
X155718546Y-128947528D01*
X155705753Y-128962046D01*
X155679891Y-129004729D01*
X155672997Y-129046510D01*
X155684595Y-129084580D01*
X155714207Y-129116128D01*
X155733906Y-129127755D01*
X155749131Y-129134016D01*
X155768091Y-129139031D01*
X155793530Y-129143060D01*
X155828197Y-129146362D01*
X155874837Y-129149196D01*
X155936198Y-129151822D01*
X156015026Y-129154498D01*
X156018386Y-129154603D01*
X156093804Y-129157436D01*
X156162483Y-129160911D01*
X156221344Y-129164813D01*
X156267309Y-129168926D01*
X156297301Y-129173033D01*
X156304280Y-129174669D01*
X156379010Y-129204809D01*
X156436085Y-129244676D01*
X156476024Y-129294908D01*
X156499346Y-129356147D01*
X156506581Y-129423922D01*
X156497348Y-129500652D01*
X156469299Y-129570782D01*
X156423026Y-129633727D01*
X156359121Y-129688905D01*
X156278177Y-129735732D01*
X156180785Y-129773623D01*
X156139646Y-129785542D01*
X156085252Y-129796373D01*
X156017312Y-129804488D01*
X155941665Y-129809695D01*
X155864152Y-129811806D01*
X155790613Y-129810629D01*
X155726887Y-129805974D01*
X155689600Y-129800203D01*
X155593831Y-129773486D01*
X155515929Y-129737470D01*
X155455976Y-129692218D01*
X155414052Y-129637789D01*
X155390238Y-129574247D01*
X155389863Y-129572482D01*
X155387203Y-129511694D01*
X155393735Y-129486671D01*
X155618480Y-129486671D01*
X155627914Y-129533511D01*
X155655989Y-129572768D01*
X155702363Y-129604112D01*
X155762199Y-129626028D01*
X155811020Y-129634990D01*
X155871467Y-129639985D01*
X155936580Y-129641018D01*
X155999401Y-129638090D01*
X156052968Y-129631205D01*
X156075394Y-129625903D01*
X156138541Y-129601183D01*
X156188616Y-129569482D01*
X156224322Y-129532789D01*
X156244367Y-129493093D01*
X156247456Y-129452384D01*
X156232294Y-129412651D01*
X156222642Y-129399588D01*
X156206938Y-129384345D01*
X156186733Y-129372275D01*
X156159550Y-129362957D01*
X156122910Y-129355968D01*
X156074337Y-129350887D01*
X156011352Y-129347293D01*
X155931480Y-129344764D01*
X155895919Y-129343990D01*
X155700919Y-129340116D01*
X155671078Y-129371678D01*
X155640430Y-129408790D01*
X155624010Y-129442702D01*
X155618554Y-129480551D01*
X155618480Y-129486671D01*
X155393735Y-129486671D01*
X155403168Y-129450544D01*
X155436346Y-129392034D01*
X155485321Y-129339167D01*
X155508402Y-129320725D01*
X155559388Y-129283297D01*
X155527692Y-129258492D01*
X155488063Y-129215070D01*
X155462393Y-129159695D01*
X155452728Y-129096877D01*
X155452702Y-129093360D01*
X155461495Y-129029386D01*
X155488515Y-128971944D01*
X155534719Y-128919019D01*
X155536464Y-128917433D01*
X155559286Y-128895957D01*
X155574313Y-128880173D01*
X155577840Y-128874920D01*
X155570935Y-128865825D01*
X155553186Y-128847926D01*
X155537298Y-128833160D01*
X155488259Y-128775749D01*
X155453354Y-128707233D01*
X155433071Y-128631566D01*
X155429103Y-128571050D01*
X155681064Y-128571050D01*
X155685369Y-128632156D01*
X155690265Y-128653776D01*
X155710795Y-128698567D01*
X155744122Y-128741615D01*
X155784444Y-128776644D01*
X155821784Y-128796082D01*
X155872201Y-128804289D01*
X155928401Y-128799866D01*
X155981119Y-128783835D01*
X155994646Y-128777040D01*
X156040854Y-128740127D01*
X156074655Y-128690892D01*
X156095402Y-128633584D01*
X156102446Y-128572454D01*
X156095140Y-128511752D01*
X156072836Y-128455726D01*
X156048706Y-128422396D01*
X156001467Y-128383495D01*
X155947055Y-128360332D01*
X155889314Y-128352512D01*
X155832088Y-128359642D01*
X155779220Y-128381329D01*
X155734554Y-128417178D01*
X155706446Y-128457443D01*
X155688333Y-128509861D01*
X155681064Y-128571050D01*
X155429103Y-128571050D01*
X155427899Y-128552698D01*
X155438325Y-128474581D01*
X155464838Y-128401167D01*
X155480514Y-128373275D01*
X155530032Y-128312904D01*
X155594621Y-128261993D01*
X155670614Y-128222143D01*
X155754344Y-128194957D01*
X155842144Y-128182034D01*
X155915589Y-128183299D01*
X155915589Y-128183299D01*
G37*
X155915589Y-128183299D02*
X155943614Y-128185251D01*
X155988280Y-128187438D01*
X156045910Y-128189722D01*
X156112828Y-128191967D01*
X156185357Y-128194034D01*
X156235700Y-128195262D01*
X156492240Y-128201073D01*
X156492240Y-128392320D01*
X156384713Y-128392320D01*
X156341231Y-128392985D01*
X156306936Y-128394786D01*
X156285811Y-128397430D01*
X156281060Y-128399940D01*
X156306083Y-128449912D01*
X156323023Y-128487166D01*
X156333269Y-128516960D01*
X156338214Y-128544553D01*
X156339248Y-128575202D01*
X156337761Y-128614165D01*
X156337755Y-128614284D01*
X156328435Y-128689904D01*
X156307554Y-128752436D01*
X156272929Y-128806820D01*
X156235079Y-128846666D01*
X156175062Y-128893383D01*
X156108702Y-128926846D01*
X156048455Y-128946088D01*
X155994966Y-128955696D01*
X155932529Y-128960297D01*
X155868798Y-128959865D01*
X155811428Y-128954372D01*
X155777627Y-128947050D01*
X155748862Y-128939102D01*
X155731757Y-128938721D01*
X155718546Y-128947528D01*
X155705753Y-128962046D01*
X155679891Y-129004729D01*
X155672997Y-129046510D01*
X155684595Y-129084580D01*
X155714207Y-129116128D01*
X155733906Y-129127755D01*
X155749131Y-129134016D01*
X155768091Y-129139031D01*
X155793530Y-129143060D01*
X155828197Y-129146362D01*
X155874837Y-129149196D01*
X155936198Y-129151822D01*
X156015026Y-129154498D01*
X156018386Y-129154603D01*
X156093804Y-129157436D01*
X156162483Y-129160911D01*
X156221344Y-129164813D01*
X156267309Y-129168926D01*
X156297301Y-129173033D01*
X156304280Y-129174669D01*
X156379010Y-129204809D01*
X156436085Y-129244676D01*
X156476024Y-129294908D01*
X156499346Y-129356147D01*
X156506581Y-129423922D01*
X156497348Y-129500652D01*
X156469299Y-129570782D01*
X156423026Y-129633727D01*
X156359121Y-129688905D01*
X156278177Y-129735732D01*
X156180785Y-129773623D01*
X156139646Y-129785542D01*
X156085252Y-129796373D01*
X156017312Y-129804488D01*
X155941665Y-129809695D01*
X155864152Y-129811806D01*
X155790613Y-129810629D01*
X155726887Y-129805974D01*
X155689600Y-129800203D01*
X155593831Y-129773486D01*
X155515929Y-129737470D01*
X155455976Y-129692218D01*
X155414052Y-129637789D01*
X155390238Y-129574247D01*
X155389863Y-129572482D01*
X155387203Y-129511694D01*
X155393735Y-129486671D01*
X155618480Y-129486671D01*
X155627914Y-129533511D01*
X155655989Y-129572768D01*
X155702363Y-129604112D01*
X155762199Y-129626028D01*
X155811020Y-129634990D01*
X155871467Y-129639985D01*
X155936580Y-129641018D01*
X155999401Y-129638090D01*
X156052968Y-129631205D01*
X156075394Y-129625903D01*
X156138541Y-129601183D01*
X156188616Y-129569482D01*
X156224322Y-129532789D01*
X156244367Y-129493093D01*
X156247456Y-129452384D01*
X156232294Y-129412651D01*
X156222642Y-129399588D01*
X156206938Y-129384345D01*
X156186733Y-129372275D01*
X156159550Y-129362957D01*
X156122910Y-129355968D01*
X156074337Y-129350887D01*
X156011352Y-129347293D01*
X155931480Y-129344764D01*
X155895919Y-129343990D01*
X155700919Y-129340116D01*
X155671078Y-129371678D01*
X155640430Y-129408790D01*
X155624010Y-129442702D01*
X155618554Y-129480551D01*
X155618480Y-129486671D01*
X155393735Y-129486671D01*
X155403168Y-129450544D01*
X155436346Y-129392034D01*
X155485321Y-129339167D01*
X155508402Y-129320725D01*
X155559388Y-129283297D01*
X155527692Y-129258492D01*
X155488063Y-129215070D01*
X155462393Y-129159695D01*
X155452728Y-129096877D01*
X155452702Y-129093360D01*
X155461495Y-129029386D01*
X155488515Y-128971944D01*
X155534719Y-128919019D01*
X155536464Y-128917433D01*
X155559286Y-128895957D01*
X155574313Y-128880173D01*
X155577840Y-128874920D01*
X155570935Y-128865825D01*
X155553186Y-128847926D01*
X155537298Y-128833160D01*
X155488259Y-128775749D01*
X155453354Y-128707233D01*
X155433071Y-128631566D01*
X155429103Y-128571050D01*
X155681064Y-128571050D01*
X155685369Y-128632156D01*
X155690265Y-128653776D01*
X155710795Y-128698567D01*
X155744122Y-128741615D01*
X155784444Y-128776644D01*
X155821784Y-128796082D01*
X155872201Y-128804289D01*
X155928401Y-128799866D01*
X155981119Y-128783835D01*
X155994646Y-128777040D01*
X156040854Y-128740127D01*
X156074655Y-128690892D01*
X156095402Y-128633584D01*
X156102446Y-128572454D01*
X156095140Y-128511752D01*
X156072836Y-128455726D01*
X156048706Y-128422396D01*
X156001467Y-128383495D01*
X155947055Y-128360332D01*
X155889314Y-128352512D01*
X155832088Y-128359642D01*
X155779220Y-128381329D01*
X155734554Y-128417178D01*
X155706446Y-128457443D01*
X155688333Y-128509861D01*
X155681064Y-128571050D01*
X155429103Y-128571050D01*
X155427899Y-128552698D01*
X155438325Y-128474581D01*
X155464838Y-128401167D01*
X155480514Y-128373275D01*
X155530032Y-128312904D01*
X155594621Y-128261993D01*
X155670614Y-128222143D01*
X155754344Y-128194957D01*
X155842144Y-128182034D01*
X155915589Y-128183299D01*
G36*
X155769252Y-130538298D02*
X155799172Y-130559659D01*
X155814038Y-130594282D01*
X155815584Y-130613370D01*
X155806918Y-130650491D01*
X155784101Y-130678248D01*
X155751898Y-130694694D01*
X155715077Y-130697881D01*
X155678404Y-130685860D01*
X155663750Y-130675430D01*
X155643630Y-130651107D01*
X155636896Y-130620053D01*
X155636768Y-130613228D01*
X155644241Y-130572462D01*
X155666624Y-130545494D01*
X155703863Y-130532373D01*
X155725160Y-130531000D01*
X155769252Y-130538298D01*
X155769252Y-130538298D01*
G37*
X155769252Y-130538298D02*
X155799172Y-130559659D01*
X155814038Y-130594282D01*
X155815584Y-130613370D01*
X155806918Y-130650491D01*
X155784101Y-130678248D01*
X155751898Y-130694694D01*
X155715077Y-130697881D01*
X155678404Y-130685860D01*
X155663750Y-130675430D01*
X155643630Y-130651107D01*
X155636896Y-130620053D01*
X155636768Y-130613228D01*
X155644241Y-130572462D01*
X155666624Y-130545494D01*
X155703863Y-130532373D01*
X155725160Y-130531000D01*
X155769252Y-130538298D01*
G36*
X148015413Y-131331946D02*
X148016629Y-131344004D01*
X148015413Y-131345493D01*
X148009373Y-131344098D01*
X148008640Y-131338720D01*
X148012357Y-131330357D01*
X148015413Y-131331946D01*
X148015413Y-131331946D01*
G37*
X148015413Y-131331946D02*
X148016629Y-131344004D01*
X148015413Y-131345493D01*
X148009373Y-131344098D01*
X148008640Y-131338720D01*
X148012357Y-131330357D01*
X148015413Y-131331946D01*
G36*
X164088866Y-130952247D02*
X164163354Y-130970275D01*
X164221946Y-130996835D01*
X164268109Y-131034309D01*
X164305314Y-131085082D01*
X164318698Y-131110120D01*
X164330107Y-131134635D01*
X164339544Y-131159065D01*
X164347194Y-131185563D01*
X164353240Y-131216284D01*
X164357869Y-131253382D01*
X164361265Y-131299011D01*
X164363612Y-131355324D01*
X164365096Y-131424477D01*
X164365901Y-131508623D01*
X164366211Y-131609916D01*
X164366240Y-131664340D01*
X164366240Y-132060080D01*
X164264640Y-132060080D01*
X164264640Y-131671054D01*
X164264469Y-131560097D01*
X164263811Y-131467385D01*
X164262443Y-131390844D01*
X164260145Y-131328403D01*
X164256694Y-131277988D01*
X164251871Y-131237526D01*
X164245454Y-131204944D01*
X164237222Y-131178168D01*
X164226953Y-131155126D01*
X164214426Y-131133744D01*
X164205967Y-131121184D01*
X164174338Y-131084469D01*
X164136999Y-131059708D01*
X164089862Y-131045224D01*
X164028838Y-131039340D01*
X164005560Y-131039000D01*
X163959907Y-131039618D01*
X163927366Y-131042541D01*
X163900741Y-131049371D01*
X163872836Y-131061710D01*
X163850439Y-131073531D01*
X163811247Y-131097894D01*
X163766677Y-131130270D01*
X163725585Y-131164174D01*
X163720899Y-131168411D01*
X163655040Y-131228760D01*
X163655040Y-132060080D01*
X163555229Y-132060080D01*
X163551013Y-131656220D01*
X163549792Y-131547851D01*
X163548432Y-131457687D01*
X163546687Y-131383613D01*
X163544312Y-131323513D01*
X163541061Y-131275271D01*
X163536689Y-131236774D01*
X163530949Y-131205905D01*
X163523597Y-131180549D01*
X163514386Y-131158592D01*
X163503070Y-131137917D01*
X163489405Y-131116411D01*
X163488086Y-131114414D01*
X163452707Y-131073910D01*
X163407844Y-131047074D01*
X163350579Y-131032622D01*
X163294211Y-131029115D01*
X163249001Y-131030049D01*
X163215079Y-131034533D01*
X163183472Y-131044549D01*
X163145523Y-131061919D01*
X163103950Y-131086172D01*
X163056800Y-131119558D01*
X163012230Y-131156231D01*
X163005972Y-131161930D01*
X162933680Y-131228862D01*
X162933680Y-132049920D01*
X162832080Y-132049920D01*
X162832080Y-130972960D01*
X162871450Y-130972960D01*
X162897515Y-130974632D01*
X162910288Y-130982869D01*
X162916720Y-131002497D01*
X162917170Y-131004710D01*
X162921142Y-131035155D01*
X162923355Y-131072671D01*
X162923520Y-131084296D01*
X162924780Y-131113916D01*
X162927975Y-131134262D01*
X162929953Y-131138566D01*
X162939769Y-131135109D01*
X162960486Y-131120375D01*
X162988344Y-131097157D01*
X163000959Y-131085830D01*
X163080460Y-131023722D01*
X163163076Y-130979614D01*
X163247118Y-130954120D01*
X163330899Y-130947849D01*
X163370770Y-130951887D01*
X163449401Y-130972130D01*
X163513580Y-131005864D01*
X163565094Y-131054368D01*
X163605732Y-131118919D01*
X163606404Y-131120295D01*
X163627527Y-131163774D01*
X163708036Y-131094204D01*
X163791785Y-131029403D01*
X163871606Y-130983628D01*
X163948995Y-130956319D01*
X164025450Y-130946919D01*
X164088866Y-130952247D01*
X164088866Y-130952247D01*
G37*
X164088866Y-130952247D02*
X164163354Y-130970275D01*
X164221946Y-130996835D01*
X164268109Y-131034309D01*
X164305314Y-131085082D01*
X164318698Y-131110120D01*
X164330107Y-131134635D01*
X164339544Y-131159065D01*
X164347194Y-131185563D01*
X164353240Y-131216284D01*
X164357869Y-131253382D01*
X164361265Y-131299011D01*
X164363612Y-131355324D01*
X164365096Y-131424477D01*
X164365901Y-131508623D01*
X164366211Y-131609916D01*
X164366240Y-131664340D01*
X164366240Y-132060080D01*
X164264640Y-132060080D01*
X164264640Y-131671054D01*
X164264469Y-131560097D01*
X164263811Y-131467385D01*
X164262443Y-131390844D01*
X164260145Y-131328403D01*
X164256694Y-131277988D01*
X164251871Y-131237526D01*
X164245454Y-131204944D01*
X164237222Y-131178168D01*
X164226953Y-131155126D01*
X164214426Y-131133744D01*
X164205967Y-131121184D01*
X164174338Y-131084469D01*
X164136999Y-131059708D01*
X164089862Y-131045224D01*
X164028838Y-131039340D01*
X164005560Y-131039000D01*
X163959907Y-131039618D01*
X163927366Y-131042541D01*
X163900741Y-131049371D01*
X163872836Y-131061710D01*
X163850439Y-131073531D01*
X163811247Y-131097894D01*
X163766677Y-131130270D01*
X163725585Y-131164174D01*
X163720899Y-131168411D01*
X163655040Y-131228760D01*
X163655040Y-132060080D01*
X163555229Y-132060080D01*
X163551013Y-131656220D01*
X163549792Y-131547851D01*
X163548432Y-131457687D01*
X163546687Y-131383613D01*
X163544312Y-131323513D01*
X163541061Y-131275271D01*
X163536689Y-131236774D01*
X163530949Y-131205905D01*
X163523597Y-131180549D01*
X163514386Y-131158592D01*
X163503070Y-131137917D01*
X163489405Y-131116411D01*
X163488086Y-131114414D01*
X163452707Y-131073910D01*
X163407844Y-131047074D01*
X163350579Y-131032622D01*
X163294211Y-131029115D01*
X163249001Y-131030049D01*
X163215079Y-131034533D01*
X163183472Y-131044549D01*
X163145523Y-131061919D01*
X163103950Y-131086172D01*
X163056800Y-131119558D01*
X163012230Y-131156231D01*
X163005972Y-131161930D01*
X162933680Y-131228862D01*
X162933680Y-132049920D01*
X162832080Y-132049920D01*
X162832080Y-130972960D01*
X162871450Y-130972960D01*
X162897515Y-130974632D01*
X162910288Y-130982869D01*
X162916720Y-131002497D01*
X162917170Y-131004710D01*
X162921142Y-131035155D01*
X162923355Y-131072671D01*
X162923520Y-131084296D01*
X162924780Y-131113916D01*
X162927975Y-131134262D01*
X162929953Y-131138566D01*
X162939769Y-131135109D01*
X162960486Y-131120375D01*
X162988344Y-131097157D01*
X163000959Y-131085830D01*
X163080460Y-131023722D01*
X163163076Y-130979614D01*
X163247118Y-130954120D01*
X163330899Y-130947849D01*
X163370770Y-130951887D01*
X163449401Y-130972130D01*
X163513580Y-131005864D01*
X163565094Y-131054368D01*
X163605732Y-131118919D01*
X163606404Y-131120295D01*
X163627527Y-131163774D01*
X163708036Y-131094204D01*
X163791785Y-131029403D01*
X163871606Y-130983628D01*
X163948995Y-130956319D01*
X164025450Y-130946919D01*
X164088866Y-130952247D01*
G36*
X160160000Y-130647840D02*
X159652000Y-130647840D01*
X159652000Y-132060080D01*
X159540240Y-132060080D01*
X159540240Y-130647840D01*
X159032240Y-130647840D01*
X159032240Y-130566560D01*
X160160000Y-130566560D01*
X160160000Y-130647840D01*
X160160000Y-130647840D01*
G37*
X160160000Y-130647840D02*
X159652000Y-130647840D01*
X159652000Y-132060080D01*
X159540240Y-132060080D01*
X159540240Y-130647840D01*
X159032240Y-130647840D01*
X159032240Y-130566560D01*
X160160000Y-130566560D01*
X160160000Y-130647840D01*
G36*
X156806349Y-130952630D02*
X156864716Y-130965084D01*
X156909444Y-130980923D01*
X156947211Y-131003078D01*
X156977356Y-131027732D01*
X157021084Y-131080582D01*
X157053974Y-131149959D01*
X157075647Y-131234971D01*
X157081097Y-131273193D01*
X157083619Y-131305552D01*
X157085926Y-131355023D01*
X157087942Y-131418401D01*
X157089589Y-131492478D01*
X157090791Y-131574048D01*
X157091471Y-131659904D01*
X157091596Y-131712100D01*
X157091680Y-132060080D01*
X156990080Y-132060080D01*
X156989996Y-131722260D01*
X156989641Y-131601745D01*
X156988471Y-131499622D01*
X156986233Y-131413972D01*
X156982677Y-131342875D01*
X156977548Y-131284410D01*
X156970596Y-131236657D01*
X156961567Y-131197697D01*
X156950210Y-131165610D01*
X156936271Y-131138475D01*
X156919500Y-131114373D01*
X156908348Y-131100997D01*
X156871540Y-131068029D01*
X156827666Y-131046983D01*
X156773002Y-131036713D01*
X156703823Y-131036074D01*
X156698300Y-131036362D01*
X156625954Y-131045310D01*
X156560485Y-131064922D01*
X156497808Y-131097218D01*
X156433843Y-131144216D01*
X156377940Y-131194781D01*
X156329680Y-131241436D01*
X156329680Y-132060080D01*
X156228080Y-132060080D01*
X156228080Y-130971791D01*
X156271260Y-130974915D01*
X156314440Y-130978040D01*
X156317055Y-131039000D01*
X156319411Y-131076495D01*
X156322732Y-131109002D01*
X156325233Y-131124272D01*
X156330796Y-131148584D01*
X156363258Y-131118424D01*
X156450186Y-131047974D01*
X156539255Y-130995688D01*
X156629175Y-130962049D01*
X156718655Y-130947538D01*
X156806349Y-130952630D01*
X156806349Y-130952630D01*
G37*
X156806349Y-130952630D02*
X156864716Y-130965084D01*
X156909444Y-130980923D01*
X156947211Y-131003078D01*
X156977356Y-131027732D01*
X157021084Y-131080582D01*
X157053974Y-131149959D01*
X157075647Y-131234971D01*
X157081097Y-131273193D01*
X157083619Y-131305552D01*
X157085926Y-131355023D01*
X157087942Y-131418401D01*
X157089589Y-131492478D01*
X157090791Y-131574048D01*
X157091471Y-131659904D01*
X157091596Y-131712100D01*
X157091680Y-132060080D01*
X156990080Y-132060080D01*
X156989996Y-131722260D01*
X156989641Y-131601745D01*
X156988471Y-131499622D01*
X156986233Y-131413972D01*
X156982677Y-131342875D01*
X156977548Y-131284410D01*
X156970596Y-131236657D01*
X156961567Y-131197697D01*
X156950210Y-131165610D01*
X156936271Y-131138475D01*
X156919500Y-131114373D01*
X156908348Y-131100997D01*
X156871540Y-131068029D01*
X156827666Y-131046983D01*
X156773002Y-131036713D01*
X156703823Y-131036074D01*
X156698300Y-131036362D01*
X156625954Y-131045310D01*
X156560485Y-131064922D01*
X156497808Y-131097218D01*
X156433843Y-131144216D01*
X156377940Y-131194781D01*
X156329680Y-131241436D01*
X156329680Y-132060080D01*
X156228080Y-132060080D01*
X156228080Y-130971791D01*
X156271260Y-130974915D01*
X156314440Y-130978040D01*
X156317055Y-131039000D01*
X156319411Y-131076495D01*
X156322732Y-131109002D01*
X156325233Y-131124272D01*
X156330796Y-131148584D01*
X156363258Y-131118424D01*
X156450186Y-131047974D01*
X156539255Y-130995688D01*
X156629175Y-130962049D01*
X156718655Y-130947538D01*
X156806349Y-130952630D01*
G36*
X155770880Y-132060080D02*
X155669280Y-132060080D01*
X155669280Y-130972960D01*
X155770880Y-130972960D01*
X155770880Y-132060080D01*
X155770880Y-132060080D01*
G37*
X155770880Y-132060080D02*
X155669280Y-132060080D01*
X155669280Y-130972960D01*
X155770880Y-130972960D01*
X155770880Y-132060080D01*
G36*
X152379980Y-130559202D02*
X152480103Y-130561103D01*
X152562531Y-130563478D01*
X152629885Y-130566669D01*
X152684789Y-130571016D01*
X152729866Y-130576861D01*
X152767738Y-130584546D01*
X152801030Y-130594412D01*
X152832363Y-130606802D01*
X152864362Y-130622056D01*
X152864939Y-130622348D01*
X152933409Y-130665633D01*
X152985362Y-130718639D01*
X153022297Y-130783496D01*
X153045710Y-130862333D01*
X153049727Y-130885123D01*
X153055428Y-130978968D01*
X153042559Y-131065789D01*
X153011418Y-131144642D01*
X152962305Y-131214583D01*
X152936929Y-131240571D01*
X152863835Y-131295276D01*
X152779112Y-131334422D01*
X152711960Y-131352248D01*
X152675042Y-131361179D01*
X152657615Y-131370370D01*
X152656305Y-131376552D01*
X152662660Y-131387753D01*
X152678663Y-131414183D01*
X152703104Y-131453893D01*
X152734774Y-131504934D01*
X152772464Y-131565359D01*
X152814964Y-131633219D01*
X152861065Y-131706567D01*
X152869847Y-131720512D01*
X152916229Y-131794239D01*
X152959027Y-131862473D01*
X152997069Y-131923331D01*
X153029185Y-131974929D01*
X153054203Y-132015383D01*
X153070950Y-132042810D01*
X153078255Y-132055326D01*
X153078480Y-132055879D01*
X153069267Y-132058107D01*
X153045408Y-132059556D01*
X153020060Y-132059894D01*
X152961640Y-132059709D01*
X152744313Y-131714454D01*
X152526987Y-131369200D01*
X152184400Y-131369200D01*
X152184400Y-132060080D01*
X152072640Y-132060080D01*
X152072640Y-131277242D01*
X152184111Y-131277242D01*
X152344275Y-131280976D01*
X152438000Y-131282696D01*
X152514321Y-131282918D01*
X152576114Y-131281461D01*
X152626252Y-131278144D01*
X152667608Y-131272787D01*
X152703058Y-131265210D01*
X152731277Y-131256689D01*
X152804263Y-131223755D01*
X152861705Y-131179407D01*
X152906025Y-131121725D01*
X152909800Y-131115200D01*
X152924395Y-131087859D01*
X152933627Y-131064478D01*
X152938714Y-131038978D01*
X152940873Y-131005278D01*
X152941320Y-130957720D01*
X152940861Y-130909841D01*
X152938678Y-130876192D01*
X152933554Y-130850687D01*
X152924276Y-130827242D01*
X152909893Y-130800240D01*
X152870813Y-130749391D01*
X152817145Y-130706177D01*
X152754306Y-130674658D01*
X152733179Y-130667715D01*
X152693802Y-130659520D01*
X152638509Y-130652312D01*
X152571693Y-130646399D01*
X152497745Y-130642086D01*
X152421059Y-130639679D01*
X152346027Y-130639484D01*
X152331720Y-130639735D01*
X152189480Y-130642760D01*
X152186795Y-130960001D01*
X152184111Y-131277242D01*
X152072640Y-131277242D01*
X152072640Y-130554226D01*
X152379980Y-130559202D01*
X152379980Y-130559202D01*
G37*
X152379980Y-130559202D02*
X152480103Y-130561103D01*
X152562531Y-130563478D01*
X152629885Y-130566669D01*
X152684789Y-130571016D01*
X152729866Y-130576861D01*
X152767738Y-130584546D01*
X152801030Y-130594412D01*
X152832363Y-130606802D01*
X152864362Y-130622056D01*
X152864939Y-130622348D01*
X152933409Y-130665633D01*
X152985362Y-130718639D01*
X153022297Y-130783496D01*
X153045710Y-130862333D01*
X153049727Y-130885123D01*
X153055428Y-130978968D01*
X153042559Y-131065789D01*
X153011418Y-131144642D01*
X152962305Y-131214583D01*
X152936929Y-131240571D01*
X152863835Y-131295276D01*
X152779112Y-131334422D01*
X152711960Y-131352248D01*
X152675042Y-131361179D01*
X152657615Y-131370370D01*
X152656305Y-131376552D01*
X152662660Y-131387753D01*
X152678663Y-131414183D01*
X152703104Y-131453893D01*
X152734774Y-131504934D01*
X152772464Y-131565359D01*
X152814964Y-131633219D01*
X152861065Y-131706567D01*
X152869847Y-131720512D01*
X152916229Y-131794239D01*
X152959027Y-131862473D01*
X152997069Y-131923331D01*
X153029185Y-131974929D01*
X153054203Y-132015383D01*
X153070950Y-132042810D01*
X153078255Y-132055326D01*
X153078480Y-132055879D01*
X153069267Y-132058107D01*
X153045408Y-132059556D01*
X153020060Y-132059894D01*
X152961640Y-132059709D01*
X152744313Y-131714454D01*
X152526987Y-131369200D01*
X152184400Y-131369200D01*
X152184400Y-132060080D01*
X152072640Y-132060080D01*
X152072640Y-131277242D01*
X152184111Y-131277242D01*
X152344275Y-131280976D01*
X152438000Y-131282696D01*
X152514321Y-131282918D01*
X152576114Y-131281461D01*
X152626252Y-131278144D01*
X152667608Y-131272787D01*
X152703058Y-131265210D01*
X152731277Y-131256689D01*
X152804263Y-131223755D01*
X152861705Y-131179407D01*
X152906025Y-131121725D01*
X152909800Y-131115200D01*
X152924395Y-131087859D01*
X152933627Y-131064478D01*
X152938714Y-131038978D01*
X152940873Y-131005278D01*
X152941320Y-130957720D01*
X152940861Y-130909841D01*
X152938678Y-130876192D01*
X152933554Y-130850687D01*
X152924276Y-130827242D01*
X152909893Y-130800240D01*
X152870813Y-130749391D01*
X152817145Y-130706177D01*
X152754306Y-130674658D01*
X152733179Y-130667715D01*
X152693802Y-130659520D01*
X152638509Y-130652312D01*
X152571693Y-130646399D01*
X152497745Y-130642086D01*
X152421059Y-130639679D01*
X152346027Y-130639484D01*
X152331720Y-130639735D01*
X152189480Y-130642760D01*
X152186795Y-130960001D01*
X152184111Y-131277242D01*
X152072640Y-131277242D01*
X152072640Y-130554226D01*
X152379980Y-130559202D01*
G36*
X155152257Y-130959109D02*
X155238291Y-130991219D01*
X155317044Y-131040276D01*
X155325692Y-131047175D01*
X155352945Y-131069480D01*
X155322962Y-131102872D01*
X155292980Y-131136264D01*
X155259721Y-131110896D01*
X155232117Y-131092683D01*
X155195084Y-131071785D01*
X155165931Y-131057184D01*
X155132404Y-131042856D01*
X155102340Y-131034310D01*
X155068211Y-131030148D01*
X155022491Y-131028972D01*
X155013960Y-131028967D01*
X154966635Y-131029852D01*
X154931766Y-131033410D01*
X154901516Y-131041231D01*
X154868049Y-131054903D01*
X154854033Y-131061409D01*
X154777223Y-131108536D01*
X154712321Y-131170734D01*
X154660431Y-131245866D01*
X154622656Y-131331793D01*
X154600100Y-131426378D01*
X154593866Y-131527484D01*
X154595593Y-131562091D01*
X154611803Y-131665416D01*
X154643194Y-131757487D01*
X154689133Y-131837008D01*
X154748987Y-131902682D01*
X154770288Y-131920042D01*
X154825571Y-131955817D01*
X154882540Y-131978835D01*
X154947189Y-131990912D01*
X155013960Y-131993935D01*
X155089977Y-131989862D01*
X155154200Y-131976202D01*
X155213748Y-131950791D01*
X155268520Y-131916583D01*
X155326933Y-131875665D01*
X155350421Y-131904372D01*
X155365982Y-131924881D01*
X155374001Y-131938349D01*
X155374274Y-131939506D01*
X155366214Y-131949521D01*
X155344225Y-131965952D01*
X155312608Y-131986242D01*
X155275666Y-132007832D01*
X155237700Y-132028165D01*
X155203013Y-132044683D01*
X155185554Y-132051703D01*
X155138179Y-132063981D01*
X155078386Y-132072557D01*
X155012833Y-132077142D01*
X154948177Y-132077446D01*
X154891076Y-132073181D01*
X154854579Y-132066075D01*
X154779717Y-132038686D01*
X154714983Y-132001082D01*
X154653174Y-131948935D01*
X154642935Y-131938810D01*
X154584798Y-131870979D01*
X154541411Y-131798121D01*
X154511660Y-131717151D01*
X154494429Y-131624982D01*
X154488604Y-131518528D01*
X154488594Y-131511440D01*
X154495269Y-131403703D01*
X154515665Y-131308178D01*
X154550751Y-131221254D01*
X154580242Y-131170198D01*
X154639214Y-131096562D01*
X154710412Y-131036654D01*
X154791049Y-130990931D01*
X154878339Y-130959856D01*
X154969494Y-130943887D01*
X155061729Y-130943485D01*
X155152257Y-130959109D01*
X155152257Y-130959109D01*
G37*
X155152257Y-130959109D02*
X155238291Y-130991219D01*
X155317044Y-131040276D01*
X155325692Y-131047175D01*
X155352945Y-131069480D01*
X155322962Y-131102872D01*
X155292980Y-131136264D01*
X155259721Y-131110896D01*
X155232117Y-131092683D01*
X155195084Y-131071785D01*
X155165931Y-131057184D01*
X155132404Y-131042856D01*
X155102340Y-131034310D01*
X155068211Y-131030148D01*
X155022491Y-131028972D01*
X155013960Y-131028967D01*
X154966635Y-131029852D01*
X154931766Y-131033410D01*
X154901516Y-131041231D01*
X154868049Y-131054903D01*
X154854033Y-131061409D01*
X154777223Y-131108536D01*
X154712321Y-131170734D01*
X154660431Y-131245866D01*
X154622656Y-131331793D01*
X154600100Y-131426378D01*
X154593866Y-131527484D01*
X154595593Y-131562091D01*
X154611803Y-131665416D01*
X154643194Y-131757487D01*
X154689133Y-131837008D01*
X154748987Y-131902682D01*
X154770288Y-131920042D01*
X154825571Y-131955817D01*
X154882540Y-131978835D01*
X154947189Y-131990912D01*
X155013960Y-131993935D01*
X155089977Y-131989862D01*
X155154200Y-131976202D01*
X155213748Y-131950791D01*
X155268520Y-131916583D01*
X155326933Y-131875665D01*
X155350421Y-131904372D01*
X155365982Y-131924881D01*
X155374001Y-131938349D01*
X155374274Y-131939506D01*
X155366214Y-131949521D01*
X155344225Y-131965952D01*
X155312608Y-131986242D01*
X155275666Y-132007832D01*
X155237700Y-132028165D01*
X155203013Y-132044683D01*
X155185554Y-132051703D01*
X155138179Y-132063981D01*
X155078386Y-132072557D01*
X155012833Y-132077142D01*
X154948177Y-132077446D01*
X154891076Y-132073181D01*
X154854579Y-132066075D01*
X154779717Y-132038686D01*
X154714983Y-132001082D01*
X154653174Y-131948935D01*
X154642935Y-131938810D01*
X154584798Y-131870979D01*
X154541411Y-131798121D01*
X154511660Y-131717151D01*
X154494429Y-131624982D01*
X154488604Y-131518528D01*
X154488594Y-131511440D01*
X154495269Y-131403703D01*
X154515665Y-131308178D01*
X154550751Y-131221254D01*
X154580242Y-131170198D01*
X154639214Y-131096562D01*
X154710412Y-131036654D01*
X154791049Y-130990931D01*
X154878339Y-130959856D01*
X154969494Y-130943887D01*
X155061729Y-130943485D01*
X155152257Y-130959109D01*
G36*
X160905838Y-130944952D02*
X160990050Y-130955956D01*
X161061737Y-130979412D01*
X161125785Y-131017300D01*
X161164657Y-131049696D01*
X161220963Y-131115530D01*
X161263637Y-131195638D01*
X161292254Y-131288848D01*
X161306385Y-131393989D01*
X161307903Y-131442860D01*
X161308080Y-131521600D01*
X160474960Y-131521600D01*
X160474960Y-131565185D01*
X160481231Y-131625712D01*
X160498564Y-131693743D01*
X160524740Y-131761405D01*
X160537582Y-131787340D01*
X160587422Y-131860473D01*
X160650138Y-131919460D01*
X160723433Y-131963671D01*
X160805012Y-131992479D01*
X160892578Y-132005255D01*
X160983836Y-132001371D01*
X161076491Y-131980199D01*
X161144034Y-131953303D01*
X161179037Y-131936893D01*
X161206270Y-131924510D01*
X161221146Y-131918225D01*
X161222513Y-131917840D01*
X161229144Y-131925794D01*
X161239862Y-131944352D01*
X161250485Y-131965553D01*
X161256833Y-131981438D01*
X161257280Y-131984036D01*
X161248288Y-131992973D01*
X161224189Y-132006168D01*
X161189294Y-132021901D01*
X161147916Y-132038448D01*
X161104366Y-132054090D01*
X161062957Y-132067103D01*
X161028000Y-132075766D01*
X161027114Y-132075938D01*
X160956146Y-132085715D01*
X160884666Y-132088906D01*
X160821502Y-132085203D01*
X160810240Y-132083540D01*
X160785622Y-132077968D01*
X160751791Y-132068618D01*
X160734040Y-132063199D01*
X160638698Y-132023907D01*
X160557731Y-131970664D01*
X160490448Y-131902785D01*
X160436158Y-131819586D01*
X160397042Y-131728776D01*
X160385142Y-131692505D01*
X160377164Y-131660849D01*
X160372346Y-131628008D01*
X160369924Y-131588186D01*
X160369136Y-131535585D01*
X160369104Y-131516520D01*
X160369556Y-131458915D01*
X160369920Y-131450480D01*
X160474960Y-131450480D01*
X161216640Y-131450480D01*
X161216489Y-131402220D01*
X161208444Y-131318888D01*
X161186060Y-131239292D01*
X161151185Y-131168228D01*
X161105666Y-131110493D01*
X161103204Y-131108100D01*
X161053370Y-131069234D01*
X160997446Y-131044163D01*
X160931067Y-131031364D01*
X160876280Y-131028891D01*
X160827775Y-131029807D01*
X160792098Y-131033527D01*
X160761805Y-131041406D01*
X160729455Y-131054803D01*
X160726393Y-131056230D01*
X160659621Y-131097103D01*
X160599184Y-131152335D01*
X160547805Y-131217900D01*
X160508208Y-131289769D01*
X160483120Y-131363912D01*
X160475208Y-131427620D01*
X160474960Y-131450480D01*
X160369920Y-131450480D01*
X160371418Y-131415835D01*
X160375448Y-131381497D01*
X160382402Y-131350115D01*
X160393040Y-131315907D01*
X160396825Y-131304909D01*
X160434166Y-131216561D01*
X160480838Y-131142139D01*
X160540421Y-131076080D01*
X160549466Y-131067666D01*
X160626064Y-131009256D01*
X160708083Y-130969700D01*
X160797481Y-130948324D01*
X160896217Y-130944453D01*
X160905838Y-130944952D01*
X160905838Y-130944952D01*
G37*
X160905838Y-130944952D02*
X160990050Y-130955956D01*
X161061737Y-130979412D01*
X161125785Y-131017300D01*
X161164657Y-131049696D01*
X161220963Y-131115530D01*
X161263637Y-131195638D01*
X161292254Y-131288848D01*
X161306385Y-131393989D01*
X161307903Y-131442860D01*
X161308080Y-131521600D01*
X160474960Y-131521600D01*
X160474960Y-131565185D01*
X160481231Y-131625712D01*
X160498564Y-131693743D01*
X160524740Y-131761405D01*
X160537582Y-131787340D01*
X160587422Y-131860473D01*
X160650138Y-131919460D01*
X160723433Y-131963671D01*
X160805012Y-131992479D01*
X160892578Y-132005255D01*
X160983836Y-132001371D01*
X161076491Y-131980199D01*
X161144034Y-131953303D01*
X161179037Y-131936893D01*
X161206270Y-131924510D01*
X161221146Y-131918225D01*
X161222513Y-131917840D01*
X161229144Y-131925794D01*
X161239862Y-131944352D01*
X161250485Y-131965553D01*
X161256833Y-131981438D01*
X161257280Y-131984036D01*
X161248288Y-131992973D01*
X161224189Y-132006168D01*
X161189294Y-132021901D01*
X161147916Y-132038448D01*
X161104366Y-132054090D01*
X161062957Y-132067103D01*
X161028000Y-132075766D01*
X161027114Y-132075938D01*
X160956146Y-132085715D01*
X160884666Y-132088906D01*
X160821502Y-132085203D01*
X160810240Y-132083540D01*
X160785622Y-132077968D01*
X160751791Y-132068618D01*
X160734040Y-132063199D01*
X160638698Y-132023907D01*
X160557731Y-131970664D01*
X160490448Y-131902785D01*
X160436158Y-131819586D01*
X160397042Y-131728776D01*
X160385142Y-131692505D01*
X160377164Y-131660849D01*
X160372346Y-131628008D01*
X160369924Y-131588186D01*
X160369136Y-131535585D01*
X160369104Y-131516520D01*
X160369556Y-131458915D01*
X160369920Y-131450480D01*
X160474960Y-131450480D01*
X161216640Y-131450480D01*
X161216489Y-131402220D01*
X161208444Y-131318888D01*
X161186060Y-131239292D01*
X161151185Y-131168228D01*
X161105666Y-131110493D01*
X161103204Y-131108100D01*
X161053370Y-131069234D01*
X160997446Y-131044163D01*
X160931067Y-131031364D01*
X160876280Y-131028891D01*
X160827775Y-131029807D01*
X160792098Y-131033527D01*
X160761805Y-131041406D01*
X160729455Y-131054803D01*
X160726393Y-131056230D01*
X160659621Y-131097103D01*
X160599184Y-131152335D01*
X160547805Y-131217900D01*
X160508208Y-131289769D01*
X160483120Y-131363912D01*
X160475208Y-131427620D01*
X160474960Y-131450480D01*
X160369920Y-131450480D01*
X160371418Y-131415835D01*
X160375448Y-131381497D01*
X160382402Y-131350115D01*
X160393040Y-131315907D01*
X160396825Y-131304909D01*
X160434166Y-131216561D01*
X160480838Y-131142139D01*
X160540421Y-131076080D01*
X160549466Y-131067666D01*
X160626064Y-131009256D01*
X160708083Y-130969700D01*
X160797481Y-130948324D01*
X160896217Y-130944453D01*
X160905838Y-130944952D01*
G36*
X162145277Y-130961762D02*
X162217887Y-130987639D01*
X162278861Y-131027003D01*
X162307619Y-131055567D01*
X162329408Y-131083322D01*
X162347765Y-131112732D01*
X162362971Y-131145730D01*
X162375309Y-131184250D01*
X162385064Y-131230226D01*
X162392517Y-131285591D01*
X162397951Y-131352279D01*
X162401650Y-131432223D01*
X162403896Y-131527357D01*
X162404973Y-131639615D01*
X162405179Y-131722260D01*
X162405360Y-132060080D01*
X162316742Y-132060080D01*
X162311141Y-131998317D01*
X162307454Y-131964981D01*
X162303525Y-131940699D01*
X162300723Y-131931736D01*
X162290655Y-131934700D01*
X162267851Y-131946722D01*
X162236448Y-131965541D01*
X162221453Y-131975081D01*
X162125816Y-132029384D01*
X162032232Y-132067725D01*
X161942950Y-132089385D01*
X161860220Y-132093647D01*
X161851640Y-132093025D01*
X161777249Y-132078835D01*
X161708065Y-132050853D01*
X161648155Y-132011490D01*
X161601586Y-131963160D01*
X161583219Y-131933796D01*
X161561218Y-131871742D01*
X161552911Y-131803989D01*
X161661248Y-131803989D01*
X161673709Y-131862401D01*
X161700097Y-131913534D01*
X161738552Y-131952966D01*
X161758119Y-131965111D01*
X161791898Y-131980974D01*
X161822926Y-131990723D01*
X161857711Y-131995500D01*
X161902762Y-131996448D01*
X161932920Y-131995792D01*
X161984773Y-131992934D01*
X162024404Y-131986893D01*
X162059849Y-131976060D01*
X162085320Y-131965292D01*
X162122994Y-131946146D01*
X162168754Y-131920043D01*
X162214163Y-131891853D01*
X162225020Y-131884682D01*
X162303760Y-131831854D01*
X162303760Y-131641167D01*
X162303624Y-131574333D01*
X162303050Y-131525148D01*
X162301791Y-131490945D01*
X162299595Y-131469054D01*
X162296216Y-131456806D01*
X162291403Y-131451532D01*
X162285980Y-131450539D01*
X162256830Y-131452738D01*
X162213046Y-131458588D01*
X162159793Y-131467178D01*
X162102237Y-131477594D01*
X162045543Y-131488922D01*
X161994877Y-131500249D01*
X161971523Y-131506130D01*
X161878251Y-131535760D01*
X161802878Y-131570566D01*
X161743411Y-131611573D01*
X161716647Y-131637264D01*
X161694137Y-131662787D01*
X161678465Y-131682654D01*
X161673397Y-131691552D01*
X161671336Y-131705632D01*
X161666691Y-131731604D01*
X161664575Y-131742722D01*
X161661248Y-131803989D01*
X161552911Y-131803989D01*
X161552622Y-131801639D01*
X161557930Y-131731132D01*
X161567524Y-131693222D01*
X161598404Y-131632366D01*
X161648428Y-131577659D01*
X161717331Y-131529229D01*
X161804850Y-131487208D01*
X161910720Y-131451726D01*
X162034677Y-131422912D01*
X162155862Y-131403523D01*
X162204560Y-131396917D01*
X162246562Y-131390870D01*
X162277377Y-131386051D01*
X162292508Y-131383133D01*
X162300209Y-131371045D01*
X162303108Y-131344157D01*
X162301669Y-131307292D01*
X162296355Y-131265278D01*
X162287630Y-131222938D01*
X162275957Y-131185098D01*
X162272729Y-131177131D01*
X162241038Y-131124341D01*
X162197380Y-131080599D01*
X162147029Y-131050851D01*
X162132478Y-131045711D01*
X162059266Y-131033207D01*
X161976632Y-131035579D01*
X161888279Y-131052189D01*
X161797908Y-131082399D01*
X161727606Y-131115418D01*
X161654372Y-131154538D01*
X161632159Y-131118595D01*
X161620948Y-131099879D01*
X161616939Y-131086720D01*
X161622565Y-131075638D01*
X161640256Y-131063152D01*
X161672446Y-131045782D01*
X161689080Y-131037128D01*
X161784985Y-130994524D01*
X161880883Y-130965755D01*
X161974448Y-130950751D01*
X162063355Y-130949443D01*
X162145277Y-130961762D01*
X162145277Y-130961762D01*
G37*
X162145277Y-130961762D02*
X162217887Y-130987639D01*
X162278861Y-131027003D01*
X162307619Y-131055567D01*
X162329408Y-131083322D01*
X162347765Y-131112732D01*
X162362971Y-131145730D01*
X162375309Y-131184250D01*
X162385064Y-131230226D01*
X162392517Y-131285591D01*
X162397951Y-131352279D01*
X162401650Y-131432223D01*
X162403896Y-131527357D01*
X162404973Y-131639615D01*
X162405179Y-131722260D01*
X162405360Y-132060080D01*
X162316742Y-132060080D01*
X162311141Y-131998317D01*
X162307454Y-131964981D01*
X162303525Y-131940699D01*
X162300723Y-131931736D01*
X162290655Y-131934700D01*
X162267851Y-131946722D01*
X162236448Y-131965541D01*
X162221453Y-131975081D01*
X162125816Y-132029384D01*
X162032232Y-132067725D01*
X161942950Y-132089385D01*
X161860220Y-132093647D01*
X161851640Y-132093025D01*
X161777249Y-132078835D01*
X161708065Y-132050853D01*
X161648155Y-132011490D01*
X161601586Y-131963160D01*
X161583219Y-131933796D01*
X161561218Y-131871742D01*
X161552911Y-131803989D01*
X161661248Y-131803989D01*
X161673709Y-131862401D01*
X161700097Y-131913534D01*
X161738552Y-131952966D01*
X161758119Y-131965111D01*
X161791898Y-131980974D01*
X161822926Y-131990723D01*
X161857711Y-131995500D01*
X161902762Y-131996448D01*
X161932920Y-131995792D01*
X161984773Y-131992934D01*
X162024404Y-131986893D01*
X162059849Y-131976060D01*
X162085320Y-131965292D01*
X162122994Y-131946146D01*
X162168754Y-131920043D01*
X162214163Y-131891853D01*
X162225020Y-131884682D01*
X162303760Y-131831854D01*
X162303760Y-131641167D01*
X162303624Y-131574333D01*
X162303050Y-131525148D01*
X162301791Y-131490945D01*
X162299595Y-131469054D01*
X162296216Y-131456806D01*
X162291403Y-131451532D01*
X162285980Y-131450539D01*
X162256830Y-131452738D01*
X162213046Y-131458588D01*
X162159793Y-131467178D01*
X162102237Y-131477594D01*
X162045543Y-131488922D01*
X161994877Y-131500249D01*
X161971523Y-131506130D01*
X161878251Y-131535760D01*
X161802878Y-131570566D01*
X161743411Y-131611573D01*
X161716647Y-131637264D01*
X161694137Y-131662787D01*
X161678465Y-131682654D01*
X161673397Y-131691552D01*
X161671336Y-131705632D01*
X161666691Y-131731604D01*
X161664575Y-131742722D01*
X161661248Y-131803989D01*
X161552911Y-131803989D01*
X161552622Y-131801639D01*
X161557930Y-131731132D01*
X161567524Y-131693222D01*
X161598404Y-131632366D01*
X161648428Y-131577659D01*
X161717331Y-131529229D01*
X161804850Y-131487208D01*
X161910720Y-131451726D01*
X162034677Y-131422912D01*
X162155862Y-131403523D01*
X162204560Y-131396917D01*
X162246562Y-131390870D01*
X162277377Y-131386051D01*
X162292508Y-131383133D01*
X162300209Y-131371045D01*
X162303108Y-131344157D01*
X162301669Y-131307292D01*
X162296355Y-131265278D01*
X162287630Y-131222938D01*
X162275957Y-131185098D01*
X162272729Y-131177131D01*
X162241038Y-131124341D01*
X162197380Y-131080599D01*
X162147029Y-131050851D01*
X162132478Y-131045711D01*
X162059266Y-131033207D01*
X161976632Y-131035579D01*
X161888279Y-131052189D01*
X161797908Y-131082399D01*
X161727606Y-131115418D01*
X161654372Y-131154538D01*
X161632159Y-131118595D01*
X161620948Y-131099879D01*
X161616939Y-131086720D01*
X161622565Y-131075638D01*
X161640256Y-131063152D01*
X161672446Y-131045782D01*
X161689080Y-131037128D01*
X161784985Y-130994524D01*
X161880883Y-130965755D01*
X161974448Y-130950751D01*
X162063355Y-130949443D01*
X162145277Y-130961762D01*
G36*
X153910222Y-130961581D02*
X153943850Y-130972202D01*
X154010628Y-131008127D01*
X154065454Y-131059986D01*
X154107600Y-131126772D01*
X154136335Y-131207481D01*
X154144927Y-131249486D01*
X154147327Y-131274427D01*
X154149535Y-131316904D01*
X154151484Y-131374131D01*
X154153107Y-131443324D01*
X154154339Y-131521699D01*
X154155113Y-131606471D01*
X154155363Y-131686700D01*
X154155440Y-132060080D01*
X154115887Y-132060080D01*
X154090047Y-132057907D01*
X154074480Y-132048739D01*
X154066675Y-132028602D01*
X154064119Y-131993523D01*
X154064000Y-131977969D01*
X154062330Y-131949261D01*
X154058067Y-131931192D01*
X154054860Y-131928000D01*
X154042261Y-131933309D01*
X154018408Y-131947162D01*
X153991360Y-131964643D01*
X153893007Y-132023672D01*
X153799905Y-132064182D01*
X153710262Y-132086713D01*
X153622288Y-132091806D01*
X153581400Y-132088379D01*
X153519544Y-132074479D01*
X153459409Y-132050313D01*
X153406824Y-132018867D01*
X153367623Y-131983126D01*
X153362242Y-131976196D01*
X153324734Y-131908628D01*
X153306046Y-131837773D01*
X153305696Y-131787305D01*
X153413760Y-131787305D01*
X153421184Y-131844090D01*
X153441628Y-131896220D01*
X153472350Y-131937591D01*
X153486663Y-131949590D01*
X153542823Y-131978263D01*
X153610652Y-131994617D01*
X153685357Y-131998242D01*
X153762144Y-131988728D01*
X153806206Y-131976878D01*
X153845120Y-131960972D01*
X153892973Y-131936833D01*
X153942382Y-131908328D01*
X153966440Y-131892931D01*
X154058920Y-131831226D01*
X154064448Y-131450480D01*
X154040097Y-131450480D01*
X154010633Y-131452732D01*
X153966366Y-131458861D01*
X153912231Y-131467927D01*
X153853165Y-131478988D01*
X153794104Y-131491105D01*
X153739986Y-131503336D01*
X153695746Y-131514742D01*
X153683000Y-131518523D01*
X153593584Y-131551666D01*
X153523210Y-131589669D01*
X153470992Y-131633416D01*
X153436044Y-131683791D01*
X153417480Y-131741678D01*
X153413760Y-131787305D01*
X153305696Y-131787305D01*
X153305549Y-131766234D01*
X153322615Y-131696614D01*
X153356616Y-131631518D01*
X153406924Y-131573548D01*
X153470699Y-131526596D01*
X153520768Y-131502373D01*
X153587142Y-131477944D01*
X153665842Y-131454304D01*
X153752886Y-131432447D01*
X153844296Y-131413368D01*
X153936092Y-131398063D01*
X154024295Y-131387527D01*
X154028440Y-131387152D01*
X154058920Y-131384440D01*
X154055954Y-131323480D01*
X154044812Y-131237389D01*
X154020532Y-131166633D01*
X153984854Y-131113191D01*
X153944431Y-131075517D01*
X153900837Y-131051181D01*
X153848748Y-131038088D01*
X153784194Y-131034143D01*
X153707458Y-131038369D01*
X153635129Y-131052622D01*
X153560672Y-131078597D01*
X153494524Y-131109288D01*
X153407611Y-131153121D01*
X153384313Y-131117580D01*
X153373220Y-131100392D01*
X153368361Y-131087923D01*
X153372100Y-131077393D01*
X153386802Y-131066019D01*
X153414833Y-131051020D01*
X153458556Y-131029615D01*
X153459480Y-131029164D01*
X153552472Y-130990837D01*
X153647877Y-130964464D01*
X153741860Y-130950496D01*
X153830587Y-130949385D01*
X153910222Y-130961581D01*
X153910222Y-130961581D01*
G37*
X153910222Y-130961581D02*
X153943850Y-130972202D01*
X154010628Y-131008127D01*
X154065454Y-131059986D01*
X154107600Y-131126772D01*
X154136335Y-131207481D01*
X154144927Y-131249486D01*
X154147327Y-131274427D01*
X154149535Y-131316904D01*
X154151484Y-131374131D01*
X154153107Y-131443324D01*
X154154339Y-131521699D01*
X154155113Y-131606471D01*
X154155363Y-131686700D01*
X154155440Y-132060080D01*
X154115887Y-132060080D01*
X154090047Y-132057907D01*
X154074480Y-132048739D01*
X154066675Y-132028602D01*
X154064119Y-131993523D01*
X154064000Y-131977969D01*
X154062330Y-131949261D01*
X154058067Y-131931192D01*
X154054860Y-131928000D01*
X154042261Y-131933309D01*
X154018408Y-131947162D01*
X153991360Y-131964643D01*
X153893007Y-132023672D01*
X153799905Y-132064182D01*
X153710262Y-132086713D01*
X153622288Y-132091806D01*
X153581400Y-132088379D01*
X153519544Y-132074479D01*
X153459409Y-132050313D01*
X153406824Y-132018867D01*
X153367623Y-131983126D01*
X153362242Y-131976196D01*
X153324734Y-131908628D01*
X153306046Y-131837773D01*
X153305696Y-131787305D01*
X153413760Y-131787305D01*
X153421184Y-131844090D01*
X153441628Y-131896220D01*
X153472350Y-131937591D01*
X153486663Y-131949590D01*
X153542823Y-131978263D01*
X153610652Y-131994617D01*
X153685357Y-131998242D01*
X153762144Y-131988728D01*
X153806206Y-131976878D01*
X153845120Y-131960972D01*
X153892973Y-131936833D01*
X153942382Y-131908328D01*
X153966440Y-131892931D01*
X154058920Y-131831226D01*
X154064448Y-131450480D01*
X154040097Y-131450480D01*
X154010633Y-131452732D01*
X153966366Y-131458861D01*
X153912231Y-131467927D01*
X153853165Y-131478988D01*
X153794104Y-131491105D01*
X153739986Y-131503336D01*
X153695746Y-131514742D01*
X153683000Y-131518523D01*
X153593584Y-131551666D01*
X153523210Y-131589669D01*
X153470992Y-131633416D01*
X153436044Y-131683791D01*
X153417480Y-131741678D01*
X153413760Y-131787305D01*
X153305696Y-131787305D01*
X153305549Y-131766234D01*
X153322615Y-131696614D01*
X153356616Y-131631518D01*
X153406924Y-131573548D01*
X153470699Y-131526596D01*
X153520768Y-131502373D01*
X153587142Y-131477944D01*
X153665842Y-131454304D01*
X153752886Y-131432447D01*
X153844296Y-131413368D01*
X153936092Y-131398063D01*
X154024295Y-131387527D01*
X154028440Y-131387152D01*
X154058920Y-131384440D01*
X154055954Y-131323480D01*
X154044812Y-131237389D01*
X154020532Y-131166633D01*
X153984854Y-131113191D01*
X153944431Y-131075517D01*
X153900837Y-131051181D01*
X153848748Y-131038088D01*
X153784194Y-131034143D01*
X153707458Y-131038369D01*
X153635129Y-131052622D01*
X153560672Y-131078597D01*
X153494524Y-131109288D01*
X153407611Y-131153121D01*
X153384313Y-131117580D01*
X153373220Y-131100392D01*
X153368361Y-131087923D01*
X153372100Y-131077393D01*
X153386802Y-131066019D01*
X153414833Y-131051020D01*
X153458556Y-131029615D01*
X153459480Y-131029164D01*
X153552472Y-130990837D01*
X153647877Y-130964464D01*
X153741860Y-130950496D01*
X153830587Y-130949385D01*
X153910222Y-130961581D01*
G36*
X157945120Y-130953768D02*
X157972546Y-130957516D01*
X158016155Y-130961225D01*
X158071808Y-130964646D01*
X158135367Y-130967529D01*
X158202695Y-130969624D01*
X158211820Y-130969833D01*
X158422640Y-130974431D01*
X158422640Y-131054240D01*
X158156375Y-131054240D01*
X158189420Y-131091876D01*
X158212832Y-131123194D01*
X158236806Y-131162412D01*
X158248892Y-131185856D01*
X158262344Y-131217825D01*
X158270318Y-131247735D01*
X158274107Y-131282897D01*
X158275001Y-131330624D01*
X158274992Y-131333640D01*
X158273855Y-131382289D01*
X158269865Y-131418482D01*
X158261540Y-131450037D01*
X158247394Y-131484771D01*
X158245518Y-131488905D01*
X158207398Y-131551904D01*
X158155049Y-131609686D01*
X158094016Y-131656975D01*
X158039451Y-131684978D01*
X157979285Y-131701140D01*
X157908723Y-131708871D01*
X157835931Y-131708003D01*
X157769075Y-131698371D01*
X157742804Y-131691032D01*
X157711204Y-131680916D01*
X157691830Y-131677597D01*
X157677729Y-131681155D01*
X157661949Y-131691672D01*
X157661524Y-131691987D01*
X157627488Y-131727797D01*
X157602216Y-131774640D01*
X157590134Y-131823786D01*
X157589687Y-131833666D01*
X157598978Y-131877351D01*
X157624464Y-131916973D01*
X157662051Y-131947376D01*
X157689415Y-131959266D01*
X157709786Y-131962755D01*
X157747194Y-131966468D01*
X157798363Y-131970188D01*
X157860015Y-131973698D01*
X157928872Y-131976780D01*
X157980680Y-131978600D01*
X158052582Y-131981235D01*
X158119532Y-131984439D01*
X158178274Y-131987999D01*
X158225553Y-131991699D01*
X158258110Y-131995323D01*
X158270590Y-131997760D01*
X158337712Y-132027412D01*
X158389026Y-132068797D01*
X158423737Y-132120920D01*
X158441053Y-132182786D01*
X158442960Y-132213877D01*
X158435031Y-132286458D01*
X158410186Y-132351513D01*
X158366840Y-132412988D01*
X158359560Y-132421144D01*
X158306374Y-132468157D01*
X158238755Y-132510802D01*
X158162549Y-132545987D01*
X158083603Y-132570621D01*
X158072120Y-132573166D01*
X158009917Y-132582075D01*
X157935732Y-132586390D01*
X157857367Y-132586143D01*
X157782626Y-132581365D01*
X157719311Y-132572089D01*
X157717550Y-132571715D01*
X157636756Y-132547530D01*
X157565222Y-132512535D01*
X157505902Y-132468759D01*
X157461752Y-132418231D01*
X157442696Y-132382986D01*
X157429760Y-132330868D01*
X157429208Y-132299160D01*
X157520825Y-132299160D01*
X157538041Y-132353439D01*
X157572489Y-132402105D01*
X157622724Y-132443763D01*
X157687299Y-132477018D01*
X157764770Y-132500474D01*
X157797800Y-132506608D01*
X157860519Y-132512134D01*
X157931428Y-132511660D01*
X158001955Y-132505667D01*
X158063533Y-132494638D01*
X158077521Y-132490858D01*
X158162389Y-132458915D01*
X158231869Y-132418514D01*
X158284973Y-132370699D01*
X158320715Y-132316513D01*
X158338107Y-132257000D01*
X158338987Y-132214484D01*
X158334193Y-132178747D01*
X158324419Y-132154297D01*
X158305536Y-132132118D01*
X158298021Y-132125057D01*
X158265443Y-132101525D01*
X158228346Y-132083318D01*
X158217716Y-132079855D01*
X158195380Y-132076217D01*
X158156114Y-132072361D01*
X158103300Y-132068515D01*
X158040323Y-132064903D01*
X157970567Y-132061753D01*
X157919720Y-132059949D01*
X157665720Y-132051971D01*
X157630160Y-132079617D01*
X157594793Y-132113604D01*
X157561925Y-132156416D01*
X157536201Y-132201117D01*
X157522287Y-132240664D01*
X157520825Y-132299160D01*
X157429208Y-132299160D01*
X157428730Y-132271768D01*
X157439376Y-132215002D01*
X157447310Y-132194021D01*
X157463848Y-132166041D01*
X157490160Y-132130547D01*
X157521314Y-132094047D01*
X157530282Y-132084483D01*
X157593351Y-132018803D01*
X157560504Y-131988802D01*
X157522721Y-131941669D01*
X157502089Y-131887292D01*
X157498395Y-131828979D01*
X157511428Y-131770041D01*
X157540974Y-131713786D01*
X157581088Y-131668566D01*
X157622269Y-131631362D01*
X157581164Y-131589181D01*
X157552444Y-131554899D01*
X157524317Y-131513750D01*
X157511449Y-131491120D01*
X157498334Y-131463656D01*
X157489958Y-131439164D01*
X157485280Y-131411718D01*
X157483255Y-131375389D01*
X157482840Y-131328560D01*
X157482893Y-131323480D01*
X157574689Y-131323480D01*
X157581014Y-131399768D01*
X157600902Y-131463616D01*
X157636056Y-131519082D01*
X157672429Y-131556695D01*
X157722657Y-131594795D01*
X157775137Y-131618588D01*
X157836077Y-131630334D01*
X157880732Y-131632557D01*
X157924064Y-131631622D01*
X157957302Y-131626081D01*
X157990551Y-131613544D01*
X158017578Y-131600190D01*
X158080521Y-131557387D01*
X158128447Y-131503861D01*
X158161441Y-131442488D01*
X158179588Y-131376138D01*
X158182973Y-131307686D01*
X158171683Y-131240004D01*
X158145803Y-131175965D01*
X158105417Y-131118441D01*
X158050612Y-131070307D01*
X158001000Y-131042500D01*
X157936286Y-131023287D01*
X157864771Y-131018569D01*
X157793743Y-131028201D01*
X157738792Y-131047759D01*
X157673198Y-131089764D01*
X157624233Y-131143439D01*
X157591921Y-131208749D01*
X157576282Y-131285656D01*
X157574689Y-131323480D01*
X157482893Y-131323480D01*
X157483373Y-131278304D01*
X157485662Y-131242323D01*
X157490741Y-131214582D01*
X157499644Y-131189050D01*
X157510923Y-131164715D01*
X157548437Y-131106508D01*
X157599761Y-131051957D01*
X157658540Y-131007199D01*
X157693984Y-130987944D01*
X157760600Y-130964609D01*
X157832975Y-130951152D01*
X157903064Y-130948670D01*
X157945120Y-130953768D01*
X157945120Y-130953768D01*
G37*
X157945120Y-130953768D02*
X157972546Y-130957516D01*
X158016155Y-130961225D01*
X158071808Y-130964646D01*
X158135367Y-130967529D01*
X158202695Y-130969624D01*
X158211820Y-130969833D01*
X158422640Y-130974431D01*
X158422640Y-131054240D01*
X158156375Y-131054240D01*
X158189420Y-131091876D01*
X158212832Y-131123194D01*
X158236806Y-131162412D01*
X158248892Y-131185856D01*
X158262344Y-131217825D01*
X158270318Y-131247735D01*
X158274107Y-131282897D01*
X158275001Y-131330624D01*
X158274992Y-131333640D01*
X158273855Y-131382289D01*
X158269865Y-131418482D01*
X158261540Y-131450037D01*
X158247394Y-131484771D01*
X158245518Y-131488905D01*
X158207398Y-131551904D01*
X158155049Y-131609686D01*
X158094016Y-131656975D01*
X158039451Y-131684978D01*
X157979285Y-131701140D01*
X157908723Y-131708871D01*
X157835931Y-131708003D01*
X157769075Y-131698371D01*
X157742804Y-131691032D01*
X157711204Y-131680916D01*
X157691830Y-131677597D01*
X157677729Y-131681155D01*
X157661949Y-131691672D01*
X157661524Y-131691987D01*
X157627488Y-131727797D01*
X157602216Y-131774640D01*
X157590134Y-131823786D01*
X157589687Y-131833666D01*
X157598978Y-131877351D01*
X157624464Y-131916973D01*
X157662051Y-131947376D01*
X157689415Y-131959266D01*
X157709786Y-131962755D01*
X157747194Y-131966468D01*
X157798363Y-131970188D01*
X157860015Y-131973698D01*
X157928872Y-131976780D01*
X157980680Y-131978600D01*
X158052582Y-131981235D01*
X158119532Y-131984439D01*
X158178274Y-131987999D01*
X158225553Y-131991699D01*
X158258110Y-131995323D01*
X158270590Y-131997760D01*
X158337712Y-132027412D01*
X158389026Y-132068797D01*
X158423737Y-132120920D01*
X158441053Y-132182786D01*
X158442960Y-132213877D01*
X158435031Y-132286458D01*
X158410186Y-132351513D01*
X158366840Y-132412988D01*
X158359560Y-132421144D01*
X158306374Y-132468157D01*
X158238755Y-132510802D01*
X158162549Y-132545987D01*
X158083603Y-132570621D01*
X158072120Y-132573166D01*
X158009917Y-132582075D01*
X157935732Y-132586390D01*
X157857367Y-132586143D01*
X157782626Y-132581365D01*
X157719311Y-132572089D01*
X157717550Y-132571715D01*
X157636756Y-132547530D01*
X157565222Y-132512535D01*
X157505902Y-132468759D01*
X157461752Y-132418231D01*
X157442696Y-132382986D01*
X157429760Y-132330868D01*
X157429208Y-132299160D01*
X157520825Y-132299160D01*
X157538041Y-132353439D01*
X157572489Y-132402105D01*
X157622724Y-132443763D01*
X157687299Y-132477018D01*
X157764770Y-132500474D01*
X157797800Y-132506608D01*
X157860519Y-132512134D01*
X157931428Y-132511660D01*
X158001955Y-132505667D01*
X158063533Y-132494638D01*
X158077521Y-132490858D01*
X158162389Y-132458915D01*
X158231869Y-132418514D01*
X158284973Y-132370699D01*
X158320715Y-132316513D01*
X158338107Y-132257000D01*
X158338987Y-132214484D01*
X158334193Y-132178747D01*
X158324419Y-132154297D01*
X158305536Y-132132118D01*
X158298021Y-132125057D01*
X158265443Y-132101525D01*
X158228346Y-132083318D01*
X158217716Y-132079855D01*
X158195380Y-132076217D01*
X158156114Y-132072361D01*
X158103300Y-132068515D01*
X158040323Y-132064903D01*
X157970567Y-132061753D01*
X157919720Y-132059949D01*
X157665720Y-132051971D01*
X157630160Y-132079617D01*
X157594793Y-132113604D01*
X157561925Y-132156416D01*
X157536201Y-132201117D01*
X157522287Y-132240664D01*
X157520825Y-132299160D01*
X157429208Y-132299160D01*
X157428730Y-132271768D01*
X157439376Y-132215002D01*
X157447310Y-132194021D01*
X157463848Y-132166041D01*
X157490160Y-132130547D01*
X157521314Y-132094047D01*
X157530282Y-132084483D01*
X157593351Y-132018803D01*
X157560504Y-131988802D01*
X157522721Y-131941669D01*
X157502089Y-131887292D01*
X157498395Y-131828979D01*
X157511428Y-131770041D01*
X157540974Y-131713786D01*
X157581088Y-131668566D01*
X157622269Y-131631362D01*
X157581164Y-131589181D01*
X157552444Y-131554899D01*
X157524317Y-131513750D01*
X157511449Y-131491120D01*
X157498334Y-131463656D01*
X157489958Y-131439164D01*
X157485280Y-131411718D01*
X157483255Y-131375389D01*
X157482840Y-131328560D01*
X157482893Y-131323480D01*
X157574689Y-131323480D01*
X157581014Y-131399768D01*
X157600902Y-131463616D01*
X157636056Y-131519082D01*
X157672429Y-131556695D01*
X157722657Y-131594795D01*
X157775137Y-131618588D01*
X157836077Y-131630334D01*
X157880732Y-131632557D01*
X157924064Y-131631622D01*
X157957302Y-131626081D01*
X157990551Y-131613544D01*
X158017578Y-131600190D01*
X158080521Y-131557387D01*
X158128447Y-131503861D01*
X158161441Y-131442488D01*
X158179588Y-131376138D01*
X158182973Y-131307686D01*
X158171683Y-131240004D01*
X158145803Y-131175965D01*
X158105417Y-131118441D01*
X158050612Y-131070307D01*
X158001000Y-131042500D01*
X157936286Y-131023287D01*
X157864771Y-131018569D01*
X157793743Y-131028201D01*
X157738792Y-131047759D01*
X157673198Y-131089764D01*
X157624233Y-131143439D01*
X157591921Y-131208749D01*
X157576282Y-131285656D01*
X157574689Y-131323480D01*
X157482893Y-131323480D01*
X157483373Y-131278304D01*
X157485662Y-131242323D01*
X157490741Y-131214582D01*
X157499644Y-131189050D01*
X157510923Y-131164715D01*
X157548437Y-131106508D01*
X157599761Y-131051957D01*
X157658540Y-131007199D01*
X157693984Y-130987944D01*
X157760600Y-130964609D01*
X157832975Y-130951152D01*
X157903064Y-130948670D01*
X157945120Y-130953768D01*
G36*
X150121920Y-136398400D02*
X150000000Y-136398400D01*
X150000000Y-123901600D01*
X150121920Y-123901600D01*
X150121920Y-136398400D01*
X150121920Y-136398400D01*
G37*
X150121920Y-136398400D02*
X150000000Y-136398400D01*
X150000000Y-123901600D01*
X150121920Y-123901600D01*
X150121920Y-136398400D01*
G36*
X141179195Y-123913949D02*
X141304752Y-123915360D01*
X141427164Y-123917931D01*
X141542764Y-123921608D01*
X141647886Y-123926338D01*
X141738865Y-123932068D01*
X141790720Y-123936502D01*
X142140001Y-123977468D01*
X142479140Y-124031175D01*
X142811686Y-124098481D01*
X143141183Y-124180240D01*
X143471180Y-124277310D01*
X143805223Y-124390547D01*
X144046240Y-124481012D01*
X144115877Y-124507993D01*
X144191717Y-124537111D01*
X144266726Y-124565682D01*
X144333871Y-124591023D01*
X144365941Y-124602998D01*
X144625107Y-124709654D01*
X144876903Y-124834056D01*
X145120042Y-124975188D01*
X145353236Y-125132035D01*
X145575196Y-125303579D01*
X145784635Y-125488806D01*
X145980264Y-125686699D01*
X146160797Y-125896243D01*
X146324945Y-126116422D01*
X146370911Y-126184563D01*
X146435684Y-126283220D01*
X146490382Y-126367412D01*
X146536333Y-126439497D01*
X146574862Y-126501832D01*
X146607295Y-126556774D01*
X146634958Y-126606680D01*
X146659177Y-126653907D01*
X146681277Y-126700812D01*
X146702585Y-126749752D01*
X146724427Y-126803084D01*
X146737779Y-126836749D01*
X146757740Y-126890212D01*
X146781911Y-126959345D01*
X146809050Y-127040241D01*
X146837912Y-127128995D01*
X146867254Y-127221703D01*
X146895833Y-127314458D01*
X146922405Y-127403355D01*
X146945727Y-127484490D01*
X146956721Y-127524398D01*
X146978211Y-127603055D01*
X146996015Y-127665722D01*
X147011363Y-127716125D01*
X147025482Y-127757992D01*
X147039603Y-127795049D01*
X147054954Y-127831022D01*
X147065360Y-127853838D01*
X147142470Y-127998681D01*
X147236817Y-128140129D01*
X147345321Y-128274431D01*
X147464901Y-128397837D01*
X147592477Y-128506597D01*
X147615857Y-128524184D01*
X147695416Y-128590001D01*
X147763407Y-128662833D01*
X147823662Y-128747302D01*
X147873184Y-128834650D01*
X147934485Y-128975122D01*
X147978826Y-129125248D01*
X148006309Y-129283651D01*
X148017039Y-129448954D01*
X148011120Y-129619778D01*
X147988655Y-129794748D01*
X147949747Y-129972486D01*
X147894502Y-130151614D01*
X147823023Y-130330755D01*
X147748895Y-130483304D01*
X147719321Y-130537644D01*
X147687698Y-130592803D01*
X147656153Y-130645358D01*
X147626815Y-130691887D01*
X147601811Y-130728969D01*
X147583270Y-130753180D01*
X147577364Y-130759164D01*
X147565596Y-130762701D01*
X147549435Y-130756083D01*
X147527838Y-130738163D01*
X147499759Y-130707798D01*
X147464153Y-130663842D01*
X147419976Y-130605150D01*
X147366181Y-130530576D01*
X147357119Y-130517810D01*
X147261438Y-130388504D01*
X147169539Y-130276758D01*
X147079267Y-130180696D01*
X146988469Y-130098447D01*
X146894988Y-130028136D01*
X146796671Y-129967888D01*
X146691362Y-129915832D01*
X146639750Y-129894028D01*
X146586398Y-129873483D01*
X146530134Y-129853832D01*
X146468133Y-129834264D01*
X146397569Y-129813966D01*
X146315619Y-129792126D01*
X146219455Y-129767934D01*
X146106253Y-129740576D01*
X146103640Y-129739953D01*
X145988977Y-129712014D01*
X145890586Y-129686497D01*
X145804731Y-129662281D01*
X145727676Y-129638243D01*
X145655684Y-129613261D01*
X145585018Y-129586215D01*
X145565829Y-129578473D01*
X145464898Y-129537349D01*
X145301669Y-129549097D01*
X145241045Y-129554276D01*
X145166280Y-129561933D01*
X145083306Y-129571385D01*
X144998056Y-129581951D01*
X144916460Y-129592947D01*
X144899443Y-129595377D01*
X144823227Y-129606165D01*
X144745586Y-129616755D01*
X144671479Y-129626499D01*
X144605867Y-129634751D01*
X144553707Y-129640861D01*
X144539931Y-129642335D01*
X144463728Y-129647823D01*
X144376901Y-129650173D01*
X144285189Y-129649544D01*
X144194331Y-129646099D01*
X144110063Y-129639999D01*
X144038125Y-129631403D01*
X144015760Y-129627619D01*
X143832872Y-129602881D01*
X143641604Y-129595206D01*
X143444197Y-129604334D01*
X143242895Y-129630006D01*
X143039942Y-129671964D01*
X142837581Y-129729948D01*
X142698142Y-129779679D01*
X142473405Y-129876445D01*
X142248322Y-129993038D01*
X142023632Y-130128997D01*
X141800073Y-130283858D01*
X141578384Y-130457158D01*
X141468101Y-130550901D01*
X141363863Y-130641923D01*
X141370064Y-130693141D01*
X141381722Y-130761251D01*
X141401498Y-130843829D01*
X141428263Y-130937247D01*
X141460889Y-131037880D01*
X141498249Y-131142098D01*
X141539217Y-131246276D01*
X141550203Y-131272631D01*
X141621756Y-131430992D01*
X141697214Y-131576755D01*
X141775671Y-131708582D01*
X141856221Y-131825136D01*
X141937958Y-131925079D01*
X142019977Y-132007072D01*
X142080445Y-132055496D01*
X142137474Y-132090674D01*
X142214246Y-132128964D01*
X142310444Y-132170228D01*
X142425752Y-132214327D01*
X142522240Y-132248378D01*
X142656223Y-132291007D01*
X142783630Y-132324245D01*
X142910159Y-132349096D01*
X143041512Y-132366566D01*
X143183387Y-132377659D01*
X143279160Y-132381775D01*
X143500538Y-132380158D01*
X143717079Y-132361433D01*
X143927653Y-132326128D01*
X144131130Y-132274770D01*
X144326380Y-132207887D01*
X144512275Y-132126007D01*
X144687685Y-132029656D01*
X144851480Y-131919364D01*
X145002530Y-131795656D01*
X145139707Y-131659060D01*
X145261881Y-131510105D01*
X145318105Y-131429464D01*
X145370358Y-131344877D01*
X145417104Y-131257338D01*
X145461035Y-131161347D01*
X145504844Y-131051404D01*
X145510212Y-131037034D01*
X145536793Y-130966402D01*
X145556981Y-130915002D01*
X145570839Y-130882801D01*
X145578435Y-130869764D01*
X145579835Y-130875859D01*
X145575103Y-130901052D01*
X145564306Y-130945309D01*
X145547509Y-131008596D01*
X145544542Y-131019488D01*
X145505056Y-131157629D01*
X145461781Y-131297515D01*
X145415942Y-131435732D01*
X145368763Y-131568864D01*
X145321469Y-131693496D01*
X145275284Y-131806212D01*
X145231432Y-131903597D01*
X145217048Y-131933055D01*
X145113018Y-132121683D01*
X144996243Y-132297924D01*
X144867762Y-132460828D01*
X144728613Y-132609449D01*
X144579835Y-132742840D01*
X144422467Y-132860051D01*
X144257547Y-132960136D01*
X144086113Y-133042147D01*
X143944363Y-133094302D01*
X143823063Y-133127837D01*
X143696912Y-133153091D01*
X143571688Y-133169269D01*
X143453170Y-133175577D01*
X143370600Y-133173242D01*
X143328116Y-133169526D01*
X143277127Y-133164008D01*
X143221174Y-133157196D01*
X143163798Y-133149596D01*
X143108542Y-133141716D01*
X143058947Y-133134063D01*
X143018554Y-133127143D01*
X142990906Y-133121464D01*
X142979544Y-133117533D01*
X142979440Y-133117250D01*
X142988727Y-133112925D01*
X143013835Y-133105843D01*
X143050628Y-133097083D01*
X143083580Y-133090027D01*
X143168746Y-133069054D01*
X143245052Y-133043386D01*
X143310950Y-133014126D01*
X143364894Y-132982381D01*
X143405336Y-132949255D01*
X143430731Y-132915855D01*
X143439531Y-132883285D01*
X143430191Y-132852650D01*
X143425210Y-132845868D01*
X143408175Y-132832263D01*
X143379871Y-132815952D01*
X143360440Y-132806695D01*
X143341788Y-132798874D01*
X143322099Y-132791614D01*
X143298838Y-132784266D01*
X143269470Y-132776184D01*
X143231459Y-132766721D01*
X143182271Y-132755230D01*
X143119370Y-132741065D01*
X143040221Y-132723578D01*
X143000630Y-132714892D01*
X142880161Y-132686299D01*
X142778256Y-132657138D01*
X142693159Y-132626660D01*
X142623115Y-132594117D01*
X142566369Y-132558758D01*
X142521165Y-132519836D01*
X142506867Y-132504210D01*
X142485402Y-132480601D01*
X142470595Y-132470313D01*
X142456712Y-132470561D01*
X142446161Y-132474735D01*
X142427399Y-132487024D01*
X142420640Y-132497911D01*
X142429520Y-132515387D01*
X142455036Y-132540327D01*
X142495500Y-132571415D01*
X142549224Y-132607331D01*
X142601129Y-132638954D01*
X142657298Y-132671973D01*
X142721621Y-132709817D01*
X142784753Y-132746985D01*
X142821960Y-132768907D01*
X142897204Y-132814836D01*
X142954177Y-132853300D01*
X142993309Y-132884784D01*
X143015029Y-132909769D01*
X143019768Y-132928738D01*
X143007956Y-132942175D01*
X142983302Y-132949978D01*
X142946512Y-132952934D01*
X142896264Y-132951666D01*
X142838855Y-132946709D01*
X142780579Y-132938596D01*
X142730520Y-132928542D01*
X142673567Y-132918205D01*
X142618388Y-132914221D01*
X142570912Y-132916698D01*
X142538644Y-132924997D01*
X142516563Y-132942631D01*
X142501020Y-132966491D01*
X142495983Y-133003475D01*
X142505876Y-133051108D01*
X142529650Y-133107484D01*
X142566258Y-133170695D01*
X142614654Y-133238835D01*
X142673789Y-133309997D01*
X142712817Y-133352134D01*
X142833963Y-133466864D01*
X142965210Y-133569313D01*
X143107625Y-133659932D01*
X143262274Y-133739169D01*
X143430223Y-133807474D01*
X143612539Y-133865298D01*
X143810288Y-133913090D01*
X144024537Y-133951300D01*
X144183400Y-133972412D01*
X144232357Y-133976540D01*
X144301336Y-133979888D01*
X144390053Y-133982450D01*
X144498225Y-133984219D01*
X144625568Y-133985189D01*
X144726960Y-133985388D01*
X144845478Y-133985215D01*
X144946482Y-133984524D01*
X145032776Y-133983053D01*
X145107164Y-133980540D01*
X145172450Y-133976721D01*
X145231438Y-133971332D01*
X145286931Y-133964112D01*
X145341735Y-133954796D01*
X145398653Y-133943122D01*
X145460489Y-133928827D01*
X145530047Y-133911647D01*
X145540177Y-133909094D01*
X145765817Y-133841743D01*
X145986615Y-133755168D01*
X146201776Y-133650059D01*
X146410503Y-133527106D01*
X146611999Y-133386997D01*
X146805468Y-133230424D01*
X146990114Y-133058075D01*
X147165140Y-132870640D01*
X147329751Y-132668809D01*
X147483149Y-132453270D01*
X147624539Y-132224715D01*
X147745358Y-131999473D01*
X147792521Y-131903241D01*
X147832250Y-131817814D01*
X147867390Y-131736467D01*
X147900786Y-131652476D01*
X147935284Y-131559118D01*
X147953998Y-131506360D01*
X147971924Y-131456546D01*
X147987355Y-131416058D01*
X147999195Y-131387581D01*
X148006348Y-131373799D01*
X148007977Y-131374280D01*
X148006190Y-131391034D01*
X148000945Y-131423645D01*
X147992950Y-131468079D01*
X147982917Y-131520306D01*
X147977576Y-131547000D01*
X147899353Y-131885251D01*
X147803694Y-132214634D01*
X147690882Y-132534558D01*
X147561198Y-132844433D01*
X147414924Y-133143668D01*
X147252344Y-133431672D01*
X147073738Y-133707856D01*
X146879390Y-133971628D01*
X146735128Y-134147404D01*
X146657387Y-134234286D01*
X146580902Y-134311212D01*
X146500288Y-134383070D01*
X146410163Y-134454749D01*
X146339158Y-134506988D01*
X146138261Y-134638696D01*
X145923742Y-134755613D01*
X145695981Y-134857678D01*
X145455355Y-134944828D01*
X145202246Y-135017000D01*
X144937030Y-135074131D01*
X144660087Y-135116158D01*
X144371796Y-135143019D01*
X144072537Y-135154652D01*
X143762686Y-135150993D01*
X143442625Y-135131979D01*
X143112731Y-135097549D01*
X142925915Y-135071821D01*
X142869234Y-135063629D01*
X142819891Y-135057015D01*
X142781239Y-135052384D01*
X142756629Y-135050145D01*
X142749302Y-135050351D01*
X142756449Y-135055677D01*
X142779022Y-135067245D01*
X142813702Y-135083458D01*
X142857166Y-135102718D01*
X142866847Y-135106892D01*
X143125408Y-135208663D01*
X143397218Y-135298028D01*
X143678650Y-135373898D01*
X143949720Y-135432125D01*
X144078628Y-135455518D01*
X144197846Y-135474995D01*
X144311377Y-135490936D01*
X144423223Y-135503716D01*
X144537387Y-135513714D01*
X144657870Y-135521307D01*
X144788676Y-135526871D01*
X144933807Y-135530785D01*
X145011440Y-135532216D01*
X145114149Y-135534093D01*
X145199006Y-135536108D01*
X145265571Y-135538243D01*
X145313405Y-135540479D01*
X145342070Y-135542797D01*
X145351125Y-135545178D01*
X145346720Y-135546673D01*
X145321264Y-135550937D01*
X145280196Y-135557403D01*
X145228014Y-135565381D01*
X145169219Y-135574179D01*
X145128280Y-135580203D01*
X144738710Y-135629810D01*
X144361182Y-135663070D01*
X143995699Y-135679981D01*
X143642263Y-135680545D01*
X143300877Y-135664763D01*
X142971545Y-135632633D01*
X142654270Y-135584157D01*
X142349055Y-135519335D01*
X142055903Y-135438167D01*
X141774816Y-135340654D01*
X141505799Y-135226796D01*
X141470680Y-135210302D01*
X141346319Y-135148265D01*
X141223961Y-135081637D01*
X141106766Y-135012402D01*
X140997894Y-134942544D01*
X140900504Y-134874047D01*
X140817757Y-134808894D01*
X140784072Y-134779303D01*
X140744889Y-134744381D01*
X140708190Y-134713499D01*
X140678013Y-134689940D01*
X140658398Y-134676990D01*
X140657988Y-134676786D01*
X140637072Y-134667726D01*
X140627826Y-134669308D01*
X140624103Y-134682153D01*
X140627842Y-134708273D01*
X140644080Y-134745898D01*
X140670870Y-134792244D01*
X140706265Y-134844525D01*
X140748319Y-134899955D01*
X140795086Y-134955749D01*
X140844619Y-135009121D01*
X140870328Y-135034520D01*
X141020078Y-135165334D01*
X141183469Y-135284309D01*
X141361023Y-135391669D01*
X141553262Y-135487634D01*
X141760707Y-135572428D01*
X141983882Y-135646274D01*
X142223307Y-135709392D01*
X142479506Y-135762007D01*
X142639080Y-135788264D01*
X142719212Y-135799358D01*
X142812372Y-135810637D01*
X142914908Y-135821791D01*
X143023172Y-135832505D01*
X143133512Y-135842467D01*
X143242281Y-135851364D01*
X143345828Y-135858884D01*
X143440503Y-135864714D01*
X143522658Y-135868540D01*
X143588641Y-135870051D01*
X143593612Y-135870063D01*
X143633409Y-135870959D01*
X143653803Y-135873478D01*
X143655629Y-135877403D01*
X143639718Y-135882516D01*
X143606906Y-135888599D01*
X143558025Y-135895435D01*
X143493909Y-135902806D01*
X143451880Y-135907065D01*
X143364981Y-135913891D01*
X143262298Y-135919264D01*
X143147691Y-135923185D01*
X143025016Y-135925651D01*
X142898132Y-135926663D01*
X142770899Y-135926219D01*
X142647174Y-135924318D01*
X142530816Y-135920959D01*
X142425683Y-135916141D01*
X142335633Y-135909863D01*
X142308880Y-135907369D01*
X141969399Y-135865211D01*
X141642791Y-135808304D01*
X141327501Y-135736212D01*
X141021976Y-135648499D01*
X140724663Y-135544728D01*
X140434010Y-135424462D01*
X140205465Y-135316193D01*
X140138931Y-135282118D01*
X140066018Y-135243486D01*
X139991268Y-135202814D01*
X139919223Y-135162616D01*
X139854423Y-135125407D01*
X139801411Y-135093701D01*
X139784120Y-135082865D01*
X139753640Y-135063390D01*
X139779040Y-135092025D01*
X139800833Y-135113421D01*
X139836176Y-135144402D01*
X139882145Y-135182657D01*
X139935817Y-135225874D01*
X139994266Y-135271741D01*
X140054572Y-135317946D01*
X140113808Y-135362177D01*
X140169053Y-135402124D01*
X140188266Y-135415613D01*
X140405943Y-135557519D01*
X140642869Y-135693974D01*
X140899150Y-135825033D01*
X141174893Y-135950753D01*
X141338600Y-136019149D01*
X141445561Y-136060964D01*
X141564549Y-136104850D01*
X141691515Y-136149487D01*
X141822410Y-136193560D01*
X141953186Y-136235749D01*
X142079795Y-136274737D01*
X142198188Y-136309207D01*
X142304317Y-136337841D01*
X142359680Y-136351497D01*
X142406384Y-136362895D01*
X142447990Y-136373749D01*
X142479066Y-136382603D01*
X142491760Y-136386879D01*
X142504056Y-136392800D01*
X142501407Y-136395776D01*
X142481633Y-136396636D01*
X142466360Y-136396553D01*
X142434094Y-136394921D01*
X142388938Y-136390992D01*
X142338103Y-136385443D01*
X142308880Y-136381753D01*
X142112376Y-136354519D01*
X141933182Y-136327458D01*
X141768303Y-136299967D01*
X141614743Y-136271448D01*
X141469507Y-136241299D01*
X141329600Y-136208919D01*
X141192026Y-136173708D01*
X141053790Y-136135064D01*
X141000396Y-136119335D01*
X140681196Y-136014774D01*
X140370973Y-135894550D01*
X140070527Y-135759252D01*
X139780660Y-135609467D01*
X139502173Y-135445782D01*
X139235867Y-135268785D01*
X138982543Y-135079064D01*
X138743002Y-134877206D01*
X138518045Y-134663798D01*
X138308474Y-134439428D01*
X138115089Y-134204684D01*
X137938693Y-133960152D01*
X137834259Y-133797440D01*
X137735121Y-133630104D01*
X137642839Y-133463839D01*
X137559249Y-133302181D01*
X137486188Y-133148665D01*
X137432512Y-133024216D01*
X137406698Y-132960887D01*
X137379337Y-132893829D01*
X137353172Y-132829759D01*
X137330944Y-132775391D01*
X137324473Y-132759584D01*
X137299205Y-132693925D01*
X137271157Y-132614051D01*
X137240884Y-132522056D01*
X137208940Y-132420033D01*
X137175878Y-132310074D01*
X137142252Y-132194272D01*
X137108617Y-132074721D01*
X137075527Y-131953511D01*
X137043534Y-131832738D01*
X137013194Y-131714493D01*
X136985060Y-131600869D01*
X136959687Y-131493959D01*
X136937627Y-131395856D01*
X136919435Y-131308653D01*
X136905666Y-131234442D01*
X136896872Y-131175317D01*
X136893608Y-131133369D01*
X136893600Y-131131711D01*
X136891970Y-131109957D01*
X136887138Y-131108010D01*
X136879190Y-131125624D01*
X136868213Y-131162553D01*
X136854292Y-131218552D01*
X136838696Y-131287920D01*
X136774410Y-131630679D01*
X136730433Y-131972801D01*
X136706767Y-132314306D01*
X136703411Y-132655215D01*
X136720365Y-132995552D01*
X136757631Y-133335337D01*
X136815208Y-133674593D01*
X136884606Y-133980320D01*
X136899523Y-134035301D01*
X136919674Y-134104206D01*
X136943762Y-134183050D01*
X136970491Y-134267848D01*
X136998566Y-134354615D01*
X137026690Y-134439366D01*
X137053569Y-134518116D01*
X137077905Y-134586880D01*
X137098405Y-134641673D01*
X137105122Y-134658500D01*
X137116280Y-134687257D01*
X137122591Y-134706623D01*
X137123028Y-134711840D01*
X137114759Y-134704165D01*
X137096039Y-134682727D01*
X137068763Y-134649905D01*
X137034823Y-134608077D01*
X136996111Y-134559624D01*
X136954521Y-134506924D01*
X136911943Y-134452356D01*
X136870272Y-134398300D01*
X136831400Y-134347135D01*
X136807822Y-134315600D01*
X136580750Y-133993995D01*
X136373548Y-133668309D01*
X136186225Y-133338558D01*
X136018787Y-133004764D01*
X135871244Y-132666945D01*
X135743601Y-132325120D01*
X135635868Y-131979308D01*
X135548051Y-131629529D01*
X135480159Y-131275802D01*
X135432199Y-130918146D01*
X135428945Y-130886600D01*
X135423962Y-130821488D01*
X135420230Y-130740447D01*
X135417749Y-130647828D01*
X135416518Y-130547984D01*
X135416538Y-130445266D01*
X135417807Y-130344027D01*
X135420325Y-130248617D01*
X135424094Y-130163390D01*
X135428983Y-130094120D01*
X135466803Y-129773319D01*
X135521725Y-129459378D01*
X135593368Y-129153063D01*
X135665289Y-128909532D01*
X140729000Y-128909532D01*
X142179398Y-128910006D01*
X143629797Y-128910480D01*
X143794838Y-128807201D01*
X143930922Y-128723734D01*
X144074418Y-128638792D01*
X144218645Y-128556230D01*
X144356921Y-128479901D01*
X144427210Y-128442397D01*
X144565497Y-128369648D01*
X144558787Y-128337804D01*
X144545785Y-128293647D01*
X144523959Y-128238373D01*
X144495883Y-128177686D01*
X144464132Y-128117292D01*
X144443225Y-128081676D01*
X144353551Y-127954799D01*
X144250459Y-127843020D01*
X144134348Y-127746539D01*
X144005616Y-127665555D01*
X143864664Y-127600267D01*
X143711890Y-127550875D01*
X143547694Y-127517579D01*
X143372474Y-127500576D01*
X143275061Y-127498240D01*
X143113142Y-127506881D01*
X142961151Y-127532698D01*
X142819503Y-127575533D01*
X142688614Y-127635227D01*
X142568901Y-127711621D01*
X142460779Y-127804556D01*
X142453518Y-127811815D01*
X142423128Y-127843028D01*
X142399333Y-127868476D01*
X142384983Y-127885048D01*
X142382128Y-127889775D01*
X142392396Y-127888067D01*
X142417029Y-127880958D01*
X142451247Y-127869858D01*
X142461280Y-127866439D01*
X142559267Y-127842961D01*
X142657238Y-127839600D01*
X142753981Y-127856187D01*
X142848285Y-127892553D01*
X142911152Y-127928992D01*
X142939165Y-127949578D01*
X142972331Y-127976921D01*
X143007096Y-128007689D01*
X143039908Y-128038553D01*
X143067214Y-128066183D01*
X143085459Y-128087249D01*
X143091200Y-128097737D01*
X143081831Y-128102146D01*
X143056502Y-128108433D01*
X143019377Y-128115670D01*
X142985902Y-128121223D01*
X142877780Y-128143135D01*
X142764038Y-128175335D01*
X142654475Y-128214872D01*
X142606860Y-128235310D01*
X142506258Y-128286186D01*
X142399152Y-128349237D01*
X142291410Y-128420519D01*
X142188899Y-128496085D01*
X142097486Y-128571992D01*
X142073221Y-128594131D01*
X142006151Y-128656871D01*
X142015189Y-128616647D01*
X142049392Y-128509524D01*
X142101273Y-128410899D01*
X142169531Y-128322006D01*
X142252865Y-128244080D01*
X142349976Y-128178356D01*
X142459563Y-128126070D01*
X142568271Y-128091400D01*
X142603471Y-128082127D01*
X142621410Y-128075701D01*
X142624655Y-128070530D01*
X142615776Y-128065024D01*
X142612879Y-128063788D01*
X142591181Y-128059325D01*
X142553328Y-128056102D01*
X142503444Y-128054101D01*
X142445656Y-128053302D01*
X142384090Y-128053685D01*
X142322869Y-128055230D01*
X142266121Y-128057917D01*
X142217970Y-128061728D01*
X142186960Y-128065822D01*
X142136703Y-128075097D01*
X142082357Y-128085840D01*
X142042054Y-128094349D01*
X141973349Y-128109525D01*
X141901461Y-128206435D01*
X141815314Y-128313547D01*
X141722814Y-128410265D01*
X141621974Y-128497886D01*
X141510805Y-128577705D01*
X141387320Y-128651020D01*
X141249532Y-128719127D01*
X141095452Y-128783322D01*
X140923095Y-128844901D01*
X140922040Y-128845252D01*
X140729000Y-128909532D01*
X135665289Y-128909532D01*
X135681352Y-128855142D01*
X135785294Y-128566383D01*
X135904813Y-128287553D01*
X136039530Y-128019419D01*
X136189061Y-127762749D01*
X136353026Y-127518311D01*
X136531044Y-127286872D01*
X136722734Y-127069199D01*
X136927715Y-126866060D01*
X137111962Y-126705516D01*
X137221403Y-126618638D01*
X137323178Y-126544530D01*
X137422350Y-126480125D01*
X137523983Y-126422354D01*
X137633137Y-126368148D01*
X137754877Y-126314439D01*
X137762280Y-126311338D01*
X137889800Y-126261232D01*
X138020492Y-126215822D01*
X138151160Y-126175913D01*
X138278608Y-126142312D01*
X138399642Y-126115823D01*
X138511065Y-126097252D01*
X138609683Y-126087406D01*
X138656099Y-126086000D01*
X138712329Y-126087242D01*
X138757379Y-126090728D01*
X138788461Y-126096097D01*
X138802786Y-126102990D01*
X138803420Y-126105050D01*
X138795315Y-126113025D01*
X138773949Y-126128746D01*
X138743365Y-126149298D01*
X138731399Y-126156986D01*
X138620010Y-126239664D01*
X138518711Y-126339429D01*
X138427999Y-126455454D01*
X138348372Y-126586913D01*
X138280326Y-126732978D01*
X138224360Y-126892822D01*
X138180970Y-127065620D01*
X138179032Y-127075115D01*
X138164098Y-127160205D01*
X138150530Y-127258781D01*
X138138633Y-127366509D01*
X138128712Y-127479055D01*
X138121073Y-127592086D01*
X138116021Y-127701266D01*
X138113862Y-127802262D01*
X138114900Y-127890739D01*
X138117803Y-127944307D01*
X138125073Y-128036169D01*
X138223076Y-127947387D01*
X138474900Y-127732071D01*
X138739322Y-127530595D01*
X139014727Y-127343861D01*
X139299497Y-127172772D01*
X139592018Y-127018232D01*
X139890674Y-126881142D01*
X140193848Y-126762405D01*
X140285031Y-126732769D01*
X143876448Y-126732769D01*
X143888864Y-126852642D01*
X143918602Y-126965455D01*
X143965085Y-127069524D01*
X144027738Y-127163165D01*
X144097332Y-127237005D01*
X144187028Y-127305329D01*
X144283938Y-127354736D01*
X144387485Y-127385078D01*
X144497090Y-127396204D01*
X144612178Y-127387966D01*
X144652598Y-127380697D01*
X144782788Y-127344767D01*
X144912845Y-127291454D01*
X144989057Y-127251688D01*
X145028773Y-127228260D01*
X145073137Y-127200635D01*
X145118895Y-127171019D01*
X145162793Y-127141623D01*
X145201574Y-127114653D01*
X145231983Y-127092320D01*
X145250766Y-127076830D01*
X145255267Y-127071078D01*
X145246903Y-127064462D01*
X145223750Y-127049664D01*
X145188731Y-127028464D01*
X145144770Y-127002642D01*
X145109597Y-126982402D01*
X144963914Y-126899246D01*
X144873377Y-126936950D01*
X144832752Y-126953399D01*
X144800965Y-126964215D01*
X144771528Y-126970584D01*
X144737956Y-126973691D01*
X144693759Y-126974721D01*
X144666000Y-126974827D01*
X144597895Y-126972912D01*
X144545566Y-126965999D01*
X144504791Y-126952684D01*
X144471345Y-126931560D01*
X144441005Y-126901220D01*
X144439467Y-126899403D01*
X144409402Y-126851004D01*
X144386041Y-126787514D01*
X144370164Y-126713280D01*
X144362547Y-126632648D01*
X144363971Y-126549965D01*
X144368880Y-126505244D01*
X144373291Y-126469956D01*
X144373243Y-126449871D01*
X144368257Y-126440267D01*
X144362038Y-126437379D01*
X144343497Y-126433626D01*
X144310031Y-126428219D01*
X144265236Y-126421624D01*
X144212707Y-126414305D01*
X144156042Y-126406730D01*
X144098837Y-126399362D01*
X144044687Y-126392667D01*
X143997189Y-126387111D01*
X143959940Y-126383159D01*
X143936534Y-126381277D01*
X143930237Y-126381495D01*
X143922952Y-126396964D01*
X143913996Y-126428143D01*
X143904320Y-126470590D01*
X143894872Y-126519864D01*
X143886602Y-126571524D01*
X143881931Y-126607520D01*
X143876448Y-126732769D01*
X140285031Y-126732769D01*
X140499925Y-126662925D01*
X140545481Y-126649862D01*
X140702474Y-126608812D01*
X140868714Y-126571134D01*
X141037382Y-126538156D01*
X141201661Y-126511207D01*
X141354733Y-126491614D01*
X141361460Y-126490904D01*
X141408957Y-126485471D01*
X141448098Y-126480090D01*
X141475020Y-126475356D01*
X141485862Y-126471867D01*
X141485920Y-126471671D01*
X141477177Y-126464400D01*
X141453552Y-126451195D01*
X141418950Y-126433861D01*
X141377278Y-126414206D01*
X141332440Y-126394037D01*
X141288343Y-126375160D01*
X141248891Y-126359382D01*
X141223469Y-126350261D01*
X141059574Y-126306563D01*
X140886406Y-126280060D01*
X140705427Y-126270695D01*
X140518101Y-126278411D01*
X140325891Y-126303149D01*
X140130258Y-126344854D01*
X139941600Y-126400460D01*
X139844770Y-126434931D01*
X139743113Y-126474841D01*
X139639779Y-126518678D01*
X139537920Y-126564930D01*
X139440686Y-126612086D01*
X139351228Y-126658632D01*
X139272698Y-126703059D01*
X139208247Y-126743853D01*
X139174223Y-126768626D01*
X139103084Y-126822783D01*
X139045291Y-126862591D01*
X139000208Y-126888445D01*
X138967196Y-126900740D01*
X138959475Y-126901850D01*
X138938763Y-126900509D01*
X138930033Y-126888444D01*
X138927773Y-126873400D01*
X138931803Y-126844940D01*
X138946851Y-126803191D01*
X138971366Y-126750831D01*
X139003797Y-126690539D01*
X139042595Y-126624992D01*
X139086207Y-126556868D01*
X139133084Y-126488846D01*
X139181676Y-126423603D01*
X139205729Y-126393352D01*
X139275806Y-126307701D01*
X139336075Y-126235449D01*
X139389298Y-126174031D01*
X139438241Y-126120880D01*
X139485666Y-126073434D01*
X139534337Y-126029126D01*
X139587019Y-125985392D01*
X139646476Y-125939666D01*
X139715470Y-125889385D01*
X139796766Y-125831982D01*
X139852540Y-125793097D01*
X139941357Y-125729677D01*
X140013083Y-125674599D01*
X140068661Y-125626835D01*
X140109032Y-125585358D01*
X140135138Y-125549143D01*
X140147920Y-125517162D01*
X140148320Y-125488388D01*
X140144249Y-125475070D01*
X140136206Y-125459355D01*
X140124586Y-125446033D01*
X140106560Y-125433707D01*
X140079302Y-125420984D01*
X140039982Y-125406468D01*
X139985773Y-125388764D01*
X139940999Y-125374820D01*
X139743108Y-125318480D01*
X139546065Y-125272197D01*
X139342969Y-125234513D01*
X139138858Y-125205440D01*
X139088407Y-125199821D01*
X139035796Y-125195393D01*
X138977913Y-125192039D01*
X138911645Y-125189641D01*
X138833878Y-125188081D01*
X138741500Y-125187242D01*
X138651280Y-125187008D01*
X138538000Y-125187280D01*
X138440988Y-125188392D01*
X138356199Y-125190608D01*
X138279590Y-125194190D01*
X138207116Y-125199403D01*
X138134734Y-125206508D01*
X138058399Y-125215769D01*
X137974067Y-125227449D01*
X137929920Y-125233938D01*
X137624218Y-125289199D01*
X137316561Y-125363892D01*
X137008268Y-125457393D01*
X136700659Y-125569081D01*
X136395055Y-125698332D01*
X136092777Y-125844524D01*
X135795142Y-126007035D01*
X135503474Y-126185242D01*
X135219090Y-126378522D01*
X134943312Y-126586252D01*
X134780435Y-126719327D01*
X134737784Y-126754878D01*
X134700802Y-126784985D01*
X134672136Y-126807548D01*
X134654436Y-126820471D01*
X134649997Y-126822664D01*
X134651571Y-126811038D01*
X134662308Y-126785456D01*
X134680487Y-126749126D01*
X134704390Y-126705252D01*
X134732299Y-126657041D01*
X134762493Y-126607699D01*
X134779403Y-126581315D01*
X134922685Y-126375974D01*
X135079042Y-126179481D01*
X135249918Y-125990327D01*
X135436761Y-125807005D01*
X135641016Y-125628007D01*
X135859276Y-125455481D01*
X136149309Y-125249508D01*
X136453451Y-125058111D01*
X136771627Y-124881313D01*
X137103763Y-124719138D01*
X137449785Y-124571608D01*
X137809619Y-124438748D01*
X138183191Y-124320580D01*
X138570427Y-124217129D01*
X138971253Y-124128416D01*
X139385595Y-124054467D01*
X139813379Y-123995303D01*
X140254532Y-123950949D01*
X140708978Y-123921428D01*
X140718840Y-123920959D01*
X140820316Y-123917201D01*
X140933311Y-123914816D01*
X141054160Y-123913750D01*
X141179195Y-123913949D01*
X141179195Y-123913949D01*
G37*
X141179195Y-123913949D02*
X141304752Y-123915360D01*
X141427164Y-123917931D01*
X141542764Y-123921608D01*
X141647886Y-123926338D01*
X141738865Y-123932068D01*
X141790720Y-123936502D01*
X142140001Y-123977468D01*
X142479140Y-124031175D01*
X142811686Y-124098481D01*
X143141183Y-124180240D01*
X143471180Y-124277310D01*
X143805223Y-124390547D01*
X144046240Y-124481012D01*
X144115877Y-124507993D01*
X144191717Y-124537111D01*
X144266726Y-124565682D01*
X144333871Y-124591023D01*
X144365941Y-124602998D01*
X144625107Y-124709654D01*
X144876903Y-124834056D01*
X145120042Y-124975188D01*
X145353236Y-125132035D01*
X145575196Y-125303579D01*
X145784635Y-125488806D01*
X145980264Y-125686699D01*
X146160797Y-125896243D01*
X146324945Y-126116422D01*
X146370911Y-126184563D01*
X146435684Y-126283220D01*
X146490382Y-126367412D01*
X146536333Y-126439497D01*
X146574862Y-126501832D01*
X146607295Y-126556774D01*
X146634958Y-126606680D01*
X146659177Y-126653907D01*
X146681277Y-126700812D01*
X146702585Y-126749752D01*
X146724427Y-126803084D01*
X146737779Y-126836749D01*
X146757740Y-126890212D01*
X146781911Y-126959345D01*
X146809050Y-127040241D01*
X146837912Y-127128995D01*
X146867254Y-127221703D01*
X146895833Y-127314458D01*
X146922405Y-127403355D01*
X146945727Y-127484490D01*
X146956721Y-127524398D01*
X146978211Y-127603055D01*
X146996015Y-127665722D01*
X147011363Y-127716125D01*
X147025482Y-127757992D01*
X147039603Y-127795049D01*
X147054954Y-127831022D01*
X147065360Y-127853838D01*
X147142470Y-127998681D01*
X147236817Y-128140129D01*
X147345321Y-128274431D01*
X147464901Y-128397837D01*
X147592477Y-128506597D01*
X147615857Y-128524184D01*
X147695416Y-128590001D01*
X147763407Y-128662833D01*
X147823662Y-128747302D01*
X147873184Y-128834650D01*
X147934485Y-128975122D01*
X147978826Y-129125248D01*
X148006309Y-129283651D01*
X148017039Y-129448954D01*
X148011120Y-129619778D01*
X147988655Y-129794748D01*
X147949747Y-129972486D01*
X147894502Y-130151614D01*
X147823023Y-130330755D01*
X147748895Y-130483304D01*
X147719321Y-130537644D01*
X147687698Y-130592803D01*
X147656153Y-130645358D01*
X147626815Y-130691887D01*
X147601811Y-130728969D01*
X147583270Y-130753180D01*
X147577364Y-130759164D01*
X147565596Y-130762701D01*
X147549435Y-130756083D01*
X147527838Y-130738163D01*
X147499759Y-130707798D01*
X147464153Y-130663842D01*
X147419976Y-130605150D01*
X147366181Y-130530576D01*
X147357119Y-130517810D01*
X147261438Y-130388504D01*
X147169539Y-130276758D01*
X147079267Y-130180696D01*
X146988469Y-130098447D01*
X146894988Y-130028136D01*
X146796671Y-129967888D01*
X146691362Y-129915832D01*
X146639750Y-129894028D01*
X146586398Y-129873483D01*
X146530134Y-129853832D01*
X146468133Y-129834264D01*
X146397569Y-129813966D01*
X146315619Y-129792126D01*
X146219455Y-129767934D01*
X146106253Y-129740576D01*
X146103640Y-129739953D01*
X145988977Y-129712014D01*
X145890586Y-129686497D01*
X145804731Y-129662281D01*
X145727676Y-129638243D01*
X145655684Y-129613261D01*
X145585018Y-129586215D01*
X145565829Y-129578473D01*
X145464898Y-129537349D01*
X145301669Y-129549097D01*
X145241045Y-129554276D01*
X145166280Y-129561933D01*
X145083306Y-129571385D01*
X144998056Y-129581951D01*
X144916460Y-129592947D01*
X144899443Y-129595377D01*
X144823227Y-129606165D01*
X144745586Y-129616755D01*
X144671479Y-129626499D01*
X144605867Y-129634751D01*
X144553707Y-129640861D01*
X144539931Y-129642335D01*
X144463728Y-129647823D01*
X144376901Y-129650173D01*
X144285189Y-129649544D01*
X144194331Y-129646099D01*
X144110063Y-129639999D01*
X144038125Y-129631403D01*
X144015760Y-129627619D01*
X143832872Y-129602881D01*
X143641604Y-129595206D01*
X143444197Y-129604334D01*
X143242895Y-129630006D01*
X143039942Y-129671964D01*
X142837581Y-129729948D01*
X142698142Y-129779679D01*
X142473405Y-129876445D01*
X142248322Y-129993038D01*
X142023632Y-130128997D01*
X141800073Y-130283858D01*
X141578384Y-130457158D01*
X141468101Y-130550901D01*
X141363863Y-130641923D01*
X141370064Y-130693141D01*
X141381722Y-130761251D01*
X141401498Y-130843829D01*
X141428263Y-130937247D01*
X141460889Y-131037880D01*
X141498249Y-131142098D01*
X141539217Y-131246276D01*
X141550203Y-131272631D01*
X141621756Y-131430992D01*
X141697214Y-131576755D01*
X141775671Y-131708582D01*
X141856221Y-131825136D01*
X141937958Y-131925079D01*
X142019977Y-132007072D01*
X142080445Y-132055496D01*
X142137474Y-132090674D01*
X142214246Y-132128964D01*
X142310444Y-132170228D01*
X142425752Y-132214327D01*
X142522240Y-132248378D01*
X142656223Y-132291007D01*
X142783630Y-132324245D01*
X142910159Y-132349096D01*
X143041512Y-132366566D01*
X143183387Y-132377659D01*
X143279160Y-132381775D01*
X143500538Y-132380158D01*
X143717079Y-132361433D01*
X143927653Y-132326128D01*
X144131130Y-132274770D01*
X144326380Y-132207887D01*
X144512275Y-132126007D01*
X144687685Y-132029656D01*
X144851480Y-131919364D01*
X145002530Y-131795656D01*
X145139707Y-131659060D01*
X145261881Y-131510105D01*
X145318105Y-131429464D01*
X145370358Y-131344877D01*
X145417104Y-131257338D01*
X145461035Y-131161347D01*
X145504844Y-131051404D01*
X145510212Y-131037034D01*
X145536793Y-130966402D01*
X145556981Y-130915002D01*
X145570839Y-130882801D01*
X145578435Y-130869764D01*
X145579835Y-130875859D01*
X145575103Y-130901052D01*
X145564306Y-130945309D01*
X145547509Y-131008596D01*
X145544542Y-131019488D01*
X145505056Y-131157629D01*
X145461781Y-131297515D01*
X145415942Y-131435732D01*
X145368763Y-131568864D01*
X145321469Y-131693496D01*
X145275284Y-131806212D01*
X145231432Y-131903597D01*
X145217048Y-131933055D01*
X145113018Y-132121683D01*
X144996243Y-132297924D01*
X144867762Y-132460828D01*
X144728613Y-132609449D01*
X144579835Y-132742840D01*
X144422467Y-132860051D01*
X144257547Y-132960136D01*
X144086113Y-133042147D01*
X143944363Y-133094302D01*
X143823063Y-133127837D01*
X143696912Y-133153091D01*
X143571688Y-133169269D01*
X143453170Y-133175577D01*
X143370600Y-133173242D01*
X143328116Y-133169526D01*
X143277127Y-133164008D01*
X143221174Y-133157196D01*
X143163798Y-133149596D01*
X143108542Y-133141716D01*
X143058947Y-133134063D01*
X143018554Y-133127143D01*
X142990906Y-133121464D01*
X142979544Y-133117533D01*
X142979440Y-133117250D01*
X142988727Y-133112925D01*
X143013835Y-133105843D01*
X143050628Y-133097083D01*
X143083580Y-133090027D01*
X143168746Y-133069054D01*
X143245052Y-133043386D01*
X143310950Y-133014126D01*
X143364894Y-132982381D01*
X143405336Y-132949255D01*
X143430731Y-132915855D01*
X143439531Y-132883285D01*
X143430191Y-132852650D01*
X143425210Y-132845868D01*
X143408175Y-132832263D01*
X143379871Y-132815952D01*
X143360440Y-132806695D01*
X143341788Y-132798874D01*
X143322099Y-132791614D01*
X143298838Y-132784266D01*
X143269470Y-132776184D01*
X143231459Y-132766721D01*
X143182271Y-132755230D01*
X143119370Y-132741065D01*
X143040221Y-132723578D01*
X143000630Y-132714892D01*
X142880161Y-132686299D01*
X142778256Y-132657138D01*
X142693159Y-132626660D01*
X142623115Y-132594117D01*
X142566369Y-132558758D01*
X142521165Y-132519836D01*
X142506867Y-132504210D01*
X142485402Y-132480601D01*
X142470595Y-132470313D01*
X142456712Y-132470561D01*
X142446161Y-132474735D01*
X142427399Y-132487024D01*
X142420640Y-132497911D01*
X142429520Y-132515387D01*
X142455036Y-132540327D01*
X142495500Y-132571415D01*
X142549224Y-132607331D01*
X142601129Y-132638954D01*
X142657298Y-132671973D01*
X142721621Y-132709817D01*
X142784753Y-132746985D01*
X142821960Y-132768907D01*
X142897204Y-132814836D01*
X142954177Y-132853300D01*
X142993309Y-132884784D01*
X143015029Y-132909769D01*
X143019768Y-132928738D01*
X143007956Y-132942175D01*
X142983302Y-132949978D01*
X142946512Y-132952934D01*
X142896264Y-132951666D01*
X142838855Y-132946709D01*
X142780579Y-132938596D01*
X142730520Y-132928542D01*
X142673567Y-132918205D01*
X142618388Y-132914221D01*
X142570912Y-132916698D01*
X142538644Y-132924997D01*
X142516563Y-132942631D01*
X142501020Y-132966491D01*
X142495983Y-133003475D01*
X142505876Y-133051108D01*
X142529650Y-133107484D01*
X142566258Y-133170695D01*
X142614654Y-133238835D01*
X142673789Y-133309997D01*
X142712817Y-133352134D01*
X142833963Y-133466864D01*
X142965210Y-133569313D01*
X143107625Y-133659932D01*
X143262274Y-133739169D01*
X143430223Y-133807474D01*
X143612539Y-133865298D01*
X143810288Y-133913090D01*
X144024537Y-133951300D01*
X144183400Y-133972412D01*
X144232357Y-133976540D01*
X144301336Y-133979888D01*
X144390053Y-133982450D01*
X144498225Y-133984219D01*
X144625568Y-133985189D01*
X144726960Y-133985388D01*
X144845478Y-133985215D01*
X144946482Y-133984524D01*
X145032776Y-133983053D01*
X145107164Y-133980540D01*
X145172450Y-133976721D01*
X145231438Y-133971332D01*
X145286931Y-133964112D01*
X145341735Y-133954796D01*
X145398653Y-133943122D01*
X145460489Y-133928827D01*
X145530047Y-133911647D01*
X145540177Y-133909094D01*
X145765817Y-133841743D01*
X145986615Y-133755168D01*
X146201776Y-133650059D01*
X146410503Y-133527106D01*
X146611999Y-133386997D01*
X146805468Y-133230424D01*
X146990114Y-133058075D01*
X147165140Y-132870640D01*
X147329751Y-132668809D01*
X147483149Y-132453270D01*
X147624539Y-132224715D01*
X147745358Y-131999473D01*
X147792521Y-131903241D01*
X147832250Y-131817814D01*
X147867390Y-131736467D01*
X147900786Y-131652476D01*
X147935284Y-131559118D01*
X147953998Y-131506360D01*
X147971924Y-131456546D01*
X147987355Y-131416058D01*
X147999195Y-131387581D01*
X148006348Y-131373799D01*
X148007977Y-131374280D01*
X148006190Y-131391034D01*
X148000945Y-131423645D01*
X147992950Y-131468079D01*
X147982917Y-131520306D01*
X147977576Y-131547000D01*
X147899353Y-131885251D01*
X147803694Y-132214634D01*
X147690882Y-132534558D01*
X147561198Y-132844433D01*
X147414924Y-133143668D01*
X147252344Y-133431672D01*
X147073738Y-133707856D01*
X146879390Y-133971628D01*
X146735128Y-134147404D01*
X146657387Y-134234286D01*
X146580902Y-134311212D01*
X146500288Y-134383070D01*
X146410163Y-134454749D01*
X146339158Y-134506988D01*
X146138261Y-134638696D01*
X145923742Y-134755613D01*
X145695981Y-134857678D01*
X145455355Y-134944828D01*
X145202246Y-135017000D01*
X144937030Y-135074131D01*
X144660087Y-135116158D01*
X144371796Y-135143019D01*
X144072537Y-135154652D01*
X143762686Y-135150993D01*
X143442625Y-135131979D01*
X143112731Y-135097549D01*
X142925915Y-135071821D01*
X142869234Y-135063629D01*
X142819891Y-135057015D01*
X142781239Y-135052384D01*
X142756629Y-135050145D01*
X142749302Y-135050351D01*
X142756449Y-135055677D01*
X142779022Y-135067245D01*
X142813702Y-135083458D01*
X142857166Y-135102718D01*
X142866847Y-135106892D01*
X143125408Y-135208663D01*
X143397218Y-135298028D01*
X143678650Y-135373898D01*
X143949720Y-135432125D01*
X144078628Y-135455518D01*
X144197846Y-135474995D01*
X144311377Y-135490936D01*
X144423223Y-135503716D01*
X144537387Y-135513714D01*
X144657870Y-135521307D01*
X144788676Y-135526871D01*
X144933807Y-135530785D01*
X145011440Y-135532216D01*
X145114149Y-135534093D01*
X145199006Y-135536108D01*
X145265571Y-135538243D01*
X145313405Y-135540479D01*
X145342070Y-135542797D01*
X145351125Y-135545178D01*
X145346720Y-135546673D01*
X145321264Y-135550937D01*
X145280196Y-135557403D01*
X145228014Y-135565381D01*
X145169219Y-135574179D01*
X145128280Y-135580203D01*
X144738710Y-135629810D01*
X144361182Y-135663070D01*
X143995699Y-135679981D01*
X143642263Y-135680545D01*
X143300877Y-135664763D01*
X142971545Y-135632633D01*
X142654270Y-135584157D01*
X142349055Y-135519335D01*
X142055903Y-135438167D01*
X141774816Y-135340654D01*
X141505799Y-135226796D01*
X141470680Y-135210302D01*
X141346319Y-135148265D01*
X141223961Y-135081637D01*
X141106766Y-135012402D01*
X140997894Y-134942544D01*
X140900504Y-134874047D01*
X140817757Y-134808894D01*
X140784072Y-134779303D01*
X140744889Y-134744381D01*
X140708190Y-134713499D01*
X140678013Y-134689940D01*
X140658398Y-134676990D01*
X140657988Y-134676786D01*
X140637072Y-134667726D01*
X140627826Y-134669308D01*
X140624103Y-134682153D01*
X140627842Y-134708273D01*
X140644080Y-134745898D01*
X140670870Y-134792244D01*
X140706265Y-134844525D01*
X140748319Y-134899955D01*
X140795086Y-134955749D01*
X140844619Y-135009121D01*
X140870328Y-135034520D01*
X141020078Y-135165334D01*
X141183469Y-135284309D01*
X141361023Y-135391669D01*
X141553262Y-135487634D01*
X141760707Y-135572428D01*
X141983882Y-135646274D01*
X142223307Y-135709392D01*
X142479506Y-135762007D01*
X142639080Y-135788264D01*
X142719212Y-135799358D01*
X142812372Y-135810637D01*
X142914908Y-135821791D01*
X143023172Y-135832505D01*
X143133512Y-135842467D01*
X143242281Y-135851364D01*
X143345828Y-135858884D01*
X143440503Y-135864714D01*
X143522658Y-135868540D01*
X143588641Y-135870051D01*
X143593612Y-135870063D01*
X143633409Y-135870959D01*
X143653803Y-135873478D01*
X143655629Y-135877403D01*
X143639718Y-135882516D01*
X143606906Y-135888599D01*
X143558025Y-135895435D01*
X143493909Y-135902806D01*
X143451880Y-135907065D01*
X143364981Y-135913891D01*
X143262298Y-135919264D01*
X143147691Y-135923185D01*
X143025016Y-135925651D01*
X142898132Y-135926663D01*
X142770899Y-135926219D01*
X142647174Y-135924318D01*
X142530816Y-135920959D01*
X142425683Y-135916141D01*
X142335633Y-135909863D01*
X142308880Y-135907369D01*
X141969399Y-135865211D01*
X141642791Y-135808304D01*
X141327501Y-135736212D01*
X141021976Y-135648499D01*
X140724663Y-135544728D01*
X140434010Y-135424462D01*
X140205465Y-135316193D01*
X140138931Y-135282118D01*
X140066018Y-135243486D01*
X139991268Y-135202814D01*
X139919223Y-135162616D01*
X139854423Y-135125407D01*
X139801411Y-135093701D01*
X139784120Y-135082865D01*
X139753640Y-135063390D01*
X139779040Y-135092025D01*
X139800833Y-135113421D01*
X139836176Y-135144402D01*
X139882145Y-135182657D01*
X139935817Y-135225874D01*
X139994266Y-135271741D01*
X140054572Y-135317946D01*
X140113808Y-135362177D01*
X140169053Y-135402124D01*
X140188266Y-135415613D01*
X140405943Y-135557519D01*
X140642869Y-135693974D01*
X140899150Y-135825033D01*
X141174893Y-135950753D01*
X141338600Y-136019149D01*
X141445561Y-136060964D01*
X141564549Y-136104850D01*
X141691515Y-136149487D01*
X141822410Y-136193560D01*
X141953186Y-136235749D01*
X142079795Y-136274737D01*
X142198188Y-136309207D01*
X142304317Y-136337841D01*
X142359680Y-136351497D01*
X142406384Y-136362895D01*
X142447990Y-136373749D01*
X142479066Y-136382603D01*
X142491760Y-136386879D01*
X142504056Y-136392800D01*
X142501407Y-136395776D01*
X142481633Y-136396636D01*
X142466360Y-136396553D01*
X142434094Y-136394921D01*
X142388938Y-136390992D01*
X142338103Y-136385443D01*
X142308880Y-136381753D01*
X142112376Y-136354519D01*
X141933182Y-136327458D01*
X141768303Y-136299967D01*
X141614743Y-136271448D01*
X141469507Y-136241299D01*
X141329600Y-136208919D01*
X141192026Y-136173708D01*
X141053790Y-136135064D01*
X141000396Y-136119335D01*
X140681196Y-136014774D01*
X140370973Y-135894550D01*
X140070527Y-135759252D01*
X139780660Y-135609467D01*
X139502173Y-135445782D01*
X139235867Y-135268785D01*
X138982543Y-135079064D01*
X138743002Y-134877206D01*
X138518045Y-134663798D01*
X138308474Y-134439428D01*
X138115089Y-134204684D01*
X137938693Y-133960152D01*
X137834259Y-133797440D01*
X137735121Y-133630104D01*
X137642839Y-133463839D01*
X137559249Y-133302181D01*
X137486188Y-133148665D01*
X137432512Y-133024216D01*
X137406698Y-132960887D01*
X137379337Y-132893829D01*
X137353172Y-132829759D01*
X137330944Y-132775391D01*
X137324473Y-132759584D01*
X137299205Y-132693925D01*
X137271157Y-132614051D01*
X137240884Y-132522056D01*
X137208940Y-132420033D01*
X137175878Y-132310074D01*
X137142252Y-132194272D01*
X137108617Y-132074721D01*
X137075527Y-131953511D01*
X137043534Y-131832738D01*
X137013194Y-131714493D01*
X136985060Y-131600869D01*
X136959687Y-131493959D01*
X136937627Y-131395856D01*
X136919435Y-131308653D01*
X136905666Y-131234442D01*
X136896872Y-131175317D01*
X136893608Y-131133369D01*
X136893600Y-131131711D01*
X136891970Y-131109957D01*
X136887138Y-131108010D01*
X136879190Y-131125624D01*
X136868213Y-131162553D01*
X136854292Y-131218552D01*
X136838696Y-131287920D01*
X136774410Y-131630679D01*
X136730433Y-131972801D01*
X136706767Y-132314306D01*
X136703411Y-132655215D01*
X136720365Y-132995552D01*
X136757631Y-133335337D01*
X136815208Y-133674593D01*
X136884606Y-133980320D01*
X136899523Y-134035301D01*
X136919674Y-134104206D01*
X136943762Y-134183050D01*
X136970491Y-134267848D01*
X136998566Y-134354615D01*
X137026690Y-134439366D01*
X137053569Y-134518116D01*
X137077905Y-134586880D01*
X137098405Y-134641673D01*
X137105122Y-134658500D01*
X137116280Y-134687257D01*
X137122591Y-134706623D01*
X137123028Y-134711840D01*
X137114759Y-134704165D01*
X137096039Y-134682727D01*
X137068763Y-134649905D01*
X137034823Y-134608077D01*
X136996111Y-134559624D01*
X136954521Y-134506924D01*
X136911943Y-134452356D01*
X136870272Y-134398300D01*
X136831400Y-134347135D01*
X136807822Y-134315600D01*
X136580750Y-133993995D01*
X136373548Y-133668309D01*
X136186225Y-133338558D01*
X136018787Y-133004764D01*
X135871244Y-132666945D01*
X135743601Y-132325120D01*
X135635868Y-131979308D01*
X135548051Y-131629529D01*
X135480159Y-131275802D01*
X135432199Y-130918146D01*
X135428945Y-130886600D01*
X135423962Y-130821488D01*
X135420230Y-130740447D01*
X135417749Y-130647828D01*
X135416518Y-130547984D01*
X135416538Y-130445266D01*
X135417807Y-130344027D01*
X135420325Y-130248617D01*
X135424094Y-130163390D01*
X135428983Y-130094120D01*
X135466803Y-129773319D01*
X135521725Y-129459378D01*
X135593368Y-129153063D01*
X135665289Y-128909532D01*
X140729000Y-128909532D01*
X142179398Y-128910006D01*
X143629797Y-128910480D01*
X143794838Y-128807201D01*
X143930922Y-128723734D01*
X144074418Y-128638792D01*
X144218645Y-128556230D01*
X144356921Y-128479901D01*
X144427210Y-128442397D01*
X144565497Y-128369648D01*
X144558787Y-128337804D01*
X144545785Y-128293647D01*
X144523959Y-128238373D01*
X144495883Y-128177686D01*
X144464132Y-128117292D01*
X144443225Y-128081676D01*
X144353551Y-127954799D01*
X144250459Y-127843020D01*
X144134348Y-127746539D01*
X144005616Y-127665555D01*
X143864664Y-127600267D01*
X143711890Y-127550875D01*
X143547694Y-127517579D01*
X143372474Y-127500576D01*
X143275061Y-127498240D01*
X143113142Y-127506881D01*
X142961151Y-127532698D01*
X142819503Y-127575533D01*
X142688614Y-127635227D01*
X142568901Y-127711621D01*
X142460779Y-127804556D01*
X142453518Y-127811815D01*
X142423128Y-127843028D01*
X142399333Y-127868476D01*
X142384983Y-127885048D01*
X142382128Y-127889775D01*
X142392396Y-127888067D01*
X142417029Y-127880958D01*
X142451247Y-127869858D01*
X142461280Y-127866439D01*
X142559267Y-127842961D01*
X142657238Y-127839600D01*
X142753981Y-127856187D01*
X142848285Y-127892553D01*
X142911152Y-127928992D01*
X142939165Y-127949578D01*
X142972331Y-127976921D01*
X143007096Y-128007689D01*
X143039908Y-128038553D01*
X143067214Y-128066183D01*
X143085459Y-128087249D01*
X143091200Y-128097737D01*
X143081831Y-128102146D01*
X143056502Y-128108433D01*
X143019377Y-128115670D01*
X142985902Y-128121223D01*
X142877780Y-128143135D01*
X142764038Y-128175335D01*
X142654475Y-128214872D01*
X142606860Y-128235310D01*
X142506258Y-128286186D01*
X142399152Y-128349237D01*
X142291410Y-128420519D01*
X142188899Y-128496085D01*
X142097486Y-128571992D01*
X142073221Y-128594131D01*
X142006151Y-128656871D01*
X142015189Y-128616647D01*
X142049392Y-128509524D01*
X142101273Y-128410899D01*
X142169531Y-128322006D01*
X142252865Y-128244080D01*
X142349976Y-128178356D01*
X142459563Y-128126070D01*
X142568271Y-128091400D01*
X142603471Y-128082127D01*
X142621410Y-128075701D01*
X142624655Y-128070530D01*
X142615776Y-128065024D01*
X142612879Y-128063788D01*
X142591181Y-128059325D01*
X142553328Y-128056102D01*
X142503444Y-128054101D01*
X142445656Y-128053302D01*
X142384090Y-128053685D01*
X142322869Y-128055230D01*
X142266121Y-128057917D01*
X142217970Y-128061728D01*
X142186960Y-128065822D01*
X142136703Y-128075097D01*
X142082357Y-128085840D01*
X142042054Y-128094349D01*
X141973349Y-128109525D01*
X141901461Y-128206435D01*
X141815314Y-128313547D01*
X141722814Y-128410265D01*
X141621974Y-128497886D01*
X141510805Y-128577705D01*
X141387320Y-128651020D01*
X141249532Y-128719127D01*
X141095452Y-128783322D01*
X140923095Y-128844901D01*
X140922040Y-128845252D01*
X140729000Y-128909532D01*
X135665289Y-128909532D01*
X135681352Y-128855142D01*
X135785294Y-128566383D01*
X135904813Y-128287553D01*
X136039530Y-128019419D01*
X136189061Y-127762749D01*
X136353026Y-127518311D01*
X136531044Y-127286872D01*
X136722734Y-127069199D01*
X136927715Y-126866060D01*
X137111962Y-126705516D01*
X137221403Y-126618638D01*
X137323178Y-126544530D01*
X137422350Y-126480125D01*
X137523983Y-126422354D01*
X137633137Y-126368148D01*
X137754877Y-126314439D01*
X137762280Y-126311338D01*
X137889800Y-126261232D01*
X138020492Y-126215822D01*
X138151160Y-126175913D01*
X138278608Y-126142312D01*
X138399642Y-126115823D01*
X138511065Y-126097252D01*
X138609683Y-126087406D01*
X138656099Y-126086000D01*
X138712329Y-126087242D01*
X138757379Y-126090728D01*
X138788461Y-126096097D01*
X138802786Y-126102990D01*
X138803420Y-126105050D01*
X138795315Y-126113025D01*
X138773949Y-126128746D01*
X138743365Y-126149298D01*
X138731399Y-126156986D01*
X138620010Y-126239664D01*
X138518711Y-126339429D01*
X138427999Y-126455454D01*
X138348372Y-126586913D01*
X138280326Y-126732978D01*
X138224360Y-126892822D01*
X138180970Y-127065620D01*
X138179032Y-127075115D01*
X138164098Y-127160205D01*
X138150530Y-127258781D01*
X138138633Y-127366509D01*
X138128712Y-127479055D01*
X138121073Y-127592086D01*
X138116021Y-127701266D01*
X138113862Y-127802262D01*
X138114900Y-127890739D01*
X138117803Y-127944307D01*
X138125073Y-128036169D01*
X138223076Y-127947387D01*
X138474900Y-127732071D01*
X138739322Y-127530595D01*
X139014727Y-127343861D01*
X139299497Y-127172772D01*
X139592018Y-127018232D01*
X139890674Y-126881142D01*
X140193848Y-126762405D01*
X140285031Y-126732769D01*
X143876448Y-126732769D01*
X143888864Y-126852642D01*
X143918602Y-126965455D01*
X143965085Y-127069524D01*
X144027738Y-127163165D01*
X144097332Y-127237005D01*
X144187028Y-127305329D01*
X144283938Y-127354736D01*
X144387485Y-127385078D01*
X144497090Y-127396204D01*
X144612178Y-127387966D01*
X144652598Y-127380697D01*
X144782788Y-127344767D01*
X144912845Y-127291454D01*
X144989057Y-127251688D01*
X145028773Y-127228260D01*
X145073137Y-127200635D01*
X145118895Y-127171019D01*
X145162793Y-127141623D01*
X145201574Y-127114653D01*
X145231983Y-127092320D01*
X145250766Y-127076830D01*
X145255267Y-127071078D01*
X145246903Y-127064462D01*
X145223750Y-127049664D01*
X145188731Y-127028464D01*
X145144770Y-127002642D01*
X145109597Y-126982402D01*
X144963914Y-126899246D01*
X144873377Y-126936950D01*
X144832752Y-126953399D01*
X144800965Y-126964215D01*
X144771528Y-126970584D01*
X144737956Y-126973691D01*
X144693759Y-126974721D01*
X144666000Y-126974827D01*
X144597895Y-126972912D01*
X144545566Y-126965999D01*
X144504791Y-126952684D01*
X144471345Y-126931560D01*
X144441005Y-126901220D01*
X144439467Y-126899403D01*
X144409402Y-126851004D01*
X144386041Y-126787514D01*
X144370164Y-126713280D01*
X144362547Y-126632648D01*
X144363971Y-126549965D01*
X144368880Y-126505244D01*
X144373291Y-126469956D01*
X144373243Y-126449871D01*
X144368257Y-126440267D01*
X144362038Y-126437379D01*
X144343497Y-126433626D01*
X144310031Y-126428219D01*
X144265236Y-126421624D01*
X144212707Y-126414305D01*
X144156042Y-126406730D01*
X144098837Y-126399362D01*
X144044687Y-126392667D01*
X143997189Y-126387111D01*
X143959940Y-126383159D01*
X143936534Y-126381277D01*
X143930237Y-126381495D01*
X143922952Y-126396964D01*
X143913996Y-126428143D01*
X143904320Y-126470590D01*
X143894872Y-126519864D01*
X143886602Y-126571524D01*
X143881931Y-126607520D01*
X143876448Y-126732769D01*
X140285031Y-126732769D01*
X140499925Y-126662925D01*
X140545481Y-126649862D01*
X140702474Y-126608812D01*
X140868714Y-126571134D01*
X141037382Y-126538156D01*
X141201661Y-126511207D01*
X141354733Y-126491614D01*
X141361460Y-126490904D01*
X141408957Y-126485471D01*
X141448098Y-126480090D01*
X141475020Y-126475356D01*
X141485862Y-126471867D01*
X141485920Y-126471671D01*
X141477177Y-126464400D01*
X141453552Y-126451195D01*
X141418950Y-126433861D01*
X141377278Y-126414206D01*
X141332440Y-126394037D01*
X141288343Y-126375160D01*
X141248891Y-126359382D01*
X141223469Y-126350261D01*
X141059574Y-126306563D01*
X140886406Y-126280060D01*
X140705427Y-126270695D01*
X140518101Y-126278411D01*
X140325891Y-126303149D01*
X140130258Y-126344854D01*
X139941600Y-126400460D01*
X139844770Y-126434931D01*
X139743113Y-126474841D01*
X139639779Y-126518678D01*
X139537920Y-126564930D01*
X139440686Y-126612086D01*
X139351228Y-126658632D01*
X139272698Y-126703059D01*
X139208247Y-126743853D01*
X139174223Y-126768626D01*
X139103084Y-126822783D01*
X139045291Y-126862591D01*
X139000208Y-126888445D01*
X138967196Y-126900740D01*
X138959475Y-126901850D01*
X138938763Y-126900509D01*
X138930033Y-126888444D01*
X138927773Y-126873400D01*
X138931803Y-126844940D01*
X138946851Y-126803191D01*
X138971366Y-126750831D01*
X139003797Y-126690539D01*
X139042595Y-126624992D01*
X139086207Y-126556868D01*
X139133084Y-126488846D01*
X139181676Y-126423603D01*
X139205729Y-126393352D01*
X139275806Y-126307701D01*
X139336075Y-126235449D01*
X139389298Y-126174031D01*
X139438241Y-126120880D01*
X139485666Y-126073434D01*
X139534337Y-126029126D01*
X139587019Y-125985392D01*
X139646476Y-125939666D01*
X139715470Y-125889385D01*
X139796766Y-125831982D01*
X139852540Y-125793097D01*
X139941357Y-125729677D01*
X140013083Y-125674599D01*
X140068661Y-125626835D01*
X140109032Y-125585358D01*
X140135138Y-125549143D01*
X140147920Y-125517162D01*
X140148320Y-125488388D01*
X140144249Y-125475070D01*
X140136206Y-125459355D01*
X140124586Y-125446033D01*
X140106560Y-125433707D01*
X140079302Y-125420984D01*
X140039982Y-125406468D01*
X139985773Y-125388764D01*
X139940999Y-125374820D01*
X139743108Y-125318480D01*
X139546065Y-125272197D01*
X139342969Y-125234513D01*
X139138858Y-125205440D01*
X139088407Y-125199821D01*
X139035796Y-125195393D01*
X138977913Y-125192039D01*
X138911645Y-125189641D01*
X138833878Y-125188081D01*
X138741500Y-125187242D01*
X138651280Y-125187008D01*
X138538000Y-125187280D01*
X138440988Y-125188392D01*
X138356199Y-125190608D01*
X138279590Y-125194190D01*
X138207116Y-125199403D01*
X138134734Y-125206508D01*
X138058399Y-125215769D01*
X137974067Y-125227449D01*
X137929920Y-125233938D01*
X137624218Y-125289199D01*
X137316561Y-125363892D01*
X137008268Y-125457393D01*
X136700659Y-125569081D01*
X136395055Y-125698332D01*
X136092777Y-125844524D01*
X135795142Y-126007035D01*
X135503474Y-126185242D01*
X135219090Y-126378522D01*
X134943312Y-126586252D01*
X134780435Y-126719327D01*
X134737784Y-126754878D01*
X134700802Y-126784985D01*
X134672136Y-126807548D01*
X134654436Y-126820471D01*
X134649997Y-126822664D01*
X134651571Y-126811038D01*
X134662308Y-126785456D01*
X134680487Y-126749126D01*
X134704390Y-126705252D01*
X134732299Y-126657041D01*
X134762493Y-126607699D01*
X134779403Y-126581315D01*
X134922685Y-126375974D01*
X135079042Y-126179481D01*
X135249918Y-125990327D01*
X135436761Y-125807005D01*
X135641016Y-125628007D01*
X135859276Y-125455481D01*
X136149309Y-125249508D01*
X136453451Y-125058111D01*
X136771627Y-124881313D01*
X137103763Y-124719138D01*
X137449785Y-124571608D01*
X137809619Y-124438748D01*
X138183191Y-124320580D01*
X138570427Y-124217129D01*
X138971253Y-124128416D01*
X139385595Y-124054467D01*
X139813379Y-123995303D01*
X140254532Y-123950949D01*
X140708978Y-123921428D01*
X140718840Y-123920959D01*
X140820316Y-123917201D01*
X140933311Y-123914816D01*
X141054160Y-123913750D01*
X141179195Y-123913949D01*
D11*
X147250000Y-104350000D02*
X148000000Y-103600000D01*
X148000000Y-103600000D02*
X152750000Y-103600000D01*
X152750000Y-103600000D02*
X152750000Y-116100000D01*
X152750000Y-116100000D02*
X147250000Y-116100000D01*
X147250000Y-116100000D02*
X147250000Y-104350000D01*
X248250000Y-101200000D02*
G75*
G02X234250000Y-101200000I-7000000J0D01*
G01*
X234250000Y-99700000D02*
X234250000Y-101200000D01*
X248250000Y-99700000D02*
X248250000Y-101200000D01*
X234250000Y-99700000D02*
G75*
G02X248250000Y-99700000I7000000J0D01*
G01*
X222100000Y-133165000D02*
X221300000Y-133965000D01*
X221300000Y-133965000D02*
X215400000Y-133965000D01*
X215400000Y-133965000D02*
X215400000Y-126335000D01*
X215400000Y-126335000D02*
X222100000Y-126335000D01*
X222100000Y-126335000D02*
X222100000Y-133165000D01*
D12*
X157695000Y-107160000D02*
X157695000Y-107460000D01*
X156275000Y-107160000D02*
X156275000Y-107460000D01*
X160085000Y-112240000D02*
X160085000Y-112540000D01*
X161505000Y-112240000D02*
X161505000Y-112540000D01*
X157695000Y-112240000D02*
X157695000Y-112540000D01*
X156275000Y-112240000D02*
X156275000Y-112540000D01*
X219350000Y-144670000D02*
X219650000Y-144670000D01*
X219350000Y-146090000D02*
X219650000Y-146090000D01*
X161505000Y-107460000D02*
X161505000Y-107160000D01*
X160085000Y-107460000D02*
X160085000Y-107160000D01*
X71090000Y-129240000D02*
X72390000Y-129240000D01*
X71090000Y-131060000D02*
X72390000Y-131060000D01*
X91310000Y-120910000D02*
X90010000Y-120910000D01*
X91310000Y-119090000D02*
X90010000Y-119090000D01*
X71190000Y-98890000D02*
X72490000Y-98890000D01*
X71190000Y-100710000D02*
X72490000Y-100710000D01*
X139940000Y-100610000D02*
X141240000Y-100610000D01*
X139940000Y-98790000D02*
X141240000Y-98790000D01*
X160060000Y-120910000D02*
X158760000Y-120910000D01*
X160060000Y-119090000D02*
X158760000Y-119090000D01*
X139940000Y-141210000D02*
X141240000Y-141210000D01*
X139940000Y-139390000D02*
X141240000Y-139390000D01*
X208690000Y-139390000D02*
X209990000Y-139390000D01*
X208690000Y-141210000D02*
X209990000Y-141210000D01*
X228810000Y-119090000D02*
X227510000Y-119090000D01*
X228810000Y-120910000D02*
X227510000Y-120910000D01*
X208690000Y-100610000D02*
X209990000Y-100610000D01*
X208690000Y-98790000D02*
X209990000Y-98790000D01*
X228810000Y-98790000D02*
X227510000Y-98790000D01*
X228810000Y-100610000D02*
X227510000Y-100610000D01*
X140000000Y-95900000D02*
X140000000Y-91800000D01*
X140000000Y-91800000D02*
X142000000Y-91800000D01*
X142000000Y-91800000D02*
X142000000Y-95900000D01*
X142000000Y-95900000D02*
X140000000Y-95900000D01*
X142200000Y-95150000D02*
X142500000Y-95450000D01*
X142500000Y-95450000D02*
X142500000Y-94850000D01*
X142200000Y-95150000D02*
X142500000Y-94850000D01*
X148200000Y-95150000D02*
X148500000Y-94850000D01*
X148500000Y-95450000D02*
X148500000Y-94850000D01*
X148200000Y-95150000D02*
X148500000Y-95450000D01*
X148000000Y-95900000D02*
X146000000Y-95900000D01*
X148000000Y-91800000D02*
X148000000Y-95900000D01*
X146000000Y-91800000D02*
X148000000Y-91800000D01*
X146000000Y-95900000D02*
X146000000Y-91800000D01*
X152000000Y-95900000D02*
X152000000Y-91800000D01*
X152000000Y-91800000D02*
X154000000Y-91800000D01*
X154000000Y-91800000D02*
X154000000Y-95900000D01*
X154000000Y-95900000D02*
X152000000Y-95900000D01*
X154200000Y-95150000D02*
X154500000Y-95450000D01*
X154500000Y-95450000D02*
X154500000Y-94850000D01*
X154200000Y-95150000D02*
X154500000Y-94850000D01*
X158000000Y-95900000D02*
X158000000Y-91800000D01*
X158000000Y-91800000D02*
X160000000Y-91800000D01*
X160000000Y-91800000D02*
X160000000Y-95900000D01*
X160000000Y-95900000D02*
X158000000Y-95900000D01*
X160200000Y-95150000D02*
X160500000Y-95450000D01*
X160500000Y-95450000D02*
X160500000Y-94850000D01*
X160200000Y-95150000D02*
X160500000Y-94850000D01*
X210100000Y-146960000D02*
X210100000Y-146030000D01*
X210100000Y-143800000D02*
X210100000Y-144730000D01*
X210100000Y-143800000D02*
X207940000Y-143800000D01*
X210100000Y-146960000D02*
X208640000Y-146960000D01*
X214570000Y-146090000D02*
X214270000Y-146090000D01*
X214570000Y-144670000D02*
X214270000Y-144670000D01*
X76670000Y-124360000D02*
X76970000Y-124360000D01*
X76670000Y-125780000D02*
X76970000Y-125780000D01*
X76670000Y-130860000D02*
X76970000Y-130860000D01*
X76670000Y-129440000D02*
X76970000Y-129440000D01*
X85730000Y-120710000D02*
X85430000Y-120710000D01*
X85730000Y-119290000D02*
X85430000Y-119290000D01*
X76770000Y-99090000D02*
X77070000Y-99090000D01*
X76770000Y-100510000D02*
X77070000Y-100510000D01*
X145520000Y-100410000D02*
X145820000Y-100410000D01*
X145520000Y-98990000D02*
X145820000Y-98990000D01*
X154480000Y-120710000D02*
X154180000Y-120710000D01*
X154480000Y-119290000D02*
X154180000Y-119290000D01*
X145520000Y-141010000D02*
X145820000Y-141010000D01*
X145520000Y-139590000D02*
X145820000Y-139590000D01*
X214270000Y-139590000D02*
X214570000Y-139590000D01*
X214270000Y-141010000D02*
X214570000Y-141010000D01*
X223230000Y-119290000D02*
X222930000Y-119290000D01*
X223230000Y-120710000D02*
X222930000Y-120710000D01*
X165315000Y-112240000D02*
X165315000Y-112540000D01*
X163895000Y-112240000D02*
X163895000Y-112540000D01*
X165315000Y-107160000D02*
X165315000Y-107460000D01*
X163895000Y-107160000D02*
X163895000Y-107460000D01*
X214270000Y-100410000D02*
X214570000Y-100410000D01*
X214270000Y-98990000D02*
X214570000Y-98990000D01*
X225975000Y-134035000D02*
X226275000Y-134035000D01*
X225975000Y-132615000D02*
X226275000Y-132615000D01*
X228105000Y-130300000D02*
X228105000Y-130000000D01*
X226685000Y-130300000D02*
X226685000Y-130000000D01*
X223230000Y-98990000D02*
X222930000Y-98990000D01*
X223230000Y-100410000D02*
X222930000Y-100410000D01*
X225975000Y-126265000D02*
X226275000Y-126265000D01*
X225975000Y-127685000D02*
X226275000Y-127685000D01*
D11*
X149238095Y-102052380D02*
X149238095Y-102861904D01*
X149285714Y-102957142D01*
X149333333Y-103004761D01*
X149428571Y-103052380D01*
X149619047Y-103052380D01*
X149714285Y-103004761D01*
X149761904Y-102957142D01*
X149809523Y-102861904D01*
X149809523Y-102052380D01*
X150809523Y-103052380D02*
X150238095Y-103052380D01*
X150523809Y-103052380D02*
X150523809Y-102052380D01*
X150428571Y-102195238D01*
X150333333Y-102290476D01*
X150238095Y-102338095D01*
X217988095Y-134417380D02*
X217988095Y-135226904D01*
X218035714Y-135322142D01*
X218083333Y-135369761D01*
X218178571Y-135417380D01*
X218369047Y-135417380D01*
X218464285Y-135369761D01*
X218511904Y-135322142D01*
X218559523Y-135226904D01*
X218559523Y-134417380D01*
X218988095Y-134512619D02*
X219035714Y-134465000D01*
X219130952Y-134417380D01*
X219369047Y-134417380D01*
X219464285Y-134465000D01*
X219511904Y-134512619D01*
X219559523Y-134607857D01*
X219559523Y-134703095D01*
X219511904Y-134845952D01*
X218940476Y-135417380D01*
X219559523Y-135417380D01*
X159247142Y-107476666D02*
X159294761Y-107524285D01*
X159342380Y-107667142D01*
X159342380Y-107762380D01*
X159294761Y-107905238D01*
X159199523Y-108000476D01*
X159104285Y-108048095D01*
X158913809Y-108095714D01*
X158770952Y-108095714D01*
X158580476Y-108048095D01*
X158485238Y-108000476D01*
X158390000Y-107905238D01*
X158342380Y-107762380D01*
X158342380Y-107667142D01*
X158390000Y-107524285D01*
X158437619Y-107476666D01*
X159342380Y-106524285D02*
X159342380Y-107095714D01*
X159342380Y-106810000D02*
X158342380Y-106810000D01*
X158485238Y-106905238D01*
X158580476Y-107000476D01*
X158628095Y-107095714D01*
X163057142Y-112556666D02*
X163104761Y-112604285D01*
X163152380Y-112747142D01*
X163152380Y-112842380D01*
X163104761Y-112985238D01*
X163009523Y-113080476D01*
X162914285Y-113128095D01*
X162723809Y-113175714D01*
X162580952Y-113175714D01*
X162390476Y-113128095D01*
X162295238Y-113080476D01*
X162200000Y-112985238D01*
X162152380Y-112842380D01*
X162152380Y-112747142D01*
X162200000Y-112604285D01*
X162247619Y-112556666D01*
X162247619Y-112175714D02*
X162200000Y-112128095D01*
X162152380Y-112032857D01*
X162152380Y-111794761D01*
X162200000Y-111699523D01*
X162247619Y-111651904D01*
X162342857Y-111604285D01*
X162438095Y-111604285D01*
X162580952Y-111651904D01*
X163152380Y-112223333D01*
X163152380Y-111604285D01*
X159247142Y-112556666D02*
X159294761Y-112604285D01*
X159342380Y-112747142D01*
X159342380Y-112842380D01*
X159294761Y-112985238D01*
X159199523Y-113080476D01*
X159104285Y-113128095D01*
X158913809Y-113175714D01*
X158770952Y-113175714D01*
X158580476Y-113128095D01*
X158485238Y-113080476D01*
X158390000Y-112985238D01*
X158342380Y-112842380D01*
X158342380Y-112747142D01*
X158390000Y-112604285D01*
X158437619Y-112556666D01*
X158342380Y-112223333D02*
X158342380Y-111604285D01*
X158723333Y-111937619D01*
X158723333Y-111794761D01*
X158770952Y-111699523D01*
X158818571Y-111651904D01*
X158913809Y-111604285D01*
X159151904Y-111604285D01*
X159247142Y-111651904D01*
X159294761Y-111699523D01*
X159342380Y-111794761D01*
X159342380Y-112080476D01*
X159294761Y-112175714D01*
X159247142Y-112223333D01*
X219333333Y-143832142D02*
X219285714Y-143879761D01*
X219142857Y-143927380D01*
X219047619Y-143927380D01*
X218904761Y-143879761D01*
X218809523Y-143784523D01*
X218761904Y-143689285D01*
X218714285Y-143498809D01*
X218714285Y-143355952D01*
X218761904Y-143165476D01*
X218809523Y-143070238D01*
X218904761Y-142975000D01*
X219047619Y-142927380D01*
X219142857Y-142927380D01*
X219285714Y-142975000D01*
X219333333Y-143022619D01*
X220190476Y-143260714D02*
X220190476Y-143927380D01*
X219952380Y-142879761D02*
X219714285Y-143594047D01*
X220333333Y-143594047D01*
X163057142Y-107476666D02*
X163104761Y-107524285D01*
X163152380Y-107667142D01*
X163152380Y-107762380D01*
X163104761Y-107905238D01*
X163009523Y-108000476D01*
X162914285Y-108048095D01*
X162723809Y-108095714D01*
X162580952Y-108095714D01*
X162390476Y-108048095D01*
X162295238Y-108000476D01*
X162200000Y-107905238D01*
X162152380Y-107762380D01*
X162152380Y-107667142D01*
X162200000Y-107524285D01*
X162247619Y-107476666D01*
X162152380Y-106571904D02*
X162152380Y-107048095D01*
X162628571Y-107095714D01*
X162580952Y-107048095D01*
X162533333Y-106952857D01*
X162533333Y-106714761D01*
X162580952Y-106619523D01*
X162628571Y-106571904D01*
X162723809Y-106524285D01*
X162961904Y-106524285D01*
X163057142Y-106571904D01*
X163104761Y-106619523D01*
X163152380Y-106714761D01*
X163152380Y-106952857D01*
X163104761Y-107048095D01*
X163057142Y-107095714D01*
X71406666Y-128173571D02*
X71073333Y-128173571D01*
X71073333Y-128697380D02*
X71073333Y-127697380D01*
X71549523Y-127697380D01*
X72454285Y-128697380D02*
X71882857Y-128697380D01*
X72168571Y-128697380D02*
X72168571Y-127697380D01*
X72073333Y-127840238D01*
X71978095Y-127935476D01*
X71882857Y-127983095D01*
X90326666Y-118023571D02*
X89993333Y-118023571D01*
X89993333Y-118547380D02*
X89993333Y-117547380D01*
X90469523Y-117547380D01*
X90802857Y-117642619D02*
X90850476Y-117595000D01*
X90945714Y-117547380D01*
X91183809Y-117547380D01*
X91279047Y-117595000D01*
X91326666Y-117642619D01*
X91374285Y-117737857D01*
X91374285Y-117833095D01*
X91326666Y-117975952D01*
X90755238Y-118547380D01*
X91374285Y-118547380D01*
X71506666Y-97823571D02*
X71173333Y-97823571D01*
X71173333Y-98347380D02*
X71173333Y-97347380D01*
X71649523Y-97347380D01*
X71935238Y-97347380D02*
X72554285Y-97347380D01*
X72220952Y-97728333D01*
X72363809Y-97728333D01*
X72459047Y-97775952D01*
X72506666Y-97823571D01*
X72554285Y-97918809D01*
X72554285Y-98156904D01*
X72506666Y-98252142D01*
X72459047Y-98299761D01*
X72363809Y-98347380D01*
X72078095Y-98347380D01*
X71982857Y-98299761D01*
X71935238Y-98252142D01*
X140256666Y-97723571D02*
X139923333Y-97723571D01*
X139923333Y-98247380D02*
X139923333Y-97247380D01*
X140399523Y-97247380D01*
X141209047Y-97580714D02*
X141209047Y-98247380D01*
X140970952Y-97199761D02*
X140732857Y-97914047D01*
X141351904Y-97914047D01*
X159076666Y-118023571D02*
X158743333Y-118023571D01*
X158743333Y-118547380D02*
X158743333Y-117547380D01*
X159219523Y-117547380D01*
X160076666Y-117547380D02*
X159600476Y-117547380D01*
X159552857Y-118023571D01*
X159600476Y-117975952D01*
X159695714Y-117928333D01*
X159933809Y-117928333D01*
X160029047Y-117975952D01*
X160076666Y-118023571D01*
X160124285Y-118118809D01*
X160124285Y-118356904D01*
X160076666Y-118452142D01*
X160029047Y-118499761D01*
X159933809Y-118547380D01*
X159695714Y-118547380D01*
X159600476Y-118499761D01*
X159552857Y-118452142D01*
X140256666Y-138323571D02*
X139923333Y-138323571D01*
X139923333Y-138847380D02*
X139923333Y-137847380D01*
X140399523Y-137847380D01*
X141209047Y-137847380D02*
X141018571Y-137847380D01*
X140923333Y-137895000D01*
X140875714Y-137942619D01*
X140780476Y-138085476D01*
X140732857Y-138275952D01*
X140732857Y-138656904D01*
X140780476Y-138752142D01*
X140828095Y-138799761D01*
X140923333Y-138847380D01*
X141113809Y-138847380D01*
X141209047Y-138799761D01*
X141256666Y-138752142D01*
X141304285Y-138656904D01*
X141304285Y-138418809D01*
X141256666Y-138323571D01*
X141209047Y-138275952D01*
X141113809Y-138228333D01*
X140923333Y-138228333D01*
X140828095Y-138275952D01*
X140780476Y-138323571D01*
X140732857Y-138418809D01*
X209006666Y-138323571D02*
X208673333Y-138323571D01*
X208673333Y-138847380D02*
X208673333Y-137847380D01*
X209149523Y-137847380D01*
X209435238Y-137847380D02*
X210101904Y-137847380D01*
X209673333Y-138847380D01*
X227826666Y-118023571D02*
X227493333Y-118023571D01*
X227493333Y-118547380D02*
X227493333Y-117547380D01*
X227969523Y-117547380D01*
X228493333Y-117975952D02*
X228398095Y-117928333D01*
X228350476Y-117880714D01*
X228302857Y-117785476D01*
X228302857Y-117737857D01*
X228350476Y-117642619D01*
X228398095Y-117595000D01*
X228493333Y-117547380D01*
X228683809Y-117547380D01*
X228779047Y-117595000D01*
X228826666Y-117642619D01*
X228874285Y-117737857D01*
X228874285Y-117785476D01*
X228826666Y-117880714D01*
X228779047Y-117928333D01*
X228683809Y-117975952D01*
X228493333Y-117975952D01*
X228398095Y-118023571D01*
X228350476Y-118071190D01*
X228302857Y-118166428D01*
X228302857Y-118356904D01*
X228350476Y-118452142D01*
X228398095Y-118499761D01*
X228493333Y-118547380D01*
X228683809Y-118547380D01*
X228779047Y-118499761D01*
X228826666Y-118452142D01*
X228874285Y-118356904D01*
X228874285Y-118166428D01*
X228826666Y-118071190D01*
X228779047Y-118023571D01*
X228683809Y-117975952D01*
X209006666Y-97723571D02*
X208673333Y-97723571D01*
X208673333Y-98247380D02*
X208673333Y-97247380D01*
X209149523Y-97247380D01*
X209578095Y-98247380D02*
X209768571Y-98247380D01*
X209863809Y-98199761D01*
X209911428Y-98152142D01*
X210006666Y-98009285D01*
X210054285Y-97818809D01*
X210054285Y-97437857D01*
X210006666Y-97342619D01*
X209959047Y-97295000D01*
X209863809Y-97247380D01*
X209673333Y-97247380D01*
X209578095Y-97295000D01*
X209530476Y-97342619D01*
X209482857Y-97437857D01*
X209482857Y-97675952D01*
X209530476Y-97771190D01*
X209578095Y-97818809D01*
X209673333Y-97866428D01*
X209863809Y-97866428D01*
X209959047Y-97818809D01*
X210006666Y-97771190D01*
X210054285Y-97675952D01*
X227350476Y-97723571D02*
X227017142Y-97723571D01*
X227017142Y-98247380D02*
X227017142Y-97247380D01*
X227493333Y-97247380D01*
X228398095Y-98247380D02*
X227826666Y-98247380D01*
X228112380Y-98247380D02*
X228112380Y-97247380D01*
X228017142Y-97390238D01*
X227921904Y-97485476D01*
X227826666Y-97533095D01*
X229017142Y-97247380D02*
X229112380Y-97247380D01*
X229207619Y-97295000D01*
X229255238Y-97342619D01*
X229302857Y-97437857D01*
X229350476Y-97628333D01*
X229350476Y-97866428D01*
X229302857Y-98056904D01*
X229255238Y-98152142D01*
X229207619Y-98199761D01*
X229112380Y-98247380D01*
X229017142Y-98247380D01*
X228921904Y-98199761D01*
X228874285Y-98152142D01*
X228826666Y-98056904D01*
X228779047Y-97866428D01*
X228779047Y-97628333D01*
X228826666Y-97437857D01*
X228874285Y-97342619D01*
X228921904Y-97295000D01*
X229017142Y-97247380D01*
X143666666Y-94564285D02*
X143666666Y-94088095D01*
X143952380Y-94659523D02*
X142952380Y-94326190D01*
X143952380Y-93992857D01*
X142952380Y-93754761D02*
X142952380Y-93135714D01*
X143333333Y-93469047D01*
X143333333Y-93326190D01*
X143380952Y-93230952D01*
X143428571Y-93183333D01*
X143523809Y-93135714D01*
X143761904Y-93135714D01*
X143857142Y-93183333D01*
X143904761Y-93230952D01*
X143952380Y-93326190D01*
X143952380Y-93611904D01*
X143904761Y-93707142D01*
X143857142Y-93754761D01*
X149666666Y-94564285D02*
X149666666Y-94088095D01*
X149952380Y-94659523D02*
X148952380Y-94326190D01*
X149952380Y-93992857D01*
X149047619Y-93707142D02*
X149000000Y-93659523D01*
X148952380Y-93564285D01*
X148952380Y-93326190D01*
X149000000Y-93230952D01*
X149047619Y-93183333D01*
X149142857Y-93135714D01*
X149238095Y-93135714D01*
X149380952Y-93183333D01*
X149952380Y-93754761D01*
X149952380Y-93135714D01*
X155666666Y-94564285D02*
X155666666Y-94088095D01*
X155952380Y-94659523D02*
X154952380Y-94326190D01*
X155952380Y-93992857D01*
X155952380Y-93135714D02*
X155952380Y-93707142D01*
X155952380Y-93421428D02*
X154952380Y-93421428D01*
X155095238Y-93516666D01*
X155190476Y-93611904D01*
X155238095Y-93707142D01*
X161666666Y-94564285D02*
X161666666Y-94088095D01*
X161952380Y-94659523D02*
X160952380Y-94326190D01*
X161952380Y-93992857D01*
X160952380Y-93469047D02*
X160952380Y-93373809D01*
X161000000Y-93278571D01*
X161047619Y-93230952D01*
X161142857Y-93183333D01*
X161333333Y-93135714D01*
X161571428Y-93135714D01*
X161761904Y-93183333D01*
X161857142Y-93230952D01*
X161904761Y-93278571D01*
X161952380Y-93373809D01*
X161952380Y-93469047D01*
X161904761Y-93564285D01*
X161857142Y-93611904D01*
X161761904Y-93659523D01*
X161571428Y-93707142D01*
X161333333Y-93707142D01*
X161142857Y-93659523D01*
X161047619Y-93611904D01*
X161000000Y-93564285D01*
X160952380Y-93469047D01*
X209244761Y-143177619D02*
X209149523Y-143130000D01*
X209054285Y-143034761D01*
X208911428Y-142891904D01*
X208816190Y-142844285D01*
X208720952Y-142844285D01*
X208768571Y-143082380D02*
X208673333Y-143034761D01*
X208578095Y-142939523D01*
X208530476Y-142749047D01*
X208530476Y-142415714D01*
X208578095Y-142225238D01*
X208673333Y-142130000D01*
X208768571Y-142082380D01*
X208959047Y-142082380D01*
X209054285Y-142130000D01*
X209149523Y-142225238D01*
X209197142Y-142415714D01*
X209197142Y-142749047D01*
X209149523Y-142939523D01*
X209054285Y-143034761D01*
X208959047Y-143082380D01*
X208768571Y-143082380D01*
X210149523Y-143082380D02*
X209578095Y-143082380D01*
X209863809Y-143082380D02*
X209863809Y-142082380D01*
X209768571Y-142225238D01*
X209673333Y-142320476D01*
X209578095Y-142368095D01*
X214253333Y-143927380D02*
X213920000Y-143451190D01*
X213681904Y-143927380D02*
X213681904Y-142927380D01*
X214062857Y-142927380D01*
X214158095Y-142975000D01*
X214205714Y-143022619D01*
X214253333Y-143117857D01*
X214253333Y-143260714D01*
X214205714Y-143355952D01*
X214158095Y-143403571D01*
X214062857Y-143451190D01*
X213681904Y-143451190D01*
X215205714Y-143927380D02*
X214634285Y-143927380D01*
X214920000Y-143927380D02*
X214920000Y-142927380D01*
X214824761Y-143070238D01*
X214729523Y-143165476D01*
X214634285Y-143213095D01*
X76653333Y-123617380D02*
X76320000Y-123141190D01*
X76081904Y-123617380D02*
X76081904Y-122617380D01*
X76462857Y-122617380D01*
X76558095Y-122665000D01*
X76605714Y-122712619D01*
X76653333Y-122807857D01*
X76653333Y-122950714D01*
X76605714Y-123045952D01*
X76558095Y-123093571D01*
X76462857Y-123141190D01*
X76081904Y-123141190D01*
X77034285Y-122712619D02*
X77081904Y-122665000D01*
X77177142Y-122617380D01*
X77415238Y-122617380D01*
X77510476Y-122665000D01*
X77558095Y-122712619D01*
X77605714Y-122807857D01*
X77605714Y-122903095D01*
X77558095Y-123045952D01*
X76986666Y-123617380D01*
X77605714Y-123617380D01*
X76653333Y-128697380D02*
X76320000Y-128221190D01*
X76081904Y-128697380D02*
X76081904Y-127697380D01*
X76462857Y-127697380D01*
X76558095Y-127745000D01*
X76605714Y-127792619D01*
X76653333Y-127887857D01*
X76653333Y-128030714D01*
X76605714Y-128125952D01*
X76558095Y-128173571D01*
X76462857Y-128221190D01*
X76081904Y-128221190D01*
X76986666Y-127697380D02*
X77605714Y-127697380D01*
X77272380Y-128078333D01*
X77415238Y-128078333D01*
X77510476Y-128125952D01*
X77558095Y-128173571D01*
X77605714Y-128268809D01*
X77605714Y-128506904D01*
X77558095Y-128602142D01*
X77510476Y-128649761D01*
X77415238Y-128697380D01*
X77129523Y-128697380D01*
X77034285Y-128649761D01*
X76986666Y-128602142D01*
X85413333Y-118547380D02*
X85080000Y-118071190D01*
X84841904Y-118547380D02*
X84841904Y-117547380D01*
X85222857Y-117547380D01*
X85318095Y-117595000D01*
X85365714Y-117642619D01*
X85413333Y-117737857D01*
X85413333Y-117880714D01*
X85365714Y-117975952D01*
X85318095Y-118023571D01*
X85222857Y-118071190D01*
X84841904Y-118071190D01*
X86270476Y-117880714D02*
X86270476Y-118547380D01*
X86032380Y-117499761D02*
X85794285Y-118214047D01*
X86413333Y-118214047D01*
X76753333Y-98347380D02*
X76420000Y-97871190D01*
X76181904Y-98347380D02*
X76181904Y-97347380D01*
X76562857Y-97347380D01*
X76658095Y-97395000D01*
X76705714Y-97442619D01*
X76753333Y-97537857D01*
X76753333Y-97680714D01*
X76705714Y-97775952D01*
X76658095Y-97823571D01*
X76562857Y-97871190D01*
X76181904Y-97871190D01*
X77658095Y-97347380D02*
X77181904Y-97347380D01*
X77134285Y-97823571D01*
X77181904Y-97775952D01*
X77277142Y-97728333D01*
X77515238Y-97728333D01*
X77610476Y-97775952D01*
X77658095Y-97823571D01*
X77705714Y-97918809D01*
X77705714Y-98156904D01*
X77658095Y-98252142D01*
X77610476Y-98299761D01*
X77515238Y-98347380D01*
X77277142Y-98347380D01*
X77181904Y-98299761D01*
X77134285Y-98252142D01*
X145503333Y-98247380D02*
X145170000Y-97771190D01*
X144931904Y-98247380D02*
X144931904Y-97247380D01*
X145312857Y-97247380D01*
X145408095Y-97295000D01*
X145455714Y-97342619D01*
X145503333Y-97437857D01*
X145503333Y-97580714D01*
X145455714Y-97675952D01*
X145408095Y-97723571D01*
X145312857Y-97771190D01*
X144931904Y-97771190D01*
X146360476Y-97247380D02*
X146170000Y-97247380D01*
X146074761Y-97295000D01*
X146027142Y-97342619D01*
X145931904Y-97485476D01*
X145884285Y-97675952D01*
X145884285Y-98056904D01*
X145931904Y-98152142D01*
X145979523Y-98199761D01*
X146074761Y-98247380D01*
X146265238Y-98247380D01*
X146360476Y-98199761D01*
X146408095Y-98152142D01*
X146455714Y-98056904D01*
X146455714Y-97818809D01*
X146408095Y-97723571D01*
X146360476Y-97675952D01*
X146265238Y-97628333D01*
X146074761Y-97628333D01*
X145979523Y-97675952D01*
X145931904Y-97723571D01*
X145884285Y-97818809D01*
X154163333Y-118547380D02*
X153830000Y-118071190D01*
X153591904Y-118547380D02*
X153591904Y-117547380D01*
X153972857Y-117547380D01*
X154068095Y-117595000D01*
X154115714Y-117642619D01*
X154163333Y-117737857D01*
X154163333Y-117880714D01*
X154115714Y-117975952D01*
X154068095Y-118023571D01*
X153972857Y-118071190D01*
X153591904Y-118071190D01*
X154496666Y-117547380D02*
X155163333Y-117547380D01*
X154734761Y-118547380D01*
X145503333Y-138847380D02*
X145170000Y-138371190D01*
X144931904Y-138847380D02*
X144931904Y-137847380D01*
X145312857Y-137847380D01*
X145408095Y-137895000D01*
X145455714Y-137942619D01*
X145503333Y-138037857D01*
X145503333Y-138180714D01*
X145455714Y-138275952D01*
X145408095Y-138323571D01*
X145312857Y-138371190D01*
X144931904Y-138371190D01*
X146074761Y-138275952D02*
X145979523Y-138228333D01*
X145931904Y-138180714D01*
X145884285Y-138085476D01*
X145884285Y-138037857D01*
X145931904Y-137942619D01*
X145979523Y-137895000D01*
X146074761Y-137847380D01*
X146265238Y-137847380D01*
X146360476Y-137895000D01*
X146408095Y-137942619D01*
X146455714Y-138037857D01*
X146455714Y-138085476D01*
X146408095Y-138180714D01*
X146360476Y-138228333D01*
X146265238Y-138275952D01*
X146074761Y-138275952D01*
X145979523Y-138323571D01*
X145931904Y-138371190D01*
X145884285Y-138466428D01*
X145884285Y-138656904D01*
X145931904Y-138752142D01*
X145979523Y-138799761D01*
X146074761Y-138847380D01*
X146265238Y-138847380D01*
X146360476Y-138799761D01*
X146408095Y-138752142D01*
X146455714Y-138656904D01*
X146455714Y-138466428D01*
X146408095Y-138371190D01*
X146360476Y-138323571D01*
X146265238Y-138275952D01*
X214253333Y-138847380D02*
X213920000Y-138371190D01*
X213681904Y-138847380D02*
X213681904Y-137847380D01*
X214062857Y-137847380D01*
X214158095Y-137895000D01*
X214205714Y-137942619D01*
X214253333Y-138037857D01*
X214253333Y-138180714D01*
X214205714Y-138275952D01*
X214158095Y-138323571D01*
X214062857Y-138371190D01*
X213681904Y-138371190D01*
X214729523Y-138847380D02*
X214920000Y-138847380D01*
X215015238Y-138799761D01*
X215062857Y-138752142D01*
X215158095Y-138609285D01*
X215205714Y-138418809D01*
X215205714Y-138037857D01*
X215158095Y-137942619D01*
X215110476Y-137895000D01*
X215015238Y-137847380D01*
X214824761Y-137847380D01*
X214729523Y-137895000D01*
X214681904Y-137942619D01*
X214634285Y-138037857D01*
X214634285Y-138275952D01*
X214681904Y-138371190D01*
X214729523Y-138418809D01*
X214824761Y-138466428D01*
X215015238Y-138466428D01*
X215110476Y-138418809D01*
X215158095Y-138371190D01*
X215205714Y-138275952D01*
X222437142Y-118547380D02*
X222103809Y-118071190D01*
X221865714Y-118547380D02*
X221865714Y-117547380D01*
X222246666Y-117547380D01*
X222341904Y-117595000D01*
X222389523Y-117642619D01*
X222437142Y-117737857D01*
X222437142Y-117880714D01*
X222389523Y-117975952D01*
X222341904Y-118023571D01*
X222246666Y-118071190D01*
X221865714Y-118071190D01*
X223389523Y-118547380D02*
X222818095Y-118547380D01*
X223103809Y-118547380D02*
X223103809Y-117547380D01*
X223008571Y-117690238D01*
X222913333Y-117785476D01*
X222818095Y-117833095D01*
X224008571Y-117547380D02*
X224103809Y-117547380D01*
X224199047Y-117595000D01*
X224246666Y-117642619D01*
X224294285Y-117737857D01*
X224341904Y-117928333D01*
X224341904Y-118166428D01*
X224294285Y-118356904D01*
X224246666Y-118452142D01*
X224199047Y-118499761D01*
X224103809Y-118547380D01*
X224008571Y-118547380D01*
X223913333Y-118499761D01*
X223865714Y-118452142D01*
X223818095Y-118356904D01*
X223770476Y-118166428D01*
X223770476Y-117928333D01*
X223818095Y-117737857D01*
X223865714Y-117642619D01*
X223913333Y-117595000D01*
X224008571Y-117547380D01*
X166962380Y-113032857D02*
X166486190Y-113366190D01*
X166962380Y-113604285D02*
X165962380Y-113604285D01*
X165962380Y-113223333D01*
X166010000Y-113128095D01*
X166057619Y-113080476D01*
X166152857Y-113032857D01*
X166295714Y-113032857D01*
X166390952Y-113080476D01*
X166438571Y-113128095D01*
X166486190Y-113223333D01*
X166486190Y-113604285D01*
X166962380Y-112080476D02*
X166962380Y-112651904D01*
X166962380Y-112366190D02*
X165962380Y-112366190D01*
X166105238Y-112461428D01*
X166200476Y-112556666D01*
X166248095Y-112651904D01*
X166962380Y-111128095D02*
X166962380Y-111699523D01*
X166962380Y-111413809D02*
X165962380Y-111413809D01*
X166105238Y-111509047D01*
X166200476Y-111604285D01*
X166248095Y-111699523D01*
X166962380Y-107952857D02*
X166486190Y-108286190D01*
X166962380Y-108524285D02*
X165962380Y-108524285D01*
X165962380Y-108143333D01*
X166010000Y-108048095D01*
X166057619Y-108000476D01*
X166152857Y-107952857D01*
X166295714Y-107952857D01*
X166390952Y-108000476D01*
X166438571Y-108048095D01*
X166486190Y-108143333D01*
X166486190Y-108524285D01*
X166962380Y-107000476D02*
X166962380Y-107571904D01*
X166962380Y-107286190D02*
X165962380Y-107286190D01*
X166105238Y-107381428D01*
X166200476Y-107476666D01*
X166248095Y-107571904D01*
X166057619Y-106619523D02*
X166010000Y-106571904D01*
X165962380Y-106476666D01*
X165962380Y-106238571D01*
X166010000Y-106143333D01*
X166057619Y-106095714D01*
X166152857Y-106048095D01*
X166248095Y-106048095D01*
X166390952Y-106095714D01*
X166962380Y-106667142D01*
X166962380Y-106048095D01*
X213777142Y-98247380D02*
X213443809Y-97771190D01*
X213205714Y-98247380D02*
X213205714Y-97247380D01*
X213586666Y-97247380D01*
X213681904Y-97295000D01*
X213729523Y-97342619D01*
X213777142Y-97437857D01*
X213777142Y-97580714D01*
X213729523Y-97675952D01*
X213681904Y-97723571D01*
X213586666Y-97771190D01*
X213205714Y-97771190D01*
X214729523Y-98247380D02*
X214158095Y-98247380D01*
X214443809Y-98247380D02*
X214443809Y-97247380D01*
X214348571Y-97390238D01*
X214253333Y-97485476D01*
X214158095Y-97533095D01*
X215062857Y-97247380D02*
X215681904Y-97247380D01*
X215348571Y-97628333D01*
X215491428Y-97628333D01*
X215586666Y-97675952D01*
X215634285Y-97723571D01*
X215681904Y-97818809D01*
X215681904Y-98056904D01*
X215634285Y-98152142D01*
X215586666Y-98199761D01*
X215491428Y-98247380D01*
X215205714Y-98247380D01*
X215110476Y-98199761D01*
X215062857Y-98152142D01*
X225482142Y-135682380D02*
X225148809Y-135206190D01*
X224910714Y-135682380D02*
X224910714Y-134682380D01*
X225291666Y-134682380D01*
X225386904Y-134730000D01*
X225434523Y-134777619D01*
X225482142Y-134872857D01*
X225482142Y-135015714D01*
X225434523Y-135110952D01*
X225386904Y-135158571D01*
X225291666Y-135206190D01*
X224910714Y-135206190D01*
X226434523Y-135682380D02*
X225863095Y-135682380D01*
X226148809Y-135682380D02*
X226148809Y-134682380D01*
X226053571Y-134825238D01*
X225958333Y-134920476D01*
X225863095Y-134968095D01*
X227291666Y-135015714D02*
X227291666Y-135682380D01*
X227053571Y-134634761D02*
X226815476Y-135349047D01*
X227434523Y-135349047D01*
X228847619Y-129507142D02*
X229323809Y-129173809D01*
X228847619Y-128935714D02*
X229847619Y-128935714D01*
X229847619Y-129316666D01*
X229800000Y-129411904D01*
X229752380Y-129459523D01*
X229657142Y-129507142D01*
X229514285Y-129507142D01*
X229419047Y-129459523D01*
X229371428Y-129411904D01*
X229323809Y-129316666D01*
X229323809Y-128935714D01*
X228847619Y-130459523D02*
X228847619Y-129888095D01*
X228847619Y-130173809D02*
X229847619Y-130173809D01*
X229704761Y-130078571D01*
X229609523Y-129983333D01*
X229561904Y-129888095D01*
X229847619Y-131364285D02*
X229847619Y-130888095D01*
X229371428Y-130840476D01*
X229419047Y-130888095D01*
X229466666Y-130983333D01*
X229466666Y-131221428D01*
X229419047Y-131316666D01*
X229371428Y-131364285D01*
X229276190Y-131411904D01*
X229038095Y-131411904D01*
X228942857Y-131364285D01*
X228895238Y-131316666D01*
X228847619Y-131221428D01*
X228847619Y-130983333D01*
X228895238Y-130888095D01*
X228942857Y-130840476D01*
X222437142Y-98247380D02*
X222103809Y-97771190D01*
X221865714Y-98247380D02*
X221865714Y-97247380D01*
X222246666Y-97247380D01*
X222341904Y-97295000D01*
X222389523Y-97342619D01*
X222437142Y-97437857D01*
X222437142Y-97580714D01*
X222389523Y-97675952D01*
X222341904Y-97723571D01*
X222246666Y-97771190D01*
X221865714Y-97771190D01*
X223389523Y-98247380D02*
X222818095Y-98247380D01*
X223103809Y-98247380D02*
X223103809Y-97247380D01*
X223008571Y-97390238D01*
X222913333Y-97485476D01*
X222818095Y-97533095D01*
X224246666Y-97247380D02*
X224056190Y-97247380D01*
X223960952Y-97295000D01*
X223913333Y-97342619D01*
X223818095Y-97485476D01*
X223770476Y-97675952D01*
X223770476Y-98056904D01*
X223818095Y-98152142D01*
X223865714Y-98199761D01*
X223960952Y-98247380D01*
X224151428Y-98247380D01*
X224246666Y-98199761D01*
X224294285Y-98152142D01*
X224341904Y-98056904D01*
X224341904Y-97818809D01*
X224294285Y-97723571D01*
X224246666Y-97675952D01*
X224151428Y-97628333D01*
X223960952Y-97628333D01*
X223865714Y-97675952D01*
X223818095Y-97723571D01*
X223770476Y-97818809D01*
X225482142Y-125522380D02*
X225148809Y-125046190D01*
X224910714Y-125522380D02*
X224910714Y-124522380D01*
X225291666Y-124522380D01*
X225386904Y-124570000D01*
X225434523Y-124617619D01*
X225482142Y-124712857D01*
X225482142Y-124855714D01*
X225434523Y-124950952D01*
X225386904Y-124998571D01*
X225291666Y-125046190D01*
X224910714Y-125046190D01*
X226434523Y-125522380D02*
X225863095Y-125522380D01*
X226148809Y-125522380D02*
X226148809Y-124522380D01*
X226053571Y-124665238D01*
X225958333Y-124760476D01*
X225863095Y-124808095D01*
X226767857Y-124522380D02*
X227434523Y-124522380D01*
X227005952Y-125522380D01*
M02*
