G04 #@! TF.GenerationSoftware,KiCad,Pcbnew,(5.0.0-rc2-dev-420-gf42ca89bb)*
G04 #@! TF.CreationDate,2018-04-16T10:11:45+02:00*
G04 #@! TF.ProjectId,LTC6811Test,4C544336383131546573742E6B696361,REV 1*
G04 #@! TF.SameCoordinates,Original*
G04 #@! TF.FileFunction,Copper,L1,Top,Signal*
G04 #@! TF.FilePolarity,Positive*
%FSLAX46Y46*%
G04 Gerber Fmt 4.6, Leading zero omitted, Abs format (unit mm)*
G04 Created by KiCad (PCBNEW (5.0.0-rc2-dev-420-gf42ca89bb)) date 04/16/18 10:11:45*
%MOMM*%
%LPD*%
G01*
G04 APERTURE LIST*
%ADD10R,1.700000X1.700000*%
%ADD11O,1.700000X1.700000*%
%ADD12R,1.270000X0.760000*%
%ADD13R,1.500000X1.145000*%
%ADD14R,1.250000X0.250000*%
%ADD15R,1.145000X1.500000*%
%ADD16R,1.500000X1.000000*%
%ADD17R,1.000000X1.500000*%
%ADD18R,1.500000X0.450000*%
%ADD19R,0.900000X0.305000*%
%ADD20R,2.000000X2.000000*%
%ADD21C,0.500000*%
%ADD22C,0.300000*%
%ADD23C,0.550000*%
%ADD24C,2.000000*%
G04 APERTURE END LIST*
D10*
X102725000Y-107930000D03*
D11*
X102725000Y-105390000D03*
X102725000Y-102850000D03*
X102725000Y-100310000D03*
X102725000Y-97770000D03*
X102725000Y-95230000D03*
X102725000Y-92690000D03*
X102725000Y-90150000D03*
X102725000Y-87610000D03*
X102725000Y-85070000D03*
D12*
X136125000Y-74910000D03*
X144505000Y-74910000D03*
X136125000Y-72370000D03*
X144505000Y-72370000D03*
X136125000Y-69830000D03*
X144505000Y-69830000D03*
X106155000Y-74910000D03*
X114535000Y-74910000D03*
X106155000Y-72370000D03*
X114535000Y-72370000D03*
X106155000Y-69830000D03*
X114535000Y-69830000D03*
D11*
X112885000Y-67290000D03*
D10*
X115425000Y-67290000D03*
D13*
X132755000Y-89687500D03*
X132755000Y-91772500D03*
D14*
X122755000Y-88230000D03*
X116005000Y-88230000D03*
X122755000Y-88730000D03*
X116005000Y-88730000D03*
X122755000Y-89230000D03*
X116005000Y-89230000D03*
X122755000Y-89730000D03*
X116005000Y-89730000D03*
X122755000Y-90230000D03*
X116005000Y-90230000D03*
X122755000Y-90730000D03*
X116005000Y-90730000D03*
X122755000Y-91230000D03*
X116005000Y-91230000D03*
X122755000Y-91730000D03*
X116005000Y-91730000D03*
X122755000Y-92230000D03*
X116005000Y-92230000D03*
X122755000Y-92730000D03*
X116005000Y-92730000D03*
X122755000Y-93230000D03*
X116005000Y-93230000D03*
X122755000Y-93730000D03*
X116005000Y-93730000D03*
X122755000Y-94230000D03*
X116005000Y-94230000D03*
X122755000Y-94730000D03*
X116005000Y-94730000D03*
X122755000Y-95230000D03*
X116005000Y-95230000D03*
X122755000Y-95730000D03*
X116005000Y-95730000D03*
X122755000Y-96230000D03*
X116005000Y-96230000D03*
X122755000Y-96730000D03*
X116005000Y-96730000D03*
X122755000Y-97230000D03*
X116005000Y-97230000D03*
X122755000Y-97730000D03*
X116005000Y-97730000D03*
X122755000Y-98230000D03*
X116005000Y-98230000D03*
X122755000Y-98730000D03*
X116005000Y-98730000D03*
X122755000Y-99230000D03*
X116005000Y-99230000D03*
X122755000Y-99730000D03*
X116005000Y-99730000D03*
D15*
X107805000Y-100310000D03*
X105720000Y-100310000D03*
X101570000Y-71120000D03*
X103655000Y-71120000D03*
X147005000Y-71310500D03*
X149090000Y-71310500D03*
X145422500Y-89980000D03*
X143337500Y-89980000D03*
D13*
X128974200Y-93687500D03*
X128974200Y-95772500D03*
X131273600Y-95772500D03*
X131273600Y-93687500D03*
D15*
X120422500Y-85979000D03*
X118337500Y-85979000D03*
D13*
X130255000Y-89687500D03*
X130255000Y-91772500D03*
D10*
X138285000Y-67290000D03*
D11*
X135745000Y-67290000D03*
D10*
X150985000Y-100230000D03*
D11*
X150985000Y-97690000D03*
X150985000Y-95150000D03*
X150985000Y-92610000D03*
X150985000Y-90070000D03*
X150985000Y-87530000D03*
D10*
X102725000Y-79990000D03*
D11*
X102725000Y-77450000D03*
D10*
X123044000Y-106680000D03*
D11*
X125584000Y-106680000D03*
X128124000Y-106680000D03*
X130664000Y-106680000D03*
X133204000Y-106680000D03*
D16*
X123425000Y-76210000D03*
X123425000Y-74910000D03*
X123425000Y-73610000D03*
X127235000Y-76210000D03*
X127235000Y-74910000D03*
X127235000Y-73610000D03*
X123425000Y-71130000D03*
X123425000Y-69830000D03*
X123425000Y-68530000D03*
X127235000Y-71130000D03*
X127235000Y-69830000D03*
X127235000Y-68530000D03*
D17*
X143080000Y-97980000D03*
X144380000Y-97980000D03*
X145680000Y-97980000D03*
D18*
X130255000Y-86580000D03*
X130255000Y-87880000D03*
X132915000Y-87230000D03*
D15*
X119160000Y-74910000D03*
X117075000Y-74910000D03*
X133585000Y-74910000D03*
X131500000Y-74910000D03*
X103655000Y-73620000D03*
X101570000Y-73620000D03*
X149090000Y-73660000D03*
X147005000Y-73660000D03*
X117075000Y-72370000D03*
X119160000Y-72370000D03*
X131500000Y-72370000D03*
X133585000Y-72370000D03*
X117075000Y-69830000D03*
X119160000Y-69830000D03*
X131500000Y-69830000D03*
X133585000Y-69830000D03*
D13*
X137330000Y-95772500D03*
X137330000Y-93687500D03*
X139503200Y-95758000D03*
X139503200Y-93673000D03*
D15*
X105720000Y-82530000D03*
X107805000Y-82530000D03*
X107805000Y-85070000D03*
X105720000Y-85070000D03*
X105720000Y-87610000D03*
X107805000Y-87610000D03*
X107805000Y-90150000D03*
X105720000Y-90150000D03*
X107805000Y-92690000D03*
X105720000Y-92690000D03*
D13*
X133559600Y-93699500D03*
X133559600Y-95784500D03*
D15*
X107805000Y-95230000D03*
X105720000Y-95230000D03*
X105720000Y-97770000D03*
X107805000Y-97770000D03*
X105720000Y-102850000D03*
X107805000Y-102850000D03*
X107805000Y-105390000D03*
X105720000Y-105390000D03*
X120422500Y-80980000D03*
X118337500Y-80980000D03*
X111794200Y-107869360D03*
X109709200Y-107869360D03*
X120422500Y-83480000D03*
X118337500Y-83480000D03*
D19*
X142330000Y-95730000D03*
X146430000Y-95730000D03*
X142330000Y-95230000D03*
X146430000Y-95230000D03*
X142330000Y-94730000D03*
X146430000Y-94730000D03*
X142330000Y-94230000D03*
X146430000Y-94230000D03*
X142330000Y-93730000D03*
X146430000Y-93730000D03*
X142330000Y-93230000D03*
X146430000Y-93230000D03*
X142330000Y-92730000D03*
X146430000Y-92730000D03*
X142330000Y-92230000D03*
X146430000Y-92230000D03*
D20*
X132755000Y-84687500D03*
X115845640Y-103088440D03*
D21*
X101570000Y-73620000D02*
X101570000Y-71120000D01*
D22*
X125855000Y-90730000D02*
X125855000Y-81910000D01*
X122755000Y-91730000D02*
X124855000Y-91730000D01*
X124855000Y-91730000D02*
X125855000Y-90730000D01*
D21*
X104767500Y-69830000D02*
X103655000Y-70942500D01*
X103655000Y-70942500D02*
X103655000Y-71120000D01*
D22*
X125855000Y-81910000D02*
X121395000Y-77450000D01*
D21*
X106155000Y-69830000D02*
X104767500Y-69830000D01*
D22*
X106155000Y-69830000D02*
X106808000Y-69830000D01*
D21*
X106808000Y-69830000D02*
X110344000Y-73366000D01*
X121395000Y-77450000D02*
X110344000Y-77450000D01*
X110344000Y-73366000D02*
X110344000Y-77450000D01*
D22*
X141687498Y-92730000D02*
X141230000Y-92272502D01*
X142330000Y-92730000D02*
X141687498Y-92730000D01*
D21*
X141230000Y-71130000D02*
X142530000Y-69830000D01*
X142530000Y-69830000D02*
X144505000Y-69830000D01*
X144505000Y-69830000D02*
X145702000Y-69830000D01*
X145702000Y-69830000D02*
X147005000Y-71133000D01*
D22*
X147005000Y-71133000D02*
X147005000Y-71310500D01*
X141230000Y-92272502D02*
X141230000Y-91999200D01*
D21*
X141230000Y-71130000D02*
X141230000Y-91846000D01*
X149090000Y-71310500D02*
X149090000Y-73660000D01*
X143080000Y-99180000D02*
X144130000Y-100230000D01*
X143080000Y-97980000D02*
X143080000Y-99180000D01*
X144130000Y-100230000D02*
X150985000Y-100230000D01*
X143080000Y-97980000D02*
X143080000Y-96930000D01*
X143080000Y-96930000D02*
X143630000Y-96380000D01*
X143630000Y-96380000D02*
X143630000Y-94230000D01*
D22*
X142330000Y-94230000D02*
X142330000Y-94730000D01*
X145422500Y-92230000D02*
X145422500Y-92022500D01*
X145422500Y-92437500D02*
X145422500Y-92230000D01*
X146430000Y-92230000D02*
X145422500Y-92230000D01*
X143630000Y-94230000D02*
X145422500Y-92437500D01*
X142330000Y-94230000D02*
X143630000Y-94230000D01*
X146430000Y-92230000D02*
X146430000Y-92730000D01*
X145422500Y-92022500D02*
X145422500Y-89980000D01*
X141580000Y-94230000D02*
X142330000Y-94230000D01*
X141110200Y-94230000D02*
X141580000Y-94230000D01*
X140553200Y-93673000D02*
X141110200Y-94230000D01*
X139503200Y-93673000D02*
X140553200Y-93673000D01*
X144830000Y-93730000D02*
X145330000Y-93230000D01*
X145330000Y-93230000D02*
X146430000Y-93230000D01*
D21*
X145680000Y-97980000D02*
X145680000Y-96930000D01*
X145680000Y-96930000D02*
X144830000Y-96080000D01*
D22*
X143130000Y-92230000D02*
X143337500Y-92022500D01*
D21*
X143337500Y-92022500D02*
X143337500Y-89980000D01*
D22*
X142330000Y-92230000D02*
X143130000Y-92230000D01*
D21*
X149782919Y-87530000D02*
X150985000Y-87530000D01*
X143337500Y-88930000D02*
X144737500Y-87530000D01*
X143337500Y-89980000D02*
X143337500Y-88930000D01*
D22*
X144830000Y-96171600D02*
X144830000Y-96080000D01*
X143337500Y-93600100D02*
X143337500Y-92022500D01*
X142330000Y-93730000D02*
X143207600Y-93730000D01*
X143207600Y-93730000D02*
X143337500Y-93600100D01*
D21*
X144830000Y-96171600D02*
X144830000Y-94088800D01*
D22*
X144830000Y-93730000D02*
X144830000Y-94088800D01*
D21*
X147986800Y-87580800D02*
X148037600Y-87530000D01*
X147986800Y-92557600D02*
X147986800Y-87580800D01*
D22*
X147314400Y-93230000D02*
X147986800Y-92557600D01*
X146430000Y-93230000D02*
X147314400Y-93230000D01*
D21*
X144737500Y-87530000D02*
X148037600Y-87530000D01*
X148037600Y-87530000D02*
X149782919Y-87530000D01*
D22*
X123974200Y-94230000D02*
X128431700Y-94230000D01*
X128431700Y-94230000D02*
X128974200Y-93687500D01*
D21*
X128974200Y-93687500D02*
X131474200Y-93687500D01*
X120422500Y-94230000D02*
X120422500Y-89730000D01*
X120422500Y-96962500D02*
X120422500Y-94230000D01*
D22*
X122755000Y-94230000D02*
X120422500Y-94230000D01*
D21*
X120422500Y-89730000D02*
X120422500Y-88230000D01*
D22*
X122755000Y-89730000D02*
X121830000Y-89730000D01*
D21*
X120422500Y-88230000D02*
X120422500Y-85979000D01*
X122755000Y-88230000D02*
X121955000Y-88230000D01*
X120422500Y-85979000D02*
X120422500Y-83480000D01*
D22*
X122755000Y-89230000D02*
X122755000Y-89730000D01*
D21*
X122755000Y-88730000D02*
X122755000Y-89230000D01*
X122755000Y-88230000D02*
X122755000Y-88730000D01*
D22*
X121505000Y-96980000D02*
X121755000Y-97230000D01*
X121755000Y-97230000D02*
X122755000Y-97230000D01*
X121505000Y-96980000D02*
X121755000Y-96730000D01*
X121755000Y-96730000D02*
X122755000Y-96730000D01*
X109648560Y-107930000D02*
X109709200Y-107869360D01*
D21*
X102725000Y-107930000D02*
X109648560Y-107930000D01*
D22*
X109709200Y-107869360D02*
X109709200Y-107691860D01*
D21*
X109709200Y-106819360D02*
X109709200Y-107869360D01*
X110945840Y-105582720D02*
X109709200Y-106819360D01*
X112670640Y-105582720D02*
X110945840Y-105582720D01*
X121505000Y-96980000D02*
X120405000Y-96980000D01*
X120405000Y-96980000D02*
X120405000Y-97848360D01*
X121955000Y-88230000D02*
X120422500Y-88230000D01*
X121830000Y-89730000D02*
X120422500Y-89730000D01*
X120405000Y-97848360D02*
X116379040Y-101874320D01*
X116379040Y-101874320D02*
X112670640Y-105582720D01*
D22*
X116379040Y-102555040D02*
X115845640Y-103088440D01*
X116379040Y-101874320D02*
X116379040Y-102555040D01*
X123974200Y-94230000D02*
X122755000Y-94230000D01*
D21*
X132755000Y-91772500D02*
X131527600Y-91772500D01*
X131273600Y-93687500D02*
X131273600Y-92815000D01*
X131273600Y-92815000D02*
X131273600Y-91772500D01*
X131527600Y-91772500D02*
X131273600Y-91772500D01*
X131273600Y-91772500D02*
X130255000Y-91772500D01*
D22*
X123974200Y-95230000D02*
X128431700Y-95230000D01*
X128431700Y-95230000D02*
X128974200Y-95772500D01*
X123974200Y-95230000D02*
X122755000Y-95230000D01*
X131096100Y-95772500D02*
X131273600Y-95772500D01*
X130065600Y-94742000D02*
X131096100Y-95772500D01*
X124517200Y-94742000D02*
X130065600Y-94742000D01*
X124505200Y-94730000D02*
X124517200Y-94742000D01*
X122755000Y-94730000D02*
X124505200Y-94730000D01*
D21*
X107805000Y-82530000D02*
X108705000Y-82530000D01*
D22*
X116004990Y-88229990D02*
X116005000Y-88230000D01*
X114404990Y-88229990D02*
X116004990Y-88229990D01*
D21*
X112154000Y-85979000D02*
X112071200Y-85896200D01*
X118337500Y-85979000D02*
X112154000Y-85979000D01*
X108705000Y-82530000D02*
X112071200Y-85896200D01*
X112071200Y-85896200D02*
X114404990Y-88229990D01*
D22*
X131147500Y-87880000D02*
X131505000Y-87522500D01*
X130255000Y-87880000D02*
X131147500Y-87880000D01*
X131505000Y-87522500D02*
X131505000Y-85937500D01*
X131505000Y-85937500D02*
X132755000Y-84687500D01*
D21*
X130255000Y-89687500D02*
X130255000Y-87880000D01*
D22*
X121655000Y-92230000D02*
X121355000Y-92530000D01*
X122755000Y-92230000D02*
X121655000Y-92230000D01*
D21*
X121355000Y-92530000D02*
X121355000Y-93430000D01*
D22*
X121355000Y-93430000D02*
X121655000Y-93730000D01*
X121655000Y-93730000D02*
X122755000Y-93730000D01*
X122755000Y-93730000D02*
X124655000Y-93730000D01*
D21*
X128697500Y-89687500D02*
X130255000Y-89687500D01*
D22*
X124655000Y-93730000D02*
X128697500Y-89687500D01*
D21*
X132915000Y-87230000D02*
X132915000Y-89527500D01*
X132915000Y-89527500D02*
X132755000Y-89687500D01*
X134042300Y-89687500D02*
X132755000Y-89687500D01*
X134880400Y-90525600D02*
X134042300Y-89687500D01*
X134880400Y-92556200D02*
X134880400Y-92354400D01*
X133737100Y-93699500D02*
X134880400Y-92556200D01*
X133559600Y-93699500D02*
X133737100Y-93699500D01*
X134880400Y-92354400D02*
X134880400Y-90525600D01*
X112885000Y-67290000D02*
X112885000Y-75545000D01*
X123425000Y-76210000D02*
X122729200Y-76210000D01*
X122729200Y-76210000D02*
X122485200Y-76454000D01*
X113794000Y-76454000D02*
X112885000Y-75545000D01*
X122485200Y-76454000D02*
X113794000Y-76454000D01*
X115425000Y-67290000D02*
X122985000Y-67290000D01*
X122985000Y-67290000D02*
X123425000Y-67730000D01*
X123425000Y-67730000D02*
X123425000Y-68530000D01*
X138285000Y-67290000D02*
X138285000Y-75545000D01*
X128285000Y-76210000D02*
X128630600Y-76555600D01*
X127235000Y-76210000D02*
X128285000Y-76210000D01*
X137274400Y-76555600D02*
X138285000Y-75545000D01*
X128630600Y-76555600D02*
X137274400Y-76555600D01*
X135745000Y-67290000D02*
X127675000Y-67290000D01*
X127675000Y-67290000D02*
X127235000Y-67730000D01*
X127235000Y-67730000D02*
X127235000Y-68530000D01*
D22*
X106762500Y-81619998D02*
X106762500Y-83850000D01*
X106762500Y-83850000D02*
X107805000Y-84892500D01*
D21*
X107805000Y-84892500D02*
X107805000Y-85070000D01*
X102725000Y-79990000D02*
X105132502Y-79990000D01*
D22*
X105132502Y-79990000D02*
X106762500Y-81619998D01*
X115080000Y-90730000D02*
X114080000Y-89730000D01*
D21*
X114080000Y-89730000D02*
X113337500Y-89730000D01*
X113337500Y-89730000D02*
X114105000Y-89730000D01*
X114105000Y-89705000D02*
X114105000Y-89730000D01*
X107805000Y-85070000D02*
X108677500Y-85070000D01*
X108677500Y-85070000D02*
X113337500Y-89730000D01*
D22*
X115080000Y-88730000D02*
X114105000Y-89705000D01*
X116005000Y-90730000D02*
X115080000Y-90730000D01*
X115080000Y-89730000D02*
X116005000Y-89730000D01*
X114105000Y-89730000D02*
X115080000Y-89730000D01*
X116005000Y-88730000D02*
X115080000Y-88730000D01*
X100725000Y-79450000D02*
X100725000Y-85570000D01*
X102725000Y-77450000D02*
X100725000Y-79450000D01*
X100725000Y-85570000D02*
X101495000Y-86340000D01*
X101495000Y-86340000D02*
X108715000Y-86340000D01*
X113605000Y-91230000D02*
X116005000Y-91230000D01*
X108715000Y-86340000D02*
X108715000Y-86341360D01*
D21*
X108715000Y-86341360D02*
X112843360Y-90469720D01*
D22*
X112844720Y-90469720D02*
X113605000Y-91230000D01*
X112843360Y-90469720D02*
X112844720Y-90469720D01*
D21*
X123044000Y-102565200D02*
X124255000Y-101354200D01*
X123044000Y-106680000D02*
X123044000Y-102565200D01*
X124255000Y-101354200D02*
X124255000Y-99220600D01*
D22*
X124255000Y-98730000D02*
X122755000Y-98730000D01*
X124255000Y-99220600D02*
X124255000Y-98730000D01*
X125584000Y-98961000D02*
X125585000Y-98960000D01*
D21*
X125584000Y-106680000D02*
X125584000Y-98961000D01*
D22*
X125584000Y-98961000D02*
X125584000Y-98958400D01*
X125584000Y-98961000D02*
X125584000Y-98907600D01*
D21*
X125584000Y-98907600D02*
X125228400Y-98552000D01*
D22*
X124906400Y-98230000D02*
X125228400Y-98552000D01*
X122755000Y-98230000D02*
X124906400Y-98230000D01*
D21*
X128124000Y-99974400D02*
X128124000Y-106680000D01*
D22*
X122755000Y-97730000D02*
X125879600Y-97730000D01*
D21*
X125879600Y-97730000D02*
X128124000Y-99974400D01*
X130664000Y-101346000D02*
X130664000Y-106680000D01*
D22*
X122755000Y-96230000D02*
X125548000Y-96230000D01*
D21*
X130664000Y-101346000D02*
X126041200Y-96723200D01*
D22*
X125548000Y-96230000D02*
X126041200Y-96723200D01*
X122755000Y-95730000D02*
X126267200Y-95730000D01*
D21*
X133204000Y-102666800D02*
X133204000Y-106680000D01*
D22*
X126267200Y-95730000D02*
X126803200Y-96266000D01*
D21*
X126803200Y-96266000D02*
X133204000Y-102666800D01*
X102725000Y-105390000D02*
X105720000Y-105390000D01*
X102725000Y-102850000D02*
X105720000Y-102850000D01*
X102725000Y-100310000D02*
X105720000Y-100310000D01*
X101875001Y-101159999D02*
X101875001Y-101178999D01*
X102725000Y-100310000D02*
X101875001Y-101159999D01*
X101875001Y-101178999D02*
X100946000Y-102108000D01*
X100946000Y-102108000D02*
X100946000Y-109151000D01*
X100946000Y-109151000D02*
X100946000Y-109321600D01*
X100946000Y-109321600D02*
X101301600Y-109677200D01*
X134457800Y-109677200D02*
X135205000Y-108930000D01*
X101301600Y-109677200D02*
X134457800Y-109677200D01*
X135205000Y-98045000D02*
X135205000Y-108930000D01*
X135205000Y-98045000D02*
X133974200Y-96814200D01*
D22*
X133559600Y-96316800D02*
X133559600Y-95784500D01*
D21*
X133508800Y-96367600D02*
X133559600Y-96316800D01*
X133974200Y-96814200D02*
X133955400Y-96814200D01*
X133955400Y-96814200D02*
X133508800Y-96367600D01*
X102725000Y-97770000D02*
X105720000Y-97770000D01*
X102725000Y-95230000D02*
X105720000Y-95230000D01*
X102725000Y-92690000D02*
X105720000Y-92690000D01*
X102725000Y-90150000D02*
X105720000Y-90150000D01*
X102725000Y-87610000D02*
X105720000Y-87610000D01*
X105720000Y-85070000D02*
X105720000Y-82530000D01*
X102725000Y-85070000D02*
X105720000Y-85070000D01*
X119160000Y-74910000D02*
X123425000Y-74910000D01*
D22*
X117075000Y-72370000D02*
X117075000Y-72547500D01*
D21*
X117075000Y-72547500D02*
X119160000Y-74632500D01*
D22*
X119160000Y-74632500D02*
X119160000Y-74910000D01*
D21*
X123425000Y-73610000D02*
X127235000Y-73610000D01*
X131500000Y-74910000D02*
X131500000Y-72370000D01*
X127235000Y-74910000D02*
X131500000Y-74910000D01*
X123425000Y-71130000D02*
X127235000Y-71130000D01*
X119160000Y-69830000D02*
X123425000Y-69830000D01*
D22*
X119160000Y-72370000D02*
X119160000Y-69830000D01*
D21*
X127235000Y-69830000D02*
X131500000Y-69830000D01*
D22*
X131500000Y-69830000D02*
X131500000Y-70007500D01*
D21*
X131500000Y-70007500D02*
X133585000Y-72092500D01*
D22*
X133585000Y-72092500D02*
X133585000Y-72370000D01*
D21*
X144880000Y-99580000D02*
X144380000Y-99080000D01*
X146980000Y-99580000D02*
X144880000Y-99580000D01*
X147830000Y-98730000D02*
X146980000Y-99580000D01*
X147830000Y-96230000D02*
X147830000Y-98730000D01*
D22*
X146430000Y-95730000D02*
X147330000Y-95730000D01*
X147330000Y-95730000D02*
X147830000Y-96230000D01*
D21*
X144380000Y-99080000D02*
X144380000Y-97980000D01*
X130255000Y-86580000D02*
X128705000Y-86580000D01*
D22*
X128705000Y-86580000D02*
X128705000Y-86591800D01*
D21*
X128705000Y-86591800D02*
X126955600Y-88341200D01*
D22*
X126466800Y-88830000D02*
X126955600Y-88341200D01*
X126455000Y-88830000D02*
X126466800Y-88830000D01*
X126455000Y-91030000D02*
X126455000Y-88830000D01*
X122755000Y-93230000D02*
X124255000Y-93230000D01*
X124255000Y-93230000D02*
X126455000Y-91030000D01*
D21*
X114535000Y-74910000D02*
X117075000Y-74910000D01*
X133585000Y-74910000D02*
X136125000Y-74910000D01*
X106155000Y-74910000D02*
X104767500Y-74910000D01*
X104767500Y-74910000D02*
X103655000Y-73797500D01*
X103655000Y-73797500D02*
X103655000Y-73620000D01*
X106155000Y-75590000D02*
X109152600Y-78587600D01*
X106155000Y-74910000D02*
X106155000Y-75590000D01*
X109152600Y-78587600D02*
X120453200Y-78587600D01*
X120453200Y-78587600D02*
X121062800Y-78587600D01*
D22*
X124555000Y-91230000D02*
X122755000Y-91230000D01*
X125255000Y-90530000D02*
X124555000Y-91230000D01*
X125255000Y-82373400D02*
X125255000Y-90530000D01*
X121062800Y-78587600D02*
X121469200Y-78587600D01*
X121469200Y-78587600D02*
X125255000Y-82373400D01*
D21*
X146930000Y-68730000D02*
X148030000Y-69830000D01*
D22*
X148030000Y-69830000D02*
X148030000Y-72457500D01*
X148030000Y-72457500D02*
X147005000Y-73482500D01*
D21*
X147005000Y-73482500D02*
X147005000Y-73660000D01*
X144505000Y-74910000D02*
X145932500Y-74910000D01*
X145932500Y-74910000D02*
X147005000Y-73837500D01*
X147005000Y-73837500D02*
X147005000Y-73660000D01*
D22*
X142951192Y-68730000D02*
X142948792Y-68732400D01*
D21*
X142948792Y-68732400D02*
X141941600Y-68732400D01*
X146930000Y-68730000D02*
X142951192Y-68730000D01*
X141941600Y-68732400D02*
X139554000Y-71120000D01*
D23*
X139554000Y-71120000D02*
X139554000Y-91454000D01*
D21*
X139554000Y-91454000D02*
X139554000Y-91643200D01*
X139554000Y-91643200D02*
X140620800Y-92710000D01*
D22*
X141140800Y-93230000D02*
X140620800Y-92710000D01*
X142330000Y-93230000D02*
X141140800Y-93230000D01*
D21*
X114535000Y-69830000D02*
X117075000Y-69830000D01*
X133585000Y-69830000D02*
X136125000Y-69830000D01*
X139488700Y-95772500D02*
X139503200Y-95758000D01*
X137330000Y-95772500D02*
X139488700Y-95772500D01*
D22*
X141580000Y-95230000D02*
X142330000Y-95230000D01*
X141081200Y-95230000D02*
X141580000Y-95230000D01*
X140553200Y-95758000D02*
X141081200Y-95230000D01*
X139503200Y-95758000D02*
X140553200Y-95758000D01*
X142330000Y-95730000D02*
X141630000Y-95730000D01*
D21*
X137152500Y-93687500D02*
X137330000Y-93687500D01*
X136280000Y-93687500D02*
X135642400Y-94325100D01*
X137330000Y-93687500D02*
X136280000Y-93687500D01*
X135642400Y-94325100D02*
X135642400Y-96774000D01*
X135642400Y-96774000D02*
X135998000Y-97129600D01*
X135998000Y-97129600D02*
X140671600Y-97129600D01*
D22*
X141630000Y-96171200D02*
X141630000Y-95730000D01*
D21*
X140671600Y-97129600D02*
X141630000Y-96171200D01*
X107805000Y-87610000D02*
X108677500Y-87610000D01*
X108677500Y-87610000D02*
X112797500Y-91730000D01*
D22*
X115080000Y-91730000D02*
X116005000Y-91730000D01*
X112797500Y-91730000D02*
X115080000Y-91730000D01*
D21*
X107805000Y-90150000D02*
X108677500Y-90150000D01*
X108677500Y-90150000D02*
X111257500Y-92730000D01*
D22*
X115080000Y-92730000D02*
X116005000Y-92730000D01*
D21*
X111257500Y-92730000D02*
X115080000Y-92730000D01*
X107805000Y-92690000D02*
X108677500Y-92690000D01*
X108677500Y-92690000D02*
X109717500Y-93730000D01*
X109717500Y-93730000D02*
X115080000Y-93730000D01*
D22*
X115080000Y-93730000D02*
X116005000Y-93730000D01*
D21*
X113905000Y-95230000D02*
X107805000Y-95230000D01*
D22*
X113905000Y-95230000D02*
X114405000Y-95730000D01*
X114405000Y-94730000D02*
X113905000Y-95230000D01*
X114405000Y-95730000D02*
X116005000Y-95730000D01*
X116005000Y-94730000D02*
X114405000Y-94730000D01*
D21*
X107805000Y-97770000D02*
X108677500Y-97770000D01*
X108677500Y-97770000D02*
X109717500Y-96730000D01*
D22*
X115080000Y-96730000D02*
X116005000Y-96730000D01*
D21*
X109717500Y-96730000D02*
X115080000Y-96730000D01*
X107805000Y-100310000D02*
X108677500Y-100310000D01*
X108677500Y-100310000D02*
X111257500Y-97730000D01*
D22*
X115080000Y-97730000D02*
X116005000Y-97730000D01*
D21*
X111257500Y-97730000D02*
X115080000Y-97730000D01*
X107805000Y-102850000D02*
X108677500Y-102850000D01*
X108677500Y-102850000D02*
X112797500Y-98730000D01*
X112797500Y-98730000D02*
X115080000Y-98730000D01*
D22*
X115080000Y-98730000D02*
X116005000Y-98730000D01*
D21*
X108645000Y-105390000D02*
X114305000Y-99730000D01*
D22*
X107805000Y-105390000D02*
X108645000Y-105390000D01*
D21*
X114305000Y-99730000D02*
X115080000Y-99730000D01*
D22*
X115080000Y-99730000D02*
X116005000Y-99730000D01*
X123680000Y-90230000D02*
X122755000Y-90230000D01*
X124004990Y-89905010D02*
X123680000Y-90230000D01*
X124004990Y-83689990D02*
X124004990Y-89905010D01*
D21*
X121295000Y-80980000D02*
X123704400Y-83389400D01*
X120422500Y-80980000D02*
X121295000Y-80980000D01*
D22*
X123704400Y-83389400D02*
X124004990Y-83689990D01*
D21*
X118337500Y-83480000D02*
X118337500Y-80980000D01*
D22*
X124104980Y-90730000D02*
X123680000Y-90730000D01*
D21*
X118337500Y-80980000D02*
X118337500Y-79930000D01*
X118337500Y-79930000D02*
X118637510Y-79629990D01*
X118637510Y-79629990D02*
X121404990Y-79629990D01*
D22*
X123680000Y-90730000D02*
X122755000Y-90730000D01*
X121404990Y-79629990D02*
X124604990Y-82829990D01*
X124604990Y-82829990D02*
X124604990Y-90229990D01*
X124604990Y-90229990D02*
X124104980Y-90730000D01*
X121830000Y-99230000D02*
X122755000Y-99230000D01*
D21*
X116332682Y-107869360D02*
X121311720Y-102890322D01*
X111794200Y-107869360D02*
X116332682Y-107869360D01*
X121311720Y-99748280D02*
X121830000Y-99230000D01*
X121311720Y-102890322D02*
X121311720Y-99748280D01*
X148901200Y-95606200D02*
X150985000Y-97690000D01*
D22*
X148901200Y-95605600D02*
X148901200Y-95606200D01*
X146430000Y-95230000D02*
X148525600Y-95230000D01*
X148525600Y-95230000D02*
X148901200Y-95605600D01*
X146430000Y-94730000D02*
X150565000Y-94730000D01*
X150565000Y-94730000D02*
X150985000Y-95150000D01*
X146430000Y-94230000D02*
X149365000Y-94230000D01*
X149365000Y-94230000D02*
X150985000Y-92610000D01*
X148130000Y-93730000D02*
X149280000Y-92580000D01*
X146430000Y-93730000D02*
X148130000Y-93730000D01*
D21*
X149280000Y-92580000D02*
X149280000Y-91180000D01*
X149280000Y-91180000D02*
X150390000Y-90070000D01*
D22*
X150390000Y-90070000D02*
X150985000Y-90070000D01*
D24*
G36*
X141152573Y-98730000D02*
X141261229Y-99276253D01*
X141482772Y-99607815D01*
X141525734Y-99823798D01*
X141890418Y-100369583D01*
X142028185Y-100461636D01*
X142848363Y-101281815D01*
X142940417Y-101419583D01*
X143486202Y-101784266D01*
X143967491Y-101880000D01*
X143967495Y-101880000D01*
X144129999Y-101912324D01*
X144292503Y-101880000D01*
X148985778Y-101880000D01*
X149125657Y-102089343D01*
X149588747Y-102398771D01*
X150135000Y-102507427D01*
X151835000Y-102507427D01*
X152075001Y-102459688D01*
X152075001Y-109020000D01*
X136869422Y-109020000D01*
X136887324Y-108930001D01*
X136855000Y-108767497D01*
X136855000Y-98779600D01*
X140509096Y-98779600D01*
X140671600Y-98811924D01*
X140834104Y-98779600D01*
X140834109Y-98779600D01*
X141152573Y-98716254D01*
X141152573Y-98730000D01*
X141152573Y-98730000D01*
G37*
X141152573Y-98730000D02*
X141261229Y-99276253D01*
X141482772Y-99607815D01*
X141525734Y-99823798D01*
X141890418Y-100369583D01*
X142028185Y-100461636D01*
X142848363Y-101281815D01*
X142940417Y-101419583D01*
X143486202Y-101784266D01*
X143967491Y-101880000D01*
X143967495Y-101880000D01*
X144129999Y-101912324D01*
X144292503Y-101880000D01*
X148985778Y-101880000D01*
X149125657Y-102089343D01*
X149588747Y-102398771D01*
X150135000Y-102507427D01*
X151835000Y-102507427D01*
X152075001Y-102459688D01*
X152075001Y-109020000D01*
X136869422Y-109020000D01*
X136887324Y-108930001D01*
X136855000Y-108767497D01*
X136855000Y-98779600D01*
X140509096Y-98779600D01*
X140671600Y-98811924D01*
X140834104Y-98779600D01*
X140834109Y-98779600D01*
X141152573Y-98716254D01*
X141152573Y-98730000D01*
G36*
X120766573Y-105830000D02*
X120766573Y-107530000D01*
X120865472Y-108027200D01*
X118508293Y-108027200D01*
X120781739Y-105753755D01*
X120766573Y-105830000D01*
X120766573Y-105830000D01*
G37*
X120766573Y-105830000D02*
X120766573Y-107530000D01*
X120865472Y-108027200D01*
X118508293Y-108027200D01*
X120781739Y-105753755D01*
X120766573Y-105830000D01*
G36*
X115649231Y-106219360D02*
X114367451Y-106219360D01*
X115070944Y-105515867D01*
X116352724Y-105515867D01*
X115649231Y-106219360D01*
X115649231Y-106219360D01*
G37*
X115649231Y-106219360D02*
X114367451Y-106219360D01*
X115070944Y-105515867D01*
X116352724Y-105515867D01*
X115649231Y-106219360D01*
G36*
X119661720Y-102206869D02*
X118273067Y-103595523D01*
X118273067Y-102313744D01*
X119661721Y-100925091D01*
X119661720Y-102206869D01*
X119661720Y-102206869D01*
G37*
X119661720Y-102206869D02*
X118273067Y-103595523D01*
X118273067Y-102313744D01*
X119661721Y-100925091D01*
X119661720Y-102206869D01*
G36*
X132538189Y-97730440D02*
X132673761Y-97866012D01*
X132765817Y-98003783D01*
X132960244Y-98133695D01*
X133555000Y-98728452D01*
X133555000Y-100684348D01*
X130643079Y-97772427D01*
X132023600Y-97772427D01*
X132386436Y-97700255D01*
X132538189Y-97730440D01*
X132538189Y-97730440D01*
G37*
X132538189Y-97730440D02*
X132673761Y-97866012D01*
X132765817Y-98003783D01*
X132960244Y-98133695D01*
X133555000Y-98728452D01*
X133555000Y-100684348D01*
X130643079Y-97772427D01*
X132023600Y-97772427D01*
X132386436Y-97700255D01*
X132538189Y-97730440D01*
G36*
X118740175Y-88230000D02*
X118772500Y-88392508D01*
X118772500Y-89567491D01*
X118740175Y-89730000D01*
X118772501Y-89892514D01*
X118772500Y-94392508D01*
X118772501Y-94392512D01*
X118772500Y-96729511D01*
X118722675Y-96980000D01*
X118755000Y-97142509D01*
X118755000Y-97164907D01*
X118055570Y-97864338D01*
X118057427Y-97855000D01*
X118057427Y-97605000D01*
X118032563Y-97480000D01*
X118057427Y-97355000D01*
X118057427Y-97105000D01*
X118032563Y-96980000D01*
X118057427Y-96855000D01*
X118057427Y-96605000D01*
X118032563Y-96480000D01*
X118057427Y-96355000D01*
X118057427Y-96105000D01*
X118032563Y-95980000D01*
X118057427Y-95855000D01*
X118057427Y-95605000D01*
X118032563Y-95480000D01*
X118057427Y-95355000D01*
X118057427Y-95105000D01*
X118032563Y-94980000D01*
X118057427Y-94855000D01*
X118057427Y-94605000D01*
X118032563Y-94480000D01*
X118057427Y-94355000D01*
X118057427Y-94105000D01*
X118032563Y-93980000D01*
X118057427Y-93855000D01*
X118057427Y-93605000D01*
X118032563Y-93480000D01*
X118057427Y-93355000D01*
X118057427Y-93105000D01*
X118032563Y-92980000D01*
X118057427Y-92855000D01*
X118057427Y-92605000D01*
X118032563Y-92480000D01*
X118057427Y-92355000D01*
X118057427Y-92105000D01*
X118032563Y-91980000D01*
X118057427Y-91855000D01*
X118057427Y-91605000D01*
X118032563Y-91480000D01*
X118057427Y-91355000D01*
X118057427Y-91105000D01*
X118032563Y-90980000D01*
X118057427Y-90855000D01*
X118057427Y-90605000D01*
X118032563Y-90480000D01*
X118057427Y-90355000D01*
X118057427Y-90105000D01*
X118032563Y-89980000D01*
X118057427Y-89855000D01*
X118057427Y-89605000D01*
X118032563Y-89480000D01*
X118057427Y-89355000D01*
X118057427Y-89105000D01*
X118032563Y-88980000D01*
X118057427Y-88855000D01*
X118057427Y-88605000D01*
X118032563Y-88480000D01*
X118057427Y-88355000D01*
X118057427Y-88156427D01*
X118754810Y-88156427D01*
X118740175Y-88230000D01*
X118740175Y-88230000D01*
G37*
X118740175Y-88230000D02*
X118772500Y-88392508D01*
X118772500Y-89567491D01*
X118740175Y-89730000D01*
X118772501Y-89892514D01*
X118772500Y-94392508D01*
X118772501Y-94392512D01*
X118772500Y-96729511D01*
X118722675Y-96980000D01*
X118755000Y-97142509D01*
X118755000Y-97164907D01*
X118055570Y-97864338D01*
X118057427Y-97855000D01*
X118057427Y-97605000D01*
X118032563Y-97480000D01*
X118057427Y-97355000D01*
X118057427Y-97105000D01*
X118032563Y-96980000D01*
X118057427Y-96855000D01*
X118057427Y-96605000D01*
X118032563Y-96480000D01*
X118057427Y-96355000D01*
X118057427Y-96105000D01*
X118032563Y-95980000D01*
X118057427Y-95855000D01*
X118057427Y-95605000D01*
X118032563Y-95480000D01*
X118057427Y-95355000D01*
X118057427Y-95105000D01*
X118032563Y-94980000D01*
X118057427Y-94855000D01*
X118057427Y-94605000D01*
X118032563Y-94480000D01*
X118057427Y-94355000D01*
X118057427Y-94105000D01*
X118032563Y-93980000D01*
X118057427Y-93855000D01*
X118057427Y-93605000D01*
X118032563Y-93480000D01*
X118057427Y-93355000D01*
X118057427Y-93105000D01*
X118032563Y-92980000D01*
X118057427Y-92855000D01*
X118057427Y-92605000D01*
X118032563Y-92480000D01*
X118057427Y-92355000D01*
X118057427Y-92105000D01*
X118032563Y-91980000D01*
X118057427Y-91855000D01*
X118057427Y-91605000D01*
X118032563Y-91480000D01*
X118057427Y-91355000D01*
X118057427Y-91105000D01*
X118032563Y-90980000D01*
X118057427Y-90855000D01*
X118057427Y-90605000D01*
X118032563Y-90480000D01*
X118057427Y-90355000D01*
X118057427Y-90105000D01*
X118032563Y-89980000D01*
X118057427Y-89855000D01*
X118057427Y-89605000D01*
X118032563Y-89480000D01*
X118057427Y-89355000D01*
X118057427Y-89105000D01*
X118032563Y-88980000D01*
X118057427Y-88855000D01*
X118057427Y-88605000D01*
X118032563Y-88480000D01*
X118057427Y-88355000D01*
X118057427Y-88156427D01*
X118754810Y-88156427D01*
X118740175Y-88230000D01*
G36*
X125475657Y-77719343D02*
X125938747Y-78028771D01*
X126485000Y-78137427D01*
X127985000Y-78137427D01*
X128055181Y-78123467D01*
X128468091Y-78205600D01*
X128468095Y-78205600D01*
X128630599Y-78237924D01*
X128793103Y-78205600D01*
X137111896Y-78205600D01*
X137274400Y-78237924D01*
X137436904Y-78205600D01*
X137436909Y-78205600D01*
X137879000Y-78117663D01*
X137879001Y-91606375D01*
X137871676Y-91643200D01*
X137880502Y-91687573D01*
X136580000Y-91687573D01*
X136530400Y-91697439D01*
X136530400Y-90688103D01*
X136562724Y-90525599D01*
X136530400Y-90363095D01*
X136530400Y-90363091D01*
X136434666Y-89881802D01*
X136069983Y-89336017D01*
X135932215Y-89243963D01*
X135323938Y-88635687D01*
X135231883Y-88497917D01*
X134830924Y-88230004D01*
X134983771Y-88001253D01*
X135092427Y-87455000D01*
X135092427Y-87005000D01*
X134983771Y-86458747D01*
X134953603Y-86413597D01*
X135073771Y-86233753D01*
X135182427Y-85687500D01*
X135182427Y-83687500D01*
X135073771Y-83141247D01*
X134764343Y-82678157D01*
X134301253Y-82368729D01*
X133755000Y-82260073D01*
X131755000Y-82260073D01*
X131208747Y-82368729D01*
X130745657Y-82678157D01*
X130436229Y-83141247D01*
X130327573Y-83687500D01*
X130327573Y-84909719D01*
X130315643Y-84927573D01*
X129505000Y-84927573D01*
X129492799Y-84930000D01*
X128808180Y-84930000D01*
X128704999Y-84909476D01*
X128601818Y-84930000D01*
X128542491Y-84930000D01*
X128061202Y-85025734D01*
X127515417Y-85390417D01*
X127405000Y-85555667D01*
X127405000Y-82062658D01*
X127435366Y-81909999D01*
X127377681Y-81619997D01*
X127315068Y-81305220D01*
X126972488Y-80792512D01*
X126843066Y-80706035D01*
X124257956Y-78120926D01*
X124721253Y-78028771D01*
X125184343Y-77719343D01*
X125330000Y-77501353D01*
X125475657Y-77719343D01*
X125475657Y-77719343D01*
G37*
X125475657Y-77719343D02*
X125938747Y-78028771D01*
X126485000Y-78137427D01*
X127985000Y-78137427D01*
X128055181Y-78123467D01*
X128468091Y-78205600D01*
X128468095Y-78205600D01*
X128630599Y-78237924D01*
X128793103Y-78205600D01*
X137111896Y-78205600D01*
X137274400Y-78237924D01*
X137436904Y-78205600D01*
X137436909Y-78205600D01*
X137879000Y-78117663D01*
X137879001Y-91606375D01*
X137871676Y-91643200D01*
X137880502Y-91687573D01*
X136580000Y-91687573D01*
X136530400Y-91697439D01*
X136530400Y-90688103D01*
X136562724Y-90525599D01*
X136530400Y-90363095D01*
X136530400Y-90363091D01*
X136434666Y-89881802D01*
X136069983Y-89336017D01*
X135932215Y-89243963D01*
X135323938Y-88635687D01*
X135231883Y-88497917D01*
X134830924Y-88230004D01*
X134983771Y-88001253D01*
X135092427Y-87455000D01*
X135092427Y-87005000D01*
X134983771Y-86458747D01*
X134953603Y-86413597D01*
X135073771Y-86233753D01*
X135182427Y-85687500D01*
X135182427Y-83687500D01*
X135073771Y-83141247D01*
X134764343Y-82678157D01*
X134301253Y-82368729D01*
X133755000Y-82260073D01*
X131755000Y-82260073D01*
X131208747Y-82368729D01*
X130745657Y-82678157D01*
X130436229Y-83141247D01*
X130327573Y-83687500D01*
X130327573Y-84909719D01*
X130315643Y-84927573D01*
X129505000Y-84927573D01*
X129492799Y-84930000D01*
X128808180Y-84930000D01*
X128704999Y-84909476D01*
X128601818Y-84930000D01*
X128542491Y-84930000D01*
X128061202Y-85025734D01*
X127515417Y-85390417D01*
X127405000Y-85555667D01*
X127405000Y-82062658D01*
X127435366Y-81909999D01*
X127377681Y-81619997D01*
X127315068Y-81305220D01*
X126972488Y-80792512D01*
X126843066Y-80706035D01*
X124257956Y-78120926D01*
X124721253Y-78028771D01*
X125184343Y-77719343D01*
X125330000Y-77501353D01*
X125475657Y-77719343D01*
G36*
X152075000Y-85552263D02*
X151862906Y-85410546D01*
X151206606Y-85280000D01*
X150763394Y-85280000D01*
X150107094Y-85410546D01*
X149404506Y-85880000D01*
X148200103Y-85880000D01*
X148037599Y-85847676D01*
X147875095Y-85880000D01*
X144900004Y-85880000D01*
X144737500Y-85847676D01*
X144574996Y-85880000D01*
X144574991Y-85880000D01*
X144093702Y-85975734D01*
X143547917Y-86340417D01*
X143455863Y-86478185D01*
X142880000Y-87054048D01*
X142880000Y-76312268D01*
X143323747Y-76608771D01*
X143870000Y-76717427D01*
X145140000Y-76717427D01*
X145686253Y-76608771D01*
X145759244Y-76560000D01*
X145769996Y-76560000D01*
X145932500Y-76592324D01*
X146095004Y-76560000D01*
X146095009Y-76560000D01*
X146576298Y-76464266D01*
X147122083Y-76099583D01*
X147214138Y-75961813D01*
X147338525Y-75837427D01*
X147577500Y-75837427D01*
X148047500Y-75743939D01*
X148517500Y-75837427D01*
X149662500Y-75837427D01*
X150208753Y-75728771D01*
X150671843Y-75419343D01*
X150981271Y-74956253D01*
X151089927Y-74410000D01*
X151089927Y-72910000D01*
X151005439Y-72485250D01*
X151089927Y-72060500D01*
X151089927Y-70560500D01*
X150981271Y-70014247D01*
X150671843Y-69551157D01*
X150208753Y-69241729D01*
X149662500Y-69133073D01*
X149548767Y-69133073D01*
X149311637Y-68778185D01*
X148211638Y-67678187D01*
X148119583Y-67540417D01*
X147573798Y-67175734D01*
X147092509Y-67080000D01*
X147092504Y-67080000D01*
X146930000Y-67047676D01*
X146767496Y-67080000D01*
X142788683Y-67080000D01*
X142776617Y-67082400D01*
X142104103Y-67082400D01*
X141941599Y-67050076D01*
X141779095Y-67082400D01*
X141779091Y-67082400D01*
X141297802Y-67178134D01*
X141297800Y-67178135D01*
X141297801Y-67178135D01*
X140889784Y-67450763D01*
X140889782Y-67450765D01*
X140752017Y-67542817D01*
X140659965Y-67680582D01*
X140562427Y-67778120D01*
X140562427Y-66440000D01*
X140514688Y-66200000D01*
X152075000Y-66200000D01*
X152075000Y-85552263D01*
X152075000Y-85552263D01*
G37*
X152075000Y-85552263D02*
X151862906Y-85410546D01*
X151206606Y-85280000D01*
X150763394Y-85280000D01*
X150107094Y-85410546D01*
X149404506Y-85880000D01*
X148200103Y-85880000D01*
X148037599Y-85847676D01*
X147875095Y-85880000D01*
X144900004Y-85880000D01*
X144737500Y-85847676D01*
X144574996Y-85880000D01*
X144574991Y-85880000D01*
X144093702Y-85975734D01*
X143547917Y-86340417D01*
X143455863Y-86478185D01*
X142880000Y-87054048D01*
X142880000Y-76312268D01*
X143323747Y-76608771D01*
X143870000Y-76717427D01*
X145140000Y-76717427D01*
X145686253Y-76608771D01*
X145759244Y-76560000D01*
X145769996Y-76560000D01*
X145932500Y-76592324D01*
X146095004Y-76560000D01*
X146095009Y-76560000D01*
X146576298Y-76464266D01*
X147122083Y-76099583D01*
X147214138Y-75961813D01*
X147338525Y-75837427D01*
X147577500Y-75837427D01*
X148047500Y-75743939D01*
X148517500Y-75837427D01*
X149662500Y-75837427D01*
X150208753Y-75728771D01*
X150671843Y-75419343D01*
X150981271Y-74956253D01*
X151089927Y-74410000D01*
X151089927Y-72910000D01*
X151005439Y-72485250D01*
X151089927Y-72060500D01*
X151089927Y-70560500D01*
X150981271Y-70014247D01*
X150671843Y-69551157D01*
X150208753Y-69241729D01*
X149662500Y-69133073D01*
X149548767Y-69133073D01*
X149311637Y-68778185D01*
X148211638Y-67678187D01*
X148119583Y-67540417D01*
X147573798Y-67175734D01*
X147092509Y-67080000D01*
X147092504Y-67080000D01*
X146930000Y-67047676D01*
X146767496Y-67080000D01*
X142788683Y-67080000D01*
X142776617Y-67082400D01*
X142104103Y-67082400D01*
X141941599Y-67050076D01*
X141779095Y-67082400D01*
X141779091Y-67082400D01*
X141297802Y-67178134D01*
X141297800Y-67178135D01*
X141297801Y-67178135D01*
X140889784Y-67450763D01*
X140889782Y-67450765D01*
X140752017Y-67542817D01*
X140659965Y-67680582D01*
X140562427Y-67778120D01*
X140562427Y-66440000D01*
X140514688Y-66200000D01*
X152075000Y-66200000D01*
X152075000Y-85552263D01*
G36*
X122454990Y-84473443D02*
X122454990Y-86580000D01*
X122422427Y-86580000D01*
X122422427Y-85229000D01*
X122323071Y-84729500D01*
X122387440Y-84405893D01*
X122454990Y-84473443D01*
X122454990Y-84473443D01*
G37*
X122454990Y-84473443D02*
X122454990Y-86580000D01*
X122422427Y-86580000D01*
X122422427Y-85229000D01*
X122323071Y-84729500D01*
X122387440Y-84405893D01*
X122454990Y-84473443D01*
G36*
X104965417Y-76779583D02*
X105103187Y-76871638D01*
X107870963Y-79639415D01*
X107963017Y-79777183D01*
X108508802Y-80141866D01*
X108990091Y-80237600D01*
X108990095Y-80237600D01*
X109152600Y-80269924D01*
X109315105Y-80237600D01*
X116337573Y-80237600D01*
X116337573Y-81730000D01*
X116437029Y-82230000D01*
X116337573Y-82730000D01*
X116337573Y-84230000D01*
X116357265Y-84329000D01*
X112837452Y-84329000D01*
X109986639Y-81478188D01*
X109894583Y-81340417D01*
X109665081Y-81187068D01*
X109386843Y-80770657D01*
X108923753Y-80461229D01*
X108377500Y-80352573D01*
X107687106Y-80352573D01*
X106688266Y-79353734D01*
X106686768Y-79346202D01*
X106322085Y-78800417D01*
X105776300Y-78435734D01*
X105295011Y-78340000D01*
X104836373Y-78340000D01*
X104844454Y-78327906D01*
X105019080Y-77450000D01*
X104851947Y-76609764D01*
X104965417Y-76779583D01*
X104965417Y-76779583D01*
G37*
X104965417Y-76779583D02*
X105103187Y-76871638D01*
X107870963Y-79639415D01*
X107963017Y-79777183D01*
X108508802Y-80141866D01*
X108990091Y-80237600D01*
X108990095Y-80237600D01*
X109152600Y-80269924D01*
X109315105Y-80237600D01*
X116337573Y-80237600D01*
X116337573Y-81730000D01*
X116437029Y-82230000D01*
X116337573Y-82730000D01*
X116337573Y-84230000D01*
X116357265Y-84329000D01*
X112837452Y-84329000D01*
X109986639Y-81478188D01*
X109894583Y-81340417D01*
X109665081Y-81187068D01*
X109386843Y-80770657D01*
X108923753Y-80461229D01*
X108377500Y-80352573D01*
X107687106Y-80352573D01*
X106688266Y-79353734D01*
X106686768Y-79346202D01*
X106322085Y-78800417D01*
X105776300Y-78435734D01*
X105295011Y-78340000D01*
X104836373Y-78340000D01*
X104844454Y-78327906D01*
X105019080Y-77450000D01*
X104851947Y-76609764D01*
X104965417Y-76779583D01*
G36*
X103720073Y-83028834D02*
X103602906Y-82950546D01*
X102946606Y-82820000D01*
X102503394Y-82820000D01*
X102275000Y-82865430D01*
X102275000Y-82267427D01*
X103575000Y-82267427D01*
X103720073Y-82238570D01*
X103720073Y-83028834D01*
X103720073Y-83028834D01*
G37*
X103720073Y-83028834D02*
X103602906Y-82950546D01*
X102946606Y-82820000D01*
X102503394Y-82820000D01*
X102275000Y-82865430D01*
X102275000Y-82267427D01*
X103575000Y-82267427D01*
X103720073Y-82238570D01*
X103720073Y-83028834D01*
G36*
X108694000Y-74049453D02*
X108694001Y-75795549D01*
X108212620Y-75314168D01*
X108217427Y-75290000D01*
X108217427Y-74530000D01*
X108108771Y-73983747D01*
X107879086Y-73640000D01*
X108041491Y-73396944D01*
X108694000Y-74049453D01*
X108694000Y-74049453D01*
G37*
X108694000Y-74049453D02*
X108694001Y-75795549D01*
X108212620Y-75314168D01*
X108217427Y-75290000D01*
X108217427Y-74530000D01*
X108108771Y-73983747D01*
X107879086Y-73640000D01*
X108041491Y-73396944D01*
X108694000Y-74049453D01*
G36*
X129500073Y-71620000D02*
X129500073Y-73120000D01*
X129527921Y-73260000D01*
X129412427Y-73260000D01*
X129412427Y-73110000D01*
X129303771Y-72563747D01*
X129174313Y-72370000D01*
X129303771Y-72176253D01*
X129412427Y-71630000D01*
X129412427Y-71480000D01*
X129527921Y-71480000D01*
X129500073Y-71620000D01*
X129500073Y-71620000D01*
G37*
X129500073Y-71620000D02*
X129500073Y-73120000D01*
X129527921Y-73260000D01*
X129412427Y-73260000D01*
X129412427Y-73110000D01*
X129303771Y-72563747D01*
X129174313Y-72370000D01*
X129303771Y-72176253D01*
X129412427Y-71630000D01*
X129412427Y-71480000D01*
X129527921Y-71480000D01*
X129500073Y-71620000D01*
G36*
X121247573Y-71630000D02*
X121356229Y-72176253D01*
X121485687Y-72370000D01*
X121356229Y-72563747D01*
X121247573Y-73110000D01*
X121247573Y-73260000D01*
X121132079Y-73260000D01*
X121159927Y-73120000D01*
X121159927Y-71620000D01*
X121132079Y-71480000D01*
X121247573Y-71480000D01*
X121247573Y-71630000D01*
X121247573Y-71630000D01*
G37*
X121247573Y-71630000D02*
X121356229Y-72176253D01*
X121485687Y-72370000D01*
X121356229Y-72563747D01*
X121247573Y-73110000D01*
X121247573Y-73260000D01*
X121132079Y-73260000D01*
X121159927Y-73120000D01*
X121159927Y-71620000D01*
X121132079Y-71480000D01*
X121247573Y-71480000D01*
X121247573Y-71630000D01*
G36*
X110765546Y-66412094D02*
X110590920Y-67290000D01*
X110765546Y-68167906D01*
X111235000Y-68870495D01*
X111235001Y-71923548D01*
X107894460Y-68583009D01*
X107799343Y-68440657D01*
X107336253Y-68131229D01*
X106790000Y-68022573D01*
X105520000Y-68022573D01*
X104973747Y-68131229D01*
X104907466Y-68175517D01*
X104767500Y-68147676D01*
X104604995Y-68180000D01*
X104604991Y-68180000D01*
X104123702Y-68275734D01*
X103577917Y-68640417D01*
X103485863Y-68778185D01*
X103321475Y-68942573D01*
X103082500Y-68942573D01*
X102612500Y-69036061D01*
X102142500Y-68942573D01*
X101635000Y-68942573D01*
X101635000Y-66200000D01*
X110907263Y-66200000D01*
X110765546Y-66412094D01*
X110765546Y-66412094D01*
G37*
X110765546Y-66412094D02*
X110590920Y-67290000D01*
X110765546Y-68167906D01*
X111235000Y-68870495D01*
X111235001Y-71923548D01*
X107894460Y-68583009D01*
X107799343Y-68440657D01*
X107336253Y-68131229D01*
X106790000Y-68022573D01*
X105520000Y-68022573D01*
X104973747Y-68131229D01*
X104907466Y-68175517D01*
X104767500Y-68147676D01*
X104604995Y-68180000D01*
X104604991Y-68180000D01*
X104123702Y-68275734D01*
X103577917Y-68640417D01*
X103485863Y-68778185D01*
X103321475Y-68942573D01*
X103082500Y-68942573D01*
X102612500Y-69036061D01*
X102142500Y-68942573D01*
X101635000Y-68942573D01*
X101635000Y-66200000D01*
X110907263Y-66200000D01*
X110765546Y-66412094D01*
G36*
X126393361Y-66238188D02*
X126183188Y-66448361D01*
X126045417Y-66540417D01*
X125925264Y-66720238D01*
X125475657Y-67020657D01*
X125330000Y-67238647D01*
X125184343Y-67020657D01*
X124734736Y-66720238D01*
X124614583Y-66540417D01*
X124476813Y-66448362D01*
X124266639Y-66238188D01*
X124241122Y-66200000D01*
X126418878Y-66200000D01*
X126393361Y-66238188D01*
X126393361Y-66238188D01*
G37*
X126393361Y-66238188D02*
X126183188Y-66448361D01*
X126045417Y-66540417D01*
X125925264Y-66720238D01*
X125475657Y-67020657D01*
X125330000Y-67238647D01*
X125184343Y-67020657D01*
X124734736Y-66720238D01*
X124614583Y-66540417D01*
X124476813Y-66448362D01*
X124266639Y-66238188D01*
X124241122Y-66200000D01*
X126418878Y-66200000D01*
X126393361Y-66238188D01*
M02*
