%TF.GenerationSoftware,KiCad,Pcbnew,(5.0.0-rc2-dev-632-g76d3b6f04)*%
%TF.CreationDate,2018-06-22T22:14:38+02:00*%
%TF.ProjectId,MainBoard,4D61696E426F6172642E6B696361645F,rev?*%
%TF.SameCoordinates,Original*%
%TF.FileFunction,Profile,NP*%
%FSLAX46Y46*%
G04 Gerber Fmt 4.6, Leading zero omitted, Abs format (unit mm)*
G04 Created by KiCad (PCBNEW (5.0.0-rc2-dev-632-g76d3b6f04)) date 06/22/18 22:14:38*
%MOMM*%
%LPD*%
G01*
G04 APERTURE LIST*
%ADD10C,0.200000*%
G04 APERTURE END LIST*
D10*
X141000000Y-81500000D02*
X148500000Y-81500000D01*
X141000000Y-80500000D02*
X148500000Y-80500000D01*
X148500000Y-80500000D02*
G75*
G02X148500000Y-81500000I0J-500000D01*
G01*
X141000000Y-81500000D02*
G75*
G02X141000000Y-80500000I0J500000D01*
G01*
X139500000Y-71000000D02*
X139500000Y-79000000D01*
X138500000Y-71000000D02*
X138500000Y-79000000D01*
X139500000Y-79000000D02*
G75*
G02X138500000Y-79000000I-500000J0D01*
G01*
X138500000Y-71000000D02*
G75*
G02X139500000Y-71000000I500000J0D01*
G01*
X151500000Y-69500000D02*
X159500000Y-69500000D01*
X151500000Y-68500000D02*
X159500000Y-68500000D01*
X141000000Y-69500000D02*
X148500000Y-69500000D01*
X141000000Y-68500000D02*
X148500000Y-68500000D01*
X151500000Y-69500000D02*
G75*
G02X151500000Y-68500000I0J500000D01*
G01*
X148500000Y-68500000D02*
G75*
G02X148500000Y-69500000I0J-500000D01*
G01*
X159500000Y-68500000D02*
G75*
G02X159500000Y-69500000I0J-500000D01*
G01*
X141000000Y-69500000D02*
G75*
G02X141000000Y-68500000I0J500000D01*
G01*
X264000000Y-84000000D02*
X265000000Y-84000000D01*
X266500000Y-82500000D02*
X266500000Y-78500000D01*
X266500000Y-82500000D02*
G75*
G02X265000000Y-84000000I-1500000J0D01*
G01*
X265500000Y-82500000D02*
G75*
G02X265000000Y-83000000I-500000J0D01*
G01*
X260000000Y-84000000D02*
X261000000Y-84000000D01*
X258500000Y-78500000D02*
X258500000Y-82500000D01*
X260000000Y-84000000D02*
G75*
G02X258500000Y-82500000I0J1500000D01*
G01*
X265000000Y-83000000D02*
X264000000Y-83000000D01*
X265500000Y-78500000D02*
X265500000Y-82500000D01*
X265500000Y-78500000D02*
G75*
G02X266500000Y-78500000I500000J0D01*
G01*
X264000000Y-84000000D02*
G75*
G02X264000000Y-83000000I0J500000D01*
G01*
X260000000Y-83000000D02*
X261000000Y-83000000D01*
X259500000Y-78500000D02*
X259500000Y-82500000D01*
X260000000Y-83000000D02*
G75*
G02X259500000Y-82500000I0J500000D01*
G01*
X261000000Y-83000000D02*
G75*
G02X261000000Y-84000000I0J-500000D01*
G01*
X258500000Y-78500000D02*
G75*
G02X259500000Y-78500000I500000J0D01*
G01*
X72500000Y-106000000D02*
G75*
G02X75000000Y-108500000I0J-2500000D01*
G01*
X75000000Y-108500000D02*
X75000000Y-117500000D01*
X-22500000Y-106000000D02*
X72500000Y-106000000D01*
X6000000Y-86000000D02*
G75*
G03X6000000Y-86000000I-11000000J0D01*
G01*
X-25000000Y-62500000D02*
G75*
G02X-22500000Y-60000000I2500000J0D01*
G01*
X-22500000Y-106000000D02*
G75*
G02X-25000000Y-103500000I0J2500000D01*
G01*
X-25000000Y-62500000D02*
X-25000000Y-103500000D01*
X-22500000Y-60000000D02*
X337500000Y-60000000D01*
X337500000Y-60000000D02*
G75*
G02X340000000Y-62500000I0J-2500000D01*
G01*
X340000000Y-117500000D02*
G75*
G02X337500000Y-120000000I-2500000J0D01*
G01*
X77500000Y-120000000D02*
G75*
G02X75000000Y-117500000I0J2500000D01*
G01*
X337500000Y-120000000D02*
X77500000Y-120000000D01*
X340000000Y-62500000D02*
X340000000Y-117500000D01*
M02*
