%TF.GenerationSoftware,KiCad,Pcbnew,(5.0.0-rc2-dev-632-g76d3b6f04)*%
%TF.CreationDate,2018-06-22T20:22:36+02:00*%
%TF.ProjectId,CellsBoard,43656C6C73426F6172642E6B69636164,rev?*%
%TF.SameCoordinates,Original*%
%TF.FileFunction,Legend,Bot*%
%TF.FilePolarity,Positive*%
%FSLAX46Y46*%
G04 Gerber Fmt 4.6, Leading zero omitted, Abs format (unit mm)*
G04 Created by KiCad (PCBNEW (5.0.0-rc2-dev-632-g76d3b6f04)) date 06/22/18 20:22:36*
%MOMM*%
%LPD*%
G01*
G04 APERTURE LIST*
%ADD10C,0.150000*%
%ADD11C,0.120000*%
G04 APERTURE END LIST*
D10*
X229750000Y-132300000D02*
X232750000Y-132300000D01*
X228750000Y-147300000D02*
X228750000Y-133300000D01*
X232750000Y-148300000D02*
X229750000Y-148300000D01*
X233750000Y-133300000D02*
X233750000Y-147300000D01*
X229750000Y-148300000D02*
G75*
G02X228750000Y-147300000I0J1000000D01*
G01*
X228750000Y-133300000D02*
G75*
G02X229750000Y-132300000I1000000J0D01*
G01*
X232750000Y-132300000D02*
G75*
G02X233750000Y-133300000I0J-1000000D01*
G01*
X233750000Y-147300000D02*
G75*
G02X232750000Y-148300000I-1000000J0D01*
G01*
X250000000Y-90000000D02*
X52500000Y-90000000D01*
X250000000Y-90000000D02*
G75*
G02X252500000Y-92500000I0J-2500000D01*
G01*
X252500000Y-147500000D02*
X252500000Y-92500000D01*
X252500000Y-147500000D02*
G75*
G02X250000000Y-150000000I-2500000J0D01*
G01*
X52500000Y-150000000D02*
X250000000Y-150000000D01*
X52500000Y-150000000D02*
G75*
G02X50000000Y-147500000I0J2500000D01*
G01*
X50000000Y-92500000D02*
X50000000Y-147500000D01*
X50000000Y-92500000D02*
G75*
G02X52500000Y-90000000I2500000J0D01*
G01*
X106250000Y-146800000D02*
G75*
G02X106250000Y-133800000I0J6500000D01*
G01*
X130000000Y-133800000D02*
G75*
G02X130000000Y-146800000I0J-6500000D01*
G01*
X106250000Y-133800000D02*
X130000000Y-133800000D01*
X106250000Y-146800000D02*
X130000000Y-146800000D01*
X175000000Y-106200000D02*
G75*
G02X175000000Y-93200000I0J6500000D01*
G01*
X198750000Y-93200000D02*
G75*
G02X198750000Y-106200000I0J-6500000D01*
G01*
X175000000Y-93200000D02*
X198750000Y-93200000D01*
X175000000Y-106200000D02*
X198750000Y-106200000D01*
X112750000Y-120000000D02*
G75*
G02X99750000Y-120000000I-6500000J0D01*
G01*
X99750000Y-99700000D02*
G75*
G02X112750000Y-99700000I6500000J0D01*
G01*
X99750000Y-120000000D02*
X99750000Y-99700000D01*
X112750000Y-120000000D02*
X112750000Y-99700000D01*
X67750000Y-140300000D02*
G75*
G02X54750000Y-140300000I-6500000J0D01*
G01*
X54750000Y-120000000D02*
G75*
G02X67750000Y-120000000I6500000J0D01*
G01*
X54750000Y-140300000D02*
X54750000Y-120000000D01*
X67750000Y-140300000D02*
X67750000Y-120000000D01*
X168500000Y-120000000D02*
G75*
G02X181500000Y-120000000I6500000J0D01*
G01*
X181500000Y-140300000D02*
G75*
G02X168500000Y-140300000I-6500000J0D01*
G01*
X181500000Y-120000000D02*
X181500000Y-140300000D01*
X168500000Y-120000000D02*
X168500000Y-140300000D01*
X123500000Y-99700000D02*
G75*
G02X136500000Y-99700000I6500000J0D01*
G01*
X136500000Y-120000000D02*
G75*
G02X123500000Y-120000000I-6500000J0D01*
G01*
X136500000Y-99700000D02*
X136500000Y-120000000D01*
X123500000Y-99700000D02*
X123500000Y-120000000D01*
X250250000Y-120000000D02*
G75*
G02X237250000Y-120000000I-6500000J0D01*
G01*
X237250000Y-99700000D02*
G75*
G02X250250000Y-99700000I6500000J0D01*
G01*
X237250000Y-120000000D02*
X237250000Y-99700000D01*
X250250000Y-120000000D02*
X250250000Y-99700000D01*
X205250000Y-140300000D02*
G75*
G02X192250000Y-140300000I-6500000J0D01*
G01*
X192250000Y-120000000D02*
G75*
G02X205250000Y-120000000I6500000J0D01*
G01*
X192250000Y-140300000D02*
X192250000Y-120000000D01*
X205250000Y-140300000D02*
X205250000Y-120000000D01*
X61250000Y-106200000D02*
X53250000Y-106200000D01*
X61250000Y-93200000D02*
X53250000Y-93200000D01*
X61250000Y-93200000D02*
G75*
G02X61250000Y-106200000I0J-6500000D01*
G01*
X243750000Y-133800000D02*
G75*
G02X243750000Y-146800000I0J-6500000D01*
G01*
X243750000Y-133800000D02*
X235750000Y-133800000D01*
X243750000Y-146800000D02*
X235750000Y-146800000D01*
D11*
X84400000Y-97100000D02*
X83070000Y-97100000D01*
X83070000Y-97100000D02*
X83070000Y-98430000D01*
X83070000Y-99700000D02*
X83070000Y-102300000D01*
X85730000Y-102300000D02*
X83070000Y-102300000D01*
X85730000Y-99700000D02*
X85730000Y-102300000D01*
X85730000Y-99700000D02*
X83070000Y-99700000D01*
X81670000Y-120000000D02*
X84330000Y-120000000D01*
X81670000Y-120000000D02*
X81670000Y-117400000D01*
X81670000Y-117400000D02*
X84330000Y-117400000D01*
X84330000Y-120000000D02*
X84330000Y-117400000D01*
X84330000Y-122600000D02*
X84330000Y-121270000D01*
X83000000Y-122600000D02*
X84330000Y-122600000D01*
X84500000Y-137700000D02*
X83170000Y-137700000D01*
X83170000Y-137700000D02*
X83170000Y-139030000D01*
X83170000Y-140300000D02*
X83170000Y-142900000D01*
X85830000Y-142900000D02*
X83170000Y-142900000D01*
X85830000Y-140300000D02*
X85830000Y-142900000D01*
X85830000Y-140300000D02*
X83170000Y-140300000D01*
X153250000Y-137700000D02*
X151920000Y-137700000D01*
X151920000Y-137700000D02*
X151920000Y-139030000D01*
X151920000Y-140300000D02*
X151920000Y-142900000D01*
X154580000Y-142900000D02*
X151920000Y-142900000D01*
X154580000Y-140300000D02*
X154580000Y-142900000D01*
X154580000Y-140300000D02*
X151920000Y-140300000D01*
X151750000Y-122600000D02*
X153080000Y-122600000D01*
X153080000Y-122600000D02*
X153080000Y-121270000D01*
X153080000Y-120000000D02*
X153080000Y-117400000D01*
X150420000Y-117400000D02*
X153080000Y-117400000D01*
X150420000Y-120000000D02*
X150420000Y-117400000D01*
X150420000Y-120000000D02*
X153080000Y-120000000D01*
X153250000Y-97100000D02*
X151920000Y-97100000D01*
X151920000Y-97100000D02*
X151920000Y-98430000D01*
X151920000Y-99700000D02*
X151920000Y-102300000D01*
X154580000Y-102300000D02*
X151920000Y-102300000D01*
X154580000Y-99700000D02*
X154580000Y-102300000D01*
X154580000Y-99700000D02*
X151920000Y-99700000D01*
X222000000Y-97100000D02*
X220670000Y-97100000D01*
X220670000Y-97100000D02*
X220670000Y-98430000D01*
X220670000Y-99700000D02*
X220670000Y-102300000D01*
X223330000Y-102300000D02*
X220670000Y-102300000D01*
X223330000Y-99700000D02*
X223330000Y-102300000D01*
X223330000Y-99700000D02*
X220670000Y-99700000D01*
X220500000Y-122600000D02*
X221830000Y-122600000D01*
X221830000Y-122600000D02*
X221830000Y-121270000D01*
X221830000Y-120000000D02*
X221830000Y-117400000D01*
X219170000Y-117400000D02*
X221830000Y-117400000D01*
X219170000Y-120000000D02*
X219170000Y-117400000D01*
X219170000Y-120000000D02*
X221830000Y-120000000D01*
X223330000Y-140300000D02*
X220670000Y-140300000D01*
X223330000Y-140300000D02*
X223330000Y-142900000D01*
X223330000Y-142900000D02*
X220670000Y-142900000D01*
X220670000Y-140300000D02*
X220670000Y-142900000D01*
X220670000Y-137700000D02*
X220670000Y-139030000D01*
X222000000Y-137700000D02*
X220670000Y-137700000D01*
D10*
X84733333Y-94882380D02*
X84733333Y-95596666D01*
X84780952Y-95739523D01*
X84876190Y-95834761D01*
X85019047Y-95882380D01*
X85114285Y-95882380D01*
X83733333Y-95882380D02*
X84304761Y-95882380D01*
X84019047Y-95882380D02*
X84019047Y-94882380D01*
X84114285Y-95025238D01*
X84209523Y-95120476D01*
X84304761Y-95168095D01*
X83333333Y-115182380D02*
X83333333Y-115896666D01*
X83380952Y-116039523D01*
X83476190Y-116134761D01*
X83619047Y-116182380D01*
X83714285Y-116182380D01*
X82952380Y-115182380D02*
X82333333Y-115182380D01*
X82666666Y-115563333D01*
X82523809Y-115563333D01*
X82428571Y-115610952D01*
X82380952Y-115658571D01*
X82333333Y-115753809D01*
X82333333Y-115991904D01*
X82380952Y-116087142D01*
X82428571Y-116134761D01*
X82523809Y-116182380D01*
X82809523Y-116182380D01*
X82904761Y-116134761D01*
X82952380Y-116087142D01*
X84833333Y-135482380D02*
X84833333Y-136196666D01*
X84880952Y-136339523D01*
X84976190Y-136434761D01*
X85119047Y-136482380D01*
X85214285Y-136482380D01*
X83880952Y-135482380D02*
X84357142Y-135482380D01*
X84404761Y-135958571D01*
X84357142Y-135910952D01*
X84261904Y-135863333D01*
X84023809Y-135863333D01*
X83928571Y-135910952D01*
X83880952Y-135958571D01*
X83833333Y-136053809D01*
X83833333Y-136291904D01*
X83880952Y-136387142D01*
X83928571Y-136434761D01*
X84023809Y-136482380D01*
X84261904Y-136482380D01*
X84357142Y-136434761D01*
X84404761Y-136387142D01*
X153583333Y-135482380D02*
X153583333Y-136196666D01*
X153630952Y-136339523D01*
X153726190Y-136434761D01*
X153869047Y-136482380D01*
X153964285Y-136482380D01*
X153202380Y-135482380D02*
X152535714Y-135482380D01*
X152964285Y-136482380D01*
X152559523Y-115182380D02*
X152559523Y-115896666D01*
X152607142Y-116039523D01*
X152702380Y-116134761D01*
X152845238Y-116182380D01*
X152940476Y-116182380D01*
X151559523Y-116182380D02*
X152130952Y-116182380D01*
X151845238Y-116182380D02*
X151845238Y-115182380D01*
X151940476Y-115325238D01*
X152035714Y-115420476D01*
X152130952Y-115468095D01*
X150940476Y-115182380D02*
X150845238Y-115182380D01*
X150750000Y-115230000D01*
X150702380Y-115277619D01*
X150654761Y-115372857D01*
X150607142Y-115563333D01*
X150607142Y-115801428D01*
X150654761Y-115991904D01*
X150702380Y-116087142D01*
X150750000Y-116134761D01*
X150845238Y-116182380D01*
X150940476Y-116182380D01*
X151035714Y-116134761D01*
X151083333Y-116087142D01*
X151130952Y-115991904D01*
X151178571Y-115801428D01*
X151178571Y-115563333D01*
X151130952Y-115372857D01*
X151083333Y-115277619D01*
X151035714Y-115230000D01*
X150940476Y-115182380D01*
X154059523Y-94882380D02*
X154059523Y-95596666D01*
X154107142Y-95739523D01*
X154202380Y-95834761D01*
X154345238Y-95882380D01*
X154440476Y-95882380D01*
X153059523Y-95882380D02*
X153630952Y-95882380D01*
X153345238Y-95882380D02*
X153345238Y-94882380D01*
X153440476Y-95025238D01*
X153535714Y-95120476D01*
X153630952Y-95168095D01*
X152678571Y-94977619D02*
X152630952Y-94930000D01*
X152535714Y-94882380D01*
X152297619Y-94882380D01*
X152202380Y-94930000D01*
X152154761Y-94977619D01*
X152107142Y-95072857D01*
X152107142Y-95168095D01*
X152154761Y-95310952D01*
X152726190Y-95882380D01*
X152107142Y-95882380D01*
X222809523Y-94882380D02*
X222809523Y-95596666D01*
X222857142Y-95739523D01*
X222952380Y-95834761D01*
X223095238Y-95882380D01*
X223190476Y-95882380D01*
X221809523Y-95882380D02*
X222380952Y-95882380D01*
X222095238Y-95882380D02*
X222095238Y-94882380D01*
X222190476Y-95025238D01*
X222285714Y-95120476D01*
X222380952Y-95168095D01*
X220952380Y-95215714D02*
X220952380Y-95882380D01*
X221190476Y-94834761D02*
X221428571Y-95549047D01*
X220809523Y-95549047D01*
X221309523Y-115182380D02*
X221309523Y-115896666D01*
X221357142Y-116039523D01*
X221452380Y-116134761D01*
X221595238Y-116182380D01*
X221690476Y-116182380D01*
X220309523Y-116182380D02*
X220880952Y-116182380D01*
X220595238Y-116182380D02*
X220595238Y-115182380D01*
X220690476Y-115325238D01*
X220785714Y-115420476D01*
X220880952Y-115468095D01*
X219452380Y-115182380D02*
X219642857Y-115182380D01*
X219738095Y-115230000D01*
X219785714Y-115277619D01*
X219880952Y-115420476D01*
X219928571Y-115610952D01*
X219928571Y-115991904D01*
X219880952Y-116087142D01*
X219833333Y-116134761D01*
X219738095Y-116182380D01*
X219547619Y-116182380D01*
X219452380Y-116134761D01*
X219404761Y-116087142D01*
X219357142Y-115991904D01*
X219357142Y-115753809D01*
X219404761Y-115658571D01*
X219452380Y-115610952D01*
X219547619Y-115563333D01*
X219738095Y-115563333D01*
X219833333Y-115610952D01*
X219880952Y-115658571D01*
X219928571Y-115753809D01*
X222809523Y-135482380D02*
X222809523Y-136196666D01*
X222857142Y-136339523D01*
X222952380Y-136434761D01*
X223095238Y-136482380D01*
X223190476Y-136482380D01*
X221809523Y-136482380D02*
X222380952Y-136482380D01*
X222095238Y-136482380D02*
X222095238Y-135482380D01*
X222190476Y-135625238D01*
X222285714Y-135720476D01*
X222380952Y-135768095D01*
X221238095Y-135910952D02*
X221333333Y-135863333D01*
X221380952Y-135815714D01*
X221428571Y-135720476D01*
X221428571Y-135672857D01*
X221380952Y-135577619D01*
X221333333Y-135530000D01*
X221238095Y-135482380D01*
X221047619Y-135482380D01*
X220952380Y-135530000D01*
X220904761Y-135577619D01*
X220857142Y-135672857D01*
X220857142Y-135720476D01*
X220904761Y-135815714D01*
X220952380Y-135863333D01*
X221047619Y-135910952D01*
X221238095Y-135910952D01*
X221333333Y-135958571D01*
X221380952Y-136006190D01*
X221428571Y-136101428D01*
X221428571Y-136291904D01*
X221380952Y-136387142D01*
X221333333Y-136434761D01*
X221238095Y-136482380D01*
X221047619Y-136482380D01*
X220952380Y-136434761D01*
X220904761Y-136387142D01*
X220857142Y-136291904D01*
X220857142Y-136101428D01*
X220904761Y-136006190D01*
X220952380Y-135958571D01*
X221047619Y-135910952D01*
M02*
