%TF.GenerationSoftware,KiCad,Pcbnew,(5.0.0-rc2-dev-632-g76d3b6f04)*%
%TF.CreationDate,2018-06-22T20:22:36+02:00*%
%TF.ProjectId,CellsBoard,43656C6C73426F6172642E6B69636164,rev?*%
%TF.SameCoordinates,Original*%
%TF.FileFunction,Legend,Top*%
%TF.FilePolarity,Positive*%
%FSLAX46Y46*%
G04 Gerber Fmt 4.6, Leading zero omitted, Abs format (unit mm)*
G04 Created by KiCad (PCBNEW (5.0.0-rc2-dev-632-g76d3b6f04)) date 06/22/18 20:22:36*
%MOMM*%
%LPD*%
G01*
G04 APERTURE LIST*
%ADD10C,0.300000*%
%ADD11C,0.150000*%
%ADD12C,0.120000*%
%ADD13C,0.010000*%
G04 APERTURE END LIST*
D10*
X217928571Y-112957142D02*
X216928571Y-112957142D01*
X216428571Y-112957142D02*
X216500000Y-113028571D01*
X216571428Y-112957142D01*
X216500000Y-112885714D01*
X216428571Y-112957142D01*
X216571428Y-112957142D01*
X217857142Y-112314285D02*
X217928571Y-112171428D01*
X217928571Y-111885714D01*
X217857142Y-111742857D01*
X217714285Y-111671428D01*
X217642857Y-111671428D01*
X217500000Y-111742857D01*
X217428571Y-111885714D01*
X217428571Y-112100000D01*
X217357142Y-112242857D01*
X217214285Y-112314285D01*
X217142857Y-112314285D01*
X217000000Y-112242857D01*
X216928571Y-112100000D01*
X216928571Y-111885714D01*
X217000000Y-111742857D01*
X217928571Y-110814285D02*
X217857142Y-110957142D01*
X217785714Y-111028571D01*
X217642857Y-111100000D01*
X217214285Y-111100000D01*
X217071428Y-111028571D01*
X217000000Y-110957142D01*
X216928571Y-110814285D01*
X216928571Y-110600000D01*
X217000000Y-110457142D01*
X217071428Y-110385714D01*
X217214285Y-110314285D01*
X217642857Y-110314285D01*
X217785714Y-110385714D01*
X217857142Y-110457142D01*
X217928571Y-110600000D01*
X217928571Y-110814285D01*
X217857142Y-109742857D02*
X217928571Y-109528571D01*
X217928571Y-109171428D01*
X217857142Y-109028571D01*
X217785714Y-108957142D01*
X217642857Y-108885714D01*
X217500000Y-108885714D01*
X217357142Y-108957142D01*
X217285714Y-109028571D01*
X217214285Y-109171428D01*
X217142857Y-109457142D01*
X217071428Y-109600000D01*
X217000000Y-109671428D01*
X216857142Y-109742857D01*
X216714285Y-109742857D01*
X216571428Y-109671428D01*
X216500000Y-109600000D01*
X216428571Y-109457142D01*
X216428571Y-109100000D01*
X216500000Y-108885714D01*
X217928571Y-108242857D02*
X216428571Y-108242857D01*
X216428571Y-107671428D01*
X216500000Y-107528571D01*
X216571428Y-107457142D01*
X216714285Y-107385714D01*
X216928571Y-107385714D01*
X217071428Y-107457142D01*
X217142857Y-107528571D01*
X217214285Y-107671428D01*
X217214285Y-108242857D01*
X217928571Y-106742857D02*
X216428571Y-106742857D01*
X116742857Y-118522857D02*
X116814285Y-118308571D01*
X116885714Y-118237142D01*
X117028571Y-118165714D01*
X117242857Y-118165714D01*
X117385714Y-118237142D01*
X117457142Y-118308571D01*
X117528571Y-118451428D01*
X117528571Y-119022857D01*
X116028571Y-119022857D01*
X116028571Y-118522857D01*
X116100000Y-118380000D01*
X116171428Y-118308571D01*
X116314285Y-118237142D01*
X116457142Y-118237142D01*
X116600000Y-118308571D01*
X116671428Y-118380000D01*
X116742857Y-118522857D01*
X116742857Y-119022857D01*
X117528571Y-117522857D02*
X116028571Y-117522857D01*
X117100000Y-117022857D01*
X116028571Y-116522857D01*
X117528571Y-116522857D01*
X117457142Y-115880000D02*
X117528571Y-115665714D01*
X117528571Y-115308571D01*
X117457142Y-115165714D01*
X117385714Y-115094285D01*
X117242857Y-115022857D01*
X117100000Y-115022857D01*
X116957142Y-115094285D01*
X116885714Y-115165714D01*
X116814285Y-115308571D01*
X116742857Y-115594285D01*
X116671428Y-115737142D01*
X116600000Y-115808571D01*
X116457142Y-115880000D01*
X116314285Y-115880000D01*
X116171428Y-115808571D01*
X116100000Y-115737142D01*
X116028571Y-115594285D01*
X116028571Y-115237142D01*
X116100000Y-115022857D01*
X117385714Y-112380000D02*
X117457142Y-112451428D01*
X117528571Y-112665714D01*
X117528571Y-112808571D01*
X117457142Y-113022857D01*
X117314285Y-113165714D01*
X117171428Y-113237142D01*
X116885714Y-113308571D01*
X116671428Y-113308571D01*
X116385714Y-113237142D01*
X116242857Y-113165714D01*
X116100000Y-113022857D01*
X116028571Y-112808571D01*
X116028571Y-112665714D01*
X116100000Y-112451428D01*
X116171428Y-112380000D01*
X117457142Y-111165714D02*
X117528571Y-111308571D01*
X117528571Y-111594285D01*
X117457142Y-111737142D01*
X117314285Y-111808571D01*
X116742857Y-111808571D01*
X116600000Y-111737142D01*
X116528571Y-111594285D01*
X116528571Y-111308571D01*
X116600000Y-111165714D01*
X116742857Y-111094285D01*
X116885714Y-111094285D01*
X117028571Y-111808571D01*
X117528571Y-110237142D02*
X117457142Y-110380000D01*
X117314285Y-110451428D01*
X116028571Y-110451428D01*
X117528571Y-109451428D02*
X117457142Y-109594285D01*
X117314285Y-109665714D01*
X116028571Y-109665714D01*
X117457142Y-108951428D02*
X117528571Y-108808571D01*
X117528571Y-108522857D01*
X117457142Y-108380000D01*
X117314285Y-108308571D01*
X117242857Y-108308571D01*
X117100000Y-108380000D01*
X117028571Y-108522857D01*
X117028571Y-108737142D01*
X116957142Y-108880000D01*
X116814285Y-108951428D01*
X116742857Y-108951428D01*
X116600000Y-108880000D01*
X116528571Y-108737142D01*
X116528571Y-108522857D01*
X116600000Y-108380000D01*
X116742857Y-106022857D02*
X116814285Y-105808571D01*
X116885714Y-105737142D01*
X117028571Y-105665714D01*
X117242857Y-105665714D01*
X117385714Y-105737142D01*
X117457142Y-105808571D01*
X117528571Y-105951428D01*
X117528571Y-106522857D01*
X116028571Y-106522857D01*
X116028571Y-106022857D01*
X116100000Y-105880000D01*
X116171428Y-105808571D01*
X116314285Y-105737142D01*
X116457142Y-105737142D01*
X116600000Y-105808571D01*
X116671428Y-105880000D01*
X116742857Y-106022857D01*
X116742857Y-106522857D01*
X117528571Y-104808571D02*
X117457142Y-104951428D01*
X117385714Y-105022857D01*
X117242857Y-105094285D01*
X116814285Y-105094285D01*
X116671428Y-105022857D01*
X116600000Y-104951428D01*
X116528571Y-104808571D01*
X116528571Y-104594285D01*
X116600000Y-104451428D01*
X116671428Y-104380000D01*
X116814285Y-104308571D01*
X117242857Y-104308571D01*
X117385714Y-104380000D01*
X117457142Y-104451428D01*
X117528571Y-104594285D01*
X117528571Y-104808571D01*
X117528571Y-103022857D02*
X116742857Y-103022857D01*
X116600000Y-103094285D01*
X116528571Y-103237142D01*
X116528571Y-103522857D01*
X116600000Y-103665714D01*
X117457142Y-103022857D02*
X117528571Y-103165714D01*
X117528571Y-103522857D01*
X117457142Y-103665714D01*
X117314285Y-103737142D01*
X117171428Y-103737142D01*
X117028571Y-103665714D01*
X116957142Y-103522857D01*
X116957142Y-103165714D01*
X116885714Y-103022857D01*
X117528571Y-102308571D02*
X116528571Y-102308571D01*
X116814285Y-102308571D02*
X116671428Y-102237142D01*
X116600000Y-102165714D01*
X116528571Y-102022857D01*
X116528571Y-101880000D01*
X117528571Y-100737142D02*
X116028571Y-100737142D01*
X117457142Y-100737142D02*
X117528571Y-100880000D01*
X117528571Y-101165714D01*
X117457142Y-101308571D01*
X117385714Y-101380000D01*
X117242857Y-101451428D01*
X116814285Y-101451428D01*
X116671428Y-101380000D01*
X116600000Y-101308571D01*
X116528571Y-101165714D01*
X116528571Y-100880000D01*
X116600000Y-100737142D01*
X120078571Y-120022857D02*
X118578571Y-120022857D01*
X119150000Y-120022857D02*
X119078571Y-119880000D01*
X119078571Y-119594285D01*
X119150000Y-119451428D01*
X119221428Y-119380000D01*
X119364285Y-119308571D01*
X119792857Y-119308571D01*
X119935714Y-119380000D01*
X120007142Y-119451428D01*
X120078571Y-119594285D01*
X120078571Y-119880000D01*
X120007142Y-120022857D01*
X119078571Y-118808571D02*
X120078571Y-118451428D01*
X119078571Y-118094285D02*
X120078571Y-118451428D01*
X120435714Y-118594285D01*
X120507142Y-118665714D01*
X120578571Y-118808571D01*
X118650000Y-115594285D02*
X118578571Y-115737142D01*
X118578571Y-115951428D01*
X118650000Y-116165714D01*
X118792857Y-116308571D01*
X118935714Y-116380000D01*
X119221428Y-116451428D01*
X119435714Y-116451428D01*
X119721428Y-116380000D01*
X119864285Y-116308571D01*
X120007142Y-116165714D01*
X120078571Y-115951428D01*
X120078571Y-115808571D01*
X120007142Y-115594285D01*
X119935714Y-115522857D01*
X119435714Y-115522857D01*
X119435714Y-115808571D01*
X120078571Y-114880000D02*
X119078571Y-114880000D01*
X119364285Y-114880000D02*
X119221428Y-114808571D01*
X119150000Y-114737142D01*
X119078571Y-114594285D01*
X119078571Y-114451428D01*
X120007142Y-113380000D02*
X120078571Y-113522857D01*
X120078571Y-113808571D01*
X120007142Y-113951428D01*
X119864285Y-114022857D01*
X119292857Y-114022857D01*
X119150000Y-113951428D01*
X119078571Y-113808571D01*
X119078571Y-113522857D01*
X119150000Y-113380000D01*
X119292857Y-113308571D01*
X119435714Y-113308571D01*
X119578571Y-114022857D01*
X119078571Y-112022857D02*
X120292857Y-112022857D01*
X120435714Y-112094285D01*
X120507142Y-112165714D01*
X120578571Y-112308571D01*
X120578571Y-112522857D01*
X120507142Y-112665714D01*
X120007142Y-112022857D02*
X120078571Y-112165714D01*
X120078571Y-112451428D01*
X120007142Y-112594285D01*
X119935714Y-112665714D01*
X119792857Y-112737142D01*
X119364285Y-112737142D01*
X119221428Y-112665714D01*
X119150000Y-112594285D01*
X119078571Y-112451428D01*
X119078571Y-112165714D01*
X119150000Y-112022857D01*
X120078571Y-111094285D02*
X120007142Y-111237142D01*
X119935714Y-111308571D01*
X119792857Y-111380000D01*
X119364285Y-111380000D01*
X119221428Y-111308571D01*
X119150000Y-111237142D01*
X119078571Y-111094285D01*
X119078571Y-110880000D01*
X119150000Y-110737142D01*
X119221428Y-110665714D01*
X119364285Y-110594285D01*
X119792857Y-110594285D01*
X119935714Y-110665714D01*
X120007142Y-110737142D01*
X120078571Y-110880000D01*
X120078571Y-111094285D01*
X120078571Y-109951428D02*
X119078571Y-109951428D01*
X119364285Y-109951428D02*
X119221428Y-109880000D01*
X119150000Y-109808571D01*
X119078571Y-109665714D01*
X119078571Y-109522857D01*
X118650000Y-107094285D02*
X118578571Y-107237142D01*
X118578571Y-107451428D01*
X118650000Y-107665714D01*
X118792857Y-107808571D01*
X118935714Y-107880000D01*
X119221428Y-107951428D01*
X119435714Y-107951428D01*
X119721428Y-107880000D01*
X119864285Y-107808571D01*
X120007142Y-107665714D01*
X120078571Y-107451428D01*
X120078571Y-107308571D01*
X120007142Y-107094285D01*
X119935714Y-107022857D01*
X119435714Y-107022857D01*
X119435714Y-107308571D01*
X120078571Y-106165714D02*
X120007142Y-106308571D01*
X119935714Y-106380000D01*
X119792857Y-106451428D01*
X119364285Y-106451428D01*
X119221428Y-106380000D01*
X119150000Y-106308571D01*
X119078571Y-106165714D01*
X119078571Y-105951428D01*
X119150000Y-105808571D01*
X119221428Y-105737142D01*
X119364285Y-105665714D01*
X119792857Y-105665714D01*
X119935714Y-105737142D01*
X120007142Y-105808571D01*
X120078571Y-105951428D01*
X120078571Y-106165714D01*
X120078571Y-105022857D02*
X119078571Y-105022857D01*
X119221428Y-105022857D02*
X119150000Y-104951428D01*
X119078571Y-104808571D01*
X119078571Y-104594285D01*
X119150000Y-104451428D01*
X119292857Y-104380000D01*
X120078571Y-104380000D01*
X119292857Y-104380000D02*
X119150000Y-104308571D01*
X119078571Y-104165714D01*
X119078571Y-103951428D01*
X119150000Y-103808571D01*
X119292857Y-103737142D01*
X120078571Y-103737142D01*
X120078571Y-103022857D02*
X118578571Y-103022857D01*
X119150000Y-103022857D02*
X119078571Y-102880000D01*
X119078571Y-102594285D01*
X119150000Y-102451428D01*
X119221428Y-102380000D01*
X119364285Y-102308571D01*
X119792857Y-102308571D01*
X119935714Y-102380000D01*
X120007142Y-102451428D01*
X120078571Y-102594285D01*
X120078571Y-102880000D01*
X120007142Y-103022857D01*
X120078571Y-101022857D02*
X119292857Y-101022857D01*
X119150000Y-101094285D01*
X119078571Y-101237142D01*
X119078571Y-101522857D01*
X119150000Y-101665714D01*
X120007142Y-101022857D02*
X120078571Y-101165714D01*
X120078571Y-101522857D01*
X120007142Y-101665714D01*
X119864285Y-101737142D01*
X119721428Y-101737142D01*
X119578571Y-101665714D01*
X119507142Y-101522857D01*
X119507142Y-101165714D01*
X119435714Y-101022857D01*
X120007142Y-99665714D02*
X120078571Y-99808571D01*
X120078571Y-100094285D01*
X120007142Y-100237142D01*
X119935714Y-100308571D01*
X119792857Y-100380000D01*
X119364285Y-100380000D01*
X119221428Y-100308571D01*
X119150000Y-100237142D01*
X119078571Y-100094285D01*
X119078571Y-99808571D01*
X119150000Y-99665714D01*
X118507142Y-100237142D02*
X118721428Y-99951428D01*
X118507142Y-99665714D01*
X80528571Y-112957142D02*
X79528571Y-112957142D01*
X79028571Y-112957142D02*
X79100000Y-113028571D01*
X79171428Y-112957142D01*
X79100000Y-112885714D01*
X79028571Y-112957142D01*
X79171428Y-112957142D01*
X80457142Y-112314285D02*
X80528571Y-112171428D01*
X80528571Y-111885714D01*
X80457142Y-111742857D01*
X80314285Y-111671428D01*
X80242857Y-111671428D01*
X80100000Y-111742857D01*
X80028571Y-111885714D01*
X80028571Y-112100000D01*
X79957142Y-112242857D01*
X79814285Y-112314285D01*
X79742857Y-112314285D01*
X79600000Y-112242857D01*
X79528571Y-112100000D01*
X79528571Y-111885714D01*
X79600000Y-111742857D01*
X80528571Y-110814285D02*
X80457142Y-110957142D01*
X80385714Y-111028571D01*
X80242857Y-111100000D01*
X79814285Y-111100000D01*
X79671428Y-111028571D01*
X79600000Y-110957142D01*
X79528571Y-110814285D01*
X79528571Y-110600000D01*
X79600000Y-110457142D01*
X79671428Y-110385714D01*
X79814285Y-110314285D01*
X80242857Y-110314285D01*
X80385714Y-110385714D01*
X80457142Y-110457142D01*
X80528571Y-110600000D01*
X80528571Y-110814285D01*
X80457142Y-109742857D02*
X80528571Y-109528571D01*
X80528571Y-109171428D01*
X80457142Y-109028571D01*
X80385714Y-108957142D01*
X80242857Y-108885714D01*
X80100000Y-108885714D01*
X79957142Y-108957142D01*
X79885714Y-109028571D01*
X79814285Y-109171428D01*
X79742857Y-109457142D01*
X79671428Y-109600000D01*
X79600000Y-109671428D01*
X79457142Y-109742857D01*
X79314285Y-109742857D01*
X79171428Y-109671428D01*
X79100000Y-109600000D01*
X79028571Y-109457142D01*
X79028571Y-109100000D01*
X79100000Y-108885714D01*
X80528571Y-108242857D02*
X79028571Y-108242857D01*
X79028571Y-107671428D01*
X79100000Y-107528571D01*
X79171428Y-107457142D01*
X79314285Y-107385714D01*
X79528571Y-107385714D01*
X79671428Y-107457142D01*
X79742857Y-107528571D01*
X79814285Y-107671428D01*
X79814285Y-108242857D01*
X80528571Y-106742857D02*
X79028571Y-106742857D01*
X70678571Y-104200000D02*
X69178571Y-104200000D01*
X69178571Y-103628571D01*
X69250000Y-103485714D01*
X69321428Y-103414285D01*
X69464285Y-103342857D01*
X69678571Y-103342857D01*
X69821428Y-103414285D01*
X69892857Y-103485714D01*
X69964285Y-103628571D01*
X69964285Y-104200000D01*
X69178571Y-102414285D02*
X69178571Y-102128571D01*
X69250000Y-101985714D01*
X69392857Y-101842857D01*
X69678571Y-101771428D01*
X70178571Y-101771428D01*
X70464285Y-101842857D01*
X70607142Y-101985714D01*
X70678571Y-102128571D01*
X70678571Y-102414285D01*
X70607142Y-102557142D01*
X70464285Y-102700000D01*
X70178571Y-102771428D01*
X69678571Y-102771428D01*
X69392857Y-102700000D01*
X69250000Y-102557142D01*
X69178571Y-102414285D01*
X70607142Y-101200000D02*
X70678571Y-100985714D01*
X70678571Y-100628571D01*
X70607142Y-100485714D01*
X70535714Y-100414285D01*
X70392857Y-100342857D01*
X70250000Y-100342857D01*
X70107142Y-100414285D01*
X70035714Y-100485714D01*
X69964285Y-100628571D01*
X69892857Y-100914285D01*
X69821428Y-101057142D01*
X69750000Y-101128571D01*
X69607142Y-101200000D01*
X69464285Y-101200000D01*
X69321428Y-101128571D01*
X69250000Y-101057142D01*
X69178571Y-100914285D01*
X69178571Y-100557142D01*
X69250000Y-100342857D01*
X70678571Y-99700000D02*
X69178571Y-99700000D01*
X69178571Y-99200000D02*
X69178571Y-98342857D01*
X70678571Y-98771428D02*
X69178571Y-98771428D01*
X70678571Y-97842857D02*
X69178571Y-97842857D01*
X69178571Y-97342857D02*
X70678571Y-96842857D01*
X69178571Y-96342857D01*
X69892857Y-95842857D02*
X69892857Y-95342857D01*
X70678571Y-95128571D02*
X70678571Y-95842857D01*
X69178571Y-95842857D01*
X69178571Y-95128571D01*
X227428571Y-145050000D02*
X225928571Y-145050000D01*
X227428571Y-144192857D01*
X225928571Y-144192857D01*
X226642857Y-143478571D02*
X226642857Y-142978571D01*
X227428571Y-142764285D02*
X227428571Y-143478571D01*
X225928571Y-143478571D01*
X225928571Y-142764285D01*
X226000000Y-141335714D02*
X225928571Y-141478571D01*
X225928571Y-141692857D01*
X226000000Y-141907142D01*
X226142857Y-142050000D01*
X226285714Y-142121428D01*
X226571428Y-142192857D01*
X226785714Y-142192857D01*
X227071428Y-142121428D01*
X227214285Y-142050000D01*
X227357142Y-141907142D01*
X227428571Y-141692857D01*
X227428571Y-141550000D01*
X227357142Y-141335714D01*
X227285714Y-141264285D01*
X226785714Y-141264285D01*
X226785714Y-141550000D01*
X227000000Y-140692857D02*
X227000000Y-139978571D01*
X227428571Y-140835714D02*
X225928571Y-140335714D01*
X227428571Y-139835714D01*
X225928571Y-139550000D02*
X225928571Y-138692857D01*
X227428571Y-139121428D02*
X225928571Y-139121428D01*
X227428571Y-138192857D02*
X225928571Y-138192857D01*
X225928571Y-137692857D02*
X227428571Y-137192857D01*
X225928571Y-136692857D01*
X226642857Y-136192857D02*
X226642857Y-135692857D01*
X227428571Y-135478571D02*
X227428571Y-136192857D01*
X225928571Y-136192857D01*
X225928571Y-135478571D01*
D11*
X229750000Y-132300000D02*
X232750000Y-132300000D01*
X228750000Y-147300000D02*
X228750000Y-133300000D01*
X232750000Y-148300000D02*
X229750000Y-148300000D01*
X233750000Y-133300000D02*
X233750000Y-147300000D01*
X229750000Y-148300000D02*
G75*
G02X228750000Y-147300000I0J1000000D01*
G01*
X228750000Y-133300000D02*
G75*
G02X229750000Y-132300000I1000000J0D01*
G01*
X232750000Y-132300000D02*
G75*
G02X233750000Y-133300000I0J-1000000D01*
G01*
X233750000Y-147300000D02*
G75*
G02X232750000Y-148300000I-1000000J0D01*
G01*
X250000000Y-90000000D02*
X52500000Y-90000000D01*
X250000000Y-90000000D02*
G75*
G02X252500000Y-92500000I0J-2500000D01*
G01*
X252500000Y-147500000D02*
X252500000Y-92500000D01*
X252500000Y-147500000D02*
G75*
G02X250000000Y-150000000I-2500000J0D01*
G01*
X52500000Y-150000000D02*
X250000000Y-150000000D01*
X52500000Y-150000000D02*
G75*
G02X50000000Y-147500000I0J2500000D01*
G01*
X50000000Y-92500000D02*
X50000000Y-147500000D01*
X50000000Y-92500000D02*
G75*
G02X52500000Y-90000000I2500000J0D01*
G01*
X149750000Y-104350000D02*
X150500000Y-103600000D01*
X150500000Y-103600000D02*
X155250000Y-103600000D01*
X155250000Y-103600000D02*
X155250000Y-116100000D01*
X155250000Y-116100000D02*
X149750000Y-116100000D01*
X149750000Y-116100000D02*
X149750000Y-104350000D01*
X130000000Y-133300000D02*
G75*
G02X130000000Y-147300000I0J-7000000D01*
G01*
X128500000Y-147300000D02*
X130000000Y-147300000D01*
X128500000Y-133300000D02*
X130000000Y-133300000D01*
X128500000Y-147300000D02*
G75*
G02X128500000Y-133300000I0J7000000D01*
G01*
X106250000Y-147300000D02*
X107750000Y-147300000D01*
X106250000Y-133300000D02*
X107750000Y-133300000D01*
X107750000Y-133300000D02*
G75*
G02X107750000Y-147300000I0J-7000000D01*
G01*
X106250000Y-147300000D02*
G75*
G02X106250000Y-133300000I0J7000000D01*
G01*
X198750000Y-92700000D02*
G75*
G02X198750000Y-106700000I0J-7000000D01*
G01*
X197250000Y-106700000D02*
X198750000Y-106700000D01*
X197250000Y-92700000D02*
X198750000Y-92700000D01*
X197250000Y-106700000D02*
G75*
G02X197250000Y-92700000I0J7000000D01*
G01*
X175000000Y-106700000D02*
X176500000Y-106700000D01*
X175000000Y-92700000D02*
X176500000Y-92700000D01*
X176500000Y-92700000D02*
G75*
G02X176500000Y-106700000I0J-7000000D01*
G01*
X175000000Y-106700000D02*
G75*
G02X175000000Y-92700000I0J7000000D01*
G01*
X99250000Y-118500000D02*
G75*
G02X113250000Y-118500000I7000000J0D01*
G01*
X113250000Y-120000000D02*
G75*
G02X99250000Y-120000000I-7000000J0D01*
G01*
X99250000Y-120000000D02*
X99250000Y-118500000D01*
X113250000Y-120000000D02*
X113250000Y-118500000D01*
X113250000Y-101200000D02*
G75*
G02X99250000Y-101200000I-7000000J0D01*
G01*
X99250000Y-99700000D02*
G75*
G02X113250000Y-99700000I7000000J0D01*
G01*
X99250000Y-101200000D02*
X99250000Y-99700000D01*
X113250000Y-101200000D02*
X113250000Y-99700000D01*
X54250000Y-138800000D02*
G75*
G02X68250000Y-138800000I7000000J0D01*
G01*
X68250000Y-140300000D02*
G75*
G02X54250000Y-140300000I-7000000J0D01*
G01*
X54250000Y-140300000D02*
X54250000Y-138800000D01*
X68250000Y-140300000D02*
X68250000Y-138800000D01*
X68250000Y-121500000D02*
G75*
G02X54250000Y-121500000I-7000000J0D01*
G01*
X54250000Y-120000000D02*
G75*
G02X68250000Y-120000000I7000000J0D01*
G01*
X54250000Y-121500000D02*
X54250000Y-120000000D01*
X68250000Y-121500000D02*
X68250000Y-120000000D01*
X182000000Y-121500000D02*
G75*
G02X168000000Y-121500000I-7000000J0D01*
G01*
X168000000Y-120000000D02*
G75*
G02X182000000Y-120000000I7000000J0D01*
G01*
X182000000Y-120000000D02*
X182000000Y-121500000D01*
X168000000Y-120000000D02*
X168000000Y-121500000D01*
X168000000Y-138800000D02*
G75*
G02X182000000Y-138800000I7000000J0D01*
G01*
X182000000Y-140300000D02*
G75*
G02X168000000Y-140300000I-7000000J0D01*
G01*
X182000000Y-138800000D02*
X182000000Y-140300000D01*
X168000000Y-138800000D02*
X168000000Y-140300000D01*
X137000000Y-101200000D02*
G75*
G02X123000000Y-101200000I-7000000J0D01*
G01*
X123000000Y-99700000D02*
G75*
G02X137000000Y-99700000I7000000J0D01*
G01*
X137000000Y-99700000D02*
X137000000Y-101200000D01*
X123000000Y-99700000D02*
X123000000Y-101200000D01*
X123000000Y-118500000D02*
G75*
G02X137000000Y-118500000I7000000J0D01*
G01*
X137000000Y-120000000D02*
G75*
G02X123000000Y-120000000I-7000000J0D01*
G01*
X137000000Y-118500000D02*
X137000000Y-120000000D01*
X123000000Y-118500000D02*
X123000000Y-120000000D01*
X236750000Y-118500000D02*
G75*
G02X250750000Y-118500000I7000000J0D01*
G01*
X250750000Y-120000000D02*
G75*
G02X236750000Y-120000000I-7000000J0D01*
G01*
X236750000Y-120000000D02*
X236750000Y-118500000D01*
X250750000Y-120000000D02*
X250750000Y-118500000D01*
X250750000Y-101200000D02*
G75*
G02X236750000Y-101200000I-7000000J0D01*
G01*
X236750000Y-99700000D02*
G75*
G02X250750000Y-99700000I7000000J0D01*
G01*
X236750000Y-101200000D02*
X236750000Y-99700000D01*
X250750000Y-101200000D02*
X250750000Y-99700000D01*
X191750000Y-138800000D02*
G75*
G02X205750000Y-138800000I7000000J0D01*
G01*
X205750000Y-140300000D02*
G75*
G02X191750000Y-140300000I-7000000J0D01*
G01*
X191750000Y-140300000D02*
X191750000Y-138800000D01*
X205750000Y-140300000D02*
X205750000Y-138800000D01*
X205750000Y-121500000D02*
G75*
G02X191750000Y-121500000I-7000000J0D01*
G01*
X191750000Y-120000000D02*
G75*
G02X205750000Y-120000000I7000000J0D01*
G01*
X191750000Y-121500000D02*
X191750000Y-120000000D01*
X205750000Y-121500000D02*
X205750000Y-120000000D01*
X68250000Y-101200000D02*
G75*
G02X54250000Y-101200000I-7000000J0D01*
G01*
X54250000Y-101200000D02*
X54250000Y-99700000D01*
X68250000Y-101200000D02*
X68250000Y-99700000D01*
X54250000Y-99700000D02*
G75*
G02X68250000Y-99700000I7000000J0D01*
G01*
D12*
X81170000Y-106335000D02*
X81170000Y-106220000D01*
X81670000Y-106335000D02*
X81170000Y-106335000D01*
X81670000Y-113365000D02*
X81670000Y-106335000D01*
X81170000Y-113365000D02*
X81670000Y-113365000D01*
X81170000Y-113480000D02*
X81170000Y-113365000D01*
X85760000Y-104915000D02*
X82550000Y-104915000D01*
X85760000Y-114785000D02*
X85760000Y-104915000D01*
X82550000Y-114785000D02*
X85760000Y-114785000D01*
X218670000Y-106335000D02*
X218670000Y-106220000D01*
X219170000Y-106335000D02*
X218670000Y-106335000D01*
X219170000Y-113365000D02*
X219170000Y-106335000D01*
X218670000Y-113365000D02*
X219170000Y-113365000D01*
X218670000Y-113480000D02*
X218670000Y-113365000D01*
X223260000Y-104915000D02*
X220050000Y-104915000D01*
X223260000Y-114785000D02*
X223260000Y-104915000D01*
X220050000Y-114785000D02*
X223260000Y-114785000D01*
D13*
G36*
X156320160Y-128839360D02*
X155751200Y-128839360D01*
X155751200Y-128656480D01*
X156320160Y-128656480D01*
X156320160Y-128839360D01*
X156320160Y-128839360D01*
G37*
X156320160Y-128839360D02*
X155751200Y-128839360D01*
X155751200Y-128656480D01*
X156320160Y-128656480D01*
X156320160Y-128839360D01*
G36*
X165440619Y-128210428D02*
X165520922Y-128229610D01*
X165586867Y-128262873D01*
X165639555Y-128311113D01*
X165680089Y-128375225D01*
X165698435Y-128419951D01*
X165704389Y-128437611D01*
X165709290Y-128454554D01*
X165713260Y-128472935D01*
X165716425Y-128494909D01*
X165718908Y-128522632D01*
X165720833Y-128558258D01*
X165722322Y-128603943D01*
X165723501Y-128661843D01*
X165724493Y-128734111D01*
X165725422Y-128822904D01*
X165726162Y-128902860D01*
X165729911Y-129316880D01*
X165628168Y-129316880D01*
X165624300Y-128913020D01*
X165623209Y-128809056D01*
X165622049Y-128723327D01*
X165620723Y-128653749D01*
X165619132Y-128598236D01*
X165617179Y-128554704D01*
X165614766Y-128521067D01*
X165611794Y-128495240D01*
X165608166Y-128475140D01*
X165603784Y-128458680D01*
X165602820Y-128455676D01*
X165574362Y-128395829D01*
X165533371Y-128346300D01*
X165483703Y-128311653D01*
X165479487Y-128309668D01*
X165442281Y-128298841D01*
X165392653Y-128292452D01*
X165338073Y-128290786D01*
X165286012Y-128294130D01*
X165250195Y-128300879D01*
X165209663Y-128317038D01*
X165159835Y-128344389D01*
X165105771Y-128379745D01*
X165052532Y-128419921D01*
X165027397Y-128441179D01*
X164966320Y-128495118D01*
X164966320Y-129316880D01*
X164864720Y-129316880D01*
X164864720Y-128229760D01*
X164956160Y-128229760D01*
X164956160Y-128284370D01*
X164957365Y-128322426D01*
X164960428Y-128357388D01*
X164962461Y-128370485D01*
X164968762Y-128401991D01*
X165036121Y-128345836D01*
X165126921Y-128280699D01*
X165218755Y-128235811D01*
X165311575Y-128211186D01*
X165405333Y-128206841D01*
X165440619Y-128210428D01*
X165440619Y-128210428D01*
G37*
X165440619Y-128210428D02*
X165520922Y-128229610D01*
X165586867Y-128262873D01*
X165639555Y-128311113D01*
X165680089Y-128375225D01*
X165698435Y-128419951D01*
X165704389Y-128437611D01*
X165709290Y-128454554D01*
X165713260Y-128472935D01*
X165716425Y-128494909D01*
X165718908Y-128522632D01*
X165720833Y-128558258D01*
X165722322Y-128603943D01*
X165723501Y-128661843D01*
X165724493Y-128734111D01*
X165725422Y-128822904D01*
X165726162Y-128902860D01*
X165729911Y-129316880D01*
X165628168Y-129316880D01*
X165624300Y-128913020D01*
X165623209Y-128809056D01*
X165622049Y-128723327D01*
X165620723Y-128653749D01*
X165619132Y-128598236D01*
X165617179Y-128554704D01*
X165614766Y-128521067D01*
X165611794Y-128495240D01*
X165608166Y-128475140D01*
X165603784Y-128458680D01*
X165602820Y-128455676D01*
X165574362Y-128395829D01*
X165533371Y-128346300D01*
X165483703Y-128311653D01*
X165479487Y-128309668D01*
X165442281Y-128298841D01*
X165392653Y-128292452D01*
X165338073Y-128290786D01*
X165286012Y-128294130D01*
X165250195Y-128300879D01*
X165209663Y-128317038D01*
X165159835Y-128344389D01*
X165105771Y-128379745D01*
X165052532Y-128419921D01*
X165027397Y-128441179D01*
X164966320Y-128495118D01*
X164966320Y-129316880D01*
X164864720Y-129316880D01*
X164864720Y-128229760D01*
X164956160Y-128229760D01*
X164956160Y-128284370D01*
X164957365Y-128322426D01*
X164960428Y-128357388D01*
X164962461Y-128370485D01*
X164968762Y-128401991D01*
X165036121Y-128345836D01*
X165126921Y-128280699D01*
X165218755Y-128235811D01*
X165311575Y-128211186D01*
X165405333Y-128206841D01*
X165440619Y-128210428D01*
G36*
X163421066Y-128205528D02*
X163450914Y-128214348D01*
X163467257Y-128226406D01*
X163468373Y-128236801D01*
X163461207Y-128258849D01*
X163456670Y-128275405D01*
X163452650Y-128287034D01*
X163444871Y-128293594D01*
X163428857Y-128296020D01*
X163400130Y-128295249D01*
X163370819Y-128293361D01*
X163327959Y-128291227D01*
X163297439Y-128292746D01*
X163271417Y-128299179D01*
X163242055Y-128311786D01*
X163234986Y-128315211D01*
X163179889Y-128351054D01*
X163125734Y-128402731D01*
X163076647Y-128466004D01*
X163056561Y-128498437D01*
X163025760Y-128552273D01*
X163025760Y-129316880D01*
X162924160Y-129316880D01*
X162924160Y-128229760D01*
X162963712Y-128229760D01*
X162987002Y-128231242D01*
X163002060Y-128238094D01*
X163010675Y-128253921D01*
X163014636Y-128282330D01*
X163015729Y-128326927D01*
X163015755Y-128334730D01*
X163017016Y-128382697D01*
X163021153Y-128411355D01*
X163029069Y-128421619D01*
X163041669Y-128414405D01*
X163059857Y-128390628D01*
X163064292Y-128383892D01*
X163119445Y-128313581D01*
X163182774Y-128259011D01*
X163252128Y-128221620D01*
X163325358Y-128202847D01*
X163336411Y-128201737D01*
X163381602Y-128200980D01*
X163421066Y-128205528D01*
X163421066Y-128205528D01*
G37*
X163421066Y-128205528D02*
X163450914Y-128214348D01*
X163467257Y-128226406D01*
X163468373Y-128236801D01*
X163461207Y-128258849D01*
X163456670Y-128275405D01*
X163452650Y-128287034D01*
X163444871Y-128293594D01*
X163428857Y-128296020D01*
X163400130Y-128295249D01*
X163370819Y-128293361D01*
X163327959Y-128291227D01*
X163297439Y-128292746D01*
X163271417Y-128299179D01*
X163242055Y-128311786D01*
X163234986Y-128315211D01*
X163179889Y-128351054D01*
X163125734Y-128402731D01*
X163076647Y-128466004D01*
X163056561Y-128498437D01*
X163025760Y-128552273D01*
X163025760Y-129316880D01*
X162924160Y-129316880D01*
X162924160Y-128229760D01*
X162963712Y-128229760D01*
X162987002Y-128231242D01*
X163002060Y-128238094D01*
X163010675Y-128253921D01*
X163014636Y-128282330D01*
X163015729Y-128326927D01*
X163015755Y-128334730D01*
X163017016Y-128382697D01*
X163021153Y-128411355D01*
X163029069Y-128421619D01*
X163041669Y-128414405D01*
X163059857Y-128390628D01*
X163064292Y-128383892D01*
X163119445Y-128313581D01*
X163182774Y-128259011D01*
X163252128Y-128221620D01*
X163325358Y-128202847D01*
X163336411Y-128201737D01*
X163381602Y-128200980D01*
X163421066Y-128205528D01*
G36*
X162629520Y-127904640D02*
X162121520Y-127904640D01*
X162121520Y-129316880D01*
X162009760Y-129316880D01*
X162009760Y-127904640D01*
X161501760Y-127904640D01*
X161501760Y-127823360D01*
X162629520Y-127823360D01*
X162629520Y-127904640D01*
X162629520Y-127904640D01*
G37*
X162629520Y-127904640D02*
X162121520Y-127904640D01*
X162121520Y-129316880D01*
X162009760Y-129316880D01*
X162009760Y-127904640D01*
X161501760Y-127904640D01*
X161501760Y-127823360D01*
X162629520Y-127823360D01*
X162629520Y-127904640D01*
G36*
X157298537Y-127907180D02*
X157308367Y-127935714D01*
X157323700Y-127979927D01*
X157343871Y-128037914D01*
X157368213Y-128107774D01*
X157396062Y-128187605D01*
X157426751Y-128275503D01*
X157459614Y-128369567D01*
X157493987Y-128467894D01*
X157529202Y-128568581D01*
X157564594Y-128669725D01*
X157599498Y-128769426D01*
X157633248Y-128865779D01*
X157665177Y-128956883D01*
X157694621Y-129040835D01*
X157720914Y-129115732D01*
X157743389Y-129179673D01*
X157761381Y-129230754D01*
X157774224Y-129267073D01*
X157781252Y-129286728D01*
X157782173Y-129289210D01*
X157793062Y-129317421D01*
X157644707Y-129314610D01*
X157496352Y-129311800D01*
X157438854Y-129121546D01*
X157420549Y-129062180D01*
X157403549Y-129009280D01*
X157388931Y-128966024D01*
X157377772Y-128935590D01*
X157371149Y-128921155D01*
X157370775Y-128920711D01*
X157356604Y-128917110D01*
X157322562Y-128914503D01*
X157269072Y-128912900D01*
X157196559Y-128912316D01*
X157105449Y-128912761D01*
X157097096Y-128912844D01*
X156834000Y-128915560D01*
X156773288Y-129116220D01*
X156712575Y-129316880D01*
X156432540Y-129316880D01*
X156507061Y-129100980D01*
X156525210Y-129048369D01*
X156548995Y-128979374D01*
X156577441Y-128896828D01*
X156609572Y-128803560D01*
X156644414Y-128702403D01*
X156646794Y-128695490D01*
X156902653Y-128695490D01*
X156906818Y-128699965D01*
X156918154Y-128703143D01*
X156939156Y-128705244D01*
X156972321Y-128706487D01*
X157020145Y-128707090D01*
X157085124Y-128707274D01*
X157105772Y-128707280D01*
X157313633Y-128707280D01*
X157289019Y-128628540D01*
X157279318Y-128596872D01*
X157265030Y-128549380D01*
X157247249Y-128489748D01*
X157227073Y-128421661D01*
X157205596Y-128348802D01*
X157188919Y-128291963D01*
X157168578Y-128222964D01*
X157149900Y-128160522D01*
X157133689Y-128107250D01*
X157120749Y-128065763D01*
X157111884Y-128038676D01*
X157107956Y-128028650D01*
X157103115Y-128026151D01*
X157098003Y-128030289D01*
X157091729Y-128043504D01*
X157083402Y-128068236D01*
X157072130Y-128106926D01*
X157057023Y-128162016D01*
X157050725Y-128185395D01*
X157032597Y-128251400D01*
X157010796Y-128328502D01*
X156987704Y-128408399D01*
X156965704Y-128482790D01*
X156959282Y-128504080D01*
X156942219Y-128560341D01*
X156926962Y-128610697D01*
X156914598Y-128651554D01*
X156906216Y-128679318D01*
X156903163Y-128689500D01*
X156902653Y-128695490D01*
X156646794Y-128695490D01*
X156680990Y-128596187D01*
X156718327Y-128487743D01*
X156755448Y-128379903D01*
X156762539Y-128359300D01*
X156943496Y-127833520D01*
X157273363Y-127833520D01*
X157298537Y-127907180D01*
X157298537Y-127907180D01*
G37*
X157298537Y-127907180D02*
X157308367Y-127935714D01*
X157323700Y-127979927D01*
X157343871Y-128037914D01*
X157368213Y-128107774D01*
X157396062Y-128187605D01*
X157426751Y-128275503D01*
X157459614Y-128369567D01*
X157493987Y-128467894D01*
X157529202Y-128568581D01*
X157564594Y-128669725D01*
X157599498Y-128769426D01*
X157633248Y-128865779D01*
X157665177Y-128956883D01*
X157694621Y-129040835D01*
X157720914Y-129115732D01*
X157743389Y-129179673D01*
X157761381Y-129230754D01*
X157774224Y-129267073D01*
X157781252Y-129286728D01*
X157782173Y-129289210D01*
X157793062Y-129317421D01*
X157644707Y-129314610D01*
X157496352Y-129311800D01*
X157438854Y-129121546D01*
X157420549Y-129062180D01*
X157403549Y-129009280D01*
X157388931Y-128966024D01*
X157377772Y-128935590D01*
X157371149Y-128921155D01*
X157370775Y-128920711D01*
X157356604Y-128917110D01*
X157322562Y-128914503D01*
X157269072Y-128912900D01*
X157196559Y-128912316D01*
X157105449Y-128912761D01*
X157097096Y-128912844D01*
X156834000Y-128915560D01*
X156773288Y-129116220D01*
X156712575Y-129316880D01*
X156432540Y-129316880D01*
X156507061Y-129100980D01*
X156525210Y-129048369D01*
X156548995Y-128979374D01*
X156577441Y-128896828D01*
X156609572Y-128803560D01*
X156644414Y-128702403D01*
X156646794Y-128695490D01*
X156902653Y-128695490D01*
X156906818Y-128699965D01*
X156918154Y-128703143D01*
X156939156Y-128705244D01*
X156972321Y-128706487D01*
X157020145Y-128707090D01*
X157085124Y-128707274D01*
X157105772Y-128707280D01*
X157313633Y-128707280D01*
X157289019Y-128628540D01*
X157279318Y-128596872D01*
X157265030Y-128549380D01*
X157247249Y-128489748D01*
X157227073Y-128421661D01*
X157205596Y-128348802D01*
X157188919Y-128291963D01*
X157168578Y-128222964D01*
X157149900Y-128160522D01*
X157133689Y-128107250D01*
X157120749Y-128065763D01*
X157111884Y-128038676D01*
X157107956Y-128028650D01*
X157103115Y-128026151D01*
X157098003Y-128030289D01*
X157091729Y-128043504D01*
X157083402Y-128068236D01*
X157072130Y-128106926D01*
X157057023Y-128162016D01*
X157050725Y-128185395D01*
X157032597Y-128251400D01*
X157010796Y-128328502D01*
X156987704Y-128408399D01*
X156965704Y-128482790D01*
X156959282Y-128504080D01*
X156942219Y-128560341D01*
X156926962Y-128610697D01*
X156914598Y-128651554D01*
X156906216Y-128679318D01*
X156903163Y-128689500D01*
X156902653Y-128695490D01*
X156646794Y-128695490D01*
X156680990Y-128596187D01*
X156718327Y-128487743D01*
X156755448Y-128379903D01*
X156762539Y-128359300D01*
X156943496Y-127833520D01*
X157273363Y-127833520D01*
X157298537Y-127907180D01*
G36*
X155497200Y-128046880D02*
X154826640Y-128046880D01*
X154826640Y-128432960D01*
X155395600Y-128432960D01*
X155395600Y-128646320D01*
X154826251Y-128646320D01*
X154828985Y-128872380D01*
X154831720Y-129098440D01*
X155527680Y-129103786D01*
X155527680Y-129316880D01*
X154542160Y-129316880D01*
X154542160Y-127833520D01*
X155497200Y-127833520D01*
X155497200Y-128046880D01*
X155497200Y-128046880D01*
G37*
X155497200Y-128046880D02*
X154826640Y-128046880D01*
X154826640Y-128432960D01*
X155395600Y-128432960D01*
X155395600Y-128646320D01*
X154826251Y-128646320D01*
X154828985Y-128872380D01*
X154831720Y-129098440D01*
X155527680Y-129103786D01*
X155527680Y-129316880D01*
X154542160Y-129316880D01*
X154542160Y-127833520D01*
X155497200Y-127833520D01*
X155497200Y-128046880D01*
G36*
X167418175Y-128204097D02*
X167504530Y-128222768D01*
X167586792Y-128255705D01*
X167662646Y-128302898D01*
X167729784Y-128364337D01*
X167785891Y-128440015D01*
X167806196Y-128477226D01*
X167840476Y-128566565D01*
X167861942Y-128666096D01*
X167870104Y-128769857D01*
X167864470Y-128871882D01*
X167846038Y-128961280D01*
X167807506Y-129058640D01*
X167753768Y-129143926D01*
X167686236Y-129215725D01*
X167606320Y-129272630D01*
X167515430Y-129313230D01*
X167484664Y-129322441D01*
X167432594Y-129331536D01*
X167369114Y-129335626D01*
X167302502Y-129334739D01*
X167241036Y-129328900D01*
X167204207Y-129321537D01*
X167119349Y-129289244D01*
X167040055Y-129241016D01*
X166970248Y-129180077D01*
X166913852Y-129109650D01*
X166886198Y-129060215D01*
X166849198Y-128958016D01*
X166829400Y-128848991D01*
X166827474Y-128767353D01*
X166927200Y-128767353D01*
X166935435Y-128873473D01*
X166959648Y-128970574D01*
X166999101Y-129056964D01*
X167053055Y-129130954D01*
X167108137Y-129181596D01*
X167175477Y-129220803D01*
X167252444Y-129245117D01*
X167334385Y-129254104D01*
X167416647Y-129247327D01*
X167494577Y-129224350D01*
X167506810Y-129218919D01*
X167583303Y-129172365D01*
X167646277Y-129110765D01*
X167695513Y-129034429D01*
X167730793Y-128943673D01*
X167746681Y-128873997D01*
X167756000Y-128773435D01*
X167749451Y-128677536D01*
X167728324Y-128588044D01*
X167693908Y-128506702D01*
X167647493Y-128435252D01*
X167590368Y-128375438D01*
X167523823Y-128329003D01*
X167449148Y-128297690D01*
X167367632Y-128283241D01*
X167310063Y-128283844D01*
X167226178Y-128300547D01*
X167149792Y-128334844D01*
X167082328Y-128384939D01*
X167025207Y-128449035D01*
X166979852Y-128525337D01*
X166947685Y-128612048D01*
X166930129Y-128707372D01*
X166927200Y-128767353D01*
X166827474Y-128767353D01*
X166826758Y-128737055D01*
X166841225Y-128626124D01*
X166872753Y-128520112D01*
X166893206Y-128473600D01*
X166943501Y-128392156D01*
X167005881Y-128325043D01*
X167078036Y-128272249D01*
X167157655Y-128233768D01*
X167242425Y-128209588D01*
X167330036Y-128199701D01*
X167418175Y-128204097D01*
X167418175Y-128204097D01*
G37*
X167418175Y-128204097D02*
X167504530Y-128222768D01*
X167586792Y-128255705D01*
X167662646Y-128302898D01*
X167729784Y-128364337D01*
X167785891Y-128440015D01*
X167806196Y-128477226D01*
X167840476Y-128566565D01*
X167861942Y-128666096D01*
X167870104Y-128769857D01*
X167864470Y-128871882D01*
X167846038Y-128961280D01*
X167807506Y-129058640D01*
X167753768Y-129143926D01*
X167686236Y-129215725D01*
X167606320Y-129272630D01*
X167515430Y-129313230D01*
X167484664Y-129322441D01*
X167432594Y-129331536D01*
X167369114Y-129335626D01*
X167302502Y-129334739D01*
X167241036Y-129328900D01*
X167204207Y-129321537D01*
X167119349Y-129289244D01*
X167040055Y-129241016D01*
X166970248Y-129180077D01*
X166913852Y-129109650D01*
X166886198Y-129060215D01*
X166849198Y-128958016D01*
X166829400Y-128848991D01*
X166827474Y-128767353D01*
X166927200Y-128767353D01*
X166935435Y-128873473D01*
X166959648Y-128970574D01*
X166999101Y-129056964D01*
X167053055Y-129130954D01*
X167108137Y-129181596D01*
X167175477Y-129220803D01*
X167252444Y-129245117D01*
X167334385Y-129254104D01*
X167416647Y-129247327D01*
X167494577Y-129224350D01*
X167506810Y-129218919D01*
X167583303Y-129172365D01*
X167646277Y-129110765D01*
X167695513Y-129034429D01*
X167730793Y-128943673D01*
X167746681Y-128873997D01*
X167756000Y-128773435D01*
X167749451Y-128677536D01*
X167728324Y-128588044D01*
X167693908Y-128506702D01*
X167647493Y-128435252D01*
X167590368Y-128375438D01*
X167523823Y-128329003D01*
X167449148Y-128297690D01*
X167367632Y-128283241D01*
X167310063Y-128283844D01*
X167226178Y-128300547D01*
X167149792Y-128334844D01*
X167082328Y-128384939D01*
X167025207Y-128449035D01*
X166979852Y-128525337D01*
X166947685Y-128612048D01*
X166930129Y-128707372D01*
X166927200Y-128767353D01*
X166827474Y-128767353D01*
X166826758Y-128737055D01*
X166841225Y-128626124D01*
X166872753Y-128520112D01*
X166893206Y-128473600D01*
X166943501Y-128392156D01*
X167005881Y-128325043D01*
X167078036Y-128272249D01*
X167157655Y-128233768D01*
X167242425Y-128209588D01*
X167330036Y-128199701D01*
X167418175Y-128204097D01*
G36*
X160440707Y-128178690D02*
X160443111Y-128179038D01*
X160540378Y-128202389D01*
X160625453Y-128241767D01*
X160697785Y-128296542D01*
X160756825Y-128366085D01*
X160802022Y-128449769D01*
X160832825Y-128546964D01*
X160847375Y-128640770D01*
X160849847Y-128688112D01*
X160849546Y-128737044D01*
X160847013Y-128772249D01*
X160839897Y-128829200D01*
X160081519Y-128829200D01*
X160091084Y-128872380D01*
X160118422Y-128952798D01*
X160161226Y-129020749D01*
X160217973Y-129074908D01*
X160287138Y-129113952D01*
X160367196Y-129136557D01*
X160399972Y-129140547D01*
X160486050Y-129138690D01*
X160574490Y-129120914D01*
X160657379Y-129088829D01*
X160659581Y-129087722D01*
X160687909Y-129074086D01*
X160707742Y-129065899D01*
X160713857Y-129064736D01*
X160722922Y-129078568D01*
X160737864Y-129103634D01*
X160755804Y-129134824D01*
X160773863Y-129167029D01*
X160789163Y-129195138D01*
X160798824Y-129214042D01*
X160800720Y-129218911D01*
X160791771Y-129228080D01*
X160767683Y-129241905D01*
X160732591Y-129258610D01*
X160690630Y-129276419D01*
X160645936Y-129293554D01*
X160602643Y-129308240D01*
X160573034Y-129316718D01*
X160503126Y-129329421D01*
X160423440Y-129335684D01*
X160342008Y-129335407D01*
X160266864Y-129328487D01*
X160228086Y-129321091D01*
X160128432Y-129286992D01*
X160039558Y-129236292D01*
X159962978Y-129170476D01*
X159900206Y-129091026D01*
X159852753Y-128999426D01*
X159829968Y-128930800D01*
X159818428Y-128867045D01*
X159813059Y-128792104D01*
X159813861Y-128714143D01*
X159819383Y-128656480D01*
X160067585Y-128656480D01*
X160607680Y-128656480D01*
X160607680Y-128622764D01*
X160599741Y-128561192D01*
X160577778Y-128502404D01*
X160544574Y-128450625D01*
X160502909Y-128410085D01*
X160455565Y-128385009D01*
X160450166Y-128383386D01*
X160373924Y-128371803D01*
X160298859Y-128378487D01*
X160228950Y-128402698D01*
X160180396Y-128433405D01*
X160151226Y-128464222D01*
X160121881Y-128508033D01*
X160096229Y-128557920D01*
X160078139Y-128606962D01*
X160074147Y-128623460D01*
X160067585Y-128656480D01*
X159819383Y-128656480D01*
X159820835Y-128641327D01*
X159829978Y-128595520D01*
X159866058Y-128495394D01*
X159917456Y-128406398D01*
X159982265Y-128329827D01*
X160058577Y-128266975D01*
X160144485Y-128219141D01*
X160238081Y-128187618D01*
X160337458Y-128173702D01*
X160440707Y-128178690D01*
X160440707Y-128178690D01*
G37*
X160440707Y-128178690D02*
X160443111Y-128179038D01*
X160540378Y-128202389D01*
X160625453Y-128241767D01*
X160697785Y-128296542D01*
X160756825Y-128366085D01*
X160802022Y-128449769D01*
X160832825Y-128546964D01*
X160847375Y-128640770D01*
X160849847Y-128688112D01*
X160849546Y-128737044D01*
X160847013Y-128772249D01*
X160839897Y-128829200D01*
X160081519Y-128829200D01*
X160091084Y-128872380D01*
X160118422Y-128952798D01*
X160161226Y-129020749D01*
X160217973Y-129074908D01*
X160287138Y-129113952D01*
X160367196Y-129136557D01*
X160399972Y-129140547D01*
X160486050Y-129138690D01*
X160574490Y-129120914D01*
X160657379Y-129088829D01*
X160659581Y-129087722D01*
X160687909Y-129074086D01*
X160707742Y-129065899D01*
X160713857Y-129064736D01*
X160722922Y-129078568D01*
X160737864Y-129103634D01*
X160755804Y-129134824D01*
X160773863Y-129167029D01*
X160789163Y-129195138D01*
X160798824Y-129214042D01*
X160800720Y-129218911D01*
X160791771Y-129228080D01*
X160767683Y-129241905D01*
X160732591Y-129258610D01*
X160690630Y-129276419D01*
X160645936Y-129293554D01*
X160602643Y-129308240D01*
X160573034Y-129316718D01*
X160503126Y-129329421D01*
X160423440Y-129335684D01*
X160342008Y-129335407D01*
X160266864Y-129328487D01*
X160228086Y-129321091D01*
X160128432Y-129286992D01*
X160039558Y-129236292D01*
X159962978Y-129170476D01*
X159900206Y-129091026D01*
X159852753Y-128999426D01*
X159829968Y-128930800D01*
X159818428Y-128867045D01*
X159813059Y-128792104D01*
X159813861Y-128714143D01*
X159819383Y-128656480D01*
X160067585Y-128656480D01*
X160607680Y-128656480D01*
X160607680Y-128622764D01*
X160599741Y-128561192D01*
X160577778Y-128502404D01*
X160544574Y-128450625D01*
X160502909Y-128410085D01*
X160455565Y-128385009D01*
X160450166Y-128383386D01*
X160373924Y-128371803D01*
X160298859Y-128378487D01*
X160228950Y-128402698D01*
X160180396Y-128433405D01*
X160151226Y-128464222D01*
X160121881Y-128508033D01*
X160096229Y-128557920D01*
X160078139Y-128606962D01*
X160074147Y-128623460D01*
X160067585Y-128656480D01*
X159819383Y-128656480D01*
X159820835Y-128641327D01*
X159829978Y-128595520D01*
X159866058Y-128495394D01*
X159917456Y-128406398D01*
X159982265Y-128329827D01*
X160058577Y-128266975D01*
X160144485Y-128219141D01*
X160238081Y-128187618D01*
X160337458Y-128173702D01*
X160440707Y-128178690D01*
G36*
X166287120Y-128229760D02*
X166622400Y-128229760D01*
X166622400Y-128311040D01*
X166286263Y-128311040D01*
X166289231Y-128725060D01*
X166290007Y-128827902D01*
X166290791Y-128912426D01*
X166291688Y-128980633D01*
X166292805Y-129034523D01*
X166294247Y-129076098D01*
X166296122Y-129107359D01*
X166298534Y-129130307D01*
X166301590Y-129146944D01*
X166305397Y-129159270D01*
X166310060Y-129169286D01*
X166313069Y-129174605D01*
X166350675Y-129220221D01*
X166399803Y-129249465D01*
X166459566Y-129262060D01*
X166529080Y-129257726D01*
X166557826Y-129251593D01*
X166591692Y-129243565D01*
X166616571Y-129238573D01*
X166627197Y-129237670D01*
X166627234Y-129237709D01*
X166634961Y-129254017D01*
X166641518Y-129277439D01*
X166645025Y-129299375D01*
X166643598Y-129311228D01*
X166643365Y-129311401D01*
X166622889Y-129319251D01*
X166588667Y-129327854D01*
X166547175Y-129336006D01*
X166504891Y-129342499D01*
X166468294Y-129346129D01*
X166454760Y-129346502D01*
X166411884Y-129342796D01*
X166367019Y-129334232D01*
X166355266Y-129330978D01*
X166300565Y-129304091D01*
X166253839Y-129261474D01*
X166219245Y-129207353D01*
X166209534Y-129182819D01*
X166204991Y-129166908D01*
X166201219Y-129147926D01*
X166198121Y-129123800D01*
X166195601Y-129092453D01*
X166193561Y-129051811D01*
X166191906Y-128999799D01*
X166190537Y-128934342D01*
X166189358Y-128853364D01*
X166188273Y-128754792D01*
X166187937Y-128719980D01*
X166184086Y-128311040D01*
X166002640Y-128311040D01*
X166002640Y-128242540D01*
X166092944Y-128235476D01*
X166183249Y-128228412D01*
X166189464Y-128197336D01*
X166192060Y-128174276D01*
X166194124Y-128136757D01*
X166195397Y-128090634D01*
X166195680Y-128056600D01*
X166196229Y-128010036D01*
X166197716Y-127970050D01*
X166199894Y-127941629D01*
X166201847Y-127930870D01*
X166216794Y-127918583D01*
X166247567Y-127914800D01*
X166287120Y-127914800D01*
X166287120Y-128229760D01*
X166287120Y-128229760D01*
G37*
X166287120Y-128229760D02*
X166622400Y-128229760D01*
X166622400Y-128311040D01*
X166286263Y-128311040D01*
X166289231Y-128725060D01*
X166290007Y-128827902D01*
X166290791Y-128912426D01*
X166291688Y-128980633D01*
X166292805Y-129034523D01*
X166294247Y-129076098D01*
X166296122Y-129107359D01*
X166298534Y-129130307D01*
X166301590Y-129146944D01*
X166305397Y-129159270D01*
X166310060Y-129169286D01*
X166313069Y-129174605D01*
X166350675Y-129220221D01*
X166399803Y-129249465D01*
X166459566Y-129262060D01*
X166529080Y-129257726D01*
X166557826Y-129251593D01*
X166591692Y-129243565D01*
X166616571Y-129238573D01*
X166627197Y-129237670D01*
X166627234Y-129237709D01*
X166634961Y-129254017D01*
X166641518Y-129277439D01*
X166645025Y-129299375D01*
X166643598Y-129311228D01*
X166643365Y-129311401D01*
X166622889Y-129319251D01*
X166588667Y-129327854D01*
X166547175Y-129336006D01*
X166504891Y-129342499D01*
X166468294Y-129346129D01*
X166454760Y-129346502D01*
X166411884Y-129342796D01*
X166367019Y-129334232D01*
X166355266Y-129330978D01*
X166300565Y-129304091D01*
X166253839Y-129261474D01*
X166219245Y-129207353D01*
X166209534Y-129182819D01*
X166204991Y-129166908D01*
X166201219Y-129147926D01*
X166198121Y-129123800D01*
X166195601Y-129092453D01*
X166193561Y-129051811D01*
X166191906Y-128999799D01*
X166190537Y-128934342D01*
X166189358Y-128853364D01*
X166188273Y-128754792D01*
X166187937Y-128719980D01*
X166184086Y-128311040D01*
X166002640Y-128311040D01*
X166002640Y-128242540D01*
X166092944Y-128235476D01*
X166183249Y-128228412D01*
X166189464Y-128197336D01*
X166192060Y-128174276D01*
X166194124Y-128136757D01*
X166195397Y-128090634D01*
X166195680Y-128056600D01*
X166196229Y-128010036D01*
X166197716Y-127970050D01*
X166199894Y-127941629D01*
X166201847Y-127930870D01*
X166216794Y-127918583D01*
X166247567Y-127914800D01*
X166287120Y-127914800D01*
X166287120Y-128229760D01*
G36*
X164164323Y-128204861D02*
X164200738Y-128206213D01*
X164228470Y-128210006D01*
X164253335Y-128217370D01*
X164281152Y-128229438D01*
X164308438Y-128242743D01*
X164384682Y-128290708D01*
X164445486Y-128351758D01*
X164491154Y-128426269D01*
X164519116Y-128503473D01*
X164527669Y-128543562D01*
X164535022Y-128593042D01*
X164540547Y-128645370D01*
X164543616Y-128694003D01*
X164543603Y-128732399D01*
X164542317Y-128745267D01*
X164536941Y-128778400D01*
X163706480Y-128778400D01*
X163706480Y-128828129D01*
X163712312Y-128883004D01*
X163728124Y-128945876D01*
X163751382Y-129008730D01*
X163779555Y-129063549D01*
X163782106Y-129067597D01*
X163839016Y-129138561D01*
X163907566Y-129194114D01*
X163985562Y-129233730D01*
X164070809Y-129256881D01*
X164161113Y-129263040D01*
X164254281Y-129251681D01*
X164348117Y-129222277D01*
X164375554Y-129210103D01*
X164410557Y-129193693D01*
X164437790Y-129181310D01*
X164452666Y-129175025D01*
X164454033Y-129174640D01*
X164460664Y-129182594D01*
X164471382Y-129201152D01*
X164482005Y-129222353D01*
X164488353Y-129238238D01*
X164488800Y-129240836D01*
X164480234Y-129247650D01*
X164457417Y-129260362D01*
X164424670Y-129276625D01*
X164411928Y-129282599D01*
X164309876Y-129320035D01*
X164203571Y-129341045D01*
X164097779Y-129344986D01*
X164018509Y-129335762D01*
X163925294Y-129307962D01*
X163840899Y-129262983D01*
X163766866Y-129202617D01*
X163704733Y-129128654D01*
X163656042Y-129042887D01*
X163622333Y-128947107D01*
X163606319Y-128856299D01*
X163603083Y-128740323D01*
X163607142Y-128707280D01*
X163704218Y-128707280D01*
X164460687Y-128707280D01*
X164453346Y-128638700D01*
X164435697Y-128541024D01*
X164405458Y-128458170D01*
X164363006Y-128390649D01*
X164308718Y-128338970D01*
X164242972Y-128303643D01*
X164195798Y-128290005D01*
X164108786Y-128281469D01*
X164026064Y-128291828D01*
X163949222Y-128319838D01*
X163879854Y-128364254D01*
X163819550Y-128423831D01*
X163769903Y-128497325D01*
X163732503Y-128583490D01*
X163710922Y-128669180D01*
X163704218Y-128707280D01*
X163607142Y-128707280D01*
X163616539Y-128630784D01*
X163646006Y-128529495D01*
X163690804Y-128438267D01*
X163750253Y-128358913D01*
X163815448Y-128299352D01*
X163871954Y-128260182D01*
X163924747Y-128233050D01*
X163979835Y-128216047D01*
X164043227Y-128207268D01*
X164113406Y-128204818D01*
X164164323Y-128204861D01*
X164164323Y-128204861D01*
G37*
X164164323Y-128204861D02*
X164200738Y-128206213D01*
X164228470Y-128210006D01*
X164253335Y-128217370D01*
X164281152Y-128229438D01*
X164308438Y-128242743D01*
X164384682Y-128290708D01*
X164445486Y-128351758D01*
X164491154Y-128426269D01*
X164519116Y-128503473D01*
X164527669Y-128543562D01*
X164535022Y-128593042D01*
X164540547Y-128645370D01*
X164543616Y-128694003D01*
X164543603Y-128732399D01*
X164542317Y-128745267D01*
X164536941Y-128778400D01*
X163706480Y-128778400D01*
X163706480Y-128828129D01*
X163712312Y-128883004D01*
X163728124Y-128945876D01*
X163751382Y-129008730D01*
X163779555Y-129063549D01*
X163782106Y-129067597D01*
X163839016Y-129138561D01*
X163907566Y-129194114D01*
X163985562Y-129233730D01*
X164070809Y-129256881D01*
X164161113Y-129263040D01*
X164254281Y-129251681D01*
X164348117Y-129222277D01*
X164375554Y-129210103D01*
X164410557Y-129193693D01*
X164437790Y-129181310D01*
X164452666Y-129175025D01*
X164454033Y-129174640D01*
X164460664Y-129182594D01*
X164471382Y-129201152D01*
X164482005Y-129222353D01*
X164488353Y-129238238D01*
X164488800Y-129240836D01*
X164480234Y-129247650D01*
X164457417Y-129260362D01*
X164424670Y-129276625D01*
X164411928Y-129282599D01*
X164309876Y-129320035D01*
X164203571Y-129341045D01*
X164097779Y-129344986D01*
X164018509Y-129335762D01*
X163925294Y-129307962D01*
X163840899Y-129262983D01*
X163766866Y-129202617D01*
X163704733Y-129128654D01*
X163656042Y-129042887D01*
X163622333Y-128947107D01*
X163606319Y-128856299D01*
X163603083Y-128740323D01*
X163607142Y-128707280D01*
X163704218Y-128707280D01*
X164460687Y-128707280D01*
X164453346Y-128638700D01*
X164435697Y-128541024D01*
X164405458Y-128458170D01*
X164363006Y-128390649D01*
X164308718Y-128338970D01*
X164242972Y-128303643D01*
X164195798Y-128290005D01*
X164108786Y-128281469D01*
X164026064Y-128291828D01*
X163949222Y-128319838D01*
X163879854Y-128364254D01*
X163819550Y-128423831D01*
X163769903Y-128497325D01*
X163732503Y-128583490D01*
X163710922Y-128669180D01*
X163704218Y-128707280D01*
X163607142Y-128707280D01*
X163616539Y-128630784D01*
X163646006Y-128529495D01*
X163690804Y-128438267D01*
X163750253Y-128358913D01*
X163815448Y-128299352D01*
X163871954Y-128260182D01*
X163924747Y-128233050D01*
X163979835Y-128216047D01*
X164043227Y-128207268D01*
X164113406Y-128204818D01*
X164164323Y-128204861D01*
G36*
X159502442Y-128401419D02*
X159503025Y-128536734D01*
X159503595Y-128653196D01*
X159504197Y-128752271D01*
X159504876Y-128835427D01*
X159505679Y-128904129D01*
X159506652Y-128959846D01*
X159507840Y-129004043D01*
X159509289Y-129038188D01*
X159511046Y-129063746D01*
X159513155Y-129082186D01*
X159515663Y-129094973D01*
X159518616Y-129103574D01*
X159522059Y-129109456D01*
X159524674Y-129112619D01*
X159553128Y-129130323D01*
X159576258Y-129134000D01*
X159593659Y-129134940D01*
X159604374Y-129140760D01*
X159611432Y-129155961D01*
X159617862Y-129185043D01*
X159620634Y-129199923D01*
X159627974Y-129239371D01*
X159634723Y-129275000D01*
X159638687Y-129295375D01*
X159640935Y-129312786D01*
X159635815Y-129323025D01*
X159618899Y-129329974D01*
X159592236Y-129336131D01*
X159507300Y-129346375D01*
X159428551Y-129338715D01*
X159388480Y-129327488D01*
X159331534Y-129299036D01*
X159299413Y-129270055D01*
X159287677Y-129256403D01*
X159277489Y-129243372D01*
X159268738Y-129229496D01*
X159261316Y-129213308D01*
X159255113Y-129193342D01*
X159250021Y-129168131D01*
X159245928Y-129136209D01*
X159242727Y-129096109D01*
X159240307Y-129046366D01*
X159238560Y-128985512D01*
X159237375Y-128912081D01*
X159236644Y-128824607D01*
X159236258Y-128721623D01*
X159236106Y-128601664D01*
X159236079Y-128463262D01*
X159236080Y-128420955D01*
X159236080Y-127711600D01*
X159499564Y-127711600D01*
X159502442Y-128401419D01*
X159502442Y-128401419D01*
G37*
X159502442Y-128401419D02*
X159503025Y-128536734D01*
X159503595Y-128653196D01*
X159504197Y-128752271D01*
X159504876Y-128835427D01*
X159505679Y-128904129D01*
X159506652Y-128959846D01*
X159507840Y-129004043D01*
X159509289Y-129038188D01*
X159511046Y-129063746D01*
X159513155Y-129082186D01*
X159515663Y-129094973D01*
X159518616Y-129103574D01*
X159522059Y-129109456D01*
X159524674Y-129112619D01*
X159553128Y-129130323D01*
X159576258Y-129134000D01*
X159593659Y-129134940D01*
X159604374Y-129140760D01*
X159611432Y-129155961D01*
X159617862Y-129185043D01*
X159620634Y-129199923D01*
X159627974Y-129239371D01*
X159634723Y-129275000D01*
X159638687Y-129295375D01*
X159640935Y-129312786D01*
X159635815Y-129323025D01*
X159618899Y-129329974D01*
X159592236Y-129336131D01*
X159507300Y-129346375D01*
X159428551Y-129338715D01*
X159388480Y-129327488D01*
X159331534Y-129299036D01*
X159299413Y-129270055D01*
X159287677Y-129256403D01*
X159277489Y-129243372D01*
X159268738Y-129229496D01*
X159261316Y-129213308D01*
X159255113Y-129193342D01*
X159250021Y-129168131D01*
X159245928Y-129136209D01*
X159242727Y-129096109D01*
X159240307Y-129046366D01*
X159238560Y-128985512D01*
X159237375Y-128912081D01*
X159236644Y-128824607D01*
X159236258Y-128721623D01*
X159236106Y-128601664D01*
X159236079Y-128463262D01*
X159236080Y-128420955D01*
X159236080Y-127711600D01*
X159499564Y-127711600D01*
X159502442Y-128401419D01*
G36*
X158415589Y-128183299D02*
X158443614Y-128185251D01*
X158488280Y-128187438D01*
X158545910Y-128189722D01*
X158612828Y-128191967D01*
X158685357Y-128194034D01*
X158735700Y-128195262D01*
X158992240Y-128201073D01*
X158992240Y-128392320D01*
X158884713Y-128392320D01*
X158841231Y-128392985D01*
X158806936Y-128394786D01*
X158785811Y-128397430D01*
X158781060Y-128399940D01*
X158806083Y-128449912D01*
X158823023Y-128487166D01*
X158833269Y-128516960D01*
X158838214Y-128544553D01*
X158839248Y-128575202D01*
X158837761Y-128614165D01*
X158837755Y-128614284D01*
X158828435Y-128689904D01*
X158807554Y-128752436D01*
X158772929Y-128806820D01*
X158735079Y-128846666D01*
X158675062Y-128893383D01*
X158608702Y-128926846D01*
X158548455Y-128946088D01*
X158494966Y-128955696D01*
X158432529Y-128960297D01*
X158368798Y-128959865D01*
X158311428Y-128954372D01*
X158277627Y-128947050D01*
X158248862Y-128939102D01*
X158231757Y-128938721D01*
X158218546Y-128947528D01*
X158205753Y-128962046D01*
X158179891Y-129004729D01*
X158172997Y-129046510D01*
X158184595Y-129084580D01*
X158214207Y-129116128D01*
X158233906Y-129127755D01*
X158249131Y-129134016D01*
X158268091Y-129139031D01*
X158293530Y-129143060D01*
X158328197Y-129146362D01*
X158374837Y-129149196D01*
X158436198Y-129151822D01*
X158515026Y-129154498D01*
X158518386Y-129154603D01*
X158593804Y-129157436D01*
X158662483Y-129160911D01*
X158721344Y-129164813D01*
X158767309Y-129168926D01*
X158797301Y-129173033D01*
X158804280Y-129174669D01*
X158879010Y-129204809D01*
X158936085Y-129244676D01*
X158976024Y-129294908D01*
X158999346Y-129356147D01*
X159006581Y-129423922D01*
X158997348Y-129500652D01*
X158969299Y-129570782D01*
X158923026Y-129633727D01*
X158859121Y-129688905D01*
X158778177Y-129735732D01*
X158680785Y-129773623D01*
X158639646Y-129785542D01*
X158585252Y-129796373D01*
X158517312Y-129804488D01*
X158441665Y-129809695D01*
X158364152Y-129811806D01*
X158290613Y-129810629D01*
X158226887Y-129805974D01*
X158189600Y-129800203D01*
X158093831Y-129773486D01*
X158015929Y-129737470D01*
X157955976Y-129692218D01*
X157914052Y-129637789D01*
X157890238Y-129574247D01*
X157889863Y-129572482D01*
X157887203Y-129511694D01*
X157893735Y-129486671D01*
X158118480Y-129486671D01*
X158127914Y-129533511D01*
X158155989Y-129572768D01*
X158202363Y-129604112D01*
X158262199Y-129626028D01*
X158311020Y-129634990D01*
X158371467Y-129639985D01*
X158436580Y-129641018D01*
X158499401Y-129638090D01*
X158552968Y-129631205D01*
X158575394Y-129625903D01*
X158638541Y-129601183D01*
X158688616Y-129569482D01*
X158724322Y-129532789D01*
X158744367Y-129493093D01*
X158747456Y-129452384D01*
X158732294Y-129412651D01*
X158722642Y-129399588D01*
X158706938Y-129384345D01*
X158686733Y-129372275D01*
X158659550Y-129362957D01*
X158622910Y-129355968D01*
X158574337Y-129350887D01*
X158511352Y-129347293D01*
X158431480Y-129344764D01*
X158395919Y-129343990D01*
X158200919Y-129340116D01*
X158171078Y-129371678D01*
X158140430Y-129408790D01*
X158124010Y-129442702D01*
X158118554Y-129480551D01*
X158118480Y-129486671D01*
X157893735Y-129486671D01*
X157903168Y-129450544D01*
X157936346Y-129392034D01*
X157985321Y-129339167D01*
X158008402Y-129320725D01*
X158059388Y-129283297D01*
X158027692Y-129258492D01*
X157988063Y-129215070D01*
X157962393Y-129159695D01*
X157952728Y-129096877D01*
X157952702Y-129093360D01*
X157961495Y-129029386D01*
X157988515Y-128971944D01*
X158034719Y-128919019D01*
X158036464Y-128917433D01*
X158059286Y-128895957D01*
X158074313Y-128880173D01*
X158077840Y-128874920D01*
X158070935Y-128865825D01*
X158053186Y-128847926D01*
X158037298Y-128833160D01*
X157988259Y-128775749D01*
X157953354Y-128707233D01*
X157933071Y-128631566D01*
X157929103Y-128571050D01*
X158181064Y-128571050D01*
X158185369Y-128632156D01*
X158190265Y-128653776D01*
X158210795Y-128698567D01*
X158244122Y-128741615D01*
X158284444Y-128776644D01*
X158321784Y-128796082D01*
X158372201Y-128804289D01*
X158428401Y-128799866D01*
X158481119Y-128783835D01*
X158494646Y-128777040D01*
X158540854Y-128740127D01*
X158574655Y-128690892D01*
X158595402Y-128633584D01*
X158602446Y-128572454D01*
X158595140Y-128511752D01*
X158572836Y-128455726D01*
X158548706Y-128422396D01*
X158501467Y-128383495D01*
X158447055Y-128360332D01*
X158389314Y-128352512D01*
X158332088Y-128359642D01*
X158279220Y-128381329D01*
X158234554Y-128417178D01*
X158206446Y-128457443D01*
X158188333Y-128509861D01*
X158181064Y-128571050D01*
X157929103Y-128571050D01*
X157927899Y-128552698D01*
X157938325Y-128474581D01*
X157964838Y-128401167D01*
X157980514Y-128373275D01*
X158030032Y-128312904D01*
X158094621Y-128261993D01*
X158170614Y-128222143D01*
X158254344Y-128194957D01*
X158342144Y-128182034D01*
X158415589Y-128183299D01*
X158415589Y-128183299D01*
G37*
X158415589Y-128183299D02*
X158443614Y-128185251D01*
X158488280Y-128187438D01*
X158545910Y-128189722D01*
X158612828Y-128191967D01*
X158685357Y-128194034D01*
X158735700Y-128195262D01*
X158992240Y-128201073D01*
X158992240Y-128392320D01*
X158884713Y-128392320D01*
X158841231Y-128392985D01*
X158806936Y-128394786D01*
X158785811Y-128397430D01*
X158781060Y-128399940D01*
X158806083Y-128449912D01*
X158823023Y-128487166D01*
X158833269Y-128516960D01*
X158838214Y-128544553D01*
X158839248Y-128575202D01*
X158837761Y-128614165D01*
X158837755Y-128614284D01*
X158828435Y-128689904D01*
X158807554Y-128752436D01*
X158772929Y-128806820D01*
X158735079Y-128846666D01*
X158675062Y-128893383D01*
X158608702Y-128926846D01*
X158548455Y-128946088D01*
X158494966Y-128955696D01*
X158432529Y-128960297D01*
X158368798Y-128959865D01*
X158311428Y-128954372D01*
X158277627Y-128947050D01*
X158248862Y-128939102D01*
X158231757Y-128938721D01*
X158218546Y-128947528D01*
X158205753Y-128962046D01*
X158179891Y-129004729D01*
X158172997Y-129046510D01*
X158184595Y-129084580D01*
X158214207Y-129116128D01*
X158233906Y-129127755D01*
X158249131Y-129134016D01*
X158268091Y-129139031D01*
X158293530Y-129143060D01*
X158328197Y-129146362D01*
X158374837Y-129149196D01*
X158436198Y-129151822D01*
X158515026Y-129154498D01*
X158518386Y-129154603D01*
X158593804Y-129157436D01*
X158662483Y-129160911D01*
X158721344Y-129164813D01*
X158767309Y-129168926D01*
X158797301Y-129173033D01*
X158804280Y-129174669D01*
X158879010Y-129204809D01*
X158936085Y-129244676D01*
X158976024Y-129294908D01*
X158999346Y-129356147D01*
X159006581Y-129423922D01*
X158997348Y-129500652D01*
X158969299Y-129570782D01*
X158923026Y-129633727D01*
X158859121Y-129688905D01*
X158778177Y-129735732D01*
X158680785Y-129773623D01*
X158639646Y-129785542D01*
X158585252Y-129796373D01*
X158517312Y-129804488D01*
X158441665Y-129809695D01*
X158364152Y-129811806D01*
X158290613Y-129810629D01*
X158226887Y-129805974D01*
X158189600Y-129800203D01*
X158093831Y-129773486D01*
X158015929Y-129737470D01*
X157955976Y-129692218D01*
X157914052Y-129637789D01*
X157890238Y-129574247D01*
X157889863Y-129572482D01*
X157887203Y-129511694D01*
X157893735Y-129486671D01*
X158118480Y-129486671D01*
X158127914Y-129533511D01*
X158155989Y-129572768D01*
X158202363Y-129604112D01*
X158262199Y-129626028D01*
X158311020Y-129634990D01*
X158371467Y-129639985D01*
X158436580Y-129641018D01*
X158499401Y-129638090D01*
X158552968Y-129631205D01*
X158575394Y-129625903D01*
X158638541Y-129601183D01*
X158688616Y-129569482D01*
X158724322Y-129532789D01*
X158744367Y-129493093D01*
X158747456Y-129452384D01*
X158732294Y-129412651D01*
X158722642Y-129399588D01*
X158706938Y-129384345D01*
X158686733Y-129372275D01*
X158659550Y-129362957D01*
X158622910Y-129355968D01*
X158574337Y-129350887D01*
X158511352Y-129347293D01*
X158431480Y-129344764D01*
X158395919Y-129343990D01*
X158200919Y-129340116D01*
X158171078Y-129371678D01*
X158140430Y-129408790D01*
X158124010Y-129442702D01*
X158118554Y-129480551D01*
X158118480Y-129486671D01*
X157893735Y-129486671D01*
X157903168Y-129450544D01*
X157936346Y-129392034D01*
X157985321Y-129339167D01*
X158008402Y-129320725D01*
X158059388Y-129283297D01*
X158027692Y-129258492D01*
X157988063Y-129215070D01*
X157962393Y-129159695D01*
X157952728Y-129096877D01*
X157952702Y-129093360D01*
X157961495Y-129029386D01*
X157988515Y-128971944D01*
X158034719Y-128919019D01*
X158036464Y-128917433D01*
X158059286Y-128895957D01*
X158074313Y-128880173D01*
X158077840Y-128874920D01*
X158070935Y-128865825D01*
X158053186Y-128847926D01*
X158037298Y-128833160D01*
X157988259Y-128775749D01*
X157953354Y-128707233D01*
X157933071Y-128631566D01*
X157929103Y-128571050D01*
X158181064Y-128571050D01*
X158185369Y-128632156D01*
X158190265Y-128653776D01*
X158210795Y-128698567D01*
X158244122Y-128741615D01*
X158284444Y-128776644D01*
X158321784Y-128796082D01*
X158372201Y-128804289D01*
X158428401Y-128799866D01*
X158481119Y-128783835D01*
X158494646Y-128777040D01*
X158540854Y-128740127D01*
X158574655Y-128690892D01*
X158595402Y-128633584D01*
X158602446Y-128572454D01*
X158595140Y-128511752D01*
X158572836Y-128455726D01*
X158548706Y-128422396D01*
X158501467Y-128383495D01*
X158447055Y-128360332D01*
X158389314Y-128352512D01*
X158332088Y-128359642D01*
X158279220Y-128381329D01*
X158234554Y-128417178D01*
X158206446Y-128457443D01*
X158188333Y-128509861D01*
X158181064Y-128571050D01*
X157929103Y-128571050D01*
X157927899Y-128552698D01*
X157938325Y-128474581D01*
X157964838Y-128401167D01*
X157980514Y-128373275D01*
X158030032Y-128312904D01*
X158094621Y-128261993D01*
X158170614Y-128222143D01*
X158254344Y-128194957D01*
X158342144Y-128182034D01*
X158415589Y-128183299D01*
G36*
X158269252Y-130538298D02*
X158299172Y-130559659D01*
X158314038Y-130594282D01*
X158315584Y-130613370D01*
X158306918Y-130650491D01*
X158284101Y-130678248D01*
X158251898Y-130694694D01*
X158215077Y-130697881D01*
X158178404Y-130685860D01*
X158163750Y-130675430D01*
X158143630Y-130651107D01*
X158136896Y-130620053D01*
X158136768Y-130613228D01*
X158144241Y-130572462D01*
X158166624Y-130545494D01*
X158203863Y-130532373D01*
X158225160Y-130531000D01*
X158269252Y-130538298D01*
X158269252Y-130538298D01*
G37*
X158269252Y-130538298D02*
X158299172Y-130559659D01*
X158314038Y-130594282D01*
X158315584Y-130613370D01*
X158306918Y-130650491D01*
X158284101Y-130678248D01*
X158251898Y-130694694D01*
X158215077Y-130697881D01*
X158178404Y-130685860D01*
X158163750Y-130675430D01*
X158143630Y-130651107D01*
X158136896Y-130620053D01*
X158136768Y-130613228D01*
X158144241Y-130572462D01*
X158166624Y-130545494D01*
X158203863Y-130532373D01*
X158225160Y-130531000D01*
X158269252Y-130538298D01*
G36*
X150515413Y-131331946D02*
X150516629Y-131344004D01*
X150515413Y-131345493D01*
X150509373Y-131344098D01*
X150508640Y-131338720D01*
X150512357Y-131330357D01*
X150515413Y-131331946D01*
X150515413Y-131331946D01*
G37*
X150515413Y-131331946D02*
X150516629Y-131344004D01*
X150515413Y-131345493D01*
X150509373Y-131344098D01*
X150508640Y-131338720D01*
X150512357Y-131330357D01*
X150515413Y-131331946D01*
G36*
X166588866Y-130952247D02*
X166663354Y-130970275D01*
X166721946Y-130996835D01*
X166768109Y-131034309D01*
X166805314Y-131085082D01*
X166818698Y-131110120D01*
X166830107Y-131134635D01*
X166839544Y-131159065D01*
X166847194Y-131185563D01*
X166853240Y-131216284D01*
X166857869Y-131253382D01*
X166861265Y-131299011D01*
X166863612Y-131355324D01*
X166865096Y-131424477D01*
X166865901Y-131508623D01*
X166866211Y-131609916D01*
X166866240Y-131664340D01*
X166866240Y-132060080D01*
X166764640Y-132060080D01*
X166764640Y-131671054D01*
X166764469Y-131560097D01*
X166763811Y-131467385D01*
X166762443Y-131390844D01*
X166760145Y-131328403D01*
X166756694Y-131277988D01*
X166751871Y-131237526D01*
X166745454Y-131204944D01*
X166737222Y-131178168D01*
X166726953Y-131155126D01*
X166714426Y-131133744D01*
X166705967Y-131121184D01*
X166674338Y-131084469D01*
X166636999Y-131059708D01*
X166589862Y-131045224D01*
X166528838Y-131039340D01*
X166505560Y-131039000D01*
X166459907Y-131039618D01*
X166427366Y-131042541D01*
X166400741Y-131049371D01*
X166372836Y-131061710D01*
X166350439Y-131073531D01*
X166311247Y-131097894D01*
X166266677Y-131130270D01*
X166225585Y-131164174D01*
X166220899Y-131168411D01*
X166155040Y-131228760D01*
X166155040Y-132060080D01*
X166055229Y-132060080D01*
X166051013Y-131656220D01*
X166049792Y-131547851D01*
X166048432Y-131457687D01*
X166046687Y-131383613D01*
X166044312Y-131323513D01*
X166041061Y-131275271D01*
X166036689Y-131236774D01*
X166030949Y-131205905D01*
X166023597Y-131180549D01*
X166014386Y-131158592D01*
X166003070Y-131137917D01*
X165989405Y-131116411D01*
X165988086Y-131114414D01*
X165952707Y-131073910D01*
X165907844Y-131047074D01*
X165850579Y-131032622D01*
X165794211Y-131029115D01*
X165749001Y-131030049D01*
X165715079Y-131034533D01*
X165683472Y-131044549D01*
X165645523Y-131061919D01*
X165603950Y-131086172D01*
X165556800Y-131119558D01*
X165512230Y-131156231D01*
X165505972Y-131161930D01*
X165433680Y-131228862D01*
X165433680Y-132049920D01*
X165332080Y-132049920D01*
X165332080Y-130972960D01*
X165371450Y-130972960D01*
X165397515Y-130974632D01*
X165410288Y-130982869D01*
X165416720Y-131002497D01*
X165417170Y-131004710D01*
X165421142Y-131035155D01*
X165423355Y-131072671D01*
X165423520Y-131084296D01*
X165424780Y-131113916D01*
X165427975Y-131134262D01*
X165429953Y-131138566D01*
X165439769Y-131135109D01*
X165460486Y-131120375D01*
X165488344Y-131097157D01*
X165500959Y-131085830D01*
X165580460Y-131023722D01*
X165663076Y-130979614D01*
X165747118Y-130954120D01*
X165830899Y-130947849D01*
X165870770Y-130951887D01*
X165949401Y-130972130D01*
X166013580Y-131005864D01*
X166065094Y-131054368D01*
X166105732Y-131118919D01*
X166106404Y-131120295D01*
X166127527Y-131163774D01*
X166208036Y-131094204D01*
X166291785Y-131029403D01*
X166371606Y-130983628D01*
X166448995Y-130956319D01*
X166525450Y-130946919D01*
X166588866Y-130952247D01*
X166588866Y-130952247D01*
G37*
X166588866Y-130952247D02*
X166663354Y-130970275D01*
X166721946Y-130996835D01*
X166768109Y-131034309D01*
X166805314Y-131085082D01*
X166818698Y-131110120D01*
X166830107Y-131134635D01*
X166839544Y-131159065D01*
X166847194Y-131185563D01*
X166853240Y-131216284D01*
X166857869Y-131253382D01*
X166861265Y-131299011D01*
X166863612Y-131355324D01*
X166865096Y-131424477D01*
X166865901Y-131508623D01*
X166866211Y-131609916D01*
X166866240Y-131664340D01*
X166866240Y-132060080D01*
X166764640Y-132060080D01*
X166764640Y-131671054D01*
X166764469Y-131560097D01*
X166763811Y-131467385D01*
X166762443Y-131390844D01*
X166760145Y-131328403D01*
X166756694Y-131277988D01*
X166751871Y-131237526D01*
X166745454Y-131204944D01*
X166737222Y-131178168D01*
X166726953Y-131155126D01*
X166714426Y-131133744D01*
X166705967Y-131121184D01*
X166674338Y-131084469D01*
X166636999Y-131059708D01*
X166589862Y-131045224D01*
X166528838Y-131039340D01*
X166505560Y-131039000D01*
X166459907Y-131039618D01*
X166427366Y-131042541D01*
X166400741Y-131049371D01*
X166372836Y-131061710D01*
X166350439Y-131073531D01*
X166311247Y-131097894D01*
X166266677Y-131130270D01*
X166225585Y-131164174D01*
X166220899Y-131168411D01*
X166155040Y-131228760D01*
X166155040Y-132060080D01*
X166055229Y-132060080D01*
X166051013Y-131656220D01*
X166049792Y-131547851D01*
X166048432Y-131457687D01*
X166046687Y-131383613D01*
X166044312Y-131323513D01*
X166041061Y-131275271D01*
X166036689Y-131236774D01*
X166030949Y-131205905D01*
X166023597Y-131180549D01*
X166014386Y-131158592D01*
X166003070Y-131137917D01*
X165989405Y-131116411D01*
X165988086Y-131114414D01*
X165952707Y-131073910D01*
X165907844Y-131047074D01*
X165850579Y-131032622D01*
X165794211Y-131029115D01*
X165749001Y-131030049D01*
X165715079Y-131034533D01*
X165683472Y-131044549D01*
X165645523Y-131061919D01*
X165603950Y-131086172D01*
X165556800Y-131119558D01*
X165512230Y-131156231D01*
X165505972Y-131161930D01*
X165433680Y-131228862D01*
X165433680Y-132049920D01*
X165332080Y-132049920D01*
X165332080Y-130972960D01*
X165371450Y-130972960D01*
X165397515Y-130974632D01*
X165410288Y-130982869D01*
X165416720Y-131002497D01*
X165417170Y-131004710D01*
X165421142Y-131035155D01*
X165423355Y-131072671D01*
X165423520Y-131084296D01*
X165424780Y-131113916D01*
X165427975Y-131134262D01*
X165429953Y-131138566D01*
X165439769Y-131135109D01*
X165460486Y-131120375D01*
X165488344Y-131097157D01*
X165500959Y-131085830D01*
X165580460Y-131023722D01*
X165663076Y-130979614D01*
X165747118Y-130954120D01*
X165830899Y-130947849D01*
X165870770Y-130951887D01*
X165949401Y-130972130D01*
X166013580Y-131005864D01*
X166065094Y-131054368D01*
X166105732Y-131118919D01*
X166106404Y-131120295D01*
X166127527Y-131163774D01*
X166208036Y-131094204D01*
X166291785Y-131029403D01*
X166371606Y-130983628D01*
X166448995Y-130956319D01*
X166525450Y-130946919D01*
X166588866Y-130952247D01*
G36*
X162660000Y-130647840D02*
X162152000Y-130647840D01*
X162152000Y-132060080D01*
X162040240Y-132060080D01*
X162040240Y-130647840D01*
X161532240Y-130647840D01*
X161532240Y-130566560D01*
X162660000Y-130566560D01*
X162660000Y-130647840D01*
X162660000Y-130647840D01*
G37*
X162660000Y-130647840D02*
X162152000Y-130647840D01*
X162152000Y-132060080D01*
X162040240Y-132060080D01*
X162040240Y-130647840D01*
X161532240Y-130647840D01*
X161532240Y-130566560D01*
X162660000Y-130566560D01*
X162660000Y-130647840D01*
G36*
X159306349Y-130952630D02*
X159364716Y-130965084D01*
X159409444Y-130980923D01*
X159447211Y-131003078D01*
X159477356Y-131027732D01*
X159521084Y-131080582D01*
X159553974Y-131149959D01*
X159575647Y-131234971D01*
X159581097Y-131273193D01*
X159583619Y-131305552D01*
X159585926Y-131355023D01*
X159587942Y-131418401D01*
X159589589Y-131492478D01*
X159590791Y-131574048D01*
X159591471Y-131659904D01*
X159591596Y-131712100D01*
X159591680Y-132060080D01*
X159490080Y-132060080D01*
X159489996Y-131722260D01*
X159489641Y-131601745D01*
X159488471Y-131499622D01*
X159486233Y-131413972D01*
X159482677Y-131342875D01*
X159477548Y-131284410D01*
X159470596Y-131236657D01*
X159461567Y-131197697D01*
X159450210Y-131165610D01*
X159436271Y-131138475D01*
X159419500Y-131114373D01*
X159408348Y-131100997D01*
X159371540Y-131068029D01*
X159327666Y-131046983D01*
X159273002Y-131036713D01*
X159203823Y-131036074D01*
X159198300Y-131036362D01*
X159125954Y-131045310D01*
X159060485Y-131064922D01*
X158997808Y-131097218D01*
X158933843Y-131144216D01*
X158877940Y-131194781D01*
X158829680Y-131241436D01*
X158829680Y-132060080D01*
X158728080Y-132060080D01*
X158728080Y-130971791D01*
X158771260Y-130974915D01*
X158814440Y-130978040D01*
X158817055Y-131039000D01*
X158819411Y-131076495D01*
X158822732Y-131109002D01*
X158825233Y-131124272D01*
X158830796Y-131148584D01*
X158863258Y-131118424D01*
X158950186Y-131047974D01*
X159039255Y-130995688D01*
X159129175Y-130962049D01*
X159218655Y-130947538D01*
X159306349Y-130952630D01*
X159306349Y-130952630D01*
G37*
X159306349Y-130952630D02*
X159364716Y-130965084D01*
X159409444Y-130980923D01*
X159447211Y-131003078D01*
X159477356Y-131027732D01*
X159521084Y-131080582D01*
X159553974Y-131149959D01*
X159575647Y-131234971D01*
X159581097Y-131273193D01*
X159583619Y-131305552D01*
X159585926Y-131355023D01*
X159587942Y-131418401D01*
X159589589Y-131492478D01*
X159590791Y-131574048D01*
X159591471Y-131659904D01*
X159591596Y-131712100D01*
X159591680Y-132060080D01*
X159490080Y-132060080D01*
X159489996Y-131722260D01*
X159489641Y-131601745D01*
X159488471Y-131499622D01*
X159486233Y-131413972D01*
X159482677Y-131342875D01*
X159477548Y-131284410D01*
X159470596Y-131236657D01*
X159461567Y-131197697D01*
X159450210Y-131165610D01*
X159436271Y-131138475D01*
X159419500Y-131114373D01*
X159408348Y-131100997D01*
X159371540Y-131068029D01*
X159327666Y-131046983D01*
X159273002Y-131036713D01*
X159203823Y-131036074D01*
X159198300Y-131036362D01*
X159125954Y-131045310D01*
X159060485Y-131064922D01*
X158997808Y-131097218D01*
X158933843Y-131144216D01*
X158877940Y-131194781D01*
X158829680Y-131241436D01*
X158829680Y-132060080D01*
X158728080Y-132060080D01*
X158728080Y-130971791D01*
X158771260Y-130974915D01*
X158814440Y-130978040D01*
X158817055Y-131039000D01*
X158819411Y-131076495D01*
X158822732Y-131109002D01*
X158825233Y-131124272D01*
X158830796Y-131148584D01*
X158863258Y-131118424D01*
X158950186Y-131047974D01*
X159039255Y-130995688D01*
X159129175Y-130962049D01*
X159218655Y-130947538D01*
X159306349Y-130952630D01*
G36*
X158270880Y-132060080D02*
X158169280Y-132060080D01*
X158169280Y-130972960D01*
X158270880Y-130972960D01*
X158270880Y-132060080D01*
X158270880Y-132060080D01*
G37*
X158270880Y-132060080D02*
X158169280Y-132060080D01*
X158169280Y-130972960D01*
X158270880Y-130972960D01*
X158270880Y-132060080D01*
G36*
X154879980Y-130559202D02*
X154980103Y-130561103D01*
X155062531Y-130563478D01*
X155129885Y-130566669D01*
X155184789Y-130571016D01*
X155229866Y-130576861D01*
X155267738Y-130584546D01*
X155301030Y-130594412D01*
X155332363Y-130606802D01*
X155364362Y-130622056D01*
X155364939Y-130622348D01*
X155433409Y-130665633D01*
X155485362Y-130718639D01*
X155522297Y-130783496D01*
X155545710Y-130862333D01*
X155549727Y-130885123D01*
X155555428Y-130978968D01*
X155542559Y-131065789D01*
X155511418Y-131144642D01*
X155462305Y-131214583D01*
X155436929Y-131240571D01*
X155363835Y-131295276D01*
X155279112Y-131334422D01*
X155211960Y-131352248D01*
X155175042Y-131361179D01*
X155157615Y-131370370D01*
X155156305Y-131376552D01*
X155162660Y-131387753D01*
X155178663Y-131414183D01*
X155203104Y-131453893D01*
X155234774Y-131504934D01*
X155272464Y-131565359D01*
X155314964Y-131633219D01*
X155361065Y-131706567D01*
X155369847Y-131720512D01*
X155416229Y-131794239D01*
X155459027Y-131862473D01*
X155497069Y-131923331D01*
X155529185Y-131974929D01*
X155554203Y-132015383D01*
X155570950Y-132042810D01*
X155578255Y-132055326D01*
X155578480Y-132055879D01*
X155569267Y-132058107D01*
X155545408Y-132059556D01*
X155520060Y-132059894D01*
X155461640Y-132059709D01*
X155244313Y-131714454D01*
X155026987Y-131369200D01*
X154684400Y-131369200D01*
X154684400Y-132060080D01*
X154572640Y-132060080D01*
X154572640Y-131277242D01*
X154684111Y-131277242D01*
X154844275Y-131280976D01*
X154938000Y-131282696D01*
X155014321Y-131282918D01*
X155076114Y-131281461D01*
X155126252Y-131278144D01*
X155167608Y-131272787D01*
X155203058Y-131265210D01*
X155231277Y-131256689D01*
X155304263Y-131223755D01*
X155361705Y-131179407D01*
X155406025Y-131121725D01*
X155409800Y-131115200D01*
X155424395Y-131087859D01*
X155433627Y-131064478D01*
X155438714Y-131038978D01*
X155440873Y-131005278D01*
X155441320Y-130957720D01*
X155440861Y-130909841D01*
X155438678Y-130876192D01*
X155433554Y-130850687D01*
X155424276Y-130827242D01*
X155409893Y-130800240D01*
X155370813Y-130749391D01*
X155317145Y-130706177D01*
X155254306Y-130674658D01*
X155233179Y-130667715D01*
X155193802Y-130659520D01*
X155138509Y-130652312D01*
X155071693Y-130646399D01*
X154997745Y-130642086D01*
X154921059Y-130639679D01*
X154846027Y-130639484D01*
X154831720Y-130639735D01*
X154689480Y-130642760D01*
X154686795Y-130960001D01*
X154684111Y-131277242D01*
X154572640Y-131277242D01*
X154572640Y-130554226D01*
X154879980Y-130559202D01*
X154879980Y-130559202D01*
G37*
X154879980Y-130559202D02*
X154980103Y-130561103D01*
X155062531Y-130563478D01*
X155129885Y-130566669D01*
X155184789Y-130571016D01*
X155229866Y-130576861D01*
X155267738Y-130584546D01*
X155301030Y-130594412D01*
X155332363Y-130606802D01*
X155364362Y-130622056D01*
X155364939Y-130622348D01*
X155433409Y-130665633D01*
X155485362Y-130718639D01*
X155522297Y-130783496D01*
X155545710Y-130862333D01*
X155549727Y-130885123D01*
X155555428Y-130978968D01*
X155542559Y-131065789D01*
X155511418Y-131144642D01*
X155462305Y-131214583D01*
X155436929Y-131240571D01*
X155363835Y-131295276D01*
X155279112Y-131334422D01*
X155211960Y-131352248D01*
X155175042Y-131361179D01*
X155157615Y-131370370D01*
X155156305Y-131376552D01*
X155162660Y-131387753D01*
X155178663Y-131414183D01*
X155203104Y-131453893D01*
X155234774Y-131504934D01*
X155272464Y-131565359D01*
X155314964Y-131633219D01*
X155361065Y-131706567D01*
X155369847Y-131720512D01*
X155416229Y-131794239D01*
X155459027Y-131862473D01*
X155497069Y-131923331D01*
X155529185Y-131974929D01*
X155554203Y-132015383D01*
X155570950Y-132042810D01*
X155578255Y-132055326D01*
X155578480Y-132055879D01*
X155569267Y-132058107D01*
X155545408Y-132059556D01*
X155520060Y-132059894D01*
X155461640Y-132059709D01*
X155244313Y-131714454D01*
X155026987Y-131369200D01*
X154684400Y-131369200D01*
X154684400Y-132060080D01*
X154572640Y-132060080D01*
X154572640Y-131277242D01*
X154684111Y-131277242D01*
X154844275Y-131280976D01*
X154938000Y-131282696D01*
X155014321Y-131282918D01*
X155076114Y-131281461D01*
X155126252Y-131278144D01*
X155167608Y-131272787D01*
X155203058Y-131265210D01*
X155231277Y-131256689D01*
X155304263Y-131223755D01*
X155361705Y-131179407D01*
X155406025Y-131121725D01*
X155409800Y-131115200D01*
X155424395Y-131087859D01*
X155433627Y-131064478D01*
X155438714Y-131038978D01*
X155440873Y-131005278D01*
X155441320Y-130957720D01*
X155440861Y-130909841D01*
X155438678Y-130876192D01*
X155433554Y-130850687D01*
X155424276Y-130827242D01*
X155409893Y-130800240D01*
X155370813Y-130749391D01*
X155317145Y-130706177D01*
X155254306Y-130674658D01*
X155233179Y-130667715D01*
X155193802Y-130659520D01*
X155138509Y-130652312D01*
X155071693Y-130646399D01*
X154997745Y-130642086D01*
X154921059Y-130639679D01*
X154846027Y-130639484D01*
X154831720Y-130639735D01*
X154689480Y-130642760D01*
X154686795Y-130960001D01*
X154684111Y-131277242D01*
X154572640Y-131277242D01*
X154572640Y-130554226D01*
X154879980Y-130559202D01*
G36*
X157652257Y-130959109D02*
X157738291Y-130991219D01*
X157817044Y-131040276D01*
X157825692Y-131047175D01*
X157852945Y-131069480D01*
X157822962Y-131102872D01*
X157792980Y-131136264D01*
X157759721Y-131110896D01*
X157732117Y-131092683D01*
X157695084Y-131071785D01*
X157665931Y-131057184D01*
X157632404Y-131042856D01*
X157602340Y-131034310D01*
X157568211Y-131030148D01*
X157522491Y-131028972D01*
X157513960Y-131028967D01*
X157466635Y-131029852D01*
X157431766Y-131033410D01*
X157401516Y-131041231D01*
X157368049Y-131054903D01*
X157354033Y-131061409D01*
X157277223Y-131108536D01*
X157212321Y-131170734D01*
X157160431Y-131245866D01*
X157122656Y-131331793D01*
X157100100Y-131426378D01*
X157093866Y-131527484D01*
X157095593Y-131562091D01*
X157111803Y-131665416D01*
X157143194Y-131757487D01*
X157189133Y-131837008D01*
X157248987Y-131902682D01*
X157270288Y-131920042D01*
X157325571Y-131955817D01*
X157382540Y-131978835D01*
X157447189Y-131990912D01*
X157513960Y-131993935D01*
X157589977Y-131989862D01*
X157654200Y-131976202D01*
X157713748Y-131950791D01*
X157768520Y-131916583D01*
X157826933Y-131875665D01*
X157850421Y-131904372D01*
X157865982Y-131924881D01*
X157874001Y-131938349D01*
X157874274Y-131939506D01*
X157866214Y-131949521D01*
X157844225Y-131965952D01*
X157812608Y-131986242D01*
X157775666Y-132007832D01*
X157737700Y-132028165D01*
X157703013Y-132044683D01*
X157685554Y-132051703D01*
X157638179Y-132063981D01*
X157578386Y-132072557D01*
X157512833Y-132077142D01*
X157448177Y-132077446D01*
X157391076Y-132073181D01*
X157354579Y-132066075D01*
X157279717Y-132038686D01*
X157214983Y-132001082D01*
X157153174Y-131948935D01*
X157142935Y-131938810D01*
X157084798Y-131870979D01*
X157041411Y-131798121D01*
X157011660Y-131717151D01*
X156994429Y-131624982D01*
X156988604Y-131518528D01*
X156988594Y-131511440D01*
X156995269Y-131403703D01*
X157015665Y-131308178D01*
X157050751Y-131221254D01*
X157080242Y-131170198D01*
X157139214Y-131096562D01*
X157210412Y-131036654D01*
X157291049Y-130990931D01*
X157378339Y-130959856D01*
X157469494Y-130943887D01*
X157561729Y-130943485D01*
X157652257Y-130959109D01*
X157652257Y-130959109D01*
G37*
X157652257Y-130959109D02*
X157738291Y-130991219D01*
X157817044Y-131040276D01*
X157825692Y-131047175D01*
X157852945Y-131069480D01*
X157822962Y-131102872D01*
X157792980Y-131136264D01*
X157759721Y-131110896D01*
X157732117Y-131092683D01*
X157695084Y-131071785D01*
X157665931Y-131057184D01*
X157632404Y-131042856D01*
X157602340Y-131034310D01*
X157568211Y-131030148D01*
X157522491Y-131028972D01*
X157513960Y-131028967D01*
X157466635Y-131029852D01*
X157431766Y-131033410D01*
X157401516Y-131041231D01*
X157368049Y-131054903D01*
X157354033Y-131061409D01*
X157277223Y-131108536D01*
X157212321Y-131170734D01*
X157160431Y-131245866D01*
X157122656Y-131331793D01*
X157100100Y-131426378D01*
X157093866Y-131527484D01*
X157095593Y-131562091D01*
X157111803Y-131665416D01*
X157143194Y-131757487D01*
X157189133Y-131837008D01*
X157248987Y-131902682D01*
X157270288Y-131920042D01*
X157325571Y-131955817D01*
X157382540Y-131978835D01*
X157447189Y-131990912D01*
X157513960Y-131993935D01*
X157589977Y-131989862D01*
X157654200Y-131976202D01*
X157713748Y-131950791D01*
X157768520Y-131916583D01*
X157826933Y-131875665D01*
X157850421Y-131904372D01*
X157865982Y-131924881D01*
X157874001Y-131938349D01*
X157874274Y-131939506D01*
X157866214Y-131949521D01*
X157844225Y-131965952D01*
X157812608Y-131986242D01*
X157775666Y-132007832D01*
X157737700Y-132028165D01*
X157703013Y-132044683D01*
X157685554Y-132051703D01*
X157638179Y-132063981D01*
X157578386Y-132072557D01*
X157512833Y-132077142D01*
X157448177Y-132077446D01*
X157391076Y-132073181D01*
X157354579Y-132066075D01*
X157279717Y-132038686D01*
X157214983Y-132001082D01*
X157153174Y-131948935D01*
X157142935Y-131938810D01*
X157084798Y-131870979D01*
X157041411Y-131798121D01*
X157011660Y-131717151D01*
X156994429Y-131624982D01*
X156988604Y-131518528D01*
X156988594Y-131511440D01*
X156995269Y-131403703D01*
X157015665Y-131308178D01*
X157050751Y-131221254D01*
X157080242Y-131170198D01*
X157139214Y-131096562D01*
X157210412Y-131036654D01*
X157291049Y-130990931D01*
X157378339Y-130959856D01*
X157469494Y-130943887D01*
X157561729Y-130943485D01*
X157652257Y-130959109D01*
G36*
X163405838Y-130944952D02*
X163490050Y-130955956D01*
X163561737Y-130979412D01*
X163625785Y-131017300D01*
X163664657Y-131049696D01*
X163720963Y-131115530D01*
X163763637Y-131195638D01*
X163792254Y-131288848D01*
X163806385Y-131393989D01*
X163807903Y-131442860D01*
X163808080Y-131521600D01*
X162974960Y-131521600D01*
X162974960Y-131565185D01*
X162981231Y-131625712D01*
X162998564Y-131693743D01*
X163024740Y-131761405D01*
X163037582Y-131787340D01*
X163087422Y-131860473D01*
X163150138Y-131919460D01*
X163223433Y-131963671D01*
X163305012Y-131992479D01*
X163392578Y-132005255D01*
X163483836Y-132001371D01*
X163576491Y-131980199D01*
X163644034Y-131953303D01*
X163679037Y-131936893D01*
X163706270Y-131924510D01*
X163721146Y-131918225D01*
X163722513Y-131917840D01*
X163729144Y-131925794D01*
X163739862Y-131944352D01*
X163750485Y-131965553D01*
X163756833Y-131981438D01*
X163757280Y-131984036D01*
X163748288Y-131992973D01*
X163724189Y-132006168D01*
X163689294Y-132021901D01*
X163647916Y-132038448D01*
X163604366Y-132054090D01*
X163562957Y-132067103D01*
X163528000Y-132075766D01*
X163527114Y-132075938D01*
X163456146Y-132085715D01*
X163384666Y-132088906D01*
X163321502Y-132085203D01*
X163310240Y-132083540D01*
X163285622Y-132077968D01*
X163251791Y-132068618D01*
X163234040Y-132063199D01*
X163138698Y-132023907D01*
X163057731Y-131970664D01*
X162990448Y-131902785D01*
X162936158Y-131819586D01*
X162897042Y-131728776D01*
X162885142Y-131692505D01*
X162877164Y-131660849D01*
X162872346Y-131628008D01*
X162869924Y-131588186D01*
X162869136Y-131535585D01*
X162869104Y-131516520D01*
X162869556Y-131458915D01*
X162869920Y-131450480D01*
X162974960Y-131450480D01*
X163716640Y-131450480D01*
X163716489Y-131402220D01*
X163708444Y-131318888D01*
X163686060Y-131239292D01*
X163651185Y-131168228D01*
X163605666Y-131110493D01*
X163603204Y-131108100D01*
X163553370Y-131069234D01*
X163497446Y-131044163D01*
X163431067Y-131031364D01*
X163376280Y-131028891D01*
X163327775Y-131029807D01*
X163292098Y-131033527D01*
X163261805Y-131041406D01*
X163229455Y-131054803D01*
X163226393Y-131056230D01*
X163159621Y-131097103D01*
X163099184Y-131152335D01*
X163047805Y-131217900D01*
X163008208Y-131289769D01*
X162983120Y-131363912D01*
X162975208Y-131427620D01*
X162974960Y-131450480D01*
X162869920Y-131450480D01*
X162871418Y-131415835D01*
X162875448Y-131381497D01*
X162882402Y-131350115D01*
X162893040Y-131315907D01*
X162896825Y-131304909D01*
X162934166Y-131216561D01*
X162980838Y-131142139D01*
X163040421Y-131076080D01*
X163049466Y-131067666D01*
X163126064Y-131009256D01*
X163208083Y-130969700D01*
X163297481Y-130948324D01*
X163396217Y-130944453D01*
X163405838Y-130944952D01*
X163405838Y-130944952D01*
G37*
X163405838Y-130944952D02*
X163490050Y-130955956D01*
X163561737Y-130979412D01*
X163625785Y-131017300D01*
X163664657Y-131049696D01*
X163720963Y-131115530D01*
X163763637Y-131195638D01*
X163792254Y-131288848D01*
X163806385Y-131393989D01*
X163807903Y-131442860D01*
X163808080Y-131521600D01*
X162974960Y-131521600D01*
X162974960Y-131565185D01*
X162981231Y-131625712D01*
X162998564Y-131693743D01*
X163024740Y-131761405D01*
X163037582Y-131787340D01*
X163087422Y-131860473D01*
X163150138Y-131919460D01*
X163223433Y-131963671D01*
X163305012Y-131992479D01*
X163392578Y-132005255D01*
X163483836Y-132001371D01*
X163576491Y-131980199D01*
X163644034Y-131953303D01*
X163679037Y-131936893D01*
X163706270Y-131924510D01*
X163721146Y-131918225D01*
X163722513Y-131917840D01*
X163729144Y-131925794D01*
X163739862Y-131944352D01*
X163750485Y-131965553D01*
X163756833Y-131981438D01*
X163757280Y-131984036D01*
X163748288Y-131992973D01*
X163724189Y-132006168D01*
X163689294Y-132021901D01*
X163647916Y-132038448D01*
X163604366Y-132054090D01*
X163562957Y-132067103D01*
X163528000Y-132075766D01*
X163527114Y-132075938D01*
X163456146Y-132085715D01*
X163384666Y-132088906D01*
X163321502Y-132085203D01*
X163310240Y-132083540D01*
X163285622Y-132077968D01*
X163251791Y-132068618D01*
X163234040Y-132063199D01*
X163138698Y-132023907D01*
X163057731Y-131970664D01*
X162990448Y-131902785D01*
X162936158Y-131819586D01*
X162897042Y-131728776D01*
X162885142Y-131692505D01*
X162877164Y-131660849D01*
X162872346Y-131628008D01*
X162869924Y-131588186D01*
X162869136Y-131535585D01*
X162869104Y-131516520D01*
X162869556Y-131458915D01*
X162869920Y-131450480D01*
X162974960Y-131450480D01*
X163716640Y-131450480D01*
X163716489Y-131402220D01*
X163708444Y-131318888D01*
X163686060Y-131239292D01*
X163651185Y-131168228D01*
X163605666Y-131110493D01*
X163603204Y-131108100D01*
X163553370Y-131069234D01*
X163497446Y-131044163D01*
X163431067Y-131031364D01*
X163376280Y-131028891D01*
X163327775Y-131029807D01*
X163292098Y-131033527D01*
X163261805Y-131041406D01*
X163229455Y-131054803D01*
X163226393Y-131056230D01*
X163159621Y-131097103D01*
X163099184Y-131152335D01*
X163047805Y-131217900D01*
X163008208Y-131289769D01*
X162983120Y-131363912D01*
X162975208Y-131427620D01*
X162974960Y-131450480D01*
X162869920Y-131450480D01*
X162871418Y-131415835D01*
X162875448Y-131381497D01*
X162882402Y-131350115D01*
X162893040Y-131315907D01*
X162896825Y-131304909D01*
X162934166Y-131216561D01*
X162980838Y-131142139D01*
X163040421Y-131076080D01*
X163049466Y-131067666D01*
X163126064Y-131009256D01*
X163208083Y-130969700D01*
X163297481Y-130948324D01*
X163396217Y-130944453D01*
X163405838Y-130944952D01*
G36*
X164645277Y-130961762D02*
X164717887Y-130987639D01*
X164778861Y-131027003D01*
X164807619Y-131055567D01*
X164829408Y-131083322D01*
X164847765Y-131112732D01*
X164862971Y-131145730D01*
X164875309Y-131184250D01*
X164885064Y-131230226D01*
X164892517Y-131285591D01*
X164897951Y-131352279D01*
X164901650Y-131432223D01*
X164903896Y-131527357D01*
X164904973Y-131639615D01*
X164905179Y-131722260D01*
X164905360Y-132060080D01*
X164816742Y-132060080D01*
X164811141Y-131998317D01*
X164807454Y-131964981D01*
X164803525Y-131940699D01*
X164800723Y-131931736D01*
X164790655Y-131934700D01*
X164767851Y-131946722D01*
X164736448Y-131965541D01*
X164721453Y-131975081D01*
X164625816Y-132029384D01*
X164532232Y-132067725D01*
X164442950Y-132089385D01*
X164360220Y-132093647D01*
X164351640Y-132093025D01*
X164277249Y-132078835D01*
X164208065Y-132050853D01*
X164148155Y-132011490D01*
X164101586Y-131963160D01*
X164083219Y-131933796D01*
X164061218Y-131871742D01*
X164052911Y-131803989D01*
X164161248Y-131803989D01*
X164173709Y-131862401D01*
X164200097Y-131913534D01*
X164238552Y-131952966D01*
X164258119Y-131965111D01*
X164291898Y-131980974D01*
X164322926Y-131990723D01*
X164357711Y-131995500D01*
X164402762Y-131996448D01*
X164432920Y-131995792D01*
X164484773Y-131992934D01*
X164524404Y-131986893D01*
X164559849Y-131976060D01*
X164585320Y-131965292D01*
X164622994Y-131946146D01*
X164668754Y-131920043D01*
X164714163Y-131891853D01*
X164725020Y-131884682D01*
X164803760Y-131831854D01*
X164803760Y-131641167D01*
X164803624Y-131574333D01*
X164803050Y-131525148D01*
X164801791Y-131490945D01*
X164799595Y-131469054D01*
X164796216Y-131456806D01*
X164791403Y-131451532D01*
X164785980Y-131450539D01*
X164756830Y-131452738D01*
X164713046Y-131458588D01*
X164659793Y-131467178D01*
X164602237Y-131477594D01*
X164545543Y-131488922D01*
X164494877Y-131500249D01*
X164471523Y-131506130D01*
X164378251Y-131535760D01*
X164302878Y-131570566D01*
X164243411Y-131611573D01*
X164216647Y-131637264D01*
X164194137Y-131662787D01*
X164178465Y-131682654D01*
X164173397Y-131691552D01*
X164171336Y-131705632D01*
X164166691Y-131731604D01*
X164164575Y-131742722D01*
X164161248Y-131803989D01*
X164052911Y-131803989D01*
X164052622Y-131801639D01*
X164057930Y-131731132D01*
X164067524Y-131693222D01*
X164098404Y-131632366D01*
X164148428Y-131577659D01*
X164217331Y-131529229D01*
X164304850Y-131487208D01*
X164410720Y-131451726D01*
X164534677Y-131422912D01*
X164655862Y-131403523D01*
X164704560Y-131396917D01*
X164746562Y-131390870D01*
X164777377Y-131386051D01*
X164792508Y-131383133D01*
X164800209Y-131371045D01*
X164803108Y-131344157D01*
X164801669Y-131307292D01*
X164796355Y-131265278D01*
X164787630Y-131222938D01*
X164775957Y-131185098D01*
X164772729Y-131177131D01*
X164741038Y-131124341D01*
X164697380Y-131080599D01*
X164647029Y-131050851D01*
X164632478Y-131045711D01*
X164559266Y-131033207D01*
X164476632Y-131035579D01*
X164388279Y-131052189D01*
X164297908Y-131082399D01*
X164227606Y-131115418D01*
X164154372Y-131154538D01*
X164132159Y-131118595D01*
X164120948Y-131099879D01*
X164116939Y-131086720D01*
X164122565Y-131075638D01*
X164140256Y-131063152D01*
X164172446Y-131045782D01*
X164189080Y-131037128D01*
X164284985Y-130994524D01*
X164380883Y-130965755D01*
X164474448Y-130950751D01*
X164563355Y-130949443D01*
X164645277Y-130961762D01*
X164645277Y-130961762D01*
G37*
X164645277Y-130961762D02*
X164717887Y-130987639D01*
X164778861Y-131027003D01*
X164807619Y-131055567D01*
X164829408Y-131083322D01*
X164847765Y-131112732D01*
X164862971Y-131145730D01*
X164875309Y-131184250D01*
X164885064Y-131230226D01*
X164892517Y-131285591D01*
X164897951Y-131352279D01*
X164901650Y-131432223D01*
X164903896Y-131527357D01*
X164904973Y-131639615D01*
X164905179Y-131722260D01*
X164905360Y-132060080D01*
X164816742Y-132060080D01*
X164811141Y-131998317D01*
X164807454Y-131964981D01*
X164803525Y-131940699D01*
X164800723Y-131931736D01*
X164790655Y-131934700D01*
X164767851Y-131946722D01*
X164736448Y-131965541D01*
X164721453Y-131975081D01*
X164625816Y-132029384D01*
X164532232Y-132067725D01*
X164442950Y-132089385D01*
X164360220Y-132093647D01*
X164351640Y-132093025D01*
X164277249Y-132078835D01*
X164208065Y-132050853D01*
X164148155Y-132011490D01*
X164101586Y-131963160D01*
X164083219Y-131933796D01*
X164061218Y-131871742D01*
X164052911Y-131803989D01*
X164161248Y-131803989D01*
X164173709Y-131862401D01*
X164200097Y-131913534D01*
X164238552Y-131952966D01*
X164258119Y-131965111D01*
X164291898Y-131980974D01*
X164322926Y-131990723D01*
X164357711Y-131995500D01*
X164402762Y-131996448D01*
X164432920Y-131995792D01*
X164484773Y-131992934D01*
X164524404Y-131986893D01*
X164559849Y-131976060D01*
X164585320Y-131965292D01*
X164622994Y-131946146D01*
X164668754Y-131920043D01*
X164714163Y-131891853D01*
X164725020Y-131884682D01*
X164803760Y-131831854D01*
X164803760Y-131641167D01*
X164803624Y-131574333D01*
X164803050Y-131525148D01*
X164801791Y-131490945D01*
X164799595Y-131469054D01*
X164796216Y-131456806D01*
X164791403Y-131451532D01*
X164785980Y-131450539D01*
X164756830Y-131452738D01*
X164713046Y-131458588D01*
X164659793Y-131467178D01*
X164602237Y-131477594D01*
X164545543Y-131488922D01*
X164494877Y-131500249D01*
X164471523Y-131506130D01*
X164378251Y-131535760D01*
X164302878Y-131570566D01*
X164243411Y-131611573D01*
X164216647Y-131637264D01*
X164194137Y-131662787D01*
X164178465Y-131682654D01*
X164173397Y-131691552D01*
X164171336Y-131705632D01*
X164166691Y-131731604D01*
X164164575Y-131742722D01*
X164161248Y-131803989D01*
X164052911Y-131803989D01*
X164052622Y-131801639D01*
X164057930Y-131731132D01*
X164067524Y-131693222D01*
X164098404Y-131632366D01*
X164148428Y-131577659D01*
X164217331Y-131529229D01*
X164304850Y-131487208D01*
X164410720Y-131451726D01*
X164534677Y-131422912D01*
X164655862Y-131403523D01*
X164704560Y-131396917D01*
X164746562Y-131390870D01*
X164777377Y-131386051D01*
X164792508Y-131383133D01*
X164800209Y-131371045D01*
X164803108Y-131344157D01*
X164801669Y-131307292D01*
X164796355Y-131265278D01*
X164787630Y-131222938D01*
X164775957Y-131185098D01*
X164772729Y-131177131D01*
X164741038Y-131124341D01*
X164697380Y-131080599D01*
X164647029Y-131050851D01*
X164632478Y-131045711D01*
X164559266Y-131033207D01*
X164476632Y-131035579D01*
X164388279Y-131052189D01*
X164297908Y-131082399D01*
X164227606Y-131115418D01*
X164154372Y-131154538D01*
X164132159Y-131118595D01*
X164120948Y-131099879D01*
X164116939Y-131086720D01*
X164122565Y-131075638D01*
X164140256Y-131063152D01*
X164172446Y-131045782D01*
X164189080Y-131037128D01*
X164284985Y-130994524D01*
X164380883Y-130965755D01*
X164474448Y-130950751D01*
X164563355Y-130949443D01*
X164645277Y-130961762D01*
G36*
X156410222Y-130961581D02*
X156443850Y-130972202D01*
X156510628Y-131008127D01*
X156565454Y-131059986D01*
X156607600Y-131126772D01*
X156636335Y-131207481D01*
X156644927Y-131249486D01*
X156647327Y-131274427D01*
X156649535Y-131316904D01*
X156651484Y-131374131D01*
X156653107Y-131443324D01*
X156654339Y-131521699D01*
X156655113Y-131606471D01*
X156655363Y-131686700D01*
X156655440Y-132060080D01*
X156615887Y-132060080D01*
X156590047Y-132057907D01*
X156574480Y-132048739D01*
X156566675Y-132028602D01*
X156564119Y-131993523D01*
X156564000Y-131977969D01*
X156562330Y-131949261D01*
X156558067Y-131931192D01*
X156554860Y-131928000D01*
X156542261Y-131933309D01*
X156518408Y-131947162D01*
X156491360Y-131964643D01*
X156393007Y-132023672D01*
X156299905Y-132064182D01*
X156210262Y-132086713D01*
X156122288Y-132091806D01*
X156081400Y-132088379D01*
X156019544Y-132074479D01*
X155959409Y-132050313D01*
X155906824Y-132018867D01*
X155867623Y-131983126D01*
X155862242Y-131976196D01*
X155824734Y-131908628D01*
X155806046Y-131837773D01*
X155805696Y-131787305D01*
X155913760Y-131787305D01*
X155921184Y-131844090D01*
X155941628Y-131896220D01*
X155972350Y-131937591D01*
X155986663Y-131949590D01*
X156042823Y-131978263D01*
X156110652Y-131994617D01*
X156185357Y-131998242D01*
X156262144Y-131988728D01*
X156306206Y-131976878D01*
X156345120Y-131960972D01*
X156392973Y-131936833D01*
X156442382Y-131908328D01*
X156466440Y-131892931D01*
X156558920Y-131831226D01*
X156564448Y-131450480D01*
X156540097Y-131450480D01*
X156510633Y-131452732D01*
X156466366Y-131458861D01*
X156412231Y-131467927D01*
X156353165Y-131478988D01*
X156294104Y-131491105D01*
X156239986Y-131503336D01*
X156195746Y-131514742D01*
X156183000Y-131518523D01*
X156093584Y-131551666D01*
X156023210Y-131589669D01*
X155970992Y-131633416D01*
X155936044Y-131683791D01*
X155917480Y-131741678D01*
X155913760Y-131787305D01*
X155805696Y-131787305D01*
X155805549Y-131766234D01*
X155822615Y-131696614D01*
X155856616Y-131631518D01*
X155906924Y-131573548D01*
X155970699Y-131526596D01*
X156020768Y-131502373D01*
X156087142Y-131477944D01*
X156165842Y-131454304D01*
X156252886Y-131432447D01*
X156344296Y-131413368D01*
X156436092Y-131398063D01*
X156524295Y-131387527D01*
X156528440Y-131387152D01*
X156558920Y-131384440D01*
X156555954Y-131323480D01*
X156544812Y-131237389D01*
X156520532Y-131166633D01*
X156484854Y-131113191D01*
X156444431Y-131075517D01*
X156400837Y-131051181D01*
X156348748Y-131038088D01*
X156284194Y-131034143D01*
X156207458Y-131038369D01*
X156135129Y-131052622D01*
X156060672Y-131078597D01*
X155994524Y-131109288D01*
X155907611Y-131153121D01*
X155884313Y-131117580D01*
X155873220Y-131100392D01*
X155868361Y-131087923D01*
X155872100Y-131077393D01*
X155886802Y-131066019D01*
X155914833Y-131051020D01*
X155958556Y-131029615D01*
X155959480Y-131029164D01*
X156052472Y-130990837D01*
X156147877Y-130964464D01*
X156241860Y-130950496D01*
X156330587Y-130949385D01*
X156410222Y-130961581D01*
X156410222Y-130961581D01*
G37*
X156410222Y-130961581D02*
X156443850Y-130972202D01*
X156510628Y-131008127D01*
X156565454Y-131059986D01*
X156607600Y-131126772D01*
X156636335Y-131207481D01*
X156644927Y-131249486D01*
X156647327Y-131274427D01*
X156649535Y-131316904D01*
X156651484Y-131374131D01*
X156653107Y-131443324D01*
X156654339Y-131521699D01*
X156655113Y-131606471D01*
X156655363Y-131686700D01*
X156655440Y-132060080D01*
X156615887Y-132060080D01*
X156590047Y-132057907D01*
X156574480Y-132048739D01*
X156566675Y-132028602D01*
X156564119Y-131993523D01*
X156564000Y-131977969D01*
X156562330Y-131949261D01*
X156558067Y-131931192D01*
X156554860Y-131928000D01*
X156542261Y-131933309D01*
X156518408Y-131947162D01*
X156491360Y-131964643D01*
X156393007Y-132023672D01*
X156299905Y-132064182D01*
X156210262Y-132086713D01*
X156122288Y-132091806D01*
X156081400Y-132088379D01*
X156019544Y-132074479D01*
X155959409Y-132050313D01*
X155906824Y-132018867D01*
X155867623Y-131983126D01*
X155862242Y-131976196D01*
X155824734Y-131908628D01*
X155806046Y-131837773D01*
X155805696Y-131787305D01*
X155913760Y-131787305D01*
X155921184Y-131844090D01*
X155941628Y-131896220D01*
X155972350Y-131937591D01*
X155986663Y-131949590D01*
X156042823Y-131978263D01*
X156110652Y-131994617D01*
X156185357Y-131998242D01*
X156262144Y-131988728D01*
X156306206Y-131976878D01*
X156345120Y-131960972D01*
X156392973Y-131936833D01*
X156442382Y-131908328D01*
X156466440Y-131892931D01*
X156558920Y-131831226D01*
X156564448Y-131450480D01*
X156540097Y-131450480D01*
X156510633Y-131452732D01*
X156466366Y-131458861D01*
X156412231Y-131467927D01*
X156353165Y-131478988D01*
X156294104Y-131491105D01*
X156239986Y-131503336D01*
X156195746Y-131514742D01*
X156183000Y-131518523D01*
X156093584Y-131551666D01*
X156023210Y-131589669D01*
X155970992Y-131633416D01*
X155936044Y-131683791D01*
X155917480Y-131741678D01*
X155913760Y-131787305D01*
X155805696Y-131787305D01*
X155805549Y-131766234D01*
X155822615Y-131696614D01*
X155856616Y-131631518D01*
X155906924Y-131573548D01*
X155970699Y-131526596D01*
X156020768Y-131502373D01*
X156087142Y-131477944D01*
X156165842Y-131454304D01*
X156252886Y-131432447D01*
X156344296Y-131413368D01*
X156436092Y-131398063D01*
X156524295Y-131387527D01*
X156528440Y-131387152D01*
X156558920Y-131384440D01*
X156555954Y-131323480D01*
X156544812Y-131237389D01*
X156520532Y-131166633D01*
X156484854Y-131113191D01*
X156444431Y-131075517D01*
X156400837Y-131051181D01*
X156348748Y-131038088D01*
X156284194Y-131034143D01*
X156207458Y-131038369D01*
X156135129Y-131052622D01*
X156060672Y-131078597D01*
X155994524Y-131109288D01*
X155907611Y-131153121D01*
X155884313Y-131117580D01*
X155873220Y-131100392D01*
X155868361Y-131087923D01*
X155872100Y-131077393D01*
X155886802Y-131066019D01*
X155914833Y-131051020D01*
X155958556Y-131029615D01*
X155959480Y-131029164D01*
X156052472Y-130990837D01*
X156147877Y-130964464D01*
X156241860Y-130950496D01*
X156330587Y-130949385D01*
X156410222Y-130961581D01*
G36*
X160445120Y-130953768D02*
X160472546Y-130957516D01*
X160516155Y-130961225D01*
X160571808Y-130964646D01*
X160635367Y-130967529D01*
X160702695Y-130969624D01*
X160711820Y-130969833D01*
X160922640Y-130974431D01*
X160922640Y-131054240D01*
X160656375Y-131054240D01*
X160689420Y-131091876D01*
X160712832Y-131123194D01*
X160736806Y-131162412D01*
X160748892Y-131185856D01*
X160762344Y-131217825D01*
X160770318Y-131247735D01*
X160774107Y-131282897D01*
X160775001Y-131330624D01*
X160774992Y-131333640D01*
X160773855Y-131382289D01*
X160769865Y-131418482D01*
X160761540Y-131450037D01*
X160747394Y-131484771D01*
X160745518Y-131488905D01*
X160707398Y-131551904D01*
X160655049Y-131609686D01*
X160594016Y-131656975D01*
X160539451Y-131684978D01*
X160479285Y-131701140D01*
X160408723Y-131708871D01*
X160335931Y-131708003D01*
X160269075Y-131698371D01*
X160242804Y-131691032D01*
X160211204Y-131680916D01*
X160191830Y-131677597D01*
X160177729Y-131681155D01*
X160161949Y-131691672D01*
X160161524Y-131691987D01*
X160127488Y-131727797D01*
X160102216Y-131774640D01*
X160090134Y-131823786D01*
X160089687Y-131833666D01*
X160098978Y-131877351D01*
X160124464Y-131916973D01*
X160162051Y-131947376D01*
X160189415Y-131959266D01*
X160209786Y-131962755D01*
X160247194Y-131966468D01*
X160298363Y-131970188D01*
X160360015Y-131973698D01*
X160428872Y-131976780D01*
X160480680Y-131978600D01*
X160552582Y-131981235D01*
X160619532Y-131984439D01*
X160678274Y-131987999D01*
X160725553Y-131991699D01*
X160758110Y-131995323D01*
X160770590Y-131997760D01*
X160837712Y-132027412D01*
X160889026Y-132068797D01*
X160923737Y-132120920D01*
X160941053Y-132182786D01*
X160942960Y-132213877D01*
X160935031Y-132286458D01*
X160910186Y-132351513D01*
X160866840Y-132412988D01*
X160859560Y-132421144D01*
X160806374Y-132468157D01*
X160738755Y-132510802D01*
X160662549Y-132545987D01*
X160583603Y-132570621D01*
X160572120Y-132573166D01*
X160509917Y-132582075D01*
X160435732Y-132586390D01*
X160357367Y-132586143D01*
X160282626Y-132581365D01*
X160219311Y-132572089D01*
X160217550Y-132571715D01*
X160136756Y-132547530D01*
X160065222Y-132512535D01*
X160005902Y-132468759D01*
X159961752Y-132418231D01*
X159942696Y-132382986D01*
X159929760Y-132330868D01*
X159929208Y-132299160D01*
X160020825Y-132299160D01*
X160038041Y-132353439D01*
X160072489Y-132402105D01*
X160122724Y-132443763D01*
X160187299Y-132477018D01*
X160264770Y-132500474D01*
X160297800Y-132506608D01*
X160360519Y-132512134D01*
X160431428Y-132511660D01*
X160501955Y-132505667D01*
X160563533Y-132494638D01*
X160577521Y-132490858D01*
X160662389Y-132458915D01*
X160731869Y-132418514D01*
X160784973Y-132370699D01*
X160820715Y-132316513D01*
X160838107Y-132257000D01*
X160838987Y-132214484D01*
X160834193Y-132178747D01*
X160824419Y-132154297D01*
X160805536Y-132132118D01*
X160798021Y-132125057D01*
X160765443Y-132101525D01*
X160728346Y-132083318D01*
X160717716Y-132079855D01*
X160695380Y-132076217D01*
X160656114Y-132072361D01*
X160603300Y-132068515D01*
X160540323Y-132064903D01*
X160470567Y-132061753D01*
X160419720Y-132059949D01*
X160165720Y-132051971D01*
X160130160Y-132079617D01*
X160094793Y-132113604D01*
X160061925Y-132156416D01*
X160036201Y-132201117D01*
X160022287Y-132240664D01*
X160020825Y-132299160D01*
X159929208Y-132299160D01*
X159928730Y-132271768D01*
X159939376Y-132215002D01*
X159947310Y-132194021D01*
X159963848Y-132166041D01*
X159990160Y-132130547D01*
X160021314Y-132094047D01*
X160030282Y-132084483D01*
X160093351Y-132018803D01*
X160060504Y-131988802D01*
X160022721Y-131941669D01*
X160002089Y-131887292D01*
X159998395Y-131828979D01*
X160011428Y-131770041D01*
X160040974Y-131713786D01*
X160081088Y-131668566D01*
X160122269Y-131631362D01*
X160081164Y-131589181D01*
X160052444Y-131554899D01*
X160024317Y-131513750D01*
X160011449Y-131491120D01*
X159998334Y-131463656D01*
X159989958Y-131439164D01*
X159985280Y-131411718D01*
X159983255Y-131375389D01*
X159982840Y-131328560D01*
X159982893Y-131323480D01*
X160074689Y-131323480D01*
X160081014Y-131399768D01*
X160100902Y-131463616D01*
X160136056Y-131519082D01*
X160172429Y-131556695D01*
X160222657Y-131594795D01*
X160275137Y-131618588D01*
X160336077Y-131630334D01*
X160380732Y-131632557D01*
X160424064Y-131631622D01*
X160457302Y-131626081D01*
X160490551Y-131613544D01*
X160517578Y-131600190D01*
X160580521Y-131557387D01*
X160628447Y-131503861D01*
X160661441Y-131442488D01*
X160679588Y-131376138D01*
X160682973Y-131307686D01*
X160671683Y-131240004D01*
X160645803Y-131175965D01*
X160605417Y-131118441D01*
X160550612Y-131070307D01*
X160501000Y-131042500D01*
X160436286Y-131023287D01*
X160364771Y-131018569D01*
X160293743Y-131028201D01*
X160238792Y-131047759D01*
X160173198Y-131089764D01*
X160124233Y-131143439D01*
X160091921Y-131208749D01*
X160076282Y-131285656D01*
X160074689Y-131323480D01*
X159982893Y-131323480D01*
X159983373Y-131278304D01*
X159985662Y-131242323D01*
X159990741Y-131214582D01*
X159999644Y-131189050D01*
X160010923Y-131164715D01*
X160048437Y-131106508D01*
X160099761Y-131051957D01*
X160158540Y-131007199D01*
X160193984Y-130987944D01*
X160260600Y-130964609D01*
X160332975Y-130951152D01*
X160403064Y-130948670D01*
X160445120Y-130953768D01*
X160445120Y-130953768D01*
G37*
X160445120Y-130953768D02*
X160472546Y-130957516D01*
X160516155Y-130961225D01*
X160571808Y-130964646D01*
X160635367Y-130967529D01*
X160702695Y-130969624D01*
X160711820Y-130969833D01*
X160922640Y-130974431D01*
X160922640Y-131054240D01*
X160656375Y-131054240D01*
X160689420Y-131091876D01*
X160712832Y-131123194D01*
X160736806Y-131162412D01*
X160748892Y-131185856D01*
X160762344Y-131217825D01*
X160770318Y-131247735D01*
X160774107Y-131282897D01*
X160775001Y-131330624D01*
X160774992Y-131333640D01*
X160773855Y-131382289D01*
X160769865Y-131418482D01*
X160761540Y-131450037D01*
X160747394Y-131484771D01*
X160745518Y-131488905D01*
X160707398Y-131551904D01*
X160655049Y-131609686D01*
X160594016Y-131656975D01*
X160539451Y-131684978D01*
X160479285Y-131701140D01*
X160408723Y-131708871D01*
X160335931Y-131708003D01*
X160269075Y-131698371D01*
X160242804Y-131691032D01*
X160211204Y-131680916D01*
X160191830Y-131677597D01*
X160177729Y-131681155D01*
X160161949Y-131691672D01*
X160161524Y-131691987D01*
X160127488Y-131727797D01*
X160102216Y-131774640D01*
X160090134Y-131823786D01*
X160089687Y-131833666D01*
X160098978Y-131877351D01*
X160124464Y-131916973D01*
X160162051Y-131947376D01*
X160189415Y-131959266D01*
X160209786Y-131962755D01*
X160247194Y-131966468D01*
X160298363Y-131970188D01*
X160360015Y-131973698D01*
X160428872Y-131976780D01*
X160480680Y-131978600D01*
X160552582Y-131981235D01*
X160619532Y-131984439D01*
X160678274Y-131987999D01*
X160725553Y-131991699D01*
X160758110Y-131995323D01*
X160770590Y-131997760D01*
X160837712Y-132027412D01*
X160889026Y-132068797D01*
X160923737Y-132120920D01*
X160941053Y-132182786D01*
X160942960Y-132213877D01*
X160935031Y-132286458D01*
X160910186Y-132351513D01*
X160866840Y-132412988D01*
X160859560Y-132421144D01*
X160806374Y-132468157D01*
X160738755Y-132510802D01*
X160662549Y-132545987D01*
X160583603Y-132570621D01*
X160572120Y-132573166D01*
X160509917Y-132582075D01*
X160435732Y-132586390D01*
X160357367Y-132586143D01*
X160282626Y-132581365D01*
X160219311Y-132572089D01*
X160217550Y-132571715D01*
X160136756Y-132547530D01*
X160065222Y-132512535D01*
X160005902Y-132468759D01*
X159961752Y-132418231D01*
X159942696Y-132382986D01*
X159929760Y-132330868D01*
X159929208Y-132299160D01*
X160020825Y-132299160D01*
X160038041Y-132353439D01*
X160072489Y-132402105D01*
X160122724Y-132443763D01*
X160187299Y-132477018D01*
X160264770Y-132500474D01*
X160297800Y-132506608D01*
X160360519Y-132512134D01*
X160431428Y-132511660D01*
X160501955Y-132505667D01*
X160563533Y-132494638D01*
X160577521Y-132490858D01*
X160662389Y-132458915D01*
X160731869Y-132418514D01*
X160784973Y-132370699D01*
X160820715Y-132316513D01*
X160838107Y-132257000D01*
X160838987Y-132214484D01*
X160834193Y-132178747D01*
X160824419Y-132154297D01*
X160805536Y-132132118D01*
X160798021Y-132125057D01*
X160765443Y-132101525D01*
X160728346Y-132083318D01*
X160717716Y-132079855D01*
X160695380Y-132076217D01*
X160656114Y-132072361D01*
X160603300Y-132068515D01*
X160540323Y-132064903D01*
X160470567Y-132061753D01*
X160419720Y-132059949D01*
X160165720Y-132051971D01*
X160130160Y-132079617D01*
X160094793Y-132113604D01*
X160061925Y-132156416D01*
X160036201Y-132201117D01*
X160022287Y-132240664D01*
X160020825Y-132299160D01*
X159929208Y-132299160D01*
X159928730Y-132271768D01*
X159939376Y-132215002D01*
X159947310Y-132194021D01*
X159963848Y-132166041D01*
X159990160Y-132130547D01*
X160021314Y-132094047D01*
X160030282Y-132084483D01*
X160093351Y-132018803D01*
X160060504Y-131988802D01*
X160022721Y-131941669D01*
X160002089Y-131887292D01*
X159998395Y-131828979D01*
X160011428Y-131770041D01*
X160040974Y-131713786D01*
X160081088Y-131668566D01*
X160122269Y-131631362D01*
X160081164Y-131589181D01*
X160052444Y-131554899D01*
X160024317Y-131513750D01*
X160011449Y-131491120D01*
X159998334Y-131463656D01*
X159989958Y-131439164D01*
X159985280Y-131411718D01*
X159983255Y-131375389D01*
X159982840Y-131328560D01*
X159982893Y-131323480D01*
X160074689Y-131323480D01*
X160081014Y-131399768D01*
X160100902Y-131463616D01*
X160136056Y-131519082D01*
X160172429Y-131556695D01*
X160222657Y-131594795D01*
X160275137Y-131618588D01*
X160336077Y-131630334D01*
X160380732Y-131632557D01*
X160424064Y-131631622D01*
X160457302Y-131626081D01*
X160490551Y-131613544D01*
X160517578Y-131600190D01*
X160580521Y-131557387D01*
X160628447Y-131503861D01*
X160661441Y-131442488D01*
X160679588Y-131376138D01*
X160682973Y-131307686D01*
X160671683Y-131240004D01*
X160645803Y-131175965D01*
X160605417Y-131118441D01*
X160550612Y-131070307D01*
X160501000Y-131042500D01*
X160436286Y-131023287D01*
X160364771Y-131018569D01*
X160293743Y-131028201D01*
X160238792Y-131047759D01*
X160173198Y-131089764D01*
X160124233Y-131143439D01*
X160091921Y-131208749D01*
X160076282Y-131285656D01*
X160074689Y-131323480D01*
X159982893Y-131323480D01*
X159983373Y-131278304D01*
X159985662Y-131242323D01*
X159990741Y-131214582D01*
X159999644Y-131189050D01*
X160010923Y-131164715D01*
X160048437Y-131106508D01*
X160099761Y-131051957D01*
X160158540Y-131007199D01*
X160193984Y-130987944D01*
X160260600Y-130964609D01*
X160332975Y-130951152D01*
X160403064Y-130948670D01*
X160445120Y-130953768D01*
G36*
X152621920Y-136398400D02*
X152500000Y-136398400D01*
X152500000Y-123901600D01*
X152621920Y-123901600D01*
X152621920Y-136398400D01*
X152621920Y-136398400D01*
G37*
X152621920Y-136398400D02*
X152500000Y-136398400D01*
X152500000Y-123901600D01*
X152621920Y-123901600D01*
X152621920Y-136398400D01*
G36*
X143679195Y-123913949D02*
X143804752Y-123915360D01*
X143927164Y-123917931D01*
X144042764Y-123921608D01*
X144147886Y-123926338D01*
X144238865Y-123932068D01*
X144290720Y-123936502D01*
X144640001Y-123977468D01*
X144979140Y-124031175D01*
X145311686Y-124098481D01*
X145641183Y-124180240D01*
X145971180Y-124277310D01*
X146305223Y-124390547D01*
X146546240Y-124481012D01*
X146615877Y-124507993D01*
X146691717Y-124537111D01*
X146766726Y-124565682D01*
X146833871Y-124591023D01*
X146865941Y-124602998D01*
X147125107Y-124709654D01*
X147376903Y-124834056D01*
X147620042Y-124975188D01*
X147853236Y-125132035D01*
X148075196Y-125303579D01*
X148284635Y-125488806D01*
X148480264Y-125686699D01*
X148660797Y-125896243D01*
X148824945Y-126116422D01*
X148870911Y-126184563D01*
X148935684Y-126283220D01*
X148990382Y-126367412D01*
X149036333Y-126439497D01*
X149074862Y-126501832D01*
X149107295Y-126556774D01*
X149134958Y-126606680D01*
X149159177Y-126653907D01*
X149181277Y-126700812D01*
X149202585Y-126749752D01*
X149224427Y-126803084D01*
X149237779Y-126836749D01*
X149257740Y-126890212D01*
X149281911Y-126959345D01*
X149309050Y-127040241D01*
X149337912Y-127128995D01*
X149367254Y-127221703D01*
X149395833Y-127314458D01*
X149422405Y-127403355D01*
X149445727Y-127484490D01*
X149456721Y-127524398D01*
X149478211Y-127603055D01*
X149496015Y-127665722D01*
X149511363Y-127716125D01*
X149525482Y-127757992D01*
X149539603Y-127795049D01*
X149554954Y-127831022D01*
X149565360Y-127853838D01*
X149642470Y-127998681D01*
X149736817Y-128140129D01*
X149845321Y-128274431D01*
X149964901Y-128397837D01*
X150092477Y-128506597D01*
X150115857Y-128524184D01*
X150195416Y-128590001D01*
X150263407Y-128662833D01*
X150323662Y-128747302D01*
X150373184Y-128834650D01*
X150434485Y-128975122D01*
X150478826Y-129125248D01*
X150506309Y-129283651D01*
X150517039Y-129448954D01*
X150511120Y-129619778D01*
X150488655Y-129794748D01*
X150449747Y-129972486D01*
X150394502Y-130151614D01*
X150323023Y-130330755D01*
X150248895Y-130483304D01*
X150219321Y-130537644D01*
X150187698Y-130592803D01*
X150156153Y-130645358D01*
X150126815Y-130691887D01*
X150101811Y-130728969D01*
X150083270Y-130753180D01*
X150077364Y-130759164D01*
X150065596Y-130762701D01*
X150049435Y-130756083D01*
X150027838Y-130738163D01*
X149999759Y-130707798D01*
X149964153Y-130663842D01*
X149919976Y-130605150D01*
X149866181Y-130530576D01*
X149857119Y-130517810D01*
X149761438Y-130388504D01*
X149669539Y-130276758D01*
X149579267Y-130180696D01*
X149488469Y-130098447D01*
X149394988Y-130028136D01*
X149296671Y-129967888D01*
X149191362Y-129915832D01*
X149139750Y-129894028D01*
X149086398Y-129873483D01*
X149030134Y-129853832D01*
X148968133Y-129834264D01*
X148897569Y-129813966D01*
X148815619Y-129792126D01*
X148719455Y-129767934D01*
X148606253Y-129740576D01*
X148603640Y-129739953D01*
X148488977Y-129712014D01*
X148390586Y-129686497D01*
X148304731Y-129662281D01*
X148227676Y-129638243D01*
X148155684Y-129613261D01*
X148085018Y-129586215D01*
X148065829Y-129578473D01*
X147964898Y-129537349D01*
X147801669Y-129549097D01*
X147741045Y-129554276D01*
X147666280Y-129561933D01*
X147583306Y-129571385D01*
X147498056Y-129581951D01*
X147416460Y-129592947D01*
X147399443Y-129595377D01*
X147323227Y-129606165D01*
X147245586Y-129616755D01*
X147171479Y-129626499D01*
X147105867Y-129634751D01*
X147053707Y-129640861D01*
X147039931Y-129642335D01*
X146963728Y-129647823D01*
X146876901Y-129650173D01*
X146785189Y-129649544D01*
X146694331Y-129646099D01*
X146610063Y-129639999D01*
X146538125Y-129631403D01*
X146515760Y-129627619D01*
X146332872Y-129602881D01*
X146141604Y-129595206D01*
X145944197Y-129604334D01*
X145742895Y-129630006D01*
X145539942Y-129671964D01*
X145337581Y-129729948D01*
X145198142Y-129779679D01*
X144973405Y-129876445D01*
X144748322Y-129993038D01*
X144523632Y-130128997D01*
X144300073Y-130283858D01*
X144078384Y-130457158D01*
X143968101Y-130550901D01*
X143863863Y-130641923D01*
X143870064Y-130693141D01*
X143881722Y-130761251D01*
X143901498Y-130843829D01*
X143928263Y-130937247D01*
X143960889Y-131037880D01*
X143998249Y-131142098D01*
X144039217Y-131246276D01*
X144050203Y-131272631D01*
X144121756Y-131430992D01*
X144197214Y-131576755D01*
X144275671Y-131708582D01*
X144356221Y-131825136D01*
X144437958Y-131925079D01*
X144519977Y-132007072D01*
X144580445Y-132055496D01*
X144637474Y-132090674D01*
X144714246Y-132128964D01*
X144810444Y-132170228D01*
X144925752Y-132214327D01*
X145022240Y-132248378D01*
X145156223Y-132291007D01*
X145283630Y-132324245D01*
X145410159Y-132349096D01*
X145541512Y-132366566D01*
X145683387Y-132377659D01*
X145779160Y-132381775D01*
X146000538Y-132380158D01*
X146217079Y-132361433D01*
X146427653Y-132326128D01*
X146631130Y-132274770D01*
X146826380Y-132207887D01*
X147012275Y-132126007D01*
X147187685Y-132029656D01*
X147351480Y-131919364D01*
X147502530Y-131795656D01*
X147639707Y-131659060D01*
X147761881Y-131510105D01*
X147818105Y-131429464D01*
X147870358Y-131344877D01*
X147917104Y-131257338D01*
X147961035Y-131161347D01*
X148004844Y-131051404D01*
X148010212Y-131037034D01*
X148036793Y-130966402D01*
X148056981Y-130915002D01*
X148070839Y-130882801D01*
X148078435Y-130869764D01*
X148079835Y-130875859D01*
X148075103Y-130901052D01*
X148064306Y-130945309D01*
X148047509Y-131008596D01*
X148044542Y-131019488D01*
X148005056Y-131157629D01*
X147961781Y-131297515D01*
X147915942Y-131435732D01*
X147868763Y-131568864D01*
X147821469Y-131693496D01*
X147775284Y-131806212D01*
X147731432Y-131903597D01*
X147717048Y-131933055D01*
X147613018Y-132121683D01*
X147496243Y-132297924D01*
X147367762Y-132460828D01*
X147228613Y-132609449D01*
X147079835Y-132742840D01*
X146922467Y-132860051D01*
X146757547Y-132960136D01*
X146586113Y-133042147D01*
X146444363Y-133094302D01*
X146323063Y-133127837D01*
X146196912Y-133153091D01*
X146071688Y-133169269D01*
X145953170Y-133175577D01*
X145870600Y-133173242D01*
X145828116Y-133169526D01*
X145777127Y-133164008D01*
X145721174Y-133157196D01*
X145663798Y-133149596D01*
X145608542Y-133141716D01*
X145558947Y-133134063D01*
X145518554Y-133127143D01*
X145490906Y-133121464D01*
X145479544Y-133117533D01*
X145479440Y-133117250D01*
X145488727Y-133112925D01*
X145513835Y-133105843D01*
X145550628Y-133097083D01*
X145583580Y-133090027D01*
X145668746Y-133069054D01*
X145745052Y-133043386D01*
X145810950Y-133014126D01*
X145864894Y-132982381D01*
X145905336Y-132949255D01*
X145930731Y-132915855D01*
X145939531Y-132883285D01*
X145930191Y-132852650D01*
X145925210Y-132845868D01*
X145908175Y-132832263D01*
X145879871Y-132815952D01*
X145860440Y-132806695D01*
X145841788Y-132798874D01*
X145822099Y-132791614D01*
X145798838Y-132784266D01*
X145769470Y-132776184D01*
X145731459Y-132766721D01*
X145682271Y-132755230D01*
X145619370Y-132741065D01*
X145540221Y-132723578D01*
X145500630Y-132714892D01*
X145380161Y-132686299D01*
X145278256Y-132657138D01*
X145193159Y-132626660D01*
X145123115Y-132594117D01*
X145066369Y-132558758D01*
X145021165Y-132519836D01*
X145006867Y-132504210D01*
X144985402Y-132480601D01*
X144970595Y-132470313D01*
X144956712Y-132470561D01*
X144946161Y-132474735D01*
X144927399Y-132487024D01*
X144920640Y-132497911D01*
X144929520Y-132515387D01*
X144955036Y-132540327D01*
X144995500Y-132571415D01*
X145049224Y-132607331D01*
X145101129Y-132638954D01*
X145157298Y-132671973D01*
X145221621Y-132709817D01*
X145284753Y-132746985D01*
X145321960Y-132768907D01*
X145397204Y-132814836D01*
X145454177Y-132853300D01*
X145493309Y-132884784D01*
X145515029Y-132909769D01*
X145519768Y-132928738D01*
X145507956Y-132942175D01*
X145483302Y-132949978D01*
X145446512Y-132952934D01*
X145396264Y-132951666D01*
X145338855Y-132946709D01*
X145280579Y-132938596D01*
X145230520Y-132928542D01*
X145173567Y-132918205D01*
X145118388Y-132914221D01*
X145070912Y-132916698D01*
X145038644Y-132924997D01*
X145016563Y-132942631D01*
X145001020Y-132966491D01*
X144995983Y-133003475D01*
X145005876Y-133051108D01*
X145029650Y-133107484D01*
X145066258Y-133170695D01*
X145114654Y-133238835D01*
X145173789Y-133309997D01*
X145212817Y-133352134D01*
X145333963Y-133466864D01*
X145465210Y-133569313D01*
X145607625Y-133659932D01*
X145762274Y-133739169D01*
X145930223Y-133807474D01*
X146112539Y-133865298D01*
X146310288Y-133913090D01*
X146524537Y-133951300D01*
X146683400Y-133972412D01*
X146732357Y-133976540D01*
X146801336Y-133979888D01*
X146890053Y-133982450D01*
X146998225Y-133984219D01*
X147125568Y-133985189D01*
X147226960Y-133985388D01*
X147345478Y-133985215D01*
X147446482Y-133984524D01*
X147532776Y-133983053D01*
X147607164Y-133980540D01*
X147672450Y-133976721D01*
X147731438Y-133971332D01*
X147786931Y-133964112D01*
X147841735Y-133954796D01*
X147898653Y-133943122D01*
X147960489Y-133928827D01*
X148030047Y-133911647D01*
X148040177Y-133909094D01*
X148265817Y-133841743D01*
X148486615Y-133755168D01*
X148701776Y-133650059D01*
X148910503Y-133527106D01*
X149111999Y-133386997D01*
X149305468Y-133230424D01*
X149490114Y-133058075D01*
X149665140Y-132870640D01*
X149829751Y-132668809D01*
X149983149Y-132453270D01*
X150124539Y-132224715D01*
X150245358Y-131999473D01*
X150292521Y-131903241D01*
X150332250Y-131817814D01*
X150367390Y-131736467D01*
X150400786Y-131652476D01*
X150435284Y-131559118D01*
X150453998Y-131506360D01*
X150471924Y-131456546D01*
X150487355Y-131416058D01*
X150499195Y-131387581D01*
X150506348Y-131373799D01*
X150507977Y-131374280D01*
X150506190Y-131391034D01*
X150500945Y-131423645D01*
X150492950Y-131468079D01*
X150482917Y-131520306D01*
X150477576Y-131547000D01*
X150399353Y-131885251D01*
X150303694Y-132214634D01*
X150190882Y-132534558D01*
X150061198Y-132844433D01*
X149914924Y-133143668D01*
X149752344Y-133431672D01*
X149573738Y-133707856D01*
X149379390Y-133971628D01*
X149235128Y-134147404D01*
X149157387Y-134234286D01*
X149080902Y-134311212D01*
X149000288Y-134383070D01*
X148910163Y-134454749D01*
X148839158Y-134506988D01*
X148638261Y-134638696D01*
X148423742Y-134755613D01*
X148195981Y-134857678D01*
X147955355Y-134944828D01*
X147702246Y-135017000D01*
X147437030Y-135074131D01*
X147160087Y-135116158D01*
X146871796Y-135143019D01*
X146572537Y-135154652D01*
X146262686Y-135150993D01*
X145942625Y-135131979D01*
X145612731Y-135097549D01*
X145425915Y-135071821D01*
X145369234Y-135063629D01*
X145319891Y-135057015D01*
X145281239Y-135052384D01*
X145256629Y-135050145D01*
X145249302Y-135050351D01*
X145256449Y-135055677D01*
X145279022Y-135067245D01*
X145313702Y-135083458D01*
X145357166Y-135102718D01*
X145366847Y-135106892D01*
X145625408Y-135208663D01*
X145897218Y-135298028D01*
X146178650Y-135373898D01*
X146449720Y-135432125D01*
X146578628Y-135455518D01*
X146697846Y-135474995D01*
X146811377Y-135490936D01*
X146923223Y-135503716D01*
X147037387Y-135513714D01*
X147157870Y-135521307D01*
X147288676Y-135526871D01*
X147433807Y-135530785D01*
X147511440Y-135532216D01*
X147614149Y-135534093D01*
X147699006Y-135536108D01*
X147765571Y-135538243D01*
X147813405Y-135540479D01*
X147842070Y-135542797D01*
X147851125Y-135545178D01*
X147846720Y-135546673D01*
X147821264Y-135550937D01*
X147780196Y-135557403D01*
X147728014Y-135565381D01*
X147669219Y-135574179D01*
X147628280Y-135580203D01*
X147238710Y-135629810D01*
X146861182Y-135663070D01*
X146495699Y-135679981D01*
X146142263Y-135680545D01*
X145800877Y-135664763D01*
X145471545Y-135632633D01*
X145154270Y-135584157D01*
X144849055Y-135519335D01*
X144555903Y-135438167D01*
X144274816Y-135340654D01*
X144005799Y-135226796D01*
X143970680Y-135210302D01*
X143846319Y-135148265D01*
X143723961Y-135081637D01*
X143606766Y-135012402D01*
X143497894Y-134942544D01*
X143400504Y-134874047D01*
X143317757Y-134808894D01*
X143284072Y-134779303D01*
X143244889Y-134744381D01*
X143208190Y-134713499D01*
X143178013Y-134689940D01*
X143158398Y-134676990D01*
X143157988Y-134676786D01*
X143137072Y-134667726D01*
X143127826Y-134669308D01*
X143124103Y-134682153D01*
X143127842Y-134708273D01*
X143144080Y-134745898D01*
X143170870Y-134792244D01*
X143206265Y-134844525D01*
X143248319Y-134899955D01*
X143295086Y-134955749D01*
X143344619Y-135009121D01*
X143370328Y-135034520D01*
X143520078Y-135165334D01*
X143683469Y-135284309D01*
X143861023Y-135391669D01*
X144053262Y-135487634D01*
X144260707Y-135572428D01*
X144483882Y-135646274D01*
X144723307Y-135709392D01*
X144979506Y-135762007D01*
X145139080Y-135788264D01*
X145219212Y-135799358D01*
X145312372Y-135810637D01*
X145414908Y-135821791D01*
X145523172Y-135832505D01*
X145633512Y-135842467D01*
X145742281Y-135851364D01*
X145845828Y-135858884D01*
X145940503Y-135864714D01*
X146022658Y-135868540D01*
X146088641Y-135870051D01*
X146093612Y-135870063D01*
X146133409Y-135870959D01*
X146153803Y-135873478D01*
X146155629Y-135877403D01*
X146139718Y-135882516D01*
X146106906Y-135888599D01*
X146058025Y-135895435D01*
X145993909Y-135902806D01*
X145951880Y-135907065D01*
X145864981Y-135913891D01*
X145762298Y-135919264D01*
X145647691Y-135923185D01*
X145525016Y-135925651D01*
X145398132Y-135926663D01*
X145270899Y-135926219D01*
X145147174Y-135924318D01*
X145030816Y-135920959D01*
X144925683Y-135916141D01*
X144835633Y-135909863D01*
X144808880Y-135907369D01*
X144469399Y-135865211D01*
X144142791Y-135808304D01*
X143827501Y-135736212D01*
X143521976Y-135648499D01*
X143224663Y-135544728D01*
X142934010Y-135424462D01*
X142705465Y-135316193D01*
X142638931Y-135282118D01*
X142566018Y-135243486D01*
X142491268Y-135202814D01*
X142419223Y-135162616D01*
X142354423Y-135125407D01*
X142301411Y-135093701D01*
X142284120Y-135082865D01*
X142253640Y-135063390D01*
X142279040Y-135092025D01*
X142300833Y-135113421D01*
X142336176Y-135144402D01*
X142382145Y-135182657D01*
X142435817Y-135225874D01*
X142494266Y-135271741D01*
X142554572Y-135317946D01*
X142613808Y-135362177D01*
X142669053Y-135402124D01*
X142688266Y-135415613D01*
X142905943Y-135557519D01*
X143142869Y-135693974D01*
X143399150Y-135825033D01*
X143674893Y-135950753D01*
X143838600Y-136019149D01*
X143945561Y-136060964D01*
X144064549Y-136104850D01*
X144191515Y-136149487D01*
X144322410Y-136193560D01*
X144453186Y-136235749D01*
X144579795Y-136274737D01*
X144698188Y-136309207D01*
X144804317Y-136337841D01*
X144859680Y-136351497D01*
X144906384Y-136362895D01*
X144947990Y-136373749D01*
X144979066Y-136382603D01*
X144991760Y-136386879D01*
X145004056Y-136392800D01*
X145001407Y-136395776D01*
X144981633Y-136396636D01*
X144966360Y-136396553D01*
X144934094Y-136394921D01*
X144888938Y-136390992D01*
X144838103Y-136385443D01*
X144808880Y-136381753D01*
X144612376Y-136354519D01*
X144433182Y-136327458D01*
X144268303Y-136299967D01*
X144114743Y-136271448D01*
X143969507Y-136241299D01*
X143829600Y-136208919D01*
X143692026Y-136173708D01*
X143553790Y-136135064D01*
X143500396Y-136119335D01*
X143181196Y-136014774D01*
X142870973Y-135894550D01*
X142570527Y-135759252D01*
X142280660Y-135609467D01*
X142002173Y-135445782D01*
X141735867Y-135268785D01*
X141482543Y-135079064D01*
X141243002Y-134877206D01*
X141018045Y-134663798D01*
X140808474Y-134439428D01*
X140615089Y-134204684D01*
X140438693Y-133960152D01*
X140334259Y-133797440D01*
X140235121Y-133630104D01*
X140142839Y-133463839D01*
X140059249Y-133302181D01*
X139986188Y-133148665D01*
X139932512Y-133024216D01*
X139906698Y-132960887D01*
X139879337Y-132893829D01*
X139853172Y-132829759D01*
X139830944Y-132775391D01*
X139824473Y-132759584D01*
X139799205Y-132693925D01*
X139771157Y-132614051D01*
X139740884Y-132522056D01*
X139708940Y-132420033D01*
X139675878Y-132310074D01*
X139642252Y-132194272D01*
X139608617Y-132074721D01*
X139575527Y-131953511D01*
X139543534Y-131832738D01*
X139513194Y-131714493D01*
X139485060Y-131600869D01*
X139459687Y-131493959D01*
X139437627Y-131395856D01*
X139419435Y-131308653D01*
X139405666Y-131234442D01*
X139396872Y-131175317D01*
X139393608Y-131133369D01*
X139393600Y-131131711D01*
X139391970Y-131109957D01*
X139387138Y-131108010D01*
X139379190Y-131125624D01*
X139368213Y-131162553D01*
X139354292Y-131218552D01*
X139338696Y-131287920D01*
X139274410Y-131630679D01*
X139230433Y-131972801D01*
X139206767Y-132314306D01*
X139203411Y-132655215D01*
X139220365Y-132995552D01*
X139257631Y-133335337D01*
X139315208Y-133674593D01*
X139384606Y-133980320D01*
X139399523Y-134035301D01*
X139419674Y-134104206D01*
X139443762Y-134183050D01*
X139470491Y-134267848D01*
X139498566Y-134354615D01*
X139526690Y-134439366D01*
X139553569Y-134518116D01*
X139577905Y-134586880D01*
X139598405Y-134641673D01*
X139605122Y-134658500D01*
X139616280Y-134687257D01*
X139622591Y-134706623D01*
X139623028Y-134711840D01*
X139614759Y-134704165D01*
X139596039Y-134682727D01*
X139568763Y-134649905D01*
X139534823Y-134608077D01*
X139496111Y-134559624D01*
X139454521Y-134506924D01*
X139411943Y-134452356D01*
X139370272Y-134398300D01*
X139331400Y-134347135D01*
X139307822Y-134315600D01*
X139080750Y-133993995D01*
X138873548Y-133668309D01*
X138686225Y-133338558D01*
X138518787Y-133004764D01*
X138371244Y-132666945D01*
X138243601Y-132325120D01*
X138135868Y-131979308D01*
X138048051Y-131629529D01*
X137980159Y-131275802D01*
X137932199Y-130918146D01*
X137928945Y-130886600D01*
X137923962Y-130821488D01*
X137920230Y-130740447D01*
X137917749Y-130647828D01*
X137916518Y-130547984D01*
X137916538Y-130445266D01*
X137917807Y-130344027D01*
X137920325Y-130248617D01*
X137924094Y-130163390D01*
X137928983Y-130094120D01*
X137966803Y-129773319D01*
X138021725Y-129459378D01*
X138093368Y-129153063D01*
X138165289Y-128909532D01*
X143229000Y-128909532D01*
X144679398Y-128910006D01*
X146129797Y-128910480D01*
X146294838Y-128807201D01*
X146430922Y-128723734D01*
X146574418Y-128638792D01*
X146718645Y-128556230D01*
X146856921Y-128479901D01*
X146927210Y-128442397D01*
X147065497Y-128369648D01*
X147058787Y-128337804D01*
X147045785Y-128293647D01*
X147023959Y-128238373D01*
X146995883Y-128177686D01*
X146964132Y-128117292D01*
X146943225Y-128081676D01*
X146853551Y-127954799D01*
X146750459Y-127843020D01*
X146634348Y-127746539D01*
X146505616Y-127665555D01*
X146364664Y-127600267D01*
X146211890Y-127550875D01*
X146047694Y-127517579D01*
X145872474Y-127500576D01*
X145775061Y-127498240D01*
X145613142Y-127506881D01*
X145461151Y-127532698D01*
X145319503Y-127575533D01*
X145188614Y-127635227D01*
X145068901Y-127711621D01*
X144960779Y-127804556D01*
X144953518Y-127811815D01*
X144923128Y-127843028D01*
X144899333Y-127868476D01*
X144884983Y-127885048D01*
X144882128Y-127889775D01*
X144892396Y-127888067D01*
X144917029Y-127880958D01*
X144951247Y-127869858D01*
X144961280Y-127866439D01*
X145059267Y-127842961D01*
X145157238Y-127839600D01*
X145253981Y-127856187D01*
X145348285Y-127892553D01*
X145411152Y-127928992D01*
X145439165Y-127949578D01*
X145472331Y-127976921D01*
X145507096Y-128007689D01*
X145539908Y-128038553D01*
X145567214Y-128066183D01*
X145585459Y-128087249D01*
X145591200Y-128097737D01*
X145581831Y-128102146D01*
X145556502Y-128108433D01*
X145519377Y-128115670D01*
X145485902Y-128121223D01*
X145377780Y-128143135D01*
X145264038Y-128175335D01*
X145154475Y-128214872D01*
X145106860Y-128235310D01*
X145006258Y-128286186D01*
X144899152Y-128349237D01*
X144791410Y-128420519D01*
X144688899Y-128496085D01*
X144597486Y-128571992D01*
X144573221Y-128594131D01*
X144506151Y-128656871D01*
X144515189Y-128616647D01*
X144549392Y-128509524D01*
X144601273Y-128410899D01*
X144669531Y-128322006D01*
X144752865Y-128244080D01*
X144849976Y-128178356D01*
X144959563Y-128126070D01*
X145068271Y-128091400D01*
X145103471Y-128082127D01*
X145121410Y-128075701D01*
X145124655Y-128070530D01*
X145115776Y-128065024D01*
X145112879Y-128063788D01*
X145091181Y-128059325D01*
X145053328Y-128056102D01*
X145003444Y-128054101D01*
X144945656Y-128053302D01*
X144884090Y-128053685D01*
X144822869Y-128055230D01*
X144766121Y-128057917D01*
X144717970Y-128061728D01*
X144686960Y-128065822D01*
X144636703Y-128075097D01*
X144582357Y-128085840D01*
X144542054Y-128094349D01*
X144473349Y-128109525D01*
X144401461Y-128206435D01*
X144315314Y-128313547D01*
X144222814Y-128410265D01*
X144121974Y-128497886D01*
X144010805Y-128577705D01*
X143887320Y-128651020D01*
X143749532Y-128719127D01*
X143595452Y-128783322D01*
X143423095Y-128844901D01*
X143422040Y-128845252D01*
X143229000Y-128909532D01*
X138165289Y-128909532D01*
X138181352Y-128855142D01*
X138285294Y-128566383D01*
X138404813Y-128287553D01*
X138539530Y-128019419D01*
X138689061Y-127762749D01*
X138853026Y-127518311D01*
X139031044Y-127286872D01*
X139222734Y-127069199D01*
X139427715Y-126866060D01*
X139611962Y-126705516D01*
X139721403Y-126618638D01*
X139823178Y-126544530D01*
X139922350Y-126480125D01*
X140023983Y-126422354D01*
X140133137Y-126368148D01*
X140254877Y-126314439D01*
X140262280Y-126311338D01*
X140389800Y-126261232D01*
X140520492Y-126215822D01*
X140651160Y-126175913D01*
X140778608Y-126142312D01*
X140899642Y-126115823D01*
X141011065Y-126097252D01*
X141109683Y-126087406D01*
X141156099Y-126086000D01*
X141212329Y-126087242D01*
X141257379Y-126090728D01*
X141288461Y-126096097D01*
X141302786Y-126102990D01*
X141303420Y-126105050D01*
X141295315Y-126113025D01*
X141273949Y-126128746D01*
X141243365Y-126149298D01*
X141231399Y-126156986D01*
X141120010Y-126239664D01*
X141018711Y-126339429D01*
X140927999Y-126455454D01*
X140848372Y-126586913D01*
X140780326Y-126732978D01*
X140724360Y-126892822D01*
X140680970Y-127065620D01*
X140679032Y-127075115D01*
X140664098Y-127160205D01*
X140650530Y-127258781D01*
X140638633Y-127366509D01*
X140628712Y-127479055D01*
X140621073Y-127592086D01*
X140616021Y-127701266D01*
X140613862Y-127802262D01*
X140614900Y-127890739D01*
X140617803Y-127944307D01*
X140625073Y-128036169D01*
X140723076Y-127947387D01*
X140974900Y-127732071D01*
X141239322Y-127530595D01*
X141514727Y-127343861D01*
X141799497Y-127172772D01*
X142092018Y-127018232D01*
X142390674Y-126881142D01*
X142693848Y-126762405D01*
X142785031Y-126732769D01*
X146376448Y-126732769D01*
X146388864Y-126852642D01*
X146418602Y-126965455D01*
X146465085Y-127069524D01*
X146527738Y-127163165D01*
X146597332Y-127237005D01*
X146687028Y-127305329D01*
X146783938Y-127354736D01*
X146887485Y-127385078D01*
X146997090Y-127396204D01*
X147112178Y-127387966D01*
X147152598Y-127380697D01*
X147282788Y-127344767D01*
X147412845Y-127291454D01*
X147489057Y-127251688D01*
X147528773Y-127228260D01*
X147573137Y-127200635D01*
X147618895Y-127171019D01*
X147662793Y-127141623D01*
X147701574Y-127114653D01*
X147731983Y-127092320D01*
X147750766Y-127076830D01*
X147755267Y-127071078D01*
X147746903Y-127064462D01*
X147723750Y-127049664D01*
X147688731Y-127028464D01*
X147644770Y-127002642D01*
X147609597Y-126982402D01*
X147463914Y-126899246D01*
X147373377Y-126936950D01*
X147332752Y-126953399D01*
X147300965Y-126964215D01*
X147271528Y-126970584D01*
X147237956Y-126973691D01*
X147193759Y-126974721D01*
X147166000Y-126974827D01*
X147097895Y-126972912D01*
X147045566Y-126965999D01*
X147004791Y-126952684D01*
X146971345Y-126931560D01*
X146941005Y-126901220D01*
X146939467Y-126899403D01*
X146909402Y-126851004D01*
X146886041Y-126787514D01*
X146870164Y-126713280D01*
X146862547Y-126632648D01*
X146863971Y-126549965D01*
X146868880Y-126505244D01*
X146873291Y-126469956D01*
X146873243Y-126449871D01*
X146868257Y-126440267D01*
X146862038Y-126437379D01*
X146843497Y-126433626D01*
X146810031Y-126428219D01*
X146765236Y-126421624D01*
X146712707Y-126414305D01*
X146656042Y-126406730D01*
X146598837Y-126399362D01*
X146544687Y-126392667D01*
X146497189Y-126387111D01*
X146459940Y-126383159D01*
X146436534Y-126381277D01*
X146430237Y-126381495D01*
X146422952Y-126396964D01*
X146413996Y-126428143D01*
X146404320Y-126470590D01*
X146394872Y-126519864D01*
X146386602Y-126571524D01*
X146381931Y-126607520D01*
X146376448Y-126732769D01*
X142785031Y-126732769D01*
X142999925Y-126662925D01*
X143045481Y-126649862D01*
X143202474Y-126608812D01*
X143368714Y-126571134D01*
X143537382Y-126538156D01*
X143701661Y-126511207D01*
X143854733Y-126491614D01*
X143861460Y-126490904D01*
X143908957Y-126485471D01*
X143948098Y-126480090D01*
X143975020Y-126475356D01*
X143985862Y-126471867D01*
X143985920Y-126471671D01*
X143977177Y-126464400D01*
X143953552Y-126451195D01*
X143918950Y-126433861D01*
X143877278Y-126414206D01*
X143832440Y-126394037D01*
X143788343Y-126375160D01*
X143748891Y-126359382D01*
X143723469Y-126350261D01*
X143559574Y-126306563D01*
X143386406Y-126280060D01*
X143205427Y-126270695D01*
X143018101Y-126278411D01*
X142825891Y-126303149D01*
X142630258Y-126344854D01*
X142441600Y-126400460D01*
X142344770Y-126434931D01*
X142243113Y-126474841D01*
X142139779Y-126518678D01*
X142037920Y-126564930D01*
X141940686Y-126612086D01*
X141851228Y-126658632D01*
X141772698Y-126703059D01*
X141708247Y-126743853D01*
X141674223Y-126768626D01*
X141603084Y-126822783D01*
X141545291Y-126862591D01*
X141500208Y-126888445D01*
X141467196Y-126900740D01*
X141459475Y-126901850D01*
X141438763Y-126900509D01*
X141430033Y-126888444D01*
X141427773Y-126873400D01*
X141431803Y-126844940D01*
X141446851Y-126803191D01*
X141471366Y-126750831D01*
X141503797Y-126690539D01*
X141542595Y-126624992D01*
X141586207Y-126556868D01*
X141633084Y-126488846D01*
X141681676Y-126423603D01*
X141705729Y-126393352D01*
X141775806Y-126307701D01*
X141836075Y-126235449D01*
X141889298Y-126174031D01*
X141938241Y-126120880D01*
X141985666Y-126073434D01*
X142034337Y-126029126D01*
X142087019Y-125985392D01*
X142146476Y-125939666D01*
X142215470Y-125889385D01*
X142296766Y-125831982D01*
X142352540Y-125793097D01*
X142441357Y-125729677D01*
X142513083Y-125674599D01*
X142568661Y-125626835D01*
X142609032Y-125585358D01*
X142635138Y-125549143D01*
X142647920Y-125517162D01*
X142648320Y-125488388D01*
X142644249Y-125475070D01*
X142636206Y-125459355D01*
X142624586Y-125446033D01*
X142606560Y-125433707D01*
X142579302Y-125420984D01*
X142539982Y-125406468D01*
X142485773Y-125388764D01*
X142440999Y-125374820D01*
X142243108Y-125318480D01*
X142046065Y-125272197D01*
X141842969Y-125234513D01*
X141638858Y-125205440D01*
X141588407Y-125199821D01*
X141535796Y-125195393D01*
X141477913Y-125192039D01*
X141411645Y-125189641D01*
X141333878Y-125188081D01*
X141241500Y-125187242D01*
X141151280Y-125187008D01*
X141038000Y-125187280D01*
X140940988Y-125188392D01*
X140856199Y-125190608D01*
X140779590Y-125194190D01*
X140707116Y-125199403D01*
X140634734Y-125206508D01*
X140558399Y-125215769D01*
X140474067Y-125227449D01*
X140429920Y-125233938D01*
X140124218Y-125289199D01*
X139816561Y-125363892D01*
X139508268Y-125457393D01*
X139200659Y-125569081D01*
X138895055Y-125698332D01*
X138592777Y-125844524D01*
X138295142Y-126007035D01*
X138003474Y-126185242D01*
X137719090Y-126378522D01*
X137443312Y-126586252D01*
X137280435Y-126719327D01*
X137237784Y-126754878D01*
X137200802Y-126784985D01*
X137172136Y-126807548D01*
X137154436Y-126820471D01*
X137149997Y-126822664D01*
X137151571Y-126811038D01*
X137162308Y-126785456D01*
X137180487Y-126749126D01*
X137204390Y-126705252D01*
X137232299Y-126657041D01*
X137262493Y-126607699D01*
X137279403Y-126581315D01*
X137422685Y-126375974D01*
X137579042Y-126179481D01*
X137749918Y-125990327D01*
X137936761Y-125807005D01*
X138141016Y-125628007D01*
X138359276Y-125455481D01*
X138649309Y-125249508D01*
X138953451Y-125058111D01*
X139271627Y-124881313D01*
X139603763Y-124719138D01*
X139949785Y-124571608D01*
X140309619Y-124438748D01*
X140683191Y-124320580D01*
X141070427Y-124217129D01*
X141471253Y-124128416D01*
X141885595Y-124054467D01*
X142313379Y-123995303D01*
X142754532Y-123950949D01*
X143208978Y-123921428D01*
X143218840Y-123920959D01*
X143320316Y-123917201D01*
X143433311Y-123914816D01*
X143554160Y-123913750D01*
X143679195Y-123913949D01*
X143679195Y-123913949D01*
G37*
X143679195Y-123913949D02*
X143804752Y-123915360D01*
X143927164Y-123917931D01*
X144042764Y-123921608D01*
X144147886Y-123926338D01*
X144238865Y-123932068D01*
X144290720Y-123936502D01*
X144640001Y-123977468D01*
X144979140Y-124031175D01*
X145311686Y-124098481D01*
X145641183Y-124180240D01*
X145971180Y-124277310D01*
X146305223Y-124390547D01*
X146546240Y-124481012D01*
X146615877Y-124507993D01*
X146691717Y-124537111D01*
X146766726Y-124565682D01*
X146833871Y-124591023D01*
X146865941Y-124602998D01*
X147125107Y-124709654D01*
X147376903Y-124834056D01*
X147620042Y-124975188D01*
X147853236Y-125132035D01*
X148075196Y-125303579D01*
X148284635Y-125488806D01*
X148480264Y-125686699D01*
X148660797Y-125896243D01*
X148824945Y-126116422D01*
X148870911Y-126184563D01*
X148935684Y-126283220D01*
X148990382Y-126367412D01*
X149036333Y-126439497D01*
X149074862Y-126501832D01*
X149107295Y-126556774D01*
X149134958Y-126606680D01*
X149159177Y-126653907D01*
X149181277Y-126700812D01*
X149202585Y-126749752D01*
X149224427Y-126803084D01*
X149237779Y-126836749D01*
X149257740Y-126890212D01*
X149281911Y-126959345D01*
X149309050Y-127040241D01*
X149337912Y-127128995D01*
X149367254Y-127221703D01*
X149395833Y-127314458D01*
X149422405Y-127403355D01*
X149445727Y-127484490D01*
X149456721Y-127524398D01*
X149478211Y-127603055D01*
X149496015Y-127665722D01*
X149511363Y-127716125D01*
X149525482Y-127757992D01*
X149539603Y-127795049D01*
X149554954Y-127831022D01*
X149565360Y-127853838D01*
X149642470Y-127998681D01*
X149736817Y-128140129D01*
X149845321Y-128274431D01*
X149964901Y-128397837D01*
X150092477Y-128506597D01*
X150115857Y-128524184D01*
X150195416Y-128590001D01*
X150263407Y-128662833D01*
X150323662Y-128747302D01*
X150373184Y-128834650D01*
X150434485Y-128975122D01*
X150478826Y-129125248D01*
X150506309Y-129283651D01*
X150517039Y-129448954D01*
X150511120Y-129619778D01*
X150488655Y-129794748D01*
X150449747Y-129972486D01*
X150394502Y-130151614D01*
X150323023Y-130330755D01*
X150248895Y-130483304D01*
X150219321Y-130537644D01*
X150187698Y-130592803D01*
X150156153Y-130645358D01*
X150126815Y-130691887D01*
X150101811Y-130728969D01*
X150083270Y-130753180D01*
X150077364Y-130759164D01*
X150065596Y-130762701D01*
X150049435Y-130756083D01*
X150027838Y-130738163D01*
X149999759Y-130707798D01*
X149964153Y-130663842D01*
X149919976Y-130605150D01*
X149866181Y-130530576D01*
X149857119Y-130517810D01*
X149761438Y-130388504D01*
X149669539Y-130276758D01*
X149579267Y-130180696D01*
X149488469Y-130098447D01*
X149394988Y-130028136D01*
X149296671Y-129967888D01*
X149191362Y-129915832D01*
X149139750Y-129894028D01*
X149086398Y-129873483D01*
X149030134Y-129853832D01*
X148968133Y-129834264D01*
X148897569Y-129813966D01*
X148815619Y-129792126D01*
X148719455Y-129767934D01*
X148606253Y-129740576D01*
X148603640Y-129739953D01*
X148488977Y-129712014D01*
X148390586Y-129686497D01*
X148304731Y-129662281D01*
X148227676Y-129638243D01*
X148155684Y-129613261D01*
X148085018Y-129586215D01*
X148065829Y-129578473D01*
X147964898Y-129537349D01*
X147801669Y-129549097D01*
X147741045Y-129554276D01*
X147666280Y-129561933D01*
X147583306Y-129571385D01*
X147498056Y-129581951D01*
X147416460Y-129592947D01*
X147399443Y-129595377D01*
X147323227Y-129606165D01*
X147245586Y-129616755D01*
X147171479Y-129626499D01*
X147105867Y-129634751D01*
X147053707Y-129640861D01*
X147039931Y-129642335D01*
X146963728Y-129647823D01*
X146876901Y-129650173D01*
X146785189Y-129649544D01*
X146694331Y-129646099D01*
X146610063Y-129639999D01*
X146538125Y-129631403D01*
X146515760Y-129627619D01*
X146332872Y-129602881D01*
X146141604Y-129595206D01*
X145944197Y-129604334D01*
X145742895Y-129630006D01*
X145539942Y-129671964D01*
X145337581Y-129729948D01*
X145198142Y-129779679D01*
X144973405Y-129876445D01*
X144748322Y-129993038D01*
X144523632Y-130128997D01*
X144300073Y-130283858D01*
X144078384Y-130457158D01*
X143968101Y-130550901D01*
X143863863Y-130641923D01*
X143870064Y-130693141D01*
X143881722Y-130761251D01*
X143901498Y-130843829D01*
X143928263Y-130937247D01*
X143960889Y-131037880D01*
X143998249Y-131142098D01*
X144039217Y-131246276D01*
X144050203Y-131272631D01*
X144121756Y-131430992D01*
X144197214Y-131576755D01*
X144275671Y-131708582D01*
X144356221Y-131825136D01*
X144437958Y-131925079D01*
X144519977Y-132007072D01*
X144580445Y-132055496D01*
X144637474Y-132090674D01*
X144714246Y-132128964D01*
X144810444Y-132170228D01*
X144925752Y-132214327D01*
X145022240Y-132248378D01*
X145156223Y-132291007D01*
X145283630Y-132324245D01*
X145410159Y-132349096D01*
X145541512Y-132366566D01*
X145683387Y-132377659D01*
X145779160Y-132381775D01*
X146000538Y-132380158D01*
X146217079Y-132361433D01*
X146427653Y-132326128D01*
X146631130Y-132274770D01*
X146826380Y-132207887D01*
X147012275Y-132126007D01*
X147187685Y-132029656D01*
X147351480Y-131919364D01*
X147502530Y-131795656D01*
X147639707Y-131659060D01*
X147761881Y-131510105D01*
X147818105Y-131429464D01*
X147870358Y-131344877D01*
X147917104Y-131257338D01*
X147961035Y-131161347D01*
X148004844Y-131051404D01*
X148010212Y-131037034D01*
X148036793Y-130966402D01*
X148056981Y-130915002D01*
X148070839Y-130882801D01*
X148078435Y-130869764D01*
X148079835Y-130875859D01*
X148075103Y-130901052D01*
X148064306Y-130945309D01*
X148047509Y-131008596D01*
X148044542Y-131019488D01*
X148005056Y-131157629D01*
X147961781Y-131297515D01*
X147915942Y-131435732D01*
X147868763Y-131568864D01*
X147821469Y-131693496D01*
X147775284Y-131806212D01*
X147731432Y-131903597D01*
X147717048Y-131933055D01*
X147613018Y-132121683D01*
X147496243Y-132297924D01*
X147367762Y-132460828D01*
X147228613Y-132609449D01*
X147079835Y-132742840D01*
X146922467Y-132860051D01*
X146757547Y-132960136D01*
X146586113Y-133042147D01*
X146444363Y-133094302D01*
X146323063Y-133127837D01*
X146196912Y-133153091D01*
X146071688Y-133169269D01*
X145953170Y-133175577D01*
X145870600Y-133173242D01*
X145828116Y-133169526D01*
X145777127Y-133164008D01*
X145721174Y-133157196D01*
X145663798Y-133149596D01*
X145608542Y-133141716D01*
X145558947Y-133134063D01*
X145518554Y-133127143D01*
X145490906Y-133121464D01*
X145479544Y-133117533D01*
X145479440Y-133117250D01*
X145488727Y-133112925D01*
X145513835Y-133105843D01*
X145550628Y-133097083D01*
X145583580Y-133090027D01*
X145668746Y-133069054D01*
X145745052Y-133043386D01*
X145810950Y-133014126D01*
X145864894Y-132982381D01*
X145905336Y-132949255D01*
X145930731Y-132915855D01*
X145939531Y-132883285D01*
X145930191Y-132852650D01*
X145925210Y-132845868D01*
X145908175Y-132832263D01*
X145879871Y-132815952D01*
X145860440Y-132806695D01*
X145841788Y-132798874D01*
X145822099Y-132791614D01*
X145798838Y-132784266D01*
X145769470Y-132776184D01*
X145731459Y-132766721D01*
X145682271Y-132755230D01*
X145619370Y-132741065D01*
X145540221Y-132723578D01*
X145500630Y-132714892D01*
X145380161Y-132686299D01*
X145278256Y-132657138D01*
X145193159Y-132626660D01*
X145123115Y-132594117D01*
X145066369Y-132558758D01*
X145021165Y-132519836D01*
X145006867Y-132504210D01*
X144985402Y-132480601D01*
X144970595Y-132470313D01*
X144956712Y-132470561D01*
X144946161Y-132474735D01*
X144927399Y-132487024D01*
X144920640Y-132497911D01*
X144929520Y-132515387D01*
X144955036Y-132540327D01*
X144995500Y-132571415D01*
X145049224Y-132607331D01*
X145101129Y-132638954D01*
X145157298Y-132671973D01*
X145221621Y-132709817D01*
X145284753Y-132746985D01*
X145321960Y-132768907D01*
X145397204Y-132814836D01*
X145454177Y-132853300D01*
X145493309Y-132884784D01*
X145515029Y-132909769D01*
X145519768Y-132928738D01*
X145507956Y-132942175D01*
X145483302Y-132949978D01*
X145446512Y-132952934D01*
X145396264Y-132951666D01*
X145338855Y-132946709D01*
X145280579Y-132938596D01*
X145230520Y-132928542D01*
X145173567Y-132918205D01*
X145118388Y-132914221D01*
X145070912Y-132916698D01*
X145038644Y-132924997D01*
X145016563Y-132942631D01*
X145001020Y-132966491D01*
X144995983Y-133003475D01*
X145005876Y-133051108D01*
X145029650Y-133107484D01*
X145066258Y-133170695D01*
X145114654Y-133238835D01*
X145173789Y-133309997D01*
X145212817Y-133352134D01*
X145333963Y-133466864D01*
X145465210Y-133569313D01*
X145607625Y-133659932D01*
X145762274Y-133739169D01*
X145930223Y-133807474D01*
X146112539Y-133865298D01*
X146310288Y-133913090D01*
X146524537Y-133951300D01*
X146683400Y-133972412D01*
X146732357Y-133976540D01*
X146801336Y-133979888D01*
X146890053Y-133982450D01*
X146998225Y-133984219D01*
X147125568Y-133985189D01*
X147226960Y-133985388D01*
X147345478Y-133985215D01*
X147446482Y-133984524D01*
X147532776Y-133983053D01*
X147607164Y-133980540D01*
X147672450Y-133976721D01*
X147731438Y-133971332D01*
X147786931Y-133964112D01*
X147841735Y-133954796D01*
X147898653Y-133943122D01*
X147960489Y-133928827D01*
X148030047Y-133911647D01*
X148040177Y-133909094D01*
X148265817Y-133841743D01*
X148486615Y-133755168D01*
X148701776Y-133650059D01*
X148910503Y-133527106D01*
X149111999Y-133386997D01*
X149305468Y-133230424D01*
X149490114Y-133058075D01*
X149665140Y-132870640D01*
X149829751Y-132668809D01*
X149983149Y-132453270D01*
X150124539Y-132224715D01*
X150245358Y-131999473D01*
X150292521Y-131903241D01*
X150332250Y-131817814D01*
X150367390Y-131736467D01*
X150400786Y-131652476D01*
X150435284Y-131559118D01*
X150453998Y-131506360D01*
X150471924Y-131456546D01*
X150487355Y-131416058D01*
X150499195Y-131387581D01*
X150506348Y-131373799D01*
X150507977Y-131374280D01*
X150506190Y-131391034D01*
X150500945Y-131423645D01*
X150492950Y-131468079D01*
X150482917Y-131520306D01*
X150477576Y-131547000D01*
X150399353Y-131885251D01*
X150303694Y-132214634D01*
X150190882Y-132534558D01*
X150061198Y-132844433D01*
X149914924Y-133143668D01*
X149752344Y-133431672D01*
X149573738Y-133707856D01*
X149379390Y-133971628D01*
X149235128Y-134147404D01*
X149157387Y-134234286D01*
X149080902Y-134311212D01*
X149000288Y-134383070D01*
X148910163Y-134454749D01*
X148839158Y-134506988D01*
X148638261Y-134638696D01*
X148423742Y-134755613D01*
X148195981Y-134857678D01*
X147955355Y-134944828D01*
X147702246Y-135017000D01*
X147437030Y-135074131D01*
X147160087Y-135116158D01*
X146871796Y-135143019D01*
X146572537Y-135154652D01*
X146262686Y-135150993D01*
X145942625Y-135131979D01*
X145612731Y-135097549D01*
X145425915Y-135071821D01*
X145369234Y-135063629D01*
X145319891Y-135057015D01*
X145281239Y-135052384D01*
X145256629Y-135050145D01*
X145249302Y-135050351D01*
X145256449Y-135055677D01*
X145279022Y-135067245D01*
X145313702Y-135083458D01*
X145357166Y-135102718D01*
X145366847Y-135106892D01*
X145625408Y-135208663D01*
X145897218Y-135298028D01*
X146178650Y-135373898D01*
X146449720Y-135432125D01*
X146578628Y-135455518D01*
X146697846Y-135474995D01*
X146811377Y-135490936D01*
X146923223Y-135503716D01*
X147037387Y-135513714D01*
X147157870Y-135521307D01*
X147288676Y-135526871D01*
X147433807Y-135530785D01*
X147511440Y-135532216D01*
X147614149Y-135534093D01*
X147699006Y-135536108D01*
X147765571Y-135538243D01*
X147813405Y-135540479D01*
X147842070Y-135542797D01*
X147851125Y-135545178D01*
X147846720Y-135546673D01*
X147821264Y-135550937D01*
X147780196Y-135557403D01*
X147728014Y-135565381D01*
X147669219Y-135574179D01*
X147628280Y-135580203D01*
X147238710Y-135629810D01*
X146861182Y-135663070D01*
X146495699Y-135679981D01*
X146142263Y-135680545D01*
X145800877Y-135664763D01*
X145471545Y-135632633D01*
X145154270Y-135584157D01*
X144849055Y-135519335D01*
X144555903Y-135438167D01*
X144274816Y-135340654D01*
X144005799Y-135226796D01*
X143970680Y-135210302D01*
X143846319Y-135148265D01*
X143723961Y-135081637D01*
X143606766Y-135012402D01*
X143497894Y-134942544D01*
X143400504Y-134874047D01*
X143317757Y-134808894D01*
X143284072Y-134779303D01*
X143244889Y-134744381D01*
X143208190Y-134713499D01*
X143178013Y-134689940D01*
X143158398Y-134676990D01*
X143157988Y-134676786D01*
X143137072Y-134667726D01*
X143127826Y-134669308D01*
X143124103Y-134682153D01*
X143127842Y-134708273D01*
X143144080Y-134745898D01*
X143170870Y-134792244D01*
X143206265Y-134844525D01*
X143248319Y-134899955D01*
X143295086Y-134955749D01*
X143344619Y-135009121D01*
X143370328Y-135034520D01*
X143520078Y-135165334D01*
X143683469Y-135284309D01*
X143861023Y-135391669D01*
X144053262Y-135487634D01*
X144260707Y-135572428D01*
X144483882Y-135646274D01*
X144723307Y-135709392D01*
X144979506Y-135762007D01*
X145139080Y-135788264D01*
X145219212Y-135799358D01*
X145312372Y-135810637D01*
X145414908Y-135821791D01*
X145523172Y-135832505D01*
X145633512Y-135842467D01*
X145742281Y-135851364D01*
X145845828Y-135858884D01*
X145940503Y-135864714D01*
X146022658Y-135868540D01*
X146088641Y-135870051D01*
X146093612Y-135870063D01*
X146133409Y-135870959D01*
X146153803Y-135873478D01*
X146155629Y-135877403D01*
X146139718Y-135882516D01*
X146106906Y-135888599D01*
X146058025Y-135895435D01*
X145993909Y-135902806D01*
X145951880Y-135907065D01*
X145864981Y-135913891D01*
X145762298Y-135919264D01*
X145647691Y-135923185D01*
X145525016Y-135925651D01*
X145398132Y-135926663D01*
X145270899Y-135926219D01*
X145147174Y-135924318D01*
X145030816Y-135920959D01*
X144925683Y-135916141D01*
X144835633Y-135909863D01*
X144808880Y-135907369D01*
X144469399Y-135865211D01*
X144142791Y-135808304D01*
X143827501Y-135736212D01*
X143521976Y-135648499D01*
X143224663Y-135544728D01*
X142934010Y-135424462D01*
X142705465Y-135316193D01*
X142638931Y-135282118D01*
X142566018Y-135243486D01*
X142491268Y-135202814D01*
X142419223Y-135162616D01*
X142354423Y-135125407D01*
X142301411Y-135093701D01*
X142284120Y-135082865D01*
X142253640Y-135063390D01*
X142279040Y-135092025D01*
X142300833Y-135113421D01*
X142336176Y-135144402D01*
X142382145Y-135182657D01*
X142435817Y-135225874D01*
X142494266Y-135271741D01*
X142554572Y-135317946D01*
X142613808Y-135362177D01*
X142669053Y-135402124D01*
X142688266Y-135415613D01*
X142905943Y-135557519D01*
X143142869Y-135693974D01*
X143399150Y-135825033D01*
X143674893Y-135950753D01*
X143838600Y-136019149D01*
X143945561Y-136060964D01*
X144064549Y-136104850D01*
X144191515Y-136149487D01*
X144322410Y-136193560D01*
X144453186Y-136235749D01*
X144579795Y-136274737D01*
X144698188Y-136309207D01*
X144804317Y-136337841D01*
X144859680Y-136351497D01*
X144906384Y-136362895D01*
X144947990Y-136373749D01*
X144979066Y-136382603D01*
X144991760Y-136386879D01*
X145004056Y-136392800D01*
X145001407Y-136395776D01*
X144981633Y-136396636D01*
X144966360Y-136396553D01*
X144934094Y-136394921D01*
X144888938Y-136390992D01*
X144838103Y-136385443D01*
X144808880Y-136381753D01*
X144612376Y-136354519D01*
X144433182Y-136327458D01*
X144268303Y-136299967D01*
X144114743Y-136271448D01*
X143969507Y-136241299D01*
X143829600Y-136208919D01*
X143692026Y-136173708D01*
X143553790Y-136135064D01*
X143500396Y-136119335D01*
X143181196Y-136014774D01*
X142870973Y-135894550D01*
X142570527Y-135759252D01*
X142280660Y-135609467D01*
X142002173Y-135445782D01*
X141735867Y-135268785D01*
X141482543Y-135079064D01*
X141243002Y-134877206D01*
X141018045Y-134663798D01*
X140808474Y-134439428D01*
X140615089Y-134204684D01*
X140438693Y-133960152D01*
X140334259Y-133797440D01*
X140235121Y-133630104D01*
X140142839Y-133463839D01*
X140059249Y-133302181D01*
X139986188Y-133148665D01*
X139932512Y-133024216D01*
X139906698Y-132960887D01*
X139879337Y-132893829D01*
X139853172Y-132829759D01*
X139830944Y-132775391D01*
X139824473Y-132759584D01*
X139799205Y-132693925D01*
X139771157Y-132614051D01*
X139740884Y-132522056D01*
X139708940Y-132420033D01*
X139675878Y-132310074D01*
X139642252Y-132194272D01*
X139608617Y-132074721D01*
X139575527Y-131953511D01*
X139543534Y-131832738D01*
X139513194Y-131714493D01*
X139485060Y-131600869D01*
X139459687Y-131493959D01*
X139437627Y-131395856D01*
X139419435Y-131308653D01*
X139405666Y-131234442D01*
X139396872Y-131175317D01*
X139393608Y-131133369D01*
X139393600Y-131131711D01*
X139391970Y-131109957D01*
X139387138Y-131108010D01*
X139379190Y-131125624D01*
X139368213Y-131162553D01*
X139354292Y-131218552D01*
X139338696Y-131287920D01*
X139274410Y-131630679D01*
X139230433Y-131972801D01*
X139206767Y-132314306D01*
X139203411Y-132655215D01*
X139220365Y-132995552D01*
X139257631Y-133335337D01*
X139315208Y-133674593D01*
X139384606Y-133980320D01*
X139399523Y-134035301D01*
X139419674Y-134104206D01*
X139443762Y-134183050D01*
X139470491Y-134267848D01*
X139498566Y-134354615D01*
X139526690Y-134439366D01*
X139553569Y-134518116D01*
X139577905Y-134586880D01*
X139598405Y-134641673D01*
X139605122Y-134658500D01*
X139616280Y-134687257D01*
X139622591Y-134706623D01*
X139623028Y-134711840D01*
X139614759Y-134704165D01*
X139596039Y-134682727D01*
X139568763Y-134649905D01*
X139534823Y-134608077D01*
X139496111Y-134559624D01*
X139454521Y-134506924D01*
X139411943Y-134452356D01*
X139370272Y-134398300D01*
X139331400Y-134347135D01*
X139307822Y-134315600D01*
X139080750Y-133993995D01*
X138873548Y-133668309D01*
X138686225Y-133338558D01*
X138518787Y-133004764D01*
X138371244Y-132666945D01*
X138243601Y-132325120D01*
X138135868Y-131979308D01*
X138048051Y-131629529D01*
X137980159Y-131275802D01*
X137932199Y-130918146D01*
X137928945Y-130886600D01*
X137923962Y-130821488D01*
X137920230Y-130740447D01*
X137917749Y-130647828D01*
X137916518Y-130547984D01*
X137916538Y-130445266D01*
X137917807Y-130344027D01*
X137920325Y-130248617D01*
X137924094Y-130163390D01*
X137928983Y-130094120D01*
X137966803Y-129773319D01*
X138021725Y-129459378D01*
X138093368Y-129153063D01*
X138165289Y-128909532D01*
X143229000Y-128909532D01*
X144679398Y-128910006D01*
X146129797Y-128910480D01*
X146294838Y-128807201D01*
X146430922Y-128723734D01*
X146574418Y-128638792D01*
X146718645Y-128556230D01*
X146856921Y-128479901D01*
X146927210Y-128442397D01*
X147065497Y-128369648D01*
X147058787Y-128337804D01*
X147045785Y-128293647D01*
X147023959Y-128238373D01*
X146995883Y-128177686D01*
X146964132Y-128117292D01*
X146943225Y-128081676D01*
X146853551Y-127954799D01*
X146750459Y-127843020D01*
X146634348Y-127746539D01*
X146505616Y-127665555D01*
X146364664Y-127600267D01*
X146211890Y-127550875D01*
X146047694Y-127517579D01*
X145872474Y-127500576D01*
X145775061Y-127498240D01*
X145613142Y-127506881D01*
X145461151Y-127532698D01*
X145319503Y-127575533D01*
X145188614Y-127635227D01*
X145068901Y-127711621D01*
X144960779Y-127804556D01*
X144953518Y-127811815D01*
X144923128Y-127843028D01*
X144899333Y-127868476D01*
X144884983Y-127885048D01*
X144882128Y-127889775D01*
X144892396Y-127888067D01*
X144917029Y-127880958D01*
X144951247Y-127869858D01*
X144961280Y-127866439D01*
X145059267Y-127842961D01*
X145157238Y-127839600D01*
X145253981Y-127856187D01*
X145348285Y-127892553D01*
X145411152Y-127928992D01*
X145439165Y-127949578D01*
X145472331Y-127976921D01*
X145507096Y-128007689D01*
X145539908Y-128038553D01*
X145567214Y-128066183D01*
X145585459Y-128087249D01*
X145591200Y-128097737D01*
X145581831Y-128102146D01*
X145556502Y-128108433D01*
X145519377Y-128115670D01*
X145485902Y-128121223D01*
X145377780Y-128143135D01*
X145264038Y-128175335D01*
X145154475Y-128214872D01*
X145106860Y-128235310D01*
X145006258Y-128286186D01*
X144899152Y-128349237D01*
X144791410Y-128420519D01*
X144688899Y-128496085D01*
X144597486Y-128571992D01*
X144573221Y-128594131D01*
X144506151Y-128656871D01*
X144515189Y-128616647D01*
X144549392Y-128509524D01*
X144601273Y-128410899D01*
X144669531Y-128322006D01*
X144752865Y-128244080D01*
X144849976Y-128178356D01*
X144959563Y-128126070D01*
X145068271Y-128091400D01*
X145103471Y-128082127D01*
X145121410Y-128075701D01*
X145124655Y-128070530D01*
X145115776Y-128065024D01*
X145112879Y-128063788D01*
X145091181Y-128059325D01*
X145053328Y-128056102D01*
X145003444Y-128054101D01*
X144945656Y-128053302D01*
X144884090Y-128053685D01*
X144822869Y-128055230D01*
X144766121Y-128057917D01*
X144717970Y-128061728D01*
X144686960Y-128065822D01*
X144636703Y-128075097D01*
X144582357Y-128085840D01*
X144542054Y-128094349D01*
X144473349Y-128109525D01*
X144401461Y-128206435D01*
X144315314Y-128313547D01*
X144222814Y-128410265D01*
X144121974Y-128497886D01*
X144010805Y-128577705D01*
X143887320Y-128651020D01*
X143749532Y-128719127D01*
X143595452Y-128783322D01*
X143423095Y-128844901D01*
X143422040Y-128845252D01*
X143229000Y-128909532D01*
X138165289Y-128909532D01*
X138181352Y-128855142D01*
X138285294Y-128566383D01*
X138404813Y-128287553D01*
X138539530Y-128019419D01*
X138689061Y-127762749D01*
X138853026Y-127518311D01*
X139031044Y-127286872D01*
X139222734Y-127069199D01*
X139427715Y-126866060D01*
X139611962Y-126705516D01*
X139721403Y-126618638D01*
X139823178Y-126544530D01*
X139922350Y-126480125D01*
X140023983Y-126422354D01*
X140133137Y-126368148D01*
X140254877Y-126314439D01*
X140262280Y-126311338D01*
X140389800Y-126261232D01*
X140520492Y-126215822D01*
X140651160Y-126175913D01*
X140778608Y-126142312D01*
X140899642Y-126115823D01*
X141011065Y-126097252D01*
X141109683Y-126087406D01*
X141156099Y-126086000D01*
X141212329Y-126087242D01*
X141257379Y-126090728D01*
X141288461Y-126096097D01*
X141302786Y-126102990D01*
X141303420Y-126105050D01*
X141295315Y-126113025D01*
X141273949Y-126128746D01*
X141243365Y-126149298D01*
X141231399Y-126156986D01*
X141120010Y-126239664D01*
X141018711Y-126339429D01*
X140927999Y-126455454D01*
X140848372Y-126586913D01*
X140780326Y-126732978D01*
X140724360Y-126892822D01*
X140680970Y-127065620D01*
X140679032Y-127075115D01*
X140664098Y-127160205D01*
X140650530Y-127258781D01*
X140638633Y-127366509D01*
X140628712Y-127479055D01*
X140621073Y-127592086D01*
X140616021Y-127701266D01*
X140613862Y-127802262D01*
X140614900Y-127890739D01*
X140617803Y-127944307D01*
X140625073Y-128036169D01*
X140723076Y-127947387D01*
X140974900Y-127732071D01*
X141239322Y-127530595D01*
X141514727Y-127343861D01*
X141799497Y-127172772D01*
X142092018Y-127018232D01*
X142390674Y-126881142D01*
X142693848Y-126762405D01*
X142785031Y-126732769D01*
X146376448Y-126732769D01*
X146388864Y-126852642D01*
X146418602Y-126965455D01*
X146465085Y-127069524D01*
X146527738Y-127163165D01*
X146597332Y-127237005D01*
X146687028Y-127305329D01*
X146783938Y-127354736D01*
X146887485Y-127385078D01*
X146997090Y-127396204D01*
X147112178Y-127387966D01*
X147152598Y-127380697D01*
X147282788Y-127344767D01*
X147412845Y-127291454D01*
X147489057Y-127251688D01*
X147528773Y-127228260D01*
X147573137Y-127200635D01*
X147618895Y-127171019D01*
X147662793Y-127141623D01*
X147701574Y-127114653D01*
X147731983Y-127092320D01*
X147750766Y-127076830D01*
X147755267Y-127071078D01*
X147746903Y-127064462D01*
X147723750Y-127049664D01*
X147688731Y-127028464D01*
X147644770Y-127002642D01*
X147609597Y-126982402D01*
X147463914Y-126899246D01*
X147373377Y-126936950D01*
X147332752Y-126953399D01*
X147300965Y-126964215D01*
X147271528Y-126970584D01*
X147237956Y-126973691D01*
X147193759Y-126974721D01*
X147166000Y-126974827D01*
X147097895Y-126972912D01*
X147045566Y-126965999D01*
X147004791Y-126952684D01*
X146971345Y-126931560D01*
X146941005Y-126901220D01*
X146939467Y-126899403D01*
X146909402Y-126851004D01*
X146886041Y-126787514D01*
X146870164Y-126713280D01*
X146862547Y-126632648D01*
X146863971Y-126549965D01*
X146868880Y-126505244D01*
X146873291Y-126469956D01*
X146873243Y-126449871D01*
X146868257Y-126440267D01*
X146862038Y-126437379D01*
X146843497Y-126433626D01*
X146810031Y-126428219D01*
X146765236Y-126421624D01*
X146712707Y-126414305D01*
X146656042Y-126406730D01*
X146598837Y-126399362D01*
X146544687Y-126392667D01*
X146497189Y-126387111D01*
X146459940Y-126383159D01*
X146436534Y-126381277D01*
X146430237Y-126381495D01*
X146422952Y-126396964D01*
X146413996Y-126428143D01*
X146404320Y-126470590D01*
X146394872Y-126519864D01*
X146386602Y-126571524D01*
X146381931Y-126607520D01*
X146376448Y-126732769D01*
X142785031Y-126732769D01*
X142999925Y-126662925D01*
X143045481Y-126649862D01*
X143202474Y-126608812D01*
X143368714Y-126571134D01*
X143537382Y-126538156D01*
X143701661Y-126511207D01*
X143854733Y-126491614D01*
X143861460Y-126490904D01*
X143908957Y-126485471D01*
X143948098Y-126480090D01*
X143975020Y-126475356D01*
X143985862Y-126471867D01*
X143985920Y-126471671D01*
X143977177Y-126464400D01*
X143953552Y-126451195D01*
X143918950Y-126433861D01*
X143877278Y-126414206D01*
X143832440Y-126394037D01*
X143788343Y-126375160D01*
X143748891Y-126359382D01*
X143723469Y-126350261D01*
X143559574Y-126306563D01*
X143386406Y-126280060D01*
X143205427Y-126270695D01*
X143018101Y-126278411D01*
X142825891Y-126303149D01*
X142630258Y-126344854D01*
X142441600Y-126400460D01*
X142344770Y-126434931D01*
X142243113Y-126474841D01*
X142139779Y-126518678D01*
X142037920Y-126564930D01*
X141940686Y-126612086D01*
X141851228Y-126658632D01*
X141772698Y-126703059D01*
X141708247Y-126743853D01*
X141674223Y-126768626D01*
X141603084Y-126822783D01*
X141545291Y-126862591D01*
X141500208Y-126888445D01*
X141467196Y-126900740D01*
X141459475Y-126901850D01*
X141438763Y-126900509D01*
X141430033Y-126888444D01*
X141427773Y-126873400D01*
X141431803Y-126844940D01*
X141446851Y-126803191D01*
X141471366Y-126750831D01*
X141503797Y-126690539D01*
X141542595Y-126624992D01*
X141586207Y-126556868D01*
X141633084Y-126488846D01*
X141681676Y-126423603D01*
X141705729Y-126393352D01*
X141775806Y-126307701D01*
X141836075Y-126235449D01*
X141889298Y-126174031D01*
X141938241Y-126120880D01*
X141985666Y-126073434D01*
X142034337Y-126029126D01*
X142087019Y-125985392D01*
X142146476Y-125939666D01*
X142215470Y-125889385D01*
X142296766Y-125831982D01*
X142352540Y-125793097D01*
X142441357Y-125729677D01*
X142513083Y-125674599D01*
X142568661Y-125626835D01*
X142609032Y-125585358D01*
X142635138Y-125549143D01*
X142647920Y-125517162D01*
X142648320Y-125488388D01*
X142644249Y-125475070D01*
X142636206Y-125459355D01*
X142624586Y-125446033D01*
X142606560Y-125433707D01*
X142579302Y-125420984D01*
X142539982Y-125406468D01*
X142485773Y-125388764D01*
X142440999Y-125374820D01*
X142243108Y-125318480D01*
X142046065Y-125272197D01*
X141842969Y-125234513D01*
X141638858Y-125205440D01*
X141588407Y-125199821D01*
X141535796Y-125195393D01*
X141477913Y-125192039D01*
X141411645Y-125189641D01*
X141333878Y-125188081D01*
X141241500Y-125187242D01*
X141151280Y-125187008D01*
X141038000Y-125187280D01*
X140940988Y-125188392D01*
X140856199Y-125190608D01*
X140779590Y-125194190D01*
X140707116Y-125199403D01*
X140634734Y-125206508D01*
X140558399Y-125215769D01*
X140474067Y-125227449D01*
X140429920Y-125233938D01*
X140124218Y-125289199D01*
X139816561Y-125363892D01*
X139508268Y-125457393D01*
X139200659Y-125569081D01*
X138895055Y-125698332D01*
X138592777Y-125844524D01*
X138295142Y-126007035D01*
X138003474Y-126185242D01*
X137719090Y-126378522D01*
X137443312Y-126586252D01*
X137280435Y-126719327D01*
X137237784Y-126754878D01*
X137200802Y-126784985D01*
X137172136Y-126807548D01*
X137154436Y-126820471D01*
X137149997Y-126822664D01*
X137151571Y-126811038D01*
X137162308Y-126785456D01*
X137180487Y-126749126D01*
X137204390Y-126705252D01*
X137232299Y-126657041D01*
X137262493Y-126607699D01*
X137279403Y-126581315D01*
X137422685Y-126375974D01*
X137579042Y-126179481D01*
X137749918Y-125990327D01*
X137936761Y-125807005D01*
X138141016Y-125628007D01*
X138359276Y-125455481D01*
X138649309Y-125249508D01*
X138953451Y-125058111D01*
X139271627Y-124881313D01*
X139603763Y-124719138D01*
X139949785Y-124571608D01*
X140309619Y-124438748D01*
X140683191Y-124320580D01*
X141070427Y-124217129D01*
X141471253Y-124128416D01*
X141885595Y-124054467D01*
X142313379Y-123995303D01*
X142754532Y-123950949D01*
X143208978Y-123921428D01*
X143218840Y-123920959D01*
X143320316Y-123917201D01*
X143433311Y-123914816D01*
X143554160Y-123913750D01*
X143679195Y-123913949D01*
D11*
X236750000Y-138800000D02*
G75*
G02X250750000Y-138800000I7000000J0D01*
G01*
X250750000Y-140300000D02*
X250750000Y-138800000D01*
X236750000Y-140300000D02*
X236750000Y-138800000D01*
X250750000Y-140300000D02*
G75*
G02X236750000Y-140300000I-7000000J0D01*
G01*
X80400000Y-127135000D02*
X81200000Y-126335000D01*
X81200000Y-126335000D02*
X87100000Y-126335000D01*
X87100000Y-126335000D02*
X87100000Y-133965000D01*
X87100000Y-133965000D02*
X80400000Y-133965000D01*
X80400000Y-133965000D02*
X80400000Y-127135000D01*
D12*
X160195000Y-107160000D02*
X160195000Y-107460000D01*
X158775000Y-107160000D02*
X158775000Y-107460000D01*
X162585000Y-112240000D02*
X162585000Y-112540000D01*
X164005000Y-112240000D02*
X164005000Y-112540000D01*
X160195000Y-112240000D02*
X160195000Y-112540000D01*
X158775000Y-112240000D02*
X158775000Y-112540000D01*
X221850000Y-93910000D02*
X222150000Y-93910000D01*
X221850000Y-95330000D02*
X222150000Y-95330000D01*
X164005000Y-107460000D02*
X164005000Y-107160000D01*
X162585000Y-107460000D02*
X162585000Y-107160000D01*
X73590000Y-98790000D02*
X74890000Y-98790000D01*
X73590000Y-100610000D02*
X74890000Y-100610000D01*
X93810000Y-120910000D02*
X92510000Y-120910000D01*
X93810000Y-119090000D02*
X92510000Y-119090000D01*
X73690000Y-139390000D02*
X74990000Y-139390000D01*
X73690000Y-141210000D02*
X74990000Y-141210000D01*
X142440000Y-141210000D02*
X143740000Y-141210000D01*
X142440000Y-139390000D02*
X143740000Y-139390000D01*
X162560000Y-120910000D02*
X161260000Y-120910000D01*
X162560000Y-119090000D02*
X161260000Y-119090000D01*
X142440000Y-100610000D02*
X143740000Y-100610000D01*
X142440000Y-98790000D02*
X143740000Y-98790000D01*
X211190000Y-98790000D02*
X212490000Y-98790000D01*
X211190000Y-100610000D02*
X212490000Y-100610000D01*
X231310000Y-119090000D02*
X230010000Y-119090000D01*
X231310000Y-120910000D02*
X230010000Y-120910000D01*
X211190000Y-141210000D02*
X212490000Y-141210000D01*
X211190000Y-139390000D02*
X212490000Y-139390000D01*
X231310000Y-127970000D02*
X230010000Y-127970000D01*
X231310000Y-129790000D02*
X230010000Y-129790000D01*
X142500000Y-95900000D02*
X142500000Y-91800000D01*
X142500000Y-91800000D02*
X144500000Y-91800000D01*
X144500000Y-91800000D02*
X144500000Y-95900000D01*
X144500000Y-95900000D02*
X142500000Y-95900000D01*
X144700000Y-95150000D02*
X145000000Y-95450000D01*
X145000000Y-95450000D02*
X145000000Y-94850000D01*
X144700000Y-95150000D02*
X145000000Y-94850000D01*
X150700000Y-95150000D02*
X151000000Y-94850000D01*
X151000000Y-95450000D02*
X151000000Y-94850000D01*
X150700000Y-95150000D02*
X151000000Y-95450000D01*
X150500000Y-95900000D02*
X148500000Y-95900000D01*
X150500000Y-91800000D02*
X150500000Y-95900000D01*
X148500000Y-91800000D02*
X150500000Y-91800000D01*
X148500000Y-95900000D02*
X148500000Y-91800000D01*
X154500000Y-95900000D02*
X154500000Y-91800000D01*
X154500000Y-91800000D02*
X156500000Y-91800000D01*
X156500000Y-91800000D02*
X156500000Y-95900000D01*
X156500000Y-95900000D02*
X154500000Y-95900000D01*
X156700000Y-95150000D02*
X157000000Y-95450000D01*
X157000000Y-95450000D02*
X157000000Y-94850000D01*
X156700000Y-95150000D02*
X157000000Y-94850000D01*
X160500000Y-95900000D02*
X160500000Y-91800000D01*
X160500000Y-91800000D02*
X162500000Y-91800000D01*
X162500000Y-91800000D02*
X162500000Y-95900000D01*
X162500000Y-95900000D02*
X160500000Y-95900000D01*
X162700000Y-95150000D02*
X163000000Y-95450000D01*
X163000000Y-95450000D02*
X163000000Y-94850000D01*
X162700000Y-95150000D02*
X163000000Y-94850000D01*
X212600000Y-96200000D02*
X212600000Y-95270000D01*
X212600000Y-93040000D02*
X212600000Y-93970000D01*
X212600000Y-93040000D02*
X210440000Y-93040000D01*
X212600000Y-96200000D02*
X211140000Y-96200000D01*
X217070000Y-95330000D02*
X216770000Y-95330000D01*
X217070000Y-93910000D02*
X216770000Y-93910000D01*
X79170000Y-93910000D02*
X79470000Y-93910000D01*
X79170000Y-95330000D02*
X79470000Y-95330000D01*
X79170000Y-100410000D02*
X79470000Y-100410000D01*
X79170000Y-98990000D02*
X79470000Y-98990000D01*
X88230000Y-120710000D02*
X87930000Y-120710000D01*
X88230000Y-119290000D02*
X87930000Y-119290000D01*
X79270000Y-139590000D02*
X79570000Y-139590000D01*
X79270000Y-141010000D02*
X79570000Y-141010000D01*
X148020000Y-141010000D02*
X148320000Y-141010000D01*
X148020000Y-139590000D02*
X148320000Y-139590000D01*
X156980000Y-120710000D02*
X156680000Y-120710000D01*
X156980000Y-119290000D02*
X156680000Y-119290000D01*
X148020000Y-100410000D02*
X148320000Y-100410000D01*
X148020000Y-98990000D02*
X148320000Y-98990000D01*
X216770000Y-98990000D02*
X217070000Y-98990000D01*
X216770000Y-100410000D02*
X217070000Y-100410000D01*
X225730000Y-119290000D02*
X225430000Y-119290000D01*
X225730000Y-120710000D02*
X225430000Y-120710000D01*
X167815000Y-112240000D02*
X167815000Y-112540000D01*
X166395000Y-112240000D02*
X166395000Y-112540000D01*
X167815000Y-107160000D02*
X167815000Y-107460000D01*
X166395000Y-107160000D02*
X166395000Y-107460000D01*
X216770000Y-141010000D02*
X217070000Y-141010000D01*
X216770000Y-139590000D02*
X217070000Y-139590000D01*
X76525000Y-126265000D02*
X76225000Y-126265000D01*
X76525000Y-127685000D02*
X76225000Y-127685000D01*
X74395000Y-130000000D02*
X74395000Y-130300000D01*
X75815000Y-130000000D02*
X75815000Y-130300000D01*
X225730000Y-128170000D02*
X225430000Y-128170000D01*
X225730000Y-129590000D02*
X225430000Y-129590000D01*
X76525000Y-134035000D02*
X76225000Y-134035000D01*
X76525000Y-132615000D02*
X76225000Y-132615000D01*
D11*
X151738095Y-102052380D02*
X151738095Y-102861904D01*
X151785714Y-102957142D01*
X151833333Y-103004761D01*
X151928571Y-103052380D01*
X152119047Y-103052380D01*
X152214285Y-103004761D01*
X152261904Y-102957142D01*
X152309523Y-102861904D01*
X152309523Y-102052380D01*
X153309523Y-103052380D02*
X152738095Y-103052380D01*
X153023809Y-103052380D02*
X153023809Y-102052380D01*
X152928571Y-102195238D01*
X152833333Y-102290476D01*
X152738095Y-102338095D01*
X82988095Y-124787380D02*
X82988095Y-125596904D01*
X83035714Y-125692142D01*
X83083333Y-125739761D01*
X83178571Y-125787380D01*
X83369047Y-125787380D01*
X83464285Y-125739761D01*
X83511904Y-125692142D01*
X83559523Y-125596904D01*
X83559523Y-124787380D01*
X83988095Y-124882619D02*
X84035714Y-124835000D01*
X84130952Y-124787380D01*
X84369047Y-124787380D01*
X84464285Y-124835000D01*
X84511904Y-124882619D01*
X84559523Y-124977857D01*
X84559523Y-125073095D01*
X84511904Y-125215952D01*
X83940476Y-125787380D01*
X84559523Y-125787380D01*
X161747142Y-107476666D02*
X161794761Y-107524285D01*
X161842380Y-107667142D01*
X161842380Y-107762380D01*
X161794761Y-107905238D01*
X161699523Y-108000476D01*
X161604285Y-108048095D01*
X161413809Y-108095714D01*
X161270952Y-108095714D01*
X161080476Y-108048095D01*
X160985238Y-108000476D01*
X160890000Y-107905238D01*
X160842380Y-107762380D01*
X160842380Y-107667142D01*
X160890000Y-107524285D01*
X160937619Y-107476666D01*
X161842380Y-106524285D02*
X161842380Y-107095714D01*
X161842380Y-106810000D02*
X160842380Y-106810000D01*
X160985238Y-106905238D01*
X161080476Y-107000476D01*
X161128095Y-107095714D01*
X165557142Y-112556666D02*
X165604761Y-112604285D01*
X165652380Y-112747142D01*
X165652380Y-112842380D01*
X165604761Y-112985238D01*
X165509523Y-113080476D01*
X165414285Y-113128095D01*
X165223809Y-113175714D01*
X165080952Y-113175714D01*
X164890476Y-113128095D01*
X164795238Y-113080476D01*
X164700000Y-112985238D01*
X164652380Y-112842380D01*
X164652380Y-112747142D01*
X164700000Y-112604285D01*
X164747619Y-112556666D01*
X164747619Y-112175714D02*
X164700000Y-112128095D01*
X164652380Y-112032857D01*
X164652380Y-111794761D01*
X164700000Y-111699523D01*
X164747619Y-111651904D01*
X164842857Y-111604285D01*
X164938095Y-111604285D01*
X165080952Y-111651904D01*
X165652380Y-112223333D01*
X165652380Y-111604285D01*
X161747142Y-112556666D02*
X161794761Y-112604285D01*
X161842380Y-112747142D01*
X161842380Y-112842380D01*
X161794761Y-112985238D01*
X161699523Y-113080476D01*
X161604285Y-113128095D01*
X161413809Y-113175714D01*
X161270952Y-113175714D01*
X161080476Y-113128095D01*
X160985238Y-113080476D01*
X160890000Y-112985238D01*
X160842380Y-112842380D01*
X160842380Y-112747142D01*
X160890000Y-112604285D01*
X160937619Y-112556666D01*
X160842380Y-112223333D02*
X160842380Y-111604285D01*
X161223333Y-111937619D01*
X161223333Y-111794761D01*
X161270952Y-111699523D01*
X161318571Y-111651904D01*
X161413809Y-111604285D01*
X161651904Y-111604285D01*
X161747142Y-111651904D01*
X161794761Y-111699523D01*
X161842380Y-111794761D01*
X161842380Y-112080476D01*
X161794761Y-112175714D01*
X161747142Y-112223333D01*
X221833333Y-93072142D02*
X221785714Y-93119761D01*
X221642857Y-93167380D01*
X221547619Y-93167380D01*
X221404761Y-93119761D01*
X221309523Y-93024523D01*
X221261904Y-92929285D01*
X221214285Y-92738809D01*
X221214285Y-92595952D01*
X221261904Y-92405476D01*
X221309523Y-92310238D01*
X221404761Y-92215000D01*
X221547619Y-92167380D01*
X221642857Y-92167380D01*
X221785714Y-92215000D01*
X221833333Y-92262619D01*
X222690476Y-92500714D02*
X222690476Y-93167380D01*
X222452380Y-92119761D02*
X222214285Y-92834047D01*
X222833333Y-92834047D01*
X165557142Y-107476666D02*
X165604761Y-107524285D01*
X165652380Y-107667142D01*
X165652380Y-107762380D01*
X165604761Y-107905238D01*
X165509523Y-108000476D01*
X165414285Y-108048095D01*
X165223809Y-108095714D01*
X165080952Y-108095714D01*
X164890476Y-108048095D01*
X164795238Y-108000476D01*
X164700000Y-107905238D01*
X164652380Y-107762380D01*
X164652380Y-107667142D01*
X164700000Y-107524285D01*
X164747619Y-107476666D01*
X164652380Y-106571904D02*
X164652380Y-107048095D01*
X165128571Y-107095714D01*
X165080952Y-107048095D01*
X165033333Y-106952857D01*
X165033333Y-106714761D01*
X165080952Y-106619523D01*
X165128571Y-106571904D01*
X165223809Y-106524285D01*
X165461904Y-106524285D01*
X165557142Y-106571904D01*
X165604761Y-106619523D01*
X165652380Y-106714761D01*
X165652380Y-106952857D01*
X165604761Y-107048095D01*
X165557142Y-107095714D01*
X73906666Y-97723571D02*
X73573333Y-97723571D01*
X73573333Y-98247380D02*
X73573333Y-97247380D01*
X74049523Y-97247380D01*
X74954285Y-98247380D02*
X74382857Y-98247380D01*
X74668571Y-98247380D02*
X74668571Y-97247380D01*
X74573333Y-97390238D01*
X74478095Y-97485476D01*
X74382857Y-97533095D01*
X92826666Y-118023571D02*
X92493333Y-118023571D01*
X92493333Y-118547380D02*
X92493333Y-117547380D01*
X92969523Y-117547380D01*
X93302857Y-117642619D02*
X93350476Y-117595000D01*
X93445714Y-117547380D01*
X93683809Y-117547380D01*
X93779047Y-117595000D01*
X93826666Y-117642619D01*
X93874285Y-117737857D01*
X93874285Y-117833095D01*
X93826666Y-117975952D01*
X93255238Y-118547380D01*
X93874285Y-118547380D01*
X74006666Y-138323571D02*
X73673333Y-138323571D01*
X73673333Y-138847380D02*
X73673333Y-137847380D01*
X74149523Y-137847380D01*
X74435238Y-137847380D02*
X75054285Y-137847380D01*
X74720952Y-138228333D01*
X74863809Y-138228333D01*
X74959047Y-138275952D01*
X75006666Y-138323571D01*
X75054285Y-138418809D01*
X75054285Y-138656904D01*
X75006666Y-138752142D01*
X74959047Y-138799761D01*
X74863809Y-138847380D01*
X74578095Y-138847380D01*
X74482857Y-138799761D01*
X74435238Y-138752142D01*
X142756666Y-138323571D02*
X142423333Y-138323571D01*
X142423333Y-138847380D02*
X142423333Y-137847380D01*
X142899523Y-137847380D01*
X143709047Y-138180714D02*
X143709047Y-138847380D01*
X143470952Y-137799761D02*
X143232857Y-138514047D01*
X143851904Y-138514047D01*
X161576666Y-118023571D02*
X161243333Y-118023571D01*
X161243333Y-118547380D02*
X161243333Y-117547380D01*
X161719523Y-117547380D01*
X162576666Y-117547380D02*
X162100476Y-117547380D01*
X162052857Y-118023571D01*
X162100476Y-117975952D01*
X162195714Y-117928333D01*
X162433809Y-117928333D01*
X162529047Y-117975952D01*
X162576666Y-118023571D01*
X162624285Y-118118809D01*
X162624285Y-118356904D01*
X162576666Y-118452142D01*
X162529047Y-118499761D01*
X162433809Y-118547380D01*
X162195714Y-118547380D01*
X162100476Y-118499761D01*
X162052857Y-118452142D01*
X142756666Y-97723571D02*
X142423333Y-97723571D01*
X142423333Y-98247380D02*
X142423333Y-97247380D01*
X142899523Y-97247380D01*
X143709047Y-97247380D02*
X143518571Y-97247380D01*
X143423333Y-97295000D01*
X143375714Y-97342619D01*
X143280476Y-97485476D01*
X143232857Y-97675952D01*
X143232857Y-98056904D01*
X143280476Y-98152142D01*
X143328095Y-98199761D01*
X143423333Y-98247380D01*
X143613809Y-98247380D01*
X143709047Y-98199761D01*
X143756666Y-98152142D01*
X143804285Y-98056904D01*
X143804285Y-97818809D01*
X143756666Y-97723571D01*
X143709047Y-97675952D01*
X143613809Y-97628333D01*
X143423333Y-97628333D01*
X143328095Y-97675952D01*
X143280476Y-97723571D01*
X143232857Y-97818809D01*
X211506666Y-97723571D02*
X211173333Y-97723571D01*
X211173333Y-98247380D02*
X211173333Y-97247380D01*
X211649523Y-97247380D01*
X211935238Y-97247380D02*
X212601904Y-97247380D01*
X212173333Y-98247380D01*
X230326666Y-118023571D02*
X229993333Y-118023571D01*
X229993333Y-118547380D02*
X229993333Y-117547380D01*
X230469523Y-117547380D01*
X230993333Y-117975952D02*
X230898095Y-117928333D01*
X230850476Y-117880714D01*
X230802857Y-117785476D01*
X230802857Y-117737857D01*
X230850476Y-117642619D01*
X230898095Y-117595000D01*
X230993333Y-117547380D01*
X231183809Y-117547380D01*
X231279047Y-117595000D01*
X231326666Y-117642619D01*
X231374285Y-117737857D01*
X231374285Y-117785476D01*
X231326666Y-117880714D01*
X231279047Y-117928333D01*
X231183809Y-117975952D01*
X230993333Y-117975952D01*
X230898095Y-118023571D01*
X230850476Y-118071190D01*
X230802857Y-118166428D01*
X230802857Y-118356904D01*
X230850476Y-118452142D01*
X230898095Y-118499761D01*
X230993333Y-118547380D01*
X231183809Y-118547380D01*
X231279047Y-118499761D01*
X231326666Y-118452142D01*
X231374285Y-118356904D01*
X231374285Y-118166428D01*
X231326666Y-118071190D01*
X231279047Y-118023571D01*
X231183809Y-117975952D01*
X211506666Y-138323571D02*
X211173333Y-138323571D01*
X211173333Y-138847380D02*
X211173333Y-137847380D01*
X211649523Y-137847380D01*
X212078095Y-138847380D02*
X212268571Y-138847380D01*
X212363809Y-138799761D01*
X212411428Y-138752142D01*
X212506666Y-138609285D01*
X212554285Y-138418809D01*
X212554285Y-138037857D01*
X212506666Y-137942619D01*
X212459047Y-137895000D01*
X212363809Y-137847380D01*
X212173333Y-137847380D01*
X212078095Y-137895000D01*
X212030476Y-137942619D01*
X211982857Y-138037857D01*
X211982857Y-138275952D01*
X212030476Y-138371190D01*
X212078095Y-138418809D01*
X212173333Y-138466428D01*
X212363809Y-138466428D01*
X212459047Y-138418809D01*
X212506666Y-138371190D01*
X212554285Y-138275952D01*
X229850476Y-126903571D02*
X229517142Y-126903571D01*
X229517142Y-127427380D02*
X229517142Y-126427380D01*
X229993333Y-126427380D01*
X230898095Y-127427380D02*
X230326666Y-127427380D01*
X230612380Y-127427380D02*
X230612380Y-126427380D01*
X230517142Y-126570238D01*
X230421904Y-126665476D01*
X230326666Y-126713095D01*
X231517142Y-126427380D02*
X231612380Y-126427380D01*
X231707619Y-126475000D01*
X231755238Y-126522619D01*
X231802857Y-126617857D01*
X231850476Y-126808333D01*
X231850476Y-127046428D01*
X231802857Y-127236904D01*
X231755238Y-127332142D01*
X231707619Y-127379761D01*
X231612380Y-127427380D01*
X231517142Y-127427380D01*
X231421904Y-127379761D01*
X231374285Y-127332142D01*
X231326666Y-127236904D01*
X231279047Y-127046428D01*
X231279047Y-126808333D01*
X231326666Y-126617857D01*
X231374285Y-126522619D01*
X231421904Y-126475000D01*
X231517142Y-126427380D01*
X146166666Y-94564285D02*
X146166666Y-94088095D01*
X146452380Y-94659523D02*
X145452380Y-94326190D01*
X146452380Y-93992857D01*
X145452380Y-93754761D02*
X145452380Y-93135714D01*
X145833333Y-93469047D01*
X145833333Y-93326190D01*
X145880952Y-93230952D01*
X145928571Y-93183333D01*
X146023809Y-93135714D01*
X146261904Y-93135714D01*
X146357142Y-93183333D01*
X146404761Y-93230952D01*
X146452380Y-93326190D01*
X146452380Y-93611904D01*
X146404761Y-93707142D01*
X146357142Y-93754761D01*
X152166666Y-94564285D02*
X152166666Y-94088095D01*
X152452380Y-94659523D02*
X151452380Y-94326190D01*
X152452380Y-93992857D01*
X151547619Y-93707142D02*
X151500000Y-93659523D01*
X151452380Y-93564285D01*
X151452380Y-93326190D01*
X151500000Y-93230952D01*
X151547619Y-93183333D01*
X151642857Y-93135714D01*
X151738095Y-93135714D01*
X151880952Y-93183333D01*
X152452380Y-93754761D01*
X152452380Y-93135714D01*
X158166666Y-94564285D02*
X158166666Y-94088095D01*
X158452380Y-94659523D02*
X157452380Y-94326190D01*
X158452380Y-93992857D01*
X158452380Y-93135714D02*
X158452380Y-93707142D01*
X158452380Y-93421428D02*
X157452380Y-93421428D01*
X157595238Y-93516666D01*
X157690476Y-93611904D01*
X157738095Y-93707142D01*
X164166666Y-94564285D02*
X164166666Y-94088095D01*
X164452380Y-94659523D02*
X163452380Y-94326190D01*
X164452380Y-93992857D01*
X163452380Y-93469047D02*
X163452380Y-93373809D01*
X163500000Y-93278571D01*
X163547619Y-93230952D01*
X163642857Y-93183333D01*
X163833333Y-93135714D01*
X164071428Y-93135714D01*
X164261904Y-93183333D01*
X164357142Y-93230952D01*
X164404761Y-93278571D01*
X164452380Y-93373809D01*
X164452380Y-93469047D01*
X164404761Y-93564285D01*
X164357142Y-93611904D01*
X164261904Y-93659523D01*
X164071428Y-93707142D01*
X163833333Y-93707142D01*
X163642857Y-93659523D01*
X163547619Y-93611904D01*
X163500000Y-93564285D01*
X163452380Y-93469047D01*
X211744761Y-92417619D02*
X211649523Y-92370000D01*
X211554285Y-92274761D01*
X211411428Y-92131904D01*
X211316190Y-92084285D01*
X211220952Y-92084285D01*
X211268571Y-92322380D02*
X211173333Y-92274761D01*
X211078095Y-92179523D01*
X211030476Y-91989047D01*
X211030476Y-91655714D01*
X211078095Y-91465238D01*
X211173333Y-91370000D01*
X211268571Y-91322380D01*
X211459047Y-91322380D01*
X211554285Y-91370000D01*
X211649523Y-91465238D01*
X211697142Y-91655714D01*
X211697142Y-91989047D01*
X211649523Y-92179523D01*
X211554285Y-92274761D01*
X211459047Y-92322380D01*
X211268571Y-92322380D01*
X212649523Y-92322380D02*
X212078095Y-92322380D01*
X212363809Y-92322380D02*
X212363809Y-91322380D01*
X212268571Y-91465238D01*
X212173333Y-91560476D01*
X212078095Y-91608095D01*
X216753333Y-93167380D02*
X216420000Y-92691190D01*
X216181904Y-93167380D02*
X216181904Y-92167380D01*
X216562857Y-92167380D01*
X216658095Y-92215000D01*
X216705714Y-92262619D01*
X216753333Y-92357857D01*
X216753333Y-92500714D01*
X216705714Y-92595952D01*
X216658095Y-92643571D01*
X216562857Y-92691190D01*
X216181904Y-92691190D01*
X217705714Y-93167380D02*
X217134285Y-93167380D01*
X217420000Y-93167380D02*
X217420000Y-92167380D01*
X217324761Y-92310238D01*
X217229523Y-92405476D01*
X217134285Y-92453095D01*
X79153333Y-93167380D02*
X78820000Y-92691190D01*
X78581904Y-93167380D02*
X78581904Y-92167380D01*
X78962857Y-92167380D01*
X79058095Y-92215000D01*
X79105714Y-92262619D01*
X79153333Y-92357857D01*
X79153333Y-92500714D01*
X79105714Y-92595952D01*
X79058095Y-92643571D01*
X78962857Y-92691190D01*
X78581904Y-92691190D01*
X79534285Y-92262619D02*
X79581904Y-92215000D01*
X79677142Y-92167380D01*
X79915238Y-92167380D01*
X80010476Y-92215000D01*
X80058095Y-92262619D01*
X80105714Y-92357857D01*
X80105714Y-92453095D01*
X80058095Y-92595952D01*
X79486666Y-93167380D01*
X80105714Y-93167380D01*
X79153333Y-98247380D02*
X78820000Y-97771190D01*
X78581904Y-98247380D02*
X78581904Y-97247380D01*
X78962857Y-97247380D01*
X79058095Y-97295000D01*
X79105714Y-97342619D01*
X79153333Y-97437857D01*
X79153333Y-97580714D01*
X79105714Y-97675952D01*
X79058095Y-97723571D01*
X78962857Y-97771190D01*
X78581904Y-97771190D01*
X79486666Y-97247380D02*
X80105714Y-97247380D01*
X79772380Y-97628333D01*
X79915238Y-97628333D01*
X80010476Y-97675952D01*
X80058095Y-97723571D01*
X80105714Y-97818809D01*
X80105714Y-98056904D01*
X80058095Y-98152142D01*
X80010476Y-98199761D01*
X79915238Y-98247380D01*
X79629523Y-98247380D01*
X79534285Y-98199761D01*
X79486666Y-98152142D01*
X87913333Y-118547380D02*
X87580000Y-118071190D01*
X87341904Y-118547380D02*
X87341904Y-117547380D01*
X87722857Y-117547380D01*
X87818095Y-117595000D01*
X87865714Y-117642619D01*
X87913333Y-117737857D01*
X87913333Y-117880714D01*
X87865714Y-117975952D01*
X87818095Y-118023571D01*
X87722857Y-118071190D01*
X87341904Y-118071190D01*
X88770476Y-117880714D02*
X88770476Y-118547380D01*
X88532380Y-117499761D02*
X88294285Y-118214047D01*
X88913333Y-118214047D01*
X79253333Y-138847380D02*
X78920000Y-138371190D01*
X78681904Y-138847380D02*
X78681904Y-137847380D01*
X79062857Y-137847380D01*
X79158095Y-137895000D01*
X79205714Y-137942619D01*
X79253333Y-138037857D01*
X79253333Y-138180714D01*
X79205714Y-138275952D01*
X79158095Y-138323571D01*
X79062857Y-138371190D01*
X78681904Y-138371190D01*
X80158095Y-137847380D02*
X79681904Y-137847380D01*
X79634285Y-138323571D01*
X79681904Y-138275952D01*
X79777142Y-138228333D01*
X80015238Y-138228333D01*
X80110476Y-138275952D01*
X80158095Y-138323571D01*
X80205714Y-138418809D01*
X80205714Y-138656904D01*
X80158095Y-138752142D01*
X80110476Y-138799761D01*
X80015238Y-138847380D01*
X79777142Y-138847380D01*
X79681904Y-138799761D01*
X79634285Y-138752142D01*
X148003333Y-138847380D02*
X147670000Y-138371190D01*
X147431904Y-138847380D02*
X147431904Y-137847380D01*
X147812857Y-137847380D01*
X147908095Y-137895000D01*
X147955714Y-137942619D01*
X148003333Y-138037857D01*
X148003333Y-138180714D01*
X147955714Y-138275952D01*
X147908095Y-138323571D01*
X147812857Y-138371190D01*
X147431904Y-138371190D01*
X148860476Y-137847380D02*
X148670000Y-137847380D01*
X148574761Y-137895000D01*
X148527142Y-137942619D01*
X148431904Y-138085476D01*
X148384285Y-138275952D01*
X148384285Y-138656904D01*
X148431904Y-138752142D01*
X148479523Y-138799761D01*
X148574761Y-138847380D01*
X148765238Y-138847380D01*
X148860476Y-138799761D01*
X148908095Y-138752142D01*
X148955714Y-138656904D01*
X148955714Y-138418809D01*
X148908095Y-138323571D01*
X148860476Y-138275952D01*
X148765238Y-138228333D01*
X148574761Y-138228333D01*
X148479523Y-138275952D01*
X148431904Y-138323571D01*
X148384285Y-138418809D01*
X156663333Y-118547380D02*
X156330000Y-118071190D01*
X156091904Y-118547380D02*
X156091904Y-117547380D01*
X156472857Y-117547380D01*
X156568095Y-117595000D01*
X156615714Y-117642619D01*
X156663333Y-117737857D01*
X156663333Y-117880714D01*
X156615714Y-117975952D01*
X156568095Y-118023571D01*
X156472857Y-118071190D01*
X156091904Y-118071190D01*
X156996666Y-117547380D02*
X157663333Y-117547380D01*
X157234761Y-118547380D01*
X148003333Y-98247380D02*
X147670000Y-97771190D01*
X147431904Y-98247380D02*
X147431904Y-97247380D01*
X147812857Y-97247380D01*
X147908095Y-97295000D01*
X147955714Y-97342619D01*
X148003333Y-97437857D01*
X148003333Y-97580714D01*
X147955714Y-97675952D01*
X147908095Y-97723571D01*
X147812857Y-97771190D01*
X147431904Y-97771190D01*
X148574761Y-97675952D02*
X148479523Y-97628333D01*
X148431904Y-97580714D01*
X148384285Y-97485476D01*
X148384285Y-97437857D01*
X148431904Y-97342619D01*
X148479523Y-97295000D01*
X148574761Y-97247380D01*
X148765238Y-97247380D01*
X148860476Y-97295000D01*
X148908095Y-97342619D01*
X148955714Y-97437857D01*
X148955714Y-97485476D01*
X148908095Y-97580714D01*
X148860476Y-97628333D01*
X148765238Y-97675952D01*
X148574761Y-97675952D01*
X148479523Y-97723571D01*
X148431904Y-97771190D01*
X148384285Y-97866428D01*
X148384285Y-98056904D01*
X148431904Y-98152142D01*
X148479523Y-98199761D01*
X148574761Y-98247380D01*
X148765238Y-98247380D01*
X148860476Y-98199761D01*
X148908095Y-98152142D01*
X148955714Y-98056904D01*
X148955714Y-97866428D01*
X148908095Y-97771190D01*
X148860476Y-97723571D01*
X148765238Y-97675952D01*
X216753333Y-98247380D02*
X216420000Y-97771190D01*
X216181904Y-98247380D02*
X216181904Y-97247380D01*
X216562857Y-97247380D01*
X216658095Y-97295000D01*
X216705714Y-97342619D01*
X216753333Y-97437857D01*
X216753333Y-97580714D01*
X216705714Y-97675952D01*
X216658095Y-97723571D01*
X216562857Y-97771190D01*
X216181904Y-97771190D01*
X217229523Y-98247380D02*
X217420000Y-98247380D01*
X217515238Y-98199761D01*
X217562857Y-98152142D01*
X217658095Y-98009285D01*
X217705714Y-97818809D01*
X217705714Y-97437857D01*
X217658095Y-97342619D01*
X217610476Y-97295000D01*
X217515238Y-97247380D01*
X217324761Y-97247380D01*
X217229523Y-97295000D01*
X217181904Y-97342619D01*
X217134285Y-97437857D01*
X217134285Y-97675952D01*
X217181904Y-97771190D01*
X217229523Y-97818809D01*
X217324761Y-97866428D01*
X217515238Y-97866428D01*
X217610476Y-97818809D01*
X217658095Y-97771190D01*
X217705714Y-97675952D01*
X224937142Y-118547380D02*
X224603809Y-118071190D01*
X224365714Y-118547380D02*
X224365714Y-117547380D01*
X224746666Y-117547380D01*
X224841904Y-117595000D01*
X224889523Y-117642619D01*
X224937142Y-117737857D01*
X224937142Y-117880714D01*
X224889523Y-117975952D01*
X224841904Y-118023571D01*
X224746666Y-118071190D01*
X224365714Y-118071190D01*
X225889523Y-118547380D02*
X225318095Y-118547380D01*
X225603809Y-118547380D02*
X225603809Y-117547380D01*
X225508571Y-117690238D01*
X225413333Y-117785476D01*
X225318095Y-117833095D01*
X226508571Y-117547380D02*
X226603809Y-117547380D01*
X226699047Y-117595000D01*
X226746666Y-117642619D01*
X226794285Y-117737857D01*
X226841904Y-117928333D01*
X226841904Y-118166428D01*
X226794285Y-118356904D01*
X226746666Y-118452142D01*
X226699047Y-118499761D01*
X226603809Y-118547380D01*
X226508571Y-118547380D01*
X226413333Y-118499761D01*
X226365714Y-118452142D01*
X226318095Y-118356904D01*
X226270476Y-118166428D01*
X226270476Y-117928333D01*
X226318095Y-117737857D01*
X226365714Y-117642619D01*
X226413333Y-117595000D01*
X226508571Y-117547380D01*
X169462380Y-113032857D02*
X168986190Y-113366190D01*
X169462380Y-113604285D02*
X168462380Y-113604285D01*
X168462380Y-113223333D01*
X168510000Y-113128095D01*
X168557619Y-113080476D01*
X168652857Y-113032857D01*
X168795714Y-113032857D01*
X168890952Y-113080476D01*
X168938571Y-113128095D01*
X168986190Y-113223333D01*
X168986190Y-113604285D01*
X169462380Y-112080476D02*
X169462380Y-112651904D01*
X169462380Y-112366190D02*
X168462380Y-112366190D01*
X168605238Y-112461428D01*
X168700476Y-112556666D01*
X168748095Y-112651904D01*
X169462380Y-111128095D02*
X169462380Y-111699523D01*
X169462380Y-111413809D02*
X168462380Y-111413809D01*
X168605238Y-111509047D01*
X168700476Y-111604285D01*
X168748095Y-111699523D01*
X169462380Y-107952857D02*
X168986190Y-108286190D01*
X169462380Y-108524285D02*
X168462380Y-108524285D01*
X168462380Y-108143333D01*
X168510000Y-108048095D01*
X168557619Y-108000476D01*
X168652857Y-107952857D01*
X168795714Y-107952857D01*
X168890952Y-108000476D01*
X168938571Y-108048095D01*
X168986190Y-108143333D01*
X168986190Y-108524285D01*
X169462380Y-107000476D02*
X169462380Y-107571904D01*
X169462380Y-107286190D02*
X168462380Y-107286190D01*
X168605238Y-107381428D01*
X168700476Y-107476666D01*
X168748095Y-107571904D01*
X168557619Y-106619523D02*
X168510000Y-106571904D01*
X168462380Y-106476666D01*
X168462380Y-106238571D01*
X168510000Y-106143333D01*
X168557619Y-106095714D01*
X168652857Y-106048095D01*
X168748095Y-106048095D01*
X168890952Y-106095714D01*
X169462380Y-106667142D01*
X169462380Y-106048095D01*
X216277142Y-138847380D02*
X215943809Y-138371190D01*
X215705714Y-138847380D02*
X215705714Y-137847380D01*
X216086666Y-137847380D01*
X216181904Y-137895000D01*
X216229523Y-137942619D01*
X216277142Y-138037857D01*
X216277142Y-138180714D01*
X216229523Y-138275952D01*
X216181904Y-138323571D01*
X216086666Y-138371190D01*
X215705714Y-138371190D01*
X217229523Y-138847380D02*
X216658095Y-138847380D01*
X216943809Y-138847380D02*
X216943809Y-137847380D01*
X216848571Y-137990238D01*
X216753333Y-138085476D01*
X216658095Y-138133095D01*
X217562857Y-137847380D02*
X218181904Y-137847380D01*
X217848571Y-138228333D01*
X217991428Y-138228333D01*
X218086666Y-138275952D01*
X218134285Y-138323571D01*
X218181904Y-138418809D01*
X218181904Y-138656904D01*
X218134285Y-138752142D01*
X218086666Y-138799761D01*
X217991428Y-138847380D01*
X217705714Y-138847380D01*
X217610476Y-138799761D01*
X217562857Y-138752142D01*
X75732142Y-125522380D02*
X75398809Y-125046190D01*
X75160714Y-125522380D02*
X75160714Y-124522380D01*
X75541666Y-124522380D01*
X75636904Y-124570000D01*
X75684523Y-124617619D01*
X75732142Y-124712857D01*
X75732142Y-124855714D01*
X75684523Y-124950952D01*
X75636904Y-124998571D01*
X75541666Y-125046190D01*
X75160714Y-125046190D01*
X76684523Y-125522380D02*
X76113095Y-125522380D01*
X76398809Y-125522380D02*
X76398809Y-124522380D01*
X76303571Y-124665238D01*
X76208333Y-124760476D01*
X76113095Y-124808095D01*
X77541666Y-124855714D02*
X77541666Y-125522380D01*
X77303571Y-124474761D02*
X77065476Y-125189047D01*
X77684523Y-125189047D01*
X73652380Y-130792857D02*
X73176190Y-131126190D01*
X73652380Y-131364285D02*
X72652380Y-131364285D01*
X72652380Y-130983333D01*
X72700000Y-130888095D01*
X72747619Y-130840476D01*
X72842857Y-130792857D01*
X72985714Y-130792857D01*
X73080952Y-130840476D01*
X73128571Y-130888095D01*
X73176190Y-130983333D01*
X73176190Y-131364285D01*
X73652380Y-129840476D02*
X73652380Y-130411904D01*
X73652380Y-130126190D02*
X72652380Y-130126190D01*
X72795238Y-130221428D01*
X72890476Y-130316666D01*
X72938095Y-130411904D01*
X72652380Y-128935714D02*
X72652380Y-129411904D01*
X73128571Y-129459523D01*
X73080952Y-129411904D01*
X73033333Y-129316666D01*
X73033333Y-129078571D01*
X73080952Y-128983333D01*
X73128571Y-128935714D01*
X73223809Y-128888095D01*
X73461904Y-128888095D01*
X73557142Y-128935714D01*
X73604761Y-128983333D01*
X73652380Y-129078571D01*
X73652380Y-129316666D01*
X73604761Y-129411904D01*
X73557142Y-129459523D01*
X224937142Y-127427380D02*
X224603809Y-126951190D01*
X224365714Y-127427380D02*
X224365714Y-126427380D01*
X224746666Y-126427380D01*
X224841904Y-126475000D01*
X224889523Y-126522619D01*
X224937142Y-126617857D01*
X224937142Y-126760714D01*
X224889523Y-126855952D01*
X224841904Y-126903571D01*
X224746666Y-126951190D01*
X224365714Y-126951190D01*
X225889523Y-127427380D02*
X225318095Y-127427380D01*
X225603809Y-127427380D02*
X225603809Y-126427380D01*
X225508571Y-126570238D01*
X225413333Y-126665476D01*
X225318095Y-126713095D01*
X226746666Y-126427380D02*
X226556190Y-126427380D01*
X226460952Y-126475000D01*
X226413333Y-126522619D01*
X226318095Y-126665476D01*
X226270476Y-126855952D01*
X226270476Y-127236904D01*
X226318095Y-127332142D01*
X226365714Y-127379761D01*
X226460952Y-127427380D01*
X226651428Y-127427380D01*
X226746666Y-127379761D01*
X226794285Y-127332142D01*
X226841904Y-127236904D01*
X226841904Y-126998809D01*
X226794285Y-126903571D01*
X226746666Y-126855952D01*
X226651428Y-126808333D01*
X226460952Y-126808333D01*
X226365714Y-126855952D01*
X226318095Y-126903571D01*
X226270476Y-126998809D01*
X75732142Y-135682380D02*
X75398809Y-135206190D01*
X75160714Y-135682380D02*
X75160714Y-134682380D01*
X75541666Y-134682380D01*
X75636904Y-134730000D01*
X75684523Y-134777619D01*
X75732142Y-134872857D01*
X75732142Y-135015714D01*
X75684523Y-135110952D01*
X75636904Y-135158571D01*
X75541666Y-135206190D01*
X75160714Y-135206190D01*
X76684523Y-135682380D02*
X76113095Y-135682380D01*
X76398809Y-135682380D02*
X76398809Y-134682380D01*
X76303571Y-134825238D01*
X76208333Y-134920476D01*
X76113095Y-134968095D01*
X77017857Y-134682380D02*
X77684523Y-134682380D01*
X77255952Y-135682380D01*
M02*
