%TF.GenerationSoftware,KiCad,Pcbnew,(5.0.0-rc2-dev-632-g76d3b6f04)*%
%TF.CreationDate,2018-06-22T20:22:36+02:00*%
%TF.ProjectId,CellsBoard,43656C6C73426F6172642E6B69636164,rev?*%
%TF.SameCoordinates,Original*%
%TF.FileFunction,Soldermask,Bot*%
%TF.FilePolarity,Negative*%
%FSLAX46Y46*%
G04 Gerber Fmt 4.6, Leading zero omitted, Abs format (unit mm)*
G04 Created by KiCad (PCBNEW (5.0.0-rc2-dev-632-g76d3b6f04)) date 06/22/18 20:22:36*
%MOMM*%
%LPD*%
G01*
G04 APERTURE LIST*
%ADD10C,0.150000*%
%ADD11C,11.000000*%
%ADD12C,0.900000*%
%ADD13C,1.000000*%
%ADD14O,2.000000X1.500000*%
%ADD15R,2.000000X1.500000*%
%ADD16C,1.200000*%
%ADD17O,1.700000X1.700000*%
%ADD18R,1.700000X1.700000*%
G04 APERTURE END LIST*
D10*
X229750000Y-132300000D02*
X232750000Y-132300000D01*
X228750000Y-147300000D02*
X228750000Y-133300000D01*
X232750000Y-148300000D02*
X229750000Y-148300000D01*
X233750000Y-133300000D02*
X233750000Y-147300000D01*
X229750000Y-148300000D02*
G75*
G02X228750000Y-147300000I0J1000000D01*
G01*
X228750000Y-133300000D02*
G75*
G02X229750000Y-132300000I1000000J0D01*
G01*
X232750000Y-132300000D02*
G75*
G02X233750000Y-133300000I0J-1000000D01*
G01*
X233750000Y-147300000D02*
G75*
G02X232750000Y-148300000I-1000000J0D01*
G01*
X250000000Y-90000000D02*
X52500000Y-90000000D01*
X250000000Y-90000000D02*
G75*
G02X252500000Y-92500000I0J-2500000D01*
G01*
X252500000Y-147500000D02*
X252500000Y-92500000D01*
X252500000Y-147500000D02*
G75*
G02X250000000Y-150000000I-2500000J0D01*
G01*
X52500000Y-150000000D02*
X250000000Y-150000000D01*
X52500000Y-150000000D02*
G75*
G02X50000000Y-147500000I0J2500000D01*
G01*
X50000000Y-92500000D02*
X50000000Y-147500000D01*
X50000000Y-92500000D02*
G75*
G02X52500000Y-90000000I2500000J0D01*
G01*
D11*
X106250000Y-140300000D03*
D12*
X110375000Y-140300000D03*
X109176815Y-143226815D03*
X106250000Y-144425000D03*
X103323185Y-143226815D03*
X102125000Y-140300000D03*
X103323185Y-137373185D03*
X106250000Y-136175000D03*
X109176815Y-137373185D03*
X134125000Y-140300000D03*
X125875000Y-140300000D03*
X130000000Y-144425000D03*
X127073185Y-137373185D03*
X132926815Y-137373185D03*
X132926815Y-143226815D03*
X130000000Y-136175000D03*
X127073185Y-143226815D03*
D11*
X130000000Y-140300000D03*
D10*
G36*
X115774504Y-132901204D02*
X115798773Y-132904804D01*
X115822571Y-132910765D01*
X115845671Y-132919030D01*
X115867849Y-132929520D01*
X115888893Y-132942133D01*
X115908598Y-132956747D01*
X115926777Y-132973223D01*
X115943253Y-132991402D01*
X115957867Y-133011107D01*
X115970480Y-133032151D01*
X115980970Y-133054329D01*
X115989235Y-133077429D01*
X115995196Y-133101227D01*
X115998796Y-133125496D01*
X116000000Y-133150000D01*
X116000000Y-133650000D01*
X115998796Y-133674504D01*
X115995196Y-133698773D01*
X115989235Y-133722571D01*
X115980970Y-133745671D01*
X115970480Y-133767849D01*
X115957867Y-133788893D01*
X115943253Y-133808598D01*
X115926777Y-133826777D01*
X115908598Y-133843253D01*
X115888893Y-133857867D01*
X115867849Y-133870480D01*
X115845671Y-133880970D01*
X115822571Y-133889235D01*
X115798773Y-133895196D01*
X115774504Y-133898796D01*
X115750000Y-133900000D01*
X114250000Y-133900000D01*
X114225496Y-133898796D01*
X114201227Y-133895196D01*
X114177429Y-133889235D01*
X114154329Y-133880970D01*
X114132151Y-133870480D01*
X114111107Y-133857867D01*
X114091402Y-133843253D01*
X114073223Y-133826777D01*
X114056747Y-133808598D01*
X114042133Y-133788893D01*
X114029520Y-133767849D01*
X114019030Y-133745671D01*
X114010765Y-133722571D01*
X114004804Y-133698773D01*
X114001204Y-133674504D01*
X114000000Y-133650000D01*
X114000000Y-133150000D01*
X114001204Y-133125496D01*
X114004804Y-133101227D01*
X114010765Y-133077429D01*
X114019030Y-133054329D01*
X114029520Y-133032151D01*
X114042133Y-133011107D01*
X114056747Y-132991402D01*
X114073223Y-132973223D01*
X114091402Y-132956747D01*
X114111107Y-132942133D01*
X114132151Y-132929520D01*
X114154329Y-132919030D01*
X114177429Y-132910765D01*
X114201227Y-132904804D01*
X114225496Y-132901204D01*
X114250000Y-132900000D01*
X115750000Y-132900000D01*
X115774504Y-132901204D01*
X115774504Y-132901204D01*
G37*
D13*
X115000000Y-133400000D03*
D10*
G36*
X122024504Y-146701204D02*
X122048773Y-146704804D01*
X122072571Y-146710765D01*
X122095671Y-146719030D01*
X122117849Y-146729520D01*
X122138893Y-146742133D01*
X122158598Y-146756747D01*
X122176777Y-146773223D01*
X122193253Y-146791402D01*
X122207867Y-146811107D01*
X122220480Y-146832151D01*
X122230970Y-146854329D01*
X122239235Y-146877429D01*
X122245196Y-146901227D01*
X122248796Y-146925496D01*
X122250000Y-146950000D01*
X122250000Y-147450000D01*
X122248796Y-147474504D01*
X122245196Y-147498773D01*
X122239235Y-147522571D01*
X122230970Y-147545671D01*
X122220480Y-147567849D01*
X122207867Y-147588893D01*
X122193253Y-147608598D01*
X122176777Y-147626777D01*
X122158598Y-147643253D01*
X122138893Y-147657867D01*
X122117849Y-147670480D01*
X122095671Y-147680970D01*
X122072571Y-147689235D01*
X122048773Y-147695196D01*
X122024504Y-147698796D01*
X122000000Y-147700000D01*
X120500000Y-147700000D01*
X120475496Y-147698796D01*
X120451227Y-147695196D01*
X120427429Y-147689235D01*
X120404329Y-147680970D01*
X120382151Y-147670480D01*
X120361107Y-147657867D01*
X120341402Y-147643253D01*
X120323223Y-147626777D01*
X120306747Y-147608598D01*
X120292133Y-147588893D01*
X120279520Y-147567849D01*
X120269030Y-147545671D01*
X120260765Y-147522571D01*
X120254804Y-147498773D01*
X120251204Y-147474504D01*
X120250000Y-147450000D01*
X120250000Y-146950000D01*
X120251204Y-146925496D01*
X120254804Y-146901227D01*
X120260765Y-146877429D01*
X120269030Y-146854329D01*
X120279520Y-146832151D01*
X120292133Y-146811107D01*
X120306747Y-146791402D01*
X120323223Y-146773223D01*
X120341402Y-146756747D01*
X120361107Y-146742133D01*
X120382151Y-146729520D01*
X120404329Y-146719030D01*
X120427429Y-146710765D01*
X120451227Y-146704804D01*
X120475496Y-146701204D01*
X120500000Y-146700000D01*
X122000000Y-146700000D01*
X122024504Y-146701204D01*
X122024504Y-146701204D01*
G37*
D13*
X121250000Y-147200000D03*
D11*
X175000000Y-99700000D03*
D12*
X179125000Y-99700000D03*
X177926815Y-102626815D03*
X175000000Y-103825000D03*
X172073185Y-102626815D03*
X170875000Y-99700000D03*
X172073185Y-96773185D03*
X175000000Y-95575000D03*
X177926815Y-96773185D03*
X202875000Y-99700000D03*
X194625000Y-99700000D03*
X198750000Y-103825000D03*
X195823185Y-96773185D03*
X201676815Y-96773185D03*
X201676815Y-102626815D03*
X198750000Y-95575000D03*
X195823185Y-102626815D03*
D11*
X198750000Y-99700000D03*
D10*
G36*
X184524504Y-92301204D02*
X184548773Y-92304804D01*
X184572571Y-92310765D01*
X184595671Y-92319030D01*
X184617849Y-92329520D01*
X184638893Y-92342133D01*
X184658598Y-92356747D01*
X184676777Y-92373223D01*
X184693253Y-92391402D01*
X184707867Y-92411107D01*
X184720480Y-92432151D01*
X184730970Y-92454329D01*
X184739235Y-92477429D01*
X184745196Y-92501227D01*
X184748796Y-92525496D01*
X184750000Y-92550000D01*
X184750000Y-93050000D01*
X184748796Y-93074504D01*
X184745196Y-93098773D01*
X184739235Y-93122571D01*
X184730970Y-93145671D01*
X184720480Y-93167849D01*
X184707867Y-93188893D01*
X184693253Y-93208598D01*
X184676777Y-93226777D01*
X184658598Y-93243253D01*
X184638893Y-93257867D01*
X184617849Y-93270480D01*
X184595671Y-93280970D01*
X184572571Y-93289235D01*
X184548773Y-93295196D01*
X184524504Y-93298796D01*
X184500000Y-93300000D01*
X183000000Y-93300000D01*
X182975496Y-93298796D01*
X182951227Y-93295196D01*
X182927429Y-93289235D01*
X182904329Y-93280970D01*
X182882151Y-93270480D01*
X182861107Y-93257867D01*
X182841402Y-93243253D01*
X182823223Y-93226777D01*
X182806747Y-93208598D01*
X182792133Y-93188893D01*
X182779520Y-93167849D01*
X182769030Y-93145671D01*
X182760765Y-93122571D01*
X182754804Y-93098773D01*
X182751204Y-93074504D01*
X182750000Y-93050000D01*
X182750000Y-92550000D01*
X182751204Y-92525496D01*
X182754804Y-92501227D01*
X182760765Y-92477429D01*
X182769030Y-92454329D01*
X182779520Y-92432151D01*
X182792133Y-92411107D01*
X182806747Y-92391402D01*
X182823223Y-92373223D01*
X182841402Y-92356747D01*
X182861107Y-92342133D01*
X182882151Y-92329520D01*
X182904329Y-92319030D01*
X182927429Y-92310765D01*
X182951227Y-92304804D01*
X182975496Y-92301204D01*
X183000000Y-92300000D01*
X184500000Y-92300000D01*
X184524504Y-92301204D01*
X184524504Y-92301204D01*
G37*
D13*
X183750000Y-92800000D03*
D10*
G36*
X190774504Y-106101204D02*
X190798773Y-106104804D01*
X190822571Y-106110765D01*
X190845671Y-106119030D01*
X190867849Y-106129520D01*
X190888893Y-106142133D01*
X190908598Y-106156747D01*
X190926777Y-106173223D01*
X190943253Y-106191402D01*
X190957867Y-106211107D01*
X190970480Y-106232151D01*
X190980970Y-106254329D01*
X190989235Y-106277429D01*
X190995196Y-106301227D01*
X190998796Y-106325496D01*
X191000000Y-106350000D01*
X191000000Y-106850000D01*
X190998796Y-106874504D01*
X190995196Y-106898773D01*
X190989235Y-106922571D01*
X190980970Y-106945671D01*
X190970480Y-106967849D01*
X190957867Y-106988893D01*
X190943253Y-107008598D01*
X190926777Y-107026777D01*
X190908598Y-107043253D01*
X190888893Y-107057867D01*
X190867849Y-107070480D01*
X190845671Y-107080970D01*
X190822571Y-107089235D01*
X190798773Y-107095196D01*
X190774504Y-107098796D01*
X190750000Y-107100000D01*
X189250000Y-107100000D01*
X189225496Y-107098796D01*
X189201227Y-107095196D01*
X189177429Y-107089235D01*
X189154329Y-107080970D01*
X189132151Y-107070480D01*
X189111107Y-107057867D01*
X189091402Y-107043253D01*
X189073223Y-107026777D01*
X189056747Y-107008598D01*
X189042133Y-106988893D01*
X189029520Y-106967849D01*
X189019030Y-106945671D01*
X189010765Y-106922571D01*
X189004804Y-106898773D01*
X189001204Y-106874504D01*
X189000000Y-106850000D01*
X189000000Y-106350000D01*
X189001204Y-106325496D01*
X189004804Y-106301227D01*
X189010765Y-106277429D01*
X189019030Y-106254329D01*
X189029520Y-106232151D01*
X189042133Y-106211107D01*
X189056747Y-106191402D01*
X189073223Y-106173223D01*
X189091402Y-106156747D01*
X189111107Y-106142133D01*
X189132151Y-106129520D01*
X189154329Y-106119030D01*
X189177429Y-106110765D01*
X189201227Y-106104804D01*
X189225496Y-106101204D01*
X189250000Y-106100000D01*
X190750000Y-106100000D01*
X190774504Y-106101204D01*
X190774504Y-106101204D01*
G37*
D13*
X190000000Y-106600000D03*
D11*
X106250000Y-120000000D03*
D12*
X106250000Y-115875000D03*
X109176815Y-117073185D03*
X110375000Y-120000000D03*
X109176815Y-122926815D03*
X106250000Y-124125000D03*
X103323185Y-122926815D03*
X102125000Y-120000000D03*
X103323185Y-117073185D03*
X106250000Y-95575000D03*
X106250000Y-103825000D03*
X110375000Y-99700000D03*
X103323185Y-102626815D03*
X103323185Y-96773185D03*
X109176815Y-96773185D03*
X102125000Y-99700000D03*
X109176815Y-102626815D03*
D11*
X106250000Y-99700000D03*
D10*
G36*
X99624504Y-112351204D02*
X99648773Y-112354804D01*
X99672571Y-112360765D01*
X99695671Y-112369030D01*
X99717849Y-112379520D01*
X99738893Y-112392133D01*
X99758598Y-112406747D01*
X99776777Y-112423223D01*
X99793253Y-112441402D01*
X99807867Y-112461107D01*
X99820480Y-112482151D01*
X99830970Y-112504329D01*
X99839235Y-112527429D01*
X99845196Y-112551227D01*
X99848796Y-112575496D01*
X99850000Y-112600000D01*
X99850000Y-114100000D01*
X99848796Y-114124504D01*
X99845196Y-114148773D01*
X99839235Y-114172571D01*
X99830970Y-114195671D01*
X99820480Y-114217849D01*
X99807867Y-114238893D01*
X99793253Y-114258598D01*
X99776777Y-114276777D01*
X99758598Y-114293253D01*
X99738893Y-114307867D01*
X99717849Y-114320480D01*
X99695671Y-114330970D01*
X99672571Y-114339235D01*
X99648773Y-114345196D01*
X99624504Y-114348796D01*
X99600000Y-114350000D01*
X99100000Y-114350000D01*
X99075496Y-114348796D01*
X99051227Y-114345196D01*
X99027429Y-114339235D01*
X99004329Y-114330970D01*
X98982151Y-114320480D01*
X98961107Y-114307867D01*
X98941402Y-114293253D01*
X98923223Y-114276777D01*
X98906747Y-114258598D01*
X98892133Y-114238893D01*
X98879520Y-114217849D01*
X98869030Y-114195671D01*
X98860765Y-114172571D01*
X98854804Y-114148773D01*
X98851204Y-114124504D01*
X98850000Y-114100000D01*
X98850000Y-112600000D01*
X98851204Y-112575496D01*
X98854804Y-112551227D01*
X98860765Y-112527429D01*
X98869030Y-112504329D01*
X98879520Y-112482151D01*
X98892133Y-112461107D01*
X98906747Y-112441402D01*
X98923223Y-112423223D01*
X98941402Y-112406747D01*
X98961107Y-112392133D01*
X98982151Y-112379520D01*
X99004329Y-112369030D01*
X99027429Y-112360765D01*
X99051227Y-112354804D01*
X99075496Y-112351204D01*
X99100000Y-112350000D01*
X99600000Y-112350000D01*
X99624504Y-112351204D01*
X99624504Y-112351204D01*
G37*
D13*
X99350000Y-113350000D03*
D10*
G36*
X113424504Y-105351204D02*
X113448773Y-105354804D01*
X113472571Y-105360765D01*
X113495671Y-105369030D01*
X113517849Y-105379520D01*
X113538893Y-105392133D01*
X113558598Y-105406747D01*
X113576777Y-105423223D01*
X113593253Y-105441402D01*
X113607867Y-105461107D01*
X113620480Y-105482151D01*
X113630970Y-105504329D01*
X113639235Y-105527429D01*
X113645196Y-105551227D01*
X113648796Y-105575496D01*
X113650000Y-105600000D01*
X113650000Y-107100000D01*
X113648796Y-107124504D01*
X113645196Y-107148773D01*
X113639235Y-107172571D01*
X113630970Y-107195671D01*
X113620480Y-107217849D01*
X113607867Y-107238893D01*
X113593253Y-107258598D01*
X113576777Y-107276777D01*
X113558598Y-107293253D01*
X113538893Y-107307867D01*
X113517849Y-107320480D01*
X113495671Y-107330970D01*
X113472571Y-107339235D01*
X113448773Y-107345196D01*
X113424504Y-107348796D01*
X113400000Y-107350000D01*
X112900000Y-107350000D01*
X112875496Y-107348796D01*
X112851227Y-107345196D01*
X112827429Y-107339235D01*
X112804329Y-107330970D01*
X112782151Y-107320480D01*
X112761107Y-107307867D01*
X112741402Y-107293253D01*
X112723223Y-107276777D01*
X112706747Y-107258598D01*
X112692133Y-107238893D01*
X112679520Y-107217849D01*
X112669030Y-107195671D01*
X112660765Y-107172571D01*
X112654804Y-107148773D01*
X112651204Y-107124504D01*
X112650000Y-107100000D01*
X112650000Y-105600000D01*
X112651204Y-105575496D01*
X112654804Y-105551227D01*
X112660765Y-105527429D01*
X112669030Y-105504329D01*
X112679520Y-105482151D01*
X112692133Y-105461107D01*
X112706747Y-105441402D01*
X112723223Y-105423223D01*
X112741402Y-105406747D01*
X112761107Y-105392133D01*
X112782151Y-105379520D01*
X112804329Y-105369030D01*
X112827429Y-105360765D01*
X112851227Y-105354804D01*
X112875496Y-105351204D01*
X112900000Y-105350000D01*
X113400000Y-105350000D01*
X113424504Y-105351204D01*
X113424504Y-105351204D01*
G37*
D13*
X113150000Y-106350000D03*
D11*
X61250000Y-140300000D03*
D12*
X61250000Y-136175000D03*
X64176815Y-137373185D03*
X65375000Y-140300000D03*
X64176815Y-143226815D03*
X61250000Y-144425000D03*
X58323185Y-143226815D03*
X57125000Y-140300000D03*
X58323185Y-137373185D03*
X61250000Y-115875000D03*
X61250000Y-124125000D03*
X65375000Y-120000000D03*
X58323185Y-122926815D03*
X58323185Y-117073185D03*
X64176815Y-117073185D03*
X57125000Y-120000000D03*
X64176815Y-122926815D03*
D11*
X61250000Y-120000000D03*
D10*
G36*
X54624504Y-132651204D02*
X54648773Y-132654804D01*
X54672571Y-132660765D01*
X54695671Y-132669030D01*
X54717849Y-132679520D01*
X54738893Y-132692133D01*
X54758598Y-132706747D01*
X54776777Y-132723223D01*
X54793253Y-132741402D01*
X54807867Y-132761107D01*
X54820480Y-132782151D01*
X54830970Y-132804329D01*
X54839235Y-132827429D01*
X54845196Y-132851227D01*
X54848796Y-132875496D01*
X54850000Y-132900000D01*
X54850000Y-134400000D01*
X54848796Y-134424504D01*
X54845196Y-134448773D01*
X54839235Y-134472571D01*
X54830970Y-134495671D01*
X54820480Y-134517849D01*
X54807867Y-134538893D01*
X54793253Y-134558598D01*
X54776777Y-134576777D01*
X54758598Y-134593253D01*
X54738893Y-134607867D01*
X54717849Y-134620480D01*
X54695671Y-134630970D01*
X54672571Y-134639235D01*
X54648773Y-134645196D01*
X54624504Y-134648796D01*
X54600000Y-134650000D01*
X54100000Y-134650000D01*
X54075496Y-134648796D01*
X54051227Y-134645196D01*
X54027429Y-134639235D01*
X54004329Y-134630970D01*
X53982151Y-134620480D01*
X53961107Y-134607867D01*
X53941402Y-134593253D01*
X53923223Y-134576777D01*
X53906747Y-134558598D01*
X53892133Y-134538893D01*
X53879520Y-134517849D01*
X53869030Y-134495671D01*
X53860765Y-134472571D01*
X53854804Y-134448773D01*
X53851204Y-134424504D01*
X53850000Y-134400000D01*
X53850000Y-132900000D01*
X53851204Y-132875496D01*
X53854804Y-132851227D01*
X53860765Y-132827429D01*
X53869030Y-132804329D01*
X53879520Y-132782151D01*
X53892133Y-132761107D01*
X53906747Y-132741402D01*
X53923223Y-132723223D01*
X53941402Y-132706747D01*
X53961107Y-132692133D01*
X53982151Y-132679520D01*
X54004329Y-132669030D01*
X54027429Y-132660765D01*
X54051227Y-132654804D01*
X54075496Y-132651204D01*
X54100000Y-132650000D01*
X54600000Y-132650000D01*
X54624504Y-132651204D01*
X54624504Y-132651204D01*
G37*
D13*
X54350000Y-133650000D03*
D10*
G36*
X68424504Y-125651204D02*
X68448773Y-125654804D01*
X68472571Y-125660765D01*
X68495671Y-125669030D01*
X68517849Y-125679520D01*
X68538893Y-125692133D01*
X68558598Y-125706747D01*
X68576777Y-125723223D01*
X68593253Y-125741402D01*
X68607867Y-125761107D01*
X68620480Y-125782151D01*
X68630970Y-125804329D01*
X68639235Y-125827429D01*
X68645196Y-125851227D01*
X68648796Y-125875496D01*
X68650000Y-125900000D01*
X68650000Y-127400000D01*
X68648796Y-127424504D01*
X68645196Y-127448773D01*
X68639235Y-127472571D01*
X68630970Y-127495671D01*
X68620480Y-127517849D01*
X68607867Y-127538893D01*
X68593253Y-127558598D01*
X68576777Y-127576777D01*
X68558598Y-127593253D01*
X68538893Y-127607867D01*
X68517849Y-127620480D01*
X68495671Y-127630970D01*
X68472571Y-127639235D01*
X68448773Y-127645196D01*
X68424504Y-127648796D01*
X68400000Y-127650000D01*
X67900000Y-127650000D01*
X67875496Y-127648796D01*
X67851227Y-127645196D01*
X67827429Y-127639235D01*
X67804329Y-127630970D01*
X67782151Y-127620480D01*
X67761107Y-127607867D01*
X67741402Y-127593253D01*
X67723223Y-127576777D01*
X67706747Y-127558598D01*
X67692133Y-127538893D01*
X67679520Y-127517849D01*
X67669030Y-127495671D01*
X67660765Y-127472571D01*
X67654804Y-127448773D01*
X67651204Y-127424504D01*
X67650000Y-127400000D01*
X67650000Y-125900000D01*
X67651204Y-125875496D01*
X67654804Y-125851227D01*
X67660765Y-125827429D01*
X67669030Y-125804329D01*
X67679520Y-125782151D01*
X67692133Y-125761107D01*
X67706747Y-125741402D01*
X67723223Y-125723223D01*
X67741402Y-125706747D01*
X67761107Y-125692133D01*
X67782151Y-125679520D01*
X67804329Y-125669030D01*
X67827429Y-125660765D01*
X67851227Y-125654804D01*
X67875496Y-125651204D01*
X67900000Y-125650000D01*
X68400000Y-125650000D01*
X68424504Y-125651204D01*
X68424504Y-125651204D01*
G37*
D13*
X68150000Y-126650000D03*
D11*
X175000000Y-120000000D03*
D12*
X175000000Y-124125000D03*
X172073185Y-122926815D03*
X170875000Y-120000000D03*
X172073185Y-117073185D03*
X175000000Y-115875000D03*
X177926815Y-117073185D03*
X179125000Y-120000000D03*
X177926815Y-122926815D03*
X175000000Y-144425000D03*
X175000000Y-136175000D03*
X170875000Y-140300000D03*
X177926815Y-137373185D03*
X177926815Y-143226815D03*
X172073185Y-143226815D03*
X179125000Y-140300000D03*
X172073185Y-137373185D03*
D11*
X175000000Y-140300000D03*
D10*
G36*
X182174504Y-125651204D02*
X182198773Y-125654804D01*
X182222571Y-125660765D01*
X182245671Y-125669030D01*
X182267849Y-125679520D01*
X182288893Y-125692133D01*
X182308598Y-125706747D01*
X182326777Y-125723223D01*
X182343253Y-125741402D01*
X182357867Y-125761107D01*
X182370480Y-125782151D01*
X182380970Y-125804329D01*
X182389235Y-125827429D01*
X182395196Y-125851227D01*
X182398796Y-125875496D01*
X182400000Y-125900000D01*
X182400000Y-127400000D01*
X182398796Y-127424504D01*
X182395196Y-127448773D01*
X182389235Y-127472571D01*
X182380970Y-127495671D01*
X182370480Y-127517849D01*
X182357867Y-127538893D01*
X182343253Y-127558598D01*
X182326777Y-127576777D01*
X182308598Y-127593253D01*
X182288893Y-127607867D01*
X182267849Y-127620480D01*
X182245671Y-127630970D01*
X182222571Y-127639235D01*
X182198773Y-127645196D01*
X182174504Y-127648796D01*
X182150000Y-127650000D01*
X181650000Y-127650000D01*
X181625496Y-127648796D01*
X181601227Y-127645196D01*
X181577429Y-127639235D01*
X181554329Y-127630970D01*
X181532151Y-127620480D01*
X181511107Y-127607867D01*
X181491402Y-127593253D01*
X181473223Y-127576777D01*
X181456747Y-127558598D01*
X181442133Y-127538893D01*
X181429520Y-127517849D01*
X181419030Y-127495671D01*
X181410765Y-127472571D01*
X181404804Y-127448773D01*
X181401204Y-127424504D01*
X181400000Y-127400000D01*
X181400000Y-125900000D01*
X181401204Y-125875496D01*
X181404804Y-125851227D01*
X181410765Y-125827429D01*
X181419030Y-125804329D01*
X181429520Y-125782151D01*
X181442133Y-125761107D01*
X181456747Y-125741402D01*
X181473223Y-125723223D01*
X181491402Y-125706747D01*
X181511107Y-125692133D01*
X181532151Y-125679520D01*
X181554329Y-125669030D01*
X181577429Y-125660765D01*
X181601227Y-125654804D01*
X181625496Y-125651204D01*
X181650000Y-125650000D01*
X182150000Y-125650000D01*
X182174504Y-125651204D01*
X182174504Y-125651204D01*
G37*
D13*
X181900000Y-126650000D03*
D10*
G36*
X168374504Y-132651204D02*
X168398773Y-132654804D01*
X168422571Y-132660765D01*
X168445671Y-132669030D01*
X168467849Y-132679520D01*
X168488893Y-132692133D01*
X168508598Y-132706747D01*
X168526777Y-132723223D01*
X168543253Y-132741402D01*
X168557867Y-132761107D01*
X168570480Y-132782151D01*
X168580970Y-132804329D01*
X168589235Y-132827429D01*
X168595196Y-132851227D01*
X168598796Y-132875496D01*
X168600000Y-132900000D01*
X168600000Y-134400000D01*
X168598796Y-134424504D01*
X168595196Y-134448773D01*
X168589235Y-134472571D01*
X168580970Y-134495671D01*
X168570480Y-134517849D01*
X168557867Y-134538893D01*
X168543253Y-134558598D01*
X168526777Y-134576777D01*
X168508598Y-134593253D01*
X168488893Y-134607867D01*
X168467849Y-134620480D01*
X168445671Y-134630970D01*
X168422571Y-134639235D01*
X168398773Y-134645196D01*
X168374504Y-134648796D01*
X168350000Y-134650000D01*
X167850000Y-134650000D01*
X167825496Y-134648796D01*
X167801227Y-134645196D01*
X167777429Y-134639235D01*
X167754329Y-134630970D01*
X167732151Y-134620480D01*
X167711107Y-134607867D01*
X167691402Y-134593253D01*
X167673223Y-134576777D01*
X167656747Y-134558598D01*
X167642133Y-134538893D01*
X167629520Y-134517849D01*
X167619030Y-134495671D01*
X167610765Y-134472571D01*
X167604804Y-134448773D01*
X167601204Y-134424504D01*
X167600000Y-134400000D01*
X167600000Y-132900000D01*
X167601204Y-132875496D01*
X167604804Y-132851227D01*
X167610765Y-132827429D01*
X167619030Y-132804329D01*
X167629520Y-132782151D01*
X167642133Y-132761107D01*
X167656747Y-132741402D01*
X167673223Y-132723223D01*
X167691402Y-132706747D01*
X167711107Y-132692133D01*
X167732151Y-132679520D01*
X167754329Y-132669030D01*
X167777429Y-132660765D01*
X167801227Y-132654804D01*
X167825496Y-132651204D01*
X167850000Y-132650000D01*
X168350000Y-132650000D01*
X168374504Y-132651204D01*
X168374504Y-132651204D01*
G37*
D13*
X168100000Y-133650000D03*
D11*
X130000000Y-99700000D03*
D12*
X130000000Y-103825000D03*
X127073185Y-102626815D03*
X125875000Y-99700000D03*
X127073185Y-96773185D03*
X130000000Y-95575000D03*
X132926815Y-96773185D03*
X134125000Y-99700000D03*
X132926815Y-102626815D03*
X130000000Y-124125000D03*
X130000000Y-115875000D03*
X125875000Y-120000000D03*
X132926815Y-117073185D03*
X132926815Y-122926815D03*
X127073185Y-122926815D03*
X134125000Y-120000000D03*
X127073185Y-117073185D03*
D11*
X130000000Y-120000000D03*
D10*
G36*
X137174504Y-105351204D02*
X137198773Y-105354804D01*
X137222571Y-105360765D01*
X137245671Y-105369030D01*
X137267849Y-105379520D01*
X137288893Y-105392133D01*
X137308598Y-105406747D01*
X137326777Y-105423223D01*
X137343253Y-105441402D01*
X137357867Y-105461107D01*
X137370480Y-105482151D01*
X137380970Y-105504329D01*
X137389235Y-105527429D01*
X137395196Y-105551227D01*
X137398796Y-105575496D01*
X137400000Y-105600000D01*
X137400000Y-107100000D01*
X137398796Y-107124504D01*
X137395196Y-107148773D01*
X137389235Y-107172571D01*
X137380970Y-107195671D01*
X137370480Y-107217849D01*
X137357867Y-107238893D01*
X137343253Y-107258598D01*
X137326777Y-107276777D01*
X137308598Y-107293253D01*
X137288893Y-107307867D01*
X137267849Y-107320480D01*
X137245671Y-107330970D01*
X137222571Y-107339235D01*
X137198773Y-107345196D01*
X137174504Y-107348796D01*
X137150000Y-107350000D01*
X136650000Y-107350000D01*
X136625496Y-107348796D01*
X136601227Y-107345196D01*
X136577429Y-107339235D01*
X136554329Y-107330970D01*
X136532151Y-107320480D01*
X136511107Y-107307867D01*
X136491402Y-107293253D01*
X136473223Y-107276777D01*
X136456747Y-107258598D01*
X136442133Y-107238893D01*
X136429520Y-107217849D01*
X136419030Y-107195671D01*
X136410765Y-107172571D01*
X136404804Y-107148773D01*
X136401204Y-107124504D01*
X136400000Y-107100000D01*
X136400000Y-105600000D01*
X136401204Y-105575496D01*
X136404804Y-105551227D01*
X136410765Y-105527429D01*
X136419030Y-105504329D01*
X136429520Y-105482151D01*
X136442133Y-105461107D01*
X136456747Y-105441402D01*
X136473223Y-105423223D01*
X136491402Y-105406747D01*
X136511107Y-105392133D01*
X136532151Y-105379520D01*
X136554329Y-105369030D01*
X136577429Y-105360765D01*
X136601227Y-105354804D01*
X136625496Y-105351204D01*
X136650000Y-105350000D01*
X137150000Y-105350000D01*
X137174504Y-105351204D01*
X137174504Y-105351204D01*
G37*
D13*
X136900000Y-106350000D03*
D10*
G36*
X123374504Y-112351204D02*
X123398773Y-112354804D01*
X123422571Y-112360765D01*
X123445671Y-112369030D01*
X123467849Y-112379520D01*
X123488893Y-112392133D01*
X123508598Y-112406747D01*
X123526777Y-112423223D01*
X123543253Y-112441402D01*
X123557867Y-112461107D01*
X123570480Y-112482151D01*
X123580970Y-112504329D01*
X123589235Y-112527429D01*
X123595196Y-112551227D01*
X123598796Y-112575496D01*
X123600000Y-112600000D01*
X123600000Y-114100000D01*
X123598796Y-114124504D01*
X123595196Y-114148773D01*
X123589235Y-114172571D01*
X123580970Y-114195671D01*
X123570480Y-114217849D01*
X123557867Y-114238893D01*
X123543253Y-114258598D01*
X123526777Y-114276777D01*
X123508598Y-114293253D01*
X123488893Y-114307867D01*
X123467849Y-114320480D01*
X123445671Y-114330970D01*
X123422571Y-114339235D01*
X123398773Y-114345196D01*
X123374504Y-114348796D01*
X123350000Y-114350000D01*
X122850000Y-114350000D01*
X122825496Y-114348796D01*
X122801227Y-114345196D01*
X122777429Y-114339235D01*
X122754329Y-114330970D01*
X122732151Y-114320480D01*
X122711107Y-114307867D01*
X122691402Y-114293253D01*
X122673223Y-114276777D01*
X122656747Y-114258598D01*
X122642133Y-114238893D01*
X122629520Y-114217849D01*
X122619030Y-114195671D01*
X122610765Y-114172571D01*
X122604804Y-114148773D01*
X122601204Y-114124504D01*
X122600000Y-114100000D01*
X122600000Y-112600000D01*
X122601204Y-112575496D01*
X122604804Y-112551227D01*
X122610765Y-112527429D01*
X122619030Y-112504329D01*
X122629520Y-112482151D01*
X122642133Y-112461107D01*
X122656747Y-112441402D01*
X122673223Y-112423223D01*
X122691402Y-112406747D01*
X122711107Y-112392133D01*
X122732151Y-112379520D01*
X122754329Y-112369030D01*
X122777429Y-112360765D01*
X122801227Y-112354804D01*
X122825496Y-112351204D01*
X122850000Y-112350000D01*
X123350000Y-112350000D01*
X123374504Y-112351204D01*
X123374504Y-112351204D01*
G37*
D13*
X123100000Y-113350000D03*
D11*
X243750000Y-120000000D03*
D12*
X243750000Y-115875000D03*
X246676815Y-117073185D03*
X247875000Y-120000000D03*
X246676815Y-122926815D03*
X243750000Y-124125000D03*
X240823185Y-122926815D03*
X239625000Y-120000000D03*
X240823185Y-117073185D03*
X243750000Y-95575000D03*
X243750000Y-103825000D03*
X247875000Y-99700000D03*
X240823185Y-102626815D03*
X240823185Y-96773185D03*
X246676815Y-96773185D03*
X239625000Y-99700000D03*
X246676815Y-102626815D03*
D11*
X243750000Y-99700000D03*
D10*
G36*
X237124504Y-112351204D02*
X237148773Y-112354804D01*
X237172571Y-112360765D01*
X237195671Y-112369030D01*
X237217849Y-112379520D01*
X237238893Y-112392133D01*
X237258598Y-112406747D01*
X237276777Y-112423223D01*
X237293253Y-112441402D01*
X237307867Y-112461107D01*
X237320480Y-112482151D01*
X237330970Y-112504329D01*
X237339235Y-112527429D01*
X237345196Y-112551227D01*
X237348796Y-112575496D01*
X237350000Y-112600000D01*
X237350000Y-114100000D01*
X237348796Y-114124504D01*
X237345196Y-114148773D01*
X237339235Y-114172571D01*
X237330970Y-114195671D01*
X237320480Y-114217849D01*
X237307867Y-114238893D01*
X237293253Y-114258598D01*
X237276777Y-114276777D01*
X237258598Y-114293253D01*
X237238893Y-114307867D01*
X237217849Y-114320480D01*
X237195671Y-114330970D01*
X237172571Y-114339235D01*
X237148773Y-114345196D01*
X237124504Y-114348796D01*
X237100000Y-114350000D01*
X236600000Y-114350000D01*
X236575496Y-114348796D01*
X236551227Y-114345196D01*
X236527429Y-114339235D01*
X236504329Y-114330970D01*
X236482151Y-114320480D01*
X236461107Y-114307867D01*
X236441402Y-114293253D01*
X236423223Y-114276777D01*
X236406747Y-114258598D01*
X236392133Y-114238893D01*
X236379520Y-114217849D01*
X236369030Y-114195671D01*
X236360765Y-114172571D01*
X236354804Y-114148773D01*
X236351204Y-114124504D01*
X236350000Y-114100000D01*
X236350000Y-112600000D01*
X236351204Y-112575496D01*
X236354804Y-112551227D01*
X236360765Y-112527429D01*
X236369030Y-112504329D01*
X236379520Y-112482151D01*
X236392133Y-112461107D01*
X236406747Y-112441402D01*
X236423223Y-112423223D01*
X236441402Y-112406747D01*
X236461107Y-112392133D01*
X236482151Y-112379520D01*
X236504329Y-112369030D01*
X236527429Y-112360765D01*
X236551227Y-112354804D01*
X236575496Y-112351204D01*
X236600000Y-112350000D01*
X237100000Y-112350000D01*
X237124504Y-112351204D01*
X237124504Y-112351204D01*
G37*
D13*
X236850000Y-113350000D03*
D10*
G36*
X250924504Y-105351204D02*
X250948773Y-105354804D01*
X250972571Y-105360765D01*
X250995671Y-105369030D01*
X251017849Y-105379520D01*
X251038893Y-105392133D01*
X251058598Y-105406747D01*
X251076777Y-105423223D01*
X251093253Y-105441402D01*
X251107867Y-105461107D01*
X251120480Y-105482151D01*
X251130970Y-105504329D01*
X251139235Y-105527429D01*
X251145196Y-105551227D01*
X251148796Y-105575496D01*
X251150000Y-105600000D01*
X251150000Y-107100000D01*
X251148796Y-107124504D01*
X251145196Y-107148773D01*
X251139235Y-107172571D01*
X251130970Y-107195671D01*
X251120480Y-107217849D01*
X251107867Y-107238893D01*
X251093253Y-107258598D01*
X251076777Y-107276777D01*
X251058598Y-107293253D01*
X251038893Y-107307867D01*
X251017849Y-107320480D01*
X250995671Y-107330970D01*
X250972571Y-107339235D01*
X250948773Y-107345196D01*
X250924504Y-107348796D01*
X250900000Y-107350000D01*
X250400000Y-107350000D01*
X250375496Y-107348796D01*
X250351227Y-107345196D01*
X250327429Y-107339235D01*
X250304329Y-107330970D01*
X250282151Y-107320480D01*
X250261107Y-107307867D01*
X250241402Y-107293253D01*
X250223223Y-107276777D01*
X250206747Y-107258598D01*
X250192133Y-107238893D01*
X250179520Y-107217849D01*
X250169030Y-107195671D01*
X250160765Y-107172571D01*
X250154804Y-107148773D01*
X250151204Y-107124504D01*
X250150000Y-107100000D01*
X250150000Y-105600000D01*
X250151204Y-105575496D01*
X250154804Y-105551227D01*
X250160765Y-105527429D01*
X250169030Y-105504329D01*
X250179520Y-105482151D01*
X250192133Y-105461107D01*
X250206747Y-105441402D01*
X250223223Y-105423223D01*
X250241402Y-105406747D01*
X250261107Y-105392133D01*
X250282151Y-105379520D01*
X250304329Y-105369030D01*
X250327429Y-105360765D01*
X250351227Y-105354804D01*
X250375496Y-105351204D01*
X250400000Y-105350000D01*
X250900000Y-105350000D01*
X250924504Y-105351204D01*
X250924504Y-105351204D01*
G37*
D13*
X250650000Y-106350000D03*
D11*
X198750000Y-140300000D03*
D12*
X198750000Y-136175000D03*
X201676815Y-137373185D03*
X202875000Y-140300000D03*
X201676815Y-143226815D03*
X198750000Y-144425000D03*
X195823185Y-143226815D03*
X194625000Y-140300000D03*
X195823185Y-137373185D03*
X198750000Y-115875000D03*
X198750000Y-124125000D03*
X202875000Y-120000000D03*
X195823185Y-122926815D03*
X195823185Y-117073185D03*
X201676815Y-117073185D03*
X194625000Y-120000000D03*
X201676815Y-122926815D03*
D11*
X198750000Y-120000000D03*
D10*
G36*
X192124504Y-132651204D02*
X192148773Y-132654804D01*
X192172571Y-132660765D01*
X192195671Y-132669030D01*
X192217849Y-132679520D01*
X192238893Y-132692133D01*
X192258598Y-132706747D01*
X192276777Y-132723223D01*
X192293253Y-132741402D01*
X192307867Y-132761107D01*
X192320480Y-132782151D01*
X192330970Y-132804329D01*
X192339235Y-132827429D01*
X192345196Y-132851227D01*
X192348796Y-132875496D01*
X192350000Y-132900000D01*
X192350000Y-134400000D01*
X192348796Y-134424504D01*
X192345196Y-134448773D01*
X192339235Y-134472571D01*
X192330970Y-134495671D01*
X192320480Y-134517849D01*
X192307867Y-134538893D01*
X192293253Y-134558598D01*
X192276777Y-134576777D01*
X192258598Y-134593253D01*
X192238893Y-134607867D01*
X192217849Y-134620480D01*
X192195671Y-134630970D01*
X192172571Y-134639235D01*
X192148773Y-134645196D01*
X192124504Y-134648796D01*
X192100000Y-134650000D01*
X191600000Y-134650000D01*
X191575496Y-134648796D01*
X191551227Y-134645196D01*
X191527429Y-134639235D01*
X191504329Y-134630970D01*
X191482151Y-134620480D01*
X191461107Y-134607867D01*
X191441402Y-134593253D01*
X191423223Y-134576777D01*
X191406747Y-134558598D01*
X191392133Y-134538893D01*
X191379520Y-134517849D01*
X191369030Y-134495671D01*
X191360765Y-134472571D01*
X191354804Y-134448773D01*
X191351204Y-134424504D01*
X191350000Y-134400000D01*
X191350000Y-132900000D01*
X191351204Y-132875496D01*
X191354804Y-132851227D01*
X191360765Y-132827429D01*
X191369030Y-132804329D01*
X191379520Y-132782151D01*
X191392133Y-132761107D01*
X191406747Y-132741402D01*
X191423223Y-132723223D01*
X191441402Y-132706747D01*
X191461107Y-132692133D01*
X191482151Y-132679520D01*
X191504329Y-132669030D01*
X191527429Y-132660765D01*
X191551227Y-132654804D01*
X191575496Y-132651204D01*
X191600000Y-132650000D01*
X192100000Y-132650000D01*
X192124504Y-132651204D01*
X192124504Y-132651204D01*
G37*
D13*
X191850000Y-133650000D03*
D10*
G36*
X205924504Y-125651204D02*
X205948773Y-125654804D01*
X205972571Y-125660765D01*
X205995671Y-125669030D01*
X206017849Y-125679520D01*
X206038893Y-125692133D01*
X206058598Y-125706747D01*
X206076777Y-125723223D01*
X206093253Y-125741402D01*
X206107867Y-125761107D01*
X206120480Y-125782151D01*
X206130970Y-125804329D01*
X206139235Y-125827429D01*
X206145196Y-125851227D01*
X206148796Y-125875496D01*
X206150000Y-125900000D01*
X206150000Y-127400000D01*
X206148796Y-127424504D01*
X206145196Y-127448773D01*
X206139235Y-127472571D01*
X206130970Y-127495671D01*
X206120480Y-127517849D01*
X206107867Y-127538893D01*
X206093253Y-127558598D01*
X206076777Y-127576777D01*
X206058598Y-127593253D01*
X206038893Y-127607867D01*
X206017849Y-127620480D01*
X205995671Y-127630970D01*
X205972571Y-127639235D01*
X205948773Y-127645196D01*
X205924504Y-127648796D01*
X205900000Y-127650000D01*
X205400000Y-127650000D01*
X205375496Y-127648796D01*
X205351227Y-127645196D01*
X205327429Y-127639235D01*
X205304329Y-127630970D01*
X205282151Y-127620480D01*
X205261107Y-127607867D01*
X205241402Y-127593253D01*
X205223223Y-127576777D01*
X205206747Y-127558598D01*
X205192133Y-127538893D01*
X205179520Y-127517849D01*
X205169030Y-127495671D01*
X205160765Y-127472571D01*
X205154804Y-127448773D01*
X205151204Y-127424504D01*
X205150000Y-127400000D01*
X205150000Y-125900000D01*
X205151204Y-125875496D01*
X205154804Y-125851227D01*
X205160765Y-125827429D01*
X205169030Y-125804329D01*
X205179520Y-125782151D01*
X205192133Y-125761107D01*
X205206747Y-125741402D01*
X205223223Y-125723223D01*
X205241402Y-125706747D01*
X205261107Y-125692133D01*
X205282151Y-125679520D01*
X205304329Y-125669030D01*
X205327429Y-125660765D01*
X205351227Y-125654804D01*
X205375496Y-125651204D01*
X205400000Y-125650000D01*
X205900000Y-125650000D01*
X205924504Y-125651204D01*
X205924504Y-125651204D01*
G37*
D13*
X205650000Y-126650000D03*
D10*
G36*
X55374504Y-106101204D02*
X55398773Y-106104804D01*
X55422571Y-106110765D01*
X55445671Y-106119030D01*
X55467849Y-106129520D01*
X55488893Y-106142133D01*
X55508598Y-106156747D01*
X55526777Y-106173223D01*
X55543253Y-106191402D01*
X55557867Y-106211107D01*
X55570480Y-106232151D01*
X55580970Y-106254329D01*
X55589235Y-106277429D01*
X55595196Y-106301227D01*
X55598796Y-106325496D01*
X55600000Y-106350000D01*
X55600000Y-106850000D01*
X55598796Y-106874504D01*
X55595196Y-106898773D01*
X55589235Y-106922571D01*
X55580970Y-106945671D01*
X55570480Y-106967849D01*
X55557867Y-106988893D01*
X55543253Y-107008598D01*
X55526777Y-107026777D01*
X55508598Y-107043253D01*
X55488893Y-107057867D01*
X55467849Y-107070480D01*
X55445671Y-107080970D01*
X55422571Y-107089235D01*
X55398773Y-107095196D01*
X55374504Y-107098796D01*
X55350000Y-107100000D01*
X53850000Y-107100000D01*
X53825496Y-107098796D01*
X53801227Y-107095196D01*
X53777429Y-107089235D01*
X53754329Y-107080970D01*
X53732151Y-107070480D01*
X53711107Y-107057867D01*
X53691402Y-107043253D01*
X53673223Y-107026777D01*
X53656747Y-107008598D01*
X53642133Y-106988893D01*
X53629520Y-106967849D01*
X53619030Y-106945671D01*
X53610765Y-106922571D01*
X53604804Y-106898773D01*
X53601204Y-106874504D01*
X53600000Y-106850000D01*
X53600000Y-106350000D01*
X53601204Y-106325496D01*
X53604804Y-106301227D01*
X53610765Y-106277429D01*
X53619030Y-106254329D01*
X53629520Y-106232151D01*
X53642133Y-106211107D01*
X53656747Y-106191402D01*
X53673223Y-106173223D01*
X53691402Y-106156747D01*
X53711107Y-106142133D01*
X53732151Y-106129520D01*
X53754329Y-106119030D01*
X53777429Y-106110765D01*
X53801227Y-106104804D01*
X53825496Y-106101204D01*
X53850000Y-106100000D01*
X55350000Y-106100000D01*
X55374504Y-106101204D01*
X55374504Y-106101204D01*
G37*
D13*
X54600000Y-106600000D03*
D10*
G36*
X55374504Y-92301204D02*
X55398773Y-92304804D01*
X55422571Y-92310765D01*
X55445671Y-92319030D01*
X55467849Y-92329520D01*
X55488893Y-92342133D01*
X55508598Y-92356747D01*
X55526777Y-92373223D01*
X55543253Y-92391402D01*
X55557867Y-92411107D01*
X55570480Y-92432151D01*
X55580970Y-92454329D01*
X55589235Y-92477429D01*
X55595196Y-92501227D01*
X55598796Y-92525496D01*
X55600000Y-92550000D01*
X55600000Y-93050000D01*
X55598796Y-93074504D01*
X55595196Y-93098773D01*
X55589235Y-93122571D01*
X55580970Y-93145671D01*
X55570480Y-93167849D01*
X55557867Y-93188893D01*
X55543253Y-93208598D01*
X55526777Y-93226777D01*
X55508598Y-93243253D01*
X55488893Y-93257867D01*
X55467849Y-93270480D01*
X55445671Y-93280970D01*
X55422571Y-93289235D01*
X55398773Y-93295196D01*
X55374504Y-93298796D01*
X55350000Y-93300000D01*
X53850000Y-93300000D01*
X53825496Y-93298796D01*
X53801227Y-93295196D01*
X53777429Y-93289235D01*
X53754329Y-93280970D01*
X53732151Y-93270480D01*
X53711107Y-93257867D01*
X53691402Y-93243253D01*
X53673223Y-93226777D01*
X53656747Y-93208598D01*
X53642133Y-93188893D01*
X53629520Y-93167849D01*
X53619030Y-93145671D01*
X53610765Y-93122571D01*
X53604804Y-93098773D01*
X53601204Y-93074504D01*
X53600000Y-93050000D01*
X53600000Y-92550000D01*
X53601204Y-92525496D01*
X53604804Y-92501227D01*
X53610765Y-92477429D01*
X53619030Y-92454329D01*
X53629520Y-92432151D01*
X53642133Y-92411107D01*
X53656747Y-92391402D01*
X53673223Y-92373223D01*
X53691402Y-92356747D01*
X53711107Y-92342133D01*
X53732151Y-92329520D01*
X53754329Y-92319030D01*
X53777429Y-92310765D01*
X53801227Y-92304804D01*
X53825496Y-92301204D01*
X53850000Y-92300000D01*
X55350000Y-92300000D01*
X55374504Y-92301204D01*
X55374504Y-92301204D01*
G37*
D13*
X54600000Y-92800000D03*
D12*
X58323185Y-96773185D03*
X57125000Y-99700000D03*
X58323185Y-102626815D03*
X61250000Y-103825000D03*
X64176815Y-102626815D03*
X65375000Y-99700000D03*
X64176815Y-96773185D03*
X61250000Y-95575000D03*
D11*
X61250000Y-99700000D03*
D14*
X83750000Y-108350000D03*
D15*
X83750000Y-111350000D03*
D16*
X81790000Y-105350000D03*
X81790000Y-114350000D03*
D14*
X221250000Y-108350000D03*
D15*
X221250000Y-111350000D03*
D16*
X219290000Y-105350000D03*
X219290000Y-114350000D03*
D11*
X243750000Y-140300000D03*
D12*
X243750000Y-136175000D03*
X246676815Y-137373185D03*
X247875000Y-140300000D03*
X246676815Y-143226815D03*
X243750000Y-144425000D03*
X240823185Y-143226815D03*
X239625000Y-140300000D03*
X240823185Y-137373185D03*
D10*
G36*
X237874504Y-132901204D02*
X237898773Y-132904804D01*
X237922571Y-132910765D01*
X237945671Y-132919030D01*
X237967849Y-132929520D01*
X237988893Y-132942133D01*
X238008598Y-132956747D01*
X238026777Y-132973223D01*
X238043253Y-132991402D01*
X238057867Y-133011107D01*
X238070480Y-133032151D01*
X238080970Y-133054329D01*
X238089235Y-133077429D01*
X238095196Y-133101227D01*
X238098796Y-133125496D01*
X238100000Y-133150000D01*
X238100000Y-133650000D01*
X238098796Y-133674504D01*
X238095196Y-133698773D01*
X238089235Y-133722571D01*
X238080970Y-133745671D01*
X238070480Y-133767849D01*
X238057867Y-133788893D01*
X238043253Y-133808598D01*
X238026777Y-133826777D01*
X238008598Y-133843253D01*
X237988893Y-133857867D01*
X237967849Y-133870480D01*
X237945671Y-133880970D01*
X237922571Y-133889235D01*
X237898773Y-133895196D01*
X237874504Y-133898796D01*
X237850000Y-133900000D01*
X236350000Y-133900000D01*
X236325496Y-133898796D01*
X236301227Y-133895196D01*
X236277429Y-133889235D01*
X236254329Y-133880970D01*
X236232151Y-133870480D01*
X236211107Y-133857867D01*
X236191402Y-133843253D01*
X236173223Y-133826777D01*
X236156747Y-133808598D01*
X236142133Y-133788893D01*
X236129520Y-133767849D01*
X236119030Y-133745671D01*
X236110765Y-133722571D01*
X236104804Y-133698773D01*
X236101204Y-133674504D01*
X236100000Y-133650000D01*
X236100000Y-133150000D01*
X236101204Y-133125496D01*
X236104804Y-133101227D01*
X236110765Y-133077429D01*
X236119030Y-133054329D01*
X236129520Y-133032151D01*
X236142133Y-133011107D01*
X236156747Y-132991402D01*
X236173223Y-132973223D01*
X236191402Y-132956747D01*
X236211107Y-132942133D01*
X236232151Y-132929520D01*
X236254329Y-132919030D01*
X236277429Y-132910765D01*
X236301227Y-132904804D01*
X236325496Y-132901204D01*
X236350000Y-132900000D01*
X237850000Y-132900000D01*
X237874504Y-132901204D01*
X237874504Y-132901204D01*
G37*
D13*
X237100000Y-133400000D03*
D10*
G36*
X237874504Y-146701204D02*
X237898773Y-146704804D01*
X237922571Y-146710765D01*
X237945671Y-146719030D01*
X237967849Y-146729520D01*
X237988893Y-146742133D01*
X238008598Y-146756747D01*
X238026777Y-146773223D01*
X238043253Y-146791402D01*
X238057867Y-146811107D01*
X238070480Y-146832151D01*
X238080970Y-146854329D01*
X238089235Y-146877429D01*
X238095196Y-146901227D01*
X238098796Y-146925496D01*
X238100000Y-146950000D01*
X238100000Y-147450000D01*
X238098796Y-147474504D01*
X238095196Y-147498773D01*
X238089235Y-147522571D01*
X238080970Y-147545671D01*
X238070480Y-147567849D01*
X238057867Y-147588893D01*
X238043253Y-147608598D01*
X238026777Y-147626777D01*
X238008598Y-147643253D01*
X237988893Y-147657867D01*
X237967849Y-147670480D01*
X237945671Y-147680970D01*
X237922571Y-147689235D01*
X237898773Y-147695196D01*
X237874504Y-147698796D01*
X237850000Y-147700000D01*
X236350000Y-147700000D01*
X236325496Y-147698796D01*
X236301227Y-147695196D01*
X236277429Y-147689235D01*
X236254329Y-147680970D01*
X236232151Y-147670480D01*
X236211107Y-147657867D01*
X236191402Y-147643253D01*
X236173223Y-147626777D01*
X236156747Y-147608598D01*
X236142133Y-147588893D01*
X236129520Y-147567849D01*
X236119030Y-147545671D01*
X236110765Y-147522571D01*
X236104804Y-147498773D01*
X236101204Y-147474504D01*
X236100000Y-147450000D01*
X236100000Y-146950000D01*
X236101204Y-146925496D01*
X236104804Y-146901227D01*
X236110765Y-146877429D01*
X236119030Y-146854329D01*
X236129520Y-146832151D01*
X236142133Y-146811107D01*
X236156747Y-146791402D01*
X236173223Y-146773223D01*
X236191402Y-146756747D01*
X236211107Y-146742133D01*
X236232151Y-146729520D01*
X236254329Y-146719030D01*
X236277429Y-146710765D01*
X236301227Y-146704804D01*
X236325496Y-146701204D01*
X236350000Y-146700000D01*
X237850000Y-146700000D01*
X237874504Y-146701204D01*
X237874504Y-146701204D01*
G37*
D13*
X237100000Y-147200000D03*
D17*
X84400000Y-100970000D03*
D18*
X84400000Y-98430000D03*
X83000000Y-121270000D03*
D17*
X83000000Y-118730000D03*
X84500000Y-141570000D03*
D18*
X84500000Y-139030000D03*
D17*
X153250000Y-141570000D03*
D18*
X153250000Y-139030000D03*
D17*
X151750000Y-118730000D03*
D18*
X151750000Y-121270000D03*
D17*
X153250000Y-100970000D03*
D18*
X153250000Y-98430000D03*
D17*
X222000000Y-100970000D03*
D18*
X222000000Y-98430000D03*
D17*
X220500000Y-118730000D03*
D18*
X220500000Y-121270000D03*
X222000000Y-139030000D03*
D17*
X222000000Y-141570000D03*
M02*
