M48
;DRILL file {KiCad (5.0.0-rc2-dev-632-g76d3b6f04)} date 06/22/18 20:22:41
;FORMAT={2:4/ absolute / inch / suppress leading zeros}
FMAT,2
INCH,TZ
T1C0.0079
T2C0.0157
T3C0.0236
T4C0.0394
T5C0.2165
T6C0.2362
%
G90
G05
M72
T1
X27579Y-43346
X27776Y-43150
X55906Y-37461
X56870Y-42776
X57037Y-37047
X57165Y-42776
X58268Y-37461
X59104Y-44724
X59104Y-45118
X59203Y-41181
X59301Y-44921
X59301Y-45315
X59400Y-37047
X59400Y-41378
X60039Y-42264
X60039Y-43248
X60039Y-44232
X60630Y-37461
X60778Y-42165
X60974Y-42362
X60974Y-42953
X61762Y-40984
X61762Y-41772
X61959Y-41181
X61959Y-41969
X62156Y-37047
X62156Y-41378
X62549Y-41378
X62746Y-37047
X62992Y-37461
X63976Y-41280
X64961Y-41280
X65108Y-42264
X65404Y-41772
X66978Y-42461
X66978Y-42854
X66978Y-43445
X67175Y-43051
X67372Y-43248
X88026Y-37252
T2
X28136Y-39252
X28175Y-55236
X37770Y-47244
X55242Y-39252
X55242Y-55236
X64837Y-47244
X82309Y-39252
X82309Y-55236
X89825Y-50740
X91904Y-47244
X91904Y-50740
T3
X40207Y-55236
X40678Y-54084
X40678Y-56389
X41831Y-53612
X41831Y-56860
X42983Y-54084
X42983Y-56389
X43455Y-55236
X49557Y-55236
X50029Y-54084
X50029Y-56389
X51181Y-53612
X51181Y-56860
X52333Y-54084
X52333Y-56389
X52805Y-55236
X49557Y-39252
X49557Y-47244
X50029Y-38100
X50029Y-40404
X50029Y-46092
X50029Y-48396
X51181Y-37628
X51181Y-40876
X51181Y-45620
X51181Y-48868
X52333Y-38100
X52333Y-40404
X52333Y-46092
X52333Y-48396
X52805Y-39252
X52805Y-47244
X94341Y-55236
X94812Y-54084
X94812Y-56389
X95965Y-53612
X95965Y-56860
X97117Y-54084
X97117Y-56389
X97589Y-55236
X22490Y-39252
X22962Y-38100
X22962Y-40404
X24114Y-37628
X24114Y-40876
X25266Y-38100
X25266Y-40404
X25738Y-39252
X67274Y-47244
X67274Y-55236
X67745Y-46092
X67745Y-48396
X67745Y-54084
X67745Y-56389
X68898Y-45620
X68898Y-48868
X68898Y-53612
X68898Y-56860
X70050Y-46092
X70050Y-48396
X70050Y-54084
X70050Y-56389
X70522Y-47244
X70522Y-55236
X40207Y-39252
X40207Y-47244
X40678Y-38100
X40678Y-40404
X40678Y-46092
X40678Y-48396
X41831Y-37628
X41831Y-40876
X41831Y-45620
X41831Y-48868
X42983Y-38100
X42983Y-40404
X42983Y-46092
X42983Y-48396
X43455Y-39252
X43455Y-47244
X94341Y-39252
X94341Y-47244
X94812Y-38100
X94812Y-40404
X94812Y-46092
X94812Y-48396
X95965Y-37628
X95965Y-40876
X95965Y-45620
X95965Y-48868
X97117Y-38100
X97117Y-40404
X97117Y-46092
X97117Y-48396
X97589Y-39252
X97589Y-47244
X22490Y-47244
X22490Y-55236
X22962Y-46092
X22962Y-48396
X22962Y-54084
X22962Y-56389
X24114Y-45620
X24114Y-48868
X24114Y-53612
X24114Y-56860
X25266Y-46092
X25266Y-48396
X25266Y-54084
X25266Y-56389
X25738Y-47244
X25738Y-55236
X76624Y-47244
X76624Y-55236
X77096Y-46092
X77096Y-48396
X77096Y-54084
X77096Y-56389
X78248Y-45620
X78248Y-48868
X78248Y-53612
X78248Y-56860
X79400Y-46092
X79400Y-48396
X79400Y-54084
X79400Y-56389
X79872Y-47244
X79872Y-55236
X67274Y-39252
X67745Y-38100
X67745Y-40404
X68898Y-37628
X68898Y-40876
X70050Y-38100
X70050Y-40404
X70522Y-39252
X76624Y-39252
X77096Y-38100
X77096Y-40404
X78248Y-37628
X78248Y-40876
X79400Y-38100
X79400Y-40404
X79872Y-39252
T4
X60335Y-38752
X60335Y-39752
X86335Y-41476
X86335Y-45020
X87106Y-42657
X87106Y-43839
X32201Y-41476
X32201Y-45020
X32972Y-42657
X32972Y-43839
X33228Y-38752
X33228Y-39752
X32677Y-46744
X32677Y-47744
X87402Y-54736
X87402Y-55736
X59744Y-46744
X59744Y-47744
X60335Y-54736
X60335Y-55736
X86811Y-46744
X86811Y-47744
X87402Y-38752
X87402Y-39752
X33268Y-54736
X33268Y-55736
T5
X68898Y-39252
X78248Y-39252
X41831Y-55236
X51181Y-55236
X95965Y-55236
T6
X51181Y-39252
X68898Y-47244
X68898Y-55236
X41831Y-39252
X41831Y-47244
X95965Y-39252
X24114Y-47244
X24114Y-55236
X78248Y-47244
X78248Y-55236
X51181Y-47244
X24114Y-39252
X95965Y-47244
T0
M30
