%TF.GenerationSoftware,KiCad,Pcbnew,(5.0.0-rc2-dev-632-g76d3b6f04)*%
%TF.CreationDate,2018-06-22T20:22:36+02:00*%
%TF.ProjectId,CellsBoard,43656C6C73426F6172642E6B69636164,rev?*%
%TF.SameCoordinates,Original*%
%TF.FileFunction,Copper,L1,Top,Signal*%
%TF.FilePolarity,Positive*%
%FSLAX46Y46*%
G04 Gerber Fmt 4.6, Leading zero omitted, Abs format (unit mm)*
G04 Created by KiCad (PCBNEW (5.0.0-rc2-dev-632-g76d3b6f04)) date 06/22/18 20:22:36*
%MOMM*%
%LPD*%
G01*
G04 APERTURE LIST*
%ADD10C,0.150000*%
%ADD11R,1.250000X0.250000*%
%ADD12C,11.000000*%
%ADD13C,0.900000*%
%ADD14C,1.500000*%
%ADD15O,2.000000X1.500000*%
%ADD16R,2.000000X1.500000*%
%ADD17C,1.200000*%
%ADD18R,1.300000X0.750000*%
%ADD19O,1.700000X1.700000*%
%ADD20R,1.700000X1.700000*%
%ADD21R,1.500000X0.970000*%
%ADD22R,0.970000X1.500000*%
%ADD23R,1.070000X1.800000*%
%ADD24R,1.500000X1.000000*%
%ADD25R,0.900000X0.800000*%
%ADD26C,0.800000*%
%ADD27C,0.400000*%
%ADD28C,0.200000*%
%ADD29C,0.500000*%
G04 APERTURE END LIST*
D10*
X229750000Y-132300000D02*
X232750000Y-132300000D01*
X228750000Y-147300000D02*
X228750000Y-133300000D01*
X232750000Y-148300000D02*
X229750000Y-148300000D01*
X233750000Y-133300000D02*
X233750000Y-147300000D01*
X229750000Y-148300000D02*
G75*
G02X228750000Y-147300000I0J1000000D01*
G01*
X228750000Y-133300000D02*
G75*
G02X229750000Y-132300000I1000000J0D01*
G01*
X232750000Y-132300000D02*
G75*
G02X233750000Y-133300000I0J-1000000D01*
G01*
X233750000Y-147300000D02*
G75*
G02X232750000Y-148300000I-1000000J0D01*
G01*
X250000000Y-90000000D02*
X52500000Y-90000000D01*
X250000000Y-90000000D02*
G75*
G02X252500000Y-92500000I0J-2500000D01*
G01*
X252500000Y-147500000D02*
X252500000Y-92500000D01*
X252500000Y-147500000D02*
G75*
G02X250000000Y-150000000I-2500000J0D01*
G01*
X52500000Y-150000000D02*
X250000000Y-150000000D01*
X52500000Y-150000000D02*
G75*
G02X50000000Y-147500000I0J2500000D01*
G01*
X50000000Y-92500000D02*
X50000000Y-147500000D01*
X50000000Y-92500000D02*
G75*
G02X52500000Y-90000000I2500000J0D01*
G01*
D11*
X155875000Y-104100000D03*
X149125000Y-104100000D03*
X155875000Y-104600000D03*
X149125000Y-104600000D03*
X155875000Y-105100000D03*
X149125000Y-105100000D03*
X155875000Y-105600000D03*
X149125000Y-105600000D03*
X155875000Y-106100000D03*
X149125000Y-106100000D03*
X155875000Y-106600000D03*
X149125000Y-106600000D03*
X155875000Y-107100000D03*
X149125000Y-107100000D03*
X155875000Y-107600000D03*
X149125000Y-107600000D03*
X155875000Y-108100000D03*
X149125000Y-108100000D03*
X155875000Y-108600000D03*
X149125000Y-108600000D03*
X155875000Y-109100000D03*
X149125000Y-109100000D03*
X155875000Y-109600000D03*
X149125000Y-109600000D03*
X155875000Y-110100000D03*
X149125000Y-110100000D03*
X155875000Y-110600000D03*
X149125000Y-110600000D03*
X155875000Y-111100000D03*
X149125000Y-111100000D03*
X155875000Y-111600000D03*
X149125000Y-111600000D03*
X155875000Y-112100000D03*
X149125000Y-112100000D03*
X155875000Y-112600000D03*
X149125000Y-112600000D03*
X155875000Y-113100000D03*
X149125000Y-113100000D03*
X155875000Y-113600000D03*
X149125000Y-113600000D03*
X155875000Y-114100000D03*
X149125000Y-114100000D03*
X155875000Y-114600000D03*
X149125000Y-114600000D03*
X155875000Y-115100000D03*
X149125000Y-115100000D03*
X155875000Y-115600000D03*
X149125000Y-115600000D03*
D12*
X106250000Y-140300000D03*
D13*
X110375000Y-140300000D03*
X109176815Y-143226815D03*
X106250000Y-144425000D03*
X103323185Y-143226815D03*
X102125000Y-140300000D03*
X103323185Y-137373185D03*
X106250000Y-136175000D03*
X109176815Y-137373185D03*
X134125000Y-140300000D03*
X125875000Y-140300000D03*
X130000000Y-144425000D03*
X127073185Y-137373185D03*
X132926815Y-137373185D03*
X132926815Y-143226815D03*
X130000000Y-136175000D03*
X127073185Y-143226815D03*
D12*
X130000000Y-140300000D03*
D10*
G36*
X121611756Y-138801806D02*
X121648159Y-138807206D01*
X121683857Y-138816147D01*
X121718506Y-138828545D01*
X121751774Y-138844280D01*
X121783339Y-138863199D01*
X121812897Y-138885121D01*
X121840165Y-138909835D01*
X121864879Y-138937103D01*
X121886801Y-138966661D01*
X121905720Y-138998226D01*
X121921455Y-139031494D01*
X121933853Y-139066143D01*
X121942794Y-139101841D01*
X121948194Y-139138244D01*
X121950000Y-139175000D01*
X121950000Y-141425000D01*
X121948194Y-141461756D01*
X121942794Y-141498159D01*
X121933853Y-141533857D01*
X121921455Y-141568506D01*
X121905720Y-141601774D01*
X121886801Y-141633339D01*
X121864879Y-141662897D01*
X121840165Y-141690165D01*
X121812897Y-141714879D01*
X121783339Y-141736801D01*
X121751774Y-141755720D01*
X121718506Y-141771455D01*
X121683857Y-141783853D01*
X121648159Y-141792794D01*
X121611756Y-141798194D01*
X121575000Y-141800000D01*
X120825000Y-141800000D01*
X120788244Y-141798194D01*
X120751841Y-141792794D01*
X120716143Y-141783853D01*
X120681494Y-141771455D01*
X120648226Y-141755720D01*
X120616661Y-141736801D01*
X120587103Y-141714879D01*
X120559835Y-141690165D01*
X120535121Y-141662897D01*
X120513199Y-141633339D01*
X120494280Y-141601774D01*
X120478545Y-141568506D01*
X120466147Y-141533857D01*
X120457206Y-141498159D01*
X120451806Y-141461756D01*
X120450000Y-141425000D01*
X120450000Y-139175000D01*
X120451806Y-139138244D01*
X120457206Y-139101841D01*
X120466147Y-139066143D01*
X120478545Y-139031494D01*
X120494280Y-138998226D01*
X120513199Y-138966661D01*
X120535121Y-138937103D01*
X120559835Y-138909835D01*
X120587103Y-138885121D01*
X120616661Y-138863199D01*
X120648226Y-138844280D01*
X120681494Y-138828545D01*
X120716143Y-138816147D01*
X120751841Y-138807206D01*
X120788244Y-138801806D01*
X120825000Y-138800000D01*
X121575000Y-138800000D01*
X121611756Y-138801806D01*
X121611756Y-138801806D01*
G37*
D14*
X121200000Y-140300000D03*
D10*
G36*
X115461756Y-138801806D02*
X115498159Y-138807206D01*
X115533857Y-138816147D01*
X115568506Y-138828545D01*
X115601774Y-138844280D01*
X115633339Y-138863199D01*
X115662897Y-138885121D01*
X115690165Y-138909835D01*
X115714879Y-138937103D01*
X115736801Y-138966661D01*
X115755720Y-138998226D01*
X115771455Y-139031494D01*
X115783853Y-139066143D01*
X115792794Y-139101841D01*
X115798194Y-139138244D01*
X115800000Y-139175000D01*
X115800000Y-141425000D01*
X115798194Y-141461756D01*
X115792794Y-141498159D01*
X115783853Y-141533857D01*
X115771455Y-141568506D01*
X115755720Y-141601774D01*
X115736801Y-141633339D01*
X115714879Y-141662897D01*
X115690165Y-141690165D01*
X115662897Y-141714879D01*
X115633339Y-141736801D01*
X115601774Y-141755720D01*
X115568506Y-141771455D01*
X115533857Y-141783853D01*
X115498159Y-141792794D01*
X115461756Y-141798194D01*
X115425000Y-141800000D01*
X114675000Y-141800000D01*
X114638244Y-141798194D01*
X114601841Y-141792794D01*
X114566143Y-141783853D01*
X114531494Y-141771455D01*
X114498226Y-141755720D01*
X114466661Y-141736801D01*
X114437103Y-141714879D01*
X114409835Y-141690165D01*
X114385121Y-141662897D01*
X114363199Y-141633339D01*
X114344280Y-141601774D01*
X114328545Y-141568506D01*
X114316147Y-141533857D01*
X114307206Y-141498159D01*
X114301806Y-141461756D01*
X114300000Y-141425000D01*
X114300000Y-139175000D01*
X114301806Y-139138244D01*
X114307206Y-139101841D01*
X114316147Y-139066143D01*
X114328545Y-139031494D01*
X114344280Y-138998226D01*
X114363199Y-138966661D01*
X114385121Y-138937103D01*
X114409835Y-138909835D01*
X114437103Y-138885121D01*
X114466661Y-138863199D01*
X114498226Y-138844280D01*
X114531494Y-138828545D01*
X114566143Y-138816147D01*
X114601841Y-138807206D01*
X114638244Y-138801806D01*
X114675000Y-138800000D01*
X115425000Y-138800000D01*
X115461756Y-138801806D01*
X115461756Y-138801806D01*
G37*
D14*
X115050000Y-140300000D03*
D12*
X175000000Y-99700000D03*
D13*
X179125000Y-99700000D03*
X177926815Y-102626815D03*
X175000000Y-103825000D03*
X172073185Y-102626815D03*
X170875000Y-99700000D03*
X172073185Y-96773185D03*
X175000000Y-95575000D03*
X177926815Y-96773185D03*
X202875000Y-99700000D03*
X194625000Y-99700000D03*
X198750000Y-103825000D03*
X195823185Y-96773185D03*
X201676815Y-96773185D03*
X201676815Y-102626815D03*
X198750000Y-95575000D03*
X195823185Y-102626815D03*
D12*
X198750000Y-99700000D03*
D10*
G36*
X190361756Y-98201806D02*
X190398159Y-98207206D01*
X190433857Y-98216147D01*
X190468506Y-98228545D01*
X190501774Y-98244280D01*
X190533339Y-98263199D01*
X190562897Y-98285121D01*
X190590165Y-98309835D01*
X190614879Y-98337103D01*
X190636801Y-98366661D01*
X190655720Y-98398226D01*
X190671455Y-98431494D01*
X190683853Y-98466143D01*
X190692794Y-98501841D01*
X190698194Y-98538244D01*
X190700000Y-98575000D01*
X190700000Y-100825000D01*
X190698194Y-100861756D01*
X190692794Y-100898159D01*
X190683853Y-100933857D01*
X190671455Y-100968506D01*
X190655720Y-101001774D01*
X190636801Y-101033339D01*
X190614879Y-101062897D01*
X190590165Y-101090165D01*
X190562897Y-101114879D01*
X190533339Y-101136801D01*
X190501774Y-101155720D01*
X190468506Y-101171455D01*
X190433857Y-101183853D01*
X190398159Y-101192794D01*
X190361756Y-101198194D01*
X190325000Y-101200000D01*
X189575000Y-101200000D01*
X189538244Y-101198194D01*
X189501841Y-101192794D01*
X189466143Y-101183853D01*
X189431494Y-101171455D01*
X189398226Y-101155720D01*
X189366661Y-101136801D01*
X189337103Y-101114879D01*
X189309835Y-101090165D01*
X189285121Y-101062897D01*
X189263199Y-101033339D01*
X189244280Y-101001774D01*
X189228545Y-100968506D01*
X189216147Y-100933857D01*
X189207206Y-100898159D01*
X189201806Y-100861756D01*
X189200000Y-100825000D01*
X189200000Y-98575000D01*
X189201806Y-98538244D01*
X189207206Y-98501841D01*
X189216147Y-98466143D01*
X189228545Y-98431494D01*
X189244280Y-98398226D01*
X189263199Y-98366661D01*
X189285121Y-98337103D01*
X189309835Y-98309835D01*
X189337103Y-98285121D01*
X189366661Y-98263199D01*
X189398226Y-98244280D01*
X189431494Y-98228545D01*
X189466143Y-98216147D01*
X189501841Y-98207206D01*
X189538244Y-98201806D01*
X189575000Y-98200000D01*
X190325000Y-98200000D01*
X190361756Y-98201806D01*
X190361756Y-98201806D01*
G37*
D14*
X189950000Y-99700000D03*
D10*
G36*
X184211756Y-98201806D02*
X184248159Y-98207206D01*
X184283857Y-98216147D01*
X184318506Y-98228545D01*
X184351774Y-98244280D01*
X184383339Y-98263199D01*
X184412897Y-98285121D01*
X184440165Y-98309835D01*
X184464879Y-98337103D01*
X184486801Y-98366661D01*
X184505720Y-98398226D01*
X184521455Y-98431494D01*
X184533853Y-98466143D01*
X184542794Y-98501841D01*
X184548194Y-98538244D01*
X184550000Y-98575000D01*
X184550000Y-100825000D01*
X184548194Y-100861756D01*
X184542794Y-100898159D01*
X184533853Y-100933857D01*
X184521455Y-100968506D01*
X184505720Y-101001774D01*
X184486801Y-101033339D01*
X184464879Y-101062897D01*
X184440165Y-101090165D01*
X184412897Y-101114879D01*
X184383339Y-101136801D01*
X184351774Y-101155720D01*
X184318506Y-101171455D01*
X184283857Y-101183853D01*
X184248159Y-101192794D01*
X184211756Y-101198194D01*
X184175000Y-101200000D01*
X183425000Y-101200000D01*
X183388244Y-101198194D01*
X183351841Y-101192794D01*
X183316143Y-101183853D01*
X183281494Y-101171455D01*
X183248226Y-101155720D01*
X183216661Y-101136801D01*
X183187103Y-101114879D01*
X183159835Y-101090165D01*
X183135121Y-101062897D01*
X183113199Y-101033339D01*
X183094280Y-101001774D01*
X183078545Y-100968506D01*
X183066147Y-100933857D01*
X183057206Y-100898159D01*
X183051806Y-100861756D01*
X183050000Y-100825000D01*
X183050000Y-98575000D01*
X183051806Y-98538244D01*
X183057206Y-98501841D01*
X183066147Y-98466143D01*
X183078545Y-98431494D01*
X183094280Y-98398226D01*
X183113199Y-98366661D01*
X183135121Y-98337103D01*
X183159835Y-98309835D01*
X183187103Y-98285121D01*
X183216661Y-98263199D01*
X183248226Y-98244280D01*
X183281494Y-98228545D01*
X183316143Y-98216147D01*
X183351841Y-98207206D01*
X183388244Y-98201806D01*
X183425000Y-98200000D01*
X184175000Y-98200000D01*
X184211756Y-98201806D01*
X184211756Y-98201806D01*
G37*
D14*
X183800000Y-99700000D03*
D12*
X106250000Y-120000000D03*
D13*
X106250000Y-115875000D03*
X109176815Y-117073185D03*
X110375000Y-120000000D03*
X109176815Y-122926815D03*
X106250000Y-124125000D03*
X103323185Y-122926815D03*
X102125000Y-120000000D03*
X103323185Y-117073185D03*
X106250000Y-95575000D03*
X106250000Y-103825000D03*
X110375000Y-99700000D03*
X103323185Y-102626815D03*
X103323185Y-96773185D03*
X109176815Y-96773185D03*
X102125000Y-99700000D03*
X109176815Y-102626815D03*
D12*
X106250000Y-99700000D03*
D10*
G36*
X107411756Y-107601806D02*
X107448159Y-107607206D01*
X107483857Y-107616147D01*
X107518506Y-107628545D01*
X107551774Y-107644280D01*
X107583339Y-107663199D01*
X107612897Y-107685121D01*
X107640165Y-107709835D01*
X107664879Y-107737103D01*
X107686801Y-107766661D01*
X107705720Y-107798226D01*
X107721455Y-107831494D01*
X107733853Y-107866143D01*
X107742794Y-107901841D01*
X107748194Y-107938244D01*
X107750000Y-107975000D01*
X107750000Y-108725000D01*
X107748194Y-108761756D01*
X107742794Y-108798159D01*
X107733853Y-108833857D01*
X107721455Y-108868506D01*
X107705720Y-108901774D01*
X107686801Y-108933339D01*
X107664879Y-108962897D01*
X107640165Y-108990165D01*
X107612897Y-109014879D01*
X107583339Y-109036801D01*
X107551774Y-109055720D01*
X107518506Y-109071455D01*
X107483857Y-109083853D01*
X107448159Y-109092794D01*
X107411756Y-109098194D01*
X107375000Y-109100000D01*
X105125000Y-109100000D01*
X105088244Y-109098194D01*
X105051841Y-109092794D01*
X105016143Y-109083853D01*
X104981494Y-109071455D01*
X104948226Y-109055720D01*
X104916661Y-109036801D01*
X104887103Y-109014879D01*
X104859835Y-108990165D01*
X104835121Y-108962897D01*
X104813199Y-108933339D01*
X104794280Y-108901774D01*
X104778545Y-108868506D01*
X104766147Y-108833857D01*
X104757206Y-108798159D01*
X104751806Y-108761756D01*
X104750000Y-108725000D01*
X104750000Y-107975000D01*
X104751806Y-107938244D01*
X104757206Y-107901841D01*
X104766147Y-107866143D01*
X104778545Y-107831494D01*
X104794280Y-107798226D01*
X104813199Y-107766661D01*
X104835121Y-107737103D01*
X104859835Y-107709835D01*
X104887103Y-107685121D01*
X104916661Y-107663199D01*
X104948226Y-107644280D01*
X104981494Y-107628545D01*
X105016143Y-107616147D01*
X105051841Y-107607206D01*
X105088244Y-107601806D01*
X105125000Y-107600000D01*
X107375000Y-107600000D01*
X107411756Y-107601806D01*
X107411756Y-107601806D01*
G37*
D14*
X106250000Y-108350000D03*
D10*
G36*
X107411756Y-110601806D02*
X107448159Y-110607206D01*
X107483857Y-110616147D01*
X107518506Y-110628545D01*
X107551774Y-110644280D01*
X107583339Y-110663199D01*
X107612897Y-110685121D01*
X107640165Y-110709835D01*
X107664879Y-110737103D01*
X107686801Y-110766661D01*
X107705720Y-110798226D01*
X107721455Y-110831494D01*
X107733853Y-110866143D01*
X107742794Y-110901841D01*
X107748194Y-110938244D01*
X107750000Y-110975000D01*
X107750000Y-111725000D01*
X107748194Y-111761756D01*
X107742794Y-111798159D01*
X107733853Y-111833857D01*
X107721455Y-111868506D01*
X107705720Y-111901774D01*
X107686801Y-111933339D01*
X107664879Y-111962897D01*
X107640165Y-111990165D01*
X107612897Y-112014879D01*
X107583339Y-112036801D01*
X107551774Y-112055720D01*
X107518506Y-112071455D01*
X107483857Y-112083853D01*
X107448159Y-112092794D01*
X107411756Y-112098194D01*
X107375000Y-112100000D01*
X105125000Y-112100000D01*
X105088244Y-112098194D01*
X105051841Y-112092794D01*
X105016143Y-112083853D01*
X104981494Y-112071455D01*
X104948226Y-112055720D01*
X104916661Y-112036801D01*
X104887103Y-112014879D01*
X104859835Y-111990165D01*
X104835121Y-111962897D01*
X104813199Y-111933339D01*
X104794280Y-111901774D01*
X104778545Y-111868506D01*
X104766147Y-111833857D01*
X104757206Y-111798159D01*
X104751806Y-111761756D01*
X104750000Y-111725000D01*
X104750000Y-110975000D01*
X104751806Y-110938244D01*
X104757206Y-110901841D01*
X104766147Y-110866143D01*
X104778545Y-110831494D01*
X104794280Y-110798226D01*
X104813199Y-110766661D01*
X104835121Y-110737103D01*
X104859835Y-110709835D01*
X104887103Y-110685121D01*
X104916661Y-110663199D01*
X104948226Y-110644280D01*
X104981494Y-110628545D01*
X105016143Y-110616147D01*
X105051841Y-110607206D01*
X105088244Y-110601806D01*
X105125000Y-110600000D01*
X107375000Y-110600000D01*
X107411756Y-110601806D01*
X107411756Y-110601806D01*
G37*
D14*
X106250000Y-111350000D03*
D12*
X61250000Y-140300000D03*
D13*
X61250000Y-136175000D03*
X64176815Y-137373185D03*
X65375000Y-140300000D03*
X64176815Y-143226815D03*
X61250000Y-144425000D03*
X58323185Y-143226815D03*
X57125000Y-140300000D03*
X58323185Y-137373185D03*
X61250000Y-115875000D03*
X61250000Y-124125000D03*
X65375000Y-120000000D03*
X58323185Y-122926815D03*
X58323185Y-117073185D03*
X64176815Y-117073185D03*
X57125000Y-120000000D03*
X64176815Y-122926815D03*
D12*
X61250000Y-120000000D03*
D10*
G36*
X62411756Y-127901806D02*
X62448159Y-127907206D01*
X62483857Y-127916147D01*
X62518506Y-127928545D01*
X62551774Y-127944280D01*
X62583339Y-127963199D01*
X62612897Y-127985121D01*
X62640165Y-128009835D01*
X62664879Y-128037103D01*
X62686801Y-128066661D01*
X62705720Y-128098226D01*
X62721455Y-128131494D01*
X62733853Y-128166143D01*
X62742794Y-128201841D01*
X62748194Y-128238244D01*
X62750000Y-128275000D01*
X62750000Y-129025000D01*
X62748194Y-129061756D01*
X62742794Y-129098159D01*
X62733853Y-129133857D01*
X62721455Y-129168506D01*
X62705720Y-129201774D01*
X62686801Y-129233339D01*
X62664879Y-129262897D01*
X62640165Y-129290165D01*
X62612897Y-129314879D01*
X62583339Y-129336801D01*
X62551774Y-129355720D01*
X62518506Y-129371455D01*
X62483857Y-129383853D01*
X62448159Y-129392794D01*
X62411756Y-129398194D01*
X62375000Y-129400000D01*
X60125000Y-129400000D01*
X60088244Y-129398194D01*
X60051841Y-129392794D01*
X60016143Y-129383853D01*
X59981494Y-129371455D01*
X59948226Y-129355720D01*
X59916661Y-129336801D01*
X59887103Y-129314879D01*
X59859835Y-129290165D01*
X59835121Y-129262897D01*
X59813199Y-129233339D01*
X59794280Y-129201774D01*
X59778545Y-129168506D01*
X59766147Y-129133857D01*
X59757206Y-129098159D01*
X59751806Y-129061756D01*
X59750000Y-129025000D01*
X59750000Y-128275000D01*
X59751806Y-128238244D01*
X59757206Y-128201841D01*
X59766147Y-128166143D01*
X59778545Y-128131494D01*
X59794280Y-128098226D01*
X59813199Y-128066661D01*
X59835121Y-128037103D01*
X59859835Y-128009835D01*
X59887103Y-127985121D01*
X59916661Y-127963199D01*
X59948226Y-127944280D01*
X59981494Y-127928545D01*
X60016143Y-127916147D01*
X60051841Y-127907206D01*
X60088244Y-127901806D01*
X60125000Y-127900000D01*
X62375000Y-127900000D01*
X62411756Y-127901806D01*
X62411756Y-127901806D01*
G37*
D14*
X61250000Y-128650000D03*
D10*
G36*
X62411756Y-130901806D02*
X62448159Y-130907206D01*
X62483857Y-130916147D01*
X62518506Y-130928545D01*
X62551774Y-130944280D01*
X62583339Y-130963199D01*
X62612897Y-130985121D01*
X62640165Y-131009835D01*
X62664879Y-131037103D01*
X62686801Y-131066661D01*
X62705720Y-131098226D01*
X62721455Y-131131494D01*
X62733853Y-131166143D01*
X62742794Y-131201841D01*
X62748194Y-131238244D01*
X62750000Y-131275000D01*
X62750000Y-132025000D01*
X62748194Y-132061756D01*
X62742794Y-132098159D01*
X62733853Y-132133857D01*
X62721455Y-132168506D01*
X62705720Y-132201774D01*
X62686801Y-132233339D01*
X62664879Y-132262897D01*
X62640165Y-132290165D01*
X62612897Y-132314879D01*
X62583339Y-132336801D01*
X62551774Y-132355720D01*
X62518506Y-132371455D01*
X62483857Y-132383853D01*
X62448159Y-132392794D01*
X62411756Y-132398194D01*
X62375000Y-132400000D01*
X60125000Y-132400000D01*
X60088244Y-132398194D01*
X60051841Y-132392794D01*
X60016143Y-132383853D01*
X59981494Y-132371455D01*
X59948226Y-132355720D01*
X59916661Y-132336801D01*
X59887103Y-132314879D01*
X59859835Y-132290165D01*
X59835121Y-132262897D01*
X59813199Y-132233339D01*
X59794280Y-132201774D01*
X59778545Y-132168506D01*
X59766147Y-132133857D01*
X59757206Y-132098159D01*
X59751806Y-132061756D01*
X59750000Y-132025000D01*
X59750000Y-131275000D01*
X59751806Y-131238244D01*
X59757206Y-131201841D01*
X59766147Y-131166143D01*
X59778545Y-131131494D01*
X59794280Y-131098226D01*
X59813199Y-131066661D01*
X59835121Y-131037103D01*
X59859835Y-131009835D01*
X59887103Y-130985121D01*
X59916661Y-130963199D01*
X59948226Y-130944280D01*
X59981494Y-130928545D01*
X60016143Y-130916147D01*
X60051841Y-130907206D01*
X60088244Y-130901806D01*
X60125000Y-130900000D01*
X62375000Y-130900000D01*
X62411756Y-130901806D01*
X62411756Y-130901806D01*
G37*
D14*
X61250000Y-131650000D03*
D12*
X175000000Y-120000000D03*
D13*
X175000000Y-124125000D03*
X172073185Y-122926815D03*
X170875000Y-120000000D03*
X172073185Y-117073185D03*
X175000000Y-115875000D03*
X177926815Y-117073185D03*
X179125000Y-120000000D03*
X177926815Y-122926815D03*
X175000000Y-144425000D03*
X175000000Y-136175000D03*
X170875000Y-140300000D03*
X177926815Y-137373185D03*
X177926815Y-143226815D03*
X172073185Y-143226815D03*
X179125000Y-140300000D03*
X172073185Y-137373185D03*
D12*
X175000000Y-140300000D03*
D10*
G36*
X176161756Y-130901806D02*
X176198159Y-130907206D01*
X176233857Y-130916147D01*
X176268506Y-130928545D01*
X176301774Y-130944280D01*
X176333339Y-130963199D01*
X176362897Y-130985121D01*
X176390165Y-131009835D01*
X176414879Y-131037103D01*
X176436801Y-131066661D01*
X176455720Y-131098226D01*
X176471455Y-131131494D01*
X176483853Y-131166143D01*
X176492794Y-131201841D01*
X176498194Y-131238244D01*
X176500000Y-131275000D01*
X176500000Y-132025000D01*
X176498194Y-132061756D01*
X176492794Y-132098159D01*
X176483853Y-132133857D01*
X176471455Y-132168506D01*
X176455720Y-132201774D01*
X176436801Y-132233339D01*
X176414879Y-132262897D01*
X176390165Y-132290165D01*
X176362897Y-132314879D01*
X176333339Y-132336801D01*
X176301774Y-132355720D01*
X176268506Y-132371455D01*
X176233857Y-132383853D01*
X176198159Y-132392794D01*
X176161756Y-132398194D01*
X176125000Y-132400000D01*
X173875000Y-132400000D01*
X173838244Y-132398194D01*
X173801841Y-132392794D01*
X173766143Y-132383853D01*
X173731494Y-132371455D01*
X173698226Y-132355720D01*
X173666661Y-132336801D01*
X173637103Y-132314879D01*
X173609835Y-132290165D01*
X173585121Y-132262897D01*
X173563199Y-132233339D01*
X173544280Y-132201774D01*
X173528545Y-132168506D01*
X173516147Y-132133857D01*
X173507206Y-132098159D01*
X173501806Y-132061756D01*
X173500000Y-132025000D01*
X173500000Y-131275000D01*
X173501806Y-131238244D01*
X173507206Y-131201841D01*
X173516147Y-131166143D01*
X173528545Y-131131494D01*
X173544280Y-131098226D01*
X173563199Y-131066661D01*
X173585121Y-131037103D01*
X173609835Y-131009835D01*
X173637103Y-130985121D01*
X173666661Y-130963199D01*
X173698226Y-130944280D01*
X173731494Y-130928545D01*
X173766143Y-130916147D01*
X173801841Y-130907206D01*
X173838244Y-130901806D01*
X173875000Y-130900000D01*
X176125000Y-130900000D01*
X176161756Y-130901806D01*
X176161756Y-130901806D01*
G37*
D14*
X175000000Y-131650000D03*
D10*
G36*
X176161756Y-127901806D02*
X176198159Y-127907206D01*
X176233857Y-127916147D01*
X176268506Y-127928545D01*
X176301774Y-127944280D01*
X176333339Y-127963199D01*
X176362897Y-127985121D01*
X176390165Y-128009835D01*
X176414879Y-128037103D01*
X176436801Y-128066661D01*
X176455720Y-128098226D01*
X176471455Y-128131494D01*
X176483853Y-128166143D01*
X176492794Y-128201841D01*
X176498194Y-128238244D01*
X176500000Y-128275000D01*
X176500000Y-129025000D01*
X176498194Y-129061756D01*
X176492794Y-129098159D01*
X176483853Y-129133857D01*
X176471455Y-129168506D01*
X176455720Y-129201774D01*
X176436801Y-129233339D01*
X176414879Y-129262897D01*
X176390165Y-129290165D01*
X176362897Y-129314879D01*
X176333339Y-129336801D01*
X176301774Y-129355720D01*
X176268506Y-129371455D01*
X176233857Y-129383853D01*
X176198159Y-129392794D01*
X176161756Y-129398194D01*
X176125000Y-129400000D01*
X173875000Y-129400000D01*
X173838244Y-129398194D01*
X173801841Y-129392794D01*
X173766143Y-129383853D01*
X173731494Y-129371455D01*
X173698226Y-129355720D01*
X173666661Y-129336801D01*
X173637103Y-129314879D01*
X173609835Y-129290165D01*
X173585121Y-129262897D01*
X173563199Y-129233339D01*
X173544280Y-129201774D01*
X173528545Y-129168506D01*
X173516147Y-129133857D01*
X173507206Y-129098159D01*
X173501806Y-129061756D01*
X173500000Y-129025000D01*
X173500000Y-128275000D01*
X173501806Y-128238244D01*
X173507206Y-128201841D01*
X173516147Y-128166143D01*
X173528545Y-128131494D01*
X173544280Y-128098226D01*
X173563199Y-128066661D01*
X173585121Y-128037103D01*
X173609835Y-128009835D01*
X173637103Y-127985121D01*
X173666661Y-127963199D01*
X173698226Y-127944280D01*
X173731494Y-127928545D01*
X173766143Y-127916147D01*
X173801841Y-127907206D01*
X173838244Y-127901806D01*
X173875000Y-127900000D01*
X176125000Y-127900000D01*
X176161756Y-127901806D01*
X176161756Y-127901806D01*
G37*
D14*
X175000000Y-128650000D03*
D12*
X130000000Y-99700000D03*
D13*
X130000000Y-103825000D03*
X127073185Y-102626815D03*
X125875000Y-99700000D03*
X127073185Y-96773185D03*
X130000000Y-95575000D03*
X132926815Y-96773185D03*
X134125000Y-99700000D03*
X132926815Y-102626815D03*
X130000000Y-124125000D03*
X130000000Y-115875000D03*
X125875000Y-120000000D03*
X132926815Y-117073185D03*
X132926815Y-122926815D03*
X127073185Y-122926815D03*
X134125000Y-120000000D03*
X127073185Y-117073185D03*
D12*
X130000000Y-120000000D03*
D10*
G36*
X131161756Y-110601806D02*
X131198159Y-110607206D01*
X131233857Y-110616147D01*
X131268506Y-110628545D01*
X131301774Y-110644280D01*
X131333339Y-110663199D01*
X131362897Y-110685121D01*
X131390165Y-110709835D01*
X131414879Y-110737103D01*
X131436801Y-110766661D01*
X131455720Y-110798226D01*
X131471455Y-110831494D01*
X131483853Y-110866143D01*
X131492794Y-110901841D01*
X131498194Y-110938244D01*
X131500000Y-110975000D01*
X131500000Y-111725000D01*
X131498194Y-111761756D01*
X131492794Y-111798159D01*
X131483853Y-111833857D01*
X131471455Y-111868506D01*
X131455720Y-111901774D01*
X131436801Y-111933339D01*
X131414879Y-111962897D01*
X131390165Y-111990165D01*
X131362897Y-112014879D01*
X131333339Y-112036801D01*
X131301774Y-112055720D01*
X131268506Y-112071455D01*
X131233857Y-112083853D01*
X131198159Y-112092794D01*
X131161756Y-112098194D01*
X131125000Y-112100000D01*
X128875000Y-112100000D01*
X128838244Y-112098194D01*
X128801841Y-112092794D01*
X128766143Y-112083853D01*
X128731494Y-112071455D01*
X128698226Y-112055720D01*
X128666661Y-112036801D01*
X128637103Y-112014879D01*
X128609835Y-111990165D01*
X128585121Y-111962897D01*
X128563199Y-111933339D01*
X128544280Y-111901774D01*
X128528545Y-111868506D01*
X128516147Y-111833857D01*
X128507206Y-111798159D01*
X128501806Y-111761756D01*
X128500000Y-111725000D01*
X128500000Y-110975000D01*
X128501806Y-110938244D01*
X128507206Y-110901841D01*
X128516147Y-110866143D01*
X128528545Y-110831494D01*
X128544280Y-110798226D01*
X128563199Y-110766661D01*
X128585121Y-110737103D01*
X128609835Y-110709835D01*
X128637103Y-110685121D01*
X128666661Y-110663199D01*
X128698226Y-110644280D01*
X128731494Y-110628545D01*
X128766143Y-110616147D01*
X128801841Y-110607206D01*
X128838244Y-110601806D01*
X128875000Y-110600000D01*
X131125000Y-110600000D01*
X131161756Y-110601806D01*
X131161756Y-110601806D01*
G37*
D14*
X130000000Y-111350000D03*
D10*
G36*
X131161756Y-107601806D02*
X131198159Y-107607206D01*
X131233857Y-107616147D01*
X131268506Y-107628545D01*
X131301774Y-107644280D01*
X131333339Y-107663199D01*
X131362897Y-107685121D01*
X131390165Y-107709835D01*
X131414879Y-107737103D01*
X131436801Y-107766661D01*
X131455720Y-107798226D01*
X131471455Y-107831494D01*
X131483853Y-107866143D01*
X131492794Y-107901841D01*
X131498194Y-107938244D01*
X131500000Y-107975000D01*
X131500000Y-108725000D01*
X131498194Y-108761756D01*
X131492794Y-108798159D01*
X131483853Y-108833857D01*
X131471455Y-108868506D01*
X131455720Y-108901774D01*
X131436801Y-108933339D01*
X131414879Y-108962897D01*
X131390165Y-108990165D01*
X131362897Y-109014879D01*
X131333339Y-109036801D01*
X131301774Y-109055720D01*
X131268506Y-109071455D01*
X131233857Y-109083853D01*
X131198159Y-109092794D01*
X131161756Y-109098194D01*
X131125000Y-109100000D01*
X128875000Y-109100000D01*
X128838244Y-109098194D01*
X128801841Y-109092794D01*
X128766143Y-109083853D01*
X128731494Y-109071455D01*
X128698226Y-109055720D01*
X128666661Y-109036801D01*
X128637103Y-109014879D01*
X128609835Y-108990165D01*
X128585121Y-108962897D01*
X128563199Y-108933339D01*
X128544280Y-108901774D01*
X128528545Y-108868506D01*
X128516147Y-108833857D01*
X128507206Y-108798159D01*
X128501806Y-108761756D01*
X128500000Y-108725000D01*
X128500000Y-107975000D01*
X128501806Y-107938244D01*
X128507206Y-107901841D01*
X128516147Y-107866143D01*
X128528545Y-107831494D01*
X128544280Y-107798226D01*
X128563199Y-107766661D01*
X128585121Y-107737103D01*
X128609835Y-107709835D01*
X128637103Y-107685121D01*
X128666661Y-107663199D01*
X128698226Y-107644280D01*
X128731494Y-107628545D01*
X128766143Y-107616147D01*
X128801841Y-107607206D01*
X128838244Y-107601806D01*
X128875000Y-107600000D01*
X131125000Y-107600000D01*
X131161756Y-107601806D01*
X131161756Y-107601806D01*
G37*
D14*
X130000000Y-108350000D03*
D12*
X243750000Y-120000000D03*
D13*
X243750000Y-115875000D03*
X246676815Y-117073185D03*
X247875000Y-120000000D03*
X246676815Y-122926815D03*
X243750000Y-124125000D03*
X240823185Y-122926815D03*
X239625000Y-120000000D03*
X240823185Y-117073185D03*
X243750000Y-95575000D03*
X243750000Y-103825000D03*
X247875000Y-99700000D03*
X240823185Y-102626815D03*
X240823185Y-96773185D03*
X246676815Y-96773185D03*
X239625000Y-99700000D03*
X246676815Y-102626815D03*
D12*
X243750000Y-99700000D03*
D10*
G36*
X244911756Y-107601806D02*
X244948159Y-107607206D01*
X244983857Y-107616147D01*
X245018506Y-107628545D01*
X245051774Y-107644280D01*
X245083339Y-107663199D01*
X245112897Y-107685121D01*
X245140165Y-107709835D01*
X245164879Y-107737103D01*
X245186801Y-107766661D01*
X245205720Y-107798226D01*
X245221455Y-107831494D01*
X245233853Y-107866143D01*
X245242794Y-107901841D01*
X245248194Y-107938244D01*
X245250000Y-107975000D01*
X245250000Y-108725000D01*
X245248194Y-108761756D01*
X245242794Y-108798159D01*
X245233853Y-108833857D01*
X245221455Y-108868506D01*
X245205720Y-108901774D01*
X245186801Y-108933339D01*
X245164879Y-108962897D01*
X245140165Y-108990165D01*
X245112897Y-109014879D01*
X245083339Y-109036801D01*
X245051774Y-109055720D01*
X245018506Y-109071455D01*
X244983857Y-109083853D01*
X244948159Y-109092794D01*
X244911756Y-109098194D01*
X244875000Y-109100000D01*
X242625000Y-109100000D01*
X242588244Y-109098194D01*
X242551841Y-109092794D01*
X242516143Y-109083853D01*
X242481494Y-109071455D01*
X242448226Y-109055720D01*
X242416661Y-109036801D01*
X242387103Y-109014879D01*
X242359835Y-108990165D01*
X242335121Y-108962897D01*
X242313199Y-108933339D01*
X242294280Y-108901774D01*
X242278545Y-108868506D01*
X242266147Y-108833857D01*
X242257206Y-108798159D01*
X242251806Y-108761756D01*
X242250000Y-108725000D01*
X242250000Y-107975000D01*
X242251806Y-107938244D01*
X242257206Y-107901841D01*
X242266147Y-107866143D01*
X242278545Y-107831494D01*
X242294280Y-107798226D01*
X242313199Y-107766661D01*
X242335121Y-107737103D01*
X242359835Y-107709835D01*
X242387103Y-107685121D01*
X242416661Y-107663199D01*
X242448226Y-107644280D01*
X242481494Y-107628545D01*
X242516143Y-107616147D01*
X242551841Y-107607206D01*
X242588244Y-107601806D01*
X242625000Y-107600000D01*
X244875000Y-107600000D01*
X244911756Y-107601806D01*
X244911756Y-107601806D01*
G37*
D14*
X243750000Y-108350000D03*
D10*
G36*
X244911756Y-110601806D02*
X244948159Y-110607206D01*
X244983857Y-110616147D01*
X245018506Y-110628545D01*
X245051774Y-110644280D01*
X245083339Y-110663199D01*
X245112897Y-110685121D01*
X245140165Y-110709835D01*
X245164879Y-110737103D01*
X245186801Y-110766661D01*
X245205720Y-110798226D01*
X245221455Y-110831494D01*
X245233853Y-110866143D01*
X245242794Y-110901841D01*
X245248194Y-110938244D01*
X245250000Y-110975000D01*
X245250000Y-111725000D01*
X245248194Y-111761756D01*
X245242794Y-111798159D01*
X245233853Y-111833857D01*
X245221455Y-111868506D01*
X245205720Y-111901774D01*
X245186801Y-111933339D01*
X245164879Y-111962897D01*
X245140165Y-111990165D01*
X245112897Y-112014879D01*
X245083339Y-112036801D01*
X245051774Y-112055720D01*
X245018506Y-112071455D01*
X244983857Y-112083853D01*
X244948159Y-112092794D01*
X244911756Y-112098194D01*
X244875000Y-112100000D01*
X242625000Y-112100000D01*
X242588244Y-112098194D01*
X242551841Y-112092794D01*
X242516143Y-112083853D01*
X242481494Y-112071455D01*
X242448226Y-112055720D01*
X242416661Y-112036801D01*
X242387103Y-112014879D01*
X242359835Y-111990165D01*
X242335121Y-111962897D01*
X242313199Y-111933339D01*
X242294280Y-111901774D01*
X242278545Y-111868506D01*
X242266147Y-111833857D01*
X242257206Y-111798159D01*
X242251806Y-111761756D01*
X242250000Y-111725000D01*
X242250000Y-110975000D01*
X242251806Y-110938244D01*
X242257206Y-110901841D01*
X242266147Y-110866143D01*
X242278545Y-110831494D01*
X242294280Y-110798226D01*
X242313199Y-110766661D01*
X242335121Y-110737103D01*
X242359835Y-110709835D01*
X242387103Y-110685121D01*
X242416661Y-110663199D01*
X242448226Y-110644280D01*
X242481494Y-110628545D01*
X242516143Y-110616147D01*
X242551841Y-110607206D01*
X242588244Y-110601806D01*
X242625000Y-110600000D01*
X244875000Y-110600000D01*
X244911756Y-110601806D01*
X244911756Y-110601806D01*
G37*
D14*
X243750000Y-111350000D03*
D12*
X198750000Y-140300000D03*
D13*
X198750000Y-136175000D03*
X201676815Y-137373185D03*
X202875000Y-140300000D03*
X201676815Y-143226815D03*
X198750000Y-144425000D03*
X195823185Y-143226815D03*
X194625000Y-140300000D03*
X195823185Y-137373185D03*
X198750000Y-115875000D03*
X198750000Y-124125000D03*
X202875000Y-120000000D03*
X195823185Y-122926815D03*
X195823185Y-117073185D03*
X201676815Y-117073185D03*
X194625000Y-120000000D03*
X201676815Y-122926815D03*
D12*
X198750000Y-120000000D03*
D10*
G36*
X199911756Y-127901806D02*
X199948159Y-127907206D01*
X199983857Y-127916147D01*
X200018506Y-127928545D01*
X200051774Y-127944280D01*
X200083339Y-127963199D01*
X200112897Y-127985121D01*
X200140165Y-128009835D01*
X200164879Y-128037103D01*
X200186801Y-128066661D01*
X200205720Y-128098226D01*
X200221455Y-128131494D01*
X200233853Y-128166143D01*
X200242794Y-128201841D01*
X200248194Y-128238244D01*
X200250000Y-128275000D01*
X200250000Y-129025000D01*
X200248194Y-129061756D01*
X200242794Y-129098159D01*
X200233853Y-129133857D01*
X200221455Y-129168506D01*
X200205720Y-129201774D01*
X200186801Y-129233339D01*
X200164879Y-129262897D01*
X200140165Y-129290165D01*
X200112897Y-129314879D01*
X200083339Y-129336801D01*
X200051774Y-129355720D01*
X200018506Y-129371455D01*
X199983857Y-129383853D01*
X199948159Y-129392794D01*
X199911756Y-129398194D01*
X199875000Y-129400000D01*
X197625000Y-129400000D01*
X197588244Y-129398194D01*
X197551841Y-129392794D01*
X197516143Y-129383853D01*
X197481494Y-129371455D01*
X197448226Y-129355720D01*
X197416661Y-129336801D01*
X197387103Y-129314879D01*
X197359835Y-129290165D01*
X197335121Y-129262897D01*
X197313199Y-129233339D01*
X197294280Y-129201774D01*
X197278545Y-129168506D01*
X197266147Y-129133857D01*
X197257206Y-129098159D01*
X197251806Y-129061756D01*
X197250000Y-129025000D01*
X197250000Y-128275000D01*
X197251806Y-128238244D01*
X197257206Y-128201841D01*
X197266147Y-128166143D01*
X197278545Y-128131494D01*
X197294280Y-128098226D01*
X197313199Y-128066661D01*
X197335121Y-128037103D01*
X197359835Y-128009835D01*
X197387103Y-127985121D01*
X197416661Y-127963199D01*
X197448226Y-127944280D01*
X197481494Y-127928545D01*
X197516143Y-127916147D01*
X197551841Y-127907206D01*
X197588244Y-127901806D01*
X197625000Y-127900000D01*
X199875000Y-127900000D01*
X199911756Y-127901806D01*
X199911756Y-127901806D01*
G37*
D14*
X198750000Y-128650000D03*
D10*
G36*
X199911756Y-130901806D02*
X199948159Y-130907206D01*
X199983857Y-130916147D01*
X200018506Y-130928545D01*
X200051774Y-130944280D01*
X200083339Y-130963199D01*
X200112897Y-130985121D01*
X200140165Y-131009835D01*
X200164879Y-131037103D01*
X200186801Y-131066661D01*
X200205720Y-131098226D01*
X200221455Y-131131494D01*
X200233853Y-131166143D01*
X200242794Y-131201841D01*
X200248194Y-131238244D01*
X200250000Y-131275000D01*
X200250000Y-132025000D01*
X200248194Y-132061756D01*
X200242794Y-132098159D01*
X200233853Y-132133857D01*
X200221455Y-132168506D01*
X200205720Y-132201774D01*
X200186801Y-132233339D01*
X200164879Y-132262897D01*
X200140165Y-132290165D01*
X200112897Y-132314879D01*
X200083339Y-132336801D01*
X200051774Y-132355720D01*
X200018506Y-132371455D01*
X199983857Y-132383853D01*
X199948159Y-132392794D01*
X199911756Y-132398194D01*
X199875000Y-132400000D01*
X197625000Y-132400000D01*
X197588244Y-132398194D01*
X197551841Y-132392794D01*
X197516143Y-132383853D01*
X197481494Y-132371455D01*
X197448226Y-132355720D01*
X197416661Y-132336801D01*
X197387103Y-132314879D01*
X197359835Y-132290165D01*
X197335121Y-132262897D01*
X197313199Y-132233339D01*
X197294280Y-132201774D01*
X197278545Y-132168506D01*
X197266147Y-132133857D01*
X197257206Y-132098159D01*
X197251806Y-132061756D01*
X197250000Y-132025000D01*
X197250000Y-131275000D01*
X197251806Y-131238244D01*
X197257206Y-131201841D01*
X197266147Y-131166143D01*
X197278545Y-131131494D01*
X197294280Y-131098226D01*
X197313199Y-131066661D01*
X197335121Y-131037103D01*
X197359835Y-131009835D01*
X197387103Y-130985121D01*
X197416661Y-130963199D01*
X197448226Y-130944280D01*
X197481494Y-130928545D01*
X197516143Y-130916147D01*
X197551841Y-130907206D01*
X197588244Y-130901806D01*
X197625000Y-130900000D01*
X199875000Y-130900000D01*
X199911756Y-130901806D01*
X199911756Y-130901806D01*
G37*
D14*
X198750000Y-131650000D03*
D10*
G36*
X62411756Y-107751806D02*
X62448159Y-107757206D01*
X62483857Y-107766147D01*
X62518506Y-107778545D01*
X62551774Y-107794280D01*
X62583339Y-107813199D01*
X62612897Y-107835121D01*
X62640165Y-107859835D01*
X62664879Y-107887103D01*
X62686801Y-107916661D01*
X62705720Y-107948226D01*
X62721455Y-107981494D01*
X62733853Y-108016143D01*
X62742794Y-108051841D01*
X62748194Y-108088244D01*
X62750000Y-108125000D01*
X62750000Y-108875000D01*
X62748194Y-108911756D01*
X62742794Y-108948159D01*
X62733853Y-108983857D01*
X62721455Y-109018506D01*
X62705720Y-109051774D01*
X62686801Y-109083339D01*
X62664879Y-109112897D01*
X62640165Y-109140165D01*
X62612897Y-109164879D01*
X62583339Y-109186801D01*
X62551774Y-109205720D01*
X62518506Y-109221455D01*
X62483857Y-109233853D01*
X62448159Y-109242794D01*
X62411756Y-109248194D01*
X62375000Y-109250000D01*
X60125000Y-109250000D01*
X60088244Y-109248194D01*
X60051841Y-109242794D01*
X60016143Y-109233853D01*
X59981494Y-109221455D01*
X59948226Y-109205720D01*
X59916661Y-109186801D01*
X59887103Y-109164879D01*
X59859835Y-109140165D01*
X59835121Y-109112897D01*
X59813199Y-109083339D01*
X59794280Y-109051774D01*
X59778545Y-109018506D01*
X59766147Y-108983857D01*
X59757206Y-108948159D01*
X59751806Y-108911756D01*
X59750000Y-108875000D01*
X59750000Y-108125000D01*
X59751806Y-108088244D01*
X59757206Y-108051841D01*
X59766147Y-108016143D01*
X59778545Y-107981494D01*
X59794280Y-107948226D01*
X59813199Y-107916661D01*
X59835121Y-107887103D01*
X59859835Y-107859835D01*
X59887103Y-107835121D01*
X59916661Y-107813199D01*
X59948226Y-107794280D01*
X59981494Y-107778545D01*
X60016143Y-107766147D01*
X60051841Y-107757206D01*
X60088244Y-107751806D01*
X60125000Y-107750000D01*
X62375000Y-107750000D01*
X62411756Y-107751806D01*
X62411756Y-107751806D01*
G37*
D14*
X61250000Y-108500000D03*
D13*
X58323185Y-96773185D03*
X57125000Y-99700000D03*
X58323185Y-102626815D03*
X61250000Y-103825000D03*
X64176815Y-102626815D03*
X65375000Y-99700000D03*
X64176815Y-96773185D03*
X61250000Y-95575000D03*
D12*
X61250000Y-99700000D03*
D15*
X83750000Y-108350000D03*
D16*
X83750000Y-111350000D03*
D17*
X81790000Y-105350000D03*
X81790000Y-114350000D03*
D15*
X221250000Y-108350000D03*
D16*
X221250000Y-111350000D03*
D17*
X219290000Y-105350000D03*
X219290000Y-114350000D03*
D12*
X243750000Y-140300000D03*
D13*
X243750000Y-136175000D03*
X246676815Y-137373185D03*
X247875000Y-140300000D03*
X246676815Y-143226815D03*
X243750000Y-144425000D03*
X240823185Y-143226815D03*
X239625000Y-140300000D03*
X240823185Y-137373185D03*
D10*
G36*
X244911756Y-130751806D02*
X244948159Y-130757206D01*
X244983857Y-130766147D01*
X245018506Y-130778545D01*
X245051774Y-130794280D01*
X245083339Y-130813199D01*
X245112897Y-130835121D01*
X245140165Y-130859835D01*
X245164879Y-130887103D01*
X245186801Y-130916661D01*
X245205720Y-130948226D01*
X245221455Y-130981494D01*
X245233853Y-131016143D01*
X245242794Y-131051841D01*
X245248194Y-131088244D01*
X245250000Y-131125000D01*
X245250000Y-131875000D01*
X245248194Y-131911756D01*
X245242794Y-131948159D01*
X245233853Y-131983857D01*
X245221455Y-132018506D01*
X245205720Y-132051774D01*
X245186801Y-132083339D01*
X245164879Y-132112897D01*
X245140165Y-132140165D01*
X245112897Y-132164879D01*
X245083339Y-132186801D01*
X245051774Y-132205720D01*
X245018506Y-132221455D01*
X244983857Y-132233853D01*
X244948159Y-132242794D01*
X244911756Y-132248194D01*
X244875000Y-132250000D01*
X242625000Y-132250000D01*
X242588244Y-132248194D01*
X242551841Y-132242794D01*
X242516143Y-132233853D01*
X242481494Y-132221455D01*
X242448226Y-132205720D01*
X242416661Y-132186801D01*
X242387103Y-132164879D01*
X242359835Y-132140165D01*
X242335121Y-132112897D01*
X242313199Y-132083339D01*
X242294280Y-132051774D01*
X242278545Y-132018506D01*
X242266147Y-131983857D01*
X242257206Y-131948159D01*
X242251806Y-131911756D01*
X242250000Y-131875000D01*
X242250000Y-131125000D01*
X242251806Y-131088244D01*
X242257206Y-131051841D01*
X242266147Y-131016143D01*
X242278545Y-130981494D01*
X242294280Y-130948226D01*
X242313199Y-130916661D01*
X242335121Y-130887103D01*
X242359835Y-130859835D01*
X242387103Y-130835121D01*
X242416661Y-130813199D01*
X242448226Y-130794280D01*
X242481494Y-130778545D01*
X242516143Y-130766147D01*
X242551841Y-130757206D01*
X242588244Y-130751806D01*
X242625000Y-130750000D01*
X244875000Y-130750000D01*
X244911756Y-130751806D01*
X244911756Y-130751806D01*
G37*
D14*
X243750000Y-131500000D03*
D18*
X87950000Y-127610000D03*
X79550000Y-127610000D03*
X87950000Y-130150000D03*
X79550000Y-130150000D03*
X87950000Y-132690000D03*
X79550000Y-132690000D03*
D19*
X84400000Y-100970000D03*
D20*
X84400000Y-98430000D03*
X83000000Y-121270000D03*
D19*
X83000000Y-118730000D03*
X84500000Y-141570000D03*
D20*
X84500000Y-139030000D03*
D19*
X153250000Y-141570000D03*
D20*
X153250000Y-139030000D03*
D19*
X151750000Y-118730000D03*
D20*
X151750000Y-121270000D03*
D19*
X153250000Y-100970000D03*
D20*
X153250000Y-98430000D03*
D19*
X222000000Y-100970000D03*
D20*
X222000000Y-98430000D03*
D19*
X220500000Y-118730000D03*
D20*
X220500000Y-121270000D03*
X222000000Y-139030000D03*
D19*
X222000000Y-141570000D03*
D21*
X159485000Y-106355000D03*
X159485000Y-108265000D03*
X163295000Y-113345000D03*
X163295000Y-111435000D03*
X159485000Y-111435000D03*
X159485000Y-113345000D03*
D22*
X221045000Y-94620000D03*
X222955000Y-94620000D03*
D21*
X163295000Y-106355000D03*
X163295000Y-108265000D03*
D23*
X72735000Y-99700000D03*
X75745000Y-99700000D03*
X94665000Y-120000000D03*
X91655000Y-120000000D03*
X72835000Y-140300000D03*
X75845000Y-140300000D03*
X144595000Y-140300000D03*
X141585000Y-140300000D03*
X163415000Y-120000000D03*
X160405000Y-120000000D03*
X144595000Y-99700000D03*
X141585000Y-99700000D03*
X210335000Y-99700000D03*
X213345000Y-99700000D03*
X229155000Y-120000000D03*
X232165000Y-120000000D03*
X213345000Y-140300000D03*
X210335000Y-140300000D03*
X229155000Y-128880000D03*
X232165000Y-128880000D03*
D24*
X143500000Y-95150000D03*
X143500000Y-93850000D03*
X143500000Y-92550000D03*
X149500000Y-92550000D03*
X149500000Y-93850000D03*
X149500000Y-95150000D03*
X155500000Y-95150000D03*
X155500000Y-93850000D03*
X155500000Y-92550000D03*
X161500000Y-95150000D03*
X161500000Y-93850000D03*
X161500000Y-92550000D03*
D25*
X210840000Y-93670000D03*
X210840000Y-95570000D03*
X212840000Y-94620000D03*
D22*
X217875000Y-94620000D03*
X215965000Y-94620000D03*
X78365000Y-94620000D03*
X80275000Y-94620000D03*
X80275000Y-99700000D03*
X78365000Y-99700000D03*
X89035000Y-120000000D03*
X87125000Y-120000000D03*
X78465000Y-140300000D03*
X80375000Y-140300000D03*
X149125000Y-140300000D03*
X147215000Y-140300000D03*
X157785000Y-120000000D03*
X155875000Y-120000000D03*
X149125000Y-99700000D03*
X147215000Y-99700000D03*
X215965000Y-99700000D03*
X217875000Y-99700000D03*
X224625000Y-120000000D03*
X226535000Y-120000000D03*
D21*
X167105000Y-111435000D03*
X167105000Y-113345000D03*
X167105000Y-106355000D03*
X167105000Y-108265000D03*
D22*
X217875000Y-140300000D03*
X215965000Y-140300000D03*
X75420000Y-126975000D03*
X77330000Y-126975000D03*
D21*
X75105000Y-131105000D03*
X75105000Y-129195000D03*
D22*
X224625000Y-128880000D03*
X226535000Y-128880000D03*
X77330000Y-133325000D03*
X75420000Y-133325000D03*
D26*
X228155000Y-128880000D03*
D27*
X223585000Y-94620000D03*
X152500000Y-107350000D03*
X152500000Y-112350000D03*
X152500000Y-109850000D03*
X162500000Y-104850000D03*
X165000000Y-104850000D03*
X142000000Y-95150000D03*
X148000000Y-95150000D03*
X154000000Y-95150000D03*
X160000000Y-95150000D03*
D26*
X71465000Y-99700000D03*
X95935000Y-120000000D03*
X71565000Y-140300000D03*
X140315000Y-140300000D03*
X164685000Y-120000000D03*
X140315000Y-99700000D03*
X209065000Y-99700000D03*
X233435000Y-120000000D03*
X209065000Y-140300000D03*
X233435000Y-128880000D03*
D27*
X150875000Y-105100000D03*
X150625000Y-114100000D03*
X170625000Y-109350000D03*
X150625000Y-115100000D03*
X171125000Y-109850000D03*
X150375000Y-104600000D03*
X150125000Y-113600000D03*
X170125000Y-108850000D03*
X150125000Y-114600000D03*
X170125000Y-110350000D03*
X70550000Y-109600000D03*
X70050000Y-110100000D03*
X156875000Y-104100000D03*
X144875000Y-94100000D03*
X157375000Y-104600000D03*
X150875000Y-94100000D03*
X157875000Y-94100000D03*
X157875000Y-105100000D03*
X158875000Y-105100000D03*
X159375000Y-94100000D03*
X154875000Y-109100000D03*
X170125000Y-107850000D03*
X157375000Y-106600000D03*
X165375000Y-107350000D03*
X156875000Y-106100000D03*
X166125000Y-106100000D03*
X145200000Y-108650000D03*
X154875000Y-107600000D03*
X144450000Y-108650000D03*
X154375000Y-107100000D03*
D28*
X159485000Y-103960000D02*
X159485000Y-106355000D01*
X158375000Y-102850000D02*
X159485000Y-103960000D01*
X151875000Y-102850000D02*
X158375000Y-102850000D01*
X149125000Y-104100000D02*
X150625000Y-104100000D01*
X150625000Y-104100000D02*
X151875000Y-102850000D01*
X149125000Y-104100000D02*
X145250000Y-104100000D01*
X145250000Y-104100000D02*
X141450000Y-107900000D01*
X141450000Y-107900000D02*
X141450000Y-122650000D01*
X141450000Y-122650000D02*
X135950000Y-128150000D01*
X135950000Y-128150000D02*
X99450000Y-128150000D01*
X99450000Y-128150000D02*
X97700000Y-126400000D01*
X97700000Y-126400000D02*
X97700000Y-108150000D01*
X84170000Y-94620000D02*
X80275000Y-94620000D01*
X97700000Y-108150000D02*
X84170000Y-94620000D01*
X162460000Y-110600000D02*
X163295000Y-111435000D01*
X155875000Y-110600000D02*
X162460000Y-110600000D01*
X159150000Y-111100000D02*
X159485000Y-111435000D01*
X155875000Y-111100000D02*
X159150000Y-111100000D01*
X212840000Y-94620000D02*
X215965000Y-94620000D01*
X221045000Y-93985000D02*
X221045000Y-94620000D01*
X220410000Y-93350000D02*
X221045000Y-93985000D01*
X216600000Y-93350000D02*
X220410000Y-93350000D01*
X215965000Y-94620000D02*
X215965000Y-93985000D01*
X215965000Y-93985000D02*
X216600000Y-93350000D01*
X157375000Y-108100000D02*
X158375000Y-109100000D01*
X162460000Y-109100000D02*
X163295000Y-108265000D01*
X158375000Y-109100000D02*
X162460000Y-109100000D01*
X155875000Y-109600000D02*
X156875000Y-109600000D01*
X156875000Y-109600000D02*
X156875000Y-108100000D01*
X155875000Y-108100000D02*
X156875000Y-108100000D01*
X156875000Y-108100000D02*
X157375000Y-108100000D01*
X208250000Y-107100000D02*
X207000000Y-108350000D01*
X208250000Y-96350000D02*
X208250000Y-107100000D01*
X210840000Y-95570000D02*
X209030000Y-95570000D01*
X209030000Y-95570000D02*
X208250000Y-96350000D01*
X163295000Y-108265000D02*
X163710000Y-108265000D01*
X163710000Y-108265000D02*
X165125000Y-106850000D01*
X165125000Y-106850000D02*
X165625000Y-106850000D01*
X165625000Y-106850000D02*
X166125000Y-107350000D01*
X166125000Y-107350000D02*
X168875000Y-107350000D01*
X168875000Y-107350000D02*
X169875000Y-108350000D01*
X207000000Y-108350000D02*
X169875000Y-108350000D01*
X149500000Y-92550000D02*
X155500000Y-92550000D01*
X143500000Y-92550000D02*
X149500000Y-92550000D01*
X155500000Y-92550000D02*
X161500000Y-92550000D01*
X161500000Y-92550000D02*
X163550000Y-92550000D01*
X165625000Y-94625000D02*
X165625000Y-106850000D01*
X163550000Y-92550000D02*
X165625000Y-94625000D01*
D29*
X229155000Y-128880000D02*
X228155000Y-128880000D01*
D28*
X226535000Y-128880000D02*
X228155000Y-128880000D01*
X222955000Y-94620000D02*
X223585000Y-94620000D01*
X143500000Y-95150000D02*
X142000000Y-95150000D01*
X149500000Y-95150000D02*
X148000000Y-95150000D01*
X155500000Y-95150000D02*
X154000000Y-95150000D01*
X161500000Y-95150000D02*
X160000000Y-95150000D01*
D29*
X72735000Y-99700000D02*
X71465000Y-99700000D01*
D28*
X75745000Y-99700000D02*
X78365000Y-99700000D01*
X78365000Y-99700000D02*
X78365000Y-94620000D01*
X89035000Y-120000000D02*
X91655000Y-120000000D01*
D29*
X94665000Y-120000000D02*
X95935000Y-120000000D01*
X72835000Y-140300000D02*
X71565000Y-140300000D01*
D28*
X75845000Y-140300000D02*
X78465000Y-140300000D01*
X144595000Y-140300000D02*
X147215000Y-140300000D01*
D29*
X141585000Y-140300000D02*
X140315000Y-140300000D01*
X163415000Y-120000000D02*
X164685000Y-120000000D01*
D28*
X157785000Y-120000000D02*
X160405000Y-120000000D01*
X144595000Y-99700000D02*
X147215000Y-99700000D01*
D29*
X141585000Y-99700000D02*
X140315000Y-99700000D01*
X210335000Y-99700000D02*
X209065000Y-99700000D01*
D28*
X213345000Y-99700000D02*
X215965000Y-99700000D01*
X215965000Y-99700000D02*
X215965000Y-98115000D01*
X217875000Y-96205000D02*
X217875000Y-94620000D01*
X215965000Y-98115000D02*
X217875000Y-96205000D01*
X226535000Y-120000000D02*
X229155000Y-120000000D01*
D29*
X232165000Y-120000000D02*
X233435000Y-120000000D01*
X210335000Y-140300000D02*
X209065000Y-140300000D01*
D28*
X215965000Y-140300000D02*
X213345000Y-140300000D01*
D29*
X232165000Y-128880000D02*
X233435000Y-128880000D01*
D28*
X84400000Y-98430000D02*
X83130000Y-98430000D01*
X81860000Y-99700000D02*
X80275000Y-99700000D01*
X83130000Y-98430000D02*
X81860000Y-99700000D01*
X143500000Y-106600000D02*
X141950000Y-108150000D01*
X141950000Y-108150000D02*
X141950000Y-122900000D01*
X141950000Y-122900000D02*
X136200000Y-128650000D01*
X136200000Y-128650000D02*
X99200000Y-128650000D01*
X99200000Y-128650000D02*
X97200000Y-126650000D01*
X97200000Y-126650000D02*
X97200000Y-110900000D01*
X84730000Y-98430000D02*
X84400000Y-98430000D01*
X97200000Y-110900000D02*
X84730000Y-98430000D01*
X149125000Y-105600000D02*
X148125000Y-105600000D01*
X148125000Y-105600000D02*
X148125000Y-106600000D01*
X149125000Y-106600000D02*
X148125000Y-106600000D01*
X148125000Y-106600000D02*
X143500000Y-106600000D01*
X148125000Y-105600000D02*
X148125000Y-104600000D01*
X148125000Y-104600000D02*
X149125000Y-104600000D01*
X149125000Y-107100000D02*
X143750000Y-107100000D01*
X143750000Y-107100000D02*
X142450000Y-108400000D01*
X142450000Y-108400000D02*
X142450000Y-123150000D01*
X142450000Y-123150000D02*
X136450000Y-129150000D01*
X136450000Y-129150000D02*
X98950000Y-129150000D01*
X98950000Y-129150000D02*
X96700000Y-126900000D01*
X96700000Y-126900000D02*
X96700000Y-111150000D01*
X86520000Y-100970000D02*
X84400000Y-100970000D01*
X96700000Y-111150000D02*
X86520000Y-100970000D01*
X82120000Y-118730000D02*
X83000000Y-118730000D01*
X81450000Y-122150000D02*
X81450000Y-119400000D01*
X82200000Y-122900000D02*
X81450000Y-122150000D01*
X85950000Y-122900000D02*
X82200000Y-122900000D01*
X149125000Y-108100000D02*
X144250000Y-108100000D01*
X144250000Y-108100000D02*
X143450000Y-108900000D01*
X143450000Y-108900000D02*
X143450000Y-123650000D01*
X81450000Y-119400000D02*
X82120000Y-118730000D01*
X143450000Y-123650000D02*
X136950000Y-130150000D01*
X136950000Y-130150000D02*
X93200000Y-130150000D01*
X93200000Y-130150000D02*
X85950000Y-122900000D01*
X83000000Y-121270000D02*
X84270000Y-121270000D01*
X85540000Y-120000000D02*
X87125000Y-120000000D01*
X84270000Y-121270000D02*
X85540000Y-120000000D01*
X144000000Y-107600000D02*
X149125000Y-107600000D01*
X85070000Y-121270000D02*
X93417151Y-129617151D01*
X84270000Y-121270000D02*
X85070000Y-121270000D01*
X93417151Y-129617151D02*
X136732849Y-129617151D01*
X136732849Y-129617151D02*
X142950000Y-123400000D01*
X142950000Y-123400000D02*
X142950000Y-108650000D01*
X142950000Y-108650000D02*
X144000000Y-107600000D01*
X84500000Y-139030000D02*
X83230000Y-139030000D01*
X83230000Y-139030000D02*
X81960000Y-140300000D01*
X81960000Y-140300000D02*
X80375000Y-140300000D01*
X146000000Y-108600000D02*
X149125000Y-108600000D01*
X84500000Y-139030000D02*
X86070000Y-139030000D01*
X86070000Y-139030000D02*
X93482849Y-131617151D01*
X93482849Y-131617151D02*
X137732849Y-131617151D01*
X137732849Y-131617151D02*
X144950000Y-124400000D01*
X144950000Y-124400000D02*
X144950000Y-109650000D01*
X144950000Y-109650000D02*
X146000000Y-108600000D01*
X146500000Y-109100000D02*
X149125000Y-109100000D01*
X145450000Y-110150000D02*
X146500000Y-109100000D01*
X145450000Y-124650000D02*
X145450000Y-110150000D01*
X137950000Y-132150000D02*
X145450000Y-124650000D01*
X84500000Y-141570000D02*
X93920000Y-132150000D01*
X93920000Y-132150000D02*
X137950000Y-132150000D01*
X154625000Y-140195000D02*
X153250000Y-141570000D01*
X154625000Y-129600000D02*
X154625000Y-140195000D01*
X146450000Y-121425000D02*
X154625000Y-129600000D01*
X146450000Y-111150000D02*
X146450000Y-121425000D01*
X149125000Y-110100000D02*
X147500000Y-110100000D01*
X147500000Y-110100000D02*
X146450000Y-111150000D01*
X153250000Y-139030000D02*
X151980000Y-139030000D01*
X150710000Y-140300000D02*
X149125000Y-140300000D01*
X151980000Y-139030000D02*
X150710000Y-140300000D01*
X147000000Y-109600000D02*
X149125000Y-109600000D01*
X145950000Y-110650000D02*
X147000000Y-109600000D01*
X145950000Y-121925000D02*
X145950000Y-110650000D01*
X153250000Y-139030000D02*
X153250000Y-129225000D01*
X153250000Y-129225000D02*
X145950000Y-121925000D01*
X148255000Y-118730000D02*
X151750000Y-118730000D01*
X147450000Y-117925000D02*
X148255000Y-118730000D01*
X147450000Y-112650000D02*
X147450000Y-117925000D01*
X149125000Y-112100000D02*
X148000000Y-112100000D01*
X148000000Y-112100000D02*
X147450000Y-112650000D01*
X150875000Y-112350000D02*
X150875000Y-105100000D01*
X149125000Y-113100000D02*
X150125000Y-113100000D01*
X150125000Y-113100000D02*
X150875000Y-112350000D01*
X221370000Y-101600000D02*
X222000000Y-100970000D01*
X215250000Y-101600000D02*
X221370000Y-101600000D01*
X207500000Y-109350000D02*
X215250000Y-101600000D01*
X149125000Y-114100000D02*
X150625000Y-114100000D01*
X170625000Y-109350000D02*
X207500000Y-109350000D01*
X220500000Y-118730000D02*
X216380000Y-118730000D01*
X216380000Y-118730000D02*
X207500000Y-109850000D01*
X149125000Y-115100000D02*
X150625000Y-115100000D01*
X207500000Y-109850000D02*
X171125000Y-109850000D01*
X222000000Y-141570000D02*
X222280000Y-141570000D01*
X222280000Y-141570000D02*
X223250000Y-140600000D01*
X223250000Y-137850000D02*
X222500000Y-137100000D01*
X223250000Y-140600000D02*
X223250000Y-137850000D01*
X222500000Y-137100000D02*
X222500000Y-127100000D01*
X222500000Y-127100000D02*
X206750000Y-111350000D01*
X167875000Y-115600000D02*
X172125000Y-111350000D01*
X155875000Y-115600000D02*
X167875000Y-115600000D01*
X206750000Y-111350000D02*
X172125000Y-111350000D01*
X151750000Y-121270000D02*
X153020000Y-121270000D01*
X153020000Y-121270000D02*
X154290000Y-120000000D01*
X154290000Y-120000000D02*
X155875000Y-120000000D01*
X149125000Y-110600000D02*
X148125000Y-110600000D01*
X148125000Y-110600000D02*
X148125000Y-111600000D01*
X149125000Y-111600000D02*
X148125000Y-111600000D01*
X149295000Y-121270000D02*
X151750000Y-121270000D01*
X146950000Y-118925000D02*
X149295000Y-121270000D01*
X146950000Y-112150000D02*
X146950000Y-118925000D01*
X148125000Y-111600000D02*
X147500000Y-111600000D01*
X147500000Y-111600000D02*
X146950000Y-112150000D01*
X153250000Y-98430000D02*
X151980000Y-98430000D01*
X151980000Y-98430000D02*
X150710000Y-99700000D01*
X150710000Y-99700000D02*
X149125000Y-99700000D01*
X149125000Y-112600000D02*
X149875000Y-112600000D01*
X149875000Y-112600000D02*
X150375000Y-112100000D01*
X150375000Y-112100000D02*
X150375000Y-104600000D01*
X222000000Y-98430000D02*
X220730000Y-98430000D01*
X220730000Y-98430000D02*
X219460000Y-99700000D01*
X219460000Y-99700000D02*
X217875000Y-99700000D01*
X217875000Y-100600000D02*
X217875000Y-99700000D01*
X217375000Y-101100000D02*
X217875000Y-100600000D01*
X215000000Y-101100000D02*
X217375000Y-101100000D01*
X207250000Y-108850000D02*
X215000000Y-101100000D01*
X149125000Y-113600000D02*
X150125000Y-113600000D01*
X170125000Y-108850000D02*
X207250000Y-108850000D01*
X220500000Y-121270000D02*
X221770000Y-121270000D01*
X221770000Y-121270000D02*
X223040000Y-120000000D01*
X223040000Y-120000000D02*
X224625000Y-120000000D01*
X220500000Y-121270000D02*
X218170000Y-121270000D01*
X218170000Y-121270000D02*
X207250000Y-110350000D01*
X149125000Y-114600000D02*
X150125000Y-114600000D01*
X207250000Y-110350000D02*
X170125000Y-110350000D01*
X222000000Y-139030000D02*
X220730000Y-139030000D01*
X220730000Y-139030000D02*
X219460000Y-140300000D01*
X219460000Y-140300000D02*
X217875000Y-140300000D01*
X222000000Y-139030000D02*
X222000000Y-127350000D01*
X222000000Y-127350000D02*
X206500000Y-111850000D01*
X149125000Y-115600000D02*
X150375000Y-115600000D01*
X150375000Y-115600000D02*
X150875000Y-116100000D01*
X168125000Y-116100000D02*
X172375000Y-111850000D01*
X150875000Y-116100000D02*
X168125000Y-116100000D01*
X206500000Y-111850000D02*
X172375000Y-111850000D01*
X75420000Y-126975000D02*
X75420000Y-127930000D01*
X75420000Y-127930000D02*
X75105000Y-128245000D01*
X75105000Y-128245000D02*
X75105000Y-129195000D01*
X73300000Y-129900000D02*
X71050000Y-129900000D01*
X75105000Y-129195000D02*
X74005000Y-129195000D01*
X74005000Y-129195000D02*
X73300000Y-129900000D01*
X71050000Y-129900000D02*
X70550000Y-129400000D01*
X70550000Y-93650000D02*
X70550000Y-92400000D01*
X70550000Y-92400000D02*
X71550000Y-91400000D01*
X70550000Y-129400000D02*
X70550000Y-109600000D01*
X70550000Y-109600000D02*
X70550000Y-93650000D01*
X221250000Y-108350000D02*
X221250000Y-109100000D01*
X221250000Y-109100000D02*
X221750000Y-109600000D01*
X221750000Y-109600000D02*
X225500000Y-109600000D01*
X225500000Y-109600000D02*
X226250000Y-108850000D01*
X226250000Y-92150000D02*
X225500000Y-91400000D01*
X226250000Y-108850000D02*
X226250000Y-92150000D01*
X71550000Y-91400000D02*
X225500000Y-91400000D01*
X75420000Y-133325000D02*
X75420000Y-132370000D01*
X75420000Y-132370000D02*
X75105000Y-132055000D01*
X75105000Y-132055000D02*
X75105000Y-131105000D01*
X74005000Y-131105000D02*
X73300000Y-130400000D01*
X75105000Y-131105000D02*
X74005000Y-131105000D01*
X73300000Y-130400000D02*
X70800000Y-130400000D01*
X70800000Y-130400000D02*
X70050000Y-129650000D01*
X70050000Y-92150000D02*
X71300000Y-90900000D01*
X70050000Y-129650000D02*
X70050000Y-110100000D01*
X70050000Y-110100000D02*
X70050000Y-92150000D01*
X221250000Y-111350000D02*
X221250000Y-110600000D01*
X221250000Y-110600000D02*
X221750000Y-110100000D01*
X221750000Y-110100000D02*
X225750000Y-110100000D01*
X225750000Y-110100000D02*
X226750000Y-109100000D01*
X226750000Y-109100000D02*
X226750000Y-91850000D01*
X226700000Y-91850000D02*
X225750000Y-90900000D01*
X226750000Y-91850000D02*
X226700000Y-91850000D01*
X71300000Y-90900000D02*
X225750000Y-90900000D01*
X155875000Y-104100000D02*
X156875000Y-104100000D01*
X144625000Y-93850000D02*
X143500000Y-93850000D01*
X144875000Y-94100000D02*
X144625000Y-93850000D01*
X155875000Y-104600000D02*
X157375000Y-104600000D01*
X149750000Y-94100000D02*
X149500000Y-93850000D01*
X150875000Y-94100000D02*
X149750000Y-94100000D01*
X155500000Y-93850000D02*
X157625000Y-93850000D01*
X157625000Y-93850000D02*
X157875000Y-94100000D01*
X157875000Y-105100000D02*
X155875000Y-105100000D01*
X155875000Y-105600000D02*
X158375000Y-105600000D01*
X158375000Y-105600000D02*
X158875000Y-105100000D01*
X159625000Y-93850000D02*
X161500000Y-93850000D01*
X159375000Y-94100000D02*
X159625000Y-93850000D01*
X208500000Y-93670000D02*
X210840000Y-93670000D01*
X207750000Y-94420000D02*
X208500000Y-93670000D01*
X207750000Y-106850000D02*
X207750000Y-94420000D01*
X206750000Y-107850000D02*
X207750000Y-106850000D01*
X155875000Y-109100000D02*
X154875000Y-109100000D01*
X170125000Y-107850000D02*
X206750000Y-107850000D01*
X155875000Y-106600000D02*
X157375000Y-106600000D01*
X167105000Y-111435000D02*
X167105000Y-108265000D01*
X165855000Y-108265000D02*
X167105000Y-108265000D01*
X165375000Y-107350000D02*
X165375000Y-107785000D01*
X165375000Y-107785000D02*
X165855000Y-108265000D01*
X155875000Y-106100000D02*
X156875000Y-106100000D01*
X166850000Y-106100000D02*
X167105000Y-106355000D01*
X166125000Y-106100000D02*
X166850000Y-106100000D01*
X77330000Y-126975000D02*
X78280000Y-126975000D01*
X78915000Y-127610000D02*
X78280000Y-126975000D01*
X79550000Y-127610000D02*
X78915000Y-127610000D01*
X224625000Y-128880000D02*
X224625000Y-128475000D01*
X224625000Y-128475000D02*
X207000000Y-110850000D01*
X167625000Y-115100000D02*
X171875000Y-110850000D01*
X155875000Y-115100000D02*
X167625000Y-115100000D01*
X207000000Y-110850000D02*
X171875000Y-110850000D01*
X78915000Y-132690000D02*
X78280000Y-133325000D01*
X79550000Y-132690000D02*
X78915000Y-132690000D01*
X78280000Y-133325000D02*
X77330000Y-133325000D01*
X137200000Y-131150000D02*
X137450000Y-131150000D01*
X92700000Y-131150000D02*
X137200000Y-131150000D01*
X91950000Y-130400000D02*
X92700000Y-131150000D01*
X89200000Y-130400000D02*
X91950000Y-130400000D01*
X87950000Y-132690000D02*
X87950000Y-131650000D01*
X87950000Y-131650000D02*
X89200000Y-130400000D01*
X137450000Y-131150000D02*
X144450000Y-124150000D01*
X144450000Y-124150000D02*
X144450000Y-109900000D01*
X144450000Y-109900000D02*
X144450000Y-109400000D01*
X144450000Y-109400000D02*
X145200000Y-108650000D01*
X154875000Y-107600000D02*
X155875000Y-107600000D01*
X87950000Y-128650000D02*
X87950000Y-127610000D01*
X89200000Y-129900000D02*
X87950000Y-128650000D01*
X92200000Y-129900000D02*
X89200000Y-129900000D01*
X92950000Y-130650000D02*
X92200000Y-129900000D01*
X137200000Y-130650000D02*
X92950000Y-130650000D01*
X144450000Y-108650000D02*
X143950000Y-109150000D01*
X143950000Y-123900000D02*
X137200000Y-130650000D01*
X143950000Y-109150000D02*
X143950000Y-123900000D01*
X154375000Y-107100000D02*
X155875000Y-107100000D01*
G36*
X159035000Y-104146396D02*
X159035000Y-104570959D01*
X158984402Y-104550000D01*
X158765598Y-104550000D01*
X158563450Y-104633733D01*
X158408733Y-104788450D01*
X158375000Y-104869888D01*
X158341267Y-104788450D01*
X158186550Y-104633733D01*
X157984402Y-104550000D01*
X157925000Y-104550000D01*
X157925000Y-104490598D01*
X157841267Y-104288450D01*
X157686550Y-104133733D01*
X157484402Y-104050000D01*
X157425000Y-104050000D01*
X157425000Y-103990598D01*
X157341267Y-103788450D01*
X157186550Y-103633733D01*
X156984402Y-103550000D01*
X156765598Y-103550000D01*
X156568291Y-103631728D01*
X156500000Y-103618144D01*
X155250000Y-103618144D01*
X155113437Y-103645308D01*
X154997665Y-103722665D01*
X154920308Y-103838437D01*
X154893144Y-103975000D01*
X154893144Y-104225000D01*
X154918008Y-104350000D01*
X154893144Y-104475000D01*
X154893144Y-104725000D01*
X154918008Y-104850000D01*
X154893144Y-104975000D01*
X154893144Y-105225000D01*
X154918008Y-105350000D01*
X154893144Y-105475000D01*
X154893144Y-105725000D01*
X154918008Y-105850000D01*
X154893144Y-105975000D01*
X154893144Y-106225000D01*
X154918008Y-106350000D01*
X154893144Y-106475000D01*
X154893144Y-106650000D01*
X154702817Y-106650000D01*
X154686550Y-106633733D01*
X154484402Y-106550000D01*
X154265598Y-106550000D01*
X154063450Y-106633733D01*
X153908733Y-106788450D01*
X153825000Y-106990598D01*
X153825000Y-107209402D01*
X153908733Y-107411550D01*
X154063450Y-107566267D01*
X154265598Y-107650000D01*
X154325000Y-107650000D01*
X154325000Y-107709402D01*
X154408733Y-107911550D01*
X154563450Y-108066267D01*
X154765598Y-108150000D01*
X154893144Y-108150000D01*
X154893144Y-108225000D01*
X154918008Y-108350000D01*
X154893144Y-108475000D01*
X154893144Y-108550000D01*
X154765598Y-108550000D01*
X154563450Y-108633733D01*
X154408733Y-108788450D01*
X154325000Y-108990598D01*
X154325000Y-109209402D01*
X154408733Y-109411550D01*
X154563450Y-109566267D01*
X154765598Y-109650000D01*
X154893144Y-109650000D01*
X154893144Y-109725000D01*
X154920308Y-109861563D01*
X154997665Y-109977335D01*
X155113437Y-110054692D01*
X155250000Y-110081856D01*
X156500000Y-110081856D01*
X156636563Y-110054692D01*
X156643585Y-110050000D01*
X156830679Y-110050000D01*
X156875000Y-110058816D01*
X156919321Y-110050000D01*
X157050581Y-110023891D01*
X157199432Y-109924432D01*
X157298891Y-109775581D01*
X157333816Y-109600000D01*
X157325000Y-109555679D01*
X157325000Y-108686396D01*
X158025463Y-109386860D01*
X158050568Y-109424432D01*
X158088139Y-109449536D01*
X158088141Y-109449538D01*
X158199418Y-109523891D01*
X158375000Y-109558816D01*
X158419321Y-109550000D01*
X162415680Y-109550000D01*
X162460000Y-109558816D01*
X162504320Y-109550000D01*
X162504321Y-109550000D01*
X162635581Y-109523891D01*
X162784432Y-109424432D01*
X162809540Y-109386855D01*
X163089539Y-109106856D01*
X164045000Y-109106856D01*
X164181563Y-109079692D01*
X164297335Y-109002335D01*
X164374692Y-108886563D01*
X164401856Y-108750000D01*
X164401856Y-108209539D01*
X164925001Y-107686395D01*
X164925001Y-107740676D01*
X164916184Y-107785000D01*
X164947129Y-107940568D01*
X164951110Y-107960581D01*
X165050569Y-108109432D01*
X165088143Y-108134538D01*
X165505463Y-108551860D01*
X165530568Y-108589432D01*
X165568139Y-108614536D01*
X165568141Y-108614538D01*
X165679418Y-108688891D01*
X165855000Y-108723816D01*
X165899322Y-108715000D01*
X165998144Y-108715000D01*
X165998144Y-108750000D01*
X166025308Y-108886563D01*
X166102665Y-109002335D01*
X166218437Y-109079692D01*
X166355000Y-109106856D01*
X166655001Y-109106856D01*
X166655000Y-110593144D01*
X166355000Y-110593144D01*
X166218437Y-110620308D01*
X166102665Y-110697665D01*
X166025308Y-110813437D01*
X165998144Y-110950000D01*
X165998144Y-111920000D01*
X166025308Y-112056563D01*
X166102665Y-112172335D01*
X166218437Y-112249692D01*
X166355000Y-112276856D01*
X167855000Y-112276856D01*
X167991563Y-112249692D01*
X168107335Y-112172335D01*
X168184692Y-112056563D01*
X168211856Y-111920000D01*
X168211856Y-110950000D01*
X168184692Y-110813437D01*
X168107335Y-110697665D01*
X167991563Y-110620308D01*
X167855000Y-110593144D01*
X167555000Y-110593144D01*
X167555000Y-109106856D01*
X167855000Y-109106856D01*
X167991563Y-109079692D01*
X168107335Y-109002335D01*
X168184692Y-108886563D01*
X168211856Y-108750000D01*
X168211856Y-107800000D01*
X168400000Y-107800000D01*
X168400000Y-113688605D01*
X167438605Y-114650000D01*
X156856856Y-114650000D01*
X156856856Y-114475000D01*
X156831992Y-114350000D01*
X156856856Y-114225000D01*
X156856856Y-113975000D01*
X156831992Y-113850000D01*
X156856856Y-113725000D01*
X156856856Y-113475000D01*
X156829692Y-113338437D01*
X156752335Y-113222665D01*
X156636563Y-113145308D01*
X156500000Y-113118144D01*
X155250000Y-113118144D01*
X155113437Y-113145308D01*
X154997665Y-113222665D01*
X154920308Y-113338437D01*
X154893144Y-113475000D01*
X154893144Y-113725000D01*
X154918008Y-113850000D01*
X154893144Y-113975000D01*
X154893144Y-114225000D01*
X154918008Y-114350000D01*
X154893144Y-114475000D01*
X154893144Y-114725000D01*
X154918008Y-114850000D01*
X154893144Y-114975000D01*
X154893144Y-115225000D01*
X154918008Y-115350000D01*
X154893144Y-115475000D01*
X154893144Y-115650000D01*
X151061396Y-115650000D01*
X150957106Y-115545711D01*
X151091267Y-115411550D01*
X151175000Y-115209402D01*
X151175000Y-114990598D01*
X151091267Y-114788450D01*
X150936550Y-114633733D01*
X150855112Y-114600000D01*
X150936550Y-114566267D01*
X151091267Y-114411550D01*
X151175000Y-114209402D01*
X151175000Y-113990598D01*
X151091267Y-113788450D01*
X150936550Y-113633733D01*
X150734402Y-113550000D01*
X150675000Y-113550000D01*
X150675000Y-113490598D01*
X150591267Y-113288450D01*
X150582106Y-113279289D01*
X151161858Y-112699538D01*
X151199432Y-112674432D01*
X151298891Y-112525581D01*
X151325000Y-112394321D01*
X151325000Y-112394320D01*
X151333816Y-112350001D01*
X151325000Y-112305681D01*
X151325000Y-110475000D01*
X154893144Y-110475000D01*
X154893144Y-110725000D01*
X154918008Y-110850000D01*
X154893144Y-110975000D01*
X154893144Y-111225000D01*
X154918008Y-111350000D01*
X154893144Y-111475000D01*
X154893144Y-111725000D01*
X154918008Y-111850000D01*
X154893144Y-111975000D01*
X154893144Y-112225000D01*
X154920308Y-112361563D01*
X154997665Y-112477335D01*
X155113437Y-112554692D01*
X155250000Y-112581856D01*
X156500000Y-112581856D01*
X156636563Y-112554692D01*
X156752335Y-112477335D01*
X156829692Y-112361563D01*
X156856856Y-112225000D01*
X156856856Y-111975000D01*
X156831992Y-111850000D01*
X156856856Y-111725000D01*
X156856856Y-111550000D01*
X158378144Y-111550000D01*
X158378144Y-111920000D01*
X158405308Y-112056563D01*
X158482665Y-112172335D01*
X158598437Y-112249692D01*
X158735000Y-112276856D01*
X160235000Y-112276856D01*
X160371563Y-112249692D01*
X160487335Y-112172335D01*
X160564692Y-112056563D01*
X160591856Y-111920000D01*
X160591856Y-111050000D01*
X162188144Y-111050000D01*
X162188144Y-111920000D01*
X162215308Y-112056563D01*
X162292665Y-112172335D01*
X162408437Y-112249692D01*
X162545000Y-112276856D01*
X164045000Y-112276856D01*
X164181563Y-112249692D01*
X164297335Y-112172335D01*
X164374692Y-112056563D01*
X164401856Y-111920000D01*
X164401856Y-110950000D01*
X164374692Y-110813437D01*
X164297335Y-110697665D01*
X164181563Y-110620308D01*
X164045000Y-110593144D01*
X163089539Y-110593144D01*
X162809540Y-110313145D01*
X162784432Y-110275568D01*
X162635581Y-110176109D01*
X162504321Y-110150000D01*
X162504320Y-110150000D01*
X162460000Y-110141184D01*
X162415680Y-110150000D01*
X156643585Y-110150000D01*
X156636563Y-110145308D01*
X156500000Y-110118144D01*
X155250000Y-110118144D01*
X155113437Y-110145308D01*
X154997665Y-110222665D01*
X154920308Y-110338437D01*
X154893144Y-110475000D01*
X151325000Y-110475000D01*
X151325000Y-105427817D01*
X151341267Y-105411550D01*
X151425000Y-105209402D01*
X151425000Y-104990598D01*
X151341267Y-104788450D01*
X151186550Y-104633733D01*
X150984402Y-104550000D01*
X150925000Y-104550000D01*
X150925000Y-104490598D01*
X150908830Y-104451561D01*
X150949432Y-104424432D01*
X150974540Y-104386855D01*
X152061396Y-103300000D01*
X158188605Y-103300000D01*
X159035000Y-104146396D01*
X159035000Y-104146396D01*
G37*
X159035000Y-104146396D02*
X159035000Y-104570959D01*
X158984402Y-104550000D01*
X158765598Y-104550000D01*
X158563450Y-104633733D01*
X158408733Y-104788450D01*
X158375000Y-104869888D01*
X158341267Y-104788450D01*
X158186550Y-104633733D01*
X157984402Y-104550000D01*
X157925000Y-104550000D01*
X157925000Y-104490598D01*
X157841267Y-104288450D01*
X157686550Y-104133733D01*
X157484402Y-104050000D01*
X157425000Y-104050000D01*
X157425000Y-103990598D01*
X157341267Y-103788450D01*
X157186550Y-103633733D01*
X156984402Y-103550000D01*
X156765598Y-103550000D01*
X156568291Y-103631728D01*
X156500000Y-103618144D01*
X155250000Y-103618144D01*
X155113437Y-103645308D01*
X154997665Y-103722665D01*
X154920308Y-103838437D01*
X154893144Y-103975000D01*
X154893144Y-104225000D01*
X154918008Y-104350000D01*
X154893144Y-104475000D01*
X154893144Y-104725000D01*
X154918008Y-104850000D01*
X154893144Y-104975000D01*
X154893144Y-105225000D01*
X154918008Y-105350000D01*
X154893144Y-105475000D01*
X154893144Y-105725000D01*
X154918008Y-105850000D01*
X154893144Y-105975000D01*
X154893144Y-106225000D01*
X154918008Y-106350000D01*
X154893144Y-106475000D01*
X154893144Y-106650000D01*
X154702817Y-106650000D01*
X154686550Y-106633733D01*
X154484402Y-106550000D01*
X154265598Y-106550000D01*
X154063450Y-106633733D01*
X153908733Y-106788450D01*
X153825000Y-106990598D01*
X153825000Y-107209402D01*
X153908733Y-107411550D01*
X154063450Y-107566267D01*
X154265598Y-107650000D01*
X154325000Y-107650000D01*
X154325000Y-107709402D01*
X154408733Y-107911550D01*
X154563450Y-108066267D01*
X154765598Y-108150000D01*
X154893144Y-108150000D01*
X154893144Y-108225000D01*
X154918008Y-108350000D01*
X154893144Y-108475000D01*
X154893144Y-108550000D01*
X154765598Y-108550000D01*
X154563450Y-108633733D01*
X154408733Y-108788450D01*
X154325000Y-108990598D01*
X154325000Y-109209402D01*
X154408733Y-109411550D01*
X154563450Y-109566267D01*
X154765598Y-109650000D01*
X154893144Y-109650000D01*
X154893144Y-109725000D01*
X154920308Y-109861563D01*
X154997665Y-109977335D01*
X155113437Y-110054692D01*
X155250000Y-110081856D01*
X156500000Y-110081856D01*
X156636563Y-110054692D01*
X156643585Y-110050000D01*
X156830679Y-110050000D01*
X156875000Y-110058816D01*
X156919321Y-110050000D01*
X157050581Y-110023891D01*
X157199432Y-109924432D01*
X157298891Y-109775581D01*
X157333816Y-109600000D01*
X157325000Y-109555679D01*
X157325000Y-108686396D01*
X158025463Y-109386860D01*
X158050568Y-109424432D01*
X158088139Y-109449536D01*
X158088141Y-109449538D01*
X158199418Y-109523891D01*
X158375000Y-109558816D01*
X158419321Y-109550000D01*
X162415680Y-109550000D01*
X162460000Y-109558816D01*
X162504320Y-109550000D01*
X162504321Y-109550000D01*
X162635581Y-109523891D01*
X162784432Y-109424432D01*
X162809540Y-109386855D01*
X163089539Y-109106856D01*
X164045000Y-109106856D01*
X164181563Y-109079692D01*
X164297335Y-109002335D01*
X164374692Y-108886563D01*
X164401856Y-108750000D01*
X164401856Y-108209539D01*
X164925001Y-107686395D01*
X164925001Y-107740676D01*
X164916184Y-107785000D01*
X164947129Y-107940568D01*
X164951110Y-107960581D01*
X165050569Y-108109432D01*
X165088143Y-108134538D01*
X165505463Y-108551860D01*
X165530568Y-108589432D01*
X165568139Y-108614536D01*
X165568141Y-108614538D01*
X165679418Y-108688891D01*
X165855000Y-108723816D01*
X165899322Y-108715000D01*
X165998144Y-108715000D01*
X165998144Y-108750000D01*
X166025308Y-108886563D01*
X166102665Y-109002335D01*
X166218437Y-109079692D01*
X166355000Y-109106856D01*
X166655001Y-109106856D01*
X166655000Y-110593144D01*
X166355000Y-110593144D01*
X166218437Y-110620308D01*
X166102665Y-110697665D01*
X166025308Y-110813437D01*
X165998144Y-110950000D01*
X165998144Y-111920000D01*
X166025308Y-112056563D01*
X166102665Y-112172335D01*
X166218437Y-112249692D01*
X166355000Y-112276856D01*
X167855000Y-112276856D01*
X167991563Y-112249692D01*
X168107335Y-112172335D01*
X168184692Y-112056563D01*
X168211856Y-111920000D01*
X168211856Y-110950000D01*
X168184692Y-110813437D01*
X168107335Y-110697665D01*
X167991563Y-110620308D01*
X167855000Y-110593144D01*
X167555000Y-110593144D01*
X167555000Y-109106856D01*
X167855000Y-109106856D01*
X167991563Y-109079692D01*
X168107335Y-109002335D01*
X168184692Y-108886563D01*
X168211856Y-108750000D01*
X168211856Y-107800000D01*
X168400000Y-107800000D01*
X168400000Y-113688605D01*
X167438605Y-114650000D01*
X156856856Y-114650000D01*
X156856856Y-114475000D01*
X156831992Y-114350000D01*
X156856856Y-114225000D01*
X156856856Y-113975000D01*
X156831992Y-113850000D01*
X156856856Y-113725000D01*
X156856856Y-113475000D01*
X156829692Y-113338437D01*
X156752335Y-113222665D01*
X156636563Y-113145308D01*
X156500000Y-113118144D01*
X155250000Y-113118144D01*
X155113437Y-113145308D01*
X154997665Y-113222665D01*
X154920308Y-113338437D01*
X154893144Y-113475000D01*
X154893144Y-113725000D01*
X154918008Y-113850000D01*
X154893144Y-113975000D01*
X154893144Y-114225000D01*
X154918008Y-114350000D01*
X154893144Y-114475000D01*
X154893144Y-114725000D01*
X154918008Y-114850000D01*
X154893144Y-114975000D01*
X154893144Y-115225000D01*
X154918008Y-115350000D01*
X154893144Y-115475000D01*
X154893144Y-115650000D01*
X151061396Y-115650000D01*
X150957106Y-115545711D01*
X151091267Y-115411550D01*
X151175000Y-115209402D01*
X151175000Y-114990598D01*
X151091267Y-114788450D01*
X150936550Y-114633733D01*
X150855112Y-114600000D01*
X150936550Y-114566267D01*
X151091267Y-114411550D01*
X151175000Y-114209402D01*
X151175000Y-113990598D01*
X151091267Y-113788450D01*
X150936550Y-113633733D01*
X150734402Y-113550000D01*
X150675000Y-113550000D01*
X150675000Y-113490598D01*
X150591267Y-113288450D01*
X150582106Y-113279289D01*
X151161858Y-112699538D01*
X151199432Y-112674432D01*
X151298891Y-112525581D01*
X151325000Y-112394321D01*
X151325000Y-112394320D01*
X151333816Y-112350001D01*
X151325000Y-112305681D01*
X151325000Y-110475000D01*
X154893144Y-110475000D01*
X154893144Y-110725000D01*
X154918008Y-110850000D01*
X154893144Y-110975000D01*
X154893144Y-111225000D01*
X154918008Y-111350000D01*
X154893144Y-111475000D01*
X154893144Y-111725000D01*
X154918008Y-111850000D01*
X154893144Y-111975000D01*
X154893144Y-112225000D01*
X154920308Y-112361563D01*
X154997665Y-112477335D01*
X155113437Y-112554692D01*
X155250000Y-112581856D01*
X156500000Y-112581856D01*
X156636563Y-112554692D01*
X156752335Y-112477335D01*
X156829692Y-112361563D01*
X156856856Y-112225000D01*
X156856856Y-111975000D01*
X156831992Y-111850000D01*
X156856856Y-111725000D01*
X156856856Y-111550000D01*
X158378144Y-111550000D01*
X158378144Y-111920000D01*
X158405308Y-112056563D01*
X158482665Y-112172335D01*
X158598437Y-112249692D01*
X158735000Y-112276856D01*
X160235000Y-112276856D01*
X160371563Y-112249692D01*
X160487335Y-112172335D01*
X160564692Y-112056563D01*
X160591856Y-111920000D01*
X160591856Y-111050000D01*
X162188144Y-111050000D01*
X162188144Y-111920000D01*
X162215308Y-112056563D01*
X162292665Y-112172335D01*
X162408437Y-112249692D01*
X162545000Y-112276856D01*
X164045000Y-112276856D01*
X164181563Y-112249692D01*
X164297335Y-112172335D01*
X164374692Y-112056563D01*
X164401856Y-111920000D01*
X164401856Y-110950000D01*
X164374692Y-110813437D01*
X164297335Y-110697665D01*
X164181563Y-110620308D01*
X164045000Y-110593144D01*
X163089539Y-110593144D01*
X162809540Y-110313145D01*
X162784432Y-110275568D01*
X162635581Y-110176109D01*
X162504321Y-110150000D01*
X162504320Y-110150000D01*
X162460000Y-110141184D01*
X162415680Y-110150000D01*
X156643585Y-110150000D01*
X156636563Y-110145308D01*
X156500000Y-110118144D01*
X155250000Y-110118144D01*
X155113437Y-110145308D01*
X154997665Y-110222665D01*
X154920308Y-110338437D01*
X154893144Y-110475000D01*
X151325000Y-110475000D01*
X151325000Y-105427817D01*
X151341267Y-105411550D01*
X151425000Y-105209402D01*
X151425000Y-104990598D01*
X151341267Y-104788450D01*
X151186550Y-104633733D01*
X150984402Y-104550000D01*
X150925000Y-104550000D01*
X150925000Y-104490598D01*
X150908830Y-104451561D01*
X150949432Y-104424432D01*
X150974540Y-104386855D01*
X152061396Y-103300000D01*
X158188605Y-103300000D01*
X159035000Y-104146396D01*
G36*
X165175001Y-106400000D02*
X165169316Y-106400000D01*
X165124999Y-106391185D01*
X165080683Y-106400000D01*
X165080679Y-106400000D01*
X164949419Y-106426109D01*
X164800568Y-106525568D01*
X164775462Y-106563143D01*
X163915461Y-107423144D01*
X162545000Y-107423144D01*
X162408437Y-107450308D01*
X162292665Y-107527665D01*
X162215308Y-107643437D01*
X162188144Y-107780000D01*
X162188144Y-108650000D01*
X158561397Y-108650000D01*
X157724540Y-107813145D01*
X157699432Y-107775568D01*
X157550581Y-107676109D01*
X157419321Y-107650000D01*
X157419320Y-107650000D01*
X157375000Y-107641184D01*
X157330680Y-107650000D01*
X156919321Y-107650000D01*
X156875000Y-107641184D01*
X156856856Y-107644793D01*
X156856856Y-107475000D01*
X156831992Y-107350000D01*
X156856856Y-107225000D01*
X156856856Y-107050000D01*
X157047183Y-107050000D01*
X157063450Y-107066267D01*
X157265598Y-107150000D01*
X157484402Y-107150000D01*
X157686550Y-107066267D01*
X157841267Y-106911550D01*
X157925000Y-106709402D01*
X157925000Y-106490598D01*
X157841267Y-106288450D01*
X157686550Y-106133733D01*
X157484402Y-106050000D01*
X158330680Y-106050000D01*
X158375000Y-106058816D01*
X158378144Y-106058191D01*
X158378144Y-106840000D01*
X158405308Y-106976563D01*
X158482665Y-107092335D01*
X158598437Y-107169692D01*
X158735000Y-107196856D01*
X160235000Y-107196856D01*
X160371563Y-107169692D01*
X160487335Y-107092335D01*
X160564692Y-106976563D01*
X160591856Y-106840000D01*
X160591856Y-105870000D01*
X160564692Y-105733437D01*
X160487335Y-105617665D01*
X160371563Y-105540308D01*
X160235000Y-105513144D01*
X159935000Y-105513144D01*
X159935000Y-104004319D01*
X159943816Y-103959999D01*
X159934674Y-103914042D01*
X159908891Y-103784419D01*
X159809432Y-103635568D01*
X159771858Y-103610462D01*
X159361396Y-103200000D01*
X165175001Y-103200000D01*
X165175001Y-106400000D01*
X165175001Y-106400000D01*
G37*
X165175001Y-106400000D02*
X165169316Y-106400000D01*
X165124999Y-106391185D01*
X165080683Y-106400000D01*
X165080679Y-106400000D01*
X164949419Y-106426109D01*
X164800568Y-106525568D01*
X164775462Y-106563143D01*
X163915461Y-107423144D01*
X162545000Y-107423144D01*
X162408437Y-107450308D01*
X162292665Y-107527665D01*
X162215308Y-107643437D01*
X162188144Y-107780000D01*
X162188144Y-108650000D01*
X158561397Y-108650000D01*
X157724540Y-107813145D01*
X157699432Y-107775568D01*
X157550581Y-107676109D01*
X157419321Y-107650000D01*
X157419320Y-107650000D01*
X157375000Y-107641184D01*
X157330680Y-107650000D01*
X156919321Y-107650000D01*
X156875000Y-107641184D01*
X156856856Y-107644793D01*
X156856856Y-107475000D01*
X156831992Y-107350000D01*
X156856856Y-107225000D01*
X156856856Y-107050000D01*
X157047183Y-107050000D01*
X157063450Y-107066267D01*
X157265598Y-107150000D01*
X157484402Y-107150000D01*
X157686550Y-107066267D01*
X157841267Y-106911550D01*
X157925000Y-106709402D01*
X157925000Y-106490598D01*
X157841267Y-106288450D01*
X157686550Y-106133733D01*
X157484402Y-106050000D01*
X158330680Y-106050000D01*
X158375000Y-106058816D01*
X158378144Y-106058191D01*
X158378144Y-106840000D01*
X158405308Y-106976563D01*
X158482665Y-107092335D01*
X158598437Y-107169692D01*
X158735000Y-107196856D01*
X160235000Y-107196856D01*
X160371563Y-107169692D01*
X160487335Y-107092335D01*
X160564692Y-106976563D01*
X160591856Y-106840000D01*
X160591856Y-105870000D01*
X160564692Y-105733437D01*
X160487335Y-105617665D01*
X160371563Y-105540308D01*
X160235000Y-105513144D01*
X159935000Y-105513144D01*
X159935000Y-104004319D01*
X159943816Y-103959999D01*
X159934674Y-103914042D01*
X159908891Y-103784419D01*
X159809432Y-103635568D01*
X159771858Y-103610462D01*
X159361396Y-103200000D01*
X165175001Y-103200000D01*
X165175001Y-106400000D01*
M02*
