M48
;DRILL file {KiCad (5.0.0-rc2-dev-420-gf42ca89bb)} date 04/16/18 10:11:54
;FORMAT={2:4/ absolute / inch / suppress leading zeros}
FMAT,2
INCH,TZ
T1C0.0394
%
G90
G05
M72
T1
X44443Y-26492
X45443Y-26492
X40443Y-33492
X40443Y-34492
X40443Y-35492
X40443Y-36492
X40443Y-37492
X40443Y-38492
X40443Y-39492
X40443Y-40492
X40443Y-41492
X40443Y-42492
X48443Y-42000
X49443Y-42000
X50443Y-42000
X51443Y-42000
X52443Y-42000
X40443Y-30492
X40443Y-31492
X53443Y-26492
X54443Y-26492
X59443Y-34461
X59443Y-35461
X59443Y-36461
X59443Y-37461
X59443Y-38461
X59443Y-39461
T0
M30
