%TF.GenerationSoftware,KiCad,Pcbnew,(5.0.0-rc2-dev-733-g23a9fcd91)*%
%TF.CreationDate,2018-05-26T11:51:58+02:00*%
%TF.ProjectId,CellsBoard,43656C6C73426F6172642E6B69636164,rev?*%
%TF.SameCoordinates,Original*%
%TF.FileFunction,Copper,L2,Bot,Signal*%
%TF.FilePolarity,Positive*%
%FSLAX46Y46*%
G04 Gerber Fmt 4.6, Leading zero omitted, Abs format (unit mm)*
G04 Created by KiCad (PCBNEW (5.0.0-rc2-dev-733-g23a9fcd91)) date 05/26/18 11:51:58*
%MOMM*%
%LPD*%
G01*
G04 APERTURE LIST*
%ADD10C,0.150000*%
%ADD11O,2.000000X1.500000*%
%ADD12R,2.000000X1.500000*%
%ADD13C,1.200000*%
%ADD14C,11.000000*%
%ADD15C,0.900000*%
%ADD16C,1.000000*%
%ADD17O,1.700000X1.700000*%
%ADD18R,1.700000X1.700000*%
%ADD19C,0.800000*%
%ADD20C,1.600000*%
%ADD21C,0.250000*%
%ADD22C,0.500000*%
G04 APERTURE END LIST*
D10*
X226950000Y-132300000D02*
X229950000Y-132300000D01*
X225950000Y-147300000D02*
X225950000Y-133300000D01*
X229950000Y-148300000D02*
X226950000Y-148300000D01*
X230950000Y-133300000D02*
X230950000Y-147300000D01*
X226950000Y-148300000D02*
G75*
G02X225950000Y-147300000I0J1000000D01*
G01*
X225950000Y-133300000D02*
G75*
G02X226950000Y-132300000I1000000J0D01*
G01*
X229950000Y-132300000D02*
G75*
G02X230950000Y-133300000I0J-1000000D01*
G01*
X230950000Y-147300000D02*
G75*
G02X229950000Y-148300000I-1000000J0D01*
G01*
X247500000Y-90000000D02*
X52500000Y-90000000D01*
X247500000Y-90000000D02*
G75*
G02X250000000Y-92500000I0J-2500000D01*
G01*
X250000000Y-147500000D02*
X250000000Y-92500000D01*
X250000000Y-147500000D02*
G75*
G02X247500000Y-150000000I-2500000J0D01*
G01*
X52500000Y-150000000D02*
X247500000Y-150000000D01*
X52500000Y-150000000D02*
G75*
G02X50000000Y-147500000I0J2500000D01*
G01*
X50000000Y-92500000D02*
X50000000Y-147500000D01*
X50000000Y-92500000D02*
G75*
G02X52500000Y-90000000I2500000J0D01*
G01*
D11*
X73450000Y-108350000D03*
D12*
X73450000Y-111350000D03*
D13*
X71490000Y-105350000D03*
X71490000Y-114350000D03*
D11*
X73450000Y-128650000D03*
D12*
X73450000Y-131650000D03*
D13*
X71490000Y-125650000D03*
X71490000Y-134650000D03*
D14*
X240950000Y-140300000D03*
D15*
X240950000Y-136175000D03*
X243876815Y-137373185D03*
X245075000Y-140300000D03*
X243876815Y-143226815D03*
X240950000Y-144425000D03*
X238023185Y-143226815D03*
X236825000Y-140300000D03*
X238023185Y-137373185D03*
D10*
G36*
X235074504Y-132901204D02*
X235098773Y-132904804D01*
X235122571Y-132910765D01*
X235145671Y-132919030D01*
X235167849Y-132929520D01*
X235188893Y-132942133D01*
X235208598Y-132956747D01*
X235226777Y-132973223D01*
X235243253Y-132991402D01*
X235257867Y-133011107D01*
X235270480Y-133032151D01*
X235280970Y-133054329D01*
X235289235Y-133077429D01*
X235295196Y-133101227D01*
X235298796Y-133125496D01*
X235300000Y-133150000D01*
X235300000Y-133650000D01*
X235298796Y-133674504D01*
X235295196Y-133698773D01*
X235289235Y-133722571D01*
X235280970Y-133745671D01*
X235270480Y-133767849D01*
X235257867Y-133788893D01*
X235243253Y-133808598D01*
X235226777Y-133826777D01*
X235208598Y-133843253D01*
X235188893Y-133857867D01*
X235167849Y-133870480D01*
X235145671Y-133880970D01*
X235122571Y-133889235D01*
X235098773Y-133895196D01*
X235074504Y-133898796D01*
X235050000Y-133900000D01*
X233550000Y-133900000D01*
X233525496Y-133898796D01*
X233501227Y-133895196D01*
X233477429Y-133889235D01*
X233454329Y-133880970D01*
X233432151Y-133870480D01*
X233411107Y-133857867D01*
X233391402Y-133843253D01*
X233373223Y-133826777D01*
X233356747Y-133808598D01*
X233342133Y-133788893D01*
X233329520Y-133767849D01*
X233319030Y-133745671D01*
X233310765Y-133722571D01*
X233304804Y-133698773D01*
X233301204Y-133674504D01*
X233300000Y-133650000D01*
X233300000Y-133150000D01*
X233301204Y-133125496D01*
X233304804Y-133101227D01*
X233310765Y-133077429D01*
X233319030Y-133054329D01*
X233329520Y-133032151D01*
X233342133Y-133011107D01*
X233356747Y-132991402D01*
X233373223Y-132973223D01*
X233391402Y-132956747D01*
X233411107Y-132942133D01*
X233432151Y-132929520D01*
X233454329Y-132919030D01*
X233477429Y-132910765D01*
X233501227Y-132904804D01*
X233525496Y-132901204D01*
X233550000Y-132900000D01*
X235050000Y-132900000D01*
X235074504Y-132901204D01*
X235074504Y-132901204D01*
G37*
D16*
X234300000Y-133400000D03*
D10*
G36*
X235074504Y-146701204D02*
X235098773Y-146704804D01*
X235122571Y-146710765D01*
X235145671Y-146719030D01*
X235167849Y-146729520D01*
X235188893Y-146742133D01*
X235208598Y-146756747D01*
X235226777Y-146773223D01*
X235243253Y-146791402D01*
X235257867Y-146811107D01*
X235270480Y-146832151D01*
X235280970Y-146854329D01*
X235289235Y-146877429D01*
X235295196Y-146901227D01*
X235298796Y-146925496D01*
X235300000Y-146950000D01*
X235300000Y-147450000D01*
X235298796Y-147474504D01*
X235295196Y-147498773D01*
X235289235Y-147522571D01*
X235280970Y-147545671D01*
X235270480Y-147567849D01*
X235257867Y-147588893D01*
X235243253Y-147608598D01*
X235226777Y-147626777D01*
X235208598Y-147643253D01*
X235188893Y-147657867D01*
X235167849Y-147670480D01*
X235145671Y-147680970D01*
X235122571Y-147689235D01*
X235098773Y-147695196D01*
X235074504Y-147698796D01*
X235050000Y-147700000D01*
X233550000Y-147700000D01*
X233525496Y-147698796D01*
X233501227Y-147695196D01*
X233477429Y-147689235D01*
X233454329Y-147680970D01*
X233432151Y-147670480D01*
X233411107Y-147657867D01*
X233391402Y-147643253D01*
X233373223Y-147626777D01*
X233356747Y-147608598D01*
X233342133Y-147588893D01*
X233329520Y-147567849D01*
X233319030Y-147545671D01*
X233310765Y-147522571D01*
X233304804Y-147498773D01*
X233301204Y-147474504D01*
X233300000Y-147450000D01*
X233300000Y-146950000D01*
X233301204Y-146925496D01*
X233304804Y-146901227D01*
X233310765Y-146877429D01*
X233319030Y-146854329D01*
X233329520Y-146832151D01*
X233342133Y-146811107D01*
X233356747Y-146791402D01*
X233373223Y-146773223D01*
X233391402Y-146756747D01*
X233411107Y-146742133D01*
X233432151Y-146729520D01*
X233454329Y-146719030D01*
X233477429Y-146710765D01*
X233501227Y-146704804D01*
X233525496Y-146701204D01*
X233550000Y-146700000D01*
X235050000Y-146700000D01*
X235074504Y-146701204D01*
X235074504Y-146701204D01*
G37*
D16*
X234300000Y-147200000D03*
D10*
G36*
X119674504Y-146701204D02*
X119698773Y-146704804D01*
X119722571Y-146710765D01*
X119745671Y-146719030D01*
X119767849Y-146729520D01*
X119788893Y-146742133D01*
X119808598Y-146756747D01*
X119826777Y-146773223D01*
X119843253Y-146791402D01*
X119857867Y-146811107D01*
X119870480Y-146832151D01*
X119880970Y-146854329D01*
X119889235Y-146877429D01*
X119895196Y-146901227D01*
X119898796Y-146925496D01*
X119900000Y-146950000D01*
X119900000Y-147450000D01*
X119898796Y-147474504D01*
X119895196Y-147498773D01*
X119889235Y-147522571D01*
X119880970Y-147545671D01*
X119870480Y-147567849D01*
X119857867Y-147588893D01*
X119843253Y-147608598D01*
X119826777Y-147626777D01*
X119808598Y-147643253D01*
X119788893Y-147657867D01*
X119767849Y-147670480D01*
X119745671Y-147680970D01*
X119722571Y-147689235D01*
X119698773Y-147695196D01*
X119674504Y-147698796D01*
X119650000Y-147700000D01*
X118150000Y-147700000D01*
X118125496Y-147698796D01*
X118101227Y-147695196D01*
X118077429Y-147689235D01*
X118054329Y-147680970D01*
X118032151Y-147670480D01*
X118011107Y-147657867D01*
X117991402Y-147643253D01*
X117973223Y-147626777D01*
X117956747Y-147608598D01*
X117942133Y-147588893D01*
X117929520Y-147567849D01*
X117919030Y-147545671D01*
X117910765Y-147522571D01*
X117904804Y-147498773D01*
X117901204Y-147474504D01*
X117900000Y-147450000D01*
X117900000Y-146950000D01*
X117901204Y-146925496D01*
X117904804Y-146901227D01*
X117910765Y-146877429D01*
X117919030Y-146854329D01*
X117929520Y-146832151D01*
X117942133Y-146811107D01*
X117956747Y-146791402D01*
X117973223Y-146773223D01*
X117991402Y-146756747D01*
X118011107Y-146742133D01*
X118032151Y-146729520D01*
X118054329Y-146719030D01*
X118077429Y-146710765D01*
X118101227Y-146704804D01*
X118125496Y-146701204D01*
X118150000Y-146700000D01*
X119650000Y-146700000D01*
X119674504Y-146701204D01*
X119674504Y-146701204D01*
G37*
D16*
X118900000Y-147200000D03*
D10*
G36*
X112674504Y-132901204D02*
X112698773Y-132904804D01*
X112722571Y-132910765D01*
X112745671Y-132919030D01*
X112767849Y-132929520D01*
X112788893Y-132942133D01*
X112808598Y-132956747D01*
X112826777Y-132973223D01*
X112843253Y-132991402D01*
X112857867Y-133011107D01*
X112870480Y-133032151D01*
X112880970Y-133054329D01*
X112889235Y-133077429D01*
X112895196Y-133101227D01*
X112898796Y-133125496D01*
X112900000Y-133150000D01*
X112900000Y-133650000D01*
X112898796Y-133674504D01*
X112895196Y-133698773D01*
X112889235Y-133722571D01*
X112880970Y-133745671D01*
X112870480Y-133767849D01*
X112857867Y-133788893D01*
X112843253Y-133808598D01*
X112826777Y-133826777D01*
X112808598Y-133843253D01*
X112788893Y-133857867D01*
X112767849Y-133870480D01*
X112745671Y-133880970D01*
X112722571Y-133889235D01*
X112698773Y-133895196D01*
X112674504Y-133898796D01*
X112650000Y-133900000D01*
X111150000Y-133900000D01*
X111125496Y-133898796D01*
X111101227Y-133895196D01*
X111077429Y-133889235D01*
X111054329Y-133880970D01*
X111032151Y-133870480D01*
X111011107Y-133857867D01*
X110991402Y-133843253D01*
X110973223Y-133826777D01*
X110956747Y-133808598D01*
X110942133Y-133788893D01*
X110929520Y-133767849D01*
X110919030Y-133745671D01*
X110910765Y-133722571D01*
X110904804Y-133698773D01*
X110901204Y-133674504D01*
X110900000Y-133650000D01*
X110900000Y-133150000D01*
X110901204Y-133125496D01*
X110904804Y-133101227D01*
X110910765Y-133077429D01*
X110919030Y-133054329D01*
X110929520Y-133032151D01*
X110942133Y-133011107D01*
X110956747Y-132991402D01*
X110973223Y-132973223D01*
X110991402Y-132956747D01*
X111011107Y-132942133D01*
X111032151Y-132929520D01*
X111054329Y-132919030D01*
X111077429Y-132910765D01*
X111101227Y-132904804D01*
X111125496Y-132901204D01*
X111150000Y-132900000D01*
X112650000Y-132900000D01*
X112674504Y-132901204D01*
X112674504Y-132901204D01*
G37*
D16*
X111900000Y-133400000D03*
D14*
X127650000Y-140300000D03*
D15*
X124723185Y-143226815D03*
X127650000Y-136175000D03*
X130576815Y-143226815D03*
X130576815Y-137373185D03*
X124723185Y-137373185D03*
X127650000Y-144425000D03*
X123525000Y-140300000D03*
X131775000Y-140300000D03*
X106076815Y-137373185D03*
X103150000Y-136175000D03*
X100223185Y-137373185D03*
X99025000Y-140300000D03*
X100223185Y-143226815D03*
X103150000Y-144425000D03*
X106076815Y-143226815D03*
X107275000Y-140300000D03*
D14*
X103150000Y-140300000D03*
D10*
G36*
X188574504Y-106101204D02*
X188598773Y-106104804D01*
X188622571Y-106110765D01*
X188645671Y-106119030D01*
X188667849Y-106129520D01*
X188688893Y-106142133D01*
X188708598Y-106156747D01*
X188726777Y-106173223D01*
X188743253Y-106191402D01*
X188757867Y-106211107D01*
X188770480Y-106232151D01*
X188780970Y-106254329D01*
X188789235Y-106277429D01*
X188795196Y-106301227D01*
X188798796Y-106325496D01*
X188800000Y-106350000D01*
X188800000Y-106850000D01*
X188798796Y-106874504D01*
X188795196Y-106898773D01*
X188789235Y-106922571D01*
X188780970Y-106945671D01*
X188770480Y-106967849D01*
X188757867Y-106988893D01*
X188743253Y-107008598D01*
X188726777Y-107026777D01*
X188708598Y-107043253D01*
X188688893Y-107057867D01*
X188667849Y-107070480D01*
X188645671Y-107080970D01*
X188622571Y-107089235D01*
X188598773Y-107095196D01*
X188574504Y-107098796D01*
X188550000Y-107100000D01*
X187050000Y-107100000D01*
X187025496Y-107098796D01*
X187001227Y-107095196D01*
X186977429Y-107089235D01*
X186954329Y-107080970D01*
X186932151Y-107070480D01*
X186911107Y-107057867D01*
X186891402Y-107043253D01*
X186873223Y-107026777D01*
X186856747Y-107008598D01*
X186842133Y-106988893D01*
X186829520Y-106967849D01*
X186819030Y-106945671D01*
X186810765Y-106922571D01*
X186804804Y-106898773D01*
X186801204Y-106874504D01*
X186800000Y-106850000D01*
X186800000Y-106350000D01*
X186801204Y-106325496D01*
X186804804Y-106301227D01*
X186810765Y-106277429D01*
X186819030Y-106254329D01*
X186829520Y-106232151D01*
X186842133Y-106211107D01*
X186856747Y-106191402D01*
X186873223Y-106173223D01*
X186891402Y-106156747D01*
X186911107Y-106142133D01*
X186932151Y-106129520D01*
X186954329Y-106119030D01*
X186977429Y-106110765D01*
X187001227Y-106104804D01*
X187025496Y-106101204D01*
X187050000Y-106100000D01*
X188550000Y-106100000D01*
X188574504Y-106101204D01*
X188574504Y-106101204D01*
G37*
D16*
X187800000Y-106600000D03*
D10*
G36*
X181574504Y-92301204D02*
X181598773Y-92304804D01*
X181622571Y-92310765D01*
X181645671Y-92319030D01*
X181667849Y-92329520D01*
X181688893Y-92342133D01*
X181708598Y-92356747D01*
X181726777Y-92373223D01*
X181743253Y-92391402D01*
X181757867Y-92411107D01*
X181770480Y-92432151D01*
X181780970Y-92454329D01*
X181789235Y-92477429D01*
X181795196Y-92501227D01*
X181798796Y-92525496D01*
X181800000Y-92550000D01*
X181800000Y-93050000D01*
X181798796Y-93074504D01*
X181795196Y-93098773D01*
X181789235Y-93122571D01*
X181780970Y-93145671D01*
X181770480Y-93167849D01*
X181757867Y-93188893D01*
X181743253Y-93208598D01*
X181726777Y-93226777D01*
X181708598Y-93243253D01*
X181688893Y-93257867D01*
X181667849Y-93270480D01*
X181645671Y-93280970D01*
X181622571Y-93289235D01*
X181598773Y-93295196D01*
X181574504Y-93298796D01*
X181550000Y-93300000D01*
X180050000Y-93300000D01*
X180025496Y-93298796D01*
X180001227Y-93295196D01*
X179977429Y-93289235D01*
X179954329Y-93280970D01*
X179932151Y-93270480D01*
X179911107Y-93257867D01*
X179891402Y-93243253D01*
X179873223Y-93226777D01*
X179856747Y-93208598D01*
X179842133Y-93188893D01*
X179829520Y-93167849D01*
X179819030Y-93145671D01*
X179810765Y-93122571D01*
X179804804Y-93098773D01*
X179801204Y-93074504D01*
X179800000Y-93050000D01*
X179800000Y-92550000D01*
X179801204Y-92525496D01*
X179804804Y-92501227D01*
X179810765Y-92477429D01*
X179819030Y-92454329D01*
X179829520Y-92432151D01*
X179842133Y-92411107D01*
X179856747Y-92391402D01*
X179873223Y-92373223D01*
X179891402Y-92356747D01*
X179911107Y-92342133D01*
X179932151Y-92329520D01*
X179954329Y-92319030D01*
X179977429Y-92310765D01*
X180001227Y-92304804D01*
X180025496Y-92301204D01*
X180050000Y-92300000D01*
X181550000Y-92300000D01*
X181574504Y-92301204D01*
X181574504Y-92301204D01*
G37*
D16*
X180800000Y-92800000D03*
D14*
X196550000Y-99700000D03*
D15*
X193623185Y-102626815D03*
X196550000Y-95575000D03*
X199476815Y-102626815D03*
X199476815Y-96773185D03*
X193623185Y-96773185D03*
X196550000Y-103825000D03*
X192425000Y-99700000D03*
X200675000Y-99700000D03*
X174976815Y-96773185D03*
X172050000Y-95575000D03*
X169123185Y-96773185D03*
X167925000Y-99700000D03*
X169123185Y-102626815D03*
X172050000Y-103825000D03*
X174976815Y-102626815D03*
X176175000Y-99700000D03*
D14*
X172050000Y-99700000D03*
D10*
G36*
X110324504Y-105351204D02*
X110348773Y-105354804D01*
X110372571Y-105360765D01*
X110395671Y-105369030D01*
X110417849Y-105379520D01*
X110438893Y-105392133D01*
X110458598Y-105406747D01*
X110476777Y-105423223D01*
X110493253Y-105441402D01*
X110507867Y-105461107D01*
X110520480Y-105482151D01*
X110530970Y-105504329D01*
X110539235Y-105527429D01*
X110545196Y-105551227D01*
X110548796Y-105575496D01*
X110550000Y-105600000D01*
X110550000Y-107100000D01*
X110548796Y-107124504D01*
X110545196Y-107148773D01*
X110539235Y-107172571D01*
X110530970Y-107195671D01*
X110520480Y-107217849D01*
X110507867Y-107238893D01*
X110493253Y-107258598D01*
X110476777Y-107276777D01*
X110458598Y-107293253D01*
X110438893Y-107307867D01*
X110417849Y-107320480D01*
X110395671Y-107330970D01*
X110372571Y-107339235D01*
X110348773Y-107345196D01*
X110324504Y-107348796D01*
X110300000Y-107350000D01*
X109800000Y-107350000D01*
X109775496Y-107348796D01*
X109751227Y-107345196D01*
X109727429Y-107339235D01*
X109704329Y-107330970D01*
X109682151Y-107320480D01*
X109661107Y-107307867D01*
X109641402Y-107293253D01*
X109623223Y-107276777D01*
X109606747Y-107258598D01*
X109592133Y-107238893D01*
X109579520Y-107217849D01*
X109569030Y-107195671D01*
X109560765Y-107172571D01*
X109554804Y-107148773D01*
X109551204Y-107124504D01*
X109550000Y-107100000D01*
X109550000Y-105600000D01*
X109551204Y-105575496D01*
X109554804Y-105551227D01*
X109560765Y-105527429D01*
X109569030Y-105504329D01*
X109579520Y-105482151D01*
X109592133Y-105461107D01*
X109606747Y-105441402D01*
X109623223Y-105423223D01*
X109641402Y-105406747D01*
X109661107Y-105392133D01*
X109682151Y-105379520D01*
X109704329Y-105369030D01*
X109727429Y-105360765D01*
X109751227Y-105354804D01*
X109775496Y-105351204D01*
X109800000Y-105350000D01*
X110300000Y-105350000D01*
X110324504Y-105351204D01*
X110324504Y-105351204D01*
G37*
D16*
X110050000Y-106350000D03*
D10*
G36*
X96524504Y-112351204D02*
X96548773Y-112354804D01*
X96572571Y-112360765D01*
X96595671Y-112369030D01*
X96617849Y-112379520D01*
X96638893Y-112392133D01*
X96658598Y-112406747D01*
X96676777Y-112423223D01*
X96693253Y-112441402D01*
X96707867Y-112461107D01*
X96720480Y-112482151D01*
X96730970Y-112504329D01*
X96739235Y-112527429D01*
X96745196Y-112551227D01*
X96748796Y-112575496D01*
X96750000Y-112600000D01*
X96750000Y-114100000D01*
X96748796Y-114124504D01*
X96745196Y-114148773D01*
X96739235Y-114172571D01*
X96730970Y-114195671D01*
X96720480Y-114217849D01*
X96707867Y-114238893D01*
X96693253Y-114258598D01*
X96676777Y-114276777D01*
X96658598Y-114293253D01*
X96638893Y-114307867D01*
X96617849Y-114320480D01*
X96595671Y-114330970D01*
X96572571Y-114339235D01*
X96548773Y-114345196D01*
X96524504Y-114348796D01*
X96500000Y-114350000D01*
X96000000Y-114350000D01*
X95975496Y-114348796D01*
X95951227Y-114345196D01*
X95927429Y-114339235D01*
X95904329Y-114330970D01*
X95882151Y-114320480D01*
X95861107Y-114307867D01*
X95841402Y-114293253D01*
X95823223Y-114276777D01*
X95806747Y-114258598D01*
X95792133Y-114238893D01*
X95779520Y-114217849D01*
X95769030Y-114195671D01*
X95760765Y-114172571D01*
X95754804Y-114148773D01*
X95751204Y-114124504D01*
X95750000Y-114100000D01*
X95750000Y-112600000D01*
X95751204Y-112575496D01*
X95754804Y-112551227D01*
X95760765Y-112527429D01*
X95769030Y-112504329D01*
X95779520Y-112482151D01*
X95792133Y-112461107D01*
X95806747Y-112441402D01*
X95823223Y-112423223D01*
X95841402Y-112406747D01*
X95861107Y-112392133D01*
X95882151Y-112379520D01*
X95904329Y-112369030D01*
X95927429Y-112360765D01*
X95951227Y-112354804D01*
X95975496Y-112351204D01*
X96000000Y-112350000D01*
X96500000Y-112350000D01*
X96524504Y-112351204D01*
X96524504Y-112351204D01*
G37*
D16*
X96250000Y-113350000D03*
D14*
X103150000Y-99700000D03*
D15*
X106076815Y-102626815D03*
X99025000Y-99700000D03*
X106076815Y-96773185D03*
X100223185Y-96773185D03*
X100223185Y-102626815D03*
X107275000Y-99700000D03*
X103150000Y-103825000D03*
X103150000Y-95575000D03*
X100223185Y-117073185D03*
X99025000Y-120000000D03*
X100223185Y-122926815D03*
X103150000Y-124125000D03*
X106076815Y-122926815D03*
X107275000Y-120000000D03*
X106076815Y-117073185D03*
X103150000Y-115875000D03*
D14*
X103150000Y-120000000D03*
D10*
G36*
X65924504Y-125651204D02*
X65948773Y-125654804D01*
X65972571Y-125660765D01*
X65995671Y-125669030D01*
X66017849Y-125679520D01*
X66038893Y-125692133D01*
X66058598Y-125706747D01*
X66076777Y-125723223D01*
X66093253Y-125741402D01*
X66107867Y-125761107D01*
X66120480Y-125782151D01*
X66130970Y-125804329D01*
X66139235Y-125827429D01*
X66145196Y-125851227D01*
X66148796Y-125875496D01*
X66150000Y-125900000D01*
X66150000Y-127400000D01*
X66148796Y-127424504D01*
X66145196Y-127448773D01*
X66139235Y-127472571D01*
X66130970Y-127495671D01*
X66120480Y-127517849D01*
X66107867Y-127538893D01*
X66093253Y-127558598D01*
X66076777Y-127576777D01*
X66058598Y-127593253D01*
X66038893Y-127607867D01*
X66017849Y-127620480D01*
X65995671Y-127630970D01*
X65972571Y-127639235D01*
X65948773Y-127645196D01*
X65924504Y-127648796D01*
X65900000Y-127650000D01*
X65400000Y-127650000D01*
X65375496Y-127648796D01*
X65351227Y-127645196D01*
X65327429Y-127639235D01*
X65304329Y-127630970D01*
X65282151Y-127620480D01*
X65261107Y-127607867D01*
X65241402Y-127593253D01*
X65223223Y-127576777D01*
X65206747Y-127558598D01*
X65192133Y-127538893D01*
X65179520Y-127517849D01*
X65169030Y-127495671D01*
X65160765Y-127472571D01*
X65154804Y-127448773D01*
X65151204Y-127424504D01*
X65150000Y-127400000D01*
X65150000Y-125900000D01*
X65151204Y-125875496D01*
X65154804Y-125851227D01*
X65160765Y-125827429D01*
X65169030Y-125804329D01*
X65179520Y-125782151D01*
X65192133Y-125761107D01*
X65206747Y-125741402D01*
X65223223Y-125723223D01*
X65241402Y-125706747D01*
X65261107Y-125692133D01*
X65282151Y-125679520D01*
X65304329Y-125669030D01*
X65327429Y-125660765D01*
X65351227Y-125654804D01*
X65375496Y-125651204D01*
X65400000Y-125650000D01*
X65900000Y-125650000D01*
X65924504Y-125651204D01*
X65924504Y-125651204D01*
G37*
D16*
X65650000Y-126650000D03*
D10*
G36*
X52124504Y-132651204D02*
X52148773Y-132654804D01*
X52172571Y-132660765D01*
X52195671Y-132669030D01*
X52217849Y-132679520D01*
X52238893Y-132692133D01*
X52258598Y-132706747D01*
X52276777Y-132723223D01*
X52293253Y-132741402D01*
X52307867Y-132761107D01*
X52320480Y-132782151D01*
X52330970Y-132804329D01*
X52339235Y-132827429D01*
X52345196Y-132851227D01*
X52348796Y-132875496D01*
X52350000Y-132900000D01*
X52350000Y-134400000D01*
X52348796Y-134424504D01*
X52345196Y-134448773D01*
X52339235Y-134472571D01*
X52330970Y-134495671D01*
X52320480Y-134517849D01*
X52307867Y-134538893D01*
X52293253Y-134558598D01*
X52276777Y-134576777D01*
X52258598Y-134593253D01*
X52238893Y-134607867D01*
X52217849Y-134620480D01*
X52195671Y-134630970D01*
X52172571Y-134639235D01*
X52148773Y-134645196D01*
X52124504Y-134648796D01*
X52100000Y-134650000D01*
X51600000Y-134650000D01*
X51575496Y-134648796D01*
X51551227Y-134645196D01*
X51527429Y-134639235D01*
X51504329Y-134630970D01*
X51482151Y-134620480D01*
X51461107Y-134607867D01*
X51441402Y-134593253D01*
X51423223Y-134576777D01*
X51406747Y-134558598D01*
X51392133Y-134538893D01*
X51379520Y-134517849D01*
X51369030Y-134495671D01*
X51360765Y-134472571D01*
X51354804Y-134448773D01*
X51351204Y-134424504D01*
X51350000Y-134400000D01*
X51350000Y-132900000D01*
X51351204Y-132875496D01*
X51354804Y-132851227D01*
X51360765Y-132827429D01*
X51369030Y-132804329D01*
X51379520Y-132782151D01*
X51392133Y-132761107D01*
X51406747Y-132741402D01*
X51423223Y-132723223D01*
X51441402Y-132706747D01*
X51461107Y-132692133D01*
X51482151Y-132679520D01*
X51504329Y-132669030D01*
X51527429Y-132660765D01*
X51551227Y-132654804D01*
X51575496Y-132651204D01*
X51600000Y-132650000D01*
X52100000Y-132650000D01*
X52124504Y-132651204D01*
X52124504Y-132651204D01*
G37*
D16*
X51850000Y-133650000D03*
D14*
X58750000Y-120000000D03*
D15*
X61676815Y-122926815D03*
X54625000Y-120000000D03*
X61676815Y-117073185D03*
X55823185Y-117073185D03*
X55823185Y-122926815D03*
X62875000Y-120000000D03*
X58750000Y-124125000D03*
X58750000Y-115875000D03*
X55823185Y-137373185D03*
X54625000Y-140300000D03*
X55823185Y-143226815D03*
X58750000Y-144425000D03*
X61676815Y-143226815D03*
X62875000Y-140300000D03*
X61676815Y-137373185D03*
X58750000Y-136175000D03*
D14*
X58750000Y-140300000D03*
D10*
G36*
X165424504Y-132651204D02*
X165448773Y-132654804D01*
X165472571Y-132660765D01*
X165495671Y-132669030D01*
X165517849Y-132679520D01*
X165538893Y-132692133D01*
X165558598Y-132706747D01*
X165576777Y-132723223D01*
X165593253Y-132741402D01*
X165607867Y-132761107D01*
X165620480Y-132782151D01*
X165630970Y-132804329D01*
X165639235Y-132827429D01*
X165645196Y-132851227D01*
X165648796Y-132875496D01*
X165650000Y-132900000D01*
X165650000Y-134400000D01*
X165648796Y-134424504D01*
X165645196Y-134448773D01*
X165639235Y-134472571D01*
X165630970Y-134495671D01*
X165620480Y-134517849D01*
X165607867Y-134538893D01*
X165593253Y-134558598D01*
X165576777Y-134576777D01*
X165558598Y-134593253D01*
X165538893Y-134607867D01*
X165517849Y-134620480D01*
X165495671Y-134630970D01*
X165472571Y-134639235D01*
X165448773Y-134645196D01*
X165424504Y-134648796D01*
X165400000Y-134650000D01*
X164900000Y-134650000D01*
X164875496Y-134648796D01*
X164851227Y-134645196D01*
X164827429Y-134639235D01*
X164804329Y-134630970D01*
X164782151Y-134620480D01*
X164761107Y-134607867D01*
X164741402Y-134593253D01*
X164723223Y-134576777D01*
X164706747Y-134558598D01*
X164692133Y-134538893D01*
X164679520Y-134517849D01*
X164669030Y-134495671D01*
X164660765Y-134472571D01*
X164654804Y-134448773D01*
X164651204Y-134424504D01*
X164650000Y-134400000D01*
X164650000Y-132900000D01*
X164651204Y-132875496D01*
X164654804Y-132851227D01*
X164660765Y-132827429D01*
X164669030Y-132804329D01*
X164679520Y-132782151D01*
X164692133Y-132761107D01*
X164706747Y-132741402D01*
X164723223Y-132723223D01*
X164741402Y-132706747D01*
X164761107Y-132692133D01*
X164782151Y-132679520D01*
X164804329Y-132669030D01*
X164827429Y-132660765D01*
X164851227Y-132654804D01*
X164875496Y-132651204D01*
X164900000Y-132650000D01*
X165400000Y-132650000D01*
X165424504Y-132651204D01*
X165424504Y-132651204D01*
G37*
D16*
X165150000Y-133650000D03*
D10*
G36*
X179224504Y-125651204D02*
X179248773Y-125654804D01*
X179272571Y-125660765D01*
X179295671Y-125669030D01*
X179317849Y-125679520D01*
X179338893Y-125692133D01*
X179358598Y-125706747D01*
X179376777Y-125723223D01*
X179393253Y-125741402D01*
X179407867Y-125761107D01*
X179420480Y-125782151D01*
X179430970Y-125804329D01*
X179439235Y-125827429D01*
X179445196Y-125851227D01*
X179448796Y-125875496D01*
X179450000Y-125900000D01*
X179450000Y-127400000D01*
X179448796Y-127424504D01*
X179445196Y-127448773D01*
X179439235Y-127472571D01*
X179430970Y-127495671D01*
X179420480Y-127517849D01*
X179407867Y-127538893D01*
X179393253Y-127558598D01*
X179376777Y-127576777D01*
X179358598Y-127593253D01*
X179338893Y-127607867D01*
X179317849Y-127620480D01*
X179295671Y-127630970D01*
X179272571Y-127639235D01*
X179248773Y-127645196D01*
X179224504Y-127648796D01*
X179200000Y-127650000D01*
X178700000Y-127650000D01*
X178675496Y-127648796D01*
X178651227Y-127645196D01*
X178627429Y-127639235D01*
X178604329Y-127630970D01*
X178582151Y-127620480D01*
X178561107Y-127607867D01*
X178541402Y-127593253D01*
X178523223Y-127576777D01*
X178506747Y-127558598D01*
X178492133Y-127538893D01*
X178479520Y-127517849D01*
X178469030Y-127495671D01*
X178460765Y-127472571D01*
X178454804Y-127448773D01*
X178451204Y-127424504D01*
X178450000Y-127400000D01*
X178450000Y-125900000D01*
X178451204Y-125875496D01*
X178454804Y-125851227D01*
X178460765Y-125827429D01*
X178469030Y-125804329D01*
X178479520Y-125782151D01*
X178492133Y-125761107D01*
X178506747Y-125741402D01*
X178523223Y-125723223D01*
X178541402Y-125706747D01*
X178561107Y-125692133D01*
X178582151Y-125679520D01*
X178604329Y-125669030D01*
X178627429Y-125660765D01*
X178651227Y-125654804D01*
X178675496Y-125651204D01*
X178700000Y-125650000D01*
X179200000Y-125650000D01*
X179224504Y-125651204D01*
X179224504Y-125651204D01*
G37*
D16*
X178950000Y-126650000D03*
D14*
X172050000Y-140300000D03*
D15*
X169123185Y-137373185D03*
X176175000Y-140300000D03*
X169123185Y-143226815D03*
X174976815Y-143226815D03*
X174976815Y-137373185D03*
X167925000Y-140300000D03*
X172050000Y-136175000D03*
X172050000Y-144425000D03*
X174976815Y-122926815D03*
X176175000Y-120000000D03*
X174976815Y-117073185D03*
X172050000Y-115875000D03*
X169123185Y-117073185D03*
X167925000Y-120000000D03*
X169123185Y-122926815D03*
X172050000Y-124125000D03*
D14*
X172050000Y-120000000D03*
D10*
G36*
X121024504Y-112351204D02*
X121048773Y-112354804D01*
X121072571Y-112360765D01*
X121095671Y-112369030D01*
X121117849Y-112379520D01*
X121138893Y-112392133D01*
X121158598Y-112406747D01*
X121176777Y-112423223D01*
X121193253Y-112441402D01*
X121207867Y-112461107D01*
X121220480Y-112482151D01*
X121230970Y-112504329D01*
X121239235Y-112527429D01*
X121245196Y-112551227D01*
X121248796Y-112575496D01*
X121250000Y-112600000D01*
X121250000Y-114100000D01*
X121248796Y-114124504D01*
X121245196Y-114148773D01*
X121239235Y-114172571D01*
X121230970Y-114195671D01*
X121220480Y-114217849D01*
X121207867Y-114238893D01*
X121193253Y-114258598D01*
X121176777Y-114276777D01*
X121158598Y-114293253D01*
X121138893Y-114307867D01*
X121117849Y-114320480D01*
X121095671Y-114330970D01*
X121072571Y-114339235D01*
X121048773Y-114345196D01*
X121024504Y-114348796D01*
X121000000Y-114350000D01*
X120500000Y-114350000D01*
X120475496Y-114348796D01*
X120451227Y-114345196D01*
X120427429Y-114339235D01*
X120404329Y-114330970D01*
X120382151Y-114320480D01*
X120361107Y-114307867D01*
X120341402Y-114293253D01*
X120323223Y-114276777D01*
X120306747Y-114258598D01*
X120292133Y-114238893D01*
X120279520Y-114217849D01*
X120269030Y-114195671D01*
X120260765Y-114172571D01*
X120254804Y-114148773D01*
X120251204Y-114124504D01*
X120250000Y-114100000D01*
X120250000Y-112600000D01*
X120251204Y-112575496D01*
X120254804Y-112551227D01*
X120260765Y-112527429D01*
X120269030Y-112504329D01*
X120279520Y-112482151D01*
X120292133Y-112461107D01*
X120306747Y-112441402D01*
X120323223Y-112423223D01*
X120341402Y-112406747D01*
X120361107Y-112392133D01*
X120382151Y-112379520D01*
X120404329Y-112369030D01*
X120427429Y-112360765D01*
X120451227Y-112354804D01*
X120475496Y-112351204D01*
X120500000Y-112350000D01*
X121000000Y-112350000D01*
X121024504Y-112351204D01*
X121024504Y-112351204D01*
G37*
D16*
X120750000Y-113350000D03*
D10*
G36*
X134824504Y-105351204D02*
X134848773Y-105354804D01*
X134872571Y-105360765D01*
X134895671Y-105369030D01*
X134917849Y-105379520D01*
X134938893Y-105392133D01*
X134958598Y-105406747D01*
X134976777Y-105423223D01*
X134993253Y-105441402D01*
X135007867Y-105461107D01*
X135020480Y-105482151D01*
X135030970Y-105504329D01*
X135039235Y-105527429D01*
X135045196Y-105551227D01*
X135048796Y-105575496D01*
X135050000Y-105600000D01*
X135050000Y-107100000D01*
X135048796Y-107124504D01*
X135045196Y-107148773D01*
X135039235Y-107172571D01*
X135030970Y-107195671D01*
X135020480Y-107217849D01*
X135007867Y-107238893D01*
X134993253Y-107258598D01*
X134976777Y-107276777D01*
X134958598Y-107293253D01*
X134938893Y-107307867D01*
X134917849Y-107320480D01*
X134895671Y-107330970D01*
X134872571Y-107339235D01*
X134848773Y-107345196D01*
X134824504Y-107348796D01*
X134800000Y-107350000D01*
X134300000Y-107350000D01*
X134275496Y-107348796D01*
X134251227Y-107345196D01*
X134227429Y-107339235D01*
X134204329Y-107330970D01*
X134182151Y-107320480D01*
X134161107Y-107307867D01*
X134141402Y-107293253D01*
X134123223Y-107276777D01*
X134106747Y-107258598D01*
X134092133Y-107238893D01*
X134079520Y-107217849D01*
X134069030Y-107195671D01*
X134060765Y-107172571D01*
X134054804Y-107148773D01*
X134051204Y-107124504D01*
X134050000Y-107100000D01*
X134050000Y-105600000D01*
X134051204Y-105575496D01*
X134054804Y-105551227D01*
X134060765Y-105527429D01*
X134069030Y-105504329D01*
X134079520Y-105482151D01*
X134092133Y-105461107D01*
X134106747Y-105441402D01*
X134123223Y-105423223D01*
X134141402Y-105406747D01*
X134161107Y-105392133D01*
X134182151Y-105379520D01*
X134204329Y-105369030D01*
X134227429Y-105360765D01*
X134251227Y-105354804D01*
X134275496Y-105351204D01*
X134300000Y-105350000D01*
X134800000Y-105350000D01*
X134824504Y-105351204D01*
X134824504Y-105351204D01*
G37*
D16*
X134550000Y-106350000D03*
D14*
X127650000Y-120000000D03*
D15*
X124723185Y-117073185D03*
X131775000Y-120000000D03*
X124723185Y-122926815D03*
X130576815Y-122926815D03*
X130576815Y-117073185D03*
X123525000Y-120000000D03*
X127650000Y-115875000D03*
X127650000Y-124125000D03*
X130576815Y-102626815D03*
X131775000Y-99700000D03*
X130576815Y-96773185D03*
X127650000Y-95575000D03*
X124723185Y-96773185D03*
X123525000Y-99700000D03*
X124723185Y-102626815D03*
X127650000Y-103825000D03*
D14*
X127650000Y-99700000D03*
D10*
G36*
X248124504Y-105351204D02*
X248148773Y-105354804D01*
X248172571Y-105360765D01*
X248195671Y-105369030D01*
X248217849Y-105379520D01*
X248238893Y-105392133D01*
X248258598Y-105406747D01*
X248276777Y-105423223D01*
X248293253Y-105441402D01*
X248307867Y-105461107D01*
X248320480Y-105482151D01*
X248330970Y-105504329D01*
X248339235Y-105527429D01*
X248345196Y-105551227D01*
X248348796Y-105575496D01*
X248350000Y-105600000D01*
X248350000Y-107100000D01*
X248348796Y-107124504D01*
X248345196Y-107148773D01*
X248339235Y-107172571D01*
X248330970Y-107195671D01*
X248320480Y-107217849D01*
X248307867Y-107238893D01*
X248293253Y-107258598D01*
X248276777Y-107276777D01*
X248258598Y-107293253D01*
X248238893Y-107307867D01*
X248217849Y-107320480D01*
X248195671Y-107330970D01*
X248172571Y-107339235D01*
X248148773Y-107345196D01*
X248124504Y-107348796D01*
X248100000Y-107350000D01*
X247600000Y-107350000D01*
X247575496Y-107348796D01*
X247551227Y-107345196D01*
X247527429Y-107339235D01*
X247504329Y-107330970D01*
X247482151Y-107320480D01*
X247461107Y-107307867D01*
X247441402Y-107293253D01*
X247423223Y-107276777D01*
X247406747Y-107258598D01*
X247392133Y-107238893D01*
X247379520Y-107217849D01*
X247369030Y-107195671D01*
X247360765Y-107172571D01*
X247354804Y-107148773D01*
X247351204Y-107124504D01*
X247350000Y-107100000D01*
X247350000Y-105600000D01*
X247351204Y-105575496D01*
X247354804Y-105551227D01*
X247360765Y-105527429D01*
X247369030Y-105504329D01*
X247379520Y-105482151D01*
X247392133Y-105461107D01*
X247406747Y-105441402D01*
X247423223Y-105423223D01*
X247441402Y-105406747D01*
X247461107Y-105392133D01*
X247482151Y-105379520D01*
X247504329Y-105369030D01*
X247527429Y-105360765D01*
X247551227Y-105354804D01*
X247575496Y-105351204D01*
X247600000Y-105350000D01*
X248100000Y-105350000D01*
X248124504Y-105351204D01*
X248124504Y-105351204D01*
G37*
D16*
X247850000Y-106350000D03*
D10*
G36*
X234324504Y-112351204D02*
X234348773Y-112354804D01*
X234372571Y-112360765D01*
X234395671Y-112369030D01*
X234417849Y-112379520D01*
X234438893Y-112392133D01*
X234458598Y-112406747D01*
X234476777Y-112423223D01*
X234493253Y-112441402D01*
X234507867Y-112461107D01*
X234520480Y-112482151D01*
X234530970Y-112504329D01*
X234539235Y-112527429D01*
X234545196Y-112551227D01*
X234548796Y-112575496D01*
X234550000Y-112600000D01*
X234550000Y-114100000D01*
X234548796Y-114124504D01*
X234545196Y-114148773D01*
X234539235Y-114172571D01*
X234530970Y-114195671D01*
X234520480Y-114217849D01*
X234507867Y-114238893D01*
X234493253Y-114258598D01*
X234476777Y-114276777D01*
X234458598Y-114293253D01*
X234438893Y-114307867D01*
X234417849Y-114320480D01*
X234395671Y-114330970D01*
X234372571Y-114339235D01*
X234348773Y-114345196D01*
X234324504Y-114348796D01*
X234300000Y-114350000D01*
X233800000Y-114350000D01*
X233775496Y-114348796D01*
X233751227Y-114345196D01*
X233727429Y-114339235D01*
X233704329Y-114330970D01*
X233682151Y-114320480D01*
X233661107Y-114307867D01*
X233641402Y-114293253D01*
X233623223Y-114276777D01*
X233606747Y-114258598D01*
X233592133Y-114238893D01*
X233579520Y-114217849D01*
X233569030Y-114195671D01*
X233560765Y-114172571D01*
X233554804Y-114148773D01*
X233551204Y-114124504D01*
X233550000Y-114100000D01*
X233550000Y-112600000D01*
X233551204Y-112575496D01*
X233554804Y-112551227D01*
X233560765Y-112527429D01*
X233569030Y-112504329D01*
X233579520Y-112482151D01*
X233592133Y-112461107D01*
X233606747Y-112441402D01*
X233623223Y-112423223D01*
X233641402Y-112406747D01*
X233661107Y-112392133D01*
X233682151Y-112379520D01*
X233704329Y-112369030D01*
X233727429Y-112360765D01*
X233751227Y-112354804D01*
X233775496Y-112351204D01*
X233800000Y-112350000D01*
X234300000Y-112350000D01*
X234324504Y-112351204D01*
X234324504Y-112351204D01*
G37*
D16*
X234050000Y-113350000D03*
D14*
X240950000Y-99700000D03*
D15*
X243876815Y-102626815D03*
X236825000Y-99700000D03*
X243876815Y-96773185D03*
X238023185Y-96773185D03*
X238023185Y-102626815D03*
X245075000Y-99700000D03*
X240950000Y-103825000D03*
X240950000Y-95575000D03*
X238023185Y-117073185D03*
X236825000Y-120000000D03*
X238023185Y-122926815D03*
X240950000Y-124125000D03*
X243876815Y-122926815D03*
X245075000Y-120000000D03*
X243876815Y-117073185D03*
X240950000Y-115875000D03*
D14*
X240950000Y-120000000D03*
D10*
G36*
X203724504Y-125651204D02*
X203748773Y-125654804D01*
X203772571Y-125660765D01*
X203795671Y-125669030D01*
X203817849Y-125679520D01*
X203838893Y-125692133D01*
X203858598Y-125706747D01*
X203876777Y-125723223D01*
X203893253Y-125741402D01*
X203907867Y-125761107D01*
X203920480Y-125782151D01*
X203930970Y-125804329D01*
X203939235Y-125827429D01*
X203945196Y-125851227D01*
X203948796Y-125875496D01*
X203950000Y-125900000D01*
X203950000Y-127400000D01*
X203948796Y-127424504D01*
X203945196Y-127448773D01*
X203939235Y-127472571D01*
X203930970Y-127495671D01*
X203920480Y-127517849D01*
X203907867Y-127538893D01*
X203893253Y-127558598D01*
X203876777Y-127576777D01*
X203858598Y-127593253D01*
X203838893Y-127607867D01*
X203817849Y-127620480D01*
X203795671Y-127630970D01*
X203772571Y-127639235D01*
X203748773Y-127645196D01*
X203724504Y-127648796D01*
X203700000Y-127650000D01*
X203200000Y-127650000D01*
X203175496Y-127648796D01*
X203151227Y-127645196D01*
X203127429Y-127639235D01*
X203104329Y-127630970D01*
X203082151Y-127620480D01*
X203061107Y-127607867D01*
X203041402Y-127593253D01*
X203023223Y-127576777D01*
X203006747Y-127558598D01*
X202992133Y-127538893D01*
X202979520Y-127517849D01*
X202969030Y-127495671D01*
X202960765Y-127472571D01*
X202954804Y-127448773D01*
X202951204Y-127424504D01*
X202950000Y-127400000D01*
X202950000Y-125900000D01*
X202951204Y-125875496D01*
X202954804Y-125851227D01*
X202960765Y-125827429D01*
X202969030Y-125804329D01*
X202979520Y-125782151D01*
X202992133Y-125761107D01*
X203006747Y-125741402D01*
X203023223Y-125723223D01*
X203041402Y-125706747D01*
X203061107Y-125692133D01*
X203082151Y-125679520D01*
X203104329Y-125669030D01*
X203127429Y-125660765D01*
X203151227Y-125654804D01*
X203175496Y-125651204D01*
X203200000Y-125650000D01*
X203700000Y-125650000D01*
X203724504Y-125651204D01*
X203724504Y-125651204D01*
G37*
D16*
X203450000Y-126650000D03*
D10*
G36*
X189924504Y-132651204D02*
X189948773Y-132654804D01*
X189972571Y-132660765D01*
X189995671Y-132669030D01*
X190017849Y-132679520D01*
X190038893Y-132692133D01*
X190058598Y-132706747D01*
X190076777Y-132723223D01*
X190093253Y-132741402D01*
X190107867Y-132761107D01*
X190120480Y-132782151D01*
X190130970Y-132804329D01*
X190139235Y-132827429D01*
X190145196Y-132851227D01*
X190148796Y-132875496D01*
X190150000Y-132900000D01*
X190150000Y-134400000D01*
X190148796Y-134424504D01*
X190145196Y-134448773D01*
X190139235Y-134472571D01*
X190130970Y-134495671D01*
X190120480Y-134517849D01*
X190107867Y-134538893D01*
X190093253Y-134558598D01*
X190076777Y-134576777D01*
X190058598Y-134593253D01*
X190038893Y-134607867D01*
X190017849Y-134620480D01*
X189995671Y-134630970D01*
X189972571Y-134639235D01*
X189948773Y-134645196D01*
X189924504Y-134648796D01*
X189900000Y-134650000D01*
X189400000Y-134650000D01*
X189375496Y-134648796D01*
X189351227Y-134645196D01*
X189327429Y-134639235D01*
X189304329Y-134630970D01*
X189282151Y-134620480D01*
X189261107Y-134607867D01*
X189241402Y-134593253D01*
X189223223Y-134576777D01*
X189206747Y-134558598D01*
X189192133Y-134538893D01*
X189179520Y-134517849D01*
X189169030Y-134495671D01*
X189160765Y-134472571D01*
X189154804Y-134448773D01*
X189151204Y-134424504D01*
X189150000Y-134400000D01*
X189150000Y-132900000D01*
X189151204Y-132875496D01*
X189154804Y-132851227D01*
X189160765Y-132827429D01*
X189169030Y-132804329D01*
X189179520Y-132782151D01*
X189192133Y-132761107D01*
X189206747Y-132741402D01*
X189223223Y-132723223D01*
X189241402Y-132706747D01*
X189261107Y-132692133D01*
X189282151Y-132679520D01*
X189304329Y-132669030D01*
X189327429Y-132660765D01*
X189351227Y-132654804D01*
X189375496Y-132651204D01*
X189400000Y-132650000D01*
X189900000Y-132650000D01*
X189924504Y-132651204D01*
X189924504Y-132651204D01*
G37*
D16*
X189650000Y-133650000D03*
D14*
X196550000Y-120000000D03*
D15*
X199476815Y-122926815D03*
X192425000Y-120000000D03*
X199476815Y-117073185D03*
X193623185Y-117073185D03*
X193623185Y-122926815D03*
X200675000Y-120000000D03*
X196550000Y-124125000D03*
X196550000Y-115875000D03*
X193623185Y-137373185D03*
X192425000Y-140300000D03*
X193623185Y-143226815D03*
X196550000Y-144425000D03*
X199476815Y-143226815D03*
X200675000Y-140300000D03*
X199476815Y-137373185D03*
X196550000Y-136175000D03*
D14*
X196550000Y-140300000D03*
X58750000Y-99700000D03*
D15*
X58750000Y-95575000D03*
X61676815Y-96773185D03*
X62875000Y-99700000D03*
X61676815Y-102626815D03*
X58750000Y-103825000D03*
X55823185Y-102626815D03*
X54625000Y-99700000D03*
X55823185Y-96773185D03*
D10*
G36*
X52874504Y-92301204D02*
X52898773Y-92304804D01*
X52922571Y-92310765D01*
X52945671Y-92319030D01*
X52967849Y-92329520D01*
X52988893Y-92342133D01*
X53008598Y-92356747D01*
X53026777Y-92373223D01*
X53043253Y-92391402D01*
X53057867Y-92411107D01*
X53070480Y-92432151D01*
X53080970Y-92454329D01*
X53089235Y-92477429D01*
X53095196Y-92501227D01*
X53098796Y-92525496D01*
X53100000Y-92550000D01*
X53100000Y-93050000D01*
X53098796Y-93074504D01*
X53095196Y-93098773D01*
X53089235Y-93122571D01*
X53080970Y-93145671D01*
X53070480Y-93167849D01*
X53057867Y-93188893D01*
X53043253Y-93208598D01*
X53026777Y-93226777D01*
X53008598Y-93243253D01*
X52988893Y-93257867D01*
X52967849Y-93270480D01*
X52945671Y-93280970D01*
X52922571Y-93289235D01*
X52898773Y-93295196D01*
X52874504Y-93298796D01*
X52850000Y-93300000D01*
X51350000Y-93300000D01*
X51325496Y-93298796D01*
X51301227Y-93295196D01*
X51277429Y-93289235D01*
X51254329Y-93280970D01*
X51232151Y-93270480D01*
X51211107Y-93257867D01*
X51191402Y-93243253D01*
X51173223Y-93226777D01*
X51156747Y-93208598D01*
X51142133Y-93188893D01*
X51129520Y-93167849D01*
X51119030Y-93145671D01*
X51110765Y-93122571D01*
X51104804Y-93098773D01*
X51101204Y-93074504D01*
X51100000Y-93050000D01*
X51100000Y-92550000D01*
X51101204Y-92525496D01*
X51104804Y-92501227D01*
X51110765Y-92477429D01*
X51119030Y-92454329D01*
X51129520Y-92432151D01*
X51142133Y-92411107D01*
X51156747Y-92391402D01*
X51173223Y-92373223D01*
X51191402Y-92356747D01*
X51211107Y-92342133D01*
X51232151Y-92329520D01*
X51254329Y-92319030D01*
X51277429Y-92310765D01*
X51301227Y-92304804D01*
X51325496Y-92301204D01*
X51350000Y-92300000D01*
X52850000Y-92300000D01*
X52874504Y-92301204D01*
X52874504Y-92301204D01*
G37*
D16*
X52100000Y-92800000D03*
D10*
G36*
X52874504Y-106101204D02*
X52898773Y-106104804D01*
X52922571Y-106110765D01*
X52945671Y-106119030D01*
X52967849Y-106129520D01*
X52988893Y-106142133D01*
X53008598Y-106156747D01*
X53026777Y-106173223D01*
X53043253Y-106191402D01*
X53057867Y-106211107D01*
X53070480Y-106232151D01*
X53080970Y-106254329D01*
X53089235Y-106277429D01*
X53095196Y-106301227D01*
X53098796Y-106325496D01*
X53100000Y-106350000D01*
X53100000Y-106850000D01*
X53098796Y-106874504D01*
X53095196Y-106898773D01*
X53089235Y-106922571D01*
X53080970Y-106945671D01*
X53070480Y-106967849D01*
X53057867Y-106988893D01*
X53043253Y-107008598D01*
X53026777Y-107026777D01*
X53008598Y-107043253D01*
X52988893Y-107057867D01*
X52967849Y-107070480D01*
X52945671Y-107080970D01*
X52922571Y-107089235D01*
X52898773Y-107095196D01*
X52874504Y-107098796D01*
X52850000Y-107100000D01*
X51350000Y-107100000D01*
X51325496Y-107098796D01*
X51301227Y-107095196D01*
X51277429Y-107089235D01*
X51254329Y-107080970D01*
X51232151Y-107070480D01*
X51211107Y-107057867D01*
X51191402Y-107043253D01*
X51173223Y-107026777D01*
X51156747Y-107008598D01*
X51142133Y-106988893D01*
X51129520Y-106967849D01*
X51119030Y-106945671D01*
X51110765Y-106922571D01*
X51104804Y-106898773D01*
X51101204Y-106874504D01*
X51100000Y-106850000D01*
X51100000Y-106350000D01*
X51101204Y-106325496D01*
X51104804Y-106301227D01*
X51110765Y-106277429D01*
X51119030Y-106254329D01*
X51129520Y-106232151D01*
X51142133Y-106211107D01*
X51156747Y-106191402D01*
X51173223Y-106173223D01*
X51191402Y-106156747D01*
X51211107Y-106142133D01*
X51232151Y-106129520D01*
X51254329Y-106119030D01*
X51277429Y-106110765D01*
X51301227Y-106104804D01*
X51325496Y-106101204D01*
X51350000Y-106100000D01*
X52850000Y-106100000D01*
X52874504Y-106101204D01*
X52874504Y-106101204D01*
G37*
D16*
X52100000Y-106600000D03*
D17*
X80950000Y-100970000D03*
D18*
X80950000Y-98430000D03*
X80950000Y-121270000D03*
D17*
X80950000Y-118730000D03*
X80950000Y-141570000D03*
D18*
X80950000Y-139030000D03*
D17*
X149850000Y-141570000D03*
D18*
X149850000Y-139030000D03*
D17*
X149850000Y-118730000D03*
D18*
X149850000Y-121270000D03*
D17*
X149850000Y-100970000D03*
D18*
X149850000Y-98430000D03*
D17*
X218750000Y-100970000D03*
D18*
X218750000Y-98430000D03*
D17*
X218750000Y-118730000D03*
D18*
X218750000Y-121270000D03*
X218750000Y-139030000D03*
D17*
X218750000Y-141570000D03*
D19*
X147850000Y-104100000D03*
X156850000Y-105350000D03*
X167850000Y-107100000D03*
X158850000Y-107600000D03*
X148350000Y-108100000D03*
X140762500Y-94730000D03*
X145762500Y-94730000D03*
X150762500Y-94730000D03*
X151850000Y-110350000D03*
X151350000Y-105350000D03*
X158850000Y-113850000D03*
X161850000Y-106850000D03*
X93450000Y-105000000D03*
X157350000Y-95850000D03*
D20*
X68885000Y-99700000D03*
X93375571Y-119963103D03*
X68250000Y-140300000D03*
X137150000Y-140300000D03*
X162550000Y-120020000D03*
X137327510Y-99700000D03*
X206499372Y-100250910D03*
X231450000Y-120000000D03*
X206050000Y-140300000D03*
X231450000Y-130150000D03*
D19*
X89350000Y-127900000D03*
X83350000Y-127650000D03*
X88850000Y-128900000D03*
X82850000Y-128650000D03*
X167350000Y-108850000D03*
X149350000Y-113350000D03*
X144850000Y-115100000D03*
X166350000Y-109600000D03*
X144850000Y-113600000D03*
X168350000Y-108100000D03*
X147850000Y-114850000D03*
X166350000Y-110850000D03*
X168350000Y-106100000D03*
X154850000Y-108350000D03*
X162850000Y-105350000D03*
X154850000Y-107350000D03*
X163850000Y-104600000D03*
X155350000Y-106350000D03*
X151350000Y-107600000D03*
X140850000Y-106350000D03*
X151350000Y-106600000D03*
X141850000Y-106350000D03*
D21*
X155600000Y-104100000D02*
X147850000Y-104100000D01*
X156850000Y-105350000D02*
X155600000Y-104100000D01*
X167350000Y-107600000D02*
X167850000Y-107100000D01*
X158850000Y-107600000D02*
X167350000Y-107600000D01*
D22*
X58750000Y-99700000D02*
X68885000Y-99700000D01*
X93412468Y-120000000D02*
X93375571Y-119963103D01*
X103150000Y-120000000D02*
X93412468Y-120000000D01*
X68250000Y-140300000D02*
X58750000Y-140300000D01*
X127650000Y-140300000D02*
X137150000Y-140300000D01*
X172050000Y-120000000D02*
X162570000Y-120000000D01*
X162570000Y-120000000D02*
X162550000Y-120020000D01*
X127650000Y-99700000D02*
X137327510Y-99700000D01*
X196550000Y-99700000D02*
X205948462Y-99700000D01*
X205948462Y-99700000D02*
X206499372Y-100250910D01*
X240950000Y-120000000D02*
X231450000Y-120000000D01*
X196550000Y-140300000D02*
X206050000Y-140300000D01*
X240950000Y-132521826D02*
X240950000Y-140300000D01*
X238578174Y-130150000D02*
X240950000Y-132521826D01*
X231450000Y-130150000D02*
X238578174Y-130150000D01*
D21*
X89100000Y-127650000D02*
X89350000Y-127900000D01*
X83350000Y-127650000D02*
X89100000Y-127650000D01*
X88600000Y-128650000D02*
X88850000Y-128900000D01*
X82850000Y-128650000D02*
X88600000Y-128650000D01*
X167100000Y-108600000D02*
X167350000Y-108850000D01*
X160100000Y-108600000D02*
X167100000Y-108600000D01*
X155600000Y-113100000D02*
X160100000Y-108600000D01*
X149350000Y-113350000D02*
X149600000Y-113100000D01*
X149600000Y-113100000D02*
X155600000Y-113100000D01*
X146350000Y-115100000D02*
X144850000Y-115100000D01*
X147350000Y-114100000D02*
X146350000Y-115100000D01*
X166350000Y-109600000D02*
X165850000Y-109100000D01*
X165850000Y-109100000D02*
X160350000Y-109100000D01*
X150350000Y-113600000D02*
X149850000Y-114100000D01*
X155850000Y-113600000D02*
X150350000Y-113600000D01*
X149850000Y-114100000D02*
X147350000Y-114100000D01*
X160350000Y-109100000D02*
X155850000Y-113600000D01*
X146100000Y-113600000D02*
X144850000Y-113600000D01*
X147850000Y-113600000D02*
X146100000Y-113600000D01*
X148850000Y-112600000D02*
X147850000Y-113600000D01*
X155350000Y-112600000D02*
X148850000Y-112600000D01*
X168350000Y-108100000D02*
X159850000Y-108100000D01*
X159850000Y-108100000D02*
X155350000Y-112600000D01*
X166350000Y-110850000D02*
X165100000Y-109600000D01*
X165100000Y-109600000D02*
X160600000Y-109600000D01*
X150600000Y-114100000D02*
X149850000Y-114850000D01*
X156100000Y-114100000D02*
X150600000Y-114100000D01*
X149850000Y-114850000D02*
X147850000Y-114850000D01*
X160600000Y-109600000D02*
X156100000Y-114100000D01*
D22*
X73200000Y-108350000D02*
X73450000Y-108350000D01*
X73450000Y-128650000D02*
X73450000Y-127400000D01*
X72585000Y-126535000D02*
X72585000Y-113080000D01*
X73450000Y-127400000D02*
X72585000Y-126535000D01*
X72585000Y-113080000D02*
X71720000Y-112215000D01*
X71720000Y-112215000D02*
X71720000Y-109830000D01*
X71720000Y-109830000D02*
X73200000Y-108350000D01*
X73450000Y-112600000D02*
X74315000Y-113465000D01*
X73450000Y-111350000D02*
X73450000Y-112600000D01*
X74315000Y-113465000D02*
X74315000Y-126920000D01*
X74315000Y-126920000D02*
X75180000Y-127785000D01*
X73700000Y-131650000D02*
X73450000Y-131650000D01*
X75180000Y-130170000D02*
X73700000Y-131650000D01*
X75180000Y-127785000D02*
X75180000Y-130170000D01*
D21*
X158850000Y-106100000D02*
X168350000Y-106100000D01*
X154850000Y-108350000D02*
X156600000Y-108350000D01*
X156600000Y-108350000D02*
X158850000Y-106100000D01*
X158850000Y-105350000D02*
X162850000Y-105350000D01*
X154850000Y-107350000D02*
X156850000Y-107350000D01*
X156850000Y-107350000D02*
X158850000Y-105350000D01*
X159850000Y-104600000D02*
X163850000Y-104600000D01*
X158850000Y-104600000D02*
X159850000Y-104600000D01*
X155350000Y-106350000D02*
X157100000Y-106350000D01*
X157100000Y-106350000D02*
X158850000Y-104600000D01*
X150850000Y-107600000D02*
X151350000Y-107600000D01*
X150350000Y-107100000D02*
X150850000Y-107600000D01*
X141350000Y-107100000D02*
X150350000Y-107100000D01*
X140850000Y-106350000D02*
X140850000Y-106600000D01*
X140850000Y-106600000D02*
X141350000Y-107100000D01*
X141850000Y-106350000D02*
X142100000Y-106600000D01*
X142100000Y-106600000D02*
X146850000Y-106600000D01*
X146850000Y-106600000D02*
X151350000Y-106600000D01*
G36*
X233325000Y-112194565D02*
X233215788Y-112358012D01*
X233167654Y-112600000D01*
X233167654Y-114100000D01*
X233215788Y-114341988D01*
X233325000Y-114505435D01*
X233325000Y-119375000D01*
X232462927Y-119375000D01*
X232446117Y-119334416D01*
X232115584Y-119003883D01*
X231683722Y-118825000D01*
X231216278Y-118825000D01*
X230784416Y-119003883D01*
X230453883Y-119334416D01*
X230275000Y-119766278D01*
X230275000Y-120233722D01*
X230453883Y-120665584D01*
X230784416Y-120996117D01*
X231216278Y-121175000D01*
X231683722Y-121175000D01*
X232115584Y-120996117D01*
X232446117Y-120665584D01*
X232462927Y-120625000D01*
X233325000Y-120625000D01*
X233325000Y-129525000D01*
X232462927Y-129525000D01*
X232446117Y-129484416D01*
X232115584Y-129153883D01*
X231683722Y-128975000D01*
X231216278Y-128975000D01*
X230784416Y-129153883D01*
X230453883Y-129484416D01*
X230275000Y-129916278D01*
X230275000Y-130175000D01*
X223450000Y-130175000D01*
X223402165Y-130184515D01*
X223361612Y-130211612D01*
X223334515Y-130252165D01*
X223325000Y-130300000D01*
X223325000Y-149550000D01*
X66375000Y-149550000D01*
X66375000Y-141570000D01*
X79701001Y-141570000D01*
X79796075Y-142047971D01*
X80066824Y-142453176D01*
X80472029Y-142723925D01*
X80829348Y-142795000D01*
X81070652Y-142795000D01*
X81427971Y-142723925D01*
X81833176Y-142453176D01*
X82103925Y-142047971D01*
X82198999Y-141570000D01*
X82103925Y-141092029D01*
X81833176Y-140686824D01*
X81427971Y-140416075D01*
X81070652Y-140345000D01*
X80829348Y-140345000D01*
X80472029Y-140416075D01*
X80066824Y-140686824D01*
X79796075Y-141092029D01*
X79701001Y-141570000D01*
X66375000Y-141570000D01*
X66375000Y-140925000D01*
X67237073Y-140925000D01*
X67253883Y-140965584D01*
X67584416Y-141296117D01*
X68016278Y-141475000D01*
X68483722Y-141475000D01*
X68915584Y-141296117D01*
X69246117Y-140965584D01*
X69425000Y-140533722D01*
X69425000Y-140066278D01*
X69246117Y-139634416D01*
X68915584Y-139303883D01*
X68483722Y-139125000D01*
X68016278Y-139125000D01*
X67584416Y-139303883D01*
X67253883Y-139634416D01*
X67237073Y-139675000D01*
X66375000Y-139675000D01*
X66375000Y-138180000D01*
X79717654Y-138180000D01*
X79717654Y-139880000D01*
X79746758Y-140026317D01*
X79829641Y-140150359D01*
X79953683Y-140233242D01*
X80100000Y-140262346D01*
X81800000Y-140262346D01*
X81946317Y-140233242D01*
X82070359Y-140150359D01*
X82153242Y-140026317D01*
X82182346Y-139880000D01*
X82182346Y-138180000D01*
X82153242Y-138033683D01*
X82070359Y-137909641D01*
X81946317Y-137826758D01*
X81811795Y-137800000D01*
X95275000Y-137800000D01*
X95275000Y-142800000D01*
X95284515Y-142847835D01*
X95311612Y-142888388D01*
X100311612Y-147888388D01*
X100352165Y-147915485D01*
X100400000Y-147925000D01*
X117744565Y-147925000D01*
X117908012Y-148034212D01*
X118150000Y-148082346D01*
X119650000Y-148082346D01*
X119891988Y-148034212D01*
X120055435Y-147925000D01*
X130400000Y-147925000D01*
X130447835Y-147915485D01*
X130488388Y-147888388D01*
X135488388Y-142888388D01*
X135515485Y-142847835D01*
X135525000Y-142800000D01*
X135525000Y-141570000D01*
X148601001Y-141570000D01*
X148696075Y-142047971D01*
X148966824Y-142453176D01*
X149372029Y-142723925D01*
X149729348Y-142795000D01*
X149970652Y-142795000D01*
X150327971Y-142723925D01*
X150733176Y-142453176D01*
X151003925Y-142047971D01*
X151098999Y-141570000D01*
X151003925Y-141092029D01*
X150733176Y-140686824D01*
X150327971Y-140416075D01*
X149970652Y-140345000D01*
X149729348Y-140345000D01*
X149372029Y-140416075D01*
X148966824Y-140686824D01*
X148696075Y-141092029D01*
X148601001Y-141570000D01*
X135525000Y-141570000D01*
X135525000Y-140925000D01*
X136137073Y-140925000D01*
X136153883Y-140965584D01*
X136484416Y-141296117D01*
X136916278Y-141475000D01*
X137383722Y-141475000D01*
X137815584Y-141296117D01*
X138146117Y-140965584D01*
X138325000Y-140533722D01*
X138325000Y-140066278D01*
X138146117Y-139634416D01*
X137815584Y-139303883D01*
X137383722Y-139125000D01*
X136916278Y-139125000D01*
X136484416Y-139303883D01*
X136153883Y-139634416D01*
X136137073Y-139675000D01*
X135525000Y-139675000D01*
X135525000Y-138180000D01*
X148617654Y-138180000D01*
X148617654Y-139880000D01*
X148646758Y-140026317D01*
X148729641Y-140150359D01*
X148853683Y-140233242D01*
X149000000Y-140262346D01*
X150700000Y-140262346D01*
X150846317Y-140233242D01*
X150970359Y-140150359D01*
X151053242Y-140026317D01*
X151082346Y-139880000D01*
X151082346Y-138180000D01*
X151053242Y-138033683D01*
X150970359Y-137909641D01*
X150846317Y-137826758D01*
X150700000Y-137797654D01*
X149000000Y-137797654D01*
X148853683Y-137826758D01*
X148729641Y-137909641D01*
X148646758Y-138033683D01*
X148617654Y-138180000D01*
X135525000Y-138180000D01*
X135525000Y-137800000D01*
X135515485Y-137752165D01*
X135488388Y-137711612D01*
X130488388Y-132711612D01*
X130447835Y-132684515D01*
X130400000Y-132675000D01*
X113055435Y-132675000D01*
X112891988Y-132565788D01*
X112650000Y-132517654D01*
X111150000Y-132517654D01*
X110908012Y-132565788D01*
X110744565Y-132675000D01*
X100400000Y-132675000D01*
X100352165Y-132684515D01*
X100311612Y-132711612D01*
X95311612Y-137711612D01*
X95284515Y-137752165D01*
X95275000Y-137800000D01*
X81811795Y-137800000D01*
X81800000Y-137797654D01*
X80100000Y-137797654D01*
X79953683Y-137826758D01*
X79829641Y-137909641D01*
X79746758Y-138033683D01*
X79717654Y-138180000D01*
X66375000Y-138180000D01*
X66375000Y-134456061D01*
X70515000Y-134456061D01*
X70515000Y-134843939D01*
X70663435Y-135202293D01*
X70937707Y-135476565D01*
X71296061Y-135625000D01*
X71683939Y-135625000D01*
X72042293Y-135476565D01*
X72316565Y-135202293D01*
X72465000Y-134843939D01*
X72465000Y-134456061D01*
X72316565Y-134097707D01*
X72042293Y-133823435D01*
X71683939Y-133675000D01*
X71296061Y-133675000D01*
X70937707Y-133823435D01*
X70663435Y-134097707D01*
X70515000Y-134456061D01*
X66375000Y-134456061D01*
X66375000Y-127805435D01*
X66484212Y-127641988D01*
X66532346Y-127400000D01*
X66532346Y-125900000D01*
X66484212Y-125658012D01*
X66375000Y-125494565D01*
X66375000Y-114156061D01*
X70515000Y-114156061D01*
X70515000Y-114543939D01*
X70663435Y-114902293D01*
X70937707Y-115176565D01*
X71296061Y-115325000D01*
X71683939Y-115325000D01*
X71960001Y-115210652D01*
X71960000Y-124789348D01*
X71683939Y-124675000D01*
X71296061Y-124675000D01*
X70937707Y-124823435D01*
X70663435Y-125097707D01*
X70515000Y-125456061D01*
X70515000Y-125843939D01*
X70663435Y-126202293D01*
X70937707Y-126476565D01*
X71296061Y-126625000D01*
X71683939Y-126625000D01*
X71951935Y-126513993D01*
X71947756Y-126535000D01*
X71960000Y-126596554D01*
X71996263Y-126778862D01*
X72134400Y-126985600D01*
X72186590Y-127020472D01*
X72758256Y-127592138D01*
X72388920Y-127838920D01*
X72140273Y-128211047D01*
X72052960Y-128650000D01*
X72140273Y-129088953D01*
X72388920Y-129461080D01*
X72761047Y-129709727D01*
X73089197Y-129775000D01*
X73810803Y-129775000D01*
X74138953Y-129709727D01*
X74511080Y-129461080D01*
X74555001Y-129395348D01*
X74555001Y-129911116D01*
X73948464Y-130517654D01*
X72450000Y-130517654D01*
X72303683Y-130546758D01*
X72179641Y-130629641D01*
X72096758Y-130753683D01*
X72067654Y-130900000D01*
X72067654Y-132400000D01*
X72096758Y-132546317D01*
X72179641Y-132670359D01*
X72303683Y-132753242D01*
X72450000Y-132782346D01*
X74450000Y-132782346D01*
X74596317Y-132753242D01*
X74720359Y-132670359D01*
X74803242Y-132546317D01*
X74832346Y-132400000D01*
X74832346Y-131401536D01*
X75578412Y-130655471D01*
X75630600Y-130620600D01*
X75768737Y-130413863D01*
X75791386Y-130300000D01*
X75817244Y-130170001D01*
X75805000Y-130108446D01*
X75805000Y-128495843D01*
X82075000Y-128495843D01*
X82075000Y-128804157D01*
X82192987Y-129089002D01*
X82410998Y-129307013D01*
X82695843Y-129425000D01*
X83004157Y-129425000D01*
X83289002Y-129307013D01*
X83446015Y-129150000D01*
X88114700Y-129150000D01*
X88192987Y-129339002D01*
X88410998Y-129557013D01*
X88695843Y-129675000D01*
X89004157Y-129675000D01*
X89289002Y-129557013D01*
X89507013Y-129339002D01*
X89625000Y-129054157D01*
X89625000Y-128745843D01*
X89582256Y-128642650D01*
X89789002Y-128557013D01*
X90007013Y-128339002D01*
X90125000Y-128054157D01*
X90125000Y-127745843D01*
X90007013Y-127460998D01*
X89789002Y-127242987D01*
X89504157Y-127125000D01*
X89195843Y-127125000D01*
X89139950Y-127148152D01*
X89100000Y-127140205D01*
X89050759Y-127150000D01*
X83946015Y-127150000D01*
X83789002Y-126992987D01*
X83504157Y-126875000D01*
X83195843Y-126875000D01*
X82910998Y-126992987D01*
X82692987Y-127210998D01*
X82575000Y-127495843D01*
X82575000Y-127804157D01*
X82617744Y-127907350D01*
X82410998Y-127992987D01*
X82192987Y-128210998D01*
X82075000Y-128495843D01*
X75805000Y-128495843D01*
X75805000Y-127846555D01*
X75817244Y-127785000D01*
X75768737Y-127541137D01*
X75630600Y-127334400D01*
X75578413Y-127299530D01*
X74940000Y-126661118D01*
X74940000Y-120420000D01*
X79717654Y-120420000D01*
X79717654Y-122120000D01*
X79746758Y-122266317D01*
X79829641Y-122390359D01*
X79953683Y-122473242D01*
X80100000Y-122502346D01*
X81800000Y-122502346D01*
X81946317Y-122473242D01*
X82070359Y-122390359D01*
X82153242Y-122266317D01*
X82182346Y-122120000D01*
X82182346Y-120420000D01*
X82153242Y-120273683D01*
X82070359Y-120149641D01*
X81946317Y-120066758D01*
X81800000Y-120037654D01*
X80100000Y-120037654D01*
X79953683Y-120066758D01*
X79829641Y-120149641D01*
X79746758Y-120273683D01*
X79717654Y-120420000D01*
X74940000Y-120420000D01*
X74940000Y-118730000D01*
X79701001Y-118730000D01*
X79796075Y-119207971D01*
X80066824Y-119613176D01*
X80472029Y-119883925D01*
X80829348Y-119955000D01*
X81070652Y-119955000D01*
X81427971Y-119883925D01*
X81659262Y-119729381D01*
X92200571Y-119729381D01*
X92200571Y-120196825D01*
X92379454Y-120628687D01*
X92709987Y-120959220D01*
X93141849Y-121138103D01*
X93609293Y-121138103D01*
X94041155Y-120959220D01*
X94371688Y-120628687D01*
X94373215Y-120625000D01*
X95525000Y-120625000D01*
X95525000Y-122350000D01*
X95534515Y-122397835D01*
X95561612Y-122438388D01*
X100561612Y-127438388D01*
X100602165Y-127465485D01*
X100650000Y-127475000D01*
X105650000Y-127475000D01*
X105697835Y-127465485D01*
X105738388Y-127438388D01*
X110738388Y-122438388D01*
X110765485Y-122397835D01*
X110775000Y-122350000D01*
X110775000Y-112600000D01*
X119867654Y-112600000D01*
X119867654Y-114100000D01*
X119915788Y-114341988D01*
X120025000Y-114505435D01*
X120025000Y-122350000D01*
X120034515Y-122397835D01*
X120061612Y-122438388D01*
X125061612Y-127438388D01*
X125102165Y-127465485D01*
X125150000Y-127475000D01*
X130150000Y-127475000D01*
X130197835Y-127465485D01*
X130238388Y-127438388D01*
X135238388Y-122438388D01*
X135265485Y-122397835D01*
X135275000Y-122350000D01*
X135275000Y-120420000D01*
X148617654Y-120420000D01*
X148617654Y-122120000D01*
X148646758Y-122266317D01*
X148729641Y-122390359D01*
X148853683Y-122473242D01*
X149000000Y-122502346D01*
X150700000Y-122502346D01*
X150846317Y-122473242D01*
X150970359Y-122390359D01*
X151053242Y-122266317D01*
X151082346Y-122120000D01*
X151082346Y-120420000D01*
X151053242Y-120273683D01*
X150970359Y-120149641D01*
X150846317Y-120066758D01*
X150700000Y-120037654D01*
X149000000Y-120037654D01*
X148853683Y-120066758D01*
X148729641Y-120149641D01*
X148646758Y-120273683D01*
X148617654Y-120420000D01*
X135275000Y-120420000D01*
X135275000Y-118730000D01*
X148601001Y-118730000D01*
X148696075Y-119207971D01*
X148966824Y-119613176D01*
X149372029Y-119883925D01*
X149729348Y-119955000D01*
X149970652Y-119955000D01*
X150327971Y-119883925D01*
X150474110Y-119786278D01*
X161375000Y-119786278D01*
X161375000Y-120253722D01*
X161553883Y-120685584D01*
X161884416Y-121016117D01*
X162316278Y-121195000D01*
X162783722Y-121195000D01*
X163215584Y-121016117D01*
X163546117Y-120685584D01*
X163571212Y-120625000D01*
X164425000Y-120625000D01*
X164425000Y-132494565D01*
X164315788Y-132658012D01*
X164267654Y-132900000D01*
X164267654Y-134400000D01*
X164315788Y-134641988D01*
X164425000Y-134805435D01*
X164425000Y-142650000D01*
X164434515Y-142697835D01*
X164461612Y-142738388D01*
X169461612Y-147738388D01*
X169502165Y-147765485D01*
X169550000Y-147775000D01*
X174550000Y-147775000D01*
X174597835Y-147765485D01*
X174638388Y-147738388D01*
X179638388Y-142738388D01*
X179665485Y-142697835D01*
X179675000Y-142650000D01*
X179675000Y-132900000D01*
X188767654Y-132900000D01*
X188767654Y-134400000D01*
X188815788Y-134641988D01*
X188925000Y-134805435D01*
X188925000Y-142650000D01*
X188934515Y-142697835D01*
X188961612Y-142738388D01*
X193961612Y-147738388D01*
X194002165Y-147765485D01*
X194050000Y-147775000D01*
X199050000Y-147775000D01*
X199097835Y-147765485D01*
X199138388Y-147738388D01*
X204138388Y-142738388D01*
X204165485Y-142697835D01*
X204175000Y-142650000D01*
X204175000Y-141570000D01*
X217501001Y-141570000D01*
X217596075Y-142047971D01*
X217866824Y-142453176D01*
X218272029Y-142723925D01*
X218629348Y-142795000D01*
X218870652Y-142795000D01*
X219227971Y-142723925D01*
X219633176Y-142453176D01*
X219903925Y-142047971D01*
X219998999Y-141570000D01*
X219903925Y-141092029D01*
X219633176Y-140686824D01*
X219227971Y-140416075D01*
X218870652Y-140345000D01*
X218629348Y-140345000D01*
X218272029Y-140416075D01*
X217866824Y-140686824D01*
X217596075Y-141092029D01*
X217501001Y-141570000D01*
X204175000Y-141570000D01*
X204175000Y-140925000D01*
X205037073Y-140925000D01*
X205053883Y-140965584D01*
X205384416Y-141296117D01*
X205816278Y-141475000D01*
X206283722Y-141475000D01*
X206715584Y-141296117D01*
X207046117Y-140965584D01*
X207225000Y-140533722D01*
X207225000Y-140066278D01*
X207046117Y-139634416D01*
X206715584Y-139303883D01*
X206283722Y-139125000D01*
X205816278Y-139125000D01*
X205384416Y-139303883D01*
X205053883Y-139634416D01*
X205037073Y-139675000D01*
X204175000Y-139675000D01*
X204175000Y-138180000D01*
X217517654Y-138180000D01*
X217517654Y-139880000D01*
X217546758Y-140026317D01*
X217629641Y-140150359D01*
X217753683Y-140233242D01*
X217900000Y-140262346D01*
X219600000Y-140262346D01*
X219746317Y-140233242D01*
X219870359Y-140150359D01*
X219953242Y-140026317D01*
X219982346Y-139880000D01*
X219982346Y-138180000D01*
X219953242Y-138033683D01*
X219870359Y-137909641D01*
X219746317Y-137826758D01*
X219600000Y-137797654D01*
X217900000Y-137797654D01*
X217753683Y-137826758D01*
X217629641Y-137909641D01*
X217546758Y-138033683D01*
X217517654Y-138180000D01*
X204175000Y-138180000D01*
X204175000Y-127805435D01*
X204284212Y-127641988D01*
X204332346Y-127400000D01*
X204332346Y-125900000D01*
X204284212Y-125658012D01*
X204175000Y-125494565D01*
X204175000Y-120420000D01*
X217517654Y-120420000D01*
X217517654Y-122120000D01*
X217546758Y-122266317D01*
X217629641Y-122390359D01*
X217753683Y-122473242D01*
X217900000Y-122502346D01*
X219600000Y-122502346D01*
X219746317Y-122473242D01*
X219870359Y-122390359D01*
X219953242Y-122266317D01*
X219982346Y-122120000D01*
X219982346Y-120420000D01*
X219953242Y-120273683D01*
X219870359Y-120149641D01*
X219746317Y-120066758D01*
X219600000Y-120037654D01*
X217900000Y-120037654D01*
X217753683Y-120066758D01*
X217629641Y-120149641D01*
X217546758Y-120273683D01*
X217517654Y-120420000D01*
X204175000Y-120420000D01*
X204175000Y-118730000D01*
X217501001Y-118730000D01*
X217596075Y-119207971D01*
X217866824Y-119613176D01*
X218272029Y-119883925D01*
X218629348Y-119955000D01*
X218870652Y-119955000D01*
X219227971Y-119883925D01*
X219633176Y-119613176D01*
X219903925Y-119207971D01*
X219998999Y-118730000D01*
X219903925Y-118252029D01*
X219633176Y-117846824D01*
X219227971Y-117576075D01*
X218870652Y-117505000D01*
X218629348Y-117505000D01*
X218272029Y-117576075D01*
X217866824Y-117846824D01*
X217596075Y-118252029D01*
X217501001Y-118730000D01*
X204175000Y-118730000D01*
X204175000Y-117650000D01*
X204165485Y-117602165D01*
X204138388Y-117561612D01*
X199138388Y-112561612D01*
X199097835Y-112534515D01*
X199050000Y-112525000D01*
X194050000Y-112525000D01*
X194002165Y-112534515D01*
X193961612Y-112561612D01*
X188961612Y-117561612D01*
X188934515Y-117602165D01*
X188925000Y-117650000D01*
X188925000Y-132494565D01*
X188815788Y-132658012D01*
X188767654Y-132900000D01*
X179675000Y-132900000D01*
X179675000Y-127805435D01*
X179784212Y-127641988D01*
X179832346Y-127400000D01*
X179832346Y-125900000D01*
X179784212Y-125658012D01*
X179675000Y-125494565D01*
X179675000Y-117650000D01*
X179665485Y-117602165D01*
X179638388Y-117561612D01*
X174638388Y-112561612D01*
X174597835Y-112534515D01*
X174550000Y-112525000D01*
X169550000Y-112525000D01*
X169502165Y-112534515D01*
X169461612Y-112561612D01*
X164461612Y-117561612D01*
X164434515Y-117602165D01*
X164425000Y-117650000D01*
X164425000Y-119375000D01*
X163554643Y-119375000D01*
X163546117Y-119354416D01*
X163215584Y-119023883D01*
X162783722Y-118845000D01*
X162316278Y-118845000D01*
X161884416Y-119023883D01*
X161553883Y-119354416D01*
X161375000Y-119786278D01*
X150474110Y-119786278D01*
X150733176Y-119613176D01*
X151003925Y-119207971D01*
X151098999Y-118730000D01*
X151003925Y-118252029D01*
X150733176Y-117846824D01*
X150327971Y-117576075D01*
X149970652Y-117505000D01*
X149729348Y-117505000D01*
X149372029Y-117576075D01*
X148966824Y-117846824D01*
X148696075Y-118252029D01*
X148601001Y-118730000D01*
X135275000Y-118730000D01*
X135275000Y-113445843D01*
X144075000Y-113445843D01*
X144075000Y-113754157D01*
X144192987Y-114039002D01*
X144410998Y-114257013D01*
X144635488Y-114350000D01*
X144410998Y-114442987D01*
X144192987Y-114660998D01*
X144075000Y-114945843D01*
X144075000Y-115254157D01*
X144192987Y-115539002D01*
X144410998Y-115757013D01*
X144695843Y-115875000D01*
X145004157Y-115875000D01*
X145289002Y-115757013D01*
X145446015Y-115600000D01*
X146300759Y-115600000D01*
X146350000Y-115609795D01*
X146399241Y-115600000D01*
X146399243Y-115600000D01*
X146545090Y-115570989D01*
X146710480Y-115460480D01*
X146738376Y-115418730D01*
X147097831Y-115059276D01*
X147192987Y-115289002D01*
X147410998Y-115507013D01*
X147695843Y-115625000D01*
X148004157Y-115625000D01*
X148289002Y-115507013D01*
X148446015Y-115350000D01*
X149800759Y-115350000D01*
X149850000Y-115359795D01*
X149899241Y-115350000D01*
X149899243Y-115350000D01*
X150045090Y-115320989D01*
X150210480Y-115210480D01*
X150238376Y-115168730D01*
X150807107Y-114600000D01*
X156050759Y-114600000D01*
X156100000Y-114609795D01*
X156149241Y-114600000D01*
X156149243Y-114600000D01*
X156295090Y-114570989D01*
X156460480Y-114460480D01*
X156488377Y-114418729D01*
X160807107Y-110100000D01*
X164892894Y-110100000D01*
X165575000Y-110782107D01*
X165575000Y-111004157D01*
X165692987Y-111289002D01*
X165910998Y-111507013D01*
X166195843Y-111625000D01*
X166504157Y-111625000D01*
X166789002Y-111507013D01*
X167007013Y-111289002D01*
X167125000Y-111004157D01*
X167125000Y-110695843D01*
X167007013Y-110410998D01*
X166821015Y-110225000D01*
X167007013Y-110039002D01*
X167125000Y-109754157D01*
X167125000Y-109595656D01*
X167195843Y-109625000D01*
X167504157Y-109625000D01*
X167789002Y-109507013D01*
X168007013Y-109289002D01*
X168125000Y-109004157D01*
X168125000Y-108845656D01*
X168195843Y-108875000D01*
X168504157Y-108875000D01*
X168789002Y-108757013D01*
X169007013Y-108539002D01*
X169125000Y-108254157D01*
X169125000Y-107945843D01*
X169007013Y-107660998D01*
X168789002Y-107442987D01*
X168582256Y-107357350D01*
X168625000Y-107254157D01*
X168625000Y-106945843D01*
X168582256Y-106842650D01*
X168712094Y-106788870D01*
X169211612Y-107288388D01*
X169252165Y-107315485D01*
X169300000Y-107325000D01*
X186644565Y-107325000D01*
X186808012Y-107434212D01*
X187050000Y-107482346D01*
X188550000Y-107482346D01*
X188791988Y-107434212D01*
X188955435Y-107325000D01*
X199300000Y-107325000D01*
X199347835Y-107315485D01*
X199388388Y-107288388D01*
X204388388Y-102288388D01*
X204415485Y-102247835D01*
X204425000Y-102200000D01*
X204425000Y-100325000D01*
X205324372Y-100325000D01*
X205324372Y-100484632D01*
X205503255Y-100916494D01*
X205833788Y-101247027D01*
X206265650Y-101425910D01*
X206733094Y-101425910D01*
X207164956Y-101247027D01*
X207441983Y-100970000D01*
X217501001Y-100970000D01*
X217596075Y-101447971D01*
X217866824Y-101853176D01*
X218272029Y-102123925D01*
X218629348Y-102195000D01*
X218870652Y-102195000D01*
X219227971Y-102123925D01*
X219633176Y-101853176D01*
X219903925Y-101447971D01*
X219998999Y-100970000D01*
X219903925Y-100492029D01*
X219633176Y-100086824D01*
X219227971Y-99816075D01*
X218870652Y-99745000D01*
X218629348Y-99745000D01*
X218272029Y-99816075D01*
X217866824Y-100086824D01*
X217596075Y-100492029D01*
X217501001Y-100970000D01*
X207441983Y-100970000D01*
X207495489Y-100916494D01*
X207674372Y-100484632D01*
X207674372Y-100017188D01*
X207495489Y-99585326D01*
X207164956Y-99254793D01*
X206733094Y-99075910D01*
X206265650Y-99075910D01*
X206184201Y-99109647D01*
X206010017Y-99075000D01*
X205948462Y-99062756D01*
X205886907Y-99075000D01*
X204425000Y-99075000D01*
X204425000Y-97580000D01*
X217517654Y-97580000D01*
X217517654Y-99280000D01*
X217546758Y-99426317D01*
X217629641Y-99550359D01*
X217753683Y-99633242D01*
X217900000Y-99662346D01*
X219600000Y-99662346D01*
X219746317Y-99633242D01*
X219870359Y-99550359D01*
X219953242Y-99426317D01*
X219982346Y-99280000D01*
X219982346Y-97580000D01*
X219953242Y-97433683D01*
X219870359Y-97309641D01*
X219746317Y-97226758D01*
X219600000Y-97197654D01*
X217900000Y-97197654D01*
X217753683Y-97226758D01*
X217629641Y-97309641D01*
X217546758Y-97433683D01*
X217517654Y-97580000D01*
X204425000Y-97580000D01*
X204425000Y-97200000D01*
X204415485Y-97152165D01*
X204388388Y-97111612D01*
X199388388Y-92111612D01*
X199347835Y-92084515D01*
X199300000Y-92075000D01*
X181955435Y-92075000D01*
X181791988Y-91965788D01*
X181550000Y-91917654D01*
X180050000Y-91917654D01*
X179808012Y-91965788D01*
X179644565Y-92075000D01*
X169300000Y-92075000D01*
X169252165Y-92084515D01*
X169211612Y-92111612D01*
X164211612Y-97111612D01*
X164184515Y-97152165D01*
X164175000Y-97200000D01*
X164175000Y-102200000D01*
X164184515Y-102247835D01*
X164211612Y-102288388D01*
X167523224Y-105600000D01*
X163585300Y-105600000D01*
X163625000Y-105504157D01*
X163625000Y-105345656D01*
X163695843Y-105375000D01*
X164004157Y-105375000D01*
X164289002Y-105257013D01*
X164507013Y-105039002D01*
X164625000Y-104754157D01*
X164625000Y-104445843D01*
X164507013Y-104160998D01*
X164289002Y-103942987D01*
X164004157Y-103825000D01*
X163695843Y-103825000D01*
X163410998Y-103942987D01*
X163253985Y-104100000D01*
X158899243Y-104100000D01*
X158850000Y-104090205D01*
X158800757Y-104100000D01*
X158654910Y-104129011D01*
X158489520Y-104239520D01*
X158461625Y-104281268D01*
X157602169Y-105140724D01*
X157507013Y-104910998D01*
X157289002Y-104692987D01*
X157004157Y-104575000D01*
X156782107Y-104575000D01*
X155988376Y-103781270D01*
X155960480Y-103739520D01*
X155795090Y-103629011D01*
X155649243Y-103600000D01*
X155649241Y-103600000D01*
X155600000Y-103590205D01*
X155550759Y-103600000D01*
X148446015Y-103600000D01*
X148289002Y-103442987D01*
X148004157Y-103325000D01*
X147695843Y-103325000D01*
X147410998Y-103442987D01*
X147192987Y-103660998D01*
X147075000Y-103945843D01*
X147075000Y-104254157D01*
X147192987Y-104539002D01*
X147410998Y-104757013D01*
X147695843Y-104875000D01*
X148004157Y-104875000D01*
X148289002Y-104757013D01*
X148446015Y-104600000D01*
X155392894Y-104600000D01*
X156075000Y-105282107D01*
X156075000Y-105504157D01*
X156192987Y-105789002D01*
X156253985Y-105850000D01*
X155946015Y-105850000D01*
X155789002Y-105692987D01*
X155504157Y-105575000D01*
X155195843Y-105575000D01*
X154910998Y-105692987D01*
X154692987Y-105910998D01*
X154575000Y-106195843D01*
X154575000Y-106504157D01*
X154617744Y-106607350D01*
X154410998Y-106692987D01*
X154192987Y-106910998D01*
X154075000Y-107195843D01*
X154075000Y-107504157D01*
X154192987Y-107789002D01*
X154253985Y-107850000D01*
X154192987Y-107910998D01*
X154075000Y-108195843D01*
X154075000Y-108504157D01*
X154192987Y-108789002D01*
X154410998Y-109007013D01*
X154695843Y-109125000D01*
X155004157Y-109125000D01*
X155289002Y-109007013D01*
X155446015Y-108850000D01*
X156550759Y-108850000D01*
X156600000Y-108859795D01*
X156649241Y-108850000D01*
X156649243Y-108850000D01*
X156795090Y-108820989D01*
X156960480Y-108710480D01*
X156988377Y-108668729D01*
X158075000Y-107582106D01*
X158075000Y-107754157D01*
X158192987Y-108039002D01*
X158410998Y-108257013D01*
X158695843Y-108375000D01*
X158867893Y-108375000D01*
X155142894Y-112100000D01*
X148899246Y-112100000D01*
X148850000Y-112090204D01*
X148654910Y-112129011D01*
X148489520Y-112239520D01*
X148461626Y-112281267D01*
X147642894Y-113100000D01*
X145446015Y-113100000D01*
X145289002Y-112942987D01*
X145004157Y-112825000D01*
X144695843Y-112825000D01*
X144410998Y-112942987D01*
X144192987Y-113160998D01*
X144075000Y-113445843D01*
X135275000Y-113445843D01*
X135275000Y-107505435D01*
X135384212Y-107341988D01*
X135432346Y-107100000D01*
X135432346Y-106195843D01*
X140075000Y-106195843D01*
X140075000Y-106504157D01*
X140192987Y-106789002D01*
X140410998Y-107007013D01*
X140648130Y-107105237D01*
X140961625Y-107418732D01*
X140989520Y-107460480D01*
X141106915Y-107538920D01*
X141154910Y-107570989D01*
X141350000Y-107609795D01*
X141399243Y-107600000D01*
X150142894Y-107600000D01*
X150461625Y-107918732D01*
X150489520Y-107960480D01*
X150607038Y-108039002D01*
X150654910Y-108070989D01*
X150742371Y-108088386D01*
X150910998Y-108257013D01*
X151195843Y-108375000D01*
X151504157Y-108375000D01*
X151789002Y-108257013D01*
X152007013Y-108039002D01*
X152125000Y-107754157D01*
X152125000Y-107445843D01*
X152007013Y-107160998D01*
X151946015Y-107100000D01*
X152007013Y-107039002D01*
X152125000Y-106754157D01*
X152125000Y-106445843D01*
X152007013Y-106160998D01*
X151789002Y-105942987D01*
X151504157Y-105825000D01*
X151195843Y-105825000D01*
X150910998Y-105942987D01*
X150753985Y-106100000D01*
X142585300Y-106100000D01*
X142507013Y-105910998D01*
X142289002Y-105692987D01*
X142004157Y-105575000D01*
X141695843Y-105575000D01*
X141410998Y-105692987D01*
X141350000Y-105753985D01*
X141289002Y-105692987D01*
X141004157Y-105575000D01*
X140695843Y-105575000D01*
X140410998Y-105692987D01*
X140192987Y-105910998D01*
X140075000Y-106195843D01*
X135432346Y-106195843D01*
X135432346Y-105600000D01*
X135384212Y-105358012D01*
X135275000Y-105194565D01*
X135275000Y-100970000D01*
X148601001Y-100970000D01*
X148696075Y-101447971D01*
X148966824Y-101853176D01*
X149372029Y-102123925D01*
X149729348Y-102195000D01*
X149970652Y-102195000D01*
X150327971Y-102123925D01*
X150733176Y-101853176D01*
X151003925Y-101447971D01*
X151098999Y-100970000D01*
X151003925Y-100492029D01*
X150733176Y-100086824D01*
X150327971Y-99816075D01*
X149970652Y-99745000D01*
X149729348Y-99745000D01*
X149372029Y-99816075D01*
X148966824Y-100086824D01*
X148696075Y-100492029D01*
X148601001Y-100970000D01*
X135275000Y-100970000D01*
X135275000Y-100325000D01*
X136314583Y-100325000D01*
X136331393Y-100365584D01*
X136661926Y-100696117D01*
X137093788Y-100875000D01*
X137561232Y-100875000D01*
X137993094Y-100696117D01*
X138323627Y-100365584D01*
X138502510Y-99933722D01*
X138502510Y-99466278D01*
X138323627Y-99034416D01*
X137993094Y-98703883D01*
X137561232Y-98525000D01*
X137093788Y-98525000D01*
X136661926Y-98703883D01*
X136331393Y-99034416D01*
X136314583Y-99075000D01*
X135275000Y-99075000D01*
X135275000Y-97580000D01*
X148617654Y-97580000D01*
X148617654Y-99280000D01*
X148646758Y-99426317D01*
X148729641Y-99550359D01*
X148853683Y-99633242D01*
X149000000Y-99662346D01*
X150700000Y-99662346D01*
X150846317Y-99633242D01*
X150970359Y-99550359D01*
X151053242Y-99426317D01*
X151082346Y-99280000D01*
X151082346Y-97580000D01*
X151053242Y-97433683D01*
X150970359Y-97309641D01*
X150846317Y-97226758D01*
X150700000Y-97197654D01*
X149000000Y-97197654D01*
X148853683Y-97226758D01*
X148729641Y-97309641D01*
X148646758Y-97433683D01*
X148617654Y-97580000D01*
X135275000Y-97580000D01*
X135275000Y-97350000D01*
X135265485Y-97302165D01*
X135238388Y-97261612D01*
X130238388Y-92261612D01*
X130197835Y-92234515D01*
X130150000Y-92225000D01*
X125150000Y-92225000D01*
X125102165Y-92234515D01*
X125061612Y-92261612D01*
X120061612Y-97261612D01*
X120034515Y-97302165D01*
X120025000Y-97350000D01*
X120025000Y-112194565D01*
X119915788Y-112358012D01*
X119867654Y-112600000D01*
X110775000Y-112600000D01*
X110775000Y-107505435D01*
X110884212Y-107341988D01*
X110932346Y-107100000D01*
X110932346Y-105600000D01*
X110884212Y-105358012D01*
X110775000Y-105194565D01*
X110775000Y-97350000D01*
X110765485Y-97302165D01*
X110738388Y-97261612D01*
X105738388Y-92261612D01*
X105697835Y-92234515D01*
X105650000Y-92225000D01*
X100650000Y-92225000D01*
X100602165Y-92234515D01*
X100561612Y-92261612D01*
X95561612Y-97261612D01*
X95534515Y-97302165D01*
X95525000Y-97350000D01*
X95525000Y-112194565D01*
X95415788Y-112358012D01*
X95367654Y-112600000D01*
X95367654Y-114100000D01*
X95415788Y-114341988D01*
X95525000Y-114505435D01*
X95525000Y-119375000D01*
X94403782Y-119375000D01*
X94371688Y-119297519D01*
X94041155Y-118966986D01*
X93609293Y-118788103D01*
X93141849Y-118788103D01*
X92709987Y-118966986D01*
X92379454Y-119297519D01*
X92200571Y-119729381D01*
X81659262Y-119729381D01*
X81833176Y-119613176D01*
X82103925Y-119207971D01*
X82198999Y-118730000D01*
X82103925Y-118252029D01*
X81833176Y-117846824D01*
X81427971Y-117576075D01*
X81070652Y-117505000D01*
X80829348Y-117505000D01*
X80472029Y-117576075D01*
X80066824Y-117846824D01*
X79796075Y-118252029D01*
X79701001Y-118730000D01*
X74940000Y-118730000D01*
X74940000Y-113526555D01*
X74952244Y-113465000D01*
X74903737Y-113221137D01*
X74863553Y-113160998D01*
X74765600Y-113014400D01*
X74713413Y-112979530D01*
X74216228Y-112482346D01*
X74450000Y-112482346D01*
X74596317Y-112453242D01*
X74720359Y-112370359D01*
X74803242Y-112246317D01*
X74832346Y-112100000D01*
X74832346Y-110600000D01*
X74803242Y-110453683D01*
X74720359Y-110329641D01*
X74596317Y-110246758D01*
X74450000Y-110217654D01*
X72450000Y-110217654D01*
X72345000Y-110238540D01*
X72345000Y-110088882D01*
X72980503Y-109453379D01*
X73089197Y-109475000D01*
X73810803Y-109475000D01*
X74138953Y-109409727D01*
X74511080Y-109161080D01*
X74759727Y-108788953D01*
X74847040Y-108350000D01*
X74759727Y-107911047D01*
X74511080Y-107538920D01*
X74138953Y-107290273D01*
X73810803Y-107225000D01*
X73089197Y-107225000D01*
X72761047Y-107290273D01*
X72388920Y-107538920D01*
X72140273Y-107911047D01*
X72052960Y-108350000D01*
X72096621Y-108569497D01*
X71321588Y-109344530D01*
X71269401Y-109379400D01*
X71184133Y-109507013D01*
X71131263Y-109586138D01*
X71082756Y-109830000D01*
X71095001Y-109891560D01*
X71095000Y-112153445D01*
X71082756Y-112215000D01*
X71095000Y-112276554D01*
X71131263Y-112458862D01*
X71269400Y-112665600D01*
X71321590Y-112700472D01*
X71960001Y-113338884D01*
X71960001Y-113489349D01*
X71683939Y-113375000D01*
X71296061Y-113375000D01*
X70937707Y-113523435D01*
X70663435Y-113797707D01*
X70515000Y-114156061D01*
X66375000Y-114156061D01*
X66375000Y-105156061D01*
X70515000Y-105156061D01*
X70515000Y-105543939D01*
X70663435Y-105902293D01*
X70937707Y-106176565D01*
X71296061Y-106325000D01*
X71683939Y-106325000D01*
X72042293Y-106176565D01*
X72316565Y-105902293D01*
X72465000Y-105543939D01*
X72465000Y-105156061D01*
X72316565Y-104797707D01*
X72042293Y-104523435D01*
X71683939Y-104375000D01*
X71296061Y-104375000D01*
X70937707Y-104523435D01*
X70663435Y-104797707D01*
X70515000Y-105156061D01*
X66375000Y-105156061D01*
X66375000Y-100970000D01*
X79701001Y-100970000D01*
X79796075Y-101447971D01*
X80066824Y-101853176D01*
X80472029Y-102123925D01*
X80829348Y-102195000D01*
X81070652Y-102195000D01*
X81427971Y-102123925D01*
X81833176Y-101853176D01*
X82103925Y-101447971D01*
X82198999Y-100970000D01*
X82103925Y-100492029D01*
X81833176Y-100086824D01*
X81427971Y-99816075D01*
X81070652Y-99745000D01*
X80829348Y-99745000D01*
X80472029Y-99816075D01*
X80066824Y-100086824D01*
X79796075Y-100492029D01*
X79701001Y-100970000D01*
X66375000Y-100970000D01*
X66375000Y-100325000D01*
X67872073Y-100325000D01*
X67888883Y-100365584D01*
X68219416Y-100696117D01*
X68651278Y-100875000D01*
X69118722Y-100875000D01*
X69550584Y-100696117D01*
X69881117Y-100365584D01*
X70060000Y-99933722D01*
X70060000Y-99466278D01*
X69881117Y-99034416D01*
X69550584Y-98703883D01*
X69118722Y-98525000D01*
X68651278Y-98525000D01*
X68219416Y-98703883D01*
X67888883Y-99034416D01*
X67872073Y-99075000D01*
X66375000Y-99075000D01*
X66375000Y-97580000D01*
X79717654Y-97580000D01*
X79717654Y-99280000D01*
X79746758Y-99426317D01*
X79829641Y-99550359D01*
X79953683Y-99633242D01*
X80100000Y-99662346D01*
X81800000Y-99662346D01*
X81946317Y-99633242D01*
X82070359Y-99550359D01*
X82153242Y-99426317D01*
X82182346Y-99280000D01*
X82182346Y-97580000D01*
X82153242Y-97433683D01*
X82070359Y-97309641D01*
X81946317Y-97226758D01*
X81800000Y-97197654D01*
X80100000Y-97197654D01*
X79953683Y-97226758D01*
X79829641Y-97309641D01*
X79746758Y-97433683D01*
X79717654Y-97580000D01*
X66375000Y-97580000D01*
X66375000Y-90450000D01*
X233325000Y-90450000D01*
X233325000Y-112194565D01*
X233325000Y-112194565D01*
G37*
X233325000Y-112194565D02*
X233215788Y-112358012D01*
X233167654Y-112600000D01*
X233167654Y-114100000D01*
X233215788Y-114341988D01*
X233325000Y-114505435D01*
X233325000Y-119375000D01*
X232462927Y-119375000D01*
X232446117Y-119334416D01*
X232115584Y-119003883D01*
X231683722Y-118825000D01*
X231216278Y-118825000D01*
X230784416Y-119003883D01*
X230453883Y-119334416D01*
X230275000Y-119766278D01*
X230275000Y-120233722D01*
X230453883Y-120665584D01*
X230784416Y-120996117D01*
X231216278Y-121175000D01*
X231683722Y-121175000D01*
X232115584Y-120996117D01*
X232446117Y-120665584D01*
X232462927Y-120625000D01*
X233325000Y-120625000D01*
X233325000Y-129525000D01*
X232462927Y-129525000D01*
X232446117Y-129484416D01*
X232115584Y-129153883D01*
X231683722Y-128975000D01*
X231216278Y-128975000D01*
X230784416Y-129153883D01*
X230453883Y-129484416D01*
X230275000Y-129916278D01*
X230275000Y-130175000D01*
X223450000Y-130175000D01*
X223402165Y-130184515D01*
X223361612Y-130211612D01*
X223334515Y-130252165D01*
X223325000Y-130300000D01*
X223325000Y-149550000D01*
X66375000Y-149550000D01*
X66375000Y-141570000D01*
X79701001Y-141570000D01*
X79796075Y-142047971D01*
X80066824Y-142453176D01*
X80472029Y-142723925D01*
X80829348Y-142795000D01*
X81070652Y-142795000D01*
X81427971Y-142723925D01*
X81833176Y-142453176D01*
X82103925Y-142047971D01*
X82198999Y-141570000D01*
X82103925Y-141092029D01*
X81833176Y-140686824D01*
X81427971Y-140416075D01*
X81070652Y-140345000D01*
X80829348Y-140345000D01*
X80472029Y-140416075D01*
X80066824Y-140686824D01*
X79796075Y-141092029D01*
X79701001Y-141570000D01*
X66375000Y-141570000D01*
X66375000Y-140925000D01*
X67237073Y-140925000D01*
X67253883Y-140965584D01*
X67584416Y-141296117D01*
X68016278Y-141475000D01*
X68483722Y-141475000D01*
X68915584Y-141296117D01*
X69246117Y-140965584D01*
X69425000Y-140533722D01*
X69425000Y-140066278D01*
X69246117Y-139634416D01*
X68915584Y-139303883D01*
X68483722Y-139125000D01*
X68016278Y-139125000D01*
X67584416Y-139303883D01*
X67253883Y-139634416D01*
X67237073Y-139675000D01*
X66375000Y-139675000D01*
X66375000Y-138180000D01*
X79717654Y-138180000D01*
X79717654Y-139880000D01*
X79746758Y-140026317D01*
X79829641Y-140150359D01*
X79953683Y-140233242D01*
X80100000Y-140262346D01*
X81800000Y-140262346D01*
X81946317Y-140233242D01*
X82070359Y-140150359D01*
X82153242Y-140026317D01*
X82182346Y-139880000D01*
X82182346Y-138180000D01*
X82153242Y-138033683D01*
X82070359Y-137909641D01*
X81946317Y-137826758D01*
X81811795Y-137800000D01*
X95275000Y-137800000D01*
X95275000Y-142800000D01*
X95284515Y-142847835D01*
X95311612Y-142888388D01*
X100311612Y-147888388D01*
X100352165Y-147915485D01*
X100400000Y-147925000D01*
X117744565Y-147925000D01*
X117908012Y-148034212D01*
X118150000Y-148082346D01*
X119650000Y-148082346D01*
X119891988Y-148034212D01*
X120055435Y-147925000D01*
X130400000Y-147925000D01*
X130447835Y-147915485D01*
X130488388Y-147888388D01*
X135488388Y-142888388D01*
X135515485Y-142847835D01*
X135525000Y-142800000D01*
X135525000Y-141570000D01*
X148601001Y-141570000D01*
X148696075Y-142047971D01*
X148966824Y-142453176D01*
X149372029Y-142723925D01*
X149729348Y-142795000D01*
X149970652Y-142795000D01*
X150327971Y-142723925D01*
X150733176Y-142453176D01*
X151003925Y-142047971D01*
X151098999Y-141570000D01*
X151003925Y-141092029D01*
X150733176Y-140686824D01*
X150327971Y-140416075D01*
X149970652Y-140345000D01*
X149729348Y-140345000D01*
X149372029Y-140416075D01*
X148966824Y-140686824D01*
X148696075Y-141092029D01*
X148601001Y-141570000D01*
X135525000Y-141570000D01*
X135525000Y-140925000D01*
X136137073Y-140925000D01*
X136153883Y-140965584D01*
X136484416Y-141296117D01*
X136916278Y-141475000D01*
X137383722Y-141475000D01*
X137815584Y-141296117D01*
X138146117Y-140965584D01*
X138325000Y-140533722D01*
X138325000Y-140066278D01*
X138146117Y-139634416D01*
X137815584Y-139303883D01*
X137383722Y-139125000D01*
X136916278Y-139125000D01*
X136484416Y-139303883D01*
X136153883Y-139634416D01*
X136137073Y-139675000D01*
X135525000Y-139675000D01*
X135525000Y-138180000D01*
X148617654Y-138180000D01*
X148617654Y-139880000D01*
X148646758Y-140026317D01*
X148729641Y-140150359D01*
X148853683Y-140233242D01*
X149000000Y-140262346D01*
X150700000Y-140262346D01*
X150846317Y-140233242D01*
X150970359Y-140150359D01*
X151053242Y-140026317D01*
X151082346Y-139880000D01*
X151082346Y-138180000D01*
X151053242Y-138033683D01*
X150970359Y-137909641D01*
X150846317Y-137826758D01*
X150700000Y-137797654D01*
X149000000Y-137797654D01*
X148853683Y-137826758D01*
X148729641Y-137909641D01*
X148646758Y-138033683D01*
X148617654Y-138180000D01*
X135525000Y-138180000D01*
X135525000Y-137800000D01*
X135515485Y-137752165D01*
X135488388Y-137711612D01*
X130488388Y-132711612D01*
X130447835Y-132684515D01*
X130400000Y-132675000D01*
X113055435Y-132675000D01*
X112891988Y-132565788D01*
X112650000Y-132517654D01*
X111150000Y-132517654D01*
X110908012Y-132565788D01*
X110744565Y-132675000D01*
X100400000Y-132675000D01*
X100352165Y-132684515D01*
X100311612Y-132711612D01*
X95311612Y-137711612D01*
X95284515Y-137752165D01*
X95275000Y-137800000D01*
X81811795Y-137800000D01*
X81800000Y-137797654D01*
X80100000Y-137797654D01*
X79953683Y-137826758D01*
X79829641Y-137909641D01*
X79746758Y-138033683D01*
X79717654Y-138180000D01*
X66375000Y-138180000D01*
X66375000Y-134456061D01*
X70515000Y-134456061D01*
X70515000Y-134843939D01*
X70663435Y-135202293D01*
X70937707Y-135476565D01*
X71296061Y-135625000D01*
X71683939Y-135625000D01*
X72042293Y-135476565D01*
X72316565Y-135202293D01*
X72465000Y-134843939D01*
X72465000Y-134456061D01*
X72316565Y-134097707D01*
X72042293Y-133823435D01*
X71683939Y-133675000D01*
X71296061Y-133675000D01*
X70937707Y-133823435D01*
X70663435Y-134097707D01*
X70515000Y-134456061D01*
X66375000Y-134456061D01*
X66375000Y-127805435D01*
X66484212Y-127641988D01*
X66532346Y-127400000D01*
X66532346Y-125900000D01*
X66484212Y-125658012D01*
X66375000Y-125494565D01*
X66375000Y-114156061D01*
X70515000Y-114156061D01*
X70515000Y-114543939D01*
X70663435Y-114902293D01*
X70937707Y-115176565D01*
X71296061Y-115325000D01*
X71683939Y-115325000D01*
X71960001Y-115210652D01*
X71960000Y-124789348D01*
X71683939Y-124675000D01*
X71296061Y-124675000D01*
X70937707Y-124823435D01*
X70663435Y-125097707D01*
X70515000Y-125456061D01*
X70515000Y-125843939D01*
X70663435Y-126202293D01*
X70937707Y-126476565D01*
X71296061Y-126625000D01*
X71683939Y-126625000D01*
X71951935Y-126513993D01*
X71947756Y-126535000D01*
X71960000Y-126596554D01*
X71996263Y-126778862D01*
X72134400Y-126985600D01*
X72186590Y-127020472D01*
X72758256Y-127592138D01*
X72388920Y-127838920D01*
X72140273Y-128211047D01*
X72052960Y-128650000D01*
X72140273Y-129088953D01*
X72388920Y-129461080D01*
X72761047Y-129709727D01*
X73089197Y-129775000D01*
X73810803Y-129775000D01*
X74138953Y-129709727D01*
X74511080Y-129461080D01*
X74555001Y-129395348D01*
X74555001Y-129911116D01*
X73948464Y-130517654D01*
X72450000Y-130517654D01*
X72303683Y-130546758D01*
X72179641Y-130629641D01*
X72096758Y-130753683D01*
X72067654Y-130900000D01*
X72067654Y-132400000D01*
X72096758Y-132546317D01*
X72179641Y-132670359D01*
X72303683Y-132753242D01*
X72450000Y-132782346D01*
X74450000Y-132782346D01*
X74596317Y-132753242D01*
X74720359Y-132670359D01*
X74803242Y-132546317D01*
X74832346Y-132400000D01*
X74832346Y-131401536D01*
X75578412Y-130655471D01*
X75630600Y-130620600D01*
X75768737Y-130413863D01*
X75791386Y-130300000D01*
X75817244Y-130170001D01*
X75805000Y-130108446D01*
X75805000Y-128495843D01*
X82075000Y-128495843D01*
X82075000Y-128804157D01*
X82192987Y-129089002D01*
X82410998Y-129307013D01*
X82695843Y-129425000D01*
X83004157Y-129425000D01*
X83289002Y-129307013D01*
X83446015Y-129150000D01*
X88114700Y-129150000D01*
X88192987Y-129339002D01*
X88410998Y-129557013D01*
X88695843Y-129675000D01*
X89004157Y-129675000D01*
X89289002Y-129557013D01*
X89507013Y-129339002D01*
X89625000Y-129054157D01*
X89625000Y-128745843D01*
X89582256Y-128642650D01*
X89789002Y-128557013D01*
X90007013Y-128339002D01*
X90125000Y-128054157D01*
X90125000Y-127745843D01*
X90007013Y-127460998D01*
X89789002Y-127242987D01*
X89504157Y-127125000D01*
X89195843Y-127125000D01*
X89139950Y-127148152D01*
X89100000Y-127140205D01*
X89050759Y-127150000D01*
X83946015Y-127150000D01*
X83789002Y-126992987D01*
X83504157Y-126875000D01*
X83195843Y-126875000D01*
X82910998Y-126992987D01*
X82692987Y-127210998D01*
X82575000Y-127495843D01*
X82575000Y-127804157D01*
X82617744Y-127907350D01*
X82410998Y-127992987D01*
X82192987Y-128210998D01*
X82075000Y-128495843D01*
X75805000Y-128495843D01*
X75805000Y-127846555D01*
X75817244Y-127785000D01*
X75768737Y-127541137D01*
X75630600Y-127334400D01*
X75578413Y-127299530D01*
X74940000Y-126661118D01*
X74940000Y-120420000D01*
X79717654Y-120420000D01*
X79717654Y-122120000D01*
X79746758Y-122266317D01*
X79829641Y-122390359D01*
X79953683Y-122473242D01*
X80100000Y-122502346D01*
X81800000Y-122502346D01*
X81946317Y-122473242D01*
X82070359Y-122390359D01*
X82153242Y-122266317D01*
X82182346Y-122120000D01*
X82182346Y-120420000D01*
X82153242Y-120273683D01*
X82070359Y-120149641D01*
X81946317Y-120066758D01*
X81800000Y-120037654D01*
X80100000Y-120037654D01*
X79953683Y-120066758D01*
X79829641Y-120149641D01*
X79746758Y-120273683D01*
X79717654Y-120420000D01*
X74940000Y-120420000D01*
X74940000Y-118730000D01*
X79701001Y-118730000D01*
X79796075Y-119207971D01*
X80066824Y-119613176D01*
X80472029Y-119883925D01*
X80829348Y-119955000D01*
X81070652Y-119955000D01*
X81427971Y-119883925D01*
X81659262Y-119729381D01*
X92200571Y-119729381D01*
X92200571Y-120196825D01*
X92379454Y-120628687D01*
X92709987Y-120959220D01*
X93141849Y-121138103D01*
X93609293Y-121138103D01*
X94041155Y-120959220D01*
X94371688Y-120628687D01*
X94373215Y-120625000D01*
X95525000Y-120625000D01*
X95525000Y-122350000D01*
X95534515Y-122397835D01*
X95561612Y-122438388D01*
X100561612Y-127438388D01*
X100602165Y-127465485D01*
X100650000Y-127475000D01*
X105650000Y-127475000D01*
X105697835Y-127465485D01*
X105738388Y-127438388D01*
X110738388Y-122438388D01*
X110765485Y-122397835D01*
X110775000Y-122350000D01*
X110775000Y-112600000D01*
X119867654Y-112600000D01*
X119867654Y-114100000D01*
X119915788Y-114341988D01*
X120025000Y-114505435D01*
X120025000Y-122350000D01*
X120034515Y-122397835D01*
X120061612Y-122438388D01*
X125061612Y-127438388D01*
X125102165Y-127465485D01*
X125150000Y-127475000D01*
X130150000Y-127475000D01*
X130197835Y-127465485D01*
X130238388Y-127438388D01*
X135238388Y-122438388D01*
X135265485Y-122397835D01*
X135275000Y-122350000D01*
X135275000Y-120420000D01*
X148617654Y-120420000D01*
X148617654Y-122120000D01*
X148646758Y-122266317D01*
X148729641Y-122390359D01*
X148853683Y-122473242D01*
X149000000Y-122502346D01*
X150700000Y-122502346D01*
X150846317Y-122473242D01*
X150970359Y-122390359D01*
X151053242Y-122266317D01*
X151082346Y-122120000D01*
X151082346Y-120420000D01*
X151053242Y-120273683D01*
X150970359Y-120149641D01*
X150846317Y-120066758D01*
X150700000Y-120037654D01*
X149000000Y-120037654D01*
X148853683Y-120066758D01*
X148729641Y-120149641D01*
X148646758Y-120273683D01*
X148617654Y-120420000D01*
X135275000Y-120420000D01*
X135275000Y-118730000D01*
X148601001Y-118730000D01*
X148696075Y-119207971D01*
X148966824Y-119613176D01*
X149372029Y-119883925D01*
X149729348Y-119955000D01*
X149970652Y-119955000D01*
X150327971Y-119883925D01*
X150474110Y-119786278D01*
X161375000Y-119786278D01*
X161375000Y-120253722D01*
X161553883Y-120685584D01*
X161884416Y-121016117D01*
X162316278Y-121195000D01*
X162783722Y-121195000D01*
X163215584Y-121016117D01*
X163546117Y-120685584D01*
X163571212Y-120625000D01*
X164425000Y-120625000D01*
X164425000Y-132494565D01*
X164315788Y-132658012D01*
X164267654Y-132900000D01*
X164267654Y-134400000D01*
X164315788Y-134641988D01*
X164425000Y-134805435D01*
X164425000Y-142650000D01*
X164434515Y-142697835D01*
X164461612Y-142738388D01*
X169461612Y-147738388D01*
X169502165Y-147765485D01*
X169550000Y-147775000D01*
X174550000Y-147775000D01*
X174597835Y-147765485D01*
X174638388Y-147738388D01*
X179638388Y-142738388D01*
X179665485Y-142697835D01*
X179675000Y-142650000D01*
X179675000Y-132900000D01*
X188767654Y-132900000D01*
X188767654Y-134400000D01*
X188815788Y-134641988D01*
X188925000Y-134805435D01*
X188925000Y-142650000D01*
X188934515Y-142697835D01*
X188961612Y-142738388D01*
X193961612Y-147738388D01*
X194002165Y-147765485D01*
X194050000Y-147775000D01*
X199050000Y-147775000D01*
X199097835Y-147765485D01*
X199138388Y-147738388D01*
X204138388Y-142738388D01*
X204165485Y-142697835D01*
X204175000Y-142650000D01*
X204175000Y-141570000D01*
X217501001Y-141570000D01*
X217596075Y-142047971D01*
X217866824Y-142453176D01*
X218272029Y-142723925D01*
X218629348Y-142795000D01*
X218870652Y-142795000D01*
X219227971Y-142723925D01*
X219633176Y-142453176D01*
X219903925Y-142047971D01*
X219998999Y-141570000D01*
X219903925Y-141092029D01*
X219633176Y-140686824D01*
X219227971Y-140416075D01*
X218870652Y-140345000D01*
X218629348Y-140345000D01*
X218272029Y-140416075D01*
X217866824Y-140686824D01*
X217596075Y-141092029D01*
X217501001Y-141570000D01*
X204175000Y-141570000D01*
X204175000Y-140925000D01*
X205037073Y-140925000D01*
X205053883Y-140965584D01*
X205384416Y-141296117D01*
X205816278Y-141475000D01*
X206283722Y-141475000D01*
X206715584Y-141296117D01*
X207046117Y-140965584D01*
X207225000Y-140533722D01*
X207225000Y-140066278D01*
X207046117Y-139634416D01*
X206715584Y-139303883D01*
X206283722Y-139125000D01*
X205816278Y-139125000D01*
X205384416Y-139303883D01*
X205053883Y-139634416D01*
X205037073Y-139675000D01*
X204175000Y-139675000D01*
X204175000Y-138180000D01*
X217517654Y-138180000D01*
X217517654Y-139880000D01*
X217546758Y-140026317D01*
X217629641Y-140150359D01*
X217753683Y-140233242D01*
X217900000Y-140262346D01*
X219600000Y-140262346D01*
X219746317Y-140233242D01*
X219870359Y-140150359D01*
X219953242Y-140026317D01*
X219982346Y-139880000D01*
X219982346Y-138180000D01*
X219953242Y-138033683D01*
X219870359Y-137909641D01*
X219746317Y-137826758D01*
X219600000Y-137797654D01*
X217900000Y-137797654D01*
X217753683Y-137826758D01*
X217629641Y-137909641D01*
X217546758Y-138033683D01*
X217517654Y-138180000D01*
X204175000Y-138180000D01*
X204175000Y-127805435D01*
X204284212Y-127641988D01*
X204332346Y-127400000D01*
X204332346Y-125900000D01*
X204284212Y-125658012D01*
X204175000Y-125494565D01*
X204175000Y-120420000D01*
X217517654Y-120420000D01*
X217517654Y-122120000D01*
X217546758Y-122266317D01*
X217629641Y-122390359D01*
X217753683Y-122473242D01*
X217900000Y-122502346D01*
X219600000Y-122502346D01*
X219746317Y-122473242D01*
X219870359Y-122390359D01*
X219953242Y-122266317D01*
X219982346Y-122120000D01*
X219982346Y-120420000D01*
X219953242Y-120273683D01*
X219870359Y-120149641D01*
X219746317Y-120066758D01*
X219600000Y-120037654D01*
X217900000Y-120037654D01*
X217753683Y-120066758D01*
X217629641Y-120149641D01*
X217546758Y-120273683D01*
X217517654Y-120420000D01*
X204175000Y-120420000D01*
X204175000Y-118730000D01*
X217501001Y-118730000D01*
X217596075Y-119207971D01*
X217866824Y-119613176D01*
X218272029Y-119883925D01*
X218629348Y-119955000D01*
X218870652Y-119955000D01*
X219227971Y-119883925D01*
X219633176Y-119613176D01*
X219903925Y-119207971D01*
X219998999Y-118730000D01*
X219903925Y-118252029D01*
X219633176Y-117846824D01*
X219227971Y-117576075D01*
X218870652Y-117505000D01*
X218629348Y-117505000D01*
X218272029Y-117576075D01*
X217866824Y-117846824D01*
X217596075Y-118252029D01*
X217501001Y-118730000D01*
X204175000Y-118730000D01*
X204175000Y-117650000D01*
X204165485Y-117602165D01*
X204138388Y-117561612D01*
X199138388Y-112561612D01*
X199097835Y-112534515D01*
X199050000Y-112525000D01*
X194050000Y-112525000D01*
X194002165Y-112534515D01*
X193961612Y-112561612D01*
X188961612Y-117561612D01*
X188934515Y-117602165D01*
X188925000Y-117650000D01*
X188925000Y-132494565D01*
X188815788Y-132658012D01*
X188767654Y-132900000D01*
X179675000Y-132900000D01*
X179675000Y-127805435D01*
X179784212Y-127641988D01*
X179832346Y-127400000D01*
X179832346Y-125900000D01*
X179784212Y-125658012D01*
X179675000Y-125494565D01*
X179675000Y-117650000D01*
X179665485Y-117602165D01*
X179638388Y-117561612D01*
X174638388Y-112561612D01*
X174597835Y-112534515D01*
X174550000Y-112525000D01*
X169550000Y-112525000D01*
X169502165Y-112534515D01*
X169461612Y-112561612D01*
X164461612Y-117561612D01*
X164434515Y-117602165D01*
X164425000Y-117650000D01*
X164425000Y-119375000D01*
X163554643Y-119375000D01*
X163546117Y-119354416D01*
X163215584Y-119023883D01*
X162783722Y-118845000D01*
X162316278Y-118845000D01*
X161884416Y-119023883D01*
X161553883Y-119354416D01*
X161375000Y-119786278D01*
X150474110Y-119786278D01*
X150733176Y-119613176D01*
X151003925Y-119207971D01*
X151098999Y-118730000D01*
X151003925Y-118252029D01*
X150733176Y-117846824D01*
X150327971Y-117576075D01*
X149970652Y-117505000D01*
X149729348Y-117505000D01*
X149372029Y-117576075D01*
X148966824Y-117846824D01*
X148696075Y-118252029D01*
X148601001Y-118730000D01*
X135275000Y-118730000D01*
X135275000Y-113445843D01*
X144075000Y-113445843D01*
X144075000Y-113754157D01*
X144192987Y-114039002D01*
X144410998Y-114257013D01*
X144635488Y-114350000D01*
X144410998Y-114442987D01*
X144192987Y-114660998D01*
X144075000Y-114945843D01*
X144075000Y-115254157D01*
X144192987Y-115539002D01*
X144410998Y-115757013D01*
X144695843Y-115875000D01*
X145004157Y-115875000D01*
X145289002Y-115757013D01*
X145446015Y-115600000D01*
X146300759Y-115600000D01*
X146350000Y-115609795D01*
X146399241Y-115600000D01*
X146399243Y-115600000D01*
X146545090Y-115570989D01*
X146710480Y-115460480D01*
X146738376Y-115418730D01*
X147097831Y-115059276D01*
X147192987Y-115289002D01*
X147410998Y-115507013D01*
X147695843Y-115625000D01*
X148004157Y-115625000D01*
X148289002Y-115507013D01*
X148446015Y-115350000D01*
X149800759Y-115350000D01*
X149850000Y-115359795D01*
X149899241Y-115350000D01*
X149899243Y-115350000D01*
X150045090Y-115320989D01*
X150210480Y-115210480D01*
X150238376Y-115168730D01*
X150807107Y-114600000D01*
X156050759Y-114600000D01*
X156100000Y-114609795D01*
X156149241Y-114600000D01*
X156149243Y-114600000D01*
X156295090Y-114570989D01*
X156460480Y-114460480D01*
X156488377Y-114418729D01*
X160807107Y-110100000D01*
X164892894Y-110100000D01*
X165575000Y-110782107D01*
X165575000Y-111004157D01*
X165692987Y-111289002D01*
X165910998Y-111507013D01*
X166195843Y-111625000D01*
X166504157Y-111625000D01*
X166789002Y-111507013D01*
X167007013Y-111289002D01*
X167125000Y-111004157D01*
X167125000Y-110695843D01*
X167007013Y-110410998D01*
X166821015Y-110225000D01*
X167007013Y-110039002D01*
X167125000Y-109754157D01*
X167125000Y-109595656D01*
X167195843Y-109625000D01*
X167504157Y-109625000D01*
X167789002Y-109507013D01*
X168007013Y-109289002D01*
X168125000Y-109004157D01*
X168125000Y-108845656D01*
X168195843Y-108875000D01*
X168504157Y-108875000D01*
X168789002Y-108757013D01*
X169007013Y-108539002D01*
X169125000Y-108254157D01*
X169125000Y-107945843D01*
X169007013Y-107660998D01*
X168789002Y-107442987D01*
X168582256Y-107357350D01*
X168625000Y-107254157D01*
X168625000Y-106945843D01*
X168582256Y-106842650D01*
X168712094Y-106788870D01*
X169211612Y-107288388D01*
X169252165Y-107315485D01*
X169300000Y-107325000D01*
X186644565Y-107325000D01*
X186808012Y-107434212D01*
X187050000Y-107482346D01*
X188550000Y-107482346D01*
X188791988Y-107434212D01*
X188955435Y-107325000D01*
X199300000Y-107325000D01*
X199347835Y-107315485D01*
X199388388Y-107288388D01*
X204388388Y-102288388D01*
X204415485Y-102247835D01*
X204425000Y-102200000D01*
X204425000Y-100325000D01*
X205324372Y-100325000D01*
X205324372Y-100484632D01*
X205503255Y-100916494D01*
X205833788Y-101247027D01*
X206265650Y-101425910D01*
X206733094Y-101425910D01*
X207164956Y-101247027D01*
X207441983Y-100970000D01*
X217501001Y-100970000D01*
X217596075Y-101447971D01*
X217866824Y-101853176D01*
X218272029Y-102123925D01*
X218629348Y-102195000D01*
X218870652Y-102195000D01*
X219227971Y-102123925D01*
X219633176Y-101853176D01*
X219903925Y-101447971D01*
X219998999Y-100970000D01*
X219903925Y-100492029D01*
X219633176Y-100086824D01*
X219227971Y-99816075D01*
X218870652Y-99745000D01*
X218629348Y-99745000D01*
X218272029Y-99816075D01*
X217866824Y-100086824D01*
X217596075Y-100492029D01*
X217501001Y-100970000D01*
X207441983Y-100970000D01*
X207495489Y-100916494D01*
X207674372Y-100484632D01*
X207674372Y-100017188D01*
X207495489Y-99585326D01*
X207164956Y-99254793D01*
X206733094Y-99075910D01*
X206265650Y-99075910D01*
X206184201Y-99109647D01*
X206010017Y-99075000D01*
X205948462Y-99062756D01*
X205886907Y-99075000D01*
X204425000Y-99075000D01*
X204425000Y-97580000D01*
X217517654Y-97580000D01*
X217517654Y-99280000D01*
X217546758Y-99426317D01*
X217629641Y-99550359D01*
X217753683Y-99633242D01*
X217900000Y-99662346D01*
X219600000Y-99662346D01*
X219746317Y-99633242D01*
X219870359Y-99550359D01*
X219953242Y-99426317D01*
X219982346Y-99280000D01*
X219982346Y-97580000D01*
X219953242Y-97433683D01*
X219870359Y-97309641D01*
X219746317Y-97226758D01*
X219600000Y-97197654D01*
X217900000Y-97197654D01*
X217753683Y-97226758D01*
X217629641Y-97309641D01*
X217546758Y-97433683D01*
X217517654Y-97580000D01*
X204425000Y-97580000D01*
X204425000Y-97200000D01*
X204415485Y-97152165D01*
X204388388Y-97111612D01*
X199388388Y-92111612D01*
X199347835Y-92084515D01*
X199300000Y-92075000D01*
X181955435Y-92075000D01*
X181791988Y-91965788D01*
X181550000Y-91917654D01*
X180050000Y-91917654D01*
X179808012Y-91965788D01*
X179644565Y-92075000D01*
X169300000Y-92075000D01*
X169252165Y-92084515D01*
X169211612Y-92111612D01*
X164211612Y-97111612D01*
X164184515Y-97152165D01*
X164175000Y-97200000D01*
X164175000Y-102200000D01*
X164184515Y-102247835D01*
X164211612Y-102288388D01*
X167523224Y-105600000D01*
X163585300Y-105600000D01*
X163625000Y-105504157D01*
X163625000Y-105345656D01*
X163695843Y-105375000D01*
X164004157Y-105375000D01*
X164289002Y-105257013D01*
X164507013Y-105039002D01*
X164625000Y-104754157D01*
X164625000Y-104445843D01*
X164507013Y-104160998D01*
X164289002Y-103942987D01*
X164004157Y-103825000D01*
X163695843Y-103825000D01*
X163410998Y-103942987D01*
X163253985Y-104100000D01*
X158899243Y-104100000D01*
X158850000Y-104090205D01*
X158800757Y-104100000D01*
X158654910Y-104129011D01*
X158489520Y-104239520D01*
X158461625Y-104281268D01*
X157602169Y-105140724D01*
X157507013Y-104910998D01*
X157289002Y-104692987D01*
X157004157Y-104575000D01*
X156782107Y-104575000D01*
X155988376Y-103781270D01*
X155960480Y-103739520D01*
X155795090Y-103629011D01*
X155649243Y-103600000D01*
X155649241Y-103600000D01*
X155600000Y-103590205D01*
X155550759Y-103600000D01*
X148446015Y-103600000D01*
X148289002Y-103442987D01*
X148004157Y-103325000D01*
X147695843Y-103325000D01*
X147410998Y-103442987D01*
X147192987Y-103660998D01*
X147075000Y-103945843D01*
X147075000Y-104254157D01*
X147192987Y-104539002D01*
X147410998Y-104757013D01*
X147695843Y-104875000D01*
X148004157Y-104875000D01*
X148289002Y-104757013D01*
X148446015Y-104600000D01*
X155392894Y-104600000D01*
X156075000Y-105282107D01*
X156075000Y-105504157D01*
X156192987Y-105789002D01*
X156253985Y-105850000D01*
X155946015Y-105850000D01*
X155789002Y-105692987D01*
X155504157Y-105575000D01*
X155195843Y-105575000D01*
X154910998Y-105692987D01*
X154692987Y-105910998D01*
X154575000Y-106195843D01*
X154575000Y-106504157D01*
X154617744Y-106607350D01*
X154410998Y-106692987D01*
X154192987Y-106910998D01*
X154075000Y-107195843D01*
X154075000Y-107504157D01*
X154192987Y-107789002D01*
X154253985Y-107850000D01*
X154192987Y-107910998D01*
X154075000Y-108195843D01*
X154075000Y-108504157D01*
X154192987Y-108789002D01*
X154410998Y-109007013D01*
X154695843Y-109125000D01*
X155004157Y-109125000D01*
X155289002Y-109007013D01*
X155446015Y-108850000D01*
X156550759Y-108850000D01*
X156600000Y-108859795D01*
X156649241Y-108850000D01*
X156649243Y-108850000D01*
X156795090Y-108820989D01*
X156960480Y-108710480D01*
X156988377Y-108668729D01*
X158075000Y-107582106D01*
X158075000Y-107754157D01*
X158192987Y-108039002D01*
X158410998Y-108257013D01*
X158695843Y-108375000D01*
X158867893Y-108375000D01*
X155142894Y-112100000D01*
X148899246Y-112100000D01*
X148850000Y-112090204D01*
X148654910Y-112129011D01*
X148489520Y-112239520D01*
X148461626Y-112281267D01*
X147642894Y-113100000D01*
X145446015Y-113100000D01*
X145289002Y-112942987D01*
X145004157Y-112825000D01*
X144695843Y-112825000D01*
X144410998Y-112942987D01*
X144192987Y-113160998D01*
X144075000Y-113445843D01*
X135275000Y-113445843D01*
X135275000Y-107505435D01*
X135384212Y-107341988D01*
X135432346Y-107100000D01*
X135432346Y-106195843D01*
X140075000Y-106195843D01*
X140075000Y-106504157D01*
X140192987Y-106789002D01*
X140410998Y-107007013D01*
X140648130Y-107105237D01*
X140961625Y-107418732D01*
X140989520Y-107460480D01*
X141106915Y-107538920D01*
X141154910Y-107570989D01*
X141350000Y-107609795D01*
X141399243Y-107600000D01*
X150142894Y-107600000D01*
X150461625Y-107918732D01*
X150489520Y-107960480D01*
X150607038Y-108039002D01*
X150654910Y-108070989D01*
X150742371Y-108088386D01*
X150910998Y-108257013D01*
X151195843Y-108375000D01*
X151504157Y-108375000D01*
X151789002Y-108257013D01*
X152007013Y-108039002D01*
X152125000Y-107754157D01*
X152125000Y-107445843D01*
X152007013Y-107160998D01*
X151946015Y-107100000D01*
X152007013Y-107039002D01*
X152125000Y-106754157D01*
X152125000Y-106445843D01*
X152007013Y-106160998D01*
X151789002Y-105942987D01*
X151504157Y-105825000D01*
X151195843Y-105825000D01*
X150910998Y-105942987D01*
X150753985Y-106100000D01*
X142585300Y-106100000D01*
X142507013Y-105910998D01*
X142289002Y-105692987D01*
X142004157Y-105575000D01*
X141695843Y-105575000D01*
X141410998Y-105692987D01*
X141350000Y-105753985D01*
X141289002Y-105692987D01*
X141004157Y-105575000D01*
X140695843Y-105575000D01*
X140410998Y-105692987D01*
X140192987Y-105910998D01*
X140075000Y-106195843D01*
X135432346Y-106195843D01*
X135432346Y-105600000D01*
X135384212Y-105358012D01*
X135275000Y-105194565D01*
X135275000Y-100970000D01*
X148601001Y-100970000D01*
X148696075Y-101447971D01*
X148966824Y-101853176D01*
X149372029Y-102123925D01*
X149729348Y-102195000D01*
X149970652Y-102195000D01*
X150327971Y-102123925D01*
X150733176Y-101853176D01*
X151003925Y-101447971D01*
X151098999Y-100970000D01*
X151003925Y-100492029D01*
X150733176Y-100086824D01*
X150327971Y-99816075D01*
X149970652Y-99745000D01*
X149729348Y-99745000D01*
X149372029Y-99816075D01*
X148966824Y-100086824D01*
X148696075Y-100492029D01*
X148601001Y-100970000D01*
X135275000Y-100970000D01*
X135275000Y-100325000D01*
X136314583Y-100325000D01*
X136331393Y-100365584D01*
X136661926Y-100696117D01*
X137093788Y-100875000D01*
X137561232Y-100875000D01*
X137993094Y-100696117D01*
X138323627Y-100365584D01*
X138502510Y-99933722D01*
X138502510Y-99466278D01*
X138323627Y-99034416D01*
X137993094Y-98703883D01*
X137561232Y-98525000D01*
X137093788Y-98525000D01*
X136661926Y-98703883D01*
X136331393Y-99034416D01*
X136314583Y-99075000D01*
X135275000Y-99075000D01*
X135275000Y-97580000D01*
X148617654Y-97580000D01*
X148617654Y-99280000D01*
X148646758Y-99426317D01*
X148729641Y-99550359D01*
X148853683Y-99633242D01*
X149000000Y-99662346D01*
X150700000Y-99662346D01*
X150846317Y-99633242D01*
X150970359Y-99550359D01*
X151053242Y-99426317D01*
X151082346Y-99280000D01*
X151082346Y-97580000D01*
X151053242Y-97433683D01*
X150970359Y-97309641D01*
X150846317Y-97226758D01*
X150700000Y-97197654D01*
X149000000Y-97197654D01*
X148853683Y-97226758D01*
X148729641Y-97309641D01*
X148646758Y-97433683D01*
X148617654Y-97580000D01*
X135275000Y-97580000D01*
X135275000Y-97350000D01*
X135265485Y-97302165D01*
X135238388Y-97261612D01*
X130238388Y-92261612D01*
X130197835Y-92234515D01*
X130150000Y-92225000D01*
X125150000Y-92225000D01*
X125102165Y-92234515D01*
X125061612Y-92261612D01*
X120061612Y-97261612D01*
X120034515Y-97302165D01*
X120025000Y-97350000D01*
X120025000Y-112194565D01*
X119915788Y-112358012D01*
X119867654Y-112600000D01*
X110775000Y-112600000D01*
X110775000Y-107505435D01*
X110884212Y-107341988D01*
X110932346Y-107100000D01*
X110932346Y-105600000D01*
X110884212Y-105358012D01*
X110775000Y-105194565D01*
X110775000Y-97350000D01*
X110765485Y-97302165D01*
X110738388Y-97261612D01*
X105738388Y-92261612D01*
X105697835Y-92234515D01*
X105650000Y-92225000D01*
X100650000Y-92225000D01*
X100602165Y-92234515D01*
X100561612Y-92261612D01*
X95561612Y-97261612D01*
X95534515Y-97302165D01*
X95525000Y-97350000D01*
X95525000Y-112194565D01*
X95415788Y-112358012D01*
X95367654Y-112600000D01*
X95367654Y-114100000D01*
X95415788Y-114341988D01*
X95525000Y-114505435D01*
X95525000Y-119375000D01*
X94403782Y-119375000D01*
X94371688Y-119297519D01*
X94041155Y-118966986D01*
X93609293Y-118788103D01*
X93141849Y-118788103D01*
X92709987Y-118966986D01*
X92379454Y-119297519D01*
X92200571Y-119729381D01*
X81659262Y-119729381D01*
X81833176Y-119613176D01*
X82103925Y-119207971D01*
X82198999Y-118730000D01*
X82103925Y-118252029D01*
X81833176Y-117846824D01*
X81427971Y-117576075D01*
X81070652Y-117505000D01*
X80829348Y-117505000D01*
X80472029Y-117576075D01*
X80066824Y-117846824D01*
X79796075Y-118252029D01*
X79701001Y-118730000D01*
X74940000Y-118730000D01*
X74940000Y-113526555D01*
X74952244Y-113465000D01*
X74903737Y-113221137D01*
X74863553Y-113160998D01*
X74765600Y-113014400D01*
X74713413Y-112979530D01*
X74216228Y-112482346D01*
X74450000Y-112482346D01*
X74596317Y-112453242D01*
X74720359Y-112370359D01*
X74803242Y-112246317D01*
X74832346Y-112100000D01*
X74832346Y-110600000D01*
X74803242Y-110453683D01*
X74720359Y-110329641D01*
X74596317Y-110246758D01*
X74450000Y-110217654D01*
X72450000Y-110217654D01*
X72345000Y-110238540D01*
X72345000Y-110088882D01*
X72980503Y-109453379D01*
X73089197Y-109475000D01*
X73810803Y-109475000D01*
X74138953Y-109409727D01*
X74511080Y-109161080D01*
X74759727Y-108788953D01*
X74847040Y-108350000D01*
X74759727Y-107911047D01*
X74511080Y-107538920D01*
X74138953Y-107290273D01*
X73810803Y-107225000D01*
X73089197Y-107225000D01*
X72761047Y-107290273D01*
X72388920Y-107538920D01*
X72140273Y-107911047D01*
X72052960Y-108350000D01*
X72096621Y-108569497D01*
X71321588Y-109344530D01*
X71269401Y-109379400D01*
X71184133Y-109507013D01*
X71131263Y-109586138D01*
X71082756Y-109830000D01*
X71095001Y-109891560D01*
X71095000Y-112153445D01*
X71082756Y-112215000D01*
X71095000Y-112276554D01*
X71131263Y-112458862D01*
X71269400Y-112665600D01*
X71321590Y-112700472D01*
X71960001Y-113338884D01*
X71960001Y-113489349D01*
X71683939Y-113375000D01*
X71296061Y-113375000D01*
X70937707Y-113523435D01*
X70663435Y-113797707D01*
X70515000Y-114156061D01*
X66375000Y-114156061D01*
X66375000Y-105156061D01*
X70515000Y-105156061D01*
X70515000Y-105543939D01*
X70663435Y-105902293D01*
X70937707Y-106176565D01*
X71296061Y-106325000D01*
X71683939Y-106325000D01*
X72042293Y-106176565D01*
X72316565Y-105902293D01*
X72465000Y-105543939D01*
X72465000Y-105156061D01*
X72316565Y-104797707D01*
X72042293Y-104523435D01*
X71683939Y-104375000D01*
X71296061Y-104375000D01*
X70937707Y-104523435D01*
X70663435Y-104797707D01*
X70515000Y-105156061D01*
X66375000Y-105156061D01*
X66375000Y-100970000D01*
X79701001Y-100970000D01*
X79796075Y-101447971D01*
X80066824Y-101853176D01*
X80472029Y-102123925D01*
X80829348Y-102195000D01*
X81070652Y-102195000D01*
X81427971Y-102123925D01*
X81833176Y-101853176D01*
X82103925Y-101447971D01*
X82198999Y-100970000D01*
X82103925Y-100492029D01*
X81833176Y-100086824D01*
X81427971Y-99816075D01*
X81070652Y-99745000D01*
X80829348Y-99745000D01*
X80472029Y-99816075D01*
X80066824Y-100086824D01*
X79796075Y-100492029D01*
X79701001Y-100970000D01*
X66375000Y-100970000D01*
X66375000Y-100325000D01*
X67872073Y-100325000D01*
X67888883Y-100365584D01*
X68219416Y-100696117D01*
X68651278Y-100875000D01*
X69118722Y-100875000D01*
X69550584Y-100696117D01*
X69881117Y-100365584D01*
X70060000Y-99933722D01*
X70060000Y-99466278D01*
X69881117Y-99034416D01*
X69550584Y-98703883D01*
X69118722Y-98525000D01*
X68651278Y-98525000D01*
X68219416Y-98703883D01*
X67888883Y-99034416D01*
X67872073Y-99075000D01*
X66375000Y-99075000D01*
X66375000Y-97580000D01*
X79717654Y-97580000D01*
X79717654Y-99280000D01*
X79746758Y-99426317D01*
X79829641Y-99550359D01*
X79953683Y-99633242D01*
X80100000Y-99662346D01*
X81800000Y-99662346D01*
X81946317Y-99633242D01*
X82070359Y-99550359D01*
X82153242Y-99426317D01*
X82182346Y-99280000D01*
X82182346Y-97580000D01*
X82153242Y-97433683D01*
X82070359Y-97309641D01*
X81946317Y-97226758D01*
X81800000Y-97197654D01*
X80100000Y-97197654D01*
X79953683Y-97226758D01*
X79829641Y-97309641D01*
X79746758Y-97433683D01*
X79717654Y-97580000D01*
X66375000Y-97580000D01*
X66375000Y-90450000D01*
X233325000Y-90450000D01*
X233325000Y-112194565D01*
G36*
X167192987Y-106660998D02*
X167075000Y-106945843D01*
X167075000Y-107100000D01*
X159446015Y-107100000D01*
X159289002Y-106942987D01*
X159004157Y-106825000D01*
X158832106Y-106825000D01*
X159057106Y-106600000D01*
X167253985Y-106600000D01*
X167192987Y-106660998D01*
X167192987Y-106660998D01*
G37*
X167192987Y-106660998D02*
X167075000Y-106945843D01*
X167075000Y-107100000D01*
X159446015Y-107100000D01*
X159289002Y-106942987D01*
X159004157Y-106825000D01*
X158832106Y-106825000D01*
X159057106Y-106600000D01*
X167253985Y-106600000D01*
X167192987Y-106660998D01*
M02*
