%TF.GenerationSoftware,KiCad,Pcbnew,(5.0.0-rc2-dev-733-g23a9fcd91)*%
%TF.CreationDate,2018-05-26T11:51:58+02:00*%
%TF.ProjectId,CellsBoard,43656C6C73426F6172642E6B69636164,rev?*%
%TF.SameCoordinates,Original*%
%TF.FileFunction,Soldermask,Bot*%
%TF.FilePolarity,Negative*%
%FSLAX46Y46*%
G04 Gerber Fmt 4.6, Leading zero omitted, Abs format (unit mm)*
G04 Created by KiCad (PCBNEW (5.0.0-rc2-dev-733-g23a9fcd91)) date 05/26/18 11:51:58*
%MOMM*%
%LPD*%
G01*
G04 APERTURE LIST*
%ADD10C,0.150000*%
%ADD11O,2.000000X1.500000*%
%ADD12R,2.000000X1.500000*%
%ADD13C,1.200000*%
%ADD14C,11.000000*%
%ADD15C,0.900000*%
%ADD16C,1.000000*%
%ADD17O,1.700000X1.700000*%
%ADD18R,1.700000X1.700000*%
G04 APERTURE END LIST*
D10*
X226950000Y-132300000D02*
X229950000Y-132300000D01*
X225950000Y-147300000D02*
X225950000Y-133300000D01*
X229950000Y-148300000D02*
X226950000Y-148300000D01*
X230950000Y-133300000D02*
X230950000Y-147300000D01*
X226950000Y-148300000D02*
G75*
G02X225950000Y-147300000I0J1000000D01*
G01*
X225950000Y-133300000D02*
G75*
G02X226950000Y-132300000I1000000J0D01*
G01*
X229950000Y-132300000D02*
G75*
G02X230950000Y-133300000I0J-1000000D01*
G01*
X230950000Y-147300000D02*
G75*
G02X229950000Y-148300000I-1000000J0D01*
G01*
X247500000Y-90000000D02*
X52500000Y-90000000D01*
X247500000Y-90000000D02*
G75*
G02X250000000Y-92500000I0J-2500000D01*
G01*
X250000000Y-147500000D02*
X250000000Y-92500000D01*
X250000000Y-147500000D02*
G75*
G02X247500000Y-150000000I-2500000J0D01*
G01*
X52500000Y-150000000D02*
X247500000Y-150000000D01*
X52500000Y-150000000D02*
G75*
G02X50000000Y-147500000I0J2500000D01*
G01*
X50000000Y-92500000D02*
X50000000Y-147500000D01*
X50000000Y-92500000D02*
G75*
G02X52500000Y-90000000I2500000J0D01*
G01*
D11*
X73450000Y-108350000D03*
D12*
X73450000Y-111350000D03*
D13*
X71490000Y-105350000D03*
X71490000Y-114350000D03*
D11*
X73450000Y-128650000D03*
D12*
X73450000Y-131650000D03*
D13*
X71490000Y-125650000D03*
X71490000Y-134650000D03*
D14*
X240950000Y-140300000D03*
D15*
X240950000Y-136175000D03*
X243876815Y-137373185D03*
X245075000Y-140300000D03*
X243876815Y-143226815D03*
X240950000Y-144425000D03*
X238023185Y-143226815D03*
X236825000Y-140300000D03*
X238023185Y-137373185D03*
D10*
G36*
X235074504Y-132901204D02*
X235098773Y-132904804D01*
X235122571Y-132910765D01*
X235145671Y-132919030D01*
X235167849Y-132929520D01*
X235188893Y-132942133D01*
X235208598Y-132956747D01*
X235226777Y-132973223D01*
X235243253Y-132991402D01*
X235257867Y-133011107D01*
X235270480Y-133032151D01*
X235280970Y-133054329D01*
X235289235Y-133077429D01*
X235295196Y-133101227D01*
X235298796Y-133125496D01*
X235300000Y-133150000D01*
X235300000Y-133650000D01*
X235298796Y-133674504D01*
X235295196Y-133698773D01*
X235289235Y-133722571D01*
X235280970Y-133745671D01*
X235270480Y-133767849D01*
X235257867Y-133788893D01*
X235243253Y-133808598D01*
X235226777Y-133826777D01*
X235208598Y-133843253D01*
X235188893Y-133857867D01*
X235167849Y-133870480D01*
X235145671Y-133880970D01*
X235122571Y-133889235D01*
X235098773Y-133895196D01*
X235074504Y-133898796D01*
X235050000Y-133900000D01*
X233550000Y-133900000D01*
X233525496Y-133898796D01*
X233501227Y-133895196D01*
X233477429Y-133889235D01*
X233454329Y-133880970D01*
X233432151Y-133870480D01*
X233411107Y-133857867D01*
X233391402Y-133843253D01*
X233373223Y-133826777D01*
X233356747Y-133808598D01*
X233342133Y-133788893D01*
X233329520Y-133767849D01*
X233319030Y-133745671D01*
X233310765Y-133722571D01*
X233304804Y-133698773D01*
X233301204Y-133674504D01*
X233300000Y-133650000D01*
X233300000Y-133150000D01*
X233301204Y-133125496D01*
X233304804Y-133101227D01*
X233310765Y-133077429D01*
X233319030Y-133054329D01*
X233329520Y-133032151D01*
X233342133Y-133011107D01*
X233356747Y-132991402D01*
X233373223Y-132973223D01*
X233391402Y-132956747D01*
X233411107Y-132942133D01*
X233432151Y-132929520D01*
X233454329Y-132919030D01*
X233477429Y-132910765D01*
X233501227Y-132904804D01*
X233525496Y-132901204D01*
X233550000Y-132900000D01*
X235050000Y-132900000D01*
X235074504Y-132901204D01*
X235074504Y-132901204D01*
G37*
D16*
X234300000Y-133400000D03*
D10*
G36*
X235074504Y-146701204D02*
X235098773Y-146704804D01*
X235122571Y-146710765D01*
X235145671Y-146719030D01*
X235167849Y-146729520D01*
X235188893Y-146742133D01*
X235208598Y-146756747D01*
X235226777Y-146773223D01*
X235243253Y-146791402D01*
X235257867Y-146811107D01*
X235270480Y-146832151D01*
X235280970Y-146854329D01*
X235289235Y-146877429D01*
X235295196Y-146901227D01*
X235298796Y-146925496D01*
X235300000Y-146950000D01*
X235300000Y-147450000D01*
X235298796Y-147474504D01*
X235295196Y-147498773D01*
X235289235Y-147522571D01*
X235280970Y-147545671D01*
X235270480Y-147567849D01*
X235257867Y-147588893D01*
X235243253Y-147608598D01*
X235226777Y-147626777D01*
X235208598Y-147643253D01*
X235188893Y-147657867D01*
X235167849Y-147670480D01*
X235145671Y-147680970D01*
X235122571Y-147689235D01*
X235098773Y-147695196D01*
X235074504Y-147698796D01*
X235050000Y-147700000D01*
X233550000Y-147700000D01*
X233525496Y-147698796D01*
X233501227Y-147695196D01*
X233477429Y-147689235D01*
X233454329Y-147680970D01*
X233432151Y-147670480D01*
X233411107Y-147657867D01*
X233391402Y-147643253D01*
X233373223Y-147626777D01*
X233356747Y-147608598D01*
X233342133Y-147588893D01*
X233329520Y-147567849D01*
X233319030Y-147545671D01*
X233310765Y-147522571D01*
X233304804Y-147498773D01*
X233301204Y-147474504D01*
X233300000Y-147450000D01*
X233300000Y-146950000D01*
X233301204Y-146925496D01*
X233304804Y-146901227D01*
X233310765Y-146877429D01*
X233319030Y-146854329D01*
X233329520Y-146832151D01*
X233342133Y-146811107D01*
X233356747Y-146791402D01*
X233373223Y-146773223D01*
X233391402Y-146756747D01*
X233411107Y-146742133D01*
X233432151Y-146729520D01*
X233454329Y-146719030D01*
X233477429Y-146710765D01*
X233501227Y-146704804D01*
X233525496Y-146701204D01*
X233550000Y-146700000D01*
X235050000Y-146700000D01*
X235074504Y-146701204D01*
X235074504Y-146701204D01*
G37*
D16*
X234300000Y-147200000D03*
D10*
G36*
X119674504Y-146701204D02*
X119698773Y-146704804D01*
X119722571Y-146710765D01*
X119745671Y-146719030D01*
X119767849Y-146729520D01*
X119788893Y-146742133D01*
X119808598Y-146756747D01*
X119826777Y-146773223D01*
X119843253Y-146791402D01*
X119857867Y-146811107D01*
X119870480Y-146832151D01*
X119880970Y-146854329D01*
X119889235Y-146877429D01*
X119895196Y-146901227D01*
X119898796Y-146925496D01*
X119900000Y-146950000D01*
X119900000Y-147450000D01*
X119898796Y-147474504D01*
X119895196Y-147498773D01*
X119889235Y-147522571D01*
X119880970Y-147545671D01*
X119870480Y-147567849D01*
X119857867Y-147588893D01*
X119843253Y-147608598D01*
X119826777Y-147626777D01*
X119808598Y-147643253D01*
X119788893Y-147657867D01*
X119767849Y-147670480D01*
X119745671Y-147680970D01*
X119722571Y-147689235D01*
X119698773Y-147695196D01*
X119674504Y-147698796D01*
X119650000Y-147700000D01*
X118150000Y-147700000D01*
X118125496Y-147698796D01*
X118101227Y-147695196D01*
X118077429Y-147689235D01*
X118054329Y-147680970D01*
X118032151Y-147670480D01*
X118011107Y-147657867D01*
X117991402Y-147643253D01*
X117973223Y-147626777D01*
X117956747Y-147608598D01*
X117942133Y-147588893D01*
X117929520Y-147567849D01*
X117919030Y-147545671D01*
X117910765Y-147522571D01*
X117904804Y-147498773D01*
X117901204Y-147474504D01*
X117900000Y-147450000D01*
X117900000Y-146950000D01*
X117901204Y-146925496D01*
X117904804Y-146901227D01*
X117910765Y-146877429D01*
X117919030Y-146854329D01*
X117929520Y-146832151D01*
X117942133Y-146811107D01*
X117956747Y-146791402D01*
X117973223Y-146773223D01*
X117991402Y-146756747D01*
X118011107Y-146742133D01*
X118032151Y-146729520D01*
X118054329Y-146719030D01*
X118077429Y-146710765D01*
X118101227Y-146704804D01*
X118125496Y-146701204D01*
X118150000Y-146700000D01*
X119650000Y-146700000D01*
X119674504Y-146701204D01*
X119674504Y-146701204D01*
G37*
D16*
X118900000Y-147200000D03*
D10*
G36*
X112674504Y-132901204D02*
X112698773Y-132904804D01*
X112722571Y-132910765D01*
X112745671Y-132919030D01*
X112767849Y-132929520D01*
X112788893Y-132942133D01*
X112808598Y-132956747D01*
X112826777Y-132973223D01*
X112843253Y-132991402D01*
X112857867Y-133011107D01*
X112870480Y-133032151D01*
X112880970Y-133054329D01*
X112889235Y-133077429D01*
X112895196Y-133101227D01*
X112898796Y-133125496D01*
X112900000Y-133150000D01*
X112900000Y-133650000D01*
X112898796Y-133674504D01*
X112895196Y-133698773D01*
X112889235Y-133722571D01*
X112880970Y-133745671D01*
X112870480Y-133767849D01*
X112857867Y-133788893D01*
X112843253Y-133808598D01*
X112826777Y-133826777D01*
X112808598Y-133843253D01*
X112788893Y-133857867D01*
X112767849Y-133870480D01*
X112745671Y-133880970D01*
X112722571Y-133889235D01*
X112698773Y-133895196D01*
X112674504Y-133898796D01*
X112650000Y-133900000D01*
X111150000Y-133900000D01*
X111125496Y-133898796D01*
X111101227Y-133895196D01*
X111077429Y-133889235D01*
X111054329Y-133880970D01*
X111032151Y-133870480D01*
X111011107Y-133857867D01*
X110991402Y-133843253D01*
X110973223Y-133826777D01*
X110956747Y-133808598D01*
X110942133Y-133788893D01*
X110929520Y-133767849D01*
X110919030Y-133745671D01*
X110910765Y-133722571D01*
X110904804Y-133698773D01*
X110901204Y-133674504D01*
X110900000Y-133650000D01*
X110900000Y-133150000D01*
X110901204Y-133125496D01*
X110904804Y-133101227D01*
X110910765Y-133077429D01*
X110919030Y-133054329D01*
X110929520Y-133032151D01*
X110942133Y-133011107D01*
X110956747Y-132991402D01*
X110973223Y-132973223D01*
X110991402Y-132956747D01*
X111011107Y-132942133D01*
X111032151Y-132929520D01*
X111054329Y-132919030D01*
X111077429Y-132910765D01*
X111101227Y-132904804D01*
X111125496Y-132901204D01*
X111150000Y-132900000D01*
X112650000Y-132900000D01*
X112674504Y-132901204D01*
X112674504Y-132901204D01*
G37*
D16*
X111900000Y-133400000D03*
D14*
X127650000Y-140300000D03*
D15*
X124723185Y-143226815D03*
X127650000Y-136175000D03*
X130576815Y-143226815D03*
X130576815Y-137373185D03*
X124723185Y-137373185D03*
X127650000Y-144425000D03*
X123525000Y-140300000D03*
X131775000Y-140300000D03*
X106076815Y-137373185D03*
X103150000Y-136175000D03*
X100223185Y-137373185D03*
X99025000Y-140300000D03*
X100223185Y-143226815D03*
X103150000Y-144425000D03*
X106076815Y-143226815D03*
X107275000Y-140300000D03*
D14*
X103150000Y-140300000D03*
D10*
G36*
X188574504Y-106101204D02*
X188598773Y-106104804D01*
X188622571Y-106110765D01*
X188645671Y-106119030D01*
X188667849Y-106129520D01*
X188688893Y-106142133D01*
X188708598Y-106156747D01*
X188726777Y-106173223D01*
X188743253Y-106191402D01*
X188757867Y-106211107D01*
X188770480Y-106232151D01*
X188780970Y-106254329D01*
X188789235Y-106277429D01*
X188795196Y-106301227D01*
X188798796Y-106325496D01*
X188800000Y-106350000D01*
X188800000Y-106850000D01*
X188798796Y-106874504D01*
X188795196Y-106898773D01*
X188789235Y-106922571D01*
X188780970Y-106945671D01*
X188770480Y-106967849D01*
X188757867Y-106988893D01*
X188743253Y-107008598D01*
X188726777Y-107026777D01*
X188708598Y-107043253D01*
X188688893Y-107057867D01*
X188667849Y-107070480D01*
X188645671Y-107080970D01*
X188622571Y-107089235D01*
X188598773Y-107095196D01*
X188574504Y-107098796D01*
X188550000Y-107100000D01*
X187050000Y-107100000D01*
X187025496Y-107098796D01*
X187001227Y-107095196D01*
X186977429Y-107089235D01*
X186954329Y-107080970D01*
X186932151Y-107070480D01*
X186911107Y-107057867D01*
X186891402Y-107043253D01*
X186873223Y-107026777D01*
X186856747Y-107008598D01*
X186842133Y-106988893D01*
X186829520Y-106967849D01*
X186819030Y-106945671D01*
X186810765Y-106922571D01*
X186804804Y-106898773D01*
X186801204Y-106874504D01*
X186800000Y-106850000D01*
X186800000Y-106350000D01*
X186801204Y-106325496D01*
X186804804Y-106301227D01*
X186810765Y-106277429D01*
X186819030Y-106254329D01*
X186829520Y-106232151D01*
X186842133Y-106211107D01*
X186856747Y-106191402D01*
X186873223Y-106173223D01*
X186891402Y-106156747D01*
X186911107Y-106142133D01*
X186932151Y-106129520D01*
X186954329Y-106119030D01*
X186977429Y-106110765D01*
X187001227Y-106104804D01*
X187025496Y-106101204D01*
X187050000Y-106100000D01*
X188550000Y-106100000D01*
X188574504Y-106101204D01*
X188574504Y-106101204D01*
G37*
D16*
X187800000Y-106600000D03*
D10*
G36*
X181574504Y-92301204D02*
X181598773Y-92304804D01*
X181622571Y-92310765D01*
X181645671Y-92319030D01*
X181667849Y-92329520D01*
X181688893Y-92342133D01*
X181708598Y-92356747D01*
X181726777Y-92373223D01*
X181743253Y-92391402D01*
X181757867Y-92411107D01*
X181770480Y-92432151D01*
X181780970Y-92454329D01*
X181789235Y-92477429D01*
X181795196Y-92501227D01*
X181798796Y-92525496D01*
X181800000Y-92550000D01*
X181800000Y-93050000D01*
X181798796Y-93074504D01*
X181795196Y-93098773D01*
X181789235Y-93122571D01*
X181780970Y-93145671D01*
X181770480Y-93167849D01*
X181757867Y-93188893D01*
X181743253Y-93208598D01*
X181726777Y-93226777D01*
X181708598Y-93243253D01*
X181688893Y-93257867D01*
X181667849Y-93270480D01*
X181645671Y-93280970D01*
X181622571Y-93289235D01*
X181598773Y-93295196D01*
X181574504Y-93298796D01*
X181550000Y-93300000D01*
X180050000Y-93300000D01*
X180025496Y-93298796D01*
X180001227Y-93295196D01*
X179977429Y-93289235D01*
X179954329Y-93280970D01*
X179932151Y-93270480D01*
X179911107Y-93257867D01*
X179891402Y-93243253D01*
X179873223Y-93226777D01*
X179856747Y-93208598D01*
X179842133Y-93188893D01*
X179829520Y-93167849D01*
X179819030Y-93145671D01*
X179810765Y-93122571D01*
X179804804Y-93098773D01*
X179801204Y-93074504D01*
X179800000Y-93050000D01*
X179800000Y-92550000D01*
X179801204Y-92525496D01*
X179804804Y-92501227D01*
X179810765Y-92477429D01*
X179819030Y-92454329D01*
X179829520Y-92432151D01*
X179842133Y-92411107D01*
X179856747Y-92391402D01*
X179873223Y-92373223D01*
X179891402Y-92356747D01*
X179911107Y-92342133D01*
X179932151Y-92329520D01*
X179954329Y-92319030D01*
X179977429Y-92310765D01*
X180001227Y-92304804D01*
X180025496Y-92301204D01*
X180050000Y-92300000D01*
X181550000Y-92300000D01*
X181574504Y-92301204D01*
X181574504Y-92301204D01*
G37*
D16*
X180800000Y-92800000D03*
D14*
X196550000Y-99700000D03*
D15*
X193623185Y-102626815D03*
X196550000Y-95575000D03*
X199476815Y-102626815D03*
X199476815Y-96773185D03*
X193623185Y-96773185D03*
X196550000Y-103825000D03*
X192425000Y-99700000D03*
X200675000Y-99700000D03*
X174976815Y-96773185D03*
X172050000Y-95575000D03*
X169123185Y-96773185D03*
X167925000Y-99700000D03*
X169123185Y-102626815D03*
X172050000Y-103825000D03*
X174976815Y-102626815D03*
X176175000Y-99700000D03*
D14*
X172050000Y-99700000D03*
D10*
G36*
X110324504Y-105351204D02*
X110348773Y-105354804D01*
X110372571Y-105360765D01*
X110395671Y-105369030D01*
X110417849Y-105379520D01*
X110438893Y-105392133D01*
X110458598Y-105406747D01*
X110476777Y-105423223D01*
X110493253Y-105441402D01*
X110507867Y-105461107D01*
X110520480Y-105482151D01*
X110530970Y-105504329D01*
X110539235Y-105527429D01*
X110545196Y-105551227D01*
X110548796Y-105575496D01*
X110550000Y-105600000D01*
X110550000Y-107100000D01*
X110548796Y-107124504D01*
X110545196Y-107148773D01*
X110539235Y-107172571D01*
X110530970Y-107195671D01*
X110520480Y-107217849D01*
X110507867Y-107238893D01*
X110493253Y-107258598D01*
X110476777Y-107276777D01*
X110458598Y-107293253D01*
X110438893Y-107307867D01*
X110417849Y-107320480D01*
X110395671Y-107330970D01*
X110372571Y-107339235D01*
X110348773Y-107345196D01*
X110324504Y-107348796D01*
X110300000Y-107350000D01*
X109800000Y-107350000D01*
X109775496Y-107348796D01*
X109751227Y-107345196D01*
X109727429Y-107339235D01*
X109704329Y-107330970D01*
X109682151Y-107320480D01*
X109661107Y-107307867D01*
X109641402Y-107293253D01*
X109623223Y-107276777D01*
X109606747Y-107258598D01*
X109592133Y-107238893D01*
X109579520Y-107217849D01*
X109569030Y-107195671D01*
X109560765Y-107172571D01*
X109554804Y-107148773D01*
X109551204Y-107124504D01*
X109550000Y-107100000D01*
X109550000Y-105600000D01*
X109551204Y-105575496D01*
X109554804Y-105551227D01*
X109560765Y-105527429D01*
X109569030Y-105504329D01*
X109579520Y-105482151D01*
X109592133Y-105461107D01*
X109606747Y-105441402D01*
X109623223Y-105423223D01*
X109641402Y-105406747D01*
X109661107Y-105392133D01*
X109682151Y-105379520D01*
X109704329Y-105369030D01*
X109727429Y-105360765D01*
X109751227Y-105354804D01*
X109775496Y-105351204D01*
X109800000Y-105350000D01*
X110300000Y-105350000D01*
X110324504Y-105351204D01*
X110324504Y-105351204D01*
G37*
D16*
X110050000Y-106350000D03*
D10*
G36*
X96524504Y-112351204D02*
X96548773Y-112354804D01*
X96572571Y-112360765D01*
X96595671Y-112369030D01*
X96617849Y-112379520D01*
X96638893Y-112392133D01*
X96658598Y-112406747D01*
X96676777Y-112423223D01*
X96693253Y-112441402D01*
X96707867Y-112461107D01*
X96720480Y-112482151D01*
X96730970Y-112504329D01*
X96739235Y-112527429D01*
X96745196Y-112551227D01*
X96748796Y-112575496D01*
X96750000Y-112600000D01*
X96750000Y-114100000D01*
X96748796Y-114124504D01*
X96745196Y-114148773D01*
X96739235Y-114172571D01*
X96730970Y-114195671D01*
X96720480Y-114217849D01*
X96707867Y-114238893D01*
X96693253Y-114258598D01*
X96676777Y-114276777D01*
X96658598Y-114293253D01*
X96638893Y-114307867D01*
X96617849Y-114320480D01*
X96595671Y-114330970D01*
X96572571Y-114339235D01*
X96548773Y-114345196D01*
X96524504Y-114348796D01*
X96500000Y-114350000D01*
X96000000Y-114350000D01*
X95975496Y-114348796D01*
X95951227Y-114345196D01*
X95927429Y-114339235D01*
X95904329Y-114330970D01*
X95882151Y-114320480D01*
X95861107Y-114307867D01*
X95841402Y-114293253D01*
X95823223Y-114276777D01*
X95806747Y-114258598D01*
X95792133Y-114238893D01*
X95779520Y-114217849D01*
X95769030Y-114195671D01*
X95760765Y-114172571D01*
X95754804Y-114148773D01*
X95751204Y-114124504D01*
X95750000Y-114100000D01*
X95750000Y-112600000D01*
X95751204Y-112575496D01*
X95754804Y-112551227D01*
X95760765Y-112527429D01*
X95769030Y-112504329D01*
X95779520Y-112482151D01*
X95792133Y-112461107D01*
X95806747Y-112441402D01*
X95823223Y-112423223D01*
X95841402Y-112406747D01*
X95861107Y-112392133D01*
X95882151Y-112379520D01*
X95904329Y-112369030D01*
X95927429Y-112360765D01*
X95951227Y-112354804D01*
X95975496Y-112351204D01*
X96000000Y-112350000D01*
X96500000Y-112350000D01*
X96524504Y-112351204D01*
X96524504Y-112351204D01*
G37*
D16*
X96250000Y-113350000D03*
D14*
X103150000Y-99700000D03*
D15*
X106076815Y-102626815D03*
X99025000Y-99700000D03*
X106076815Y-96773185D03*
X100223185Y-96773185D03*
X100223185Y-102626815D03*
X107275000Y-99700000D03*
X103150000Y-103825000D03*
X103150000Y-95575000D03*
X100223185Y-117073185D03*
X99025000Y-120000000D03*
X100223185Y-122926815D03*
X103150000Y-124125000D03*
X106076815Y-122926815D03*
X107275000Y-120000000D03*
X106076815Y-117073185D03*
X103150000Y-115875000D03*
D14*
X103150000Y-120000000D03*
D10*
G36*
X65924504Y-125651204D02*
X65948773Y-125654804D01*
X65972571Y-125660765D01*
X65995671Y-125669030D01*
X66017849Y-125679520D01*
X66038893Y-125692133D01*
X66058598Y-125706747D01*
X66076777Y-125723223D01*
X66093253Y-125741402D01*
X66107867Y-125761107D01*
X66120480Y-125782151D01*
X66130970Y-125804329D01*
X66139235Y-125827429D01*
X66145196Y-125851227D01*
X66148796Y-125875496D01*
X66150000Y-125900000D01*
X66150000Y-127400000D01*
X66148796Y-127424504D01*
X66145196Y-127448773D01*
X66139235Y-127472571D01*
X66130970Y-127495671D01*
X66120480Y-127517849D01*
X66107867Y-127538893D01*
X66093253Y-127558598D01*
X66076777Y-127576777D01*
X66058598Y-127593253D01*
X66038893Y-127607867D01*
X66017849Y-127620480D01*
X65995671Y-127630970D01*
X65972571Y-127639235D01*
X65948773Y-127645196D01*
X65924504Y-127648796D01*
X65900000Y-127650000D01*
X65400000Y-127650000D01*
X65375496Y-127648796D01*
X65351227Y-127645196D01*
X65327429Y-127639235D01*
X65304329Y-127630970D01*
X65282151Y-127620480D01*
X65261107Y-127607867D01*
X65241402Y-127593253D01*
X65223223Y-127576777D01*
X65206747Y-127558598D01*
X65192133Y-127538893D01*
X65179520Y-127517849D01*
X65169030Y-127495671D01*
X65160765Y-127472571D01*
X65154804Y-127448773D01*
X65151204Y-127424504D01*
X65150000Y-127400000D01*
X65150000Y-125900000D01*
X65151204Y-125875496D01*
X65154804Y-125851227D01*
X65160765Y-125827429D01*
X65169030Y-125804329D01*
X65179520Y-125782151D01*
X65192133Y-125761107D01*
X65206747Y-125741402D01*
X65223223Y-125723223D01*
X65241402Y-125706747D01*
X65261107Y-125692133D01*
X65282151Y-125679520D01*
X65304329Y-125669030D01*
X65327429Y-125660765D01*
X65351227Y-125654804D01*
X65375496Y-125651204D01*
X65400000Y-125650000D01*
X65900000Y-125650000D01*
X65924504Y-125651204D01*
X65924504Y-125651204D01*
G37*
D16*
X65650000Y-126650000D03*
D10*
G36*
X52124504Y-132651204D02*
X52148773Y-132654804D01*
X52172571Y-132660765D01*
X52195671Y-132669030D01*
X52217849Y-132679520D01*
X52238893Y-132692133D01*
X52258598Y-132706747D01*
X52276777Y-132723223D01*
X52293253Y-132741402D01*
X52307867Y-132761107D01*
X52320480Y-132782151D01*
X52330970Y-132804329D01*
X52339235Y-132827429D01*
X52345196Y-132851227D01*
X52348796Y-132875496D01*
X52350000Y-132900000D01*
X52350000Y-134400000D01*
X52348796Y-134424504D01*
X52345196Y-134448773D01*
X52339235Y-134472571D01*
X52330970Y-134495671D01*
X52320480Y-134517849D01*
X52307867Y-134538893D01*
X52293253Y-134558598D01*
X52276777Y-134576777D01*
X52258598Y-134593253D01*
X52238893Y-134607867D01*
X52217849Y-134620480D01*
X52195671Y-134630970D01*
X52172571Y-134639235D01*
X52148773Y-134645196D01*
X52124504Y-134648796D01*
X52100000Y-134650000D01*
X51600000Y-134650000D01*
X51575496Y-134648796D01*
X51551227Y-134645196D01*
X51527429Y-134639235D01*
X51504329Y-134630970D01*
X51482151Y-134620480D01*
X51461107Y-134607867D01*
X51441402Y-134593253D01*
X51423223Y-134576777D01*
X51406747Y-134558598D01*
X51392133Y-134538893D01*
X51379520Y-134517849D01*
X51369030Y-134495671D01*
X51360765Y-134472571D01*
X51354804Y-134448773D01*
X51351204Y-134424504D01*
X51350000Y-134400000D01*
X51350000Y-132900000D01*
X51351204Y-132875496D01*
X51354804Y-132851227D01*
X51360765Y-132827429D01*
X51369030Y-132804329D01*
X51379520Y-132782151D01*
X51392133Y-132761107D01*
X51406747Y-132741402D01*
X51423223Y-132723223D01*
X51441402Y-132706747D01*
X51461107Y-132692133D01*
X51482151Y-132679520D01*
X51504329Y-132669030D01*
X51527429Y-132660765D01*
X51551227Y-132654804D01*
X51575496Y-132651204D01*
X51600000Y-132650000D01*
X52100000Y-132650000D01*
X52124504Y-132651204D01*
X52124504Y-132651204D01*
G37*
D16*
X51850000Y-133650000D03*
D14*
X58750000Y-120000000D03*
D15*
X61676815Y-122926815D03*
X54625000Y-120000000D03*
X61676815Y-117073185D03*
X55823185Y-117073185D03*
X55823185Y-122926815D03*
X62875000Y-120000000D03*
X58750000Y-124125000D03*
X58750000Y-115875000D03*
X55823185Y-137373185D03*
X54625000Y-140300000D03*
X55823185Y-143226815D03*
X58750000Y-144425000D03*
X61676815Y-143226815D03*
X62875000Y-140300000D03*
X61676815Y-137373185D03*
X58750000Y-136175000D03*
D14*
X58750000Y-140300000D03*
D10*
G36*
X165424504Y-132651204D02*
X165448773Y-132654804D01*
X165472571Y-132660765D01*
X165495671Y-132669030D01*
X165517849Y-132679520D01*
X165538893Y-132692133D01*
X165558598Y-132706747D01*
X165576777Y-132723223D01*
X165593253Y-132741402D01*
X165607867Y-132761107D01*
X165620480Y-132782151D01*
X165630970Y-132804329D01*
X165639235Y-132827429D01*
X165645196Y-132851227D01*
X165648796Y-132875496D01*
X165650000Y-132900000D01*
X165650000Y-134400000D01*
X165648796Y-134424504D01*
X165645196Y-134448773D01*
X165639235Y-134472571D01*
X165630970Y-134495671D01*
X165620480Y-134517849D01*
X165607867Y-134538893D01*
X165593253Y-134558598D01*
X165576777Y-134576777D01*
X165558598Y-134593253D01*
X165538893Y-134607867D01*
X165517849Y-134620480D01*
X165495671Y-134630970D01*
X165472571Y-134639235D01*
X165448773Y-134645196D01*
X165424504Y-134648796D01*
X165400000Y-134650000D01*
X164900000Y-134650000D01*
X164875496Y-134648796D01*
X164851227Y-134645196D01*
X164827429Y-134639235D01*
X164804329Y-134630970D01*
X164782151Y-134620480D01*
X164761107Y-134607867D01*
X164741402Y-134593253D01*
X164723223Y-134576777D01*
X164706747Y-134558598D01*
X164692133Y-134538893D01*
X164679520Y-134517849D01*
X164669030Y-134495671D01*
X164660765Y-134472571D01*
X164654804Y-134448773D01*
X164651204Y-134424504D01*
X164650000Y-134400000D01*
X164650000Y-132900000D01*
X164651204Y-132875496D01*
X164654804Y-132851227D01*
X164660765Y-132827429D01*
X164669030Y-132804329D01*
X164679520Y-132782151D01*
X164692133Y-132761107D01*
X164706747Y-132741402D01*
X164723223Y-132723223D01*
X164741402Y-132706747D01*
X164761107Y-132692133D01*
X164782151Y-132679520D01*
X164804329Y-132669030D01*
X164827429Y-132660765D01*
X164851227Y-132654804D01*
X164875496Y-132651204D01*
X164900000Y-132650000D01*
X165400000Y-132650000D01*
X165424504Y-132651204D01*
X165424504Y-132651204D01*
G37*
D16*
X165150000Y-133650000D03*
D10*
G36*
X179224504Y-125651204D02*
X179248773Y-125654804D01*
X179272571Y-125660765D01*
X179295671Y-125669030D01*
X179317849Y-125679520D01*
X179338893Y-125692133D01*
X179358598Y-125706747D01*
X179376777Y-125723223D01*
X179393253Y-125741402D01*
X179407867Y-125761107D01*
X179420480Y-125782151D01*
X179430970Y-125804329D01*
X179439235Y-125827429D01*
X179445196Y-125851227D01*
X179448796Y-125875496D01*
X179450000Y-125900000D01*
X179450000Y-127400000D01*
X179448796Y-127424504D01*
X179445196Y-127448773D01*
X179439235Y-127472571D01*
X179430970Y-127495671D01*
X179420480Y-127517849D01*
X179407867Y-127538893D01*
X179393253Y-127558598D01*
X179376777Y-127576777D01*
X179358598Y-127593253D01*
X179338893Y-127607867D01*
X179317849Y-127620480D01*
X179295671Y-127630970D01*
X179272571Y-127639235D01*
X179248773Y-127645196D01*
X179224504Y-127648796D01*
X179200000Y-127650000D01*
X178700000Y-127650000D01*
X178675496Y-127648796D01*
X178651227Y-127645196D01*
X178627429Y-127639235D01*
X178604329Y-127630970D01*
X178582151Y-127620480D01*
X178561107Y-127607867D01*
X178541402Y-127593253D01*
X178523223Y-127576777D01*
X178506747Y-127558598D01*
X178492133Y-127538893D01*
X178479520Y-127517849D01*
X178469030Y-127495671D01*
X178460765Y-127472571D01*
X178454804Y-127448773D01*
X178451204Y-127424504D01*
X178450000Y-127400000D01*
X178450000Y-125900000D01*
X178451204Y-125875496D01*
X178454804Y-125851227D01*
X178460765Y-125827429D01*
X178469030Y-125804329D01*
X178479520Y-125782151D01*
X178492133Y-125761107D01*
X178506747Y-125741402D01*
X178523223Y-125723223D01*
X178541402Y-125706747D01*
X178561107Y-125692133D01*
X178582151Y-125679520D01*
X178604329Y-125669030D01*
X178627429Y-125660765D01*
X178651227Y-125654804D01*
X178675496Y-125651204D01*
X178700000Y-125650000D01*
X179200000Y-125650000D01*
X179224504Y-125651204D01*
X179224504Y-125651204D01*
G37*
D16*
X178950000Y-126650000D03*
D14*
X172050000Y-140300000D03*
D15*
X169123185Y-137373185D03*
X176175000Y-140300000D03*
X169123185Y-143226815D03*
X174976815Y-143226815D03*
X174976815Y-137373185D03*
X167925000Y-140300000D03*
X172050000Y-136175000D03*
X172050000Y-144425000D03*
X174976815Y-122926815D03*
X176175000Y-120000000D03*
X174976815Y-117073185D03*
X172050000Y-115875000D03*
X169123185Y-117073185D03*
X167925000Y-120000000D03*
X169123185Y-122926815D03*
X172050000Y-124125000D03*
D14*
X172050000Y-120000000D03*
D10*
G36*
X121024504Y-112351204D02*
X121048773Y-112354804D01*
X121072571Y-112360765D01*
X121095671Y-112369030D01*
X121117849Y-112379520D01*
X121138893Y-112392133D01*
X121158598Y-112406747D01*
X121176777Y-112423223D01*
X121193253Y-112441402D01*
X121207867Y-112461107D01*
X121220480Y-112482151D01*
X121230970Y-112504329D01*
X121239235Y-112527429D01*
X121245196Y-112551227D01*
X121248796Y-112575496D01*
X121250000Y-112600000D01*
X121250000Y-114100000D01*
X121248796Y-114124504D01*
X121245196Y-114148773D01*
X121239235Y-114172571D01*
X121230970Y-114195671D01*
X121220480Y-114217849D01*
X121207867Y-114238893D01*
X121193253Y-114258598D01*
X121176777Y-114276777D01*
X121158598Y-114293253D01*
X121138893Y-114307867D01*
X121117849Y-114320480D01*
X121095671Y-114330970D01*
X121072571Y-114339235D01*
X121048773Y-114345196D01*
X121024504Y-114348796D01*
X121000000Y-114350000D01*
X120500000Y-114350000D01*
X120475496Y-114348796D01*
X120451227Y-114345196D01*
X120427429Y-114339235D01*
X120404329Y-114330970D01*
X120382151Y-114320480D01*
X120361107Y-114307867D01*
X120341402Y-114293253D01*
X120323223Y-114276777D01*
X120306747Y-114258598D01*
X120292133Y-114238893D01*
X120279520Y-114217849D01*
X120269030Y-114195671D01*
X120260765Y-114172571D01*
X120254804Y-114148773D01*
X120251204Y-114124504D01*
X120250000Y-114100000D01*
X120250000Y-112600000D01*
X120251204Y-112575496D01*
X120254804Y-112551227D01*
X120260765Y-112527429D01*
X120269030Y-112504329D01*
X120279520Y-112482151D01*
X120292133Y-112461107D01*
X120306747Y-112441402D01*
X120323223Y-112423223D01*
X120341402Y-112406747D01*
X120361107Y-112392133D01*
X120382151Y-112379520D01*
X120404329Y-112369030D01*
X120427429Y-112360765D01*
X120451227Y-112354804D01*
X120475496Y-112351204D01*
X120500000Y-112350000D01*
X121000000Y-112350000D01*
X121024504Y-112351204D01*
X121024504Y-112351204D01*
G37*
D16*
X120750000Y-113350000D03*
D10*
G36*
X134824504Y-105351204D02*
X134848773Y-105354804D01*
X134872571Y-105360765D01*
X134895671Y-105369030D01*
X134917849Y-105379520D01*
X134938893Y-105392133D01*
X134958598Y-105406747D01*
X134976777Y-105423223D01*
X134993253Y-105441402D01*
X135007867Y-105461107D01*
X135020480Y-105482151D01*
X135030970Y-105504329D01*
X135039235Y-105527429D01*
X135045196Y-105551227D01*
X135048796Y-105575496D01*
X135050000Y-105600000D01*
X135050000Y-107100000D01*
X135048796Y-107124504D01*
X135045196Y-107148773D01*
X135039235Y-107172571D01*
X135030970Y-107195671D01*
X135020480Y-107217849D01*
X135007867Y-107238893D01*
X134993253Y-107258598D01*
X134976777Y-107276777D01*
X134958598Y-107293253D01*
X134938893Y-107307867D01*
X134917849Y-107320480D01*
X134895671Y-107330970D01*
X134872571Y-107339235D01*
X134848773Y-107345196D01*
X134824504Y-107348796D01*
X134800000Y-107350000D01*
X134300000Y-107350000D01*
X134275496Y-107348796D01*
X134251227Y-107345196D01*
X134227429Y-107339235D01*
X134204329Y-107330970D01*
X134182151Y-107320480D01*
X134161107Y-107307867D01*
X134141402Y-107293253D01*
X134123223Y-107276777D01*
X134106747Y-107258598D01*
X134092133Y-107238893D01*
X134079520Y-107217849D01*
X134069030Y-107195671D01*
X134060765Y-107172571D01*
X134054804Y-107148773D01*
X134051204Y-107124504D01*
X134050000Y-107100000D01*
X134050000Y-105600000D01*
X134051204Y-105575496D01*
X134054804Y-105551227D01*
X134060765Y-105527429D01*
X134069030Y-105504329D01*
X134079520Y-105482151D01*
X134092133Y-105461107D01*
X134106747Y-105441402D01*
X134123223Y-105423223D01*
X134141402Y-105406747D01*
X134161107Y-105392133D01*
X134182151Y-105379520D01*
X134204329Y-105369030D01*
X134227429Y-105360765D01*
X134251227Y-105354804D01*
X134275496Y-105351204D01*
X134300000Y-105350000D01*
X134800000Y-105350000D01*
X134824504Y-105351204D01*
X134824504Y-105351204D01*
G37*
D16*
X134550000Y-106350000D03*
D14*
X127650000Y-120000000D03*
D15*
X124723185Y-117073185D03*
X131775000Y-120000000D03*
X124723185Y-122926815D03*
X130576815Y-122926815D03*
X130576815Y-117073185D03*
X123525000Y-120000000D03*
X127650000Y-115875000D03*
X127650000Y-124125000D03*
X130576815Y-102626815D03*
X131775000Y-99700000D03*
X130576815Y-96773185D03*
X127650000Y-95575000D03*
X124723185Y-96773185D03*
X123525000Y-99700000D03*
X124723185Y-102626815D03*
X127650000Y-103825000D03*
D14*
X127650000Y-99700000D03*
D10*
G36*
X248124504Y-105351204D02*
X248148773Y-105354804D01*
X248172571Y-105360765D01*
X248195671Y-105369030D01*
X248217849Y-105379520D01*
X248238893Y-105392133D01*
X248258598Y-105406747D01*
X248276777Y-105423223D01*
X248293253Y-105441402D01*
X248307867Y-105461107D01*
X248320480Y-105482151D01*
X248330970Y-105504329D01*
X248339235Y-105527429D01*
X248345196Y-105551227D01*
X248348796Y-105575496D01*
X248350000Y-105600000D01*
X248350000Y-107100000D01*
X248348796Y-107124504D01*
X248345196Y-107148773D01*
X248339235Y-107172571D01*
X248330970Y-107195671D01*
X248320480Y-107217849D01*
X248307867Y-107238893D01*
X248293253Y-107258598D01*
X248276777Y-107276777D01*
X248258598Y-107293253D01*
X248238893Y-107307867D01*
X248217849Y-107320480D01*
X248195671Y-107330970D01*
X248172571Y-107339235D01*
X248148773Y-107345196D01*
X248124504Y-107348796D01*
X248100000Y-107350000D01*
X247600000Y-107350000D01*
X247575496Y-107348796D01*
X247551227Y-107345196D01*
X247527429Y-107339235D01*
X247504329Y-107330970D01*
X247482151Y-107320480D01*
X247461107Y-107307867D01*
X247441402Y-107293253D01*
X247423223Y-107276777D01*
X247406747Y-107258598D01*
X247392133Y-107238893D01*
X247379520Y-107217849D01*
X247369030Y-107195671D01*
X247360765Y-107172571D01*
X247354804Y-107148773D01*
X247351204Y-107124504D01*
X247350000Y-107100000D01*
X247350000Y-105600000D01*
X247351204Y-105575496D01*
X247354804Y-105551227D01*
X247360765Y-105527429D01*
X247369030Y-105504329D01*
X247379520Y-105482151D01*
X247392133Y-105461107D01*
X247406747Y-105441402D01*
X247423223Y-105423223D01*
X247441402Y-105406747D01*
X247461107Y-105392133D01*
X247482151Y-105379520D01*
X247504329Y-105369030D01*
X247527429Y-105360765D01*
X247551227Y-105354804D01*
X247575496Y-105351204D01*
X247600000Y-105350000D01*
X248100000Y-105350000D01*
X248124504Y-105351204D01*
X248124504Y-105351204D01*
G37*
D16*
X247850000Y-106350000D03*
D10*
G36*
X234324504Y-112351204D02*
X234348773Y-112354804D01*
X234372571Y-112360765D01*
X234395671Y-112369030D01*
X234417849Y-112379520D01*
X234438893Y-112392133D01*
X234458598Y-112406747D01*
X234476777Y-112423223D01*
X234493253Y-112441402D01*
X234507867Y-112461107D01*
X234520480Y-112482151D01*
X234530970Y-112504329D01*
X234539235Y-112527429D01*
X234545196Y-112551227D01*
X234548796Y-112575496D01*
X234550000Y-112600000D01*
X234550000Y-114100000D01*
X234548796Y-114124504D01*
X234545196Y-114148773D01*
X234539235Y-114172571D01*
X234530970Y-114195671D01*
X234520480Y-114217849D01*
X234507867Y-114238893D01*
X234493253Y-114258598D01*
X234476777Y-114276777D01*
X234458598Y-114293253D01*
X234438893Y-114307867D01*
X234417849Y-114320480D01*
X234395671Y-114330970D01*
X234372571Y-114339235D01*
X234348773Y-114345196D01*
X234324504Y-114348796D01*
X234300000Y-114350000D01*
X233800000Y-114350000D01*
X233775496Y-114348796D01*
X233751227Y-114345196D01*
X233727429Y-114339235D01*
X233704329Y-114330970D01*
X233682151Y-114320480D01*
X233661107Y-114307867D01*
X233641402Y-114293253D01*
X233623223Y-114276777D01*
X233606747Y-114258598D01*
X233592133Y-114238893D01*
X233579520Y-114217849D01*
X233569030Y-114195671D01*
X233560765Y-114172571D01*
X233554804Y-114148773D01*
X233551204Y-114124504D01*
X233550000Y-114100000D01*
X233550000Y-112600000D01*
X233551204Y-112575496D01*
X233554804Y-112551227D01*
X233560765Y-112527429D01*
X233569030Y-112504329D01*
X233579520Y-112482151D01*
X233592133Y-112461107D01*
X233606747Y-112441402D01*
X233623223Y-112423223D01*
X233641402Y-112406747D01*
X233661107Y-112392133D01*
X233682151Y-112379520D01*
X233704329Y-112369030D01*
X233727429Y-112360765D01*
X233751227Y-112354804D01*
X233775496Y-112351204D01*
X233800000Y-112350000D01*
X234300000Y-112350000D01*
X234324504Y-112351204D01*
X234324504Y-112351204D01*
G37*
D16*
X234050000Y-113350000D03*
D14*
X240950000Y-99700000D03*
D15*
X243876815Y-102626815D03*
X236825000Y-99700000D03*
X243876815Y-96773185D03*
X238023185Y-96773185D03*
X238023185Y-102626815D03*
X245075000Y-99700000D03*
X240950000Y-103825000D03*
X240950000Y-95575000D03*
X238023185Y-117073185D03*
X236825000Y-120000000D03*
X238023185Y-122926815D03*
X240950000Y-124125000D03*
X243876815Y-122926815D03*
X245075000Y-120000000D03*
X243876815Y-117073185D03*
X240950000Y-115875000D03*
D14*
X240950000Y-120000000D03*
D10*
G36*
X203724504Y-125651204D02*
X203748773Y-125654804D01*
X203772571Y-125660765D01*
X203795671Y-125669030D01*
X203817849Y-125679520D01*
X203838893Y-125692133D01*
X203858598Y-125706747D01*
X203876777Y-125723223D01*
X203893253Y-125741402D01*
X203907867Y-125761107D01*
X203920480Y-125782151D01*
X203930970Y-125804329D01*
X203939235Y-125827429D01*
X203945196Y-125851227D01*
X203948796Y-125875496D01*
X203950000Y-125900000D01*
X203950000Y-127400000D01*
X203948796Y-127424504D01*
X203945196Y-127448773D01*
X203939235Y-127472571D01*
X203930970Y-127495671D01*
X203920480Y-127517849D01*
X203907867Y-127538893D01*
X203893253Y-127558598D01*
X203876777Y-127576777D01*
X203858598Y-127593253D01*
X203838893Y-127607867D01*
X203817849Y-127620480D01*
X203795671Y-127630970D01*
X203772571Y-127639235D01*
X203748773Y-127645196D01*
X203724504Y-127648796D01*
X203700000Y-127650000D01*
X203200000Y-127650000D01*
X203175496Y-127648796D01*
X203151227Y-127645196D01*
X203127429Y-127639235D01*
X203104329Y-127630970D01*
X203082151Y-127620480D01*
X203061107Y-127607867D01*
X203041402Y-127593253D01*
X203023223Y-127576777D01*
X203006747Y-127558598D01*
X202992133Y-127538893D01*
X202979520Y-127517849D01*
X202969030Y-127495671D01*
X202960765Y-127472571D01*
X202954804Y-127448773D01*
X202951204Y-127424504D01*
X202950000Y-127400000D01*
X202950000Y-125900000D01*
X202951204Y-125875496D01*
X202954804Y-125851227D01*
X202960765Y-125827429D01*
X202969030Y-125804329D01*
X202979520Y-125782151D01*
X202992133Y-125761107D01*
X203006747Y-125741402D01*
X203023223Y-125723223D01*
X203041402Y-125706747D01*
X203061107Y-125692133D01*
X203082151Y-125679520D01*
X203104329Y-125669030D01*
X203127429Y-125660765D01*
X203151227Y-125654804D01*
X203175496Y-125651204D01*
X203200000Y-125650000D01*
X203700000Y-125650000D01*
X203724504Y-125651204D01*
X203724504Y-125651204D01*
G37*
D16*
X203450000Y-126650000D03*
D10*
G36*
X189924504Y-132651204D02*
X189948773Y-132654804D01*
X189972571Y-132660765D01*
X189995671Y-132669030D01*
X190017849Y-132679520D01*
X190038893Y-132692133D01*
X190058598Y-132706747D01*
X190076777Y-132723223D01*
X190093253Y-132741402D01*
X190107867Y-132761107D01*
X190120480Y-132782151D01*
X190130970Y-132804329D01*
X190139235Y-132827429D01*
X190145196Y-132851227D01*
X190148796Y-132875496D01*
X190150000Y-132900000D01*
X190150000Y-134400000D01*
X190148796Y-134424504D01*
X190145196Y-134448773D01*
X190139235Y-134472571D01*
X190130970Y-134495671D01*
X190120480Y-134517849D01*
X190107867Y-134538893D01*
X190093253Y-134558598D01*
X190076777Y-134576777D01*
X190058598Y-134593253D01*
X190038893Y-134607867D01*
X190017849Y-134620480D01*
X189995671Y-134630970D01*
X189972571Y-134639235D01*
X189948773Y-134645196D01*
X189924504Y-134648796D01*
X189900000Y-134650000D01*
X189400000Y-134650000D01*
X189375496Y-134648796D01*
X189351227Y-134645196D01*
X189327429Y-134639235D01*
X189304329Y-134630970D01*
X189282151Y-134620480D01*
X189261107Y-134607867D01*
X189241402Y-134593253D01*
X189223223Y-134576777D01*
X189206747Y-134558598D01*
X189192133Y-134538893D01*
X189179520Y-134517849D01*
X189169030Y-134495671D01*
X189160765Y-134472571D01*
X189154804Y-134448773D01*
X189151204Y-134424504D01*
X189150000Y-134400000D01*
X189150000Y-132900000D01*
X189151204Y-132875496D01*
X189154804Y-132851227D01*
X189160765Y-132827429D01*
X189169030Y-132804329D01*
X189179520Y-132782151D01*
X189192133Y-132761107D01*
X189206747Y-132741402D01*
X189223223Y-132723223D01*
X189241402Y-132706747D01*
X189261107Y-132692133D01*
X189282151Y-132679520D01*
X189304329Y-132669030D01*
X189327429Y-132660765D01*
X189351227Y-132654804D01*
X189375496Y-132651204D01*
X189400000Y-132650000D01*
X189900000Y-132650000D01*
X189924504Y-132651204D01*
X189924504Y-132651204D01*
G37*
D16*
X189650000Y-133650000D03*
D14*
X196550000Y-120000000D03*
D15*
X199476815Y-122926815D03*
X192425000Y-120000000D03*
X199476815Y-117073185D03*
X193623185Y-117073185D03*
X193623185Y-122926815D03*
X200675000Y-120000000D03*
X196550000Y-124125000D03*
X196550000Y-115875000D03*
X193623185Y-137373185D03*
X192425000Y-140300000D03*
X193623185Y-143226815D03*
X196550000Y-144425000D03*
X199476815Y-143226815D03*
X200675000Y-140300000D03*
X199476815Y-137373185D03*
X196550000Y-136175000D03*
D14*
X196550000Y-140300000D03*
X58750000Y-99700000D03*
D15*
X58750000Y-95575000D03*
X61676815Y-96773185D03*
X62875000Y-99700000D03*
X61676815Y-102626815D03*
X58750000Y-103825000D03*
X55823185Y-102626815D03*
X54625000Y-99700000D03*
X55823185Y-96773185D03*
D10*
G36*
X52874504Y-92301204D02*
X52898773Y-92304804D01*
X52922571Y-92310765D01*
X52945671Y-92319030D01*
X52967849Y-92329520D01*
X52988893Y-92342133D01*
X53008598Y-92356747D01*
X53026777Y-92373223D01*
X53043253Y-92391402D01*
X53057867Y-92411107D01*
X53070480Y-92432151D01*
X53080970Y-92454329D01*
X53089235Y-92477429D01*
X53095196Y-92501227D01*
X53098796Y-92525496D01*
X53100000Y-92550000D01*
X53100000Y-93050000D01*
X53098796Y-93074504D01*
X53095196Y-93098773D01*
X53089235Y-93122571D01*
X53080970Y-93145671D01*
X53070480Y-93167849D01*
X53057867Y-93188893D01*
X53043253Y-93208598D01*
X53026777Y-93226777D01*
X53008598Y-93243253D01*
X52988893Y-93257867D01*
X52967849Y-93270480D01*
X52945671Y-93280970D01*
X52922571Y-93289235D01*
X52898773Y-93295196D01*
X52874504Y-93298796D01*
X52850000Y-93300000D01*
X51350000Y-93300000D01*
X51325496Y-93298796D01*
X51301227Y-93295196D01*
X51277429Y-93289235D01*
X51254329Y-93280970D01*
X51232151Y-93270480D01*
X51211107Y-93257867D01*
X51191402Y-93243253D01*
X51173223Y-93226777D01*
X51156747Y-93208598D01*
X51142133Y-93188893D01*
X51129520Y-93167849D01*
X51119030Y-93145671D01*
X51110765Y-93122571D01*
X51104804Y-93098773D01*
X51101204Y-93074504D01*
X51100000Y-93050000D01*
X51100000Y-92550000D01*
X51101204Y-92525496D01*
X51104804Y-92501227D01*
X51110765Y-92477429D01*
X51119030Y-92454329D01*
X51129520Y-92432151D01*
X51142133Y-92411107D01*
X51156747Y-92391402D01*
X51173223Y-92373223D01*
X51191402Y-92356747D01*
X51211107Y-92342133D01*
X51232151Y-92329520D01*
X51254329Y-92319030D01*
X51277429Y-92310765D01*
X51301227Y-92304804D01*
X51325496Y-92301204D01*
X51350000Y-92300000D01*
X52850000Y-92300000D01*
X52874504Y-92301204D01*
X52874504Y-92301204D01*
G37*
D16*
X52100000Y-92800000D03*
D10*
G36*
X52874504Y-106101204D02*
X52898773Y-106104804D01*
X52922571Y-106110765D01*
X52945671Y-106119030D01*
X52967849Y-106129520D01*
X52988893Y-106142133D01*
X53008598Y-106156747D01*
X53026777Y-106173223D01*
X53043253Y-106191402D01*
X53057867Y-106211107D01*
X53070480Y-106232151D01*
X53080970Y-106254329D01*
X53089235Y-106277429D01*
X53095196Y-106301227D01*
X53098796Y-106325496D01*
X53100000Y-106350000D01*
X53100000Y-106850000D01*
X53098796Y-106874504D01*
X53095196Y-106898773D01*
X53089235Y-106922571D01*
X53080970Y-106945671D01*
X53070480Y-106967849D01*
X53057867Y-106988893D01*
X53043253Y-107008598D01*
X53026777Y-107026777D01*
X53008598Y-107043253D01*
X52988893Y-107057867D01*
X52967849Y-107070480D01*
X52945671Y-107080970D01*
X52922571Y-107089235D01*
X52898773Y-107095196D01*
X52874504Y-107098796D01*
X52850000Y-107100000D01*
X51350000Y-107100000D01*
X51325496Y-107098796D01*
X51301227Y-107095196D01*
X51277429Y-107089235D01*
X51254329Y-107080970D01*
X51232151Y-107070480D01*
X51211107Y-107057867D01*
X51191402Y-107043253D01*
X51173223Y-107026777D01*
X51156747Y-107008598D01*
X51142133Y-106988893D01*
X51129520Y-106967849D01*
X51119030Y-106945671D01*
X51110765Y-106922571D01*
X51104804Y-106898773D01*
X51101204Y-106874504D01*
X51100000Y-106850000D01*
X51100000Y-106350000D01*
X51101204Y-106325496D01*
X51104804Y-106301227D01*
X51110765Y-106277429D01*
X51119030Y-106254329D01*
X51129520Y-106232151D01*
X51142133Y-106211107D01*
X51156747Y-106191402D01*
X51173223Y-106173223D01*
X51191402Y-106156747D01*
X51211107Y-106142133D01*
X51232151Y-106129520D01*
X51254329Y-106119030D01*
X51277429Y-106110765D01*
X51301227Y-106104804D01*
X51325496Y-106101204D01*
X51350000Y-106100000D01*
X52850000Y-106100000D01*
X52874504Y-106101204D01*
X52874504Y-106101204D01*
G37*
D16*
X52100000Y-106600000D03*
D17*
X80950000Y-100970000D03*
D18*
X80950000Y-98430000D03*
X80950000Y-121270000D03*
D17*
X80950000Y-118730000D03*
X80950000Y-141570000D03*
D18*
X80950000Y-139030000D03*
D17*
X149850000Y-141570000D03*
D18*
X149850000Y-139030000D03*
D17*
X149850000Y-118730000D03*
D18*
X149850000Y-121270000D03*
D17*
X149850000Y-100970000D03*
D18*
X149850000Y-98430000D03*
D17*
X218750000Y-100970000D03*
D18*
X218750000Y-98430000D03*
D17*
X218750000Y-118730000D03*
D18*
X218750000Y-121270000D03*
X218750000Y-139030000D03*
D17*
X218750000Y-141570000D03*
M02*
