%TF.GenerationSoftware,KiCad,Pcbnew,(5.0.0-rc2-dev-733-g23a9fcd91)*%
%TF.CreationDate,2018-05-26T11:51:58+02:00*%
%TF.ProjectId,CellsBoard,43656C6C73426F6172642E6B69636164,rev?*%
%TF.SameCoordinates,Original*%
%TF.FileFunction,Copper,L1,Top,Signal*%
%TF.FilePolarity,Positive*%
%FSLAX46Y46*%
G04 Gerber Fmt 4.6, Leading zero omitted, Abs format (unit mm)*
G04 Created by KiCad (PCBNEW (5.0.0-rc2-dev-733-g23a9fcd91)) date 05/26/18 11:51:58*
%MOMM*%
%LPD*%
G01*
G04 APERTURE LIST*
%ADD10C,0.150000*%
%ADD11O,2.000000X1.500000*%
%ADD12R,2.000000X1.500000*%
%ADD13C,1.200000*%
%ADD14R,1.250000X0.250000*%
%ADD15C,11.000000*%
%ADD16C,0.900000*%
%ADD17C,1.500000*%
%ADD18R,1.300000X0.750000*%
%ADD19O,1.700000X1.700000*%
%ADD20R,1.700000X1.700000*%
%ADD21R,1.500000X0.970000*%
%ADD22R,0.970000X1.500000*%
%ADD23R,1.070000X1.800000*%
%ADD24R,1.500000X1.000000*%
%ADD25R,0.900000X0.800000*%
%ADD26C,0.800000*%
%ADD27C,1.600000*%
%ADD28C,0.250000*%
%ADD29C,0.500000*%
G04 APERTURE END LIST*
D10*
X226950000Y-132300000D02*
X229950000Y-132300000D01*
X225950000Y-147300000D02*
X225950000Y-133300000D01*
X229950000Y-148300000D02*
X226950000Y-148300000D01*
X230950000Y-133300000D02*
X230950000Y-147300000D01*
X226950000Y-148300000D02*
G75*
G02X225950000Y-147300000I0J1000000D01*
G01*
X225950000Y-133300000D02*
G75*
G02X226950000Y-132300000I1000000J0D01*
G01*
X229950000Y-132300000D02*
G75*
G02X230950000Y-133300000I0J-1000000D01*
G01*
X230950000Y-147300000D02*
G75*
G02X229950000Y-148300000I-1000000J0D01*
G01*
X247500000Y-90000000D02*
X52500000Y-90000000D01*
X247500000Y-90000000D02*
G75*
G02X250000000Y-92500000I0J-2500000D01*
G01*
X250000000Y-147500000D02*
X250000000Y-92500000D01*
X250000000Y-147500000D02*
G75*
G02X247500000Y-150000000I-2500000J0D01*
G01*
X52500000Y-150000000D02*
X247500000Y-150000000D01*
X52500000Y-150000000D02*
G75*
G02X50000000Y-147500000I0J2500000D01*
G01*
X50000000Y-92500000D02*
X50000000Y-147500000D01*
X50000000Y-92500000D02*
G75*
G02X52500000Y-90000000I2500000J0D01*
G01*
D11*
X73450000Y-108350000D03*
D12*
X73450000Y-111350000D03*
D13*
X71490000Y-105350000D03*
X71490000Y-114350000D03*
D11*
X73450000Y-128650000D03*
D12*
X73450000Y-131650000D03*
D13*
X71490000Y-125650000D03*
X71490000Y-134650000D03*
D14*
X153225000Y-104100000D03*
X146475000Y-104100000D03*
X153225000Y-104600000D03*
X146475000Y-104600000D03*
X153225000Y-105100000D03*
X146475000Y-105100000D03*
X153225000Y-105600000D03*
X146475000Y-105600000D03*
X153225000Y-106100000D03*
X146475000Y-106100000D03*
X153225000Y-106600000D03*
X146475000Y-106600000D03*
X153225000Y-107100000D03*
X146475000Y-107100000D03*
X153225000Y-107600000D03*
X146475000Y-107600000D03*
X153225000Y-108100000D03*
X146475000Y-108100000D03*
X153225000Y-108600000D03*
X146475000Y-108600000D03*
X153225000Y-109100000D03*
X146475000Y-109100000D03*
X153225000Y-109600000D03*
X146475000Y-109600000D03*
X153225000Y-110100000D03*
X146475000Y-110100000D03*
X153225000Y-110600000D03*
X146475000Y-110600000D03*
X153225000Y-111100000D03*
X146475000Y-111100000D03*
X153225000Y-111600000D03*
X146475000Y-111600000D03*
X153225000Y-112100000D03*
X146475000Y-112100000D03*
X153225000Y-112600000D03*
X146475000Y-112600000D03*
X153225000Y-113100000D03*
X146475000Y-113100000D03*
X153225000Y-113600000D03*
X146475000Y-113600000D03*
X153225000Y-114100000D03*
X146475000Y-114100000D03*
X153225000Y-114600000D03*
X146475000Y-114600000D03*
X153225000Y-115100000D03*
X146475000Y-115100000D03*
X153225000Y-115600000D03*
X146475000Y-115600000D03*
D15*
X240950000Y-140300000D03*
D16*
X240950000Y-136175000D03*
X243876815Y-137373185D03*
X245075000Y-140300000D03*
X243876815Y-143226815D03*
X240950000Y-144425000D03*
X238023185Y-143226815D03*
X236825000Y-140300000D03*
X238023185Y-137373185D03*
D10*
G36*
X242111756Y-130751806D02*
X242148159Y-130757206D01*
X242183857Y-130766147D01*
X242218506Y-130778545D01*
X242251774Y-130794280D01*
X242283339Y-130813199D01*
X242312897Y-130835121D01*
X242340165Y-130859835D01*
X242364879Y-130887103D01*
X242386801Y-130916661D01*
X242405720Y-130948226D01*
X242421455Y-130981494D01*
X242433853Y-131016143D01*
X242442794Y-131051841D01*
X242448194Y-131088244D01*
X242450000Y-131125000D01*
X242450000Y-131875000D01*
X242448194Y-131911756D01*
X242442794Y-131948159D01*
X242433853Y-131983857D01*
X242421455Y-132018506D01*
X242405720Y-132051774D01*
X242386801Y-132083339D01*
X242364879Y-132112897D01*
X242340165Y-132140165D01*
X242312897Y-132164879D01*
X242283339Y-132186801D01*
X242251774Y-132205720D01*
X242218506Y-132221455D01*
X242183857Y-132233853D01*
X242148159Y-132242794D01*
X242111756Y-132248194D01*
X242075000Y-132250000D01*
X239825000Y-132250000D01*
X239788244Y-132248194D01*
X239751841Y-132242794D01*
X239716143Y-132233853D01*
X239681494Y-132221455D01*
X239648226Y-132205720D01*
X239616661Y-132186801D01*
X239587103Y-132164879D01*
X239559835Y-132140165D01*
X239535121Y-132112897D01*
X239513199Y-132083339D01*
X239494280Y-132051774D01*
X239478545Y-132018506D01*
X239466147Y-131983857D01*
X239457206Y-131948159D01*
X239451806Y-131911756D01*
X239450000Y-131875000D01*
X239450000Y-131125000D01*
X239451806Y-131088244D01*
X239457206Y-131051841D01*
X239466147Y-131016143D01*
X239478545Y-130981494D01*
X239494280Y-130948226D01*
X239513199Y-130916661D01*
X239535121Y-130887103D01*
X239559835Y-130859835D01*
X239587103Y-130835121D01*
X239616661Y-130813199D01*
X239648226Y-130794280D01*
X239681494Y-130778545D01*
X239716143Y-130766147D01*
X239751841Y-130757206D01*
X239788244Y-130751806D01*
X239825000Y-130750000D01*
X242075000Y-130750000D01*
X242111756Y-130751806D01*
X242111756Y-130751806D01*
G37*
D17*
X240950000Y-131500000D03*
D10*
G36*
X112361756Y-138801806D02*
X112398159Y-138807206D01*
X112433857Y-138816147D01*
X112468506Y-138828545D01*
X112501774Y-138844280D01*
X112533339Y-138863199D01*
X112562897Y-138885121D01*
X112590165Y-138909835D01*
X112614879Y-138937103D01*
X112636801Y-138966661D01*
X112655720Y-138998226D01*
X112671455Y-139031494D01*
X112683853Y-139066143D01*
X112692794Y-139101841D01*
X112698194Y-139138244D01*
X112700000Y-139175000D01*
X112700000Y-141425000D01*
X112698194Y-141461756D01*
X112692794Y-141498159D01*
X112683853Y-141533857D01*
X112671455Y-141568506D01*
X112655720Y-141601774D01*
X112636801Y-141633339D01*
X112614879Y-141662897D01*
X112590165Y-141690165D01*
X112562897Y-141714879D01*
X112533339Y-141736801D01*
X112501774Y-141755720D01*
X112468506Y-141771455D01*
X112433857Y-141783853D01*
X112398159Y-141792794D01*
X112361756Y-141798194D01*
X112325000Y-141800000D01*
X111575000Y-141800000D01*
X111538244Y-141798194D01*
X111501841Y-141792794D01*
X111466143Y-141783853D01*
X111431494Y-141771455D01*
X111398226Y-141755720D01*
X111366661Y-141736801D01*
X111337103Y-141714879D01*
X111309835Y-141690165D01*
X111285121Y-141662897D01*
X111263199Y-141633339D01*
X111244280Y-141601774D01*
X111228545Y-141568506D01*
X111216147Y-141533857D01*
X111207206Y-141498159D01*
X111201806Y-141461756D01*
X111200000Y-141425000D01*
X111200000Y-139175000D01*
X111201806Y-139138244D01*
X111207206Y-139101841D01*
X111216147Y-139066143D01*
X111228545Y-139031494D01*
X111244280Y-138998226D01*
X111263199Y-138966661D01*
X111285121Y-138937103D01*
X111309835Y-138909835D01*
X111337103Y-138885121D01*
X111366661Y-138863199D01*
X111398226Y-138844280D01*
X111431494Y-138828545D01*
X111466143Y-138816147D01*
X111501841Y-138807206D01*
X111538244Y-138801806D01*
X111575000Y-138800000D01*
X112325000Y-138800000D01*
X112361756Y-138801806D01*
X112361756Y-138801806D01*
G37*
D17*
X111950000Y-140300000D03*
D10*
G36*
X119261756Y-138801806D02*
X119298159Y-138807206D01*
X119333857Y-138816147D01*
X119368506Y-138828545D01*
X119401774Y-138844280D01*
X119433339Y-138863199D01*
X119462897Y-138885121D01*
X119490165Y-138909835D01*
X119514879Y-138937103D01*
X119536801Y-138966661D01*
X119555720Y-138998226D01*
X119571455Y-139031494D01*
X119583853Y-139066143D01*
X119592794Y-139101841D01*
X119598194Y-139138244D01*
X119600000Y-139175000D01*
X119600000Y-141425000D01*
X119598194Y-141461756D01*
X119592794Y-141498159D01*
X119583853Y-141533857D01*
X119571455Y-141568506D01*
X119555720Y-141601774D01*
X119536801Y-141633339D01*
X119514879Y-141662897D01*
X119490165Y-141690165D01*
X119462897Y-141714879D01*
X119433339Y-141736801D01*
X119401774Y-141755720D01*
X119368506Y-141771455D01*
X119333857Y-141783853D01*
X119298159Y-141792794D01*
X119261756Y-141798194D01*
X119225000Y-141800000D01*
X118475000Y-141800000D01*
X118438244Y-141798194D01*
X118401841Y-141792794D01*
X118366143Y-141783853D01*
X118331494Y-141771455D01*
X118298226Y-141755720D01*
X118266661Y-141736801D01*
X118237103Y-141714879D01*
X118209835Y-141690165D01*
X118185121Y-141662897D01*
X118163199Y-141633339D01*
X118144280Y-141601774D01*
X118128545Y-141568506D01*
X118116147Y-141533857D01*
X118107206Y-141498159D01*
X118101806Y-141461756D01*
X118100000Y-141425000D01*
X118100000Y-139175000D01*
X118101806Y-139138244D01*
X118107206Y-139101841D01*
X118116147Y-139066143D01*
X118128545Y-139031494D01*
X118144280Y-138998226D01*
X118163199Y-138966661D01*
X118185121Y-138937103D01*
X118209835Y-138909835D01*
X118237103Y-138885121D01*
X118266661Y-138863199D01*
X118298226Y-138844280D01*
X118331494Y-138828545D01*
X118366143Y-138816147D01*
X118401841Y-138807206D01*
X118438244Y-138801806D01*
X118475000Y-138800000D01*
X119225000Y-138800000D01*
X119261756Y-138801806D01*
X119261756Y-138801806D01*
G37*
D17*
X118850000Y-140300000D03*
D15*
X127650000Y-140300000D03*
D16*
X124723185Y-143226815D03*
X127650000Y-136175000D03*
X130576815Y-143226815D03*
X130576815Y-137373185D03*
X124723185Y-137373185D03*
X127650000Y-144425000D03*
X123525000Y-140300000D03*
X131775000Y-140300000D03*
X106076815Y-137373185D03*
X103150000Y-136175000D03*
X100223185Y-137373185D03*
X99025000Y-140300000D03*
X100223185Y-143226815D03*
X103150000Y-144425000D03*
X106076815Y-143226815D03*
X107275000Y-140300000D03*
D15*
X103150000Y-140300000D03*
D10*
G36*
X181261756Y-98201806D02*
X181298159Y-98207206D01*
X181333857Y-98216147D01*
X181368506Y-98228545D01*
X181401774Y-98244280D01*
X181433339Y-98263199D01*
X181462897Y-98285121D01*
X181490165Y-98309835D01*
X181514879Y-98337103D01*
X181536801Y-98366661D01*
X181555720Y-98398226D01*
X181571455Y-98431494D01*
X181583853Y-98466143D01*
X181592794Y-98501841D01*
X181598194Y-98538244D01*
X181600000Y-98575000D01*
X181600000Y-100825000D01*
X181598194Y-100861756D01*
X181592794Y-100898159D01*
X181583853Y-100933857D01*
X181571455Y-100968506D01*
X181555720Y-101001774D01*
X181536801Y-101033339D01*
X181514879Y-101062897D01*
X181490165Y-101090165D01*
X181462897Y-101114879D01*
X181433339Y-101136801D01*
X181401774Y-101155720D01*
X181368506Y-101171455D01*
X181333857Y-101183853D01*
X181298159Y-101192794D01*
X181261756Y-101198194D01*
X181225000Y-101200000D01*
X180475000Y-101200000D01*
X180438244Y-101198194D01*
X180401841Y-101192794D01*
X180366143Y-101183853D01*
X180331494Y-101171455D01*
X180298226Y-101155720D01*
X180266661Y-101136801D01*
X180237103Y-101114879D01*
X180209835Y-101090165D01*
X180185121Y-101062897D01*
X180163199Y-101033339D01*
X180144280Y-101001774D01*
X180128545Y-100968506D01*
X180116147Y-100933857D01*
X180107206Y-100898159D01*
X180101806Y-100861756D01*
X180100000Y-100825000D01*
X180100000Y-98575000D01*
X180101806Y-98538244D01*
X180107206Y-98501841D01*
X180116147Y-98466143D01*
X180128545Y-98431494D01*
X180144280Y-98398226D01*
X180163199Y-98366661D01*
X180185121Y-98337103D01*
X180209835Y-98309835D01*
X180237103Y-98285121D01*
X180266661Y-98263199D01*
X180298226Y-98244280D01*
X180331494Y-98228545D01*
X180366143Y-98216147D01*
X180401841Y-98207206D01*
X180438244Y-98201806D01*
X180475000Y-98200000D01*
X181225000Y-98200000D01*
X181261756Y-98201806D01*
X181261756Y-98201806D01*
G37*
D17*
X180850000Y-99700000D03*
D10*
G36*
X188161756Y-98201806D02*
X188198159Y-98207206D01*
X188233857Y-98216147D01*
X188268506Y-98228545D01*
X188301774Y-98244280D01*
X188333339Y-98263199D01*
X188362897Y-98285121D01*
X188390165Y-98309835D01*
X188414879Y-98337103D01*
X188436801Y-98366661D01*
X188455720Y-98398226D01*
X188471455Y-98431494D01*
X188483853Y-98466143D01*
X188492794Y-98501841D01*
X188498194Y-98538244D01*
X188500000Y-98575000D01*
X188500000Y-100825000D01*
X188498194Y-100861756D01*
X188492794Y-100898159D01*
X188483853Y-100933857D01*
X188471455Y-100968506D01*
X188455720Y-101001774D01*
X188436801Y-101033339D01*
X188414879Y-101062897D01*
X188390165Y-101090165D01*
X188362897Y-101114879D01*
X188333339Y-101136801D01*
X188301774Y-101155720D01*
X188268506Y-101171455D01*
X188233857Y-101183853D01*
X188198159Y-101192794D01*
X188161756Y-101198194D01*
X188125000Y-101200000D01*
X187375000Y-101200000D01*
X187338244Y-101198194D01*
X187301841Y-101192794D01*
X187266143Y-101183853D01*
X187231494Y-101171455D01*
X187198226Y-101155720D01*
X187166661Y-101136801D01*
X187137103Y-101114879D01*
X187109835Y-101090165D01*
X187085121Y-101062897D01*
X187063199Y-101033339D01*
X187044280Y-101001774D01*
X187028545Y-100968506D01*
X187016147Y-100933857D01*
X187007206Y-100898159D01*
X187001806Y-100861756D01*
X187000000Y-100825000D01*
X187000000Y-98575000D01*
X187001806Y-98538244D01*
X187007206Y-98501841D01*
X187016147Y-98466143D01*
X187028545Y-98431494D01*
X187044280Y-98398226D01*
X187063199Y-98366661D01*
X187085121Y-98337103D01*
X187109835Y-98309835D01*
X187137103Y-98285121D01*
X187166661Y-98263199D01*
X187198226Y-98244280D01*
X187231494Y-98228545D01*
X187266143Y-98216147D01*
X187301841Y-98207206D01*
X187338244Y-98201806D01*
X187375000Y-98200000D01*
X188125000Y-98200000D01*
X188161756Y-98201806D01*
X188161756Y-98201806D01*
G37*
D17*
X187750000Y-99700000D03*
D15*
X196550000Y-99700000D03*
D16*
X193623185Y-102626815D03*
X196550000Y-95575000D03*
X199476815Y-102626815D03*
X199476815Y-96773185D03*
X193623185Y-96773185D03*
X196550000Y-103825000D03*
X192425000Y-99700000D03*
X200675000Y-99700000D03*
X174976815Y-96773185D03*
X172050000Y-95575000D03*
X169123185Y-96773185D03*
X167925000Y-99700000D03*
X169123185Y-102626815D03*
X172050000Y-103825000D03*
X174976815Y-102626815D03*
X176175000Y-99700000D03*
D15*
X172050000Y-99700000D03*
D10*
G36*
X104311756Y-110601806D02*
X104348159Y-110607206D01*
X104383857Y-110616147D01*
X104418506Y-110628545D01*
X104451774Y-110644280D01*
X104483339Y-110663199D01*
X104512897Y-110685121D01*
X104540165Y-110709835D01*
X104564879Y-110737103D01*
X104586801Y-110766661D01*
X104605720Y-110798226D01*
X104621455Y-110831494D01*
X104633853Y-110866143D01*
X104642794Y-110901841D01*
X104648194Y-110938244D01*
X104650000Y-110975000D01*
X104650000Y-111725000D01*
X104648194Y-111761756D01*
X104642794Y-111798159D01*
X104633853Y-111833857D01*
X104621455Y-111868506D01*
X104605720Y-111901774D01*
X104586801Y-111933339D01*
X104564879Y-111962897D01*
X104540165Y-111990165D01*
X104512897Y-112014879D01*
X104483339Y-112036801D01*
X104451774Y-112055720D01*
X104418506Y-112071455D01*
X104383857Y-112083853D01*
X104348159Y-112092794D01*
X104311756Y-112098194D01*
X104275000Y-112100000D01*
X102025000Y-112100000D01*
X101988244Y-112098194D01*
X101951841Y-112092794D01*
X101916143Y-112083853D01*
X101881494Y-112071455D01*
X101848226Y-112055720D01*
X101816661Y-112036801D01*
X101787103Y-112014879D01*
X101759835Y-111990165D01*
X101735121Y-111962897D01*
X101713199Y-111933339D01*
X101694280Y-111901774D01*
X101678545Y-111868506D01*
X101666147Y-111833857D01*
X101657206Y-111798159D01*
X101651806Y-111761756D01*
X101650000Y-111725000D01*
X101650000Y-110975000D01*
X101651806Y-110938244D01*
X101657206Y-110901841D01*
X101666147Y-110866143D01*
X101678545Y-110831494D01*
X101694280Y-110798226D01*
X101713199Y-110766661D01*
X101735121Y-110737103D01*
X101759835Y-110709835D01*
X101787103Y-110685121D01*
X101816661Y-110663199D01*
X101848226Y-110644280D01*
X101881494Y-110628545D01*
X101916143Y-110616147D01*
X101951841Y-110607206D01*
X101988244Y-110601806D01*
X102025000Y-110600000D01*
X104275000Y-110600000D01*
X104311756Y-110601806D01*
X104311756Y-110601806D01*
G37*
D17*
X103150000Y-111350000D03*
D10*
G36*
X104311756Y-107601806D02*
X104348159Y-107607206D01*
X104383857Y-107616147D01*
X104418506Y-107628545D01*
X104451774Y-107644280D01*
X104483339Y-107663199D01*
X104512897Y-107685121D01*
X104540165Y-107709835D01*
X104564879Y-107737103D01*
X104586801Y-107766661D01*
X104605720Y-107798226D01*
X104621455Y-107831494D01*
X104633853Y-107866143D01*
X104642794Y-107901841D01*
X104648194Y-107938244D01*
X104650000Y-107975000D01*
X104650000Y-108725000D01*
X104648194Y-108761756D01*
X104642794Y-108798159D01*
X104633853Y-108833857D01*
X104621455Y-108868506D01*
X104605720Y-108901774D01*
X104586801Y-108933339D01*
X104564879Y-108962897D01*
X104540165Y-108990165D01*
X104512897Y-109014879D01*
X104483339Y-109036801D01*
X104451774Y-109055720D01*
X104418506Y-109071455D01*
X104383857Y-109083853D01*
X104348159Y-109092794D01*
X104311756Y-109098194D01*
X104275000Y-109100000D01*
X102025000Y-109100000D01*
X101988244Y-109098194D01*
X101951841Y-109092794D01*
X101916143Y-109083853D01*
X101881494Y-109071455D01*
X101848226Y-109055720D01*
X101816661Y-109036801D01*
X101787103Y-109014879D01*
X101759835Y-108990165D01*
X101735121Y-108962897D01*
X101713199Y-108933339D01*
X101694280Y-108901774D01*
X101678545Y-108868506D01*
X101666147Y-108833857D01*
X101657206Y-108798159D01*
X101651806Y-108761756D01*
X101650000Y-108725000D01*
X101650000Y-107975000D01*
X101651806Y-107938244D01*
X101657206Y-107901841D01*
X101666147Y-107866143D01*
X101678545Y-107831494D01*
X101694280Y-107798226D01*
X101713199Y-107766661D01*
X101735121Y-107737103D01*
X101759835Y-107709835D01*
X101787103Y-107685121D01*
X101816661Y-107663199D01*
X101848226Y-107644280D01*
X101881494Y-107628545D01*
X101916143Y-107616147D01*
X101951841Y-107607206D01*
X101988244Y-107601806D01*
X102025000Y-107600000D01*
X104275000Y-107600000D01*
X104311756Y-107601806D01*
X104311756Y-107601806D01*
G37*
D17*
X103150000Y-108350000D03*
D15*
X103150000Y-99700000D03*
D16*
X106076815Y-102626815D03*
X99025000Y-99700000D03*
X106076815Y-96773185D03*
X100223185Y-96773185D03*
X100223185Y-102626815D03*
X107275000Y-99700000D03*
X103150000Y-103825000D03*
X103150000Y-95575000D03*
X100223185Y-117073185D03*
X99025000Y-120000000D03*
X100223185Y-122926815D03*
X103150000Y-124125000D03*
X106076815Y-122926815D03*
X107275000Y-120000000D03*
X106076815Y-117073185D03*
X103150000Y-115875000D03*
D15*
X103150000Y-120000000D03*
D10*
G36*
X59911756Y-130901806D02*
X59948159Y-130907206D01*
X59983857Y-130916147D01*
X60018506Y-130928545D01*
X60051774Y-130944280D01*
X60083339Y-130963199D01*
X60112897Y-130985121D01*
X60140165Y-131009835D01*
X60164879Y-131037103D01*
X60186801Y-131066661D01*
X60205720Y-131098226D01*
X60221455Y-131131494D01*
X60233853Y-131166143D01*
X60242794Y-131201841D01*
X60248194Y-131238244D01*
X60250000Y-131275000D01*
X60250000Y-132025000D01*
X60248194Y-132061756D01*
X60242794Y-132098159D01*
X60233853Y-132133857D01*
X60221455Y-132168506D01*
X60205720Y-132201774D01*
X60186801Y-132233339D01*
X60164879Y-132262897D01*
X60140165Y-132290165D01*
X60112897Y-132314879D01*
X60083339Y-132336801D01*
X60051774Y-132355720D01*
X60018506Y-132371455D01*
X59983857Y-132383853D01*
X59948159Y-132392794D01*
X59911756Y-132398194D01*
X59875000Y-132400000D01*
X57625000Y-132400000D01*
X57588244Y-132398194D01*
X57551841Y-132392794D01*
X57516143Y-132383853D01*
X57481494Y-132371455D01*
X57448226Y-132355720D01*
X57416661Y-132336801D01*
X57387103Y-132314879D01*
X57359835Y-132290165D01*
X57335121Y-132262897D01*
X57313199Y-132233339D01*
X57294280Y-132201774D01*
X57278545Y-132168506D01*
X57266147Y-132133857D01*
X57257206Y-132098159D01*
X57251806Y-132061756D01*
X57250000Y-132025000D01*
X57250000Y-131275000D01*
X57251806Y-131238244D01*
X57257206Y-131201841D01*
X57266147Y-131166143D01*
X57278545Y-131131494D01*
X57294280Y-131098226D01*
X57313199Y-131066661D01*
X57335121Y-131037103D01*
X57359835Y-131009835D01*
X57387103Y-130985121D01*
X57416661Y-130963199D01*
X57448226Y-130944280D01*
X57481494Y-130928545D01*
X57516143Y-130916147D01*
X57551841Y-130907206D01*
X57588244Y-130901806D01*
X57625000Y-130900000D01*
X59875000Y-130900000D01*
X59911756Y-130901806D01*
X59911756Y-130901806D01*
G37*
D17*
X58750000Y-131650000D03*
D10*
G36*
X59911756Y-127901806D02*
X59948159Y-127907206D01*
X59983857Y-127916147D01*
X60018506Y-127928545D01*
X60051774Y-127944280D01*
X60083339Y-127963199D01*
X60112897Y-127985121D01*
X60140165Y-128009835D01*
X60164879Y-128037103D01*
X60186801Y-128066661D01*
X60205720Y-128098226D01*
X60221455Y-128131494D01*
X60233853Y-128166143D01*
X60242794Y-128201841D01*
X60248194Y-128238244D01*
X60250000Y-128275000D01*
X60250000Y-129025000D01*
X60248194Y-129061756D01*
X60242794Y-129098159D01*
X60233853Y-129133857D01*
X60221455Y-129168506D01*
X60205720Y-129201774D01*
X60186801Y-129233339D01*
X60164879Y-129262897D01*
X60140165Y-129290165D01*
X60112897Y-129314879D01*
X60083339Y-129336801D01*
X60051774Y-129355720D01*
X60018506Y-129371455D01*
X59983857Y-129383853D01*
X59948159Y-129392794D01*
X59911756Y-129398194D01*
X59875000Y-129400000D01*
X57625000Y-129400000D01*
X57588244Y-129398194D01*
X57551841Y-129392794D01*
X57516143Y-129383853D01*
X57481494Y-129371455D01*
X57448226Y-129355720D01*
X57416661Y-129336801D01*
X57387103Y-129314879D01*
X57359835Y-129290165D01*
X57335121Y-129262897D01*
X57313199Y-129233339D01*
X57294280Y-129201774D01*
X57278545Y-129168506D01*
X57266147Y-129133857D01*
X57257206Y-129098159D01*
X57251806Y-129061756D01*
X57250000Y-129025000D01*
X57250000Y-128275000D01*
X57251806Y-128238244D01*
X57257206Y-128201841D01*
X57266147Y-128166143D01*
X57278545Y-128131494D01*
X57294280Y-128098226D01*
X57313199Y-128066661D01*
X57335121Y-128037103D01*
X57359835Y-128009835D01*
X57387103Y-127985121D01*
X57416661Y-127963199D01*
X57448226Y-127944280D01*
X57481494Y-127928545D01*
X57516143Y-127916147D01*
X57551841Y-127907206D01*
X57588244Y-127901806D01*
X57625000Y-127900000D01*
X59875000Y-127900000D01*
X59911756Y-127901806D01*
X59911756Y-127901806D01*
G37*
D17*
X58750000Y-128650000D03*
D15*
X58750000Y-120000000D03*
D16*
X61676815Y-122926815D03*
X54625000Y-120000000D03*
X61676815Y-117073185D03*
X55823185Y-117073185D03*
X55823185Y-122926815D03*
X62875000Y-120000000D03*
X58750000Y-124125000D03*
X58750000Y-115875000D03*
X55823185Y-137373185D03*
X54625000Y-140300000D03*
X55823185Y-143226815D03*
X58750000Y-144425000D03*
X61676815Y-143226815D03*
X62875000Y-140300000D03*
X61676815Y-137373185D03*
X58750000Y-136175000D03*
D15*
X58750000Y-140300000D03*
D10*
G36*
X173211756Y-127901806D02*
X173248159Y-127907206D01*
X173283857Y-127916147D01*
X173318506Y-127928545D01*
X173351774Y-127944280D01*
X173383339Y-127963199D01*
X173412897Y-127985121D01*
X173440165Y-128009835D01*
X173464879Y-128037103D01*
X173486801Y-128066661D01*
X173505720Y-128098226D01*
X173521455Y-128131494D01*
X173533853Y-128166143D01*
X173542794Y-128201841D01*
X173548194Y-128238244D01*
X173550000Y-128275000D01*
X173550000Y-129025000D01*
X173548194Y-129061756D01*
X173542794Y-129098159D01*
X173533853Y-129133857D01*
X173521455Y-129168506D01*
X173505720Y-129201774D01*
X173486801Y-129233339D01*
X173464879Y-129262897D01*
X173440165Y-129290165D01*
X173412897Y-129314879D01*
X173383339Y-129336801D01*
X173351774Y-129355720D01*
X173318506Y-129371455D01*
X173283857Y-129383853D01*
X173248159Y-129392794D01*
X173211756Y-129398194D01*
X173175000Y-129400000D01*
X170925000Y-129400000D01*
X170888244Y-129398194D01*
X170851841Y-129392794D01*
X170816143Y-129383853D01*
X170781494Y-129371455D01*
X170748226Y-129355720D01*
X170716661Y-129336801D01*
X170687103Y-129314879D01*
X170659835Y-129290165D01*
X170635121Y-129262897D01*
X170613199Y-129233339D01*
X170594280Y-129201774D01*
X170578545Y-129168506D01*
X170566147Y-129133857D01*
X170557206Y-129098159D01*
X170551806Y-129061756D01*
X170550000Y-129025000D01*
X170550000Y-128275000D01*
X170551806Y-128238244D01*
X170557206Y-128201841D01*
X170566147Y-128166143D01*
X170578545Y-128131494D01*
X170594280Y-128098226D01*
X170613199Y-128066661D01*
X170635121Y-128037103D01*
X170659835Y-128009835D01*
X170687103Y-127985121D01*
X170716661Y-127963199D01*
X170748226Y-127944280D01*
X170781494Y-127928545D01*
X170816143Y-127916147D01*
X170851841Y-127907206D01*
X170888244Y-127901806D01*
X170925000Y-127900000D01*
X173175000Y-127900000D01*
X173211756Y-127901806D01*
X173211756Y-127901806D01*
G37*
D17*
X172050000Y-128650000D03*
D10*
G36*
X173211756Y-130901806D02*
X173248159Y-130907206D01*
X173283857Y-130916147D01*
X173318506Y-130928545D01*
X173351774Y-130944280D01*
X173383339Y-130963199D01*
X173412897Y-130985121D01*
X173440165Y-131009835D01*
X173464879Y-131037103D01*
X173486801Y-131066661D01*
X173505720Y-131098226D01*
X173521455Y-131131494D01*
X173533853Y-131166143D01*
X173542794Y-131201841D01*
X173548194Y-131238244D01*
X173550000Y-131275000D01*
X173550000Y-132025000D01*
X173548194Y-132061756D01*
X173542794Y-132098159D01*
X173533853Y-132133857D01*
X173521455Y-132168506D01*
X173505720Y-132201774D01*
X173486801Y-132233339D01*
X173464879Y-132262897D01*
X173440165Y-132290165D01*
X173412897Y-132314879D01*
X173383339Y-132336801D01*
X173351774Y-132355720D01*
X173318506Y-132371455D01*
X173283857Y-132383853D01*
X173248159Y-132392794D01*
X173211756Y-132398194D01*
X173175000Y-132400000D01*
X170925000Y-132400000D01*
X170888244Y-132398194D01*
X170851841Y-132392794D01*
X170816143Y-132383853D01*
X170781494Y-132371455D01*
X170748226Y-132355720D01*
X170716661Y-132336801D01*
X170687103Y-132314879D01*
X170659835Y-132290165D01*
X170635121Y-132262897D01*
X170613199Y-132233339D01*
X170594280Y-132201774D01*
X170578545Y-132168506D01*
X170566147Y-132133857D01*
X170557206Y-132098159D01*
X170551806Y-132061756D01*
X170550000Y-132025000D01*
X170550000Y-131275000D01*
X170551806Y-131238244D01*
X170557206Y-131201841D01*
X170566147Y-131166143D01*
X170578545Y-131131494D01*
X170594280Y-131098226D01*
X170613199Y-131066661D01*
X170635121Y-131037103D01*
X170659835Y-131009835D01*
X170687103Y-130985121D01*
X170716661Y-130963199D01*
X170748226Y-130944280D01*
X170781494Y-130928545D01*
X170816143Y-130916147D01*
X170851841Y-130907206D01*
X170888244Y-130901806D01*
X170925000Y-130900000D01*
X173175000Y-130900000D01*
X173211756Y-130901806D01*
X173211756Y-130901806D01*
G37*
D17*
X172050000Y-131650000D03*
D15*
X172050000Y-140300000D03*
D16*
X169123185Y-137373185D03*
X176175000Y-140300000D03*
X169123185Y-143226815D03*
X174976815Y-143226815D03*
X174976815Y-137373185D03*
X167925000Y-140300000D03*
X172050000Y-136175000D03*
X172050000Y-144425000D03*
X174976815Y-122926815D03*
X176175000Y-120000000D03*
X174976815Y-117073185D03*
X172050000Y-115875000D03*
X169123185Y-117073185D03*
X167925000Y-120000000D03*
X169123185Y-122926815D03*
X172050000Y-124125000D03*
D15*
X172050000Y-120000000D03*
D10*
G36*
X128811756Y-107601806D02*
X128848159Y-107607206D01*
X128883857Y-107616147D01*
X128918506Y-107628545D01*
X128951774Y-107644280D01*
X128983339Y-107663199D01*
X129012897Y-107685121D01*
X129040165Y-107709835D01*
X129064879Y-107737103D01*
X129086801Y-107766661D01*
X129105720Y-107798226D01*
X129121455Y-107831494D01*
X129133853Y-107866143D01*
X129142794Y-107901841D01*
X129148194Y-107938244D01*
X129150000Y-107975000D01*
X129150000Y-108725000D01*
X129148194Y-108761756D01*
X129142794Y-108798159D01*
X129133853Y-108833857D01*
X129121455Y-108868506D01*
X129105720Y-108901774D01*
X129086801Y-108933339D01*
X129064879Y-108962897D01*
X129040165Y-108990165D01*
X129012897Y-109014879D01*
X128983339Y-109036801D01*
X128951774Y-109055720D01*
X128918506Y-109071455D01*
X128883857Y-109083853D01*
X128848159Y-109092794D01*
X128811756Y-109098194D01*
X128775000Y-109100000D01*
X126525000Y-109100000D01*
X126488244Y-109098194D01*
X126451841Y-109092794D01*
X126416143Y-109083853D01*
X126381494Y-109071455D01*
X126348226Y-109055720D01*
X126316661Y-109036801D01*
X126287103Y-109014879D01*
X126259835Y-108990165D01*
X126235121Y-108962897D01*
X126213199Y-108933339D01*
X126194280Y-108901774D01*
X126178545Y-108868506D01*
X126166147Y-108833857D01*
X126157206Y-108798159D01*
X126151806Y-108761756D01*
X126150000Y-108725000D01*
X126150000Y-107975000D01*
X126151806Y-107938244D01*
X126157206Y-107901841D01*
X126166147Y-107866143D01*
X126178545Y-107831494D01*
X126194280Y-107798226D01*
X126213199Y-107766661D01*
X126235121Y-107737103D01*
X126259835Y-107709835D01*
X126287103Y-107685121D01*
X126316661Y-107663199D01*
X126348226Y-107644280D01*
X126381494Y-107628545D01*
X126416143Y-107616147D01*
X126451841Y-107607206D01*
X126488244Y-107601806D01*
X126525000Y-107600000D01*
X128775000Y-107600000D01*
X128811756Y-107601806D01*
X128811756Y-107601806D01*
G37*
D17*
X127650000Y-108350000D03*
D10*
G36*
X128811756Y-110601806D02*
X128848159Y-110607206D01*
X128883857Y-110616147D01*
X128918506Y-110628545D01*
X128951774Y-110644280D01*
X128983339Y-110663199D01*
X129012897Y-110685121D01*
X129040165Y-110709835D01*
X129064879Y-110737103D01*
X129086801Y-110766661D01*
X129105720Y-110798226D01*
X129121455Y-110831494D01*
X129133853Y-110866143D01*
X129142794Y-110901841D01*
X129148194Y-110938244D01*
X129150000Y-110975000D01*
X129150000Y-111725000D01*
X129148194Y-111761756D01*
X129142794Y-111798159D01*
X129133853Y-111833857D01*
X129121455Y-111868506D01*
X129105720Y-111901774D01*
X129086801Y-111933339D01*
X129064879Y-111962897D01*
X129040165Y-111990165D01*
X129012897Y-112014879D01*
X128983339Y-112036801D01*
X128951774Y-112055720D01*
X128918506Y-112071455D01*
X128883857Y-112083853D01*
X128848159Y-112092794D01*
X128811756Y-112098194D01*
X128775000Y-112100000D01*
X126525000Y-112100000D01*
X126488244Y-112098194D01*
X126451841Y-112092794D01*
X126416143Y-112083853D01*
X126381494Y-112071455D01*
X126348226Y-112055720D01*
X126316661Y-112036801D01*
X126287103Y-112014879D01*
X126259835Y-111990165D01*
X126235121Y-111962897D01*
X126213199Y-111933339D01*
X126194280Y-111901774D01*
X126178545Y-111868506D01*
X126166147Y-111833857D01*
X126157206Y-111798159D01*
X126151806Y-111761756D01*
X126150000Y-111725000D01*
X126150000Y-110975000D01*
X126151806Y-110938244D01*
X126157206Y-110901841D01*
X126166147Y-110866143D01*
X126178545Y-110831494D01*
X126194280Y-110798226D01*
X126213199Y-110766661D01*
X126235121Y-110737103D01*
X126259835Y-110709835D01*
X126287103Y-110685121D01*
X126316661Y-110663199D01*
X126348226Y-110644280D01*
X126381494Y-110628545D01*
X126416143Y-110616147D01*
X126451841Y-110607206D01*
X126488244Y-110601806D01*
X126525000Y-110600000D01*
X128775000Y-110600000D01*
X128811756Y-110601806D01*
X128811756Y-110601806D01*
G37*
D17*
X127650000Y-111350000D03*
D15*
X127650000Y-120000000D03*
D16*
X124723185Y-117073185D03*
X131775000Y-120000000D03*
X124723185Y-122926815D03*
X130576815Y-122926815D03*
X130576815Y-117073185D03*
X123525000Y-120000000D03*
X127650000Y-115875000D03*
X127650000Y-124125000D03*
X130576815Y-102626815D03*
X131775000Y-99700000D03*
X130576815Y-96773185D03*
X127650000Y-95575000D03*
X124723185Y-96773185D03*
X123525000Y-99700000D03*
X124723185Y-102626815D03*
X127650000Y-103825000D03*
D15*
X127650000Y-99700000D03*
D10*
G36*
X242111756Y-110601806D02*
X242148159Y-110607206D01*
X242183857Y-110616147D01*
X242218506Y-110628545D01*
X242251774Y-110644280D01*
X242283339Y-110663199D01*
X242312897Y-110685121D01*
X242340165Y-110709835D01*
X242364879Y-110737103D01*
X242386801Y-110766661D01*
X242405720Y-110798226D01*
X242421455Y-110831494D01*
X242433853Y-110866143D01*
X242442794Y-110901841D01*
X242448194Y-110938244D01*
X242450000Y-110975000D01*
X242450000Y-111725000D01*
X242448194Y-111761756D01*
X242442794Y-111798159D01*
X242433853Y-111833857D01*
X242421455Y-111868506D01*
X242405720Y-111901774D01*
X242386801Y-111933339D01*
X242364879Y-111962897D01*
X242340165Y-111990165D01*
X242312897Y-112014879D01*
X242283339Y-112036801D01*
X242251774Y-112055720D01*
X242218506Y-112071455D01*
X242183857Y-112083853D01*
X242148159Y-112092794D01*
X242111756Y-112098194D01*
X242075000Y-112100000D01*
X239825000Y-112100000D01*
X239788244Y-112098194D01*
X239751841Y-112092794D01*
X239716143Y-112083853D01*
X239681494Y-112071455D01*
X239648226Y-112055720D01*
X239616661Y-112036801D01*
X239587103Y-112014879D01*
X239559835Y-111990165D01*
X239535121Y-111962897D01*
X239513199Y-111933339D01*
X239494280Y-111901774D01*
X239478545Y-111868506D01*
X239466147Y-111833857D01*
X239457206Y-111798159D01*
X239451806Y-111761756D01*
X239450000Y-111725000D01*
X239450000Y-110975000D01*
X239451806Y-110938244D01*
X239457206Y-110901841D01*
X239466147Y-110866143D01*
X239478545Y-110831494D01*
X239494280Y-110798226D01*
X239513199Y-110766661D01*
X239535121Y-110737103D01*
X239559835Y-110709835D01*
X239587103Y-110685121D01*
X239616661Y-110663199D01*
X239648226Y-110644280D01*
X239681494Y-110628545D01*
X239716143Y-110616147D01*
X239751841Y-110607206D01*
X239788244Y-110601806D01*
X239825000Y-110600000D01*
X242075000Y-110600000D01*
X242111756Y-110601806D01*
X242111756Y-110601806D01*
G37*
D17*
X240950000Y-111350000D03*
D10*
G36*
X242111756Y-107601806D02*
X242148159Y-107607206D01*
X242183857Y-107616147D01*
X242218506Y-107628545D01*
X242251774Y-107644280D01*
X242283339Y-107663199D01*
X242312897Y-107685121D01*
X242340165Y-107709835D01*
X242364879Y-107737103D01*
X242386801Y-107766661D01*
X242405720Y-107798226D01*
X242421455Y-107831494D01*
X242433853Y-107866143D01*
X242442794Y-107901841D01*
X242448194Y-107938244D01*
X242450000Y-107975000D01*
X242450000Y-108725000D01*
X242448194Y-108761756D01*
X242442794Y-108798159D01*
X242433853Y-108833857D01*
X242421455Y-108868506D01*
X242405720Y-108901774D01*
X242386801Y-108933339D01*
X242364879Y-108962897D01*
X242340165Y-108990165D01*
X242312897Y-109014879D01*
X242283339Y-109036801D01*
X242251774Y-109055720D01*
X242218506Y-109071455D01*
X242183857Y-109083853D01*
X242148159Y-109092794D01*
X242111756Y-109098194D01*
X242075000Y-109100000D01*
X239825000Y-109100000D01*
X239788244Y-109098194D01*
X239751841Y-109092794D01*
X239716143Y-109083853D01*
X239681494Y-109071455D01*
X239648226Y-109055720D01*
X239616661Y-109036801D01*
X239587103Y-109014879D01*
X239559835Y-108990165D01*
X239535121Y-108962897D01*
X239513199Y-108933339D01*
X239494280Y-108901774D01*
X239478545Y-108868506D01*
X239466147Y-108833857D01*
X239457206Y-108798159D01*
X239451806Y-108761756D01*
X239450000Y-108725000D01*
X239450000Y-107975000D01*
X239451806Y-107938244D01*
X239457206Y-107901841D01*
X239466147Y-107866143D01*
X239478545Y-107831494D01*
X239494280Y-107798226D01*
X239513199Y-107766661D01*
X239535121Y-107737103D01*
X239559835Y-107709835D01*
X239587103Y-107685121D01*
X239616661Y-107663199D01*
X239648226Y-107644280D01*
X239681494Y-107628545D01*
X239716143Y-107616147D01*
X239751841Y-107607206D01*
X239788244Y-107601806D01*
X239825000Y-107600000D01*
X242075000Y-107600000D01*
X242111756Y-107601806D01*
X242111756Y-107601806D01*
G37*
D17*
X240950000Y-108350000D03*
D15*
X240950000Y-99700000D03*
D16*
X243876815Y-102626815D03*
X236825000Y-99700000D03*
X243876815Y-96773185D03*
X238023185Y-96773185D03*
X238023185Y-102626815D03*
X245075000Y-99700000D03*
X240950000Y-103825000D03*
X240950000Y-95575000D03*
X238023185Y-117073185D03*
X236825000Y-120000000D03*
X238023185Y-122926815D03*
X240950000Y-124125000D03*
X243876815Y-122926815D03*
X245075000Y-120000000D03*
X243876815Y-117073185D03*
X240950000Y-115875000D03*
D15*
X240950000Y-120000000D03*
D10*
G36*
X197711756Y-130901806D02*
X197748159Y-130907206D01*
X197783857Y-130916147D01*
X197818506Y-130928545D01*
X197851774Y-130944280D01*
X197883339Y-130963199D01*
X197912897Y-130985121D01*
X197940165Y-131009835D01*
X197964879Y-131037103D01*
X197986801Y-131066661D01*
X198005720Y-131098226D01*
X198021455Y-131131494D01*
X198033853Y-131166143D01*
X198042794Y-131201841D01*
X198048194Y-131238244D01*
X198050000Y-131275000D01*
X198050000Y-132025000D01*
X198048194Y-132061756D01*
X198042794Y-132098159D01*
X198033853Y-132133857D01*
X198021455Y-132168506D01*
X198005720Y-132201774D01*
X197986801Y-132233339D01*
X197964879Y-132262897D01*
X197940165Y-132290165D01*
X197912897Y-132314879D01*
X197883339Y-132336801D01*
X197851774Y-132355720D01*
X197818506Y-132371455D01*
X197783857Y-132383853D01*
X197748159Y-132392794D01*
X197711756Y-132398194D01*
X197675000Y-132400000D01*
X195425000Y-132400000D01*
X195388244Y-132398194D01*
X195351841Y-132392794D01*
X195316143Y-132383853D01*
X195281494Y-132371455D01*
X195248226Y-132355720D01*
X195216661Y-132336801D01*
X195187103Y-132314879D01*
X195159835Y-132290165D01*
X195135121Y-132262897D01*
X195113199Y-132233339D01*
X195094280Y-132201774D01*
X195078545Y-132168506D01*
X195066147Y-132133857D01*
X195057206Y-132098159D01*
X195051806Y-132061756D01*
X195050000Y-132025000D01*
X195050000Y-131275000D01*
X195051806Y-131238244D01*
X195057206Y-131201841D01*
X195066147Y-131166143D01*
X195078545Y-131131494D01*
X195094280Y-131098226D01*
X195113199Y-131066661D01*
X195135121Y-131037103D01*
X195159835Y-131009835D01*
X195187103Y-130985121D01*
X195216661Y-130963199D01*
X195248226Y-130944280D01*
X195281494Y-130928545D01*
X195316143Y-130916147D01*
X195351841Y-130907206D01*
X195388244Y-130901806D01*
X195425000Y-130900000D01*
X197675000Y-130900000D01*
X197711756Y-130901806D01*
X197711756Y-130901806D01*
G37*
D17*
X196550000Y-131650000D03*
D10*
G36*
X197711756Y-127901806D02*
X197748159Y-127907206D01*
X197783857Y-127916147D01*
X197818506Y-127928545D01*
X197851774Y-127944280D01*
X197883339Y-127963199D01*
X197912897Y-127985121D01*
X197940165Y-128009835D01*
X197964879Y-128037103D01*
X197986801Y-128066661D01*
X198005720Y-128098226D01*
X198021455Y-128131494D01*
X198033853Y-128166143D01*
X198042794Y-128201841D01*
X198048194Y-128238244D01*
X198050000Y-128275000D01*
X198050000Y-129025000D01*
X198048194Y-129061756D01*
X198042794Y-129098159D01*
X198033853Y-129133857D01*
X198021455Y-129168506D01*
X198005720Y-129201774D01*
X197986801Y-129233339D01*
X197964879Y-129262897D01*
X197940165Y-129290165D01*
X197912897Y-129314879D01*
X197883339Y-129336801D01*
X197851774Y-129355720D01*
X197818506Y-129371455D01*
X197783857Y-129383853D01*
X197748159Y-129392794D01*
X197711756Y-129398194D01*
X197675000Y-129400000D01*
X195425000Y-129400000D01*
X195388244Y-129398194D01*
X195351841Y-129392794D01*
X195316143Y-129383853D01*
X195281494Y-129371455D01*
X195248226Y-129355720D01*
X195216661Y-129336801D01*
X195187103Y-129314879D01*
X195159835Y-129290165D01*
X195135121Y-129262897D01*
X195113199Y-129233339D01*
X195094280Y-129201774D01*
X195078545Y-129168506D01*
X195066147Y-129133857D01*
X195057206Y-129098159D01*
X195051806Y-129061756D01*
X195050000Y-129025000D01*
X195050000Y-128275000D01*
X195051806Y-128238244D01*
X195057206Y-128201841D01*
X195066147Y-128166143D01*
X195078545Y-128131494D01*
X195094280Y-128098226D01*
X195113199Y-128066661D01*
X195135121Y-128037103D01*
X195159835Y-128009835D01*
X195187103Y-127985121D01*
X195216661Y-127963199D01*
X195248226Y-127944280D01*
X195281494Y-127928545D01*
X195316143Y-127916147D01*
X195351841Y-127907206D01*
X195388244Y-127901806D01*
X195425000Y-127900000D01*
X197675000Y-127900000D01*
X197711756Y-127901806D01*
X197711756Y-127901806D01*
G37*
D17*
X196550000Y-128650000D03*
D15*
X196550000Y-120000000D03*
D16*
X199476815Y-122926815D03*
X192425000Y-120000000D03*
X199476815Y-117073185D03*
X193623185Y-117073185D03*
X193623185Y-122926815D03*
X200675000Y-120000000D03*
X196550000Y-124125000D03*
X196550000Y-115875000D03*
X193623185Y-137373185D03*
X192425000Y-140300000D03*
X193623185Y-143226815D03*
X196550000Y-144425000D03*
X199476815Y-143226815D03*
X200675000Y-140300000D03*
X199476815Y-137373185D03*
X196550000Y-136175000D03*
D15*
X196550000Y-140300000D03*
X58750000Y-99700000D03*
D16*
X58750000Y-95575000D03*
X61676815Y-96773185D03*
X62875000Y-99700000D03*
X61676815Y-102626815D03*
X58750000Y-103825000D03*
X55823185Y-102626815D03*
X54625000Y-99700000D03*
X55823185Y-96773185D03*
D10*
G36*
X59911756Y-107751806D02*
X59948159Y-107757206D01*
X59983857Y-107766147D01*
X60018506Y-107778545D01*
X60051774Y-107794280D01*
X60083339Y-107813199D01*
X60112897Y-107835121D01*
X60140165Y-107859835D01*
X60164879Y-107887103D01*
X60186801Y-107916661D01*
X60205720Y-107948226D01*
X60221455Y-107981494D01*
X60233853Y-108016143D01*
X60242794Y-108051841D01*
X60248194Y-108088244D01*
X60250000Y-108125000D01*
X60250000Y-108875000D01*
X60248194Y-108911756D01*
X60242794Y-108948159D01*
X60233853Y-108983857D01*
X60221455Y-109018506D01*
X60205720Y-109051774D01*
X60186801Y-109083339D01*
X60164879Y-109112897D01*
X60140165Y-109140165D01*
X60112897Y-109164879D01*
X60083339Y-109186801D01*
X60051774Y-109205720D01*
X60018506Y-109221455D01*
X59983857Y-109233853D01*
X59948159Y-109242794D01*
X59911756Y-109248194D01*
X59875000Y-109250000D01*
X57625000Y-109250000D01*
X57588244Y-109248194D01*
X57551841Y-109242794D01*
X57516143Y-109233853D01*
X57481494Y-109221455D01*
X57448226Y-109205720D01*
X57416661Y-109186801D01*
X57387103Y-109164879D01*
X57359835Y-109140165D01*
X57335121Y-109112897D01*
X57313199Y-109083339D01*
X57294280Y-109051774D01*
X57278545Y-109018506D01*
X57266147Y-108983857D01*
X57257206Y-108948159D01*
X57251806Y-108911756D01*
X57250000Y-108875000D01*
X57250000Y-108125000D01*
X57251806Y-108088244D01*
X57257206Y-108051841D01*
X57266147Y-108016143D01*
X57278545Y-107981494D01*
X57294280Y-107948226D01*
X57313199Y-107916661D01*
X57335121Y-107887103D01*
X57359835Y-107859835D01*
X57387103Y-107835121D01*
X57416661Y-107813199D01*
X57448226Y-107794280D01*
X57481494Y-107778545D01*
X57516143Y-107766147D01*
X57551841Y-107757206D01*
X57588244Y-107751806D01*
X57625000Y-107750000D01*
X59875000Y-107750000D01*
X59911756Y-107751806D01*
X59911756Y-107751806D01*
G37*
D17*
X58750000Y-108500000D03*
D18*
X92650000Y-107310000D03*
X84250000Y-107310000D03*
X92650000Y-109850000D03*
X84250000Y-109850000D03*
X92650000Y-112390000D03*
X84250000Y-112390000D03*
D19*
X80950000Y-100970000D03*
D20*
X80950000Y-98430000D03*
X80950000Y-121270000D03*
D19*
X80950000Y-118730000D03*
X80950000Y-141570000D03*
D20*
X80950000Y-139030000D03*
D19*
X149850000Y-141570000D03*
D20*
X149850000Y-139030000D03*
D19*
X149850000Y-118730000D03*
D20*
X149850000Y-121270000D03*
D19*
X149850000Y-100970000D03*
D20*
X149850000Y-98430000D03*
D19*
X218750000Y-100970000D03*
D20*
X218750000Y-98430000D03*
D19*
X218750000Y-118730000D03*
D20*
X218750000Y-121270000D03*
X218750000Y-139030000D03*
D19*
X218750000Y-141570000D03*
D21*
X156835000Y-106355000D03*
X156835000Y-108265000D03*
X160645000Y-113345000D03*
X160645000Y-111435000D03*
X156835000Y-111435000D03*
X156835000Y-113345000D03*
D22*
X219065000Y-94620000D03*
X220975000Y-94620000D03*
D21*
X160645000Y-106355000D03*
X160645000Y-108265000D03*
D22*
X94870000Y-109850000D03*
X96780000Y-109850000D03*
D23*
X70555000Y-99700000D03*
X73565000Y-99700000D03*
X91345000Y-120000000D03*
X88335000Y-120000000D03*
X70555000Y-140300000D03*
X73565000Y-140300000D03*
X142465000Y-140300000D03*
X139455000Y-140300000D03*
X160245000Y-120000000D03*
X157235000Y-120000000D03*
X142465000Y-99700000D03*
X139455000Y-99700000D03*
X208355000Y-99700000D03*
X211365000Y-99700000D03*
X226135000Y-120000000D03*
X229145000Y-120000000D03*
X211365000Y-140300000D03*
X208355000Y-140300000D03*
X226135000Y-130150000D03*
X229145000Y-130150000D03*
D24*
X142350000Y-94730000D03*
X142350000Y-93430000D03*
X142350000Y-92130000D03*
X147350000Y-92130000D03*
X147350000Y-93430000D03*
X147350000Y-94730000D03*
X152350000Y-94730000D03*
X152350000Y-93430000D03*
X152350000Y-92130000D03*
X157350000Y-94730000D03*
X157350000Y-93430000D03*
X157350000Y-92130000D03*
D25*
X208860000Y-93670000D03*
X208860000Y-95570000D03*
X210860000Y-94620000D03*
D22*
X215890000Y-94620000D03*
X213980000Y-94620000D03*
X76185000Y-94620000D03*
X78095000Y-94620000D03*
X78095000Y-99700000D03*
X76185000Y-99700000D03*
X85715000Y-120000000D03*
X83805000Y-120000000D03*
X76185000Y-140300000D03*
X78095000Y-140300000D03*
X146995000Y-140300000D03*
X145085000Y-140300000D03*
X154615000Y-120000000D03*
X152705000Y-120000000D03*
X146995000Y-99700000D03*
X145085000Y-99700000D03*
X213985000Y-99700000D03*
X215895000Y-99700000D03*
X221605000Y-120000000D03*
X223515000Y-120000000D03*
D21*
X164455000Y-111435000D03*
X164455000Y-113345000D03*
X164455000Y-106355000D03*
X164455000Y-108265000D03*
D22*
X215895000Y-140300000D03*
X213985000Y-140300000D03*
X80120000Y-106675000D03*
X82030000Y-106675000D03*
D21*
X79805000Y-110805000D03*
X79805000Y-108895000D03*
D22*
X221605000Y-130160000D03*
X223515000Y-130160000D03*
X82030000Y-113025000D03*
X80120000Y-113025000D03*
D26*
X147850000Y-104100000D03*
X156850000Y-105350000D03*
X167850000Y-107100000D03*
X158850000Y-107600000D03*
X148350000Y-108100000D03*
X140762500Y-94730000D03*
X145762500Y-94730000D03*
X150762500Y-94730000D03*
X151850000Y-110350000D03*
X151350000Y-105350000D03*
X158850000Y-113850000D03*
X161850000Y-106850000D03*
X93450000Y-105000000D03*
X157350000Y-95850000D03*
D27*
X68885000Y-99700000D03*
X93375571Y-119963103D03*
X68250000Y-140300000D03*
X137150000Y-140300000D03*
X162550000Y-120020000D03*
X137327510Y-99700000D03*
X206499372Y-100250910D03*
X231450000Y-120000000D03*
X206050000Y-140300000D03*
X231450000Y-130150000D03*
D26*
X89350000Y-127900000D03*
X83350000Y-127650000D03*
X88850000Y-128900000D03*
X82850000Y-128650000D03*
X167350000Y-108850000D03*
X149350000Y-113350000D03*
X144850000Y-115100000D03*
X166350000Y-109600000D03*
X144850000Y-113600000D03*
X168350000Y-108100000D03*
X147850000Y-114850000D03*
X166350000Y-110850000D03*
X168350000Y-106100000D03*
X154850000Y-108350000D03*
X162850000Y-105350000D03*
X154850000Y-107350000D03*
X163850000Y-104600000D03*
X155350000Y-106350000D03*
X151350000Y-107600000D03*
X140850000Y-106350000D03*
X151350000Y-106600000D03*
X141850000Y-106350000D03*
D28*
X146475000Y-104100000D02*
X147850000Y-104100000D01*
X156835000Y-105365000D02*
X156835000Y-106355000D01*
X156850000Y-105350000D02*
X156835000Y-105365000D01*
X145350000Y-104100000D02*
X138850000Y-110600000D01*
X138850000Y-110600000D02*
X138850000Y-122150000D01*
X138850000Y-122150000D02*
X131600000Y-129400000D01*
X146475000Y-104100000D02*
X145350000Y-104100000D01*
X131600000Y-129400000D02*
X100350000Y-129400000D01*
X100350000Y-129400000D02*
X94850000Y-123900000D01*
X84320000Y-94620000D02*
X78095000Y-94620000D01*
X88350000Y-98650000D02*
X84320000Y-94620000D01*
X88350000Y-111650000D02*
X88350000Y-98650000D01*
X94850000Y-123900000D02*
X94850000Y-118150000D01*
X94850000Y-118150000D02*
X88350000Y-111650000D01*
X159810000Y-110600000D02*
X160645000Y-111435000D01*
X153225000Y-110600000D02*
X159810000Y-110600000D01*
X156500000Y-111100000D02*
X156835000Y-111435000D01*
X153225000Y-111100000D02*
X156500000Y-111100000D01*
D29*
X213980000Y-94620000D02*
X210860000Y-94620000D01*
X213980000Y-93370000D02*
X213980000Y-94620000D01*
X214635000Y-92715000D02*
X213980000Y-93370000D01*
X218410000Y-92715000D02*
X214635000Y-92715000D01*
X219065000Y-93370000D02*
X218410000Y-92715000D01*
X219065000Y-94620000D02*
X219065000Y-93370000D01*
D28*
X157350000Y-92130000D02*
X152350000Y-92130000D01*
X152350000Y-92130000D02*
X147350000Y-92130000D01*
X142350000Y-92130000D02*
X147350000Y-92130000D01*
X159310000Y-109600000D02*
X160645000Y-108265000D01*
X153225000Y-109600000D02*
X159310000Y-109600000D01*
X152100000Y-108100000D02*
X153225000Y-108100000D01*
X151850000Y-108350000D02*
X152100000Y-108100000D01*
X151850000Y-109350000D02*
X151850000Y-108350000D01*
X153225000Y-109600000D02*
X152100000Y-109600000D01*
X152100000Y-109600000D02*
X151850000Y-109350000D01*
X204850000Y-99580000D02*
X208860000Y-95570000D01*
X204850000Y-105850000D02*
X204850000Y-99580000D01*
X202600000Y-108100000D02*
X204850000Y-105850000D01*
X169600000Y-108100000D02*
X202600000Y-108100000D01*
X167850000Y-107100000D02*
X168600000Y-107100000D01*
X168600000Y-107100000D02*
X169600000Y-108100000D01*
X159630000Y-92130000D02*
X157350000Y-92130000D01*
X162850000Y-95350000D02*
X159630000Y-92130000D01*
X167850000Y-107100000D02*
X162850000Y-102100000D01*
X162850000Y-102100000D02*
X162850000Y-95350000D01*
X159980000Y-107600000D02*
X160645000Y-108265000D01*
X158850000Y-107600000D02*
X159980000Y-107600000D01*
D29*
X92650000Y-109850000D02*
X94870000Y-109850000D01*
X226125000Y-130160000D02*
X226135000Y-130150000D01*
X223515000Y-130160000D02*
X226125000Y-130160000D01*
D28*
X142350000Y-94730000D02*
X140762500Y-94730000D01*
X147350000Y-94730000D02*
X145762500Y-94730000D01*
X152350000Y-94730000D02*
X150762500Y-94730000D01*
X220975000Y-94620000D02*
X220975000Y-105725000D01*
X220975000Y-105725000D02*
X232850000Y-117600000D01*
X232850000Y-123435000D02*
X226135000Y-130150000D01*
X232850000Y-117600000D02*
X232850000Y-123435000D01*
X153225000Y-110100000D02*
X152100000Y-110100000D01*
X152100000Y-110100000D02*
X151850000Y-110350000D01*
X160645000Y-113345000D02*
X159355000Y-113345000D01*
X159355000Y-113345000D02*
X158850000Y-113850000D01*
X160645000Y-106355000D02*
X161355000Y-106355000D01*
X161355000Y-106355000D02*
X161850000Y-106850000D01*
X96780000Y-109850000D02*
X96780000Y-108330000D01*
X96780000Y-108330000D02*
X93450000Y-105000000D01*
X166105000Y-113345000D02*
X164455000Y-113345000D01*
X223515000Y-130160000D02*
X223515000Y-129515000D01*
X222600000Y-128600000D02*
X219600000Y-128600000D01*
X219600000Y-128600000D02*
X201600000Y-110600000D01*
X223515000Y-129515000D02*
X222600000Y-128600000D01*
X201600000Y-110600000D02*
X168850000Y-110600000D01*
X168850000Y-110600000D02*
X166105000Y-113345000D01*
X157350000Y-94730000D02*
X157350000Y-95850000D01*
D29*
X68885000Y-99700000D02*
X70555000Y-99700000D01*
X73565000Y-99700000D02*
X76185000Y-99700000D01*
X76185000Y-98450000D02*
X76185000Y-94620000D01*
X76185000Y-99700000D02*
X76185000Y-98450000D01*
X85715000Y-120000000D02*
X88335000Y-120000000D01*
X91355000Y-119990000D02*
X91345000Y-120000000D01*
X93338674Y-120000000D02*
X93375571Y-119963103D01*
X91345000Y-120000000D02*
X93338674Y-120000000D01*
X70555000Y-140300000D02*
X68250000Y-140300000D01*
X73565000Y-140300000D02*
X76185000Y-140300000D01*
X145085000Y-140300000D02*
X142465000Y-140300000D01*
X137150000Y-140300000D02*
X139455000Y-140300000D01*
X160265000Y-120020000D02*
X160245000Y-120000000D01*
X162550000Y-120020000D02*
X160265000Y-120020000D01*
X154615000Y-120000000D02*
X157235000Y-120000000D01*
X145085000Y-99700000D02*
X142465000Y-99700000D01*
X139455000Y-99700000D02*
X137327510Y-99700000D01*
X207050282Y-99700000D02*
X206499372Y-100250910D01*
X208355000Y-99700000D02*
X207050282Y-99700000D01*
X213985000Y-99700000D02*
X211365000Y-99700000D01*
X213985000Y-99700000D02*
X213985000Y-98115000D01*
X215890000Y-96210000D02*
X215890000Y-94620000D01*
X213985000Y-98115000D02*
X215890000Y-96210000D01*
X223515000Y-120000000D02*
X226135000Y-120000000D01*
X231450000Y-120000000D02*
X229145000Y-120000000D01*
X206050000Y-140300000D02*
X208355000Y-140300000D01*
X211365000Y-140300000D02*
X213985000Y-140300000D01*
X229145000Y-130150000D02*
X231450000Y-130150000D01*
X79365000Y-98430000D02*
X78095000Y-99700000D01*
X80950000Y-98430000D02*
X79365000Y-98430000D01*
D28*
X146475000Y-104600000D02*
X145600000Y-104600000D01*
X146475000Y-105600000D02*
X144600000Y-105600000D01*
X145600000Y-104600000D02*
X144600000Y-105600000D01*
X146475000Y-106600000D02*
X143600000Y-106600000D01*
X144600000Y-105600000D02*
X143600000Y-106600000D01*
X89350000Y-127900000D02*
X91350000Y-129900000D01*
X91350000Y-129900000D02*
X131850000Y-129900000D01*
X131850000Y-129900000D02*
X139350000Y-122400000D01*
X139350000Y-122400000D02*
X139350000Y-110850000D01*
X139350000Y-110850000D02*
X143600000Y-106600000D01*
X81880000Y-98430000D02*
X80950000Y-98430000D01*
X83350000Y-99900000D02*
X81880000Y-98430000D01*
X83350000Y-101900000D02*
X83350000Y-99900000D01*
X81770000Y-103480000D02*
X83350000Y-101900000D01*
X70350000Y-117035000D02*
X70350000Y-109679707D01*
X70350000Y-109679707D02*
X76549707Y-103480000D01*
X83350000Y-127650000D02*
X80965000Y-127650000D01*
X80965000Y-127650000D02*
X70350000Y-117035000D01*
X76549707Y-103480000D02*
X81770000Y-103480000D01*
X143850000Y-107100000D02*
X146475000Y-107100000D01*
X139850000Y-111100000D02*
X143850000Y-107100000D01*
X139850000Y-122650000D02*
X139850000Y-111100000D01*
X132100000Y-130400000D02*
X139850000Y-122650000D01*
X88850000Y-128900000D02*
X90350000Y-130400000D01*
X90350000Y-130400000D02*
X132100000Y-130400000D01*
X78030000Y-100970000D02*
X80950000Y-100970000D01*
X69350000Y-109650000D02*
X78030000Y-100970000D01*
X69350000Y-117150000D02*
X69350000Y-109650000D01*
X82850000Y-128650000D02*
X80850000Y-128650000D01*
X80850000Y-128650000D02*
X69350000Y-117150000D01*
X80100001Y-119579999D02*
X80950000Y-118730000D01*
X79020000Y-120660000D02*
X80100001Y-119579999D01*
X144350000Y-108100000D02*
X140850000Y-111600000D01*
X79020000Y-121811411D02*
X79020000Y-120660000D01*
X146475000Y-108100000D02*
X144350000Y-108100000D01*
X140850000Y-111600000D02*
X140850000Y-123150000D01*
X140850000Y-123150000D02*
X132600000Y-131400000D01*
X132600000Y-131400000D02*
X88608589Y-131400000D01*
X88608589Y-131400000D02*
X79020000Y-121811411D01*
D29*
X82535000Y-121270000D02*
X83805000Y-120000000D01*
X80950000Y-121270000D02*
X82535000Y-121270000D01*
D28*
X80950000Y-122370000D02*
X80950000Y-121270000D01*
X146475000Y-107600000D02*
X144100000Y-107600000D01*
X140350000Y-111350000D02*
X140350000Y-122900000D01*
X140350000Y-122900000D02*
X132350000Y-130900000D01*
X132350000Y-130900000D02*
X89480000Y-130900000D01*
X144100000Y-107600000D02*
X140350000Y-111350000D01*
X89480000Y-130900000D02*
X80950000Y-122370000D01*
D29*
X79365000Y-139030000D02*
X78095000Y-140300000D01*
X80950000Y-139030000D02*
X79365000Y-139030000D01*
D28*
X80970000Y-139030000D02*
X80950000Y-139030000D01*
X144600000Y-108600000D02*
X141350000Y-111850000D01*
X146475000Y-108600000D02*
X144600000Y-108600000D01*
X141350000Y-111850000D02*
X141350000Y-123400000D01*
X141350000Y-123400000D02*
X132850000Y-131900000D01*
X132850000Y-131900000D02*
X88100000Y-131900000D01*
X88100000Y-131900000D02*
X80970000Y-139030000D01*
X81799999Y-140720001D02*
X80950000Y-141570000D01*
X81799999Y-140700001D02*
X81799999Y-140720001D01*
X144850000Y-109100000D02*
X141850000Y-112100000D01*
X146475000Y-109100000D02*
X144850000Y-109100000D01*
X141850000Y-112100000D02*
X141850000Y-123650000D01*
X141850000Y-123650000D02*
X133100000Y-132400000D01*
X133100000Y-132400000D02*
X90100000Y-132400000D01*
X90100000Y-132400000D02*
X81799999Y-140700001D01*
X150699999Y-140720001D02*
X149850000Y-141570000D01*
X151350000Y-137924999D02*
X151350000Y-140070000D01*
X145350000Y-110100000D02*
X142850000Y-112600000D01*
X151350000Y-140070000D02*
X150699999Y-140720001D01*
X146475000Y-110100000D02*
X145350000Y-110100000D01*
X142850000Y-112600000D02*
X142850000Y-118172500D01*
X142850000Y-118172500D02*
X150350000Y-125672500D01*
X150350000Y-125672500D02*
X150350000Y-136924999D01*
X150350000Y-136924999D02*
X151350000Y-137924999D01*
D29*
X148265000Y-139030000D02*
X146995000Y-140300000D01*
X149850000Y-139030000D02*
X149095000Y-139030000D01*
X149095000Y-139030000D02*
X148265000Y-139030000D01*
D28*
X145100000Y-109600000D02*
X142350000Y-112350000D01*
X146475000Y-109600000D02*
X145100000Y-109600000D01*
X142350000Y-112350000D02*
X142350000Y-118350000D01*
X142350000Y-118350000D02*
X148850000Y-124850000D01*
X148850000Y-124850000D02*
X149850000Y-125850000D01*
X149850000Y-125850000D02*
X149850000Y-139030000D01*
X148647919Y-118730000D02*
X149850000Y-118730000D01*
X144980000Y-118730000D02*
X148647919Y-118730000D01*
X143850000Y-117600000D02*
X144980000Y-118730000D01*
X143850000Y-113100000D02*
X143850000Y-117600000D01*
X146475000Y-112100000D02*
X144850000Y-112100000D01*
X144850000Y-112100000D02*
X143850000Y-113100000D01*
X149850000Y-111600000D02*
X149850000Y-100970000D01*
X146475000Y-113100000D02*
X148350000Y-113100000D01*
X148350000Y-113100000D02*
X149850000Y-111600000D01*
X210620000Y-109100000D02*
X218750000Y-100970000D01*
X167350000Y-108850000D02*
X167600000Y-109100000D01*
X167600000Y-109100000D02*
X210620000Y-109100000D01*
X149350000Y-113350000D02*
X148600000Y-114100000D01*
X148600000Y-114100000D02*
X146475000Y-114100000D01*
X146475000Y-115100000D02*
X144850000Y-115100000D01*
X211230000Y-118730000D02*
X218750000Y-118730000D01*
X202100000Y-109600000D02*
X211230000Y-118730000D01*
X166350000Y-109600000D02*
X202100000Y-109600000D01*
X169350000Y-111600000D02*
X201100000Y-111600000D01*
X153225000Y-115600000D02*
X165350000Y-115600000D01*
X165350000Y-115600000D02*
X169350000Y-111600000D01*
X219350000Y-129850000D02*
X219350000Y-137100000D01*
X201100000Y-111600000D02*
X219350000Y-129850000D01*
X220350000Y-138100000D02*
X220350000Y-139970000D01*
X219350000Y-137100000D02*
X220350000Y-138100000D01*
X220350000Y-139970000D02*
X218750000Y-141570000D01*
D29*
X151435000Y-121270000D02*
X152705000Y-120000000D01*
X149850000Y-121270000D02*
X151435000Y-121270000D01*
D28*
X146475000Y-110600000D02*
X145600000Y-110600000D01*
X144600000Y-111600000D02*
X143700000Y-112500000D01*
X146475000Y-111600000D02*
X144600000Y-111600000D01*
X145600000Y-110600000D02*
X143700000Y-112500000D01*
X146850000Y-121350000D02*
X149850000Y-121350000D01*
X143350000Y-117850000D02*
X146850000Y-121350000D01*
X143700000Y-112500000D02*
X143350000Y-112850000D01*
X143350000Y-112850000D02*
X143350000Y-117850000D01*
D29*
X148265000Y-98430000D02*
X146995000Y-99700000D01*
X149850000Y-98430000D02*
X148265000Y-98430000D01*
D28*
X146995000Y-100995000D02*
X146995000Y-99700000D01*
X149350000Y-103350000D02*
X146995000Y-100995000D01*
X149350000Y-111350000D02*
X149350000Y-103350000D01*
X146475000Y-112600000D02*
X148100000Y-112600000D01*
X148100000Y-112600000D02*
X149350000Y-111350000D01*
D29*
X217165000Y-98430000D02*
X215895000Y-99700000D01*
X218750000Y-98430000D02*
X217165000Y-98430000D01*
D28*
X146475000Y-113600000D02*
X144850000Y-113600000D01*
X215895000Y-103055000D02*
X215895000Y-99700000D01*
X210350000Y-108600000D02*
X215895000Y-103055000D01*
X168350000Y-108100000D02*
X168850000Y-108600000D01*
X168850000Y-108600000D02*
X210350000Y-108600000D01*
D29*
X220335000Y-121270000D02*
X221605000Y-120000000D01*
X218750000Y-121270000D02*
X220335000Y-121270000D01*
D28*
X147600000Y-114600000D02*
X146475000Y-114600000D01*
X147850000Y-114850000D02*
X147600000Y-114600000D01*
X213020000Y-121270000D02*
X218750000Y-121270000D01*
X201850000Y-110100000D02*
X213020000Y-121270000D01*
X166350000Y-110850000D02*
X167100000Y-110100000D01*
X167100000Y-110100000D02*
X201850000Y-110100000D01*
D29*
X217165000Y-139030000D02*
X215895000Y-140300000D01*
X218750000Y-139030000D02*
X217165000Y-139030000D01*
D28*
X149600000Y-115600000D02*
X146475000Y-115600000D01*
X150100000Y-116100000D02*
X149600000Y-115600000D01*
X218850000Y-138930000D02*
X218850000Y-130100000D01*
X218750000Y-139030000D02*
X218850000Y-138930000D01*
X218850000Y-130100000D02*
X200850000Y-112100000D01*
X169600000Y-112100000D02*
X165600000Y-116100000D01*
X200850000Y-112100000D02*
X169600000Y-112100000D01*
X165600000Y-116100000D02*
X150100000Y-116100000D01*
D29*
X80120000Y-108580000D02*
X79805000Y-108895000D01*
X80120000Y-106675000D02*
X80120000Y-108580000D01*
X73995000Y-108895000D02*
X73450000Y-108350000D01*
X79805000Y-108895000D02*
X73995000Y-108895000D01*
X80120000Y-111120000D02*
X79805000Y-110805000D01*
X80120000Y-113025000D02*
X80120000Y-111120000D01*
X73995000Y-110805000D02*
X73450000Y-111350000D01*
X79805000Y-110805000D02*
X73995000Y-110805000D01*
D28*
X143680000Y-93430000D02*
X142350000Y-93430000D01*
X144350000Y-95350000D02*
X144350000Y-94100000D01*
X154100000Y-104100000D02*
X154350000Y-103850000D01*
X144350000Y-94100000D02*
X143680000Y-93430000D01*
X153225000Y-104100000D02*
X154100000Y-104100000D01*
X154350000Y-97350000D02*
X153350000Y-96350000D01*
X153350000Y-96350000D02*
X145350000Y-96350000D01*
X154350000Y-103850000D02*
X154350000Y-97350000D01*
X145350000Y-96350000D02*
X144350000Y-95350000D01*
X153225000Y-104600000D02*
X154350000Y-104600000D01*
X154350000Y-104600000D02*
X154850000Y-104100000D01*
X154850000Y-104100000D02*
X154850000Y-97100000D01*
X154850000Y-97100000D02*
X153600000Y-95850000D01*
X153600000Y-95850000D02*
X150600000Y-95850000D01*
X150600000Y-95850000D02*
X150350000Y-95850000D01*
X150350000Y-95850000D02*
X149850000Y-95850000D01*
X149850000Y-95850000D02*
X149350000Y-95350000D01*
X149350000Y-95350000D02*
X149350000Y-94100000D01*
X148680000Y-93430000D02*
X147350000Y-93430000D01*
X149350000Y-94100000D02*
X148680000Y-93430000D01*
X154430000Y-93430000D02*
X152350000Y-93430000D01*
X155350000Y-94350000D02*
X154430000Y-93430000D01*
X155350000Y-104350000D02*
X155350000Y-94350000D01*
X153225000Y-105100000D02*
X154600000Y-105100000D01*
X154600000Y-105100000D02*
X155350000Y-104350000D01*
X155100000Y-105600000D02*
X153225000Y-105600000D01*
X155850000Y-104850000D02*
X155100000Y-105600000D01*
X156770000Y-93430000D02*
X155850000Y-94350000D01*
X157350000Y-93430000D02*
X156770000Y-93430000D01*
X155850000Y-94350000D02*
X155850000Y-104850000D01*
X204350000Y-98180000D02*
X208860000Y-93670000D01*
X204350000Y-105600000D02*
X204350000Y-98180000D01*
X202350000Y-107600000D02*
X204350000Y-105600000D01*
X170050000Y-107600000D02*
X202350000Y-107600000D01*
X168550000Y-106100000D02*
X170050000Y-107600000D01*
X168350000Y-106100000D02*
X168550000Y-106100000D01*
X154100000Y-109100000D02*
X153225000Y-109100000D01*
X154850000Y-108350000D02*
X154100000Y-109100000D01*
X164455000Y-111435000D02*
X164455000Y-108265000D01*
X164455000Y-108265000D02*
X164265000Y-108265000D01*
X164265000Y-108265000D02*
X162850000Y-106850000D01*
X162850000Y-106850000D02*
X162850000Y-105350000D01*
X154100000Y-106600000D02*
X153225000Y-106600000D01*
X154850000Y-107350000D02*
X154100000Y-106600000D01*
X164455000Y-106355000D02*
X164455000Y-105205000D01*
X164455000Y-105205000D02*
X163850000Y-104600000D01*
X155350000Y-106350000D02*
X155100000Y-106100000D01*
X155100000Y-106100000D02*
X153225000Y-106100000D01*
D29*
X82665000Y-107310000D02*
X82030000Y-106675000D01*
X84250000Y-107310000D02*
X82665000Y-107310000D01*
D28*
X220410000Y-130160000D02*
X221605000Y-130160000D01*
X201350000Y-111100000D02*
X220410000Y-130160000D01*
X169100000Y-111100000D02*
X201350000Y-111100000D01*
X153225000Y-115100000D02*
X165100000Y-115100000D01*
X165100000Y-115100000D02*
X169100000Y-111100000D01*
D29*
X82665000Y-112390000D02*
X82030000Y-113025000D01*
X84250000Y-112390000D02*
X82665000Y-112390000D01*
D28*
X151350000Y-107600000D02*
X153225000Y-107600000D01*
X92650000Y-113300000D02*
X92650000Y-112390000D01*
X95850000Y-116500000D02*
X92650000Y-113300000D01*
X95850000Y-123400000D02*
X95850000Y-116500000D01*
X131100000Y-128400000D02*
X100850000Y-128400000D01*
X137850000Y-121650000D02*
X131100000Y-128400000D01*
X137850000Y-110100000D02*
X137850000Y-121650000D01*
X100850000Y-128400000D02*
X95850000Y-123400000D01*
X140850000Y-106350000D02*
X140850000Y-107100000D01*
X140850000Y-107100000D02*
X137850000Y-110100000D01*
X151725000Y-106600000D02*
X152225000Y-107100000D01*
X152225000Y-107100000D02*
X153225000Y-107100000D01*
X151350000Y-106600000D02*
X151725000Y-106600000D01*
X91085000Y-108600000D02*
X92375000Y-107310000D01*
X91085000Y-113005000D02*
X91085000Y-108600000D01*
X95350000Y-117270000D02*
X91085000Y-113005000D01*
X95350000Y-123650000D02*
X95350000Y-117270000D01*
X141850000Y-106850000D02*
X138350000Y-110350000D01*
X141850000Y-106350000D02*
X141850000Y-106850000D01*
X92375000Y-107310000D02*
X92650000Y-107310000D01*
X138350000Y-110350000D02*
X138350000Y-121900000D01*
X138350000Y-121900000D02*
X131350000Y-128900000D01*
X131350000Y-128900000D02*
X100600000Y-128900000D01*
X100600000Y-128900000D02*
X95350000Y-123650000D01*
G36*
X153850000Y-103592654D02*
X152600000Y-103592654D01*
X152453683Y-103621758D01*
X152329641Y-103704641D01*
X152246758Y-103828683D01*
X152217654Y-103975000D01*
X152217654Y-104225000D01*
X152242518Y-104350000D01*
X152217654Y-104475000D01*
X152217654Y-104725000D01*
X152242518Y-104850000D01*
X152217654Y-104975000D01*
X152217654Y-105225000D01*
X152242518Y-105350000D01*
X152217654Y-105475000D01*
X152217654Y-105725000D01*
X152242518Y-105850000D01*
X152217654Y-105975000D01*
X152217654Y-106225000D01*
X152242518Y-106349999D01*
X152232495Y-106400389D01*
X152113376Y-106281270D01*
X152085480Y-106239520D01*
X152021957Y-106197076D01*
X152007013Y-106160998D01*
X151789002Y-105942987D01*
X151504157Y-105825000D01*
X151195843Y-105825000D01*
X150910998Y-105942987D01*
X150692987Y-106160998D01*
X150575000Y-106445843D01*
X150575000Y-106754157D01*
X150692987Y-107039002D01*
X150753985Y-107100000D01*
X150692987Y-107160998D01*
X150575000Y-107445843D01*
X150575000Y-107754157D01*
X150692987Y-108039002D01*
X150910998Y-108257013D01*
X151195843Y-108375000D01*
X151345178Y-108375000D01*
X151350001Y-108399246D01*
X151350000Y-109300758D01*
X151340205Y-109350000D01*
X151350000Y-109399241D01*
X151350000Y-109399242D01*
X151379011Y-109545089D01*
X151489520Y-109710480D01*
X151531271Y-109738377D01*
X151711623Y-109918729D01*
X151739520Y-109960480D01*
X151904910Y-110070989D01*
X152050757Y-110100000D01*
X152050758Y-110100000D01*
X152099999Y-110109795D01*
X152149240Y-110100000D01*
X152563069Y-110100000D01*
X152453683Y-110121758D01*
X152329641Y-110204641D01*
X152246758Y-110328683D01*
X152217654Y-110475000D01*
X152217654Y-110725000D01*
X152242518Y-110850000D01*
X152217654Y-110975000D01*
X152217654Y-111225000D01*
X152242518Y-111350000D01*
X152217654Y-111475000D01*
X152217654Y-111725000D01*
X152242518Y-111850000D01*
X152217654Y-111975000D01*
X152217654Y-112225000D01*
X152246758Y-112371317D01*
X152329641Y-112495359D01*
X152453683Y-112578242D01*
X152600000Y-112607346D01*
X153850000Y-112607346D01*
X153996317Y-112578242D01*
X154120359Y-112495359D01*
X154203242Y-112371317D01*
X154232346Y-112225000D01*
X154232346Y-111975000D01*
X154207482Y-111850000D01*
X154232346Y-111725000D01*
X154232346Y-111600000D01*
X155702654Y-111600000D01*
X155702654Y-111920000D01*
X155731758Y-112066317D01*
X155814641Y-112190359D01*
X155938683Y-112273242D01*
X156085000Y-112302346D01*
X157585000Y-112302346D01*
X157731317Y-112273242D01*
X157855359Y-112190359D01*
X157938242Y-112066317D01*
X157967346Y-111920000D01*
X157967346Y-111100000D01*
X159512654Y-111100000D01*
X159512654Y-111920000D01*
X159541758Y-112066317D01*
X159624641Y-112190359D01*
X159748683Y-112273242D01*
X159895000Y-112302346D01*
X161395000Y-112302346D01*
X161541317Y-112273242D01*
X161665359Y-112190359D01*
X161748242Y-112066317D01*
X161777346Y-111920000D01*
X161777346Y-110950000D01*
X161748242Y-110803683D01*
X161665359Y-110679641D01*
X161541317Y-110596758D01*
X161395000Y-110567654D01*
X160484760Y-110567654D01*
X160198376Y-110281270D01*
X160170480Y-110239520D01*
X160005090Y-110129011D01*
X159859243Y-110100000D01*
X159859241Y-110100000D01*
X159810000Y-110090205D01*
X159760759Y-110100000D01*
X159359243Y-110100000D01*
X159505090Y-110070989D01*
X159670480Y-109960480D01*
X159698376Y-109918730D01*
X160484761Y-109132346D01*
X161395000Y-109132346D01*
X161541317Y-109103242D01*
X161665359Y-109020359D01*
X161748242Y-108896317D01*
X161777346Y-108750000D01*
X161777346Y-107780000D01*
X161748242Y-107633683D01*
X161665359Y-107509641D01*
X161541317Y-107426758D01*
X161395000Y-107397654D01*
X160484760Y-107397654D01*
X160368376Y-107281270D01*
X160340480Y-107239520D01*
X160175090Y-107129011D01*
X160029243Y-107100000D01*
X160029241Y-107100000D01*
X159980000Y-107090205D01*
X159930759Y-107100000D01*
X159446015Y-107100000D01*
X159289002Y-106942987D01*
X159004157Y-106825000D01*
X158695843Y-106825000D01*
X158410998Y-106942987D01*
X158192987Y-107160998D01*
X158075000Y-107445843D01*
X158075000Y-107754157D01*
X158192987Y-108039002D01*
X158410998Y-108257013D01*
X158695843Y-108375000D01*
X159004157Y-108375000D01*
X159289002Y-108257013D01*
X159446015Y-108100000D01*
X159512654Y-108100000D01*
X159512654Y-108690240D01*
X159102894Y-109100000D01*
X155064512Y-109100000D01*
X155289002Y-109007013D01*
X155507013Y-108789002D01*
X155625000Y-108504157D01*
X155625000Y-108195843D01*
X155507013Y-107910998D01*
X155446015Y-107850000D01*
X155507013Y-107789002D01*
X155625000Y-107504157D01*
X155625000Y-107195843D01*
X155582256Y-107092650D01*
X155754998Y-107021098D01*
X155814641Y-107110359D01*
X155938683Y-107193242D01*
X156085000Y-107222346D01*
X157585000Y-107222346D01*
X157731317Y-107193242D01*
X157855359Y-107110359D01*
X157938242Y-106986317D01*
X157967346Y-106840000D01*
X157967346Y-105870000D01*
X157938242Y-105723683D01*
X157855359Y-105599641D01*
X157731317Y-105516758D01*
X157625000Y-105495610D01*
X157625000Y-105195843D01*
X157507013Y-104910998D01*
X157289002Y-104692987D01*
X157004157Y-104575000D01*
X156695843Y-104575000D01*
X156410998Y-104692987D01*
X156350000Y-104753985D01*
X156350000Y-103225000D01*
X163267894Y-103225000D01*
X163867894Y-103825000D01*
X163695843Y-103825000D01*
X163410998Y-103942987D01*
X163192987Y-104160998D01*
X163075000Y-104445843D01*
X163075000Y-104604344D01*
X163004157Y-104575000D01*
X162695843Y-104575000D01*
X162410998Y-104692987D01*
X162192987Y-104910998D01*
X162075000Y-105195843D01*
X162075000Y-105504157D01*
X162192987Y-105789002D01*
X162350001Y-105946016D01*
X162350000Y-106800758D01*
X162340205Y-106850000D01*
X162350000Y-106899241D01*
X162350000Y-106899242D01*
X162379011Y-107045089D01*
X162489520Y-107210480D01*
X162531270Y-107238376D01*
X163322654Y-108029761D01*
X163322654Y-108750000D01*
X163351758Y-108896317D01*
X163434641Y-109020359D01*
X163558683Y-109103242D01*
X163705000Y-109132346D01*
X163955001Y-109132346D01*
X163955000Y-110567654D01*
X163705000Y-110567654D01*
X163558683Y-110596758D01*
X163434641Y-110679641D01*
X163351758Y-110803683D01*
X163322654Y-110950000D01*
X163322654Y-111920000D01*
X163351758Y-112066317D01*
X163434641Y-112190359D01*
X163558683Y-112273242D01*
X163705000Y-112302346D01*
X165205000Y-112302346D01*
X165351317Y-112273242D01*
X165475359Y-112190359D01*
X165558242Y-112066317D01*
X165587346Y-111920000D01*
X165587346Y-111033963D01*
X165692987Y-111289002D01*
X165725000Y-111321015D01*
X165725000Y-113767894D01*
X164892894Y-114600000D01*
X154232346Y-114600000D01*
X154232346Y-114475000D01*
X154207482Y-114350000D01*
X154232346Y-114225000D01*
X154232346Y-113975000D01*
X154207482Y-113850000D01*
X154232346Y-113725000D01*
X154232346Y-113475000D01*
X154203242Y-113328683D01*
X154120359Y-113204641D01*
X153996317Y-113121758D01*
X153850000Y-113092654D01*
X152600000Y-113092654D01*
X152453683Y-113121758D01*
X152329641Y-113204641D01*
X152246758Y-113328683D01*
X152217654Y-113475000D01*
X152217654Y-113725000D01*
X152242518Y-113850000D01*
X152217654Y-113975000D01*
X152217654Y-114225000D01*
X152242518Y-114350000D01*
X152217654Y-114475000D01*
X152217654Y-114725000D01*
X152242518Y-114849999D01*
X152217654Y-114975000D01*
X152217654Y-115225000D01*
X152242518Y-115350000D01*
X152217654Y-115475000D01*
X152217654Y-115600000D01*
X150307107Y-115600000D01*
X149988376Y-115281270D01*
X149960480Y-115239520D01*
X149795090Y-115129011D01*
X149649243Y-115100000D01*
X149649241Y-115100000D01*
X149600000Y-115090205D01*
X149550759Y-115100000D01*
X148585300Y-115100000D01*
X148625000Y-115004157D01*
X148625000Y-114695843D01*
X148588402Y-114607488D01*
X148600000Y-114609795D01*
X148649241Y-114600000D01*
X148649243Y-114600000D01*
X148795090Y-114570989D01*
X148960480Y-114460480D01*
X148988376Y-114418730D01*
X149282106Y-114125000D01*
X149504157Y-114125000D01*
X149789002Y-114007013D01*
X150007013Y-113789002D01*
X150125000Y-113504157D01*
X150125000Y-113195843D01*
X150007013Y-112910998D01*
X149789002Y-112692987D01*
X149559276Y-112597831D01*
X150168733Y-111988374D01*
X150210480Y-111960480D01*
X150320989Y-111795090D01*
X150350000Y-111649243D01*
X150350000Y-111649242D01*
X150359795Y-111600001D01*
X150350000Y-111550760D01*
X150350000Y-103225000D01*
X153850000Y-103225000D01*
X153850000Y-103592654D01*
X153850000Y-103592654D01*
G37*
X153850000Y-103592654D02*
X152600000Y-103592654D01*
X152453683Y-103621758D01*
X152329641Y-103704641D01*
X152246758Y-103828683D01*
X152217654Y-103975000D01*
X152217654Y-104225000D01*
X152242518Y-104350000D01*
X152217654Y-104475000D01*
X152217654Y-104725000D01*
X152242518Y-104850000D01*
X152217654Y-104975000D01*
X152217654Y-105225000D01*
X152242518Y-105350000D01*
X152217654Y-105475000D01*
X152217654Y-105725000D01*
X152242518Y-105850000D01*
X152217654Y-105975000D01*
X152217654Y-106225000D01*
X152242518Y-106349999D01*
X152232495Y-106400389D01*
X152113376Y-106281270D01*
X152085480Y-106239520D01*
X152021957Y-106197076D01*
X152007013Y-106160998D01*
X151789002Y-105942987D01*
X151504157Y-105825000D01*
X151195843Y-105825000D01*
X150910998Y-105942987D01*
X150692987Y-106160998D01*
X150575000Y-106445843D01*
X150575000Y-106754157D01*
X150692987Y-107039002D01*
X150753985Y-107100000D01*
X150692987Y-107160998D01*
X150575000Y-107445843D01*
X150575000Y-107754157D01*
X150692987Y-108039002D01*
X150910998Y-108257013D01*
X151195843Y-108375000D01*
X151345178Y-108375000D01*
X151350001Y-108399246D01*
X151350000Y-109300758D01*
X151340205Y-109350000D01*
X151350000Y-109399241D01*
X151350000Y-109399242D01*
X151379011Y-109545089D01*
X151489520Y-109710480D01*
X151531271Y-109738377D01*
X151711623Y-109918729D01*
X151739520Y-109960480D01*
X151904910Y-110070989D01*
X152050757Y-110100000D01*
X152050758Y-110100000D01*
X152099999Y-110109795D01*
X152149240Y-110100000D01*
X152563069Y-110100000D01*
X152453683Y-110121758D01*
X152329641Y-110204641D01*
X152246758Y-110328683D01*
X152217654Y-110475000D01*
X152217654Y-110725000D01*
X152242518Y-110850000D01*
X152217654Y-110975000D01*
X152217654Y-111225000D01*
X152242518Y-111350000D01*
X152217654Y-111475000D01*
X152217654Y-111725000D01*
X152242518Y-111850000D01*
X152217654Y-111975000D01*
X152217654Y-112225000D01*
X152246758Y-112371317D01*
X152329641Y-112495359D01*
X152453683Y-112578242D01*
X152600000Y-112607346D01*
X153850000Y-112607346D01*
X153996317Y-112578242D01*
X154120359Y-112495359D01*
X154203242Y-112371317D01*
X154232346Y-112225000D01*
X154232346Y-111975000D01*
X154207482Y-111850000D01*
X154232346Y-111725000D01*
X154232346Y-111600000D01*
X155702654Y-111600000D01*
X155702654Y-111920000D01*
X155731758Y-112066317D01*
X155814641Y-112190359D01*
X155938683Y-112273242D01*
X156085000Y-112302346D01*
X157585000Y-112302346D01*
X157731317Y-112273242D01*
X157855359Y-112190359D01*
X157938242Y-112066317D01*
X157967346Y-111920000D01*
X157967346Y-111100000D01*
X159512654Y-111100000D01*
X159512654Y-111920000D01*
X159541758Y-112066317D01*
X159624641Y-112190359D01*
X159748683Y-112273242D01*
X159895000Y-112302346D01*
X161395000Y-112302346D01*
X161541317Y-112273242D01*
X161665359Y-112190359D01*
X161748242Y-112066317D01*
X161777346Y-111920000D01*
X161777346Y-110950000D01*
X161748242Y-110803683D01*
X161665359Y-110679641D01*
X161541317Y-110596758D01*
X161395000Y-110567654D01*
X160484760Y-110567654D01*
X160198376Y-110281270D01*
X160170480Y-110239520D01*
X160005090Y-110129011D01*
X159859243Y-110100000D01*
X159859241Y-110100000D01*
X159810000Y-110090205D01*
X159760759Y-110100000D01*
X159359243Y-110100000D01*
X159505090Y-110070989D01*
X159670480Y-109960480D01*
X159698376Y-109918730D01*
X160484761Y-109132346D01*
X161395000Y-109132346D01*
X161541317Y-109103242D01*
X161665359Y-109020359D01*
X161748242Y-108896317D01*
X161777346Y-108750000D01*
X161777346Y-107780000D01*
X161748242Y-107633683D01*
X161665359Y-107509641D01*
X161541317Y-107426758D01*
X161395000Y-107397654D01*
X160484760Y-107397654D01*
X160368376Y-107281270D01*
X160340480Y-107239520D01*
X160175090Y-107129011D01*
X160029243Y-107100000D01*
X160029241Y-107100000D01*
X159980000Y-107090205D01*
X159930759Y-107100000D01*
X159446015Y-107100000D01*
X159289002Y-106942987D01*
X159004157Y-106825000D01*
X158695843Y-106825000D01*
X158410998Y-106942987D01*
X158192987Y-107160998D01*
X158075000Y-107445843D01*
X158075000Y-107754157D01*
X158192987Y-108039002D01*
X158410998Y-108257013D01*
X158695843Y-108375000D01*
X159004157Y-108375000D01*
X159289002Y-108257013D01*
X159446015Y-108100000D01*
X159512654Y-108100000D01*
X159512654Y-108690240D01*
X159102894Y-109100000D01*
X155064512Y-109100000D01*
X155289002Y-109007013D01*
X155507013Y-108789002D01*
X155625000Y-108504157D01*
X155625000Y-108195843D01*
X155507013Y-107910998D01*
X155446015Y-107850000D01*
X155507013Y-107789002D01*
X155625000Y-107504157D01*
X155625000Y-107195843D01*
X155582256Y-107092650D01*
X155754998Y-107021098D01*
X155814641Y-107110359D01*
X155938683Y-107193242D01*
X156085000Y-107222346D01*
X157585000Y-107222346D01*
X157731317Y-107193242D01*
X157855359Y-107110359D01*
X157938242Y-106986317D01*
X157967346Y-106840000D01*
X157967346Y-105870000D01*
X157938242Y-105723683D01*
X157855359Y-105599641D01*
X157731317Y-105516758D01*
X157625000Y-105495610D01*
X157625000Y-105195843D01*
X157507013Y-104910998D01*
X157289002Y-104692987D01*
X157004157Y-104575000D01*
X156695843Y-104575000D01*
X156410998Y-104692987D01*
X156350000Y-104753985D01*
X156350000Y-103225000D01*
X163267894Y-103225000D01*
X163867894Y-103825000D01*
X163695843Y-103825000D01*
X163410998Y-103942987D01*
X163192987Y-104160998D01*
X163075000Y-104445843D01*
X163075000Y-104604344D01*
X163004157Y-104575000D01*
X162695843Y-104575000D01*
X162410998Y-104692987D01*
X162192987Y-104910998D01*
X162075000Y-105195843D01*
X162075000Y-105504157D01*
X162192987Y-105789002D01*
X162350001Y-105946016D01*
X162350000Y-106800758D01*
X162340205Y-106850000D01*
X162350000Y-106899241D01*
X162350000Y-106899242D01*
X162379011Y-107045089D01*
X162489520Y-107210480D01*
X162531270Y-107238376D01*
X163322654Y-108029761D01*
X163322654Y-108750000D01*
X163351758Y-108896317D01*
X163434641Y-109020359D01*
X163558683Y-109103242D01*
X163705000Y-109132346D01*
X163955001Y-109132346D01*
X163955000Y-110567654D01*
X163705000Y-110567654D01*
X163558683Y-110596758D01*
X163434641Y-110679641D01*
X163351758Y-110803683D01*
X163322654Y-110950000D01*
X163322654Y-111920000D01*
X163351758Y-112066317D01*
X163434641Y-112190359D01*
X163558683Y-112273242D01*
X163705000Y-112302346D01*
X165205000Y-112302346D01*
X165351317Y-112273242D01*
X165475359Y-112190359D01*
X165558242Y-112066317D01*
X165587346Y-111920000D01*
X165587346Y-111033963D01*
X165692987Y-111289002D01*
X165725000Y-111321015D01*
X165725000Y-113767894D01*
X164892894Y-114600000D01*
X154232346Y-114600000D01*
X154232346Y-114475000D01*
X154207482Y-114350000D01*
X154232346Y-114225000D01*
X154232346Y-113975000D01*
X154207482Y-113850000D01*
X154232346Y-113725000D01*
X154232346Y-113475000D01*
X154203242Y-113328683D01*
X154120359Y-113204641D01*
X153996317Y-113121758D01*
X153850000Y-113092654D01*
X152600000Y-113092654D01*
X152453683Y-113121758D01*
X152329641Y-113204641D01*
X152246758Y-113328683D01*
X152217654Y-113475000D01*
X152217654Y-113725000D01*
X152242518Y-113850000D01*
X152217654Y-113975000D01*
X152217654Y-114225000D01*
X152242518Y-114350000D01*
X152217654Y-114475000D01*
X152217654Y-114725000D01*
X152242518Y-114849999D01*
X152217654Y-114975000D01*
X152217654Y-115225000D01*
X152242518Y-115350000D01*
X152217654Y-115475000D01*
X152217654Y-115600000D01*
X150307107Y-115600000D01*
X149988376Y-115281270D01*
X149960480Y-115239520D01*
X149795090Y-115129011D01*
X149649243Y-115100000D01*
X149649241Y-115100000D01*
X149600000Y-115090205D01*
X149550759Y-115100000D01*
X148585300Y-115100000D01*
X148625000Y-115004157D01*
X148625000Y-114695843D01*
X148588402Y-114607488D01*
X148600000Y-114609795D01*
X148649241Y-114600000D01*
X148649243Y-114600000D01*
X148795090Y-114570989D01*
X148960480Y-114460480D01*
X148988376Y-114418730D01*
X149282106Y-114125000D01*
X149504157Y-114125000D01*
X149789002Y-114007013D01*
X150007013Y-113789002D01*
X150125000Y-113504157D01*
X150125000Y-113195843D01*
X150007013Y-112910998D01*
X149789002Y-112692987D01*
X149559276Y-112597831D01*
X150168733Y-111988374D01*
X150210480Y-111960480D01*
X150320989Y-111795090D01*
X150350000Y-111649243D01*
X150350000Y-111649242D01*
X150359795Y-111600001D01*
X150350000Y-111550760D01*
X150350000Y-103225000D01*
X153850000Y-103225000D01*
X153850000Y-103592654D01*
G36*
X148850001Y-103557108D02*
X148850000Y-111142893D01*
X147892894Y-112100000D01*
X147482346Y-112100000D01*
X147482346Y-111975000D01*
X147457482Y-111850000D01*
X147482346Y-111725000D01*
X147482346Y-111475000D01*
X147457482Y-111350000D01*
X147482346Y-111225000D01*
X147482346Y-110975000D01*
X147457482Y-110850000D01*
X147482346Y-110725000D01*
X147482346Y-110475000D01*
X147457482Y-110350000D01*
X147482346Y-110225000D01*
X147482346Y-109975000D01*
X147457482Y-109850000D01*
X147482346Y-109725000D01*
X147482346Y-109475000D01*
X147457482Y-109350000D01*
X147482346Y-109225000D01*
X147482346Y-108975000D01*
X147457482Y-108850000D01*
X147482346Y-108725000D01*
X147482346Y-108475000D01*
X147457482Y-108350000D01*
X147482346Y-108225000D01*
X147482346Y-107975000D01*
X147457482Y-107850000D01*
X147482346Y-107725000D01*
X147482346Y-107475000D01*
X147457482Y-107349999D01*
X147482346Y-107225000D01*
X147482346Y-106975000D01*
X147457482Y-106850000D01*
X147482346Y-106725000D01*
X147482346Y-106475000D01*
X147457482Y-106349999D01*
X147482346Y-106225000D01*
X147482346Y-105975000D01*
X147457482Y-105850000D01*
X147482346Y-105725000D01*
X147482346Y-105475000D01*
X147457482Y-105350000D01*
X147482346Y-105225000D01*
X147482346Y-104975000D01*
X147457482Y-104850000D01*
X147471032Y-104781880D01*
X147695843Y-104875000D01*
X148004157Y-104875000D01*
X148289002Y-104757013D01*
X148507013Y-104539002D01*
X148625000Y-104254157D01*
X148625000Y-103945843D01*
X148507013Y-103660998D01*
X148289002Y-103442987D01*
X148004157Y-103325000D01*
X147695843Y-103325000D01*
X147410998Y-103442987D01*
X147253985Y-103600000D01*
X147136931Y-103600000D01*
X147100000Y-103592654D01*
X145850000Y-103592654D01*
X145813069Y-103600000D01*
X145475000Y-103600000D01*
X145475000Y-103225000D01*
X148517893Y-103225000D01*
X148850001Y-103557108D01*
X148850001Y-103557108D01*
G37*
X148850001Y-103557108D02*
X148850000Y-111142893D01*
X147892894Y-112100000D01*
X147482346Y-112100000D01*
X147482346Y-111975000D01*
X147457482Y-111850000D01*
X147482346Y-111725000D01*
X147482346Y-111475000D01*
X147457482Y-111350000D01*
X147482346Y-111225000D01*
X147482346Y-110975000D01*
X147457482Y-110850000D01*
X147482346Y-110725000D01*
X147482346Y-110475000D01*
X147457482Y-110350000D01*
X147482346Y-110225000D01*
X147482346Y-109975000D01*
X147457482Y-109850000D01*
X147482346Y-109725000D01*
X147482346Y-109475000D01*
X147457482Y-109350000D01*
X147482346Y-109225000D01*
X147482346Y-108975000D01*
X147457482Y-108850000D01*
X147482346Y-108725000D01*
X147482346Y-108475000D01*
X147457482Y-108350000D01*
X147482346Y-108225000D01*
X147482346Y-107975000D01*
X147457482Y-107850000D01*
X147482346Y-107725000D01*
X147482346Y-107475000D01*
X147457482Y-107349999D01*
X147482346Y-107225000D01*
X147482346Y-106975000D01*
X147457482Y-106850000D01*
X147482346Y-106725000D01*
X147482346Y-106475000D01*
X147457482Y-106349999D01*
X147482346Y-106225000D01*
X147482346Y-105975000D01*
X147457482Y-105850000D01*
X147482346Y-105725000D01*
X147482346Y-105475000D01*
X147457482Y-105350000D01*
X147482346Y-105225000D01*
X147482346Y-104975000D01*
X147457482Y-104850000D01*
X147471032Y-104781880D01*
X147695843Y-104875000D01*
X148004157Y-104875000D01*
X148289002Y-104757013D01*
X148507013Y-104539002D01*
X148625000Y-104254157D01*
X148625000Y-103945843D01*
X148507013Y-103660998D01*
X148289002Y-103442987D01*
X148004157Y-103325000D01*
X147695843Y-103325000D01*
X147410998Y-103442987D01*
X147253985Y-103600000D01*
X147136931Y-103600000D01*
X147100000Y-103592654D01*
X145850000Y-103592654D01*
X145813069Y-103600000D01*
X145475000Y-103600000D01*
X145475000Y-103225000D01*
X148517893Y-103225000D01*
X148850001Y-103557108D01*
M02*
