%TF.GenerationSoftware,KiCad,Pcbnew,(5.0.0-rc2-dev-733-g23a9fcd91)*%
%TF.CreationDate,2018-05-26T11:51:58+02:00*%
%TF.ProjectId,CellsBoard,43656C6C73426F6172642E6B69636164,rev?*%
%TF.SameCoordinates,Original*%
%TF.FileFunction,Legend,Bot*%
%TF.FilePolarity,Positive*%
%FSLAX46Y46*%
G04 Gerber Fmt 4.6, Leading zero omitted, Abs format (unit mm)*
G04 Created by KiCad (PCBNEW (5.0.0-rc2-dev-733-g23a9fcd91)) date 05/26/18 11:51:58*
%MOMM*%
%LPD*%
G01*
G04 APERTURE LIST*
%ADD10C,0.150000*%
%ADD11C,0.120000*%
G04 APERTURE END LIST*
D10*
X226950000Y-132300000D02*
X229950000Y-132300000D01*
X225950000Y-147300000D02*
X225950000Y-133300000D01*
X229950000Y-148300000D02*
X226950000Y-148300000D01*
X230950000Y-133300000D02*
X230950000Y-147300000D01*
X226950000Y-148300000D02*
G75*
G02X225950000Y-147300000I0J1000000D01*
G01*
X225950000Y-133300000D02*
G75*
G02X226950000Y-132300000I1000000J0D01*
G01*
X229950000Y-132300000D02*
G75*
G02X230950000Y-133300000I0J-1000000D01*
G01*
X230950000Y-147300000D02*
G75*
G02X229950000Y-148300000I-1000000J0D01*
G01*
X247500000Y-90000000D02*
X52500000Y-90000000D01*
X247500000Y-90000000D02*
G75*
G02X250000000Y-92500000I0J-2500000D01*
G01*
X250000000Y-147500000D02*
X250000000Y-92500000D01*
X250000000Y-147500000D02*
G75*
G02X247500000Y-150000000I-2500000J0D01*
G01*
X52500000Y-150000000D02*
X247500000Y-150000000D01*
X52500000Y-150000000D02*
G75*
G02X50000000Y-147500000I0J2500000D01*
G01*
X50000000Y-92500000D02*
X50000000Y-147500000D01*
X50000000Y-92500000D02*
G75*
G02X52500000Y-90000000I2500000J0D01*
G01*
X240950000Y-133800000D02*
G75*
G02X240950000Y-146800000I0J-6500000D01*
G01*
X240950000Y-133800000D02*
X232950000Y-133800000D01*
X240950000Y-146800000D02*
X232950000Y-146800000D01*
X103100000Y-146800000D02*
X127700000Y-146800000D01*
X103100000Y-133800000D02*
X127700000Y-133800000D01*
X127650000Y-133800000D02*
G75*
G02X127650000Y-146800000I0J-6500000D01*
G01*
X103150000Y-146800000D02*
G75*
G02X103150000Y-133800000I0J6500000D01*
G01*
X172000000Y-106200000D02*
X196600000Y-106200000D01*
X172000000Y-93200000D02*
X196600000Y-93200000D01*
X196550000Y-93200000D02*
G75*
G02X196550000Y-106200000I0J-6500000D01*
G01*
X172050000Y-106200000D02*
G75*
G02X172050000Y-93200000I0J6500000D01*
G01*
X109650000Y-120000000D02*
X109650000Y-99700000D01*
X96650000Y-120000000D02*
X96650000Y-99700000D01*
X96650000Y-99700000D02*
G75*
G02X109650000Y-99700000I6500000J0D01*
G01*
X109650000Y-120000000D02*
G75*
G02X96650000Y-120000000I-6500000J0D01*
G01*
X65250000Y-140300000D02*
X65250000Y-120000000D01*
X52250000Y-140300000D02*
X52250000Y-120000000D01*
X52250000Y-120000000D02*
G75*
G02X65250000Y-120000000I6500000J0D01*
G01*
X65250000Y-140300000D02*
G75*
G02X52250000Y-140300000I-6500000J0D01*
G01*
X165550000Y-120000000D02*
X165550000Y-140300000D01*
X178550000Y-120000000D02*
X178550000Y-140300000D01*
X178550000Y-140300000D02*
G75*
G02X165550000Y-140300000I-6500000J0D01*
G01*
X165550000Y-120000000D02*
G75*
G02X178550000Y-120000000I6500000J0D01*
G01*
X121150000Y-99700000D02*
X121150000Y-120000000D01*
X134150000Y-99700000D02*
X134150000Y-120000000D01*
X134150000Y-120000000D02*
G75*
G02X121150000Y-120000000I-6500000J0D01*
G01*
X121150000Y-99700000D02*
G75*
G02X134150000Y-99700000I6500000J0D01*
G01*
X247450000Y-120000000D02*
X247450000Y-99700000D01*
X234450000Y-120000000D02*
X234450000Y-99700000D01*
X234450000Y-99700000D02*
G75*
G02X247450000Y-99700000I6500000J0D01*
G01*
X247450000Y-120000000D02*
G75*
G02X234450000Y-120000000I-6500000J0D01*
G01*
X203050000Y-140300000D02*
X203050000Y-120000000D01*
X190050000Y-140300000D02*
X190050000Y-120000000D01*
X190050000Y-120000000D02*
G75*
G02X203050000Y-120000000I6500000J0D01*
G01*
X203050000Y-140300000D02*
G75*
G02X190050000Y-140300000I-6500000J0D01*
G01*
X58750000Y-93200000D02*
G75*
G02X58750000Y-106200000I0J-6500000D01*
G01*
X58750000Y-93200000D02*
X50750000Y-93200000D01*
X58750000Y-106200000D02*
X50750000Y-106200000D01*
D11*
X80950000Y-97100000D02*
X79620000Y-97100000D01*
X79620000Y-97100000D02*
X79620000Y-98430000D01*
X79620000Y-99700000D02*
X79620000Y-102300000D01*
X82280000Y-102300000D02*
X79620000Y-102300000D01*
X82280000Y-99700000D02*
X82280000Y-102300000D01*
X82280000Y-99700000D02*
X79620000Y-99700000D01*
X79620000Y-120000000D02*
X82280000Y-120000000D01*
X79620000Y-120000000D02*
X79620000Y-117400000D01*
X79620000Y-117400000D02*
X82280000Y-117400000D01*
X82280000Y-120000000D02*
X82280000Y-117400000D01*
X82280000Y-122600000D02*
X82280000Y-121270000D01*
X80950000Y-122600000D02*
X82280000Y-122600000D01*
X80950000Y-137700000D02*
X79620000Y-137700000D01*
X79620000Y-137700000D02*
X79620000Y-139030000D01*
X79620000Y-140300000D02*
X79620000Y-142900000D01*
X82280000Y-142900000D02*
X79620000Y-142900000D01*
X82280000Y-140300000D02*
X82280000Y-142900000D01*
X82280000Y-140300000D02*
X79620000Y-140300000D01*
X149850000Y-137700000D02*
X148520000Y-137700000D01*
X148520000Y-137700000D02*
X148520000Y-139030000D01*
X148520000Y-140300000D02*
X148520000Y-142900000D01*
X151180000Y-142900000D02*
X148520000Y-142900000D01*
X151180000Y-140300000D02*
X151180000Y-142900000D01*
X151180000Y-140300000D02*
X148520000Y-140300000D01*
X149850000Y-122600000D02*
X151180000Y-122600000D01*
X151180000Y-122600000D02*
X151180000Y-121270000D01*
X151180000Y-120000000D02*
X151180000Y-117400000D01*
X148520000Y-117400000D02*
X151180000Y-117400000D01*
X148520000Y-120000000D02*
X148520000Y-117400000D01*
X148520000Y-120000000D02*
X151180000Y-120000000D01*
X149850000Y-97100000D02*
X148520000Y-97100000D01*
X148520000Y-97100000D02*
X148520000Y-98430000D01*
X148520000Y-99700000D02*
X148520000Y-102300000D01*
X151180000Y-102300000D02*
X148520000Y-102300000D01*
X151180000Y-99700000D02*
X151180000Y-102300000D01*
X151180000Y-99700000D02*
X148520000Y-99700000D01*
X218750000Y-97100000D02*
X217420000Y-97100000D01*
X217420000Y-97100000D02*
X217420000Y-98430000D01*
X217420000Y-99700000D02*
X217420000Y-102300000D01*
X220080000Y-102300000D02*
X217420000Y-102300000D01*
X220080000Y-99700000D02*
X220080000Y-102300000D01*
X220080000Y-99700000D02*
X217420000Y-99700000D01*
X218750000Y-122600000D02*
X220080000Y-122600000D01*
X220080000Y-122600000D02*
X220080000Y-121270000D01*
X220080000Y-120000000D02*
X220080000Y-117400000D01*
X217420000Y-117400000D02*
X220080000Y-117400000D01*
X217420000Y-120000000D02*
X217420000Y-117400000D01*
X217420000Y-120000000D02*
X220080000Y-120000000D01*
X220080000Y-140300000D02*
X217420000Y-140300000D01*
X220080000Y-140300000D02*
X220080000Y-142900000D01*
X220080000Y-142900000D02*
X217420000Y-142900000D01*
X217420000Y-140300000D02*
X217420000Y-142900000D01*
X217420000Y-137700000D02*
X217420000Y-139030000D01*
X218750000Y-137700000D02*
X217420000Y-137700000D01*
D10*
X81283333Y-94882380D02*
X81283333Y-95596666D01*
X81330952Y-95739523D01*
X81426190Y-95834761D01*
X81569047Y-95882380D01*
X81664285Y-95882380D01*
X80283333Y-95882380D02*
X80854761Y-95882380D01*
X80569047Y-95882380D02*
X80569047Y-94882380D01*
X80664285Y-95025238D01*
X80759523Y-95120476D01*
X80854761Y-95168095D01*
X81283333Y-115182380D02*
X81283333Y-115896666D01*
X81330952Y-116039523D01*
X81426190Y-116134761D01*
X81569047Y-116182380D01*
X81664285Y-116182380D01*
X80902380Y-115182380D02*
X80283333Y-115182380D01*
X80616666Y-115563333D01*
X80473809Y-115563333D01*
X80378571Y-115610952D01*
X80330952Y-115658571D01*
X80283333Y-115753809D01*
X80283333Y-115991904D01*
X80330952Y-116087142D01*
X80378571Y-116134761D01*
X80473809Y-116182380D01*
X80759523Y-116182380D01*
X80854761Y-116134761D01*
X80902380Y-116087142D01*
X81283333Y-135482380D02*
X81283333Y-136196666D01*
X81330952Y-136339523D01*
X81426190Y-136434761D01*
X81569047Y-136482380D01*
X81664285Y-136482380D01*
X80330952Y-135482380D02*
X80807142Y-135482380D01*
X80854761Y-135958571D01*
X80807142Y-135910952D01*
X80711904Y-135863333D01*
X80473809Y-135863333D01*
X80378571Y-135910952D01*
X80330952Y-135958571D01*
X80283333Y-136053809D01*
X80283333Y-136291904D01*
X80330952Y-136387142D01*
X80378571Y-136434761D01*
X80473809Y-136482380D01*
X80711904Y-136482380D01*
X80807142Y-136434761D01*
X80854761Y-136387142D01*
X150183333Y-135482380D02*
X150183333Y-136196666D01*
X150230952Y-136339523D01*
X150326190Y-136434761D01*
X150469047Y-136482380D01*
X150564285Y-136482380D01*
X149802380Y-135482380D02*
X149135714Y-135482380D01*
X149564285Y-136482380D01*
X150659523Y-115182380D02*
X150659523Y-115896666D01*
X150707142Y-116039523D01*
X150802380Y-116134761D01*
X150945238Y-116182380D01*
X151040476Y-116182380D01*
X149659523Y-116182380D02*
X150230952Y-116182380D01*
X149945238Y-116182380D02*
X149945238Y-115182380D01*
X150040476Y-115325238D01*
X150135714Y-115420476D01*
X150230952Y-115468095D01*
X149040476Y-115182380D02*
X148945238Y-115182380D01*
X148850000Y-115230000D01*
X148802380Y-115277619D01*
X148754761Y-115372857D01*
X148707142Y-115563333D01*
X148707142Y-115801428D01*
X148754761Y-115991904D01*
X148802380Y-116087142D01*
X148850000Y-116134761D01*
X148945238Y-116182380D01*
X149040476Y-116182380D01*
X149135714Y-116134761D01*
X149183333Y-116087142D01*
X149230952Y-115991904D01*
X149278571Y-115801428D01*
X149278571Y-115563333D01*
X149230952Y-115372857D01*
X149183333Y-115277619D01*
X149135714Y-115230000D01*
X149040476Y-115182380D01*
X150659523Y-94882380D02*
X150659523Y-95596666D01*
X150707142Y-95739523D01*
X150802380Y-95834761D01*
X150945238Y-95882380D01*
X151040476Y-95882380D01*
X149659523Y-95882380D02*
X150230952Y-95882380D01*
X149945238Y-95882380D02*
X149945238Y-94882380D01*
X150040476Y-95025238D01*
X150135714Y-95120476D01*
X150230952Y-95168095D01*
X149278571Y-94977619D02*
X149230952Y-94930000D01*
X149135714Y-94882380D01*
X148897619Y-94882380D01*
X148802380Y-94930000D01*
X148754761Y-94977619D01*
X148707142Y-95072857D01*
X148707142Y-95168095D01*
X148754761Y-95310952D01*
X149326190Y-95882380D01*
X148707142Y-95882380D01*
X219559523Y-94882380D02*
X219559523Y-95596666D01*
X219607142Y-95739523D01*
X219702380Y-95834761D01*
X219845238Y-95882380D01*
X219940476Y-95882380D01*
X218559523Y-95882380D02*
X219130952Y-95882380D01*
X218845238Y-95882380D02*
X218845238Y-94882380D01*
X218940476Y-95025238D01*
X219035714Y-95120476D01*
X219130952Y-95168095D01*
X217702380Y-95215714D02*
X217702380Y-95882380D01*
X217940476Y-94834761D02*
X218178571Y-95549047D01*
X217559523Y-95549047D01*
X219559523Y-115182380D02*
X219559523Y-115896666D01*
X219607142Y-116039523D01*
X219702380Y-116134761D01*
X219845238Y-116182380D01*
X219940476Y-116182380D01*
X218559523Y-116182380D02*
X219130952Y-116182380D01*
X218845238Y-116182380D02*
X218845238Y-115182380D01*
X218940476Y-115325238D01*
X219035714Y-115420476D01*
X219130952Y-115468095D01*
X217702380Y-115182380D02*
X217892857Y-115182380D01*
X217988095Y-115230000D01*
X218035714Y-115277619D01*
X218130952Y-115420476D01*
X218178571Y-115610952D01*
X218178571Y-115991904D01*
X218130952Y-116087142D01*
X218083333Y-116134761D01*
X217988095Y-116182380D01*
X217797619Y-116182380D01*
X217702380Y-116134761D01*
X217654761Y-116087142D01*
X217607142Y-115991904D01*
X217607142Y-115753809D01*
X217654761Y-115658571D01*
X217702380Y-115610952D01*
X217797619Y-115563333D01*
X217988095Y-115563333D01*
X218083333Y-115610952D01*
X218130952Y-115658571D01*
X218178571Y-115753809D01*
X219559523Y-135482380D02*
X219559523Y-136196666D01*
X219607142Y-136339523D01*
X219702380Y-136434761D01*
X219845238Y-136482380D01*
X219940476Y-136482380D01*
X218559523Y-136482380D02*
X219130952Y-136482380D01*
X218845238Y-136482380D02*
X218845238Y-135482380D01*
X218940476Y-135625238D01*
X219035714Y-135720476D01*
X219130952Y-135768095D01*
X217988095Y-135910952D02*
X218083333Y-135863333D01*
X218130952Y-135815714D01*
X218178571Y-135720476D01*
X218178571Y-135672857D01*
X218130952Y-135577619D01*
X218083333Y-135530000D01*
X217988095Y-135482380D01*
X217797619Y-135482380D01*
X217702380Y-135530000D01*
X217654761Y-135577619D01*
X217607142Y-135672857D01*
X217607142Y-135720476D01*
X217654761Y-135815714D01*
X217702380Y-135863333D01*
X217797619Y-135910952D01*
X217988095Y-135910952D01*
X218083333Y-135958571D01*
X218130952Y-136006190D01*
X218178571Y-136101428D01*
X218178571Y-136291904D01*
X218130952Y-136387142D01*
X218083333Y-136434761D01*
X217988095Y-136482380D01*
X217797619Y-136482380D01*
X217702380Y-136434761D01*
X217654761Y-136387142D01*
X217607142Y-136291904D01*
X217607142Y-136101428D01*
X217654761Y-136006190D01*
X217702380Y-135958571D01*
X217797619Y-135910952D01*
M02*
