%TF.GenerationSoftware,KiCad,Pcbnew,(5.0.0-rc2-dev-733-g23a9fcd91)*%
%TF.CreationDate,2018-05-26T11:51:58+02:00*%
%TF.ProjectId,CellsBoard,43656C6C73426F6172642E6B69636164,rev?*%
%TF.SameCoordinates,Original*%
%TF.FileFunction,Paste,Top*%
%TF.FilePolarity,Positive*%
%FSLAX46Y46*%
G04 Gerber Fmt 4.6, Leading zero omitted, Abs format (unit mm)*
G04 Created by KiCad (PCBNEW (5.0.0-rc2-dev-733-g23a9fcd91)) date 05/26/18 11:51:58*
%MOMM*%
%LPD*%
G01*
G04 APERTURE LIST*
%ADD10C,0.150000*%
%ADD11R,1.210000X0.210000*%
%ADD12R,1.260000X0.710000*%
%ADD13R,1.460000X0.930000*%
%ADD14R,0.930000X1.460000*%
%ADD15R,1.030000X1.760000*%
%ADD16R,0.860000X0.760000*%
G04 APERTURE END LIST*
D10*
X226950000Y-132300000D02*
X229950000Y-132300000D01*
X225950000Y-147300000D02*
X225950000Y-133300000D01*
X229950000Y-148300000D02*
X226950000Y-148300000D01*
X230950000Y-133300000D02*
X230950000Y-147300000D01*
X226950000Y-148300000D02*
G75*
G02X225950000Y-147300000I0J1000000D01*
G01*
X225950000Y-133300000D02*
G75*
G02X226950000Y-132300000I1000000J0D01*
G01*
X229950000Y-132300000D02*
G75*
G02X230950000Y-133300000I0J-1000000D01*
G01*
X230950000Y-147300000D02*
G75*
G02X229950000Y-148300000I-1000000J0D01*
G01*
X247500000Y-90000000D02*
X52500000Y-90000000D01*
X247500000Y-90000000D02*
G75*
G02X250000000Y-92500000I0J-2500000D01*
G01*
X250000000Y-147500000D02*
X250000000Y-92500000D01*
X250000000Y-147500000D02*
G75*
G02X247500000Y-150000000I-2500000J0D01*
G01*
X52500000Y-150000000D02*
X247500000Y-150000000D01*
X52500000Y-150000000D02*
G75*
G02X50000000Y-147500000I0J2500000D01*
G01*
X50000000Y-92500000D02*
X50000000Y-147500000D01*
X50000000Y-92500000D02*
G75*
G02X52500000Y-90000000I2500000J0D01*
G01*
D11*
X153225000Y-104100000D03*
X146475000Y-104100000D03*
X153225000Y-104600000D03*
X146475000Y-104600000D03*
X153225000Y-105100000D03*
X146475000Y-105100000D03*
X153225000Y-105600000D03*
X146475000Y-105600000D03*
X153225000Y-106100000D03*
X146475000Y-106100000D03*
X153225000Y-106600000D03*
X146475000Y-106600000D03*
X153225000Y-107100000D03*
X146475000Y-107100000D03*
X153225000Y-107600000D03*
X146475000Y-107600000D03*
X153225000Y-108100000D03*
X146475000Y-108100000D03*
X153225000Y-108600000D03*
X146475000Y-108600000D03*
X153225000Y-109100000D03*
X146475000Y-109100000D03*
X153225000Y-109600000D03*
X146475000Y-109600000D03*
X153225000Y-110100000D03*
X146475000Y-110100000D03*
X153225000Y-110600000D03*
X146475000Y-110600000D03*
X153225000Y-111100000D03*
X146475000Y-111100000D03*
X153225000Y-111600000D03*
X146475000Y-111600000D03*
X153225000Y-112100000D03*
X146475000Y-112100000D03*
X153225000Y-112600000D03*
X146475000Y-112600000D03*
X153225000Y-113100000D03*
X146475000Y-113100000D03*
X153225000Y-113600000D03*
X146475000Y-113600000D03*
X153225000Y-114100000D03*
X146475000Y-114100000D03*
X153225000Y-114600000D03*
X146475000Y-114600000D03*
X153225000Y-115100000D03*
X146475000Y-115100000D03*
X153225000Y-115600000D03*
X146475000Y-115600000D03*
D12*
X92650000Y-107310000D03*
X84250000Y-107310000D03*
X92650000Y-109850000D03*
X84250000Y-109850000D03*
X92650000Y-112390000D03*
X84250000Y-112390000D03*
D13*
X156835000Y-106355000D03*
X156835000Y-108265000D03*
X160645000Y-113345000D03*
X160645000Y-111435000D03*
X156835000Y-111435000D03*
X156835000Y-113345000D03*
D14*
X219065000Y-94620000D03*
X220975000Y-94620000D03*
D13*
X160645000Y-106355000D03*
X160645000Y-108265000D03*
D14*
X94870000Y-109850000D03*
X96780000Y-109850000D03*
D15*
X70555000Y-99700000D03*
X73565000Y-99700000D03*
X91345000Y-120000000D03*
X88335000Y-120000000D03*
X70555000Y-140300000D03*
X73565000Y-140300000D03*
X142465000Y-140300000D03*
X139455000Y-140300000D03*
X160245000Y-120000000D03*
X157235000Y-120000000D03*
X142465000Y-99700000D03*
X139455000Y-99700000D03*
X208355000Y-99700000D03*
X211365000Y-99700000D03*
X226135000Y-120000000D03*
X229145000Y-120000000D03*
X211365000Y-140300000D03*
X208355000Y-140300000D03*
X226135000Y-130150000D03*
X229145000Y-130150000D03*
D16*
X208860000Y-93670000D03*
X208860000Y-95570000D03*
X210860000Y-94620000D03*
D14*
X215890000Y-94620000D03*
X213980000Y-94620000D03*
X76185000Y-94620000D03*
X78095000Y-94620000D03*
X78095000Y-99700000D03*
X76185000Y-99700000D03*
X85715000Y-120000000D03*
X83805000Y-120000000D03*
X76185000Y-140300000D03*
X78095000Y-140300000D03*
X146995000Y-140300000D03*
X145085000Y-140300000D03*
X154615000Y-120000000D03*
X152705000Y-120000000D03*
X146995000Y-99700000D03*
X145085000Y-99700000D03*
X213985000Y-99700000D03*
X215895000Y-99700000D03*
X221605000Y-120000000D03*
X223515000Y-120000000D03*
D13*
X164455000Y-111435000D03*
X164455000Y-113345000D03*
X164455000Y-106355000D03*
X164455000Y-108265000D03*
D14*
X215895000Y-140300000D03*
X213985000Y-140300000D03*
X80120000Y-106675000D03*
X82030000Y-106675000D03*
D13*
X79805000Y-110805000D03*
X79805000Y-108895000D03*
D14*
X221605000Y-130160000D03*
X223515000Y-130160000D03*
X82030000Y-113025000D03*
X80120000Y-113025000D03*
M02*
