%TF.GenerationSoftware,KiCad,Pcbnew,(5.0.0-rc2-dev-632-g76d3b6f04)*%
%TF.CreationDate,2018-06-22T20:28:34+02:00*%
%TF.ProjectId,CellsBoard,43656C6C73426F6172642E6B69636164,rev?*%
%TF.SameCoordinates,Original*%
%TF.FileFunction,Copper,L2,Bot,Signal*%
%TF.FilePolarity,Positive*%
%FSLAX46Y46*%
G04 Gerber Fmt 4.6, Leading zero omitted, Abs format (unit mm)*
G04 Created by KiCad (PCBNEW (5.0.0-rc2-dev-632-g76d3b6f04)) date 06/22/18 20:28:34*
%MOMM*%
%LPD*%
G01*
G04 APERTURE LIST*
%ADD10C,0.150000*%
%ADD11C,11.000000*%
%ADD12C,0.900000*%
%ADD13C,1.000000*%
%ADD14O,2.000000X1.500000*%
%ADD15R,2.000000X1.500000*%
%ADD16C,1.200000*%
%ADD17O,1.700000X1.700000*%
%ADD18R,1.700000X1.700000*%
%ADD19C,0.400000*%
%ADD20C,0.800000*%
%ADD21C,0.200000*%
%ADD22C,0.500000*%
%ADD23C,0.250000*%
G04 APERTURE END LIST*
D10*
X69750000Y-132300000D02*
X72750000Y-132300000D01*
X68750000Y-147300000D02*
X68750000Y-133300000D01*
X72750000Y-148300000D02*
X69750000Y-148300000D01*
X73750000Y-133300000D02*
X73750000Y-147300000D01*
X69750000Y-148300000D02*
G75*
G02X68750000Y-147300000I0J1000000D01*
G01*
X68750000Y-133300000D02*
G75*
G02X69750000Y-132300000I1000000J0D01*
G01*
X72750000Y-132300000D02*
G75*
G02X73750000Y-133300000I0J-1000000D01*
G01*
X73750000Y-147300000D02*
G75*
G02X72750000Y-148300000I-1000000J0D01*
G01*
X250000000Y-90000000D02*
X52500000Y-90000000D01*
X250000000Y-90000000D02*
G75*
G02X252500000Y-92500000I0J-2500000D01*
G01*
X252500000Y-147500000D02*
X252500000Y-92500000D01*
X252500000Y-147500000D02*
G75*
G02X250000000Y-150000000I-2500000J0D01*
G01*
X52500000Y-150000000D02*
X250000000Y-150000000D01*
X52500000Y-150000000D02*
G75*
G02X50000000Y-147500000I0J2500000D01*
G01*
X50000000Y-92500000D02*
X50000000Y-147500000D01*
X50000000Y-92500000D02*
G75*
G02X52500000Y-90000000I2500000J0D01*
G01*
D11*
X103750000Y-99700000D03*
D12*
X107875000Y-99700000D03*
X106676815Y-102626815D03*
X103750000Y-103825000D03*
X100823185Y-102626815D03*
X99625000Y-99700000D03*
X100823185Y-96773185D03*
X103750000Y-95575000D03*
X106676815Y-96773185D03*
X131625000Y-99700000D03*
X123375000Y-99700000D03*
X127500000Y-103825000D03*
X124573185Y-96773185D03*
X130426815Y-96773185D03*
X130426815Y-102626815D03*
X127500000Y-95575000D03*
X124573185Y-102626815D03*
D11*
X127500000Y-99700000D03*
D10*
G36*
X113274504Y-92301204D02*
X113298773Y-92304804D01*
X113322571Y-92310765D01*
X113345671Y-92319030D01*
X113367849Y-92329520D01*
X113388893Y-92342133D01*
X113408598Y-92356747D01*
X113426777Y-92373223D01*
X113443253Y-92391402D01*
X113457867Y-92411107D01*
X113470480Y-92432151D01*
X113480970Y-92454329D01*
X113489235Y-92477429D01*
X113495196Y-92501227D01*
X113498796Y-92525496D01*
X113500000Y-92550000D01*
X113500000Y-93050000D01*
X113498796Y-93074504D01*
X113495196Y-93098773D01*
X113489235Y-93122571D01*
X113480970Y-93145671D01*
X113470480Y-93167849D01*
X113457867Y-93188893D01*
X113443253Y-93208598D01*
X113426777Y-93226777D01*
X113408598Y-93243253D01*
X113388893Y-93257867D01*
X113367849Y-93270480D01*
X113345671Y-93280970D01*
X113322571Y-93289235D01*
X113298773Y-93295196D01*
X113274504Y-93298796D01*
X113250000Y-93300000D01*
X111750000Y-93300000D01*
X111725496Y-93298796D01*
X111701227Y-93295196D01*
X111677429Y-93289235D01*
X111654329Y-93280970D01*
X111632151Y-93270480D01*
X111611107Y-93257867D01*
X111591402Y-93243253D01*
X111573223Y-93226777D01*
X111556747Y-93208598D01*
X111542133Y-93188893D01*
X111529520Y-93167849D01*
X111519030Y-93145671D01*
X111510765Y-93122571D01*
X111504804Y-93098773D01*
X111501204Y-93074504D01*
X111500000Y-93050000D01*
X111500000Y-92550000D01*
X111501204Y-92525496D01*
X111504804Y-92501227D01*
X111510765Y-92477429D01*
X111519030Y-92454329D01*
X111529520Y-92432151D01*
X111542133Y-92411107D01*
X111556747Y-92391402D01*
X111573223Y-92373223D01*
X111591402Y-92356747D01*
X111611107Y-92342133D01*
X111632151Y-92329520D01*
X111654329Y-92319030D01*
X111677429Y-92310765D01*
X111701227Y-92304804D01*
X111725496Y-92301204D01*
X111750000Y-92300000D01*
X113250000Y-92300000D01*
X113274504Y-92301204D01*
X113274504Y-92301204D01*
G37*
D13*
X112500000Y-92800000D03*
D10*
G36*
X119524504Y-106101204D02*
X119548773Y-106104804D01*
X119572571Y-106110765D01*
X119595671Y-106119030D01*
X119617849Y-106129520D01*
X119638893Y-106142133D01*
X119658598Y-106156747D01*
X119676777Y-106173223D01*
X119693253Y-106191402D01*
X119707867Y-106211107D01*
X119720480Y-106232151D01*
X119730970Y-106254329D01*
X119739235Y-106277429D01*
X119745196Y-106301227D01*
X119748796Y-106325496D01*
X119750000Y-106350000D01*
X119750000Y-106850000D01*
X119748796Y-106874504D01*
X119745196Y-106898773D01*
X119739235Y-106922571D01*
X119730970Y-106945671D01*
X119720480Y-106967849D01*
X119707867Y-106988893D01*
X119693253Y-107008598D01*
X119676777Y-107026777D01*
X119658598Y-107043253D01*
X119638893Y-107057867D01*
X119617849Y-107070480D01*
X119595671Y-107080970D01*
X119572571Y-107089235D01*
X119548773Y-107095196D01*
X119524504Y-107098796D01*
X119500000Y-107100000D01*
X118000000Y-107100000D01*
X117975496Y-107098796D01*
X117951227Y-107095196D01*
X117927429Y-107089235D01*
X117904329Y-107080970D01*
X117882151Y-107070480D01*
X117861107Y-107057867D01*
X117841402Y-107043253D01*
X117823223Y-107026777D01*
X117806747Y-107008598D01*
X117792133Y-106988893D01*
X117779520Y-106967849D01*
X117769030Y-106945671D01*
X117760765Y-106922571D01*
X117754804Y-106898773D01*
X117751204Y-106874504D01*
X117750000Y-106850000D01*
X117750000Y-106350000D01*
X117751204Y-106325496D01*
X117754804Y-106301227D01*
X117760765Y-106277429D01*
X117769030Y-106254329D01*
X117779520Y-106232151D01*
X117792133Y-106211107D01*
X117806747Y-106191402D01*
X117823223Y-106173223D01*
X117841402Y-106156747D01*
X117861107Y-106142133D01*
X117882151Y-106129520D01*
X117904329Y-106119030D01*
X117927429Y-106110765D01*
X117951227Y-106104804D01*
X117975496Y-106101204D01*
X118000000Y-106100000D01*
X119500000Y-106100000D01*
X119524504Y-106101204D01*
X119524504Y-106101204D01*
G37*
D13*
X118750000Y-106600000D03*
D11*
X172500000Y-140300000D03*
D12*
X176625000Y-140300000D03*
X175426815Y-143226815D03*
X172500000Y-144425000D03*
X169573185Y-143226815D03*
X168375000Y-140300000D03*
X169573185Y-137373185D03*
X172500000Y-136175000D03*
X175426815Y-137373185D03*
X200375000Y-140300000D03*
X192125000Y-140300000D03*
X196250000Y-144425000D03*
X193323185Y-137373185D03*
X199176815Y-137373185D03*
X199176815Y-143226815D03*
X196250000Y-136175000D03*
X193323185Y-143226815D03*
D11*
X196250000Y-140300000D03*
D10*
G36*
X182024504Y-132901204D02*
X182048773Y-132904804D01*
X182072571Y-132910765D01*
X182095671Y-132919030D01*
X182117849Y-132929520D01*
X182138893Y-132942133D01*
X182158598Y-132956747D01*
X182176777Y-132973223D01*
X182193253Y-132991402D01*
X182207867Y-133011107D01*
X182220480Y-133032151D01*
X182230970Y-133054329D01*
X182239235Y-133077429D01*
X182245196Y-133101227D01*
X182248796Y-133125496D01*
X182250000Y-133150000D01*
X182250000Y-133650000D01*
X182248796Y-133674504D01*
X182245196Y-133698773D01*
X182239235Y-133722571D01*
X182230970Y-133745671D01*
X182220480Y-133767849D01*
X182207867Y-133788893D01*
X182193253Y-133808598D01*
X182176777Y-133826777D01*
X182158598Y-133843253D01*
X182138893Y-133857867D01*
X182117849Y-133870480D01*
X182095671Y-133880970D01*
X182072571Y-133889235D01*
X182048773Y-133895196D01*
X182024504Y-133898796D01*
X182000000Y-133900000D01*
X180500000Y-133900000D01*
X180475496Y-133898796D01*
X180451227Y-133895196D01*
X180427429Y-133889235D01*
X180404329Y-133880970D01*
X180382151Y-133870480D01*
X180361107Y-133857867D01*
X180341402Y-133843253D01*
X180323223Y-133826777D01*
X180306747Y-133808598D01*
X180292133Y-133788893D01*
X180279520Y-133767849D01*
X180269030Y-133745671D01*
X180260765Y-133722571D01*
X180254804Y-133698773D01*
X180251204Y-133674504D01*
X180250000Y-133650000D01*
X180250000Y-133150000D01*
X180251204Y-133125496D01*
X180254804Y-133101227D01*
X180260765Y-133077429D01*
X180269030Y-133054329D01*
X180279520Y-133032151D01*
X180292133Y-133011107D01*
X180306747Y-132991402D01*
X180323223Y-132973223D01*
X180341402Y-132956747D01*
X180361107Y-132942133D01*
X180382151Y-132929520D01*
X180404329Y-132919030D01*
X180427429Y-132910765D01*
X180451227Y-132904804D01*
X180475496Y-132901204D01*
X180500000Y-132900000D01*
X182000000Y-132900000D01*
X182024504Y-132901204D01*
X182024504Y-132901204D01*
G37*
D13*
X181250000Y-133400000D03*
D10*
G36*
X188274504Y-146701204D02*
X188298773Y-146704804D01*
X188322571Y-146710765D01*
X188345671Y-146719030D01*
X188367849Y-146729520D01*
X188388893Y-146742133D01*
X188408598Y-146756747D01*
X188426777Y-146773223D01*
X188443253Y-146791402D01*
X188457867Y-146811107D01*
X188470480Y-146832151D01*
X188480970Y-146854329D01*
X188489235Y-146877429D01*
X188495196Y-146901227D01*
X188498796Y-146925496D01*
X188500000Y-146950000D01*
X188500000Y-147450000D01*
X188498796Y-147474504D01*
X188495196Y-147498773D01*
X188489235Y-147522571D01*
X188480970Y-147545671D01*
X188470480Y-147567849D01*
X188457867Y-147588893D01*
X188443253Y-147608598D01*
X188426777Y-147626777D01*
X188408598Y-147643253D01*
X188388893Y-147657867D01*
X188367849Y-147670480D01*
X188345671Y-147680970D01*
X188322571Y-147689235D01*
X188298773Y-147695196D01*
X188274504Y-147698796D01*
X188250000Y-147700000D01*
X186750000Y-147700000D01*
X186725496Y-147698796D01*
X186701227Y-147695196D01*
X186677429Y-147689235D01*
X186654329Y-147680970D01*
X186632151Y-147670480D01*
X186611107Y-147657867D01*
X186591402Y-147643253D01*
X186573223Y-147626777D01*
X186556747Y-147608598D01*
X186542133Y-147588893D01*
X186529520Y-147567849D01*
X186519030Y-147545671D01*
X186510765Y-147522571D01*
X186504804Y-147498773D01*
X186501204Y-147474504D01*
X186500000Y-147450000D01*
X186500000Y-146950000D01*
X186501204Y-146925496D01*
X186504804Y-146901227D01*
X186510765Y-146877429D01*
X186519030Y-146854329D01*
X186529520Y-146832151D01*
X186542133Y-146811107D01*
X186556747Y-146791402D01*
X186573223Y-146773223D01*
X186591402Y-146756747D01*
X186611107Y-146742133D01*
X186632151Y-146729520D01*
X186654329Y-146719030D01*
X186677429Y-146710765D01*
X186701227Y-146704804D01*
X186725496Y-146701204D01*
X186750000Y-146700000D01*
X188250000Y-146700000D01*
X188274504Y-146701204D01*
X188274504Y-146701204D01*
G37*
D13*
X187500000Y-147200000D03*
D11*
X103750000Y-120000000D03*
D12*
X103750000Y-124125000D03*
X100823185Y-122926815D03*
X99625000Y-120000000D03*
X100823185Y-117073185D03*
X103750000Y-115875000D03*
X106676815Y-117073185D03*
X107875000Y-120000000D03*
X106676815Y-122926815D03*
X103750000Y-144425000D03*
X103750000Y-136175000D03*
X99625000Y-140300000D03*
X106676815Y-137373185D03*
X106676815Y-143226815D03*
X100823185Y-143226815D03*
X107875000Y-140300000D03*
X100823185Y-137373185D03*
D11*
X103750000Y-140300000D03*
D10*
G36*
X110924504Y-125651204D02*
X110948773Y-125654804D01*
X110972571Y-125660765D01*
X110995671Y-125669030D01*
X111017849Y-125679520D01*
X111038893Y-125692133D01*
X111058598Y-125706747D01*
X111076777Y-125723223D01*
X111093253Y-125741402D01*
X111107867Y-125761107D01*
X111120480Y-125782151D01*
X111130970Y-125804329D01*
X111139235Y-125827429D01*
X111145196Y-125851227D01*
X111148796Y-125875496D01*
X111150000Y-125900000D01*
X111150000Y-127400000D01*
X111148796Y-127424504D01*
X111145196Y-127448773D01*
X111139235Y-127472571D01*
X111130970Y-127495671D01*
X111120480Y-127517849D01*
X111107867Y-127538893D01*
X111093253Y-127558598D01*
X111076777Y-127576777D01*
X111058598Y-127593253D01*
X111038893Y-127607867D01*
X111017849Y-127620480D01*
X110995671Y-127630970D01*
X110972571Y-127639235D01*
X110948773Y-127645196D01*
X110924504Y-127648796D01*
X110900000Y-127650000D01*
X110400000Y-127650000D01*
X110375496Y-127648796D01*
X110351227Y-127645196D01*
X110327429Y-127639235D01*
X110304329Y-127630970D01*
X110282151Y-127620480D01*
X110261107Y-127607867D01*
X110241402Y-127593253D01*
X110223223Y-127576777D01*
X110206747Y-127558598D01*
X110192133Y-127538893D01*
X110179520Y-127517849D01*
X110169030Y-127495671D01*
X110160765Y-127472571D01*
X110154804Y-127448773D01*
X110151204Y-127424504D01*
X110150000Y-127400000D01*
X110150000Y-125900000D01*
X110151204Y-125875496D01*
X110154804Y-125851227D01*
X110160765Y-125827429D01*
X110169030Y-125804329D01*
X110179520Y-125782151D01*
X110192133Y-125761107D01*
X110206747Y-125741402D01*
X110223223Y-125723223D01*
X110241402Y-125706747D01*
X110261107Y-125692133D01*
X110282151Y-125679520D01*
X110304329Y-125669030D01*
X110327429Y-125660765D01*
X110351227Y-125654804D01*
X110375496Y-125651204D01*
X110400000Y-125650000D01*
X110900000Y-125650000D01*
X110924504Y-125651204D01*
X110924504Y-125651204D01*
G37*
D13*
X110650000Y-126650000D03*
D10*
G36*
X97124504Y-132651204D02*
X97148773Y-132654804D01*
X97172571Y-132660765D01*
X97195671Y-132669030D01*
X97217849Y-132679520D01*
X97238893Y-132692133D01*
X97258598Y-132706747D01*
X97276777Y-132723223D01*
X97293253Y-132741402D01*
X97307867Y-132761107D01*
X97320480Y-132782151D01*
X97330970Y-132804329D01*
X97339235Y-132827429D01*
X97345196Y-132851227D01*
X97348796Y-132875496D01*
X97350000Y-132900000D01*
X97350000Y-134400000D01*
X97348796Y-134424504D01*
X97345196Y-134448773D01*
X97339235Y-134472571D01*
X97330970Y-134495671D01*
X97320480Y-134517849D01*
X97307867Y-134538893D01*
X97293253Y-134558598D01*
X97276777Y-134576777D01*
X97258598Y-134593253D01*
X97238893Y-134607867D01*
X97217849Y-134620480D01*
X97195671Y-134630970D01*
X97172571Y-134639235D01*
X97148773Y-134645196D01*
X97124504Y-134648796D01*
X97100000Y-134650000D01*
X96600000Y-134650000D01*
X96575496Y-134648796D01*
X96551227Y-134645196D01*
X96527429Y-134639235D01*
X96504329Y-134630970D01*
X96482151Y-134620480D01*
X96461107Y-134607867D01*
X96441402Y-134593253D01*
X96423223Y-134576777D01*
X96406747Y-134558598D01*
X96392133Y-134538893D01*
X96379520Y-134517849D01*
X96369030Y-134495671D01*
X96360765Y-134472571D01*
X96354804Y-134448773D01*
X96351204Y-134424504D01*
X96350000Y-134400000D01*
X96350000Y-132900000D01*
X96351204Y-132875496D01*
X96354804Y-132851227D01*
X96360765Y-132827429D01*
X96369030Y-132804329D01*
X96379520Y-132782151D01*
X96392133Y-132761107D01*
X96406747Y-132741402D01*
X96423223Y-132723223D01*
X96441402Y-132706747D01*
X96461107Y-132692133D01*
X96482151Y-132679520D01*
X96504329Y-132669030D01*
X96527429Y-132660765D01*
X96551227Y-132654804D01*
X96575496Y-132651204D01*
X96600000Y-132650000D01*
X97100000Y-132650000D01*
X97124504Y-132651204D01*
X97124504Y-132651204D01*
G37*
D13*
X96850000Y-133650000D03*
D11*
X58750000Y-99700000D03*
D12*
X58750000Y-103825000D03*
X55823185Y-102626815D03*
X54625000Y-99700000D03*
X55823185Y-96773185D03*
X58750000Y-95575000D03*
X61676815Y-96773185D03*
X62875000Y-99700000D03*
X61676815Y-102626815D03*
X58750000Y-124125000D03*
X58750000Y-115875000D03*
X54625000Y-120000000D03*
X61676815Y-117073185D03*
X61676815Y-122926815D03*
X55823185Y-122926815D03*
X62875000Y-120000000D03*
X55823185Y-117073185D03*
D11*
X58750000Y-120000000D03*
D10*
G36*
X65924504Y-105351204D02*
X65948773Y-105354804D01*
X65972571Y-105360765D01*
X65995671Y-105369030D01*
X66017849Y-105379520D01*
X66038893Y-105392133D01*
X66058598Y-105406747D01*
X66076777Y-105423223D01*
X66093253Y-105441402D01*
X66107867Y-105461107D01*
X66120480Y-105482151D01*
X66130970Y-105504329D01*
X66139235Y-105527429D01*
X66145196Y-105551227D01*
X66148796Y-105575496D01*
X66150000Y-105600000D01*
X66150000Y-107100000D01*
X66148796Y-107124504D01*
X66145196Y-107148773D01*
X66139235Y-107172571D01*
X66130970Y-107195671D01*
X66120480Y-107217849D01*
X66107867Y-107238893D01*
X66093253Y-107258598D01*
X66076777Y-107276777D01*
X66058598Y-107293253D01*
X66038893Y-107307867D01*
X66017849Y-107320480D01*
X65995671Y-107330970D01*
X65972571Y-107339235D01*
X65948773Y-107345196D01*
X65924504Y-107348796D01*
X65900000Y-107350000D01*
X65400000Y-107350000D01*
X65375496Y-107348796D01*
X65351227Y-107345196D01*
X65327429Y-107339235D01*
X65304329Y-107330970D01*
X65282151Y-107320480D01*
X65261107Y-107307867D01*
X65241402Y-107293253D01*
X65223223Y-107276777D01*
X65206747Y-107258598D01*
X65192133Y-107238893D01*
X65179520Y-107217849D01*
X65169030Y-107195671D01*
X65160765Y-107172571D01*
X65154804Y-107148773D01*
X65151204Y-107124504D01*
X65150000Y-107100000D01*
X65150000Y-105600000D01*
X65151204Y-105575496D01*
X65154804Y-105551227D01*
X65160765Y-105527429D01*
X65169030Y-105504329D01*
X65179520Y-105482151D01*
X65192133Y-105461107D01*
X65206747Y-105441402D01*
X65223223Y-105423223D01*
X65241402Y-105406747D01*
X65261107Y-105392133D01*
X65282151Y-105379520D01*
X65304329Y-105369030D01*
X65327429Y-105360765D01*
X65351227Y-105354804D01*
X65375496Y-105351204D01*
X65400000Y-105350000D01*
X65900000Y-105350000D01*
X65924504Y-105351204D01*
X65924504Y-105351204D01*
G37*
D13*
X65650000Y-106350000D03*
D10*
G36*
X52124504Y-112351204D02*
X52148773Y-112354804D01*
X52172571Y-112360765D01*
X52195671Y-112369030D01*
X52217849Y-112379520D01*
X52238893Y-112392133D01*
X52258598Y-112406747D01*
X52276777Y-112423223D01*
X52293253Y-112441402D01*
X52307867Y-112461107D01*
X52320480Y-112482151D01*
X52330970Y-112504329D01*
X52339235Y-112527429D01*
X52345196Y-112551227D01*
X52348796Y-112575496D01*
X52350000Y-112600000D01*
X52350000Y-114100000D01*
X52348796Y-114124504D01*
X52345196Y-114148773D01*
X52339235Y-114172571D01*
X52330970Y-114195671D01*
X52320480Y-114217849D01*
X52307867Y-114238893D01*
X52293253Y-114258598D01*
X52276777Y-114276777D01*
X52258598Y-114293253D01*
X52238893Y-114307867D01*
X52217849Y-114320480D01*
X52195671Y-114330970D01*
X52172571Y-114339235D01*
X52148773Y-114345196D01*
X52124504Y-114348796D01*
X52100000Y-114350000D01*
X51600000Y-114350000D01*
X51575496Y-114348796D01*
X51551227Y-114345196D01*
X51527429Y-114339235D01*
X51504329Y-114330970D01*
X51482151Y-114320480D01*
X51461107Y-114307867D01*
X51441402Y-114293253D01*
X51423223Y-114276777D01*
X51406747Y-114258598D01*
X51392133Y-114238893D01*
X51379520Y-114217849D01*
X51369030Y-114195671D01*
X51360765Y-114172571D01*
X51354804Y-114148773D01*
X51351204Y-114124504D01*
X51350000Y-114100000D01*
X51350000Y-112600000D01*
X51351204Y-112575496D01*
X51354804Y-112551227D01*
X51360765Y-112527429D01*
X51369030Y-112504329D01*
X51379520Y-112482151D01*
X51392133Y-112461107D01*
X51406747Y-112441402D01*
X51423223Y-112423223D01*
X51441402Y-112406747D01*
X51461107Y-112392133D01*
X51482151Y-112379520D01*
X51504329Y-112369030D01*
X51527429Y-112360765D01*
X51551227Y-112354804D01*
X51575496Y-112351204D01*
X51600000Y-112350000D01*
X52100000Y-112350000D01*
X52124504Y-112351204D01*
X52124504Y-112351204D01*
G37*
D13*
X51850000Y-113350000D03*
D11*
X172500000Y-120000000D03*
D12*
X172500000Y-115875000D03*
X175426815Y-117073185D03*
X176625000Y-120000000D03*
X175426815Y-122926815D03*
X172500000Y-124125000D03*
X169573185Y-122926815D03*
X168375000Y-120000000D03*
X169573185Y-117073185D03*
X172500000Y-95575000D03*
X172500000Y-103825000D03*
X176625000Y-99700000D03*
X169573185Y-102626815D03*
X169573185Y-96773185D03*
X175426815Y-96773185D03*
X168375000Y-99700000D03*
X175426815Y-102626815D03*
D11*
X172500000Y-99700000D03*
D10*
G36*
X165874504Y-112351204D02*
X165898773Y-112354804D01*
X165922571Y-112360765D01*
X165945671Y-112369030D01*
X165967849Y-112379520D01*
X165988893Y-112392133D01*
X166008598Y-112406747D01*
X166026777Y-112423223D01*
X166043253Y-112441402D01*
X166057867Y-112461107D01*
X166070480Y-112482151D01*
X166080970Y-112504329D01*
X166089235Y-112527429D01*
X166095196Y-112551227D01*
X166098796Y-112575496D01*
X166100000Y-112600000D01*
X166100000Y-114100000D01*
X166098796Y-114124504D01*
X166095196Y-114148773D01*
X166089235Y-114172571D01*
X166080970Y-114195671D01*
X166070480Y-114217849D01*
X166057867Y-114238893D01*
X166043253Y-114258598D01*
X166026777Y-114276777D01*
X166008598Y-114293253D01*
X165988893Y-114307867D01*
X165967849Y-114320480D01*
X165945671Y-114330970D01*
X165922571Y-114339235D01*
X165898773Y-114345196D01*
X165874504Y-114348796D01*
X165850000Y-114350000D01*
X165350000Y-114350000D01*
X165325496Y-114348796D01*
X165301227Y-114345196D01*
X165277429Y-114339235D01*
X165254329Y-114330970D01*
X165232151Y-114320480D01*
X165211107Y-114307867D01*
X165191402Y-114293253D01*
X165173223Y-114276777D01*
X165156747Y-114258598D01*
X165142133Y-114238893D01*
X165129520Y-114217849D01*
X165119030Y-114195671D01*
X165110765Y-114172571D01*
X165104804Y-114148773D01*
X165101204Y-114124504D01*
X165100000Y-114100000D01*
X165100000Y-112600000D01*
X165101204Y-112575496D01*
X165104804Y-112551227D01*
X165110765Y-112527429D01*
X165119030Y-112504329D01*
X165129520Y-112482151D01*
X165142133Y-112461107D01*
X165156747Y-112441402D01*
X165173223Y-112423223D01*
X165191402Y-112406747D01*
X165211107Y-112392133D01*
X165232151Y-112379520D01*
X165254329Y-112369030D01*
X165277429Y-112360765D01*
X165301227Y-112354804D01*
X165325496Y-112351204D01*
X165350000Y-112350000D01*
X165850000Y-112350000D01*
X165874504Y-112351204D01*
X165874504Y-112351204D01*
G37*
D13*
X165600000Y-113350000D03*
D10*
G36*
X179674504Y-105351204D02*
X179698773Y-105354804D01*
X179722571Y-105360765D01*
X179745671Y-105369030D01*
X179767849Y-105379520D01*
X179788893Y-105392133D01*
X179808598Y-105406747D01*
X179826777Y-105423223D01*
X179843253Y-105441402D01*
X179857867Y-105461107D01*
X179870480Y-105482151D01*
X179880970Y-105504329D01*
X179889235Y-105527429D01*
X179895196Y-105551227D01*
X179898796Y-105575496D01*
X179900000Y-105600000D01*
X179900000Y-107100000D01*
X179898796Y-107124504D01*
X179895196Y-107148773D01*
X179889235Y-107172571D01*
X179880970Y-107195671D01*
X179870480Y-107217849D01*
X179857867Y-107238893D01*
X179843253Y-107258598D01*
X179826777Y-107276777D01*
X179808598Y-107293253D01*
X179788893Y-107307867D01*
X179767849Y-107320480D01*
X179745671Y-107330970D01*
X179722571Y-107339235D01*
X179698773Y-107345196D01*
X179674504Y-107348796D01*
X179650000Y-107350000D01*
X179150000Y-107350000D01*
X179125496Y-107348796D01*
X179101227Y-107345196D01*
X179077429Y-107339235D01*
X179054329Y-107330970D01*
X179032151Y-107320480D01*
X179011107Y-107307867D01*
X178991402Y-107293253D01*
X178973223Y-107276777D01*
X178956747Y-107258598D01*
X178942133Y-107238893D01*
X178929520Y-107217849D01*
X178919030Y-107195671D01*
X178910765Y-107172571D01*
X178904804Y-107148773D01*
X178901204Y-107124504D01*
X178900000Y-107100000D01*
X178900000Y-105600000D01*
X178901204Y-105575496D01*
X178904804Y-105551227D01*
X178910765Y-105527429D01*
X178919030Y-105504329D01*
X178929520Y-105482151D01*
X178942133Y-105461107D01*
X178956747Y-105441402D01*
X178973223Y-105423223D01*
X178991402Y-105406747D01*
X179011107Y-105392133D01*
X179032151Y-105379520D01*
X179054329Y-105369030D01*
X179077429Y-105360765D01*
X179101227Y-105354804D01*
X179125496Y-105351204D01*
X179150000Y-105350000D01*
X179650000Y-105350000D01*
X179674504Y-105351204D01*
X179674504Y-105351204D01*
G37*
D13*
X179400000Y-106350000D03*
D11*
X127500000Y-140300000D03*
D12*
X127500000Y-136175000D03*
X130426815Y-137373185D03*
X131625000Y-140300000D03*
X130426815Y-143226815D03*
X127500000Y-144425000D03*
X124573185Y-143226815D03*
X123375000Y-140300000D03*
X124573185Y-137373185D03*
X127500000Y-115875000D03*
X127500000Y-124125000D03*
X131625000Y-120000000D03*
X124573185Y-122926815D03*
X124573185Y-117073185D03*
X130426815Y-117073185D03*
X123375000Y-120000000D03*
X130426815Y-122926815D03*
D11*
X127500000Y-120000000D03*
D10*
G36*
X120874504Y-132651204D02*
X120898773Y-132654804D01*
X120922571Y-132660765D01*
X120945671Y-132669030D01*
X120967849Y-132679520D01*
X120988893Y-132692133D01*
X121008598Y-132706747D01*
X121026777Y-132723223D01*
X121043253Y-132741402D01*
X121057867Y-132761107D01*
X121070480Y-132782151D01*
X121080970Y-132804329D01*
X121089235Y-132827429D01*
X121095196Y-132851227D01*
X121098796Y-132875496D01*
X121100000Y-132900000D01*
X121100000Y-134400000D01*
X121098796Y-134424504D01*
X121095196Y-134448773D01*
X121089235Y-134472571D01*
X121080970Y-134495671D01*
X121070480Y-134517849D01*
X121057867Y-134538893D01*
X121043253Y-134558598D01*
X121026777Y-134576777D01*
X121008598Y-134593253D01*
X120988893Y-134607867D01*
X120967849Y-134620480D01*
X120945671Y-134630970D01*
X120922571Y-134639235D01*
X120898773Y-134645196D01*
X120874504Y-134648796D01*
X120850000Y-134650000D01*
X120350000Y-134650000D01*
X120325496Y-134648796D01*
X120301227Y-134645196D01*
X120277429Y-134639235D01*
X120254329Y-134630970D01*
X120232151Y-134620480D01*
X120211107Y-134607867D01*
X120191402Y-134593253D01*
X120173223Y-134576777D01*
X120156747Y-134558598D01*
X120142133Y-134538893D01*
X120129520Y-134517849D01*
X120119030Y-134495671D01*
X120110765Y-134472571D01*
X120104804Y-134448773D01*
X120101204Y-134424504D01*
X120100000Y-134400000D01*
X120100000Y-132900000D01*
X120101204Y-132875496D01*
X120104804Y-132851227D01*
X120110765Y-132827429D01*
X120119030Y-132804329D01*
X120129520Y-132782151D01*
X120142133Y-132761107D01*
X120156747Y-132741402D01*
X120173223Y-132723223D01*
X120191402Y-132706747D01*
X120211107Y-132692133D01*
X120232151Y-132679520D01*
X120254329Y-132669030D01*
X120277429Y-132660765D01*
X120301227Y-132654804D01*
X120325496Y-132651204D01*
X120350000Y-132650000D01*
X120850000Y-132650000D01*
X120874504Y-132651204D01*
X120874504Y-132651204D01*
G37*
D13*
X120600000Y-133650000D03*
D10*
G36*
X134674504Y-125651204D02*
X134698773Y-125654804D01*
X134722571Y-125660765D01*
X134745671Y-125669030D01*
X134767849Y-125679520D01*
X134788893Y-125692133D01*
X134808598Y-125706747D01*
X134826777Y-125723223D01*
X134843253Y-125741402D01*
X134857867Y-125761107D01*
X134870480Y-125782151D01*
X134880970Y-125804329D01*
X134889235Y-125827429D01*
X134895196Y-125851227D01*
X134898796Y-125875496D01*
X134900000Y-125900000D01*
X134900000Y-127400000D01*
X134898796Y-127424504D01*
X134895196Y-127448773D01*
X134889235Y-127472571D01*
X134880970Y-127495671D01*
X134870480Y-127517849D01*
X134857867Y-127538893D01*
X134843253Y-127558598D01*
X134826777Y-127576777D01*
X134808598Y-127593253D01*
X134788893Y-127607867D01*
X134767849Y-127620480D01*
X134745671Y-127630970D01*
X134722571Y-127639235D01*
X134698773Y-127645196D01*
X134674504Y-127648796D01*
X134650000Y-127650000D01*
X134150000Y-127650000D01*
X134125496Y-127648796D01*
X134101227Y-127645196D01*
X134077429Y-127639235D01*
X134054329Y-127630970D01*
X134032151Y-127620480D01*
X134011107Y-127607867D01*
X133991402Y-127593253D01*
X133973223Y-127576777D01*
X133956747Y-127558598D01*
X133942133Y-127538893D01*
X133929520Y-127517849D01*
X133919030Y-127495671D01*
X133910765Y-127472571D01*
X133904804Y-127448773D01*
X133901204Y-127424504D01*
X133900000Y-127400000D01*
X133900000Y-125900000D01*
X133901204Y-125875496D01*
X133904804Y-125851227D01*
X133910765Y-125827429D01*
X133919030Y-125804329D01*
X133929520Y-125782151D01*
X133942133Y-125761107D01*
X133956747Y-125741402D01*
X133973223Y-125723223D01*
X133991402Y-125706747D01*
X134011107Y-125692133D01*
X134032151Y-125679520D01*
X134054329Y-125669030D01*
X134077429Y-125660765D01*
X134101227Y-125654804D01*
X134125496Y-125651204D01*
X134150000Y-125650000D01*
X134650000Y-125650000D01*
X134674504Y-125651204D01*
X134674504Y-125651204D01*
G37*
D13*
X134400000Y-126650000D03*
D11*
X241250000Y-120000000D03*
D12*
X241250000Y-124125000D03*
X238323185Y-122926815D03*
X237125000Y-120000000D03*
X238323185Y-117073185D03*
X241250000Y-115875000D03*
X244176815Y-117073185D03*
X245375000Y-120000000D03*
X244176815Y-122926815D03*
X241250000Y-144425000D03*
X241250000Y-136175000D03*
X237125000Y-140300000D03*
X244176815Y-137373185D03*
X244176815Y-143226815D03*
X238323185Y-143226815D03*
X245375000Y-140300000D03*
X238323185Y-137373185D03*
D11*
X241250000Y-140300000D03*
D10*
G36*
X248424504Y-125651204D02*
X248448773Y-125654804D01*
X248472571Y-125660765D01*
X248495671Y-125669030D01*
X248517849Y-125679520D01*
X248538893Y-125692133D01*
X248558598Y-125706747D01*
X248576777Y-125723223D01*
X248593253Y-125741402D01*
X248607867Y-125761107D01*
X248620480Y-125782151D01*
X248630970Y-125804329D01*
X248639235Y-125827429D01*
X248645196Y-125851227D01*
X248648796Y-125875496D01*
X248650000Y-125900000D01*
X248650000Y-127400000D01*
X248648796Y-127424504D01*
X248645196Y-127448773D01*
X248639235Y-127472571D01*
X248630970Y-127495671D01*
X248620480Y-127517849D01*
X248607867Y-127538893D01*
X248593253Y-127558598D01*
X248576777Y-127576777D01*
X248558598Y-127593253D01*
X248538893Y-127607867D01*
X248517849Y-127620480D01*
X248495671Y-127630970D01*
X248472571Y-127639235D01*
X248448773Y-127645196D01*
X248424504Y-127648796D01*
X248400000Y-127650000D01*
X247900000Y-127650000D01*
X247875496Y-127648796D01*
X247851227Y-127645196D01*
X247827429Y-127639235D01*
X247804329Y-127630970D01*
X247782151Y-127620480D01*
X247761107Y-127607867D01*
X247741402Y-127593253D01*
X247723223Y-127576777D01*
X247706747Y-127558598D01*
X247692133Y-127538893D01*
X247679520Y-127517849D01*
X247669030Y-127495671D01*
X247660765Y-127472571D01*
X247654804Y-127448773D01*
X247651204Y-127424504D01*
X247650000Y-127400000D01*
X247650000Y-125900000D01*
X247651204Y-125875496D01*
X247654804Y-125851227D01*
X247660765Y-125827429D01*
X247669030Y-125804329D01*
X247679520Y-125782151D01*
X247692133Y-125761107D01*
X247706747Y-125741402D01*
X247723223Y-125723223D01*
X247741402Y-125706747D01*
X247761107Y-125692133D01*
X247782151Y-125679520D01*
X247804329Y-125669030D01*
X247827429Y-125660765D01*
X247851227Y-125654804D01*
X247875496Y-125651204D01*
X247900000Y-125650000D01*
X248400000Y-125650000D01*
X248424504Y-125651204D01*
X248424504Y-125651204D01*
G37*
D13*
X248150000Y-126650000D03*
D10*
G36*
X234624504Y-132651204D02*
X234648773Y-132654804D01*
X234672571Y-132660765D01*
X234695671Y-132669030D01*
X234717849Y-132679520D01*
X234738893Y-132692133D01*
X234758598Y-132706747D01*
X234776777Y-132723223D01*
X234793253Y-132741402D01*
X234807867Y-132761107D01*
X234820480Y-132782151D01*
X234830970Y-132804329D01*
X234839235Y-132827429D01*
X234845196Y-132851227D01*
X234848796Y-132875496D01*
X234850000Y-132900000D01*
X234850000Y-134400000D01*
X234848796Y-134424504D01*
X234845196Y-134448773D01*
X234839235Y-134472571D01*
X234830970Y-134495671D01*
X234820480Y-134517849D01*
X234807867Y-134538893D01*
X234793253Y-134558598D01*
X234776777Y-134576777D01*
X234758598Y-134593253D01*
X234738893Y-134607867D01*
X234717849Y-134620480D01*
X234695671Y-134630970D01*
X234672571Y-134639235D01*
X234648773Y-134645196D01*
X234624504Y-134648796D01*
X234600000Y-134650000D01*
X234100000Y-134650000D01*
X234075496Y-134648796D01*
X234051227Y-134645196D01*
X234027429Y-134639235D01*
X234004329Y-134630970D01*
X233982151Y-134620480D01*
X233961107Y-134607867D01*
X233941402Y-134593253D01*
X233923223Y-134576777D01*
X233906747Y-134558598D01*
X233892133Y-134538893D01*
X233879520Y-134517849D01*
X233869030Y-134495671D01*
X233860765Y-134472571D01*
X233854804Y-134448773D01*
X233851204Y-134424504D01*
X233850000Y-134400000D01*
X233850000Y-132900000D01*
X233851204Y-132875496D01*
X233854804Y-132851227D01*
X233860765Y-132827429D01*
X233869030Y-132804329D01*
X233879520Y-132782151D01*
X233892133Y-132761107D01*
X233906747Y-132741402D01*
X233923223Y-132723223D01*
X233941402Y-132706747D01*
X233961107Y-132692133D01*
X233982151Y-132679520D01*
X234004329Y-132669030D01*
X234027429Y-132660765D01*
X234051227Y-132654804D01*
X234075496Y-132651204D01*
X234100000Y-132650000D01*
X234600000Y-132650000D01*
X234624504Y-132651204D01*
X234624504Y-132651204D01*
G37*
D13*
X234350000Y-133650000D03*
D11*
X196250000Y-99700000D03*
D12*
X196250000Y-103825000D03*
X193323185Y-102626815D03*
X192125000Y-99700000D03*
X193323185Y-96773185D03*
X196250000Y-95575000D03*
X199176815Y-96773185D03*
X200375000Y-99700000D03*
X199176815Y-102626815D03*
X196250000Y-124125000D03*
X196250000Y-115875000D03*
X192125000Y-120000000D03*
X199176815Y-117073185D03*
X199176815Y-122926815D03*
X193323185Y-122926815D03*
X200375000Y-120000000D03*
X193323185Y-117073185D03*
D11*
X196250000Y-120000000D03*
D10*
G36*
X203424504Y-105351204D02*
X203448773Y-105354804D01*
X203472571Y-105360765D01*
X203495671Y-105369030D01*
X203517849Y-105379520D01*
X203538893Y-105392133D01*
X203558598Y-105406747D01*
X203576777Y-105423223D01*
X203593253Y-105441402D01*
X203607867Y-105461107D01*
X203620480Y-105482151D01*
X203630970Y-105504329D01*
X203639235Y-105527429D01*
X203645196Y-105551227D01*
X203648796Y-105575496D01*
X203650000Y-105600000D01*
X203650000Y-107100000D01*
X203648796Y-107124504D01*
X203645196Y-107148773D01*
X203639235Y-107172571D01*
X203630970Y-107195671D01*
X203620480Y-107217849D01*
X203607867Y-107238893D01*
X203593253Y-107258598D01*
X203576777Y-107276777D01*
X203558598Y-107293253D01*
X203538893Y-107307867D01*
X203517849Y-107320480D01*
X203495671Y-107330970D01*
X203472571Y-107339235D01*
X203448773Y-107345196D01*
X203424504Y-107348796D01*
X203400000Y-107350000D01*
X202900000Y-107350000D01*
X202875496Y-107348796D01*
X202851227Y-107345196D01*
X202827429Y-107339235D01*
X202804329Y-107330970D01*
X202782151Y-107320480D01*
X202761107Y-107307867D01*
X202741402Y-107293253D01*
X202723223Y-107276777D01*
X202706747Y-107258598D01*
X202692133Y-107238893D01*
X202679520Y-107217849D01*
X202669030Y-107195671D01*
X202660765Y-107172571D01*
X202654804Y-107148773D01*
X202651204Y-107124504D01*
X202650000Y-107100000D01*
X202650000Y-105600000D01*
X202651204Y-105575496D01*
X202654804Y-105551227D01*
X202660765Y-105527429D01*
X202669030Y-105504329D01*
X202679520Y-105482151D01*
X202692133Y-105461107D01*
X202706747Y-105441402D01*
X202723223Y-105423223D01*
X202741402Y-105406747D01*
X202761107Y-105392133D01*
X202782151Y-105379520D01*
X202804329Y-105369030D01*
X202827429Y-105360765D01*
X202851227Y-105354804D01*
X202875496Y-105351204D01*
X202900000Y-105350000D01*
X203400000Y-105350000D01*
X203424504Y-105351204D01*
X203424504Y-105351204D01*
G37*
D13*
X203150000Y-106350000D03*
D10*
G36*
X189624504Y-112351204D02*
X189648773Y-112354804D01*
X189672571Y-112360765D01*
X189695671Y-112369030D01*
X189717849Y-112379520D01*
X189738893Y-112392133D01*
X189758598Y-112406747D01*
X189776777Y-112423223D01*
X189793253Y-112441402D01*
X189807867Y-112461107D01*
X189820480Y-112482151D01*
X189830970Y-112504329D01*
X189839235Y-112527429D01*
X189845196Y-112551227D01*
X189848796Y-112575496D01*
X189850000Y-112600000D01*
X189850000Y-114100000D01*
X189848796Y-114124504D01*
X189845196Y-114148773D01*
X189839235Y-114172571D01*
X189830970Y-114195671D01*
X189820480Y-114217849D01*
X189807867Y-114238893D01*
X189793253Y-114258598D01*
X189776777Y-114276777D01*
X189758598Y-114293253D01*
X189738893Y-114307867D01*
X189717849Y-114320480D01*
X189695671Y-114330970D01*
X189672571Y-114339235D01*
X189648773Y-114345196D01*
X189624504Y-114348796D01*
X189600000Y-114350000D01*
X189100000Y-114350000D01*
X189075496Y-114348796D01*
X189051227Y-114345196D01*
X189027429Y-114339235D01*
X189004329Y-114330970D01*
X188982151Y-114320480D01*
X188961107Y-114307867D01*
X188941402Y-114293253D01*
X188923223Y-114276777D01*
X188906747Y-114258598D01*
X188892133Y-114238893D01*
X188879520Y-114217849D01*
X188869030Y-114195671D01*
X188860765Y-114172571D01*
X188854804Y-114148773D01*
X188851204Y-114124504D01*
X188850000Y-114100000D01*
X188850000Y-112600000D01*
X188851204Y-112575496D01*
X188854804Y-112551227D01*
X188860765Y-112527429D01*
X188869030Y-112504329D01*
X188879520Y-112482151D01*
X188892133Y-112461107D01*
X188906747Y-112441402D01*
X188923223Y-112423223D01*
X188941402Y-112406747D01*
X188961107Y-112392133D01*
X188982151Y-112379520D01*
X189004329Y-112369030D01*
X189027429Y-112360765D01*
X189051227Y-112354804D01*
X189075496Y-112351204D01*
X189100000Y-112350000D01*
X189600000Y-112350000D01*
X189624504Y-112351204D01*
X189624504Y-112351204D01*
G37*
D13*
X189350000Y-113350000D03*
D10*
G36*
X66174504Y-132901204D02*
X66198773Y-132904804D01*
X66222571Y-132910765D01*
X66245671Y-132919030D01*
X66267849Y-132929520D01*
X66288893Y-132942133D01*
X66308598Y-132956747D01*
X66326777Y-132973223D01*
X66343253Y-132991402D01*
X66357867Y-133011107D01*
X66370480Y-133032151D01*
X66380970Y-133054329D01*
X66389235Y-133077429D01*
X66395196Y-133101227D01*
X66398796Y-133125496D01*
X66400000Y-133150000D01*
X66400000Y-133650000D01*
X66398796Y-133674504D01*
X66395196Y-133698773D01*
X66389235Y-133722571D01*
X66380970Y-133745671D01*
X66370480Y-133767849D01*
X66357867Y-133788893D01*
X66343253Y-133808598D01*
X66326777Y-133826777D01*
X66308598Y-133843253D01*
X66288893Y-133857867D01*
X66267849Y-133870480D01*
X66245671Y-133880970D01*
X66222571Y-133889235D01*
X66198773Y-133895196D01*
X66174504Y-133898796D01*
X66150000Y-133900000D01*
X64650000Y-133900000D01*
X64625496Y-133898796D01*
X64601227Y-133895196D01*
X64577429Y-133889235D01*
X64554329Y-133880970D01*
X64532151Y-133870480D01*
X64511107Y-133857867D01*
X64491402Y-133843253D01*
X64473223Y-133826777D01*
X64456747Y-133808598D01*
X64442133Y-133788893D01*
X64429520Y-133767849D01*
X64419030Y-133745671D01*
X64410765Y-133722571D01*
X64404804Y-133698773D01*
X64401204Y-133674504D01*
X64400000Y-133650000D01*
X64400000Y-133150000D01*
X64401204Y-133125496D01*
X64404804Y-133101227D01*
X64410765Y-133077429D01*
X64419030Y-133054329D01*
X64429520Y-133032151D01*
X64442133Y-133011107D01*
X64456747Y-132991402D01*
X64473223Y-132973223D01*
X64491402Y-132956747D01*
X64511107Y-132942133D01*
X64532151Y-132929520D01*
X64554329Y-132919030D01*
X64577429Y-132910765D01*
X64601227Y-132904804D01*
X64625496Y-132901204D01*
X64650000Y-132900000D01*
X66150000Y-132900000D01*
X66174504Y-132901204D01*
X66174504Y-132901204D01*
G37*
D13*
X65400000Y-133400000D03*
D10*
G36*
X66174504Y-146701204D02*
X66198773Y-146704804D01*
X66222571Y-146710765D01*
X66245671Y-146719030D01*
X66267849Y-146729520D01*
X66288893Y-146742133D01*
X66308598Y-146756747D01*
X66326777Y-146773223D01*
X66343253Y-146791402D01*
X66357867Y-146811107D01*
X66370480Y-146832151D01*
X66380970Y-146854329D01*
X66389235Y-146877429D01*
X66395196Y-146901227D01*
X66398796Y-146925496D01*
X66400000Y-146950000D01*
X66400000Y-147450000D01*
X66398796Y-147474504D01*
X66395196Y-147498773D01*
X66389235Y-147522571D01*
X66380970Y-147545671D01*
X66370480Y-147567849D01*
X66357867Y-147588893D01*
X66343253Y-147608598D01*
X66326777Y-147626777D01*
X66308598Y-147643253D01*
X66288893Y-147657867D01*
X66267849Y-147670480D01*
X66245671Y-147680970D01*
X66222571Y-147689235D01*
X66198773Y-147695196D01*
X66174504Y-147698796D01*
X66150000Y-147700000D01*
X64650000Y-147700000D01*
X64625496Y-147698796D01*
X64601227Y-147695196D01*
X64577429Y-147689235D01*
X64554329Y-147680970D01*
X64532151Y-147670480D01*
X64511107Y-147657867D01*
X64491402Y-147643253D01*
X64473223Y-147626777D01*
X64456747Y-147608598D01*
X64442133Y-147588893D01*
X64429520Y-147567849D01*
X64419030Y-147545671D01*
X64410765Y-147522571D01*
X64404804Y-147498773D01*
X64401204Y-147474504D01*
X64400000Y-147450000D01*
X64400000Y-146950000D01*
X64401204Y-146925496D01*
X64404804Y-146901227D01*
X64410765Y-146877429D01*
X64419030Y-146854329D01*
X64429520Y-146832151D01*
X64442133Y-146811107D01*
X64456747Y-146791402D01*
X64473223Y-146773223D01*
X64491402Y-146756747D01*
X64511107Y-146742133D01*
X64532151Y-146729520D01*
X64554329Y-146719030D01*
X64577429Y-146710765D01*
X64601227Y-146704804D01*
X64625496Y-146701204D01*
X64650000Y-146700000D01*
X66150000Y-146700000D01*
X66174504Y-146701204D01*
X66174504Y-146701204D01*
G37*
D13*
X65400000Y-147200000D03*
D12*
X61676815Y-143226815D03*
X62875000Y-140300000D03*
X61676815Y-137373185D03*
X58750000Y-136175000D03*
X55823185Y-137373185D03*
X54625000Y-140300000D03*
X55823185Y-143226815D03*
X58750000Y-144425000D03*
D11*
X58750000Y-140300000D03*
D14*
X81250000Y-108350000D03*
D15*
X81250000Y-111350000D03*
D16*
X79290000Y-105350000D03*
X79290000Y-114350000D03*
D14*
X218750000Y-108350000D03*
D15*
X218750000Y-111350000D03*
D16*
X216790000Y-105350000D03*
X216790000Y-114350000D03*
D11*
X241250000Y-99700000D03*
D12*
X241250000Y-103825000D03*
X238323185Y-102626815D03*
X237125000Y-99700000D03*
X238323185Y-96773185D03*
X241250000Y-95575000D03*
X244176815Y-96773185D03*
X245375000Y-99700000D03*
X244176815Y-102626815D03*
D10*
G36*
X248674504Y-106101204D02*
X248698773Y-106104804D01*
X248722571Y-106110765D01*
X248745671Y-106119030D01*
X248767849Y-106129520D01*
X248788893Y-106142133D01*
X248808598Y-106156747D01*
X248826777Y-106173223D01*
X248843253Y-106191402D01*
X248857867Y-106211107D01*
X248870480Y-106232151D01*
X248880970Y-106254329D01*
X248889235Y-106277429D01*
X248895196Y-106301227D01*
X248898796Y-106325496D01*
X248900000Y-106350000D01*
X248900000Y-106850000D01*
X248898796Y-106874504D01*
X248895196Y-106898773D01*
X248889235Y-106922571D01*
X248880970Y-106945671D01*
X248870480Y-106967849D01*
X248857867Y-106988893D01*
X248843253Y-107008598D01*
X248826777Y-107026777D01*
X248808598Y-107043253D01*
X248788893Y-107057867D01*
X248767849Y-107070480D01*
X248745671Y-107080970D01*
X248722571Y-107089235D01*
X248698773Y-107095196D01*
X248674504Y-107098796D01*
X248650000Y-107100000D01*
X247150000Y-107100000D01*
X247125496Y-107098796D01*
X247101227Y-107095196D01*
X247077429Y-107089235D01*
X247054329Y-107080970D01*
X247032151Y-107070480D01*
X247011107Y-107057867D01*
X246991402Y-107043253D01*
X246973223Y-107026777D01*
X246956747Y-107008598D01*
X246942133Y-106988893D01*
X246929520Y-106967849D01*
X246919030Y-106945671D01*
X246910765Y-106922571D01*
X246904804Y-106898773D01*
X246901204Y-106874504D01*
X246900000Y-106850000D01*
X246900000Y-106350000D01*
X246901204Y-106325496D01*
X246904804Y-106301227D01*
X246910765Y-106277429D01*
X246919030Y-106254329D01*
X246929520Y-106232151D01*
X246942133Y-106211107D01*
X246956747Y-106191402D01*
X246973223Y-106173223D01*
X246991402Y-106156747D01*
X247011107Y-106142133D01*
X247032151Y-106129520D01*
X247054329Y-106119030D01*
X247077429Y-106110765D01*
X247101227Y-106104804D01*
X247125496Y-106101204D01*
X247150000Y-106100000D01*
X248650000Y-106100000D01*
X248674504Y-106101204D01*
X248674504Y-106101204D01*
G37*
D13*
X247900000Y-106600000D03*
D10*
G36*
X248674504Y-92301204D02*
X248698773Y-92304804D01*
X248722571Y-92310765D01*
X248745671Y-92319030D01*
X248767849Y-92329520D01*
X248788893Y-92342133D01*
X248808598Y-92356747D01*
X248826777Y-92373223D01*
X248843253Y-92391402D01*
X248857867Y-92411107D01*
X248870480Y-92432151D01*
X248880970Y-92454329D01*
X248889235Y-92477429D01*
X248895196Y-92501227D01*
X248898796Y-92525496D01*
X248900000Y-92550000D01*
X248900000Y-93050000D01*
X248898796Y-93074504D01*
X248895196Y-93098773D01*
X248889235Y-93122571D01*
X248880970Y-93145671D01*
X248870480Y-93167849D01*
X248857867Y-93188893D01*
X248843253Y-93208598D01*
X248826777Y-93226777D01*
X248808598Y-93243253D01*
X248788893Y-93257867D01*
X248767849Y-93270480D01*
X248745671Y-93280970D01*
X248722571Y-93289235D01*
X248698773Y-93295196D01*
X248674504Y-93298796D01*
X248650000Y-93300000D01*
X247150000Y-93300000D01*
X247125496Y-93298796D01*
X247101227Y-93295196D01*
X247077429Y-93289235D01*
X247054329Y-93280970D01*
X247032151Y-93270480D01*
X247011107Y-93257867D01*
X246991402Y-93243253D01*
X246973223Y-93226777D01*
X246956747Y-93208598D01*
X246942133Y-93188893D01*
X246929520Y-93167849D01*
X246919030Y-93145671D01*
X246910765Y-93122571D01*
X246904804Y-93098773D01*
X246901204Y-93074504D01*
X246900000Y-93050000D01*
X246900000Y-92550000D01*
X246901204Y-92525496D01*
X246904804Y-92501227D01*
X246910765Y-92477429D01*
X246919030Y-92454329D01*
X246929520Y-92432151D01*
X246942133Y-92411107D01*
X246956747Y-92391402D01*
X246973223Y-92373223D01*
X246991402Y-92356747D01*
X247011107Y-92342133D01*
X247032151Y-92329520D01*
X247054329Y-92319030D01*
X247077429Y-92310765D01*
X247101227Y-92304804D01*
X247125496Y-92301204D01*
X247150000Y-92300000D01*
X248650000Y-92300000D01*
X248674504Y-92301204D01*
X248674504Y-92301204D01*
G37*
D13*
X247900000Y-92800000D03*
D17*
X81900000Y-141570000D03*
D18*
X81900000Y-139030000D03*
X80500000Y-121270000D03*
D17*
X80500000Y-118730000D03*
X82000000Y-101070000D03*
D18*
X82000000Y-98530000D03*
D17*
X150750000Y-100970000D03*
D18*
X150750000Y-98430000D03*
D17*
X149250000Y-118730000D03*
D18*
X149250000Y-121270000D03*
D17*
X150750000Y-141570000D03*
D18*
X150750000Y-139030000D03*
D17*
X219500000Y-141570000D03*
D18*
X219500000Y-139030000D03*
D17*
X218000000Y-118730000D03*
D18*
X218000000Y-121270000D03*
X219500000Y-98430000D03*
D17*
X219500000Y-100970000D03*
D19*
X86275000Y-125070000D03*
X86275000Y-108350000D03*
X150875000Y-108100000D03*
X150875000Y-132150000D03*
X142000000Y-95150000D03*
X148000000Y-95150000D03*
X152000000Y-95150000D03*
X158000000Y-95150000D03*
D20*
X225905000Y-99700000D03*
D19*
X221205000Y-145380000D03*
X150000000Y-109850000D03*
X150000000Y-114850000D03*
X150000000Y-104850000D03*
X160000000Y-104850000D03*
X158000000Y-104850000D03*
D20*
X68965000Y-130150000D03*
X93435000Y-120000000D03*
X69065000Y-99800000D03*
X137815000Y-99700000D03*
X162185000Y-120000000D03*
X137815000Y-140300000D03*
X206565000Y-140300000D03*
X230935000Y-120000000D03*
X206565000Y-99700000D03*
X230935000Y-99700000D03*
D19*
X86775000Y-108850000D03*
X87275000Y-109350000D03*
X88275000Y-110850000D03*
X87775000Y-111350000D03*
X148125000Y-110100000D03*
X147625000Y-109600000D03*
X148125000Y-112100000D03*
X152375000Y-115600000D03*
X152375000Y-127150000D03*
X147625000Y-111600000D03*
X232950000Y-109600000D03*
X232450000Y-110100000D03*
X154375000Y-104100000D03*
X142375000Y-94600000D03*
X154875000Y-104600000D03*
X148375000Y-94100000D03*
X155375000Y-105100000D03*
X155375000Y-94100000D03*
X155875000Y-105600000D03*
X156375000Y-94100000D03*
X151375000Y-109100000D03*
X151375000Y-131650000D03*
X154875000Y-106600000D03*
X163375000Y-106600000D03*
X154375000Y-106100000D03*
X164605000Y-105605000D03*
X151875000Y-115100000D03*
X151875000Y-128150000D03*
X154375000Y-107600000D03*
X154375000Y-129650000D03*
X155125000Y-107350000D03*
X154875000Y-130150000D03*
D21*
X86275000Y-125070000D02*
X86275000Y-108350000D01*
X150875000Y-108100000D02*
X150875000Y-132150000D01*
D22*
X68965000Y-130150000D02*
X64110000Y-130150000D01*
X58750000Y-135510000D02*
X58750000Y-140300000D01*
X64110000Y-130150000D02*
X58750000Y-135510000D01*
X93435000Y-120000000D02*
X103750000Y-120000000D01*
X69065000Y-99800000D02*
X58750000Y-99800000D01*
X137815000Y-99700000D02*
X127500000Y-99700000D01*
X162185000Y-120000000D02*
X172500000Y-120000000D01*
X137815000Y-140300000D02*
X127500000Y-140300000D01*
X206565000Y-140300000D02*
X196250000Y-140300000D01*
X230935000Y-120000000D02*
X241250000Y-120000000D01*
X206565000Y-99700000D02*
X196250000Y-99700000D01*
X230935000Y-99700000D02*
X241250000Y-99700000D01*
D21*
X86400000Y-139030000D02*
X81900000Y-139030000D01*
X86775000Y-108850000D02*
X86775000Y-138655000D01*
X86775000Y-138655000D02*
X86400000Y-139030000D01*
X84610000Y-141570000D02*
X81900000Y-141570000D01*
X87275000Y-109350000D02*
X87275000Y-138905000D01*
X87275000Y-138905000D02*
X84610000Y-141570000D01*
X86705000Y-98530000D02*
X82000000Y-98530000D01*
X88275000Y-110850000D02*
X88275000Y-100100000D01*
X88275000Y-100100000D02*
X86705000Y-98530000D01*
X82000000Y-101070000D02*
X86995000Y-101070000D01*
X87775000Y-101850000D02*
X87775000Y-111350000D01*
X86995000Y-101070000D02*
X87775000Y-101850000D01*
X149505000Y-100970000D02*
X150750000Y-100970000D01*
X148125000Y-110100000D02*
X148125000Y-102350000D01*
X148125000Y-102350000D02*
X149505000Y-100970000D01*
X147625000Y-101555000D02*
X150750000Y-98430000D01*
X147625000Y-109600000D02*
X147625000Y-101555000D01*
X148125000Y-117605000D02*
X149250000Y-118730000D01*
X148125000Y-112100000D02*
X148125000Y-117605000D01*
X152375000Y-115600000D02*
X152375000Y-127150000D01*
X147625000Y-119645000D02*
X149250000Y-121270000D01*
X147625000Y-111600000D02*
X147625000Y-119645000D01*
X219250000Y-109600000D02*
X218750000Y-109100000D01*
X232950000Y-109600000D02*
X219250000Y-109600000D01*
X218750000Y-109100000D02*
X218750000Y-108350000D01*
X218750000Y-110600000D02*
X219250000Y-110100000D01*
X218750000Y-111350000D02*
X218750000Y-110600000D01*
X219250000Y-110100000D02*
X232450000Y-110100000D01*
X154375000Y-104100000D02*
X154375000Y-95100000D01*
X154375000Y-95100000D02*
X153875000Y-94600000D01*
X153875000Y-94600000D02*
X142375000Y-94600000D01*
X154875000Y-104600000D02*
X154875000Y-94600000D01*
X154875000Y-94600000D02*
X154375000Y-94100000D01*
X154375000Y-94100000D02*
X148375000Y-94100000D01*
X155375000Y-105100000D02*
X155375000Y-104600000D01*
X155375000Y-104600000D02*
X155375000Y-94100000D01*
X155875000Y-105600000D02*
X155875000Y-105100000D01*
X155875000Y-105100000D02*
X155875000Y-94600000D01*
X155875000Y-94600000D02*
X156375000Y-94100000D01*
X151375000Y-109100000D02*
X151375000Y-131650000D01*
X154875000Y-106600000D02*
X163375000Y-106600000D01*
X164110000Y-106100000D02*
X164605000Y-105605000D01*
X154375000Y-106100000D02*
X164110000Y-106100000D01*
X151875000Y-115100000D02*
X151875000Y-128150000D01*
X154375000Y-107600000D02*
X154375000Y-129650000D01*
X155125000Y-107350000D02*
X154875000Y-107600000D01*
X154875000Y-107600000D02*
X154875000Y-130150000D01*
D23*
G36*
X232928616Y-90821384D02*
X233305877Y-91313039D01*
X233543032Y-91885582D01*
X233625000Y-92508196D01*
X233625000Y-99075000D01*
X231406015Y-99075000D01*
X231374002Y-99042987D01*
X231089157Y-98925000D01*
X230780843Y-98925000D01*
X230495998Y-99042987D01*
X230277987Y-99260998D01*
X230160000Y-99545843D01*
X230160000Y-99854157D01*
X230277987Y-100139002D01*
X230495998Y-100357013D01*
X230780843Y-100475000D01*
X231089157Y-100475000D01*
X231374002Y-100357013D01*
X231406015Y-100325000D01*
X233625000Y-100325000D01*
X233625000Y-119375000D01*
X231406015Y-119375000D01*
X231374002Y-119342987D01*
X231089157Y-119225000D01*
X230780843Y-119225000D01*
X230495998Y-119342987D01*
X230277987Y-119560998D01*
X230160000Y-119845843D01*
X230160000Y-120154157D01*
X230277987Y-120439002D01*
X230495998Y-120657013D01*
X230780843Y-120775000D01*
X231089157Y-120775000D01*
X231374002Y-120657013D01*
X231406015Y-120625000D01*
X233625000Y-120625000D01*
X233625000Y-132494565D01*
X233515788Y-132658012D01*
X233467654Y-132900000D01*
X233467654Y-134400000D01*
X233515788Y-134641988D01*
X233625000Y-134805435D01*
X233625000Y-147491804D01*
X233543032Y-148114418D01*
X233305877Y-148686961D01*
X232928616Y-149178616D01*
X232444620Y-149550000D01*
X67555380Y-149550000D01*
X67071384Y-149178616D01*
X66694123Y-148686961D01*
X66456968Y-148114418D01*
X66442009Y-148000789D01*
X66597136Y-147897136D01*
X66734212Y-147691988D01*
X66782346Y-147450000D01*
X66782346Y-147344320D01*
X68300000Y-147344320D01*
X68324080Y-147465376D01*
X68384766Y-147770468D01*
X68384766Y-147770473D01*
X68400894Y-147809408D01*
X68451958Y-147932690D01*
X68451963Y-147932695D01*
X68668730Y-148257111D01*
X68668731Y-148257114D01*
X68708830Y-148297212D01*
X68792886Y-148381268D01*
X68792889Y-148381269D01*
X69117307Y-148598039D01*
X69117310Y-148598042D01*
X69181023Y-148624432D01*
X69279527Y-148665234D01*
X69279532Y-148665234D01*
X69574418Y-148723890D01*
X69574419Y-148723891D01*
X69705679Y-148750000D01*
X72794321Y-148750000D01*
X72925581Y-148723891D01*
X72925582Y-148723890D01*
X73220468Y-148665234D01*
X73220473Y-148665234D01*
X73289603Y-148636599D01*
X73382690Y-148598042D01*
X73382695Y-148598037D01*
X73707111Y-148381270D01*
X73707114Y-148381269D01*
X73791170Y-148297212D01*
X73831268Y-148257114D01*
X73831269Y-148257111D01*
X74048039Y-147932693D01*
X74048042Y-147932690D01*
X74092196Y-147826091D01*
X74115234Y-147770473D01*
X74115234Y-147770468D01*
X74173890Y-147475582D01*
X74173891Y-147475581D01*
X74200000Y-147344321D01*
X74200000Y-141570000D01*
X80651001Y-141570000D01*
X80746075Y-142047971D01*
X81016824Y-142453176D01*
X81422029Y-142723925D01*
X81779348Y-142795000D01*
X82020652Y-142795000D01*
X82377971Y-142723925D01*
X82783176Y-142453176D01*
X83053925Y-142047971D01*
X83054516Y-142045000D01*
X84563226Y-142045000D01*
X84610000Y-142054304D01*
X84656774Y-142045000D01*
X84656779Y-142045000D01*
X84795335Y-142017439D01*
X84952455Y-141912455D01*
X84978955Y-141872795D01*
X87577801Y-139273951D01*
X87617455Y-139247455D01*
X87643951Y-139207801D01*
X87643953Y-139207799D01*
X87722438Y-139090336D01*
X87722439Y-139090335D01*
X87750000Y-138951779D01*
X87750000Y-138951775D01*
X87759304Y-138905001D01*
X87750000Y-138858227D01*
X87750000Y-119845843D01*
X92660000Y-119845843D01*
X92660000Y-120154157D01*
X92777987Y-120439002D01*
X92995998Y-120657013D01*
X93280843Y-120775000D01*
X93589157Y-120775000D01*
X93874002Y-120657013D01*
X93906015Y-120625000D01*
X96125000Y-120625000D01*
X96125000Y-132494565D01*
X96015788Y-132658012D01*
X95967654Y-132900000D01*
X95967654Y-134400000D01*
X96015788Y-134641988D01*
X96125000Y-134805435D01*
X96125000Y-142800000D01*
X96134515Y-142847835D01*
X96161612Y-142888388D01*
X101161612Y-147888388D01*
X101202165Y-147915485D01*
X101250000Y-147925000D01*
X106250000Y-147925000D01*
X106297835Y-147915485D01*
X106338388Y-147888388D01*
X111338388Y-142888388D01*
X111365485Y-142847835D01*
X111375000Y-142800000D01*
X111375000Y-132900000D01*
X119717654Y-132900000D01*
X119717654Y-134400000D01*
X119765788Y-134641988D01*
X119875000Y-134805435D01*
X119875000Y-142800000D01*
X119884515Y-142847835D01*
X119911612Y-142888388D01*
X124911612Y-147888388D01*
X124952165Y-147915485D01*
X125000000Y-147925000D01*
X130000000Y-147925000D01*
X130047835Y-147915485D01*
X130088388Y-147888388D01*
X135088388Y-142888388D01*
X135115485Y-142847835D01*
X135125000Y-142800000D01*
X135125000Y-141570000D01*
X149501001Y-141570000D01*
X149596075Y-142047971D01*
X149866824Y-142453176D01*
X150272029Y-142723925D01*
X150629348Y-142795000D01*
X150870652Y-142795000D01*
X151227971Y-142723925D01*
X151633176Y-142453176D01*
X151903925Y-142047971D01*
X151998999Y-141570000D01*
X151903925Y-141092029D01*
X151633176Y-140686824D01*
X151227971Y-140416075D01*
X150870652Y-140345000D01*
X150629348Y-140345000D01*
X150272029Y-140416075D01*
X149866824Y-140686824D01*
X149596075Y-141092029D01*
X149501001Y-141570000D01*
X135125000Y-141570000D01*
X135125000Y-140925000D01*
X137343985Y-140925000D01*
X137375998Y-140957013D01*
X137660843Y-141075000D01*
X137969157Y-141075000D01*
X138254002Y-140957013D01*
X138472013Y-140739002D01*
X138590000Y-140454157D01*
X138590000Y-140145843D01*
X138472013Y-139860998D01*
X138254002Y-139642987D01*
X137969157Y-139525000D01*
X137660843Y-139525000D01*
X137375998Y-139642987D01*
X137343985Y-139675000D01*
X135125000Y-139675000D01*
X135125000Y-138180000D01*
X149517654Y-138180000D01*
X149517654Y-139880000D01*
X149546758Y-140026317D01*
X149629641Y-140150359D01*
X149753683Y-140233242D01*
X149900000Y-140262346D01*
X151600000Y-140262346D01*
X151746317Y-140233242D01*
X151870359Y-140150359D01*
X151953242Y-140026317D01*
X151982346Y-139880000D01*
X151982346Y-138180000D01*
X151953242Y-138033683D01*
X151870359Y-137909641D01*
X151746317Y-137826758D01*
X151611795Y-137800000D01*
X164875000Y-137800000D01*
X164875000Y-142800000D01*
X164884515Y-142847835D01*
X164911612Y-142888388D01*
X169911612Y-147888388D01*
X169952165Y-147915485D01*
X170000000Y-147925000D01*
X186344565Y-147925000D01*
X186508012Y-148034212D01*
X186750000Y-148082346D01*
X188250000Y-148082346D01*
X188491988Y-148034212D01*
X188655435Y-147925000D01*
X198750000Y-147925000D01*
X198797835Y-147915485D01*
X198838388Y-147888388D01*
X203838388Y-142888388D01*
X203865485Y-142847835D01*
X203875000Y-142800000D01*
X203875000Y-141570000D01*
X218251001Y-141570000D01*
X218346075Y-142047971D01*
X218616824Y-142453176D01*
X219022029Y-142723925D01*
X219379348Y-142795000D01*
X219620652Y-142795000D01*
X219977971Y-142723925D01*
X220383176Y-142453176D01*
X220653925Y-142047971D01*
X220748999Y-141570000D01*
X220653925Y-141092029D01*
X220383176Y-140686824D01*
X219977971Y-140416075D01*
X219620652Y-140345000D01*
X219379348Y-140345000D01*
X219022029Y-140416075D01*
X218616824Y-140686824D01*
X218346075Y-141092029D01*
X218251001Y-141570000D01*
X203875000Y-141570000D01*
X203875000Y-140925000D01*
X206093985Y-140925000D01*
X206125998Y-140957013D01*
X206410843Y-141075000D01*
X206719157Y-141075000D01*
X207004002Y-140957013D01*
X207222013Y-140739002D01*
X207340000Y-140454157D01*
X207340000Y-140145843D01*
X207222013Y-139860998D01*
X207004002Y-139642987D01*
X206719157Y-139525000D01*
X206410843Y-139525000D01*
X206125998Y-139642987D01*
X206093985Y-139675000D01*
X203875000Y-139675000D01*
X203875000Y-138180000D01*
X218267654Y-138180000D01*
X218267654Y-139880000D01*
X218296758Y-140026317D01*
X218379641Y-140150359D01*
X218503683Y-140233242D01*
X218650000Y-140262346D01*
X220350000Y-140262346D01*
X220496317Y-140233242D01*
X220620359Y-140150359D01*
X220703242Y-140026317D01*
X220732346Y-139880000D01*
X220732346Y-138180000D01*
X220703242Y-138033683D01*
X220620359Y-137909641D01*
X220496317Y-137826758D01*
X220350000Y-137797654D01*
X218650000Y-137797654D01*
X218503683Y-137826758D01*
X218379641Y-137909641D01*
X218296758Y-138033683D01*
X218267654Y-138180000D01*
X203875000Y-138180000D01*
X203875000Y-137800000D01*
X203865485Y-137752165D01*
X203838388Y-137711612D01*
X198838388Y-132711612D01*
X198797835Y-132684515D01*
X198750000Y-132675000D01*
X182405435Y-132675000D01*
X182241988Y-132565788D01*
X182000000Y-132517654D01*
X180500000Y-132517654D01*
X180258012Y-132565788D01*
X180094565Y-132675000D01*
X170000000Y-132675000D01*
X169952165Y-132684515D01*
X169911612Y-132711612D01*
X164911612Y-137711612D01*
X164884515Y-137752165D01*
X164875000Y-137800000D01*
X151611795Y-137800000D01*
X151600000Y-137797654D01*
X149900000Y-137797654D01*
X149753683Y-137826758D01*
X149629641Y-137909641D01*
X149546758Y-138033683D01*
X149517654Y-138180000D01*
X135125000Y-138180000D01*
X135125000Y-127805435D01*
X135234212Y-127641988D01*
X135282346Y-127400000D01*
X135282346Y-125900000D01*
X135234212Y-125658012D01*
X135125000Y-125494565D01*
X135125000Y-117500000D01*
X135115485Y-117452165D01*
X135088388Y-117411612D01*
X130088388Y-112411612D01*
X130047835Y-112384515D01*
X130000000Y-112375000D01*
X125000000Y-112375000D01*
X124952165Y-112384515D01*
X124911612Y-112411612D01*
X119911612Y-117411612D01*
X119884515Y-117452165D01*
X119875000Y-117500000D01*
X119875000Y-132494565D01*
X119765788Y-132658012D01*
X119717654Y-132900000D01*
X111375000Y-132900000D01*
X111375000Y-127805435D01*
X111484212Y-127641988D01*
X111532346Y-127400000D01*
X111532346Y-125900000D01*
X111484212Y-125658012D01*
X111375000Y-125494565D01*
X111375000Y-117500000D01*
X111365485Y-117452165D01*
X111338388Y-117411612D01*
X106338388Y-112411612D01*
X106297835Y-112384515D01*
X106250000Y-112375000D01*
X101250000Y-112375000D01*
X101202165Y-112384515D01*
X101161612Y-112411612D01*
X96161612Y-117411612D01*
X96134515Y-117452165D01*
X96125000Y-117500000D01*
X96125000Y-119375000D01*
X93906015Y-119375000D01*
X93874002Y-119342987D01*
X93589157Y-119225000D01*
X93280843Y-119225000D01*
X92995998Y-119342987D01*
X92777987Y-119560998D01*
X92660000Y-119845843D01*
X87750000Y-119845843D01*
X87750000Y-111925000D01*
X87889375Y-111925000D01*
X88100711Y-111837462D01*
X88262462Y-111675711D01*
X88341197Y-111485625D01*
X147050000Y-111485625D01*
X147050000Y-111714375D01*
X147137538Y-111925711D01*
X147150000Y-111938173D01*
X147150001Y-119598221D01*
X147140696Y-119645000D01*
X147177562Y-119830335D01*
X147213370Y-119883925D01*
X147282546Y-119987455D01*
X147322202Y-120013953D01*
X148017654Y-120709405D01*
X148017654Y-122120000D01*
X148046758Y-122266317D01*
X148129641Y-122390359D01*
X148253683Y-122473242D01*
X148400000Y-122502346D01*
X150100000Y-122502346D01*
X150246317Y-122473242D01*
X150370359Y-122390359D01*
X150400001Y-122345998D01*
X150400001Y-131811826D01*
X150387538Y-131824289D01*
X150300000Y-132035625D01*
X150300000Y-132264375D01*
X150387538Y-132475711D01*
X150549289Y-132637462D01*
X150760625Y-132725000D01*
X150989375Y-132725000D01*
X151200711Y-132637462D01*
X151362462Y-132475711D01*
X151450000Y-132264375D01*
X151450000Y-132225000D01*
X151489375Y-132225000D01*
X151700711Y-132137462D01*
X151862462Y-131975711D01*
X151950000Y-131764375D01*
X151950000Y-131535625D01*
X151862462Y-131324289D01*
X151850000Y-131311827D01*
X151850000Y-128725000D01*
X151989375Y-128725000D01*
X152200711Y-128637462D01*
X152362462Y-128475711D01*
X152450000Y-128264375D01*
X152450000Y-128035625D01*
X152362462Y-127824289D01*
X152350000Y-127811827D01*
X152350000Y-127725000D01*
X152489375Y-127725000D01*
X152700711Y-127637462D01*
X152862462Y-127475711D01*
X152950000Y-127264375D01*
X152950000Y-127035625D01*
X152862462Y-126824289D01*
X152850000Y-126811827D01*
X152850000Y-115938173D01*
X152862462Y-115925711D01*
X152950000Y-115714375D01*
X152950000Y-115485625D01*
X152862462Y-115274289D01*
X152700711Y-115112538D01*
X152489375Y-115025000D01*
X152450000Y-115025000D01*
X152450000Y-114985625D01*
X152362462Y-114774289D01*
X152200711Y-114612538D01*
X151989375Y-114525000D01*
X151850000Y-114525000D01*
X151850000Y-109438173D01*
X151862462Y-109425711D01*
X151950000Y-109214375D01*
X151950000Y-108985625D01*
X151862462Y-108774289D01*
X151700711Y-108612538D01*
X151489375Y-108525000D01*
X151350000Y-108525000D01*
X151350000Y-108438173D01*
X151362462Y-108425711D01*
X151450000Y-108214375D01*
X151450000Y-107985625D01*
X151362462Y-107774289D01*
X151200711Y-107612538D01*
X150989375Y-107525000D01*
X150760625Y-107525000D01*
X150549289Y-107612538D01*
X150387538Y-107774289D01*
X150300000Y-107985625D01*
X150300000Y-108214375D01*
X150387538Y-108425711D01*
X150400000Y-108438173D01*
X150400000Y-118246155D01*
X150133176Y-117846824D01*
X149727971Y-117576075D01*
X149370652Y-117505000D01*
X149129348Y-117505000D01*
X148772029Y-117576075D01*
X148769509Y-117577759D01*
X148600000Y-117408250D01*
X148600000Y-112438173D01*
X148612462Y-112425711D01*
X148700000Y-112214375D01*
X148700000Y-111985625D01*
X148612462Y-111774289D01*
X148450711Y-111612538D01*
X148239375Y-111525000D01*
X148200000Y-111525000D01*
X148200000Y-111485625D01*
X148112462Y-111274289D01*
X147950711Y-111112538D01*
X147739375Y-111025000D01*
X147510625Y-111025000D01*
X147299289Y-111112538D01*
X147137538Y-111274289D01*
X147050000Y-111485625D01*
X88341197Y-111485625D01*
X88350000Y-111464375D01*
X88350000Y-111425000D01*
X88389375Y-111425000D01*
X88600711Y-111337462D01*
X88762462Y-111175711D01*
X88850000Y-110964375D01*
X88850000Y-110735625D01*
X88762462Y-110524289D01*
X88750000Y-110511827D01*
X88750000Y-109485625D01*
X147050000Y-109485625D01*
X147050000Y-109714375D01*
X147137538Y-109925711D01*
X147299289Y-110087462D01*
X147510625Y-110175000D01*
X147550000Y-110175000D01*
X147550000Y-110214375D01*
X147637538Y-110425711D01*
X147799289Y-110587462D01*
X148010625Y-110675000D01*
X148239375Y-110675000D01*
X148450711Y-110587462D01*
X148612462Y-110425711D01*
X148700000Y-110214375D01*
X148700000Y-109985625D01*
X148612462Y-109774289D01*
X148600000Y-109761827D01*
X148600000Y-102546750D01*
X149637213Y-101509538D01*
X149866824Y-101853176D01*
X150272029Y-102123925D01*
X150629348Y-102195000D01*
X150870652Y-102195000D01*
X151227971Y-102123925D01*
X151633176Y-101853176D01*
X151903925Y-101447971D01*
X151998999Y-100970000D01*
X151903925Y-100492029D01*
X151633176Y-100086824D01*
X151227971Y-99816075D01*
X150870652Y-99745000D01*
X150629348Y-99745000D01*
X150272029Y-99816075D01*
X149866824Y-100086824D01*
X149596075Y-100492029D01*
X149595484Y-100495000D01*
X149551774Y-100495000D01*
X149505000Y-100485696D01*
X149458226Y-100495000D01*
X149458221Y-100495000D01*
X149331555Y-100520196D01*
X150189405Y-99662346D01*
X151600000Y-99662346D01*
X151746317Y-99633242D01*
X151870359Y-99550359D01*
X151953242Y-99426317D01*
X151982346Y-99280000D01*
X151982346Y-97580000D01*
X151953242Y-97433683D01*
X151870359Y-97309641D01*
X151746317Y-97226758D01*
X151600000Y-97197654D01*
X149900000Y-97197654D01*
X149753683Y-97226758D01*
X149629641Y-97309641D01*
X149546758Y-97433683D01*
X149517654Y-97580000D01*
X149517654Y-98990595D01*
X147322203Y-101186047D01*
X147282546Y-101212545D01*
X147256048Y-101252202D01*
X147256047Y-101252203D01*
X147242286Y-101272798D01*
X147177562Y-101369665D01*
X147150136Y-101507545D01*
X147140696Y-101555000D01*
X147150001Y-101601779D01*
X147150000Y-109261827D01*
X147137538Y-109274289D01*
X147050000Y-109485625D01*
X88750000Y-109485625D01*
X88750000Y-100146773D01*
X88759304Y-100099999D01*
X88750000Y-100053225D01*
X88750000Y-100053221D01*
X88722439Y-99914665D01*
X88682009Y-99854157D01*
X88643953Y-99797201D01*
X88643951Y-99797199D01*
X88617455Y-99757545D01*
X88577801Y-99731049D01*
X87073955Y-98227204D01*
X87047455Y-98187545D01*
X86890335Y-98082561D01*
X86751779Y-98055000D01*
X86751774Y-98055000D01*
X86705000Y-98045696D01*
X86658226Y-98055000D01*
X83232346Y-98055000D01*
X83232346Y-97680000D01*
X83203242Y-97533683D01*
X83120359Y-97409641D01*
X82996317Y-97326758D01*
X82850000Y-97297654D01*
X81150000Y-97297654D01*
X81003683Y-97326758D01*
X80879641Y-97409641D01*
X80796758Y-97533683D01*
X80767654Y-97680000D01*
X80767654Y-99380000D01*
X80796758Y-99526317D01*
X80879641Y-99650359D01*
X81003683Y-99733242D01*
X81150000Y-99762346D01*
X82850000Y-99762346D01*
X82996317Y-99733242D01*
X83120359Y-99650359D01*
X83203242Y-99526317D01*
X83232346Y-99380000D01*
X83232346Y-99005000D01*
X86508250Y-99005000D01*
X87800001Y-100296753D01*
X87800001Y-101203250D01*
X87363955Y-100767204D01*
X87337455Y-100727545D01*
X87180335Y-100622561D01*
X87041779Y-100595000D01*
X87041774Y-100595000D01*
X86995000Y-100585696D01*
X86948226Y-100595000D01*
X83154516Y-100595000D01*
X83153925Y-100592029D01*
X82883176Y-100186824D01*
X82477971Y-99916075D01*
X82120652Y-99845000D01*
X81879348Y-99845000D01*
X81522029Y-99916075D01*
X81116824Y-100186824D01*
X80846075Y-100592029D01*
X80751001Y-101070000D01*
X80846075Y-101547971D01*
X81116824Y-101953176D01*
X81522029Y-102223925D01*
X81879348Y-102295000D01*
X82120652Y-102295000D01*
X82477971Y-102223925D01*
X82883176Y-101953176D01*
X83153925Y-101547971D01*
X83154516Y-101545000D01*
X86798250Y-101545000D01*
X87300000Y-102046751D01*
X87300001Y-108614916D01*
X87262462Y-108524289D01*
X87100711Y-108362538D01*
X86889375Y-108275000D01*
X86850000Y-108275000D01*
X86850000Y-108235625D01*
X86762462Y-108024289D01*
X86600711Y-107862538D01*
X86389375Y-107775000D01*
X86160625Y-107775000D01*
X85949289Y-107862538D01*
X85787538Y-108024289D01*
X85700000Y-108235625D01*
X85700000Y-108464375D01*
X85787538Y-108675711D01*
X85800001Y-108688174D01*
X85800000Y-124731827D01*
X85787538Y-124744289D01*
X85700000Y-124955625D01*
X85700000Y-125184375D01*
X85787538Y-125395711D01*
X85949289Y-125557462D01*
X86160625Y-125645000D01*
X86300001Y-125645000D01*
X86300001Y-138458248D01*
X86203249Y-138555000D01*
X83132346Y-138555000D01*
X83132346Y-138180000D01*
X83103242Y-138033683D01*
X83020359Y-137909641D01*
X82896317Y-137826758D01*
X82750000Y-137797654D01*
X81050000Y-137797654D01*
X80903683Y-137826758D01*
X80779641Y-137909641D01*
X80696758Y-138033683D01*
X80667654Y-138180000D01*
X80667654Y-139880000D01*
X80696758Y-140026317D01*
X80779641Y-140150359D01*
X80903683Y-140233242D01*
X81050000Y-140262346D01*
X82750000Y-140262346D01*
X82896317Y-140233242D01*
X83020359Y-140150359D01*
X83103242Y-140026317D01*
X83132346Y-139880000D01*
X83132346Y-139505000D01*
X86003249Y-139505000D01*
X84413250Y-141095000D01*
X83054516Y-141095000D01*
X83053925Y-141092029D01*
X82783176Y-140686824D01*
X82377971Y-140416075D01*
X82020652Y-140345000D01*
X81779348Y-140345000D01*
X81422029Y-140416075D01*
X81016824Y-140686824D01*
X80746075Y-141092029D01*
X80651001Y-141570000D01*
X74200000Y-141570000D01*
X74200000Y-133255679D01*
X74173891Y-133124419D01*
X74173890Y-133124418D01*
X74115234Y-132829532D01*
X74115234Y-132829527D01*
X74066392Y-132711612D01*
X74048042Y-132667310D01*
X74048039Y-132667307D01*
X73831268Y-132342887D01*
X73831268Y-132342886D01*
X73752757Y-132264375D01*
X73707114Y-132218731D01*
X73707111Y-132218730D01*
X73382695Y-132001963D01*
X73382690Y-132001958D01*
X73287665Y-131962598D01*
X73220473Y-131934766D01*
X73220468Y-131934766D01*
X72925582Y-131876110D01*
X72925581Y-131876109D01*
X72794321Y-131850000D01*
X69705679Y-131850000D01*
X69574419Y-131876109D01*
X69574418Y-131876110D01*
X69279532Y-131934766D01*
X69279527Y-131934766D01*
X69198419Y-131968362D01*
X69117310Y-132001958D01*
X69117307Y-132001961D01*
X68792889Y-132218731D01*
X68792886Y-132218732D01*
X68747243Y-132264375D01*
X68668731Y-132342886D01*
X68668731Y-132342887D01*
X68451963Y-132667305D01*
X68451958Y-132667310D01*
X68417591Y-132750281D01*
X68384766Y-132829527D01*
X68384766Y-132829532D01*
X68317576Y-133167324D01*
X68300001Y-133255679D01*
X68300000Y-147344320D01*
X66782346Y-147344320D01*
X66782346Y-146950000D01*
X66734212Y-146708012D01*
X66597136Y-146502864D01*
X66391988Y-146365788D01*
X66375000Y-146362409D01*
X66375000Y-134237591D01*
X66391988Y-134234212D01*
X66597136Y-134097136D01*
X66734212Y-133891988D01*
X66782346Y-133650000D01*
X66782346Y-133150000D01*
X66734212Y-132908012D01*
X66597136Y-132702864D01*
X66391988Y-132565788D01*
X66375000Y-132562409D01*
X66375000Y-130775000D01*
X68493985Y-130775000D01*
X68525998Y-130807013D01*
X68810843Y-130925000D01*
X69119157Y-130925000D01*
X69404002Y-130807013D01*
X69622013Y-130589002D01*
X69740000Y-130304157D01*
X69740000Y-129995843D01*
X69622013Y-129710998D01*
X69404002Y-129492987D01*
X69119157Y-129375000D01*
X68810843Y-129375000D01*
X68525998Y-129492987D01*
X68493985Y-129525000D01*
X66375000Y-129525000D01*
X66375000Y-120420000D01*
X79267654Y-120420000D01*
X79267654Y-122120000D01*
X79296758Y-122266317D01*
X79379641Y-122390359D01*
X79503683Y-122473242D01*
X79650000Y-122502346D01*
X81350000Y-122502346D01*
X81496317Y-122473242D01*
X81620359Y-122390359D01*
X81703242Y-122266317D01*
X81732346Y-122120000D01*
X81732346Y-120420000D01*
X81703242Y-120273683D01*
X81620359Y-120149641D01*
X81496317Y-120066758D01*
X81350000Y-120037654D01*
X79650000Y-120037654D01*
X79503683Y-120066758D01*
X79379641Y-120149641D01*
X79296758Y-120273683D01*
X79267654Y-120420000D01*
X66375000Y-120420000D01*
X66375000Y-118730000D01*
X79251001Y-118730000D01*
X79346075Y-119207971D01*
X79616824Y-119613176D01*
X80022029Y-119883925D01*
X80379348Y-119955000D01*
X80620652Y-119955000D01*
X80977971Y-119883925D01*
X81383176Y-119613176D01*
X81653925Y-119207971D01*
X81748999Y-118730000D01*
X81653925Y-118252029D01*
X81383176Y-117846824D01*
X80977971Y-117576075D01*
X80620652Y-117505000D01*
X80379348Y-117505000D01*
X80022029Y-117576075D01*
X79616824Y-117846824D01*
X79346075Y-118252029D01*
X79251001Y-118730000D01*
X66375000Y-118730000D01*
X66375000Y-114156061D01*
X78315000Y-114156061D01*
X78315000Y-114543939D01*
X78463435Y-114902293D01*
X78737707Y-115176565D01*
X79096061Y-115325000D01*
X79483939Y-115325000D01*
X79842293Y-115176565D01*
X80116565Y-114902293D01*
X80265000Y-114543939D01*
X80265000Y-114156061D01*
X80116565Y-113797707D01*
X79842293Y-113523435D01*
X79483939Y-113375000D01*
X79096061Y-113375000D01*
X78737707Y-113523435D01*
X78463435Y-113797707D01*
X78315000Y-114156061D01*
X66375000Y-114156061D01*
X66375000Y-110600000D01*
X79867654Y-110600000D01*
X79867654Y-112100000D01*
X79896758Y-112246317D01*
X79979641Y-112370359D01*
X80103683Y-112453242D01*
X80250000Y-112482346D01*
X82250000Y-112482346D01*
X82396317Y-112453242D01*
X82520359Y-112370359D01*
X82603242Y-112246317D01*
X82632346Y-112100000D01*
X82632346Y-110600000D01*
X82603242Y-110453683D01*
X82520359Y-110329641D01*
X82396317Y-110246758D01*
X82250000Y-110217654D01*
X80250000Y-110217654D01*
X80103683Y-110246758D01*
X79979641Y-110329641D01*
X79896758Y-110453683D01*
X79867654Y-110600000D01*
X66375000Y-110600000D01*
X66375000Y-108350000D01*
X79852960Y-108350000D01*
X79940273Y-108788953D01*
X80188920Y-109161080D01*
X80561047Y-109409727D01*
X80889197Y-109475000D01*
X81610803Y-109475000D01*
X81938953Y-109409727D01*
X82311080Y-109161080D01*
X82559727Y-108788953D01*
X82647040Y-108350000D01*
X82559727Y-107911047D01*
X82311080Y-107538920D01*
X81938953Y-107290273D01*
X81610803Y-107225000D01*
X80889197Y-107225000D01*
X80561047Y-107290273D01*
X80188920Y-107538920D01*
X79940273Y-107911047D01*
X79852960Y-108350000D01*
X66375000Y-108350000D01*
X66375000Y-107505435D01*
X66484212Y-107341988D01*
X66532346Y-107100000D01*
X66532346Y-105600000D01*
X66484212Y-105358012D01*
X66375000Y-105194565D01*
X66375000Y-105156061D01*
X78315000Y-105156061D01*
X78315000Y-105543939D01*
X78463435Y-105902293D01*
X78737707Y-106176565D01*
X79096061Y-106325000D01*
X79483939Y-106325000D01*
X79842293Y-106176565D01*
X80116565Y-105902293D01*
X80265000Y-105543939D01*
X80265000Y-105156061D01*
X80116565Y-104797707D01*
X79842293Y-104523435D01*
X79483939Y-104375000D01*
X79096061Y-104375000D01*
X78737707Y-104523435D01*
X78463435Y-104797707D01*
X78315000Y-105156061D01*
X66375000Y-105156061D01*
X66375000Y-100425000D01*
X68593985Y-100425000D01*
X68625998Y-100457013D01*
X68910843Y-100575000D01*
X69219157Y-100575000D01*
X69504002Y-100457013D01*
X69722013Y-100239002D01*
X69840000Y-99954157D01*
X69840000Y-99645843D01*
X69722013Y-99360998D01*
X69504002Y-99142987D01*
X69219157Y-99025000D01*
X68910843Y-99025000D01*
X68625998Y-99142987D01*
X68593985Y-99175000D01*
X66375000Y-99175000D01*
X66375000Y-97200000D01*
X96125000Y-97200000D01*
X96125000Y-102200000D01*
X96134515Y-102247835D01*
X96161612Y-102288388D01*
X101161612Y-107288388D01*
X101202165Y-107315485D01*
X101250000Y-107325000D01*
X117594565Y-107325000D01*
X117758012Y-107434212D01*
X118000000Y-107482346D01*
X119500000Y-107482346D01*
X119741988Y-107434212D01*
X119905435Y-107325000D01*
X130000000Y-107325000D01*
X130047835Y-107315485D01*
X130088388Y-107288388D01*
X135088388Y-102288388D01*
X135115485Y-102247835D01*
X135125000Y-102200000D01*
X135125000Y-100325000D01*
X137343985Y-100325000D01*
X137375998Y-100357013D01*
X137660843Y-100475000D01*
X137969157Y-100475000D01*
X138254002Y-100357013D01*
X138472013Y-100139002D01*
X138590000Y-99854157D01*
X138590000Y-99545843D01*
X138472013Y-99260998D01*
X138254002Y-99042987D01*
X137969157Y-98925000D01*
X137660843Y-98925000D01*
X137375998Y-99042987D01*
X137343985Y-99075000D01*
X135125000Y-99075000D01*
X135125000Y-97200000D01*
X135115485Y-97152165D01*
X135088388Y-97111612D01*
X132462401Y-94485625D01*
X141800000Y-94485625D01*
X141800000Y-94714375D01*
X141887538Y-94925711D01*
X142049289Y-95087462D01*
X142260625Y-95175000D01*
X142489375Y-95175000D01*
X142700711Y-95087462D01*
X142713173Y-95075000D01*
X153678250Y-95075000D01*
X153900001Y-95296752D01*
X153900000Y-103761827D01*
X153887538Y-103774289D01*
X153800000Y-103985625D01*
X153800000Y-104214375D01*
X153887538Y-104425711D01*
X154049289Y-104587462D01*
X154260625Y-104675000D01*
X154300000Y-104675000D01*
X154300000Y-104714375D01*
X154387538Y-104925711D01*
X154549289Y-105087462D01*
X154760625Y-105175000D01*
X154800000Y-105175000D01*
X154800000Y-105214375D01*
X154887538Y-105425711D01*
X155049289Y-105587462D01*
X155139914Y-105625000D01*
X154713173Y-105625000D01*
X154700711Y-105612538D01*
X154489375Y-105525000D01*
X154260625Y-105525000D01*
X154049289Y-105612538D01*
X153887538Y-105774289D01*
X153800000Y-105985625D01*
X153800000Y-106214375D01*
X153887538Y-106425711D01*
X154049289Y-106587462D01*
X154260625Y-106675000D01*
X154300000Y-106675000D01*
X154300000Y-106714375D01*
X154387538Y-106925711D01*
X154486827Y-107025000D01*
X154260625Y-107025000D01*
X154049289Y-107112538D01*
X153887538Y-107274289D01*
X153800000Y-107485625D01*
X153800000Y-107714375D01*
X153887538Y-107925711D01*
X153900000Y-107938173D01*
X153900001Y-129311826D01*
X153887538Y-129324289D01*
X153800000Y-129535625D01*
X153800000Y-129764375D01*
X153887538Y-129975711D01*
X154049289Y-130137462D01*
X154260625Y-130225000D01*
X154300000Y-130225000D01*
X154300000Y-130264375D01*
X154387538Y-130475711D01*
X154549289Y-130637462D01*
X154760625Y-130725000D01*
X154989375Y-130725000D01*
X155200711Y-130637462D01*
X155362462Y-130475711D01*
X155450000Y-130264375D01*
X155450000Y-130035625D01*
X155362462Y-129824289D01*
X155350000Y-129811827D01*
X155350000Y-107879178D01*
X155450711Y-107837462D01*
X155612462Y-107675711D01*
X155700000Y-107464375D01*
X155700000Y-107235625D01*
X155633467Y-107075000D01*
X163036827Y-107075000D01*
X163049289Y-107087462D01*
X163260625Y-107175000D01*
X163489375Y-107175000D01*
X163700711Y-107087462D01*
X163862462Y-106925711D01*
X163950000Y-106714375D01*
X163950000Y-106575000D01*
X164063226Y-106575000D01*
X164110000Y-106584304D01*
X164156774Y-106575000D01*
X164156779Y-106575000D01*
X164295335Y-106547439D01*
X164452455Y-106442455D01*
X164478954Y-106402796D01*
X164701751Y-106180000D01*
X164719375Y-106180000D01*
X164875000Y-106115538D01*
X164875000Y-112194565D01*
X164765788Y-112358012D01*
X164717654Y-112600000D01*
X164717654Y-114100000D01*
X164765788Y-114341988D01*
X164875000Y-114505435D01*
X164875000Y-119375000D01*
X162656015Y-119375000D01*
X162624002Y-119342987D01*
X162339157Y-119225000D01*
X162030843Y-119225000D01*
X161745998Y-119342987D01*
X161527987Y-119560998D01*
X161410000Y-119845843D01*
X161410000Y-120154157D01*
X161527987Y-120439002D01*
X161745998Y-120657013D01*
X162030843Y-120775000D01*
X162339157Y-120775000D01*
X162624002Y-120657013D01*
X162656015Y-120625000D01*
X164875000Y-120625000D01*
X164875000Y-122500000D01*
X164884515Y-122547835D01*
X164911612Y-122588388D01*
X169911612Y-127588388D01*
X169952165Y-127615485D01*
X170000000Y-127625000D01*
X175000000Y-127625000D01*
X175047835Y-127615485D01*
X175088388Y-127588388D01*
X180088388Y-122588388D01*
X180115485Y-122547835D01*
X180125000Y-122500000D01*
X180125000Y-112600000D01*
X188467654Y-112600000D01*
X188467654Y-114100000D01*
X188515788Y-114341988D01*
X188625000Y-114505435D01*
X188625000Y-122500000D01*
X188634515Y-122547835D01*
X188661612Y-122588388D01*
X193661612Y-127588388D01*
X193702165Y-127615485D01*
X193750000Y-127625000D01*
X198750000Y-127625000D01*
X198797835Y-127615485D01*
X198838388Y-127588388D01*
X203838388Y-122588388D01*
X203865485Y-122547835D01*
X203875000Y-122500000D01*
X203875000Y-120420000D01*
X216767654Y-120420000D01*
X216767654Y-122120000D01*
X216796758Y-122266317D01*
X216879641Y-122390359D01*
X217003683Y-122473242D01*
X217150000Y-122502346D01*
X218850000Y-122502346D01*
X218996317Y-122473242D01*
X219120359Y-122390359D01*
X219203242Y-122266317D01*
X219232346Y-122120000D01*
X219232346Y-120420000D01*
X219203242Y-120273683D01*
X219120359Y-120149641D01*
X218996317Y-120066758D01*
X218850000Y-120037654D01*
X217150000Y-120037654D01*
X217003683Y-120066758D01*
X216879641Y-120149641D01*
X216796758Y-120273683D01*
X216767654Y-120420000D01*
X203875000Y-120420000D01*
X203875000Y-118730000D01*
X216751001Y-118730000D01*
X216846075Y-119207971D01*
X217116824Y-119613176D01*
X217522029Y-119883925D01*
X217879348Y-119955000D01*
X218120652Y-119955000D01*
X218477971Y-119883925D01*
X218883176Y-119613176D01*
X219153925Y-119207971D01*
X219248999Y-118730000D01*
X219153925Y-118252029D01*
X218883176Y-117846824D01*
X218477971Y-117576075D01*
X218120652Y-117505000D01*
X217879348Y-117505000D01*
X217522029Y-117576075D01*
X217116824Y-117846824D01*
X216846075Y-118252029D01*
X216751001Y-118730000D01*
X203875000Y-118730000D01*
X203875000Y-114156061D01*
X215815000Y-114156061D01*
X215815000Y-114543939D01*
X215963435Y-114902293D01*
X216237707Y-115176565D01*
X216596061Y-115325000D01*
X216983939Y-115325000D01*
X217342293Y-115176565D01*
X217616565Y-114902293D01*
X217765000Y-114543939D01*
X217765000Y-114156061D01*
X217616565Y-113797707D01*
X217342293Y-113523435D01*
X216983939Y-113375000D01*
X216596061Y-113375000D01*
X216237707Y-113523435D01*
X215963435Y-113797707D01*
X215815000Y-114156061D01*
X203875000Y-114156061D01*
X203875000Y-108350000D01*
X217352960Y-108350000D01*
X217440273Y-108788953D01*
X217688920Y-109161080D01*
X218061047Y-109409727D01*
X218389197Y-109475000D01*
X218453250Y-109475000D01*
X218828249Y-109850000D01*
X218460596Y-110217654D01*
X217750000Y-110217654D01*
X217603683Y-110246758D01*
X217479641Y-110329641D01*
X217396758Y-110453683D01*
X217367654Y-110600000D01*
X217367654Y-112100000D01*
X217396758Y-112246317D01*
X217479641Y-112370359D01*
X217603683Y-112453242D01*
X217750000Y-112482346D01*
X219750000Y-112482346D01*
X219896317Y-112453242D01*
X220020359Y-112370359D01*
X220103242Y-112246317D01*
X220132346Y-112100000D01*
X220132346Y-110600000D01*
X220127373Y-110575000D01*
X232111827Y-110575000D01*
X232124289Y-110587462D01*
X232335625Y-110675000D01*
X232564375Y-110675000D01*
X232775711Y-110587462D01*
X232937462Y-110425711D01*
X233025000Y-110214375D01*
X233025000Y-110175000D01*
X233064375Y-110175000D01*
X233275711Y-110087462D01*
X233437462Y-109925711D01*
X233525000Y-109714375D01*
X233525000Y-109485625D01*
X233437462Y-109274289D01*
X233275711Y-109112538D01*
X233064375Y-109025000D01*
X232835625Y-109025000D01*
X232624289Y-109112538D01*
X232611827Y-109125000D01*
X219835188Y-109125000D01*
X220059727Y-108788953D01*
X220147040Y-108350000D01*
X220059727Y-107911047D01*
X219811080Y-107538920D01*
X219438953Y-107290273D01*
X219110803Y-107225000D01*
X218389197Y-107225000D01*
X218061047Y-107290273D01*
X217688920Y-107538920D01*
X217440273Y-107911047D01*
X217352960Y-108350000D01*
X203875000Y-108350000D01*
X203875000Y-107505435D01*
X203984212Y-107341988D01*
X204032346Y-107100000D01*
X204032346Y-105600000D01*
X203984212Y-105358012D01*
X203875000Y-105194565D01*
X203875000Y-105156061D01*
X215815000Y-105156061D01*
X215815000Y-105543939D01*
X215963435Y-105902293D01*
X216237707Y-106176565D01*
X216596061Y-106325000D01*
X216983939Y-106325000D01*
X217342293Y-106176565D01*
X217616565Y-105902293D01*
X217765000Y-105543939D01*
X217765000Y-105156061D01*
X217616565Y-104797707D01*
X217342293Y-104523435D01*
X216983939Y-104375000D01*
X216596061Y-104375000D01*
X216237707Y-104523435D01*
X215963435Y-104797707D01*
X215815000Y-105156061D01*
X203875000Y-105156061D01*
X203875000Y-100970000D01*
X218251001Y-100970000D01*
X218346075Y-101447971D01*
X218616824Y-101853176D01*
X219022029Y-102123925D01*
X219379348Y-102195000D01*
X219620652Y-102195000D01*
X219977971Y-102123925D01*
X220383176Y-101853176D01*
X220653925Y-101447971D01*
X220748999Y-100970000D01*
X220653925Y-100492029D01*
X220383176Y-100086824D01*
X219977971Y-99816075D01*
X219620652Y-99745000D01*
X219379348Y-99745000D01*
X219022029Y-99816075D01*
X218616824Y-100086824D01*
X218346075Y-100492029D01*
X218251001Y-100970000D01*
X203875000Y-100970000D01*
X203875000Y-100325000D01*
X206093985Y-100325000D01*
X206125998Y-100357013D01*
X206410843Y-100475000D01*
X206719157Y-100475000D01*
X207004002Y-100357013D01*
X207222013Y-100139002D01*
X207340000Y-99854157D01*
X207340000Y-99545843D01*
X207222013Y-99260998D01*
X207004002Y-99042987D01*
X206719157Y-98925000D01*
X206410843Y-98925000D01*
X206125998Y-99042987D01*
X206093985Y-99075000D01*
X203875000Y-99075000D01*
X203875000Y-97580000D01*
X218267654Y-97580000D01*
X218267654Y-99280000D01*
X218296758Y-99426317D01*
X218379641Y-99550359D01*
X218503683Y-99633242D01*
X218650000Y-99662346D01*
X220350000Y-99662346D01*
X220496317Y-99633242D01*
X220620359Y-99550359D01*
X220703242Y-99426317D01*
X220732346Y-99280000D01*
X220732346Y-97580000D01*
X220703242Y-97433683D01*
X220620359Y-97309641D01*
X220496317Y-97226758D01*
X220350000Y-97197654D01*
X218650000Y-97197654D01*
X218503683Y-97226758D01*
X218379641Y-97309641D01*
X218296758Y-97433683D01*
X218267654Y-97580000D01*
X203875000Y-97580000D01*
X203875000Y-97200000D01*
X203865485Y-97152165D01*
X203838388Y-97111612D01*
X198838388Y-92111612D01*
X198797835Y-92084515D01*
X198750000Y-92075000D01*
X193750000Y-92075000D01*
X193702165Y-92084515D01*
X193661612Y-92111612D01*
X188661612Y-97111612D01*
X188634515Y-97152165D01*
X188625000Y-97200000D01*
X188625000Y-112194565D01*
X188515788Y-112358012D01*
X188467654Y-112600000D01*
X180125000Y-112600000D01*
X180125000Y-107505435D01*
X180234212Y-107341988D01*
X180282346Y-107100000D01*
X180282346Y-105600000D01*
X180234212Y-105358012D01*
X180125000Y-105194565D01*
X180125000Y-97200000D01*
X180115485Y-97152165D01*
X180088388Y-97111612D01*
X175088388Y-92111612D01*
X175047835Y-92084515D01*
X175000000Y-92075000D01*
X170000000Y-92075000D01*
X169952165Y-92084515D01*
X169911612Y-92111612D01*
X164911612Y-97111612D01*
X164884515Y-97152165D01*
X164875000Y-97200000D01*
X164875000Y-105094462D01*
X164719375Y-105030000D01*
X164490625Y-105030000D01*
X164279289Y-105117538D01*
X164117538Y-105279289D01*
X164030000Y-105490625D01*
X164030000Y-105508249D01*
X163913250Y-105625000D01*
X156450000Y-105625000D01*
X156450000Y-105485625D01*
X156362462Y-105274289D01*
X156350000Y-105261827D01*
X156350000Y-94796750D01*
X156471751Y-94675000D01*
X156489375Y-94675000D01*
X156700711Y-94587462D01*
X156862462Y-94425711D01*
X156950000Y-94214375D01*
X156950000Y-93985625D01*
X156862462Y-93774289D01*
X156700711Y-93612538D01*
X156489375Y-93525000D01*
X156260625Y-93525000D01*
X156049289Y-93612538D01*
X155887538Y-93774289D01*
X155875000Y-93804558D01*
X155862462Y-93774289D01*
X155700711Y-93612538D01*
X155489375Y-93525000D01*
X155260625Y-93525000D01*
X155049289Y-93612538D01*
X154887538Y-93774289D01*
X154838772Y-93892021D01*
X154743954Y-93797204D01*
X154717455Y-93757545D01*
X154560335Y-93652561D01*
X154421779Y-93625000D01*
X154421774Y-93625000D01*
X154375000Y-93615696D01*
X154328226Y-93625000D01*
X148713173Y-93625000D01*
X148700711Y-93612538D01*
X148489375Y-93525000D01*
X148260625Y-93525000D01*
X148049289Y-93612538D01*
X147887538Y-93774289D01*
X147800000Y-93985625D01*
X147800000Y-94125000D01*
X142713173Y-94125000D01*
X142700711Y-94112538D01*
X142489375Y-94025000D01*
X142260625Y-94025000D01*
X142049289Y-94112538D01*
X141887538Y-94274289D01*
X141800000Y-94485625D01*
X132462401Y-94485625D01*
X130088388Y-92111612D01*
X130047835Y-92084515D01*
X130000000Y-92075000D01*
X113655435Y-92075000D01*
X113491988Y-91965788D01*
X113250000Y-91917654D01*
X111750000Y-91917654D01*
X111508012Y-91965788D01*
X111344565Y-92075000D01*
X101250000Y-92075000D01*
X101202165Y-92084515D01*
X101161612Y-92111612D01*
X96161612Y-97111612D01*
X96134515Y-97152165D01*
X96125000Y-97200000D01*
X66375000Y-97200000D01*
X66375000Y-92508196D01*
X66456968Y-91885582D01*
X66694123Y-91313039D01*
X67071384Y-90821384D01*
X67555380Y-90450000D01*
X232444620Y-90450000D01*
X232928616Y-90821384D01*
X232928616Y-90821384D01*
G37*
X232928616Y-90821384D02*
X233305877Y-91313039D01*
X233543032Y-91885582D01*
X233625000Y-92508196D01*
X233625000Y-99075000D01*
X231406015Y-99075000D01*
X231374002Y-99042987D01*
X231089157Y-98925000D01*
X230780843Y-98925000D01*
X230495998Y-99042987D01*
X230277987Y-99260998D01*
X230160000Y-99545843D01*
X230160000Y-99854157D01*
X230277987Y-100139002D01*
X230495998Y-100357013D01*
X230780843Y-100475000D01*
X231089157Y-100475000D01*
X231374002Y-100357013D01*
X231406015Y-100325000D01*
X233625000Y-100325000D01*
X233625000Y-119375000D01*
X231406015Y-119375000D01*
X231374002Y-119342987D01*
X231089157Y-119225000D01*
X230780843Y-119225000D01*
X230495998Y-119342987D01*
X230277987Y-119560998D01*
X230160000Y-119845843D01*
X230160000Y-120154157D01*
X230277987Y-120439002D01*
X230495998Y-120657013D01*
X230780843Y-120775000D01*
X231089157Y-120775000D01*
X231374002Y-120657013D01*
X231406015Y-120625000D01*
X233625000Y-120625000D01*
X233625000Y-132494565D01*
X233515788Y-132658012D01*
X233467654Y-132900000D01*
X233467654Y-134400000D01*
X233515788Y-134641988D01*
X233625000Y-134805435D01*
X233625000Y-147491804D01*
X233543032Y-148114418D01*
X233305877Y-148686961D01*
X232928616Y-149178616D01*
X232444620Y-149550000D01*
X67555380Y-149550000D01*
X67071384Y-149178616D01*
X66694123Y-148686961D01*
X66456968Y-148114418D01*
X66442009Y-148000789D01*
X66597136Y-147897136D01*
X66734212Y-147691988D01*
X66782346Y-147450000D01*
X66782346Y-147344320D01*
X68300000Y-147344320D01*
X68324080Y-147465376D01*
X68384766Y-147770468D01*
X68384766Y-147770473D01*
X68400894Y-147809408D01*
X68451958Y-147932690D01*
X68451963Y-147932695D01*
X68668730Y-148257111D01*
X68668731Y-148257114D01*
X68708830Y-148297212D01*
X68792886Y-148381268D01*
X68792889Y-148381269D01*
X69117307Y-148598039D01*
X69117310Y-148598042D01*
X69181023Y-148624432D01*
X69279527Y-148665234D01*
X69279532Y-148665234D01*
X69574418Y-148723890D01*
X69574419Y-148723891D01*
X69705679Y-148750000D01*
X72794321Y-148750000D01*
X72925581Y-148723891D01*
X72925582Y-148723890D01*
X73220468Y-148665234D01*
X73220473Y-148665234D01*
X73289603Y-148636599D01*
X73382690Y-148598042D01*
X73382695Y-148598037D01*
X73707111Y-148381270D01*
X73707114Y-148381269D01*
X73791170Y-148297212D01*
X73831268Y-148257114D01*
X73831269Y-148257111D01*
X74048039Y-147932693D01*
X74048042Y-147932690D01*
X74092196Y-147826091D01*
X74115234Y-147770473D01*
X74115234Y-147770468D01*
X74173890Y-147475582D01*
X74173891Y-147475581D01*
X74200000Y-147344321D01*
X74200000Y-141570000D01*
X80651001Y-141570000D01*
X80746075Y-142047971D01*
X81016824Y-142453176D01*
X81422029Y-142723925D01*
X81779348Y-142795000D01*
X82020652Y-142795000D01*
X82377971Y-142723925D01*
X82783176Y-142453176D01*
X83053925Y-142047971D01*
X83054516Y-142045000D01*
X84563226Y-142045000D01*
X84610000Y-142054304D01*
X84656774Y-142045000D01*
X84656779Y-142045000D01*
X84795335Y-142017439D01*
X84952455Y-141912455D01*
X84978955Y-141872795D01*
X87577801Y-139273951D01*
X87617455Y-139247455D01*
X87643951Y-139207801D01*
X87643953Y-139207799D01*
X87722438Y-139090336D01*
X87722439Y-139090335D01*
X87750000Y-138951779D01*
X87750000Y-138951775D01*
X87759304Y-138905001D01*
X87750000Y-138858227D01*
X87750000Y-119845843D01*
X92660000Y-119845843D01*
X92660000Y-120154157D01*
X92777987Y-120439002D01*
X92995998Y-120657013D01*
X93280843Y-120775000D01*
X93589157Y-120775000D01*
X93874002Y-120657013D01*
X93906015Y-120625000D01*
X96125000Y-120625000D01*
X96125000Y-132494565D01*
X96015788Y-132658012D01*
X95967654Y-132900000D01*
X95967654Y-134400000D01*
X96015788Y-134641988D01*
X96125000Y-134805435D01*
X96125000Y-142800000D01*
X96134515Y-142847835D01*
X96161612Y-142888388D01*
X101161612Y-147888388D01*
X101202165Y-147915485D01*
X101250000Y-147925000D01*
X106250000Y-147925000D01*
X106297835Y-147915485D01*
X106338388Y-147888388D01*
X111338388Y-142888388D01*
X111365485Y-142847835D01*
X111375000Y-142800000D01*
X111375000Y-132900000D01*
X119717654Y-132900000D01*
X119717654Y-134400000D01*
X119765788Y-134641988D01*
X119875000Y-134805435D01*
X119875000Y-142800000D01*
X119884515Y-142847835D01*
X119911612Y-142888388D01*
X124911612Y-147888388D01*
X124952165Y-147915485D01*
X125000000Y-147925000D01*
X130000000Y-147925000D01*
X130047835Y-147915485D01*
X130088388Y-147888388D01*
X135088388Y-142888388D01*
X135115485Y-142847835D01*
X135125000Y-142800000D01*
X135125000Y-141570000D01*
X149501001Y-141570000D01*
X149596075Y-142047971D01*
X149866824Y-142453176D01*
X150272029Y-142723925D01*
X150629348Y-142795000D01*
X150870652Y-142795000D01*
X151227971Y-142723925D01*
X151633176Y-142453176D01*
X151903925Y-142047971D01*
X151998999Y-141570000D01*
X151903925Y-141092029D01*
X151633176Y-140686824D01*
X151227971Y-140416075D01*
X150870652Y-140345000D01*
X150629348Y-140345000D01*
X150272029Y-140416075D01*
X149866824Y-140686824D01*
X149596075Y-141092029D01*
X149501001Y-141570000D01*
X135125000Y-141570000D01*
X135125000Y-140925000D01*
X137343985Y-140925000D01*
X137375998Y-140957013D01*
X137660843Y-141075000D01*
X137969157Y-141075000D01*
X138254002Y-140957013D01*
X138472013Y-140739002D01*
X138590000Y-140454157D01*
X138590000Y-140145843D01*
X138472013Y-139860998D01*
X138254002Y-139642987D01*
X137969157Y-139525000D01*
X137660843Y-139525000D01*
X137375998Y-139642987D01*
X137343985Y-139675000D01*
X135125000Y-139675000D01*
X135125000Y-138180000D01*
X149517654Y-138180000D01*
X149517654Y-139880000D01*
X149546758Y-140026317D01*
X149629641Y-140150359D01*
X149753683Y-140233242D01*
X149900000Y-140262346D01*
X151600000Y-140262346D01*
X151746317Y-140233242D01*
X151870359Y-140150359D01*
X151953242Y-140026317D01*
X151982346Y-139880000D01*
X151982346Y-138180000D01*
X151953242Y-138033683D01*
X151870359Y-137909641D01*
X151746317Y-137826758D01*
X151611795Y-137800000D01*
X164875000Y-137800000D01*
X164875000Y-142800000D01*
X164884515Y-142847835D01*
X164911612Y-142888388D01*
X169911612Y-147888388D01*
X169952165Y-147915485D01*
X170000000Y-147925000D01*
X186344565Y-147925000D01*
X186508012Y-148034212D01*
X186750000Y-148082346D01*
X188250000Y-148082346D01*
X188491988Y-148034212D01*
X188655435Y-147925000D01*
X198750000Y-147925000D01*
X198797835Y-147915485D01*
X198838388Y-147888388D01*
X203838388Y-142888388D01*
X203865485Y-142847835D01*
X203875000Y-142800000D01*
X203875000Y-141570000D01*
X218251001Y-141570000D01*
X218346075Y-142047971D01*
X218616824Y-142453176D01*
X219022029Y-142723925D01*
X219379348Y-142795000D01*
X219620652Y-142795000D01*
X219977971Y-142723925D01*
X220383176Y-142453176D01*
X220653925Y-142047971D01*
X220748999Y-141570000D01*
X220653925Y-141092029D01*
X220383176Y-140686824D01*
X219977971Y-140416075D01*
X219620652Y-140345000D01*
X219379348Y-140345000D01*
X219022029Y-140416075D01*
X218616824Y-140686824D01*
X218346075Y-141092029D01*
X218251001Y-141570000D01*
X203875000Y-141570000D01*
X203875000Y-140925000D01*
X206093985Y-140925000D01*
X206125998Y-140957013D01*
X206410843Y-141075000D01*
X206719157Y-141075000D01*
X207004002Y-140957013D01*
X207222013Y-140739002D01*
X207340000Y-140454157D01*
X207340000Y-140145843D01*
X207222013Y-139860998D01*
X207004002Y-139642987D01*
X206719157Y-139525000D01*
X206410843Y-139525000D01*
X206125998Y-139642987D01*
X206093985Y-139675000D01*
X203875000Y-139675000D01*
X203875000Y-138180000D01*
X218267654Y-138180000D01*
X218267654Y-139880000D01*
X218296758Y-140026317D01*
X218379641Y-140150359D01*
X218503683Y-140233242D01*
X218650000Y-140262346D01*
X220350000Y-140262346D01*
X220496317Y-140233242D01*
X220620359Y-140150359D01*
X220703242Y-140026317D01*
X220732346Y-139880000D01*
X220732346Y-138180000D01*
X220703242Y-138033683D01*
X220620359Y-137909641D01*
X220496317Y-137826758D01*
X220350000Y-137797654D01*
X218650000Y-137797654D01*
X218503683Y-137826758D01*
X218379641Y-137909641D01*
X218296758Y-138033683D01*
X218267654Y-138180000D01*
X203875000Y-138180000D01*
X203875000Y-137800000D01*
X203865485Y-137752165D01*
X203838388Y-137711612D01*
X198838388Y-132711612D01*
X198797835Y-132684515D01*
X198750000Y-132675000D01*
X182405435Y-132675000D01*
X182241988Y-132565788D01*
X182000000Y-132517654D01*
X180500000Y-132517654D01*
X180258012Y-132565788D01*
X180094565Y-132675000D01*
X170000000Y-132675000D01*
X169952165Y-132684515D01*
X169911612Y-132711612D01*
X164911612Y-137711612D01*
X164884515Y-137752165D01*
X164875000Y-137800000D01*
X151611795Y-137800000D01*
X151600000Y-137797654D01*
X149900000Y-137797654D01*
X149753683Y-137826758D01*
X149629641Y-137909641D01*
X149546758Y-138033683D01*
X149517654Y-138180000D01*
X135125000Y-138180000D01*
X135125000Y-127805435D01*
X135234212Y-127641988D01*
X135282346Y-127400000D01*
X135282346Y-125900000D01*
X135234212Y-125658012D01*
X135125000Y-125494565D01*
X135125000Y-117500000D01*
X135115485Y-117452165D01*
X135088388Y-117411612D01*
X130088388Y-112411612D01*
X130047835Y-112384515D01*
X130000000Y-112375000D01*
X125000000Y-112375000D01*
X124952165Y-112384515D01*
X124911612Y-112411612D01*
X119911612Y-117411612D01*
X119884515Y-117452165D01*
X119875000Y-117500000D01*
X119875000Y-132494565D01*
X119765788Y-132658012D01*
X119717654Y-132900000D01*
X111375000Y-132900000D01*
X111375000Y-127805435D01*
X111484212Y-127641988D01*
X111532346Y-127400000D01*
X111532346Y-125900000D01*
X111484212Y-125658012D01*
X111375000Y-125494565D01*
X111375000Y-117500000D01*
X111365485Y-117452165D01*
X111338388Y-117411612D01*
X106338388Y-112411612D01*
X106297835Y-112384515D01*
X106250000Y-112375000D01*
X101250000Y-112375000D01*
X101202165Y-112384515D01*
X101161612Y-112411612D01*
X96161612Y-117411612D01*
X96134515Y-117452165D01*
X96125000Y-117500000D01*
X96125000Y-119375000D01*
X93906015Y-119375000D01*
X93874002Y-119342987D01*
X93589157Y-119225000D01*
X93280843Y-119225000D01*
X92995998Y-119342987D01*
X92777987Y-119560998D01*
X92660000Y-119845843D01*
X87750000Y-119845843D01*
X87750000Y-111925000D01*
X87889375Y-111925000D01*
X88100711Y-111837462D01*
X88262462Y-111675711D01*
X88341197Y-111485625D01*
X147050000Y-111485625D01*
X147050000Y-111714375D01*
X147137538Y-111925711D01*
X147150000Y-111938173D01*
X147150001Y-119598221D01*
X147140696Y-119645000D01*
X147177562Y-119830335D01*
X147213370Y-119883925D01*
X147282546Y-119987455D01*
X147322202Y-120013953D01*
X148017654Y-120709405D01*
X148017654Y-122120000D01*
X148046758Y-122266317D01*
X148129641Y-122390359D01*
X148253683Y-122473242D01*
X148400000Y-122502346D01*
X150100000Y-122502346D01*
X150246317Y-122473242D01*
X150370359Y-122390359D01*
X150400001Y-122345998D01*
X150400001Y-131811826D01*
X150387538Y-131824289D01*
X150300000Y-132035625D01*
X150300000Y-132264375D01*
X150387538Y-132475711D01*
X150549289Y-132637462D01*
X150760625Y-132725000D01*
X150989375Y-132725000D01*
X151200711Y-132637462D01*
X151362462Y-132475711D01*
X151450000Y-132264375D01*
X151450000Y-132225000D01*
X151489375Y-132225000D01*
X151700711Y-132137462D01*
X151862462Y-131975711D01*
X151950000Y-131764375D01*
X151950000Y-131535625D01*
X151862462Y-131324289D01*
X151850000Y-131311827D01*
X151850000Y-128725000D01*
X151989375Y-128725000D01*
X152200711Y-128637462D01*
X152362462Y-128475711D01*
X152450000Y-128264375D01*
X152450000Y-128035625D01*
X152362462Y-127824289D01*
X152350000Y-127811827D01*
X152350000Y-127725000D01*
X152489375Y-127725000D01*
X152700711Y-127637462D01*
X152862462Y-127475711D01*
X152950000Y-127264375D01*
X152950000Y-127035625D01*
X152862462Y-126824289D01*
X152850000Y-126811827D01*
X152850000Y-115938173D01*
X152862462Y-115925711D01*
X152950000Y-115714375D01*
X152950000Y-115485625D01*
X152862462Y-115274289D01*
X152700711Y-115112538D01*
X152489375Y-115025000D01*
X152450000Y-115025000D01*
X152450000Y-114985625D01*
X152362462Y-114774289D01*
X152200711Y-114612538D01*
X151989375Y-114525000D01*
X151850000Y-114525000D01*
X151850000Y-109438173D01*
X151862462Y-109425711D01*
X151950000Y-109214375D01*
X151950000Y-108985625D01*
X151862462Y-108774289D01*
X151700711Y-108612538D01*
X151489375Y-108525000D01*
X151350000Y-108525000D01*
X151350000Y-108438173D01*
X151362462Y-108425711D01*
X151450000Y-108214375D01*
X151450000Y-107985625D01*
X151362462Y-107774289D01*
X151200711Y-107612538D01*
X150989375Y-107525000D01*
X150760625Y-107525000D01*
X150549289Y-107612538D01*
X150387538Y-107774289D01*
X150300000Y-107985625D01*
X150300000Y-108214375D01*
X150387538Y-108425711D01*
X150400000Y-108438173D01*
X150400000Y-118246155D01*
X150133176Y-117846824D01*
X149727971Y-117576075D01*
X149370652Y-117505000D01*
X149129348Y-117505000D01*
X148772029Y-117576075D01*
X148769509Y-117577759D01*
X148600000Y-117408250D01*
X148600000Y-112438173D01*
X148612462Y-112425711D01*
X148700000Y-112214375D01*
X148700000Y-111985625D01*
X148612462Y-111774289D01*
X148450711Y-111612538D01*
X148239375Y-111525000D01*
X148200000Y-111525000D01*
X148200000Y-111485625D01*
X148112462Y-111274289D01*
X147950711Y-111112538D01*
X147739375Y-111025000D01*
X147510625Y-111025000D01*
X147299289Y-111112538D01*
X147137538Y-111274289D01*
X147050000Y-111485625D01*
X88341197Y-111485625D01*
X88350000Y-111464375D01*
X88350000Y-111425000D01*
X88389375Y-111425000D01*
X88600711Y-111337462D01*
X88762462Y-111175711D01*
X88850000Y-110964375D01*
X88850000Y-110735625D01*
X88762462Y-110524289D01*
X88750000Y-110511827D01*
X88750000Y-109485625D01*
X147050000Y-109485625D01*
X147050000Y-109714375D01*
X147137538Y-109925711D01*
X147299289Y-110087462D01*
X147510625Y-110175000D01*
X147550000Y-110175000D01*
X147550000Y-110214375D01*
X147637538Y-110425711D01*
X147799289Y-110587462D01*
X148010625Y-110675000D01*
X148239375Y-110675000D01*
X148450711Y-110587462D01*
X148612462Y-110425711D01*
X148700000Y-110214375D01*
X148700000Y-109985625D01*
X148612462Y-109774289D01*
X148600000Y-109761827D01*
X148600000Y-102546750D01*
X149637213Y-101509538D01*
X149866824Y-101853176D01*
X150272029Y-102123925D01*
X150629348Y-102195000D01*
X150870652Y-102195000D01*
X151227971Y-102123925D01*
X151633176Y-101853176D01*
X151903925Y-101447971D01*
X151998999Y-100970000D01*
X151903925Y-100492029D01*
X151633176Y-100086824D01*
X151227971Y-99816075D01*
X150870652Y-99745000D01*
X150629348Y-99745000D01*
X150272029Y-99816075D01*
X149866824Y-100086824D01*
X149596075Y-100492029D01*
X149595484Y-100495000D01*
X149551774Y-100495000D01*
X149505000Y-100485696D01*
X149458226Y-100495000D01*
X149458221Y-100495000D01*
X149331555Y-100520196D01*
X150189405Y-99662346D01*
X151600000Y-99662346D01*
X151746317Y-99633242D01*
X151870359Y-99550359D01*
X151953242Y-99426317D01*
X151982346Y-99280000D01*
X151982346Y-97580000D01*
X151953242Y-97433683D01*
X151870359Y-97309641D01*
X151746317Y-97226758D01*
X151600000Y-97197654D01*
X149900000Y-97197654D01*
X149753683Y-97226758D01*
X149629641Y-97309641D01*
X149546758Y-97433683D01*
X149517654Y-97580000D01*
X149517654Y-98990595D01*
X147322203Y-101186047D01*
X147282546Y-101212545D01*
X147256048Y-101252202D01*
X147256047Y-101252203D01*
X147242286Y-101272798D01*
X147177562Y-101369665D01*
X147150136Y-101507545D01*
X147140696Y-101555000D01*
X147150001Y-101601779D01*
X147150000Y-109261827D01*
X147137538Y-109274289D01*
X147050000Y-109485625D01*
X88750000Y-109485625D01*
X88750000Y-100146773D01*
X88759304Y-100099999D01*
X88750000Y-100053225D01*
X88750000Y-100053221D01*
X88722439Y-99914665D01*
X88682009Y-99854157D01*
X88643953Y-99797201D01*
X88643951Y-99797199D01*
X88617455Y-99757545D01*
X88577801Y-99731049D01*
X87073955Y-98227204D01*
X87047455Y-98187545D01*
X86890335Y-98082561D01*
X86751779Y-98055000D01*
X86751774Y-98055000D01*
X86705000Y-98045696D01*
X86658226Y-98055000D01*
X83232346Y-98055000D01*
X83232346Y-97680000D01*
X83203242Y-97533683D01*
X83120359Y-97409641D01*
X82996317Y-97326758D01*
X82850000Y-97297654D01*
X81150000Y-97297654D01*
X81003683Y-97326758D01*
X80879641Y-97409641D01*
X80796758Y-97533683D01*
X80767654Y-97680000D01*
X80767654Y-99380000D01*
X80796758Y-99526317D01*
X80879641Y-99650359D01*
X81003683Y-99733242D01*
X81150000Y-99762346D01*
X82850000Y-99762346D01*
X82996317Y-99733242D01*
X83120359Y-99650359D01*
X83203242Y-99526317D01*
X83232346Y-99380000D01*
X83232346Y-99005000D01*
X86508250Y-99005000D01*
X87800001Y-100296753D01*
X87800001Y-101203250D01*
X87363955Y-100767204D01*
X87337455Y-100727545D01*
X87180335Y-100622561D01*
X87041779Y-100595000D01*
X87041774Y-100595000D01*
X86995000Y-100585696D01*
X86948226Y-100595000D01*
X83154516Y-100595000D01*
X83153925Y-100592029D01*
X82883176Y-100186824D01*
X82477971Y-99916075D01*
X82120652Y-99845000D01*
X81879348Y-99845000D01*
X81522029Y-99916075D01*
X81116824Y-100186824D01*
X80846075Y-100592029D01*
X80751001Y-101070000D01*
X80846075Y-101547971D01*
X81116824Y-101953176D01*
X81522029Y-102223925D01*
X81879348Y-102295000D01*
X82120652Y-102295000D01*
X82477971Y-102223925D01*
X82883176Y-101953176D01*
X83153925Y-101547971D01*
X83154516Y-101545000D01*
X86798250Y-101545000D01*
X87300000Y-102046751D01*
X87300001Y-108614916D01*
X87262462Y-108524289D01*
X87100711Y-108362538D01*
X86889375Y-108275000D01*
X86850000Y-108275000D01*
X86850000Y-108235625D01*
X86762462Y-108024289D01*
X86600711Y-107862538D01*
X86389375Y-107775000D01*
X86160625Y-107775000D01*
X85949289Y-107862538D01*
X85787538Y-108024289D01*
X85700000Y-108235625D01*
X85700000Y-108464375D01*
X85787538Y-108675711D01*
X85800001Y-108688174D01*
X85800000Y-124731827D01*
X85787538Y-124744289D01*
X85700000Y-124955625D01*
X85700000Y-125184375D01*
X85787538Y-125395711D01*
X85949289Y-125557462D01*
X86160625Y-125645000D01*
X86300001Y-125645000D01*
X86300001Y-138458248D01*
X86203249Y-138555000D01*
X83132346Y-138555000D01*
X83132346Y-138180000D01*
X83103242Y-138033683D01*
X83020359Y-137909641D01*
X82896317Y-137826758D01*
X82750000Y-137797654D01*
X81050000Y-137797654D01*
X80903683Y-137826758D01*
X80779641Y-137909641D01*
X80696758Y-138033683D01*
X80667654Y-138180000D01*
X80667654Y-139880000D01*
X80696758Y-140026317D01*
X80779641Y-140150359D01*
X80903683Y-140233242D01*
X81050000Y-140262346D01*
X82750000Y-140262346D01*
X82896317Y-140233242D01*
X83020359Y-140150359D01*
X83103242Y-140026317D01*
X83132346Y-139880000D01*
X83132346Y-139505000D01*
X86003249Y-139505000D01*
X84413250Y-141095000D01*
X83054516Y-141095000D01*
X83053925Y-141092029D01*
X82783176Y-140686824D01*
X82377971Y-140416075D01*
X82020652Y-140345000D01*
X81779348Y-140345000D01*
X81422029Y-140416075D01*
X81016824Y-140686824D01*
X80746075Y-141092029D01*
X80651001Y-141570000D01*
X74200000Y-141570000D01*
X74200000Y-133255679D01*
X74173891Y-133124419D01*
X74173890Y-133124418D01*
X74115234Y-132829532D01*
X74115234Y-132829527D01*
X74066392Y-132711612D01*
X74048042Y-132667310D01*
X74048039Y-132667307D01*
X73831268Y-132342887D01*
X73831268Y-132342886D01*
X73752757Y-132264375D01*
X73707114Y-132218731D01*
X73707111Y-132218730D01*
X73382695Y-132001963D01*
X73382690Y-132001958D01*
X73287665Y-131962598D01*
X73220473Y-131934766D01*
X73220468Y-131934766D01*
X72925582Y-131876110D01*
X72925581Y-131876109D01*
X72794321Y-131850000D01*
X69705679Y-131850000D01*
X69574419Y-131876109D01*
X69574418Y-131876110D01*
X69279532Y-131934766D01*
X69279527Y-131934766D01*
X69198419Y-131968362D01*
X69117310Y-132001958D01*
X69117307Y-132001961D01*
X68792889Y-132218731D01*
X68792886Y-132218732D01*
X68747243Y-132264375D01*
X68668731Y-132342886D01*
X68668731Y-132342887D01*
X68451963Y-132667305D01*
X68451958Y-132667310D01*
X68417591Y-132750281D01*
X68384766Y-132829527D01*
X68384766Y-132829532D01*
X68317576Y-133167324D01*
X68300001Y-133255679D01*
X68300000Y-147344320D01*
X66782346Y-147344320D01*
X66782346Y-146950000D01*
X66734212Y-146708012D01*
X66597136Y-146502864D01*
X66391988Y-146365788D01*
X66375000Y-146362409D01*
X66375000Y-134237591D01*
X66391988Y-134234212D01*
X66597136Y-134097136D01*
X66734212Y-133891988D01*
X66782346Y-133650000D01*
X66782346Y-133150000D01*
X66734212Y-132908012D01*
X66597136Y-132702864D01*
X66391988Y-132565788D01*
X66375000Y-132562409D01*
X66375000Y-130775000D01*
X68493985Y-130775000D01*
X68525998Y-130807013D01*
X68810843Y-130925000D01*
X69119157Y-130925000D01*
X69404002Y-130807013D01*
X69622013Y-130589002D01*
X69740000Y-130304157D01*
X69740000Y-129995843D01*
X69622013Y-129710998D01*
X69404002Y-129492987D01*
X69119157Y-129375000D01*
X68810843Y-129375000D01*
X68525998Y-129492987D01*
X68493985Y-129525000D01*
X66375000Y-129525000D01*
X66375000Y-120420000D01*
X79267654Y-120420000D01*
X79267654Y-122120000D01*
X79296758Y-122266317D01*
X79379641Y-122390359D01*
X79503683Y-122473242D01*
X79650000Y-122502346D01*
X81350000Y-122502346D01*
X81496317Y-122473242D01*
X81620359Y-122390359D01*
X81703242Y-122266317D01*
X81732346Y-122120000D01*
X81732346Y-120420000D01*
X81703242Y-120273683D01*
X81620359Y-120149641D01*
X81496317Y-120066758D01*
X81350000Y-120037654D01*
X79650000Y-120037654D01*
X79503683Y-120066758D01*
X79379641Y-120149641D01*
X79296758Y-120273683D01*
X79267654Y-120420000D01*
X66375000Y-120420000D01*
X66375000Y-118730000D01*
X79251001Y-118730000D01*
X79346075Y-119207971D01*
X79616824Y-119613176D01*
X80022029Y-119883925D01*
X80379348Y-119955000D01*
X80620652Y-119955000D01*
X80977971Y-119883925D01*
X81383176Y-119613176D01*
X81653925Y-119207971D01*
X81748999Y-118730000D01*
X81653925Y-118252029D01*
X81383176Y-117846824D01*
X80977971Y-117576075D01*
X80620652Y-117505000D01*
X80379348Y-117505000D01*
X80022029Y-117576075D01*
X79616824Y-117846824D01*
X79346075Y-118252029D01*
X79251001Y-118730000D01*
X66375000Y-118730000D01*
X66375000Y-114156061D01*
X78315000Y-114156061D01*
X78315000Y-114543939D01*
X78463435Y-114902293D01*
X78737707Y-115176565D01*
X79096061Y-115325000D01*
X79483939Y-115325000D01*
X79842293Y-115176565D01*
X80116565Y-114902293D01*
X80265000Y-114543939D01*
X80265000Y-114156061D01*
X80116565Y-113797707D01*
X79842293Y-113523435D01*
X79483939Y-113375000D01*
X79096061Y-113375000D01*
X78737707Y-113523435D01*
X78463435Y-113797707D01*
X78315000Y-114156061D01*
X66375000Y-114156061D01*
X66375000Y-110600000D01*
X79867654Y-110600000D01*
X79867654Y-112100000D01*
X79896758Y-112246317D01*
X79979641Y-112370359D01*
X80103683Y-112453242D01*
X80250000Y-112482346D01*
X82250000Y-112482346D01*
X82396317Y-112453242D01*
X82520359Y-112370359D01*
X82603242Y-112246317D01*
X82632346Y-112100000D01*
X82632346Y-110600000D01*
X82603242Y-110453683D01*
X82520359Y-110329641D01*
X82396317Y-110246758D01*
X82250000Y-110217654D01*
X80250000Y-110217654D01*
X80103683Y-110246758D01*
X79979641Y-110329641D01*
X79896758Y-110453683D01*
X79867654Y-110600000D01*
X66375000Y-110600000D01*
X66375000Y-108350000D01*
X79852960Y-108350000D01*
X79940273Y-108788953D01*
X80188920Y-109161080D01*
X80561047Y-109409727D01*
X80889197Y-109475000D01*
X81610803Y-109475000D01*
X81938953Y-109409727D01*
X82311080Y-109161080D01*
X82559727Y-108788953D01*
X82647040Y-108350000D01*
X82559727Y-107911047D01*
X82311080Y-107538920D01*
X81938953Y-107290273D01*
X81610803Y-107225000D01*
X80889197Y-107225000D01*
X80561047Y-107290273D01*
X80188920Y-107538920D01*
X79940273Y-107911047D01*
X79852960Y-108350000D01*
X66375000Y-108350000D01*
X66375000Y-107505435D01*
X66484212Y-107341988D01*
X66532346Y-107100000D01*
X66532346Y-105600000D01*
X66484212Y-105358012D01*
X66375000Y-105194565D01*
X66375000Y-105156061D01*
X78315000Y-105156061D01*
X78315000Y-105543939D01*
X78463435Y-105902293D01*
X78737707Y-106176565D01*
X79096061Y-106325000D01*
X79483939Y-106325000D01*
X79842293Y-106176565D01*
X80116565Y-105902293D01*
X80265000Y-105543939D01*
X80265000Y-105156061D01*
X80116565Y-104797707D01*
X79842293Y-104523435D01*
X79483939Y-104375000D01*
X79096061Y-104375000D01*
X78737707Y-104523435D01*
X78463435Y-104797707D01*
X78315000Y-105156061D01*
X66375000Y-105156061D01*
X66375000Y-100425000D01*
X68593985Y-100425000D01*
X68625998Y-100457013D01*
X68910843Y-100575000D01*
X69219157Y-100575000D01*
X69504002Y-100457013D01*
X69722013Y-100239002D01*
X69840000Y-99954157D01*
X69840000Y-99645843D01*
X69722013Y-99360998D01*
X69504002Y-99142987D01*
X69219157Y-99025000D01*
X68910843Y-99025000D01*
X68625998Y-99142987D01*
X68593985Y-99175000D01*
X66375000Y-99175000D01*
X66375000Y-97200000D01*
X96125000Y-97200000D01*
X96125000Y-102200000D01*
X96134515Y-102247835D01*
X96161612Y-102288388D01*
X101161612Y-107288388D01*
X101202165Y-107315485D01*
X101250000Y-107325000D01*
X117594565Y-107325000D01*
X117758012Y-107434212D01*
X118000000Y-107482346D01*
X119500000Y-107482346D01*
X119741988Y-107434212D01*
X119905435Y-107325000D01*
X130000000Y-107325000D01*
X130047835Y-107315485D01*
X130088388Y-107288388D01*
X135088388Y-102288388D01*
X135115485Y-102247835D01*
X135125000Y-102200000D01*
X135125000Y-100325000D01*
X137343985Y-100325000D01*
X137375998Y-100357013D01*
X137660843Y-100475000D01*
X137969157Y-100475000D01*
X138254002Y-100357013D01*
X138472013Y-100139002D01*
X138590000Y-99854157D01*
X138590000Y-99545843D01*
X138472013Y-99260998D01*
X138254002Y-99042987D01*
X137969157Y-98925000D01*
X137660843Y-98925000D01*
X137375998Y-99042987D01*
X137343985Y-99075000D01*
X135125000Y-99075000D01*
X135125000Y-97200000D01*
X135115485Y-97152165D01*
X135088388Y-97111612D01*
X132462401Y-94485625D01*
X141800000Y-94485625D01*
X141800000Y-94714375D01*
X141887538Y-94925711D01*
X142049289Y-95087462D01*
X142260625Y-95175000D01*
X142489375Y-95175000D01*
X142700711Y-95087462D01*
X142713173Y-95075000D01*
X153678250Y-95075000D01*
X153900001Y-95296752D01*
X153900000Y-103761827D01*
X153887538Y-103774289D01*
X153800000Y-103985625D01*
X153800000Y-104214375D01*
X153887538Y-104425711D01*
X154049289Y-104587462D01*
X154260625Y-104675000D01*
X154300000Y-104675000D01*
X154300000Y-104714375D01*
X154387538Y-104925711D01*
X154549289Y-105087462D01*
X154760625Y-105175000D01*
X154800000Y-105175000D01*
X154800000Y-105214375D01*
X154887538Y-105425711D01*
X155049289Y-105587462D01*
X155139914Y-105625000D01*
X154713173Y-105625000D01*
X154700711Y-105612538D01*
X154489375Y-105525000D01*
X154260625Y-105525000D01*
X154049289Y-105612538D01*
X153887538Y-105774289D01*
X153800000Y-105985625D01*
X153800000Y-106214375D01*
X153887538Y-106425711D01*
X154049289Y-106587462D01*
X154260625Y-106675000D01*
X154300000Y-106675000D01*
X154300000Y-106714375D01*
X154387538Y-106925711D01*
X154486827Y-107025000D01*
X154260625Y-107025000D01*
X154049289Y-107112538D01*
X153887538Y-107274289D01*
X153800000Y-107485625D01*
X153800000Y-107714375D01*
X153887538Y-107925711D01*
X153900000Y-107938173D01*
X153900001Y-129311826D01*
X153887538Y-129324289D01*
X153800000Y-129535625D01*
X153800000Y-129764375D01*
X153887538Y-129975711D01*
X154049289Y-130137462D01*
X154260625Y-130225000D01*
X154300000Y-130225000D01*
X154300000Y-130264375D01*
X154387538Y-130475711D01*
X154549289Y-130637462D01*
X154760625Y-130725000D01*
X154989375Y-130725000D01*
X155200711Y-130637462D01*
X155362462Y-130475711D01*
X155450000Y-130264375D01*
X155450000Y-130035625D01*
X155362462Y-129824289D01*
X155350000Y-129811827D01*
X155350000Y-107879178D01*
X155450711Y-107837462D01*
X155612462Y-107675711D01*
X155700000Y-107464375D01*
X155700000Y-107235625D01*
X155633467Y-107075000D01*
X163036827Y-107075000D01*
X163049289Y-107087462D01*
X163260625Y-107175000D01*
X163489375Y-107175000D01*
X163700711Y-107087462D01*
X163862462Y-106925711D01*
X163950000Y-106714375D01*
X163950000Y-106575000D01*
X164063226Y-106575000D01*
X164110000Y-106584304D01*
X164156774Y-106575000D01*
X164156779Y-106575000D01*
X164295335Y-106547439D01*
X164452455Y-106442455D01*
X164478954Y-106402796D01*
X164701751Y-106180000D01*
X164719375Y-106180000D01*
X164875000Y-106115538D01*
X164875000Y-112194565D01*
X164765788Y-112358012D01*
X164717654Y-112600000D01*
X164717654Y-114100000D01*
X164765788Y-114341988D01*
X164875000Y-114505435D01*
X164875000Y-119375000D01*
X162656015Y-119375000D01*
X162624002Y-119342987D01*
X162339157Y-119225000D01*
X162030843Y-119225000D01*
X161745998Y-119342987D01*
X161527987Y-119560998D01*
X161410000Y-119845843D01*
X161410000Y-120154157D01*
X161527987Y-120439002D01*
X161745998Y-120657013D01*
X162030843Y-120775000D01*
X162339157Y-120775000D01*
X162624002Y-120657013D01*
X162656015Y-120625000D01*
X164875000Y-120625000D01*
X164875000Y-122500000D01*
X164884515Y-122547835D01*
X164911612Y-122588388D01*
X169911612Y-127588388D01*
X169952165Y-127615485D01*
X170000000Y-127625000D01*
X175000000Y-127625000D01*
X175047835Y-127615485D01*
X175088388Y-127588388D01*
X180088388Y-122588388D01*
X180115485Y-122547835D01*
X180125000Y-122500000D01*
X180125000Y-112600000D01*
X188467654Y-112600000D01*
X188467654Y-114100000D01*
X188515788Y-114341988D01*
X188625000Y-114505435D01*
X188625000Y-122500000D01*
X188634515Y-122547835D01*
X188661612Y-122588388D01*
X193661612Y-127588388D01*
X193702165Y-127615485D01*
X193750000Y-127625000D01*
X198750000Y-127625000D01*
X198797835Y-127615485D01*
X198838388Y-127588388D01*
X203838388Y-122588388D01*
X203865485Y-122547835D01*
X203875000Y-122500000D01*
X203875000Y-120420000D01*
X216767654Y-120420000D01*
X216767654Y-122120000D01*
X216796758Y-122266317D01*
X216879641Y-122390359D01*
X217003683Y-122473242D01*
X217150000Y-122502346D01*
X218850000Y-122502346D01*
X218996317Y-122473242D01*
X219120359Y-122390359D01*
X219203242Y-122266317D01*
X219232346Y-122120000D01*
X219232346Y-120420000D01*
X219203242Y-120273683D01*
X219120359Y-120149641D01*
X218996317Y-120066758D01*
X218850000Y-120037654D01*
X217150000Y-120037654D01*
X217003683Y-120066758D01*
X216879641Y-120149641D01*
X216796758Y-120273683D01*
X216767654Y-120420000D01*
X203875000Y-120420000D01*
X203875000Y-118730000D01*
X216751001Y-118730000D01*
X216846075Y-119207971D01*
X217116824Y-119613176D01*
X217522029Y-119883925D01*
X217879348Y-119955000D01*
X218120652Y-119955000D01*
X218477971Y-119883925D01*
X218883176Y-119613176D01*
X219153925Y-119207971D01*
X219248999Y-118730000D01*
X219153925Y-118252029D01*
X218883176Y-117846824D01*
X218477971Y-117576075D01*
X218120652Y-117505000D01*
X217879348Y-117505000D01*
X217522029Y-117576075D01*
X217116824Y-117846824D01*
X216846075Y-118252029D01*
X216751001Y-118730000D01*
X203875000Y-118730000D01*
X203875000Y-114156061D01*
X215815000Y-114156061D01*
X215815000Y-114543939D01*
X215963435Y-114902293D01*
X216237707Y-115176565D01*
X216596061Y-115325000D01*
X216983939Y-115325000D01*
X217342293Y-115176565D01*
X217616565Y-114902293D01*
X217765000Y-114543939D01*
X217765000Y-114156061D01*
X217616565Y-113797707D01*
X217342293Y-113523435D01*
X216983939Y-113375000D01*
X216596061Y-113375000D01*
X216237707Y-113523435D01*
X215963435Y-113797707D01*
X215815000Y-114156061D01*
X203875000Y-114156061D01*
X203875000Y-108350000D01*
X217352960Y-108350000D01*
X217440273Y-108788953D01*
X217688920Y-109161080D01*
X218061047Y-109409727D01*
X218389197Y-109475000D01*
X218453250Y-109475000D01*
X218828249Y-109850000D01*
X218460596Y-110217654D01*
X217750000Y-110217654D01*
X217603683Y-110246758D01*
X217479641Y-110329641D01*
X217396758Y-110453683D01*
X217367654Y-110600000D01*
X217367654Y-112100000D01*
X217396758Y-112246317D01*
X217479641Y-112370359D01*
X217603683Y-112453242D01*
X217750000Y-112482346D01*
X219750000Y-112482346D01*
X219896317Y-112453242D01*
X220020359Y-112370359D01*
X220103242Y-112246317D01*
X220132346Y-112100000D01*
X220132346Y-110600000D01*
X220127373Y-110575000D01*
X232111827Y-110575000D01*
X232124289Y-110587462D01*
X232335625Y-110675000D01*
X232564375Y-110675000D01*
X232775711Y-110587462D01*
X232937462Y-110425711D01*
X233025000Y-110214375D01*
X233025000Y-110175000D01*
X233064375Y-110175000D01*
X233275711Y-110087462D01*
X233437462Y-109925711D01*
X233525000Y-109714375D01*
X233525000Y-109485625D01*
X233437462Y-109274289D01*
X233275711Y-109112538D01*
X233064375Y-109025000D01*
X232835625Y-109025000D01*
X232624289Y-109112538D01*
X232611827Y-109125000D01*
X219835188Y-109125000D01*
X220059727Y-108788953D01*
X220147040Y-108350000D01*
X220059727Y-107911047D01*
X219811080Y-107538920D01*
X219438953Y-107290273D01*
X219110803Y-107225000D01*
X218389197Y-107225000D01*
X218061047Y-107290273D01*
X217688920Y-107538920D01*
X217440273Y-107911047D01*
X217352960Y-108350000D01*
X203875000Y-108350000D01*
X203875000Y-107505435D01*
X203984212Y-107341988D01*
X204032346Y-107100000D01*
X204032346Y-105600000D01*
X203984212Y-105358012D01*
X203875000Y-105194565D01*
X203875000Y-105156061D01*
X215815000Y-105156061D01*
X215815000Y-105543939D01*
X215963435Y-105902293D01*
X216237707Y-106176565D01*
X216596061Y-106325000D01*
X216983939Y-106325000D01*
X217342293Y-106176565D01*
X217616565Y-105902293D01*
X217765000Y-105543939D01*
X217765000Y-105156061D01*
X217616565Y-104797707D01*
X217342293Y-104523435D01*
X216983939Y-104375000D01*
X216596061Y-104375000D01*
X216237707Y-104523435D01*
X215963435Y-104797707D01*
X215815000Y-105156061D01*
X203875000Y-105156061D01*
X203875000Y-100970000D01*
X218251001Y-100970000D01*
X218346075Y-101447971D01*
X218616824Y-101853176D01*
X219022029Y-102123925D01*
X219379348Y-102195000D01*
X219620652Y-102195000D01*
X219977971Y-102123925D01*
X220383176Y-101853176D01*
X220653925Y-101447971D01*
X220748999Y-100970000D01*
X220653925Y-100492029D01*
X220383176Y-100086824D01*
X219977971Y-99816075D01*
X219620652Y-99745000D01*
X219379348Y-99745000D01*
X219022029Y-99816075D01*
X218616824Y-100086824D01*
X218346075Y-100492029D01*
X218251001Y-100970000D01*
X203875000Y-100970000D01*
X203875000Y-100325000D01*
X206093985Y-100325000D01*
X206125998Y-100357013D01*
X206410843Y-100475000D01*
X206719157Y-100475000D01*
X207004002Y-100357013D01*
X207222013Y-100139002D01*
X207340000Y-99854157D01*
X207340000Y-99545843D01*
X207222013Y-99260998D01*
X207004002Y-99042987D01*
X206719157Y-98925000D01*
X206410843Y-98925000D01*
X206125998Y-99042987D01*
X206093985Y-99075000D01*
X203875000Y-99075000D01*
X203875000Y-97580000D01*
X218267654Y-97580000D01*
X218267654Y-99280000D01*
X218296758Y-99426317D01*
X218379641Y-99550359D01*
X218503683Y-99633242D01*
X218650000Y-99662346D01*
X220350000Y-99662346D01*
X220496317Y-99633242D01*
X220620359Y-99550359D01*
X220703242Y-99426317D01*
X220732346Y-99280000D01*
X220732346Y-97580000D01*
X220703242Y-97433683D01*
X220620359Y-97309641D01*
X220496317Y-97226758D01*
X220350000Y-97197654D01*
X218650000Y-97197654D01*
X218503683Y-97226758D01*
X218379641Y-97309641D01*
X218296758Y-97433683D01*
X218267654Y-97580000D01*
X203875000Y-97580000D01*
X203875000Y-97200000D01*
X203865485Y-97152165D01*
X203838388Y-97111612D01*
X198838388Y-92111612D01*
X198797835Y-92084515D01*
X198750000Y-92075000D01*
X193750000Y-92075000D01*
X193702165Y-92084515D01*
X193661612Y-92111612D01*
X188661612Y-97111612D01*
X188634515Y-97152165D01*
X188625000Y-97200000D01*
X188625000Y-112194565D01*
X188515788Y-112358012D01*
X188467654Y-112600000D01*
X180125000Y-112600000D01*
X180125000Y-107505435D01*
X180234212Y-107341988D01*
X180282346Y-107100000D01*
X180282346Y-105600000D01*
X180234212Y-105358012D01*
X180125000Y-105194565D01*
X180125000Y-97200000D01*
X180115485Y-97152165D01*
X180088388Y-97111612D01*
X175088388Y-92111612D01*
X175047835Y-92084515D01*
X175000000Y-92075000D01*
X170000000Y-92075000D01*
X169952165Y-92084515D01*
X169911612Y-92111612D01*
X164911612Y-97111612D01*
X164884515Y-97152165D01*
X164875000Y-97200000D01*
X164875000Y-105094462D01*
X164719375Y-105030000D01*
X164490625Y-105030000D01*
X164279289Y-105117538D01*
X164117538Y-105279289D01*
X164030000Y-105490625D01*
X164030000Y-105508249D01*
X163913250Y-105625000D01*
X156450000Y-105625000D01*
X156450000Y-105485625D01*
X156362462Y-105274289D01*
X156350000Y-105261827D01*
X156350000Y-94796750D01*
X156471751Y-94675000D01*
X156489375Y-94675000D01*
X156700711Y-94587462D01*
X156862462Y-94425711D01*
X156950000Y-94214375D01*
X156950000Y-93985625D01*
X156862462Y-93774289D01*
X156700711Y-93612538D01*
X156489375Y-93525000D01*
X156260625Y-93525000D01*
X156049289Y-93612538D01*
X155887538Y-93774289D01*
X155875000Y-93804558D01*
X155862462Y-93774289D01*
X155700711Y-93612538D01*
X155489375Y-93525000D01*
X155260625Y-93525000D01*
X155049289Y-93612538D01*
X154887538Y-93774289D01*
X154838772Y-93892021D01*
X154743954Y-93797204D01*
X154717455Y-93757545D01*
X154560335Y-93652561D01*
X154421779Y-93625000D01*
X154421774Y-93625000D01*
X154375000Y-93615696D01*
X154328226Y-93625000D01*
X148713173Y-93625000D01*
X148700711Y-93612538D01*
X148489375Y-93525000D01*
X148260625Y-93525000D01*
X148049289Y-93612538D01*
X147887538Y-93774289D01*
X147800000Y-93985625D01*
X147800000Y-94125000D01*
X142713173Y-94125000D01*
X142700711Y-94112538D01*
X142489375Y-94025000D01*
X142260625Y-94025000D01*
X142049289Y-94112538D01*
X141887538Y-94274289D01*
X141800000Y-94485625D01*
X132462401Y-94485625D01*
X130088388Y-92111612D01*
X130047835Y-92084515D01*
X130000000Y-92075000D01*
X113655435Y-92075000D01*
X113491988Y-91965788D01*
X113250000Y-91917654D01*
X111750000Y-91917654D01*
X111508012Y-91965788D01*
X111344565Y-92075000D01*
X101250000Y-92075000D01*
X101202165Y-92084515D01*
X101161612Y-92111612D01*
X96161612Y-97111612D01*
X96134515Y-97152165D01*
X96125000Y-97200000D01*
X66375000Y-97200000D01*
X66375000Y-92508196D01*
X66456968Y-91885582D01*
X66694123Y-91313039D01*
X67071384Y-90821384D01*
X67555380Y-90450000D01*
X232444620Y-90450000D01*
X232928616Y-90821384D01*
M02*
