%TF.GenerationSoftware,KiCad,Pcbnew,(5.0.0-rc2-dev-632-g76d3b6f04)*%
%TF.CreationDate,2018-06-22T20:28:34+02:00*%
%TF.ProjectId,CellsBoard,43656C6C73426F6172642E6B69636164,rev?*%
%TF.SameCoordinates,Original*%
%TF.FileFunction,Soldermask,Bot*%
%TF.FilePolarity,Negative*%
%FSLAX46Y46*%
G04 Gerber Fmt 4.6, Leading zero omitted, Abs format (unit mm)*
G04 Created by KiCad (PCBNEW (5.0.0-rc2-dev-632-g76d3b6f04)) date 06/22/18 20:28:34*
%MOMM*%
%LPD*%
G01*
G04 APERTURE LIST*
%ADD10C,0.150000*%
%ADD11C,11.000000*%
%ADD12C,0.900000*%
%ADD13C,1.000000*%
%ADD14O,2.000000X1.500000*%
%ADD15R,2.000000X1.500000*%
%ADD16C,1.200000*%
%ADD17O,1.700000X1.700000*%
%ADD18R,1.700000X1.700000*%
G04 APERTURE END LIST*
D10*
X69750000Y-132300000D02*
X72750000Y-132300000D01*
X68750000Y-147300000D02*
X68750000Y-133300000D01*
X72750000Y-148300000D02*
X69750000Y-148300000D01*
X73750000Y-133300000D02*
X73750000Y-147300000D01*
X69750000Y-148300000D02*
G75*
G02X68750000Y-147300000I0J1000000D01*
G01*
X68750000Y-133300000D02*
G75*
G02X69750000Y-132300000I1000000J0D01*
G01*
X72750000Y-132300000D02*
G75*
G02X73750000Y-133300000I0J-1000000D01*
G01*
X73750000Y-147300000D02*
G75*
G02X72750000Y-148300000I-1000000J0D01*
G01*
X250000000Y-90000000D02*
X52500000Y-90000000D01*
X250000000Y-90000000D02*
G75*
G02X252500000Y-92500000I0J-2500000D01*
G01*
X252500000Y-147500000D02*
X252500000Y-92500000D01*
X252500000Y-147500000D02*
G75*
G02X250000000Y-150000000I-2500000J0D01*
G01*
X52500000Y-150000000D02*
X250000000Y-150000000D01*
X52500000Y-150000000D02*
G75*
G02X50000000Y-147500000I0J2500000D01*
G01*
X50000000Y-92500000D02*
X50000000Y-147500000D01*
X50000000Y-92500000D02*
G75*
G02X52500000Y-90000000I2500000J0D01*
G01*
D11*
X103750000Y-99700000D03*
D12*
X107875000Y-99700000D03*
X106676815Y-102626815D03*
X103750000Y-103825000D03*
X100823185Y-102626815D03*
X99625000Y-99700000D03*
X100823185Y-96773185D03*
X103750000Y-95575000D03*
X106676815Y-96773185D03*
X131625000Y-99700000D03*
X123375000Y-99700000D03*
X127500000Y-103825000D03*
X124573185Y-96773185D03*
X130426815Y-96773185D03*
X130426815Y-102626815D03*
X127500000Y-95575000D03*
X124573185Y-102626815D03*
D11*
X127500000Y-99700000D03*
D10*
G36*
X113274504Y-92301204D02*
X113298773Y-92304804D01*
X113322571Y-92310765D01*
X113345671Y-92319030D01*
X113367849Y-92329520D01*
X113388893Y-92342133D01*
X113408598Y-92356747D01*
X113426777Y-92373223D01*
X113443253Y-92391402D01*
X113457867Y-92411107D01*
X113470480Y-92432151D01*
X113480970Y-92454329D01*
X113489235Y-92477429D01*
X113495196Y-92501227D01*
X113498796Y-92525496D01*
X113500000Y-92550000D01*
X113500000Y-93050000D01*
X113498796Y-93074504D01*
X113495196Y-93098773D01*
X113489235Y-93122571D01*
X113480970Y-93145671D01*
X113470480Y-93167849D01*
X113457867Y-93188893D01*
X113443253Y-93208598D01*
X113426777Y-93226777D01*
X113408598Y-93243253D01*
X113388893Y-93257867D01*
X113367849Y-93270480D01*
X113345671Y-93280970D01*
X113322571Y-93289235D01*
X113298773Y-93295196D01*
X113274504Y-93298796D01*
X113250000Y-93300000D01*
X111750000Y-93300000D01*
X111725496Y-93298796D01*
X111701227Y-93295196D01*
X111677429Y-93289235D01*
X111654329Y-93280970D01*
X111632151Y-93270480D01*
X111611107Y-93257867D01*
X111591402Y-93243253D01*
X111573223Y-93226777D01*
X111556747Y-93208598D01*
X111542133Y-93188893D01*
X111529520Y-93167849D01*
X111519030Y-93145671D01*
X111510765Y-93122571D01*
X111504804Y-93098773D01*
X111501204Y-93074504D01*
X111500000Y-93050000D01*
X111500000Y-92550000D01*
X111501204Y-92525496D01*
X111504804Y-92501227D01*
X111510765Y-92477429D01*
X111519030Y-92454329D01*
X111529520Y-92432151D01*
X111542133Y-92411107D01*
X111556747Y-92391402D01*
X111573223Y-92373223D01*
X111591402Y-92356747D01*
X111611107Y-92342133D01*
X111632151Y-92329520D01*
X111654329Y-92319030D01*
X111677429Y-92310765D01*
X111701227Y-92304804D01*
X111725496Y-92301204D01*
X111750000Y-92300000D01*
X113250000Y-92300000D01*
X113274504Y-92301204D01*
X113274504Y-92301204D01*
G37*
D13*
X112500000Y-92800000D03*
D10*
G36*
X119524504Y-106101204D02*
X119548773Y-106104804D01*
X119572571Y-106110765D01*
X119595671Y-106119030D01*
X119617849Y-106129520D01*
X119638893Y-106142133D01*
X119658598Y-106156747D01*
X119676777Y-106173223D01*
X119693253Y-106191402D01*
X119707867Y-106211107D01*
X119720480Y-106232151D01*
X119730970Y-106254329D01*
X119739235Y-106277429D01*
X119745196Y-106301227D01*
X119748796Y-106325496D01*
X119750000Y-106350000D01*
X119750000Y-106850000D01*
X119748796Y-106874504D01*
X119745196Y-106898773D01*
X119739235Y-106922571D01*
X119730970Y-106945671D01*
X119720480Y-106967849D01*
X119707867Y-106988893D01*
X119693253Y-107008598D01*
X119676777Y-107026777D01*
X119658598Y-107043253D01*
X119638893Y-107057867D01*
X119617849Y-107070480D01*
X119595671Y-107080970D01*
X119572571Y-107089235D01*
X119548773Y-107095196D01*
X119524504Y-107098796D01*
X119500000Y-107100000D01*
X118000000Y-107100000D01*
X117975496Y-107098796D01*
X117951227Y-107095196D01*
X117927429Y-107089235D01*
X117904329Y-107080970D01*
X117882151Y-107070480D01*
X117861107Y-107057867D01*
X117841402Y-107043253D01*
X117823223Y-107026777D01*
X117806747Y-107008598D01*
X117792133Y-106988893D01*
X117779520Y-106967849D01*
X117769030Y-106945671D01*
X117760765Y-106922571D01*
X117754804Y-106898773D01*
X117751204Y-106874504D01*
X117750000Y-106850000D01*
X117750000Y-106350000D01*
X117751204Y-106325496D01*
X117754804Y-106301227D01*
X117760765Y-106277429D01*
X117769030Y-106254329D01*
X117779520Y-106232151D01*
X117792133Y-106211107D01*
X117806747Y-106191402D01*
X117823223Y-106173223D01*
X117841402Y-106156747D01*
X117861107Y-106142133D01*
X117882151Y-106129520D01*
X117904329Y-106119030D01*
X117927429Y-106110765D01*
X117951227Y-106104804D01*
X117975496Y-106101204D01*
X118000000Y-106100000D01*
X119500000Y-106100000D01*
X119524504Y-106101204D01*
X119524504Y-106101204D01*
G37*
D13*
X118750000Y-106600000D03*
D11*
X172500000Y-140300000D03*
D12*
X176625000Y-140300000D03*
X175426815Y-143226815D03*
X172500000Y-144425000D03*
X169573185Y-143226815D03*
X168375000Y-140300000D03*
X169573185Y-137373185D03*
X172500000Y-136175000D03*
X175426815Y-137373185D03*
X200375000Y-140300000D03*
X192125000Y-140300000D03*
X196250000Y-144425000D03*
X193323185Y-137373185D03*
X199176815Y-137373185D03*
X199176815Y-143226815D03*
X196250000Y-136175000D03*
X193323185Y-143226815D03*
D11*
X196250000Y-140300000D03*
D10*
G36*
X182024504Y-132901204D02*
X182048773Y-132904804D01*
X182072571Y-132910765D01*
X182095671Y-132919030D01*
X182117849Y-132929520D01*
X182138893Y-132942133D01*
X182158598Y-132956747D01*
X182176777Y-132973223D01*
X182193253Y-132991402D01*
X182207867Y-133011107D01*
X182220480Y-133032151D01*
X182230970Y-133054329D01*
X182239235Y-133077429D01*
X182245196Y-133101227D01*
X182248796Y-133125496D01*
X182250000Y-133150000D01*
X182250000Y-133650000D01*
X182248796Y-133674504D01*
X182245196Y-133698773D01*
X182239235Y-133722571D01*
X182230970Y-133745671D01*
X182220480Y-133767849D01*
X182207867Y-133788893D01*
X182193253Y-133808598D01*
X182176777Y-133826777D01*
X182158598Y-133843253D01*
X182138893Y-133857867D01*
X182117849Y-133870480D01*
X182095671Y-133880970D01*
X182072571Y-133889235D01*
X182048773Y-133895196D01*
X182024504Y-133898796D01*
X182000000Y-133900000D01*
X180500000Y-133900000D01*
X180475496Y-133898796D01*
X180451227Y-133895196D01*
X180427429Y-133889235D01*
X180404329Y-133880970D01*
X180382151Y-133870480D01*
X180361107Y-133857867D01*
X180341402Y-133843253D01*
X180323223Y-133826777D01*
X180306747Y-133808598D01*
X180292133Y-133788893D01*
X180279520Y-133767849D01*
X180269030Y-133745671D01*
X180260765Y-133722571D01*
X180254804Y-133698773D01*
X180251204Y-133674504D01*
X180250000Y-133650000D01*
X180250000Y-133150000D01*
X180251204Y-133125496D01*
X180254804Y-133101227D01*
X180260765Y-133077429D01*
X180269030Y-133054329D01*
X180279520Y-133032151D01*
X180292133Y-133011107D01*
X180306747Y-132991402D01*
X180323223Y-132973223D01*
X180341402Y-132956747D01*
X180361107Y-132942133D01*
X180382151Y-132929520D01*
X180404329Y-132919030D01*
X180427429Y-132910765D01*
X180451227Y-132904804D01*
X180475496Y-132901204D01*
X180500000Y-132900000D01*
X182000000Y-132900000D01*
X182024504Y-132901204D01*
X182024504Y-132901204D01*
G37*
D13*
X181250000Y-133400000D03*
D10*
G36*
X188274504Y-146701204D02*
X188298773Y-146704804D01*
X188322571Y-146710765D01*
X188345671Y-146719030D01*
X188367849Y-146729520D01*
X188388893Y-146742133D01*
X188408598Y-146756747D01*
X188426777Y-146773223D01*
X188443253Y-146791402D01*
X188457867Y-146811107D01*
X188470480Y-146832151D01*
X188480970Y-146854329D01*
X188489235Y-146877429D01*
X188495196Y-146901227D01*
X188498796Y-146925496D01*
X188500000Y-146950000D01*
X188500000Y-147450000D01*
X188498796Y-147474504D01*
X188495196Y-147498773D01*
X188489235Y-147522571D01*
X188480970Y-147545671D01*
X188470480Y-147567849D01*
X188457867Y-147588893D01*
X188443253Y-147608598D01*
X188426777Y-147626777D01*
X188408598Y-147643253D01*
X188388893Y-147657867D01*
X188367849Y-147670480D01*
X188345671Y-147680970D01*
X188322571Y-147689235D01*
X188298773Y-147695196D01*
X188274504Y-147698796D01*
X188250000Y-147700000D01*
X186750000Y-147700000D01*
X186725496Y-147698796D01*
X186701227Y-147695196D01*
X186677429Y-147689235D01*
X186654329Y-147680970D01*
X186632151Y-147670480D01*
X186611107Y-147657867D01*
X186591402Y-147643253D01*
X186573223Y-147626777D01*
X186556747Y-147608598D01*
X186542133Y-147588893D01*
X186529520Y-147567849D01*
X186519030Y-147545671D01*
X186510765Y-147522571D01*
X186504804Y-147498773D01*
X186501204Y-147474504D01*
X186500000Y-147450000D01*
X186500000Y-146950000D01*
X186501204Y-146925496D01*
X186504804Y-146901227D01*
X186510765Y-146877429D01*
X186519030Y-146854329D01*
X186529520Y-146832151D01*
X186542133Y-146811107D01*
X186556747Y-146791402D01*
X186573223Y-146773223D01*
X186591402Y-146756747D01*
X186611107Y-146742133D01*
X186632151Y-146729520D01*
X186654329Y-146719030D01*
X186677429Y-146710765D01*
X186701227Y-146704804D01*
X186725496Y-146701204D01*
X186750000Y-146700000D01*
X188250000Y-146700000D01*
X188274504Y-146701204D01*
X188274504Y-146701204D01*
G37*
D13*
X187500000Y-147200000D03*
D11*
X103750000Y-120000000D03*
D12*
X103750000Y-124125000D03*
X100823185Y-122926815D03*
X99625000Y-120000000D03*
X100823185Y-117073185D03*
X103750000Y-115875000D03*
X106676815Y-117073185D03*
X107875000Y-120000000D03*
X106676815Y-122926815D03*
X103750000Y-144425000D03*
X103750000Y-136175000D03*
X99625000Y-140300000D03*
X106676815Y-137373185D03*
X106676815Y-143226815D03*
X100823185Y-143226815D03*
X107875000Y-140300000D03*
X100823185Y-137373185D03*
D11*
X103750000Y-140300000D03*
D10*
G36*
X110924504Y-125651204D02*
X110948773Y-125654804D01*
X110972571Y-125660765D01*
X110995671Y-125669030D01*
X111017849Y-125679520D01*
X111038893Y-125692133D01*
X111058598Y-125706747D01*
X111076777Y-125723223D01*
X111093253Y-125741402D01*
X111107867Y-125761107D01*
X111120480Y-125782151D01*
X111130970Y-125804329D01*
X111139235Y-125827429D01*
X111145196Y-125851227D01*
X111148796Y-125875496D01*
X111150000Y-125900000D01*
X111150000Y-127400000D01*
X111148796Y-127424504D01*
X111145196Y-127448773D01*
X111139235Y-127472571D01*
X111130970Y-127495671D01*
X111120480Y-127517849D01*
X111107867Y-127538893D01*
X111093253Y-127558598D01*
X111076777Y-127576777D01*
X111058598Y-127593253D01*
X111038893Y-127607867D01*
X111017849Y-127620480D01*
X110995671Y-127630970D01*
X110972571Y-127639235D01*
X110948773Y-127645196D01*
X110924504Y-127648796D01*
X110900000Y-127650000D01*
X110400000Y-127650000D01*
X110375496Y-127648796D01*
X110351227Y-127645196D01*
X110327429Y-127639235D01*
X110304329Y-127630970D01*
X110282151Y-127620480D01*
X110261107Y-127607867D01*
X110241402Y-127593253D01*
X110223223Y-127576777D01*
X110206747Y-127558598D01*
X110192133Y-127538893D01*
X110179520Y-127517849D01*
X110169030Y-127495671D01*
X110160765Y-127472571D01*
X110154804Y-127448773D01*
X110151204Y-127424504D01*
X110150000Y-127400000D01*
X110150000Y-125900000D01*
X110151204Y-125875496D01*
X110154804Y-125851227D01*
X110160765Y-125827429D01*
X110169030Y-125804329D01*
X110179520Y-125782151D01*
X110192133Y-125761107D01*
X110206747Y-125741402D01*
X110223223Y-125723223D01*
X110241402Y-125706747D01*
X110261107Y-125692133D01*
X110282151Y-125679520D01*
X110304329Y-125669030D01*
X110327429Y-125660765D01*
X110351227Y-125654804D01*
X110375496Y-125651204D01*
X110400000Y-125650000D01*
X110900000Y-125650000D01*
X110924504Y-125651204D01*
X110924504Y-125651204D01*
G37*
D13*
X110650000Y-126650000D03*
D10*
G36*
X97124504Y-132651204D02*
X97148773Y-132654804D01*
X97172571Y-132660765D01*
X97195671Y-132669030D01*
X97217849Y-132679520D01*
X97238893Y-132692133D01*
X97258598Y-132706747D01*
X97276777Y-132723223D01*
X97293253Y-132741402D01*
X97307867Y-132761107D01*
X97320480Y-132782151D01*
X97330970Y-132804329D01*
X97339235Y-132827429D01*
X97345196Y-132851227D01*
X97348796Y-132875496D01*
X97350000Y-132900000D01*
X97350000Y-134400000D01*
X97348796Y-134424504D01*
X97345196Y-134448773D01*
X97339235Y-134472571D01*
X97330970Y-134495671D01*
X97320480Y-134517849D01*
X97307867Y-134538893D01*
X97293253Y-134558598D01*
X97276777Y-134576777D01*
X97258598Y-134593253D01*
X97238893Y-134607867D01*
X97217849Y-134620480D01*
X97195671Y-134630970D01*
X97172571Y-134639235D01*
X97148773Y-134645196D01*
X97124504Y-134648796D01*
X97100000Y-134650000D01*
X96600000Y-134650000D01*
X96575496Y-134648796D01*
X96551227Y-134645196D01*
X96527429Y-134639235D01*
X96504329Y-134630970D01*
X96482151Y-134620480D01*
X96461107Y-134607867D01*
X96441402Y-134593253D01*
X96423223Y-134576777D01*
X96406747Y-134558598D01*
X96392133Y-134538893D01*
X96379520Y-134517849D01*
X96369030Y-134495671D01*
X96360765Y-134472571D01*
X96354804Y-134448773D01*
X96351204Y-134424504D01*
X96350000Y-134400000D01*
X96350000Y-132900000D01*
X96351204Y-132875496D01*
X96354804Y-132851227D01*
X96360765Y-132827429D01*
X96369030Y-132804329D01*
X96379520Y-132782151D01*
X96392133Y-132761107D01*
X96406747Y-132741402D01*
X96423223Y-132723223D01*
X96441402Y-132706747D01*
X96461107Y-132692133D01*
X96482151Y-132679520D01*
X96504329Y-132669030D01*
X96527429Y-132660765D01*
X96551227Y-132654804D01*
X96575496Y-132651204D01*
X96600000Y-132650000D01*
X97100000Y-132650000D01*
X97124504Y-132651204D01*
X97124504Y-132651204D01*
G37*
D13*
X96850000Y-133650000D03*
D11*
X58750000Y-99700000D03*
D12*
X58750000Y-103825000D03*
X55823185Y-102626815D03*
X54625000Y-99700000D03*
X55823185Y-96773185D03*
X58750000Y-95575000D03*
X61676815Y-96773185D03*
X62875000Y-99700000D03*
X61676815Y-102626815D03*
X58750000Y-124125000D03*
X58750000Y-115875000D03*
X54625000Y-120000000D03*
X61676815Y-117073185D03*
X61676815Y-122926815D03*
X55823185Y-122926815D03*
X62875000Y-120000000D03*
X55823185Y-117073185D03*
D11*
X58750000Y-120000000D03*
D10*
G36*
X65924504Y-105351204D02*
X65948773Y-105354804D01*
X65972571Y-105360765D01*
X65995671Y-105369030D01*
X66017849Y-105379520D01*
X66038893Y-105392133D01*
X66058598Y-105406747D01*
X66076777Y-105423223D01*
X66093253Y-105441402D01*
X66107867Y-105461107D01*
X66120480Y-105482151D01*
X66130970Y-105504329D01*
X66139235Y-105527429D01*
X66145196Y-105551227D01*
X66148796Y-105575496D01*
X66150000Y-105600000D01*
X66150000Y-107100000D01*
X66148796Y-107124504D01*
X66145196Y-107148773D01*
X66139235Y-107172571D01*
X66130970Y-107195671D01*
X66120480Y-107217849D01*
X66107867Y-107238893D01*
X66093253Y-107258598D01*
X66076777Y-107276777D01*
X66058598Y-107293253D01*
X66038893Y-107307867D01*
X66017849Y-107320480D01*
X65995671Y-107330970D01*
X65972571Y-107339235D01*
X65948773Y-107345196D01*
X65924504Y-107348796D01*
X65900000Y-107350000D01*
X65400000Y-107350000D01*
X65375496Y-107348796D01*
X65351227Y-107345196D01*
X65327429Y-107339235D01*
X65304329Y-107330970D01*
X65282151Y-107320480D01*
X65261107Y-107307867D01*
X65241402Y-107293253D01*
X65223223Y-107276777D01*
X65206747Y-107258598D01*
X65192133Y-107238893D01*
X65179520Y-107217849D01*
X65169030Y-107195671D01*
X65160765Y-107172571D01*
X65154804Y-107148773D01*
X65151204Y-107124504D01*
X65150000Y-107100000D01*
X65150000Y-105600000D01*
X65151204Y-105575496D01*
X65154804Y-105551227D01*
X65160765Y-105527429D01*
X65169030Y-105504329D01*
X65179520Y-105482151D01*
X65192133Y-105461107D01*
X65206747Y-105441402D01*
X65223223Y-105423223D01*
X65241402Y-105406747D01*
X65261107Y-105392133D01*
X65282151Y-105379520D01*
X65304329Y-105369030D01*
X65327429Y-105360765D01*
X65351227Y-105354804D01*
X65375496Y-105351204D01*
X65400000Y-105350000D01*
X65900000Y-105350000D01*
X65924504Y-105351204D01*
X65924504Y-105351204D01*
G37*
D13*
X65650000Y-106350000D03*
D10*
G36*
X52124504Y-112351204D02*
X52148773Y-112354804D01*
X52172571Y-112360765D01*
X52195671Y-112369030D01*
X52217849Y-112379520D01*
X52238893Y-112392133D01*
X52258598Y-112406747D01*
X52276777Y-112423223D01*
X52293253Y-112441402D01*
X52307867Y-112461107D01*
X52320480Y-112482151D01*
X52330970Y-112504329D01*
X52339235Y-112527429D01*
X52345196Y-112551227D01*
X52348796Y-112575496D01*
X52350000Y-112600000D01*
X52350000Y-114100000D01*
X52348796Y-114124504D01*
X52345196Y-114148773D01*
X52339235Y-114172571D01*
X52330970Y-114195671D01*
X52320480Y-114217849D01*
X52307867Y-114238893D01*
X52293253Y-114258598D01*
X52276777Y-114276777D01*
X52258598Y-114293253D01*
X52238893Y-114307867D01*
X52217849Y-114320480D01*
X52195671Y-114330970D01*
X52172571Y-114339235D01*
X52148773Y-114345196D01*
X52124504Y-114348796D01*
X52100000Y-114350000D01*
X51600000Y-114350000D01*
X51575496Y-114348796D01*
X51551227Y-114345196D01*
X51527429Y-114339235D01*
X51504329Y-114330970D01*
X51482151Y-114320480D01*
X51461107Y-114307867D01*
X51441402Y-114293253D01*
X51423223Y-114276777D01*
X51406747Y-114258598D01*
X51392133Y-114238893D01*
X51379520Y-114217849D01*
X51369030Y-114195671D01*
X51360765Y-114172571D01*
X51354804Y-114148773D01*
X51351204Y-114124504D01*
X51350000Y-114100000D01*
X51350000Y-112600000D01*
X51351204Y-112575496D01*
X51354804Y-112551227D01*
X51360765Y-112527429D01*
X51369030Y-112504329D01*
X51379520Y-112482151D01*
X51392133Y-112461107D01*
X51406747Y-112441402D01*
X51423223Y-112423223D01*
X51441402Y-112406747D01*
X51461107Y-112392133D01*
X51482151Y-112379520D01*
X51504329Y-112369030D01*
X51527429Y-112360765D01*
X51551227Y-112354804D01*
X51575496Y-112351204D01*
X51600000Y-112350000D01*
X52100000Y-112350000D01*
X52124504Y-112351204D01*
X52124504Y-112351204D01*
G37*
D13*
X51850000Y-113350000D03*
D11*
X172500000Y-120000000D03*
D12*
X172500000Y-115875000D03*
X175426815Y-117073185D03*
X176625000Y-120000000D03*
X175426815Y-122926815D03*
X172500000Y-124125000D03*
X169573185Y-122926815D03*
X168375000Y-120000000D03*
X169573185Y-117073185D03*
X172500000Y-95575000D03*
X172500000Y-103825000D03*
X176625000Y-99700000D03*
X169573185Y-102626815D03*
X169573185Y-96773185D03*
X175426815Y-96773185D03*
X168375000Y-99700000D03*
X175426815Y-102626815D03*
D11*
X172500000Y-99700000D03*
D10*
G36*
X165874504Y-112351204D02*
X165898773Y-112354804D01*
X165922571Y-112360765D01*
X165945671Y-112369030D01*
X165967849Y-112379520D01*
X165988893Y-112392133D01*
X166008598Y-112406747D01*
X166026777Y-112423223D01*
X166043253Y-112441402D01*
X166057867Y-112461107D01*
X166070480Y-112482151D01*
X166080970Y-112504329D01*
X166089235Y-112527429D01*
X166095196Y-112551227D01*
X166098796Y-112575496D01*
X166100000Y-112600000D01*
X166100000Y-114100000D01*
X166098796Y-114124504D01*
X166095196Y-114148773D01*
X166089235Y-114172571D01*
X166080970Y-114195671D01*
X166070480Y-114217849D01*
X166057867Y-114238893D01*
X166043253Y-114258598D01*
X166026777Y-114276777D01*
X166008598Y-114293253D01*
X165988893Y-114307867D01*
X165967849Y-114320480D01*
X165945671Y-114330970D01*
X165922571Y-114339235D01*
X165898773Y-114345196D01*
X165874504Y-114348796D01*
X165850000Y-114350000D01*
X165350000Y-114350000D01*
X165325496Y-114348796D01*
X165301227Y-114345196D01*
X165277429Y-114339235D01*
X165254329Y-114330970D01*
X165232151Y-114320480D01*
X165211107Y-114307867D01*
X165191402Y-114293253D01*
X165173223Y-114276777D01*
X165156747Y-114258598D01*
X165142133Y-114238893D01*
X165129520Y-114217849D01*
X165119030Y-114195671D01*
X165110765Y-114172571D01*
X165104804Y-114148773D01*
X165101204Y-114124504D01*
X165100000Y-114100000D01*
X165100000Y-112600000D01*
X165101204Y-112575496D01*
X165104804Y-112551227D01*
X165110765Y-112527429D01*
X165119030Y-112504329D01*
X165129520Y-112482151D01*
X165142133Y-112461107D01*
X165156747Y-112441402D01*
X165173223Y-112423223D01*
X165191402Y-112406747D01*
X165211107Y-112392133D01*
X165232151Y-112379520D01*
X165254329Y-112369030D01*
X165277429Y-112360765D01*
X165301227Y-112354804D01*
X165325496Y-112351204D01*
X165350000Y-112350000D01*
X165850000Y-112350000D01*
X165874504Y-112351204D01*
X165874504Y-112351204D01*
G37*
D13*
X165600000Y-113350000D03*
D10*
G36*
X179674504Y-105351204D02*
X179698773Y-105354804D01*
X179722571Y-105360765D01*
X179745671Y-105369030D01*
X179767849Y-105379520D01*
X179788893Y-105392133D01*
X179808598Y-105406747D01*
X179826777Y-105423223D01*
X179843253Y-105441402D01*
X179857867Y-105461107D01*
X179870480Y-105482151D01*
X179880970Y-105504329D01*
X179889235Y-105527429D01*
X179895196Y-105551227D01*
X179898796Y-105575496D01*
X179900000Y-105600000D01*
X179900000Y-107100000D01*
X179898796Y-107124504D01*
X179895196Y-107148773D01*
X179889235Y-107172571D01*
X179880970Y-107195671D01*
X179870480Y-107217849D01*
X179857867Y-107238893D01*
X179843253Y-107258598D01*
X179826777Y-107276777D01*
X179808598Y-107293253D01*
X179788893Y-107307867D01*
X179767849Y-107320480D01*
X179745671Y-107330970D01*
X179722571Y-107339235D01*
X179698773Y-107345196D01*
X179674504Y-107348796D01*
X179650000Y-107350000D01*
X179150000Y-107350000D01*
X179125496Y-107348796D01*
X179101227Y-107345196D01*
X179077429Y-107339235D01*
X179054329Y-107330970D01*
X179032151Y-107320480D01*
X179011107Y-107307867D01*
X178991402Y-107293253D01*
X178973223Y-107276777D01*
X178956747Y-107258598D01*
X178942133Y-107238893D01*
X178929520Y-107217849D01*
X178919030Y-107195671D01*
X178910765Y-107172571D01*
X178904804Y-107148773D01*
X178901204Y-107124504D01*
X178900000Y-107100000D01*
X178900000Y-105600000D01*
X178901204Y-105575496D01*
X178904804Y-105551227D01*
X178910765Y-105527429D01*
X178919030Y-105504329D01*
X178929520Y-105482151D01*
X178942133Y-105461107D01*
X178956747Y-105441402D01*
X178973223Y-105423223D01*
X178991402Y-105406747D01*
X179011107Y-105392133D01*
X179032151Y-105379520D01*
X179054329Y-105369030D01*
X179077429Y-105360765D01*
X179101227Y-105354804D01*
X179125496Y-105351204D01*
X179150000Y-105350000D01*
X179650000Y-105350000D01*
X179674504Y-105351204D01*
X179674504Y-105351204D01*
G37*
D13*
X179400000Y-106350000D03*
D11*
X127500000Y-140300000D03*
D12*
X127500000Y-136175000D03*
X130426815Y-137373185D03*
X131625000Y-140300000D03*
X130426815Y-143226815D03*
X127500000Y-144425000D03*
X124573185Y-143226815D03*
X123375000Y-140300000D03*
X124573185Y-137373185D03*
X127500000Y-115875000D03*
X127500000Y-124125000D03*
X131625000Y-120000000D03*
X124573185Y-122926815D03*
X124573185Y-117073185D03*
X130426815Y-117073185D03*
X123375000Y-120000000D03*
X130426815Y-122926815D03*
D11*
X127500000Y-120000000D03*
D10*
G36*
X120874504Y-132651204D02*
X120898773Y-132654804D01*
X120922571Y-132660765D01*
X120945671Y-132669030D01*
X120967849Y-132679520D01*
X120988893Y-132692133D01*
X121008598Y-132706747D01*
X121026777Y-132723223D01*
X121043253Y-132741402D01*
X121057867Y-132761107D01*
X121070480Y-132782151D01*
X121080970Y-132804329D01*
X121089235Y-132827429D01*
X121095196Y-132851227D01*
X121098796Y-132875496D01*
X121100000Y-132900000D01*
X121100000Y-134400000D01*
X121098796Y-134424504D01*
X121095196Y-134448773D01*
X121089235Y-134472571D01*
X121080970Y-134495671D01*
X121070480Y-134517849D01*
X121057867Y-134538893D01*
X121043253Y-134558598D01*
X121026777Y-134576777D01*
X121008598Y-134593253D01*
X120988893Y-134607867D01*
X120967849Y-134620480D01*
X120945671Y-134630970D01*
X120922571Y-134639235D01*
X120898773Y-134645196D01*
X120874504Y-134648796D01*
X120850000Y-134650000D01*
X120350000Y-134650000D01*
X120325496Y-134648796D01*
X120301227Y-134645196D01*
X120277429Y-134639235D01*
X120254329Y-134630970D01*
X120232151Y-134620480D01*
X120211107Y-134607867D01*
X120191402Y-134593253D01*
X120173223Y-134576777D01*
X120156747Y-134558598D01*
X120142133Y-134538893D01*
X120129520Y-134517849D01*
X120119030Y-134495671D01*
X120110765Y-134472571D01*
X120104804Y-134448773D01*
X120101204Y-134424504D01*
X120100000Y-134400000D01*
X120100000Y-132900000D01*
X120101204Y-132875496D01*
X120104804Y-132851227D01*
X120110765Y-132827429D01*
X120119030Y-132804329D01*
X120129520Y-132782151D01*
X120142133Y-132761107D01*
X120156747Y-132741402D01*
X120173223Y-132723223D01*
X120191402Y-132706747D01*
X120211107Y-132692133D01*
X120232151Y-132679520D01*
X120254329Y-132669030D01*
X120277429Y-132660765D01*
X120301227Y-132654804D01*
X120325496Y-132651204D01*
X120350000Y-132650000D01*
X120850000Y-132650000D01*
X120874504Y-132651204D01*
X120874504Y-132651204D01*
G37*
D13*
X120600000Y-133650000D03*
D10*
G36*
X134674504Y-125651204D02*
X134698773Y-125654804D01*
X134722571Y-125660765D01*
X134745671Y-125669030D01*
X134767849Y-125679520D01*
X134788893Y-125692133D01*
X134808598Y-125706747D01*
X134826777Y-125723223D01*
X134843253Y-125741402D01*
X134857867Y-125761107D01*
X134870480Y-125782151D01*
X134880970Y-125804329D01*
X134889235Y-125827429D01*
X134895196Y-125851227D01*
X134898796Y-125875496D01*
X134900000Y-125900000D01*
X134900000Y-127400000D01*
X134898796Y-127424504D01*
X134895196Y-127448773D01*
X134889235Y-127472571D01*
X134880970Y-127495671D01*
X134870480Y-127517849D01*
X134857867Y-127538893D01*
X134843253Y-127558598D01*
X134826777Y-127576777D01*
X134808598Y-127593253D01*
X134788893Y-127607867D01*
X134767849Y-127620480D01*
X134745671Y-127630970D01*
X134722571Y-127639235D01*
X134698773Y-127645196D01*
X134674504Y-127648796D01*
X134650000Y-127650000D01*
X134150000Y-127650000D01*
X134125496Y-127648796D01*
X134101227Y-127645196D01*
X134077429Y-127639235D01*
X134054329Y-127630970D01*
X134032151Y-127620480D01*
X134011107Y-127607867D01*
X133991402Y-127593253D01*
X133973223Y-127576777D01*
X133956747Y-127558598D01*
X133942133Y-127538893D01*
X133929520Y-127517849D01*
X133919030Y-127495671D01*
X133910765Y-127472571D01*
X133904804Y-127448773D01*
X133901204Y-127424504D01*
X133900000Y-127400000D01*
X133900000Y-125900000D01*
X133901204Y-125875496D01*
X133904804Y-125851227D01*
X133910765Y-125827429D01*
X133919030Y-125804329D01*
X133929520Y-125782151D01*
X133942133Y-125761107D01*
X133956747Y-125741402D01*
X133973223Y-125723223D01*
X133991402Y-125706747D01*
X134011107Y-125692133D01*
X134032151Y-125679520D01*
X134054329Y-125669030D01*
X134077429Y-125660765D01*
X134101227Y-125654804D01*
X134125496Y-125651204D01*
X134150000Y-125650000D01*
X134650000Y-125650000D01*
X134674504Y-125651204D01*
X134674504Y-125651204D01*
G37*
D13*
X134400000Y-126650000D03*
D11*
X241250000Y-120000000D03*
D12*
X241250000Y-124125000D03*
X238323185Y-122926815D03*
X237125000Y-120000000D03*
X238323185Y-117073185D03*
X241250000Y-115875000D03*
X244176815Y-117073185D03*
X245375000Y-120000000D03*
X244176815Y-122926815D03*
X241250000Y-144425000D03*
X241250000Y-136175000D03*
X237125000Y-140300000D03*
X244176815Y-137373185D03*
X244176815Y-143226815D03*
X238323185Y-143226815D03*
X245375000Y-140300000D03*
X238323185Y-137373185D03*
D11*
X241250000Y-140300000D03*
D10*
G36*
X248424504Y-125651204D02*
X248448773Y-125654804D01*
X248472571Y-125660765D01*
X248495671Y-125669030D01*
X248517849Y-125679520D01*
X248538893Y-125692133D01*
X248558598Y-125706747D01*
X248576777Y-125723223D01*
X248593253Y-125741402D01*
X248607867Y-125761107D01*
X248620480Y-125782151D01*
X248630970Y-125804329D01*
X248639235Y-125827429D01*
X248645196Y-125851227D01*
X248648796Y-125875496D01*
X248650000Y-125900000D01*
X248650000Y-127400000D01*
X248648796Y-127424504D01*
X248645196Y-127448773D01*
X248639235Y-127472571D01*
X248630970Y-127495671D01*
X248620480Y-127517849D01*
X248607867Y-127538893D01*
X248593253Y-127558598D01*
X248576777Y-127576777D01*
X248558598Y-127593253D01*
X248538893Y-127607867D01*
X248517849Y-127620480D01*
X248495671Y-127630970D01*
X248472571Y-127639235D01*
X248448773Y-127645196D01*
X248424504Y-127648796D01*
X248400000Y-127650000D01*
X247900000Y-127650000D01*
X247875496Y-127648796D01*
X247851227Y-127645196D01*
X247827429Y-127639235D01*
X247804329Y-127630970D01*
X247782151Y-127620480D01*
X247761107Y-127607867D01*
X247741402Y-127593253D01*
X247723223Y-127576777D01*
X247706747Y-127558598D01*
X247692133Y-127538893D01*
X247679520Y-127517849D01*
X247669030Y-127495671D01*
X247660765Y-127472571D01*
X247654804Y-127448773D01*
X247651204Y-127424504D01*
X247650000Y-127400000D01*
X247650000Y-125900000D01*
X247651204Y-125875496D01*
X247654804Y-125851227D01*
X247660765Y-125827429D01*
X247669030Y-125804329D01*
X247679520Y-125782151D01*
X247692133Y-125761107D01*
X247706747Y-125741402D01*
X247723223Y-125723223D01*
X247741402Y-125706747D01*
X247761107Y-125692133D01*
X247782151Y-125679520D01*
X247804329Y-125669030D01*
X247827429Y-125660765D01*
X247851227Y-125654804D01*
X247875496Y-125651204D01*
X247900000Y-125650000D01*
X248400000Y-125650000D01*
X248424504Y-125651204D01*
X248424504Y-125651204D01*
G37*
D13*
X248150000Y-126650000D03*
D10*
G36*
X234624504Y-132651204D02*
X234648773Y-132654804D01*
X234672571Y-132660765D01*
X234695671Y-132669030D01*
X234717849Y-132679520D01*
X234738893Y-132692133D01*
X234758598Y-132706747D01*
X234776777Y-132723223D01*
X234793253Y-132741402D01*
X234807867Y-132761107D01*
X234820480Y-132782151D01*
X234830970Y-132804329D01*
X234839235Y-132827429D01*
X234845196Y-132851227D01*
X234848796Y-132875496D01*
X234850000Y-132900000D01*
X234850000Y-134400000D01*
X234848796Y-134424504D01*
X234845196Y-134448773D01*
X234839235Y-134472571D01*
X234830970Y-134495671D01*
X234820480Y-134517849D01*
X234807867Y-134538893D01*
X234793253Y-134558598D01*
X234776777Y-134576777D01*
X234758598Y-134593253D01*
X234738893Y-134607867D01*
X234717849Y-134620480D01*
X234695671Y-134630970D01*
X234672571Y-134639235D01*
X234648773Y-134645196D01*
X234624504Y-134648796D01*
X234600000Y-134650000D01*
X234100000Y-134650000D01*
X234075496Y-134648796D01*
X234051227Y-134645196D01*
X234027429Y-134639235D01*
X234004329Y-134630970D01*
X233982151Y-134620480D01*
X233961107Y-134607867D01*
X233941402Y-134593253D01*
X233923223Y-134576777D01*
X233906747Y-134558598D01*
X233892133Y-134538893D01*
X233879520Y-134517849D01*
X233869030Y-134495671D01*
X233860765Y-134472571D01*
X233854804Y-134448773D01*
X233851204Y-134424504D01*
X233850000Y-134400000D01*
X233850000Y-132900000D01*
X233851204Y-132875496D01*
X233854804Y-132851227D01*
X233860765Y-132827429D01*
X233869030Y-132804329D01*
X233879520Y-132782151D01*
X233892133Y-132761107D01*
X233906747Y-132741402D01*
X233923223Y-132723223D01*
X233941402Y-132706747D01*
X233961107Y-132692133D01*
X233982151Y-132679520D01*
X234004329Y-132669030D01*
X234027429Y-132660765D01*
X234051227Y-132654804D01*
X234075496Y-132651204D01*
X234100000Y-132650000D01*
X234600000Y-132650000D01*
X234624504Y-132651204D01*
X234624504Y-132651204D01*
G37*
D13*
X234350000Y-133650000D03*
D11*
X196250000Y-99700000D03*
D12*
X196250000Y-103825000D03*
X193323185Y-102626815D03*
X192125000Y-99700000D03*
X193323185Y-96773185D03*
X196250000Y-95575000D03*
X199176815Y-96773185D03*
X200375000Y-99700000D03*
X199176815Y-102626815D03*
X196250000Y-124125000D03*
X196250000Y-115875000D03*
X192125000Y-120000000D03*
X199176815Y-117073185D03*
X199176815Y-122926815D03*
X193323185Y-122926815D03*
X200375000Y-120000000D03*
X193323185Y-117073185D03*
D11*
X196250000Y-120000000D03*
D10*
G36*
X203424504Y-105351204D02*
X203448773Y-105354804D01*
X203472571Y-105360765D01*
X203495671Y-105369030D01*
X203517849Y-105379520D01*
X203538893Y-105392133D01*
X203558598Y-105406747D01*
X203576777Y-105423223D01*
X203593253Y-105441402D01*
X203607867Y-105461107D01*
X203620480Y-105482151D01*
X203630970Y-105504329D01*
X203639235Y-105527429D01*
X203645196Y-105551227D01*
X203648796Y-105575496D01*
X203650000Y-105600000D01*
X203650000Y-107100000D01*
X203648796Y-107124504D01*
X203645196Y-107148773D01*
X203639235Y-107172571D01*
X203630970Y-107195671D01*
X203620480Y-107217849D01*
X203607867Y-107238893D01*
X203593253Y-107258598D01*
X203576777Y-107276777D01*
X203558598Y-107293253D01*
X203538893Y-107307867D01*
X203517849Y-107320480D01*
X203495671Y-107330970D01*
X203472571Y-107339235D01*
X203448773Y-107345196D01*
X203424504Y-107348796D01*
X203400000Y-107350000D01*
X202900000Y-107350000D01*
X202875496Y-107348796D01*
X202851227Y-107345196D01*
X202827429Y-107339235D01*
X202804329Y-107330970D01*
X202782151Y-107320480D01*
X202761107Y-107307867D01*
X202741402Y-107293253D01*
X202723223Y-107276777D01*
X202706747Y-107258598D01*
X202692133Y-107238893D01*
X202679520Y-107217849D01*
X202669030Y-107195671D01*
X202660765Y-107172571D01*
X202654804Y-107148773D01*
X202651204Y-107124504D01*
X202650000Y-107100000D01*
X202650000Y-105600000D01*
X202651204Y-105575496D01*
X202654804Y-105551227D01*
X202660765Y-105527429D01*
X202669030Y-105504329D01*
X202679520Y-105482151D01*
X202692133Y-105461107D01*
X202706747Y-105441402D01*
X202723223Y-105423223D01*
X202741402Y-105406747D01*
X202761107Y-105392133D01*
X202782151Y-105379520D01*
X202804329Y-105369030D01*
X202827429Y-105360765D01*
X202851227Y-105354804D01*
X202875496Y-105351204D01*
X202900000Y-105350000D01*
X203400000Y-105350000D01*
X203424504Y-105351204D01*
X203424504Y-105351204D01*
G37*
D13*
X203150000Y-106350000D03*
D10*
G36*
X189624504Y-112351204D02*
X189648773Y-112354804D01*
X189672571Y-112360765D01*
X189695671Y-112369030D01*
X189717849Y-112379520D01*
X189738893Y-112392133D01*
X189758598Y-112406747D01*
X189776777Y-112423223D01*
X189793253Y-112441402D01*
X189807867Y-112461107D01*
X189820480Y-112482151D01*
X189830970Y-112504329D01*
X189839235Y-112527429D01*
X189845196Y-112551227D01*
X189848796Y-112575496D01*
X189850000Y-112600000D01*
X189850000Y-114100000D01*
X189848796Y-114124504D01*
X189845196Y-114148773D01*
X189839235Y-114172571D01*
X189830970Y-114195671D01*
X189820480Y-114217849D01*
X189807867Y-114238893D01*
X189793253Y-114258598D01*
X189776777Y-114276777D01*
X189758598Y-114293253D01*
X189738893Y-114307867D01*
X189717849Y-114320480D01*
X189695671Y-114330970D01*
X189672571Y-114339235D01*
X189648773Y-114345196D01*
X189624504Y-114348796D01*
X189600000Y-114350000D01*
X189100000Y-114350000D01*
X189075496Y-114348796D01*
X189051227Y-114345196D01*
X189027429Y-114339235D01*
X189004329Y-114330970D01*
X188982151Y-114320480D01*
X188961107Y-114307867D01*
X188941402Y-114293253D01*
X188923223Y-114276777D01*
X188906747Y-114258598D01*
X188892133Y-114238893D01*
X188879520Y-114217849D01*
X188869030Y-114195671D01*
X188860765Y-114172571D01*
X188854804Y-114148773D01*
X188851204Y-114124504D01*
X188850000Y-114100000D01*
X188850000Y-112600000D01*
X188851204Y-112575496D01*
X188854804Y-112551227D01*
X188860765Y-112527429D01*
X188869030Y-112504329D01*
X188879520Y-112482151D01*
X188892133Y-112461107D01*
X188906747Y-112441402D01*
X188923223Y-112423223D01*
X188941402Y-112406747D01*
X188961107Y-112392133D01*
X188982151Y-112379520D01*
X189004329Y-112369030D01*
X189027429Y-112360765D01*
X189051227Y-112354804D01*
X189075496Y-112351204D01*
X189100000Y-112350000D01*
X189600000Y-112350000D01*
X189624504Y-112351204D01*
X189624504Y-112351204D01*
G37*
D13*
X189350000Y-113350000D03*
D10*
G36*
X66174504Y-132901204D02*
X66198773Y-132904804D01*
X66222571Y-132910765D01*
X66245671Y-132919030D01*
X66267849Y-132929520D01*
X66288893Y-132942133D01*
X66308598Y-132956747D01*
X66326777Y-132973223D01*
X66343253Y-132991402D01*
X66357867Y-133011107D01*
X66370480Y-133032151D01*
X66380970Y-133054329D01*
X66389235Y-133077429D01*
X66395196Y-133101227D01*
X66398796Y-133125496D01*
X66400000Y-133150000D01*
X66400000Y-133650000D01*
X66398796Y-133674504D01*
X66395196Y-133698773D01*
X66389235Y-133722571D01*
X66380970Y-133745671D01*
X66370480Y-133767849D01*
X66357867Y-133788893D01*
X66343253Y-133808598D01*
X66326777Y-133826777D01*
X66308598Y-133843253D01*
X66288893Y-133857867D01*
X66267849Y-133870480D01*
X66245671Y-133880970D01*
X66222571Y-133889235D01*
X66198773Y-133895196D01*
X66174504Y-133898796D01*
X66150000Y-133900000D01*
X64650000Y-133900000D01*
X64625496Y-133898796D01*
X64601227Y-133895196D01*
X64577429Y-133889235D01*
X64554329Y-133880970D01*
X64532151Y-133870480D01*
X64511107Y-133857867D01*
X64491402Y-133843253D01*
X64473223Y-133826777D01*
X64456747Y-133808598D01*
X64442133Y-133788893D01*
X64429520Y-133767849D01*
X64419030Y-133745671D01*
X64410765Y-133722571D01*
X64404804Y-133698773D01*
X64401204Y-133674504D01*
X64400000Y-133650000D01*
X64400000Y-133150000D01*
X64401204Y-133125496D01*
X64404804Y-133101227D01*
X64410765Y-133077429D01*
X64419030Y-133054329D01*
X64429520Y-133032151D01*
X64442133Y-133011107D01*
X64456747Y-132991402D01*
X64473223Y-132973223D01*
X64491402Y-132956747D01*
X64511107Y-132942133D01*
X64532151Y-132929520D01*
X64554329Y-132919030D01*
X64577429Y-132910765D01*
X64601227Y-132904804D01*
X64625496Y-132901204D01*
X64650000Y-132900000D01*
X66150000Y-132900000D01*
X66174504Y-132901204D01*
X66174504Y-132901204D01*
G37*
D13*
X65400000Y-133400000D03*
D10*
G36*
X66174504Y-146701204D02*
X66198773Y-146704804D01*
X66222571Y-146710765D01*
X66245671Y-146719030D01*
X66267849Y-146729520D01*
X66288893Y-146742133D01*
X66308598Y-146756747D01*
X66326777Y-146773223D01*
X66343253Y-146791402D01*
X66357867Y-146811107D01*
X66370480Y-146832151D01*
X66380970Y-146854329D01*
X66389235Y-146877429D01*
X66395196Y-146901227D01*
X66398796Y-146925496D01*
X66400000Y-146950000D01*
X66400000Y-147450000D01*
X66398796Y-147474504D01*
X66395196Y-147498773D01*
X66389235Y-147522571D01*
X66380970Y-147545671D01*
X66370480Y-147567849D01*
X66357867Y-147588893D01*
X66343253Y-147608598D01*
X66326777Y-147626777D01*
X66308598Y-147643253D01*
X66288893Y-147657867D01*
X66267849Y-147670480D01*
X66245671Y-147680970D01*
X66222571Y-147689235D01*
X66198773Y-147695196D01*
X66174504Y-147698796D01*
X66150000Y-147700000D01*
X64650000Y-147700000D01*
X64625496Y-147698796D01*
X64601227Y-147695196D01*
X64577429Y-147689235D01*
X64554329Y-147680970D01*
X64532151Y-147670480D01*
X64511107Y-147657867D01*
X64491402Y-147643253D01*
X64473223Y-147626777D01*
X64456747Y-147608598D01*
X64442133Y-147588893D01*
X64429520Y-147567849D01*
X64419030Y-147545671D01*
X64410765Y-147522571D01*
X64404804Y-147498773D01*
X64401204Y-147474504D01*
X64400000Y-147450000D01*
X64400000Y-146950000D01*
X64401204Y-146925496D01*
X64404804Y-146901227D01*
X64410765Y-146877429D01*
X64419030Y-146854329D01*
X64429520Y-146832151D01*
X64442133Y-146811107D01*
X64456747Y-146791402D01*
X64473223Y-146773223D01*
X64491402Y-146756747D01*
X64511107Y-146742133D01*
X64532151Y-146729520D01*
X64554329Y-146719030D01*
X64577429Y-146710765D01*
X64601227Y-146704804D01*
X64625496Y-146701204D01*
X64650000Y-146700000D01*
X66150000Y-146700000D01*
X66174504Y-146701204D01*
X66174504Y-146701204D01*
G37*
D13*
X65400000Y-147200000D03*
D12*
X61676815Y-143226815D03*
X62875000Y-140300000D03*
X61676815Y-137373185D03*
X58750000Y-136175000D03*
X55823185Y-137373185D03*
X54625000Y-140300000D03*
X55823185Y-143226815D03*
X58750000Y-144425000D03*
D11*
X58750000Y-140300000D03*
D14*
X81250000Y-108350000D03*
D15*
X81250000Y-111350000D03*
D16*
X79290000Y-105350000D03*
X79290000Y-114350000D03*
D14*
X218750000Y-108350000D03*
D15*
X218750000Y-111350000D03*
D16*
X216790000Y-105350000D03*
X216790000Y-114350000D03*
D11*
X241250000Y-99700000D03*
D12*
X241250000Y-103825000D03*
X238323185Y-102626815D03*
X237125000Y-99700000D03*
X238323185Y-96773185D03*
X241250000Y-95575000D03*
X244176815Y-96773185D03*
X245375000Y-99700000D03*
X244176815Y-102626815D03*
D10*
G36*
X248674504Y-106101204D02*
X248698773Y-106104804D01*
X248722571Y-106110765D01*
X248745671Y-106119030D01*
X248767849Y-106129520D01*
X248788893Y-106142133D01*
X248808598Y-106156747D01*
X248826777Y-106173223D01*
X248843253Y-106191402D01*
X248857867Y-106211107D01*
X248870480Y-106232151D01*
X248880970Y-106254329D01*
X248889235Y-106277429D01*
X248895196Y-106301227D01*
X248898796Y-106325496D01*
X248900000Y-106350000D01*
X248900000Y-106850000D01*
X248898796Y-106874504D01*
X248895196Y-106898773D01*
X248889235Y-106922571D01*
X248880970Y-106945671D01*
X248870480Y-106967849D01*
X248857867Y-106988893D01*
X248843253Y-107008598D01*
X248826777Y-107026777D01*
X248808598Y-107043253D01*
X248788893Y-107057867D01*
X248767849Y-107070480D01*
X248745671Y-107080970D01*
X248722571Y-107089235D01*
X248698773Y-107095196D01*
X248674504Y-107098796D01*
X248650000Y-107100000D01*
X247150000Y-107100000D01*
X247125496Y-107098796D01*
X247101227Y-107095196D01*
X247077429Y-107089235D01*
X247054329Y-107080970D01*
X247032151Y-107070480D01*
X247011107Y-107057867D01*
X246991402Y-107043253D01*
X246973223Y-107026777D01*
X246956747Y-107008598D01*
X246942133Y-106988893D01*
X246929520Y-106967849D01*
X246919030Y-106945671D01*
X246910765Y-106922571D01*
X246904804Y-106898773D01*
X246901204Y-106874504D01*
X246900000Y-106850000D01*
X246900000Y-106350000D01*
X246901204Y-106325496D01*
X246904804Y-106301227D01*
X246910765Y-106277429D01*
X246919030Y-106254329D01*
X246929520Y-106232151D01*
X246942133Y-106211107D01*
X246956747Y-106191402D01*
X246973223Y-106173223D01*
X246991402Y-106156747D01*
X247011107Y-106142133D01*
X247032151Y-106129520D01*
X247054329Y-106119030D01*
X247077429Y-106110765D01*
X247101227Y-106104804D01*
X247125496Y-106101204D01*
X247150000Y-106100000D01*
X248650000Y-106100000D01*
X248674504Y-106101204D01*
X248674504Y-106101204D01*
G37*
D13*
X247900000Y-106600000D03*
D10*
G36*
X248674504Y-92301204D02*
X248698773Y-92304804D01*
X248722571Y-92310765D01*
X248745671Y-92319030D01*
X248767849Y-92329520D01*
X248788893Y-92342133D01*
X248808598Y-92356747D01*
X248826777Y-92373223D01*
X248843253Y-92391402D01*
X248857867Y-92411107D01*
X248870480Y-92432151D01*
X248880970Y-92454329D01*
X248889235Y-92477429D01*
X248895196Y-92501227D01*
X248898796Y-92525496D01*
X248900000Y-92550000D01*
X248900000Y-93050000D01*
X248898796Y-93074504D01*
X248895196Y-93098773D01*
X248889235Y-93122571D01*
X248880970Y-93145671D01*
X248870480Y-93167849D01*
X248857867Y-93188893D01*
X248843253Y-93208598D01*
X248826777Y-93226777D01*
X248808598Y-93243253D01*
X248788893Y-93257867D01*
X248767849Y-93270480D01*
X248745671Y-93280970D01*
X248722571Y-93289235D01*
X248698773Y-93295196D01*
X248674504Y-93298796D01*
X248650000Y-93300000D01*
X247150000Y-93300000D01*
X247125496Y-93298796D01*
X247101227Y-93295196D01*
X247077429Y-93289235D01*
X247054329Y-93280970D01*
X247032151Y-93270480D01*
X247011107Y-93257867D01*
X246991402Y-93243253D01*
X246973223Y-93226777D01*
X246956747Y-93208598D01*
X246942133Y-93188893D01*
X246929520Y-93167849D01*
X246919030Y-93145671D01*
X246910765Y-93122571D01*
X246904804Y-93098773D01*
X246901204Y-93074504D01*
X246900000Y-93050000D01*
X246900000Y-92550000D01*
X246901204Y-92525496D01*
X246904804Y-92501227D01*
X246910765Y-92477429D01*
X246919030Y-92454329D01*
X246929520Y-92432151D01*
X246942133Y-92411107D01*
X246956747Y-92391402D01*
X246973223Y-92373223D01*
X246991402Y-92356747D01*
X247011107Y-92342133D01*
X247032151Y-92329520D01*
X247054329Y-92319030D01*
X247077429Y-92310765D01*
X247101227Y-92304804D01*
X247125496Y-92301204D01*
X247150000Y-92300000D01*
X248650000Y-92300000D01*
X248674504Y-92301204D01*
X248674504Y-92301204D01*
G37*
D13*
X247900000Y-92800000D03*
D17*
X81900000Y-141570000D03*
D18*
X81900000Y-139030000D03*
X80500000Y-121270000D03*
D17*
X80500000Y-118730000D03*
X82000000Y-101070000D03*
D18*
X82000000Y-98530000D03*
D17*
X150750000Y-100970000D03*
D18*
X150750000Y-98430000D03*
D17*
X149250000Y-118730000D03*
D18*
X149250000Y-121270000D03*
D17*
X150750000Y-141570000D03*
D18*
X150750000Y-139030000D03*
D17*
X219500000Y-141570000D03*
D18*
X219500000Y-139030000D03*
D17*
X218000000Y-118730000D03*
D18*
X218000000Y-121270000D03*
X219500000Y-98430000D03*
D17*
X219500000Y-100970000D03*
M02*
