M48
;DRILL file {KiCad (5.0.0-rc2-dev-632-g76d3b6f04)} date 06/22/18 20:28:36
;FORMAT={2:4/ absolute / inch / suppress leading zeros}
FMAT,2
INCH,TZ
T1C0.0079
T2C0.0157
T3C0.0236
T4C0.0394
T5C0.2165
T6C0.2362
%
G90
G05
M72
T1
X33967Y-42657
X33967Y-49240
X34163Y-42854
X34360Y-43051
X34557Y-43839
X34754Y-43642
X55906Y-37461
X56053Y-37244
X58120Y-43150
X58120Y-43937
X58268Y-37461
X58317Y-43346
X58317Y-44134
X58415Y-37047
X59055Y-41280
X59055Y-43248
X59055Y-45217
X59400Y-42559
X59400Y-52028
X59596Y-42953
X59596Y-51831
X59793Y-45315
X59793Y-50453
X59843Y-37461
X59990Y-45512
X59990Y-50059
X60778Y-40984
X60778Y-41772
X60778Y-42362
X60778Y-51043
X60974Y-41181
X60974Y-41969
X60974Y-51240
X61073Y-42264
X61171Y-37047
X61171Y-41378
X61368Y-41575
X61565Y-37047
X62205Y-37461
X62205Y-41280
X62992Y-41280
X64321Y-41969
X64805Y-41577
X87089Y-57236
X91516Y-43346
X91713Y-43150
T2
X27152Y-51240
X27191Y-39291
X36785Y-47244
X54258Y-39252
X54258Y-55236
X63852Y-47244
X81325Y-39252
X81325Y-55236
X88939Y-39252
X90919Y-39252
X90919Y-47244
T3
X66289Y-39252
X66289Y-47244
X66761Y-38100
X66761Y-40404
X66761Y-46092
X66761Y-48396
X67913Y-37628
X67913Y-40876
X67913Y-45620
X67913Y-48868
X69066Y-38100
X69066Y-40404
X69066Y-46092
X69066Y-48396
X69537Y-39252
X69537Y-47244
X93356Y-47244
X93356Y-55236
X93828Y-46092
X93828Y-48396
X93828Y-54084
X93828Y-56389
X94980Y-45620
X94980Y-48868
X94980Y-53612
X94980Y-56860
X96133Y-46092
X96133Y-48396
X96133Y-54084
X96133Y-56389
X96604Y-47244
X96604Y-55236
X39222Y-39252
X39694Y-38100
X39694Y-40404
X40846Y-37628
X40846Y-40876
X41999Y-38100
X41999Y-40404
X42470Y-39252
X48573Y-39252
X49045Y-38100
X49045Y-40404
X50197Y-37628
X50197Y-40876
X51349Y-38100
X51349Y-40404
X51821Y-39252
X39222Y-47244
X39222Y-55236
X39694Y-46092
X39694Y-48396
X39694Y-54084
X39694Y-56389
X40846Y-45620
X40846Y-48868
X40846Y-53612
X40846Y-56860
X41999Y-46092
X41999Y-48396
X41999Y-54084
X41999Y-56389
X42470Y-47244
X42470Y-55236
X48573Y-47244
X48573Y-55236
X49045Y-46092
X49045Y-48396
X49045Y-54084
X49045Y-56389
X50197Y-45620
X50197Y-48868
X50197Y-53612
X50197Y-56860
X51349Y-46092
X51349Y-48396
X51349Y-54084
X51349Y-56389
X51821Y-47244
X51821Y-55236
X21506Y-39252
X21506Y-47244
X21978Y-38100
X21978Y-40404
X21978Y-46092
X21978Y-48396
X23130Y-37628
X23130Y-40876
X23130Y-45620
X23130Y-48868
X24282Y-38100
X24282Y-40404
X24282Y-46092
X24282Y-48396
X24754Y-39252
X24754Y-47244
X75640Y-39252
X75640Y-47244
X76111Y-38100
X76111Y-40404
X76111Y-46092
X76111Y-48396
X77264Y-37628
X77264Y-40876
X77264Y-45620
X77264Y-48868
X78416Y-38100
X78416Y-40404
X78416Y-46092
X78416Y-48396
X78888Y-39252
X78888Y-47244
X93356Y-39252
X93828Y-38100
X93828Y-40404
X94980Y-37628
X94980Y-40876
X96133Y-38100
X96133Y-40404
X96604Y-39252
X66289Y-55236
X66761Y-54084
X66761Y-56389
X67913Y-53612
X67913Y-56860
X69066Y-54084
X69066Y-56389
X69537Y-55236
X75640Y-55236
X76111Y-54084
X76111Y-56389
X77264Y-53612
X77264Y-56860
X78416Y-54084
X78416Y-56389
X78888Y-55236
X21506Y-55236
X21978Y-54084
X21978Y-56389
X23130Y-53612
X23130Y-56860
X24282Y-54084
X24282Y-56389
X24754Y-55236
T4
X85827Y-46744
X85827Y-47744
X86417Y-54736
X86417Y-55736
X59350Y-38752
X59350Y-39752
X85350Y-41476
X85350Y-45020
X86122Y-42657
X86122Y-43839
X58760Y-46744
X58760Y-47744
X86417Y-38752
X86417Y-39752
X59350Y-54736
X59350Y-55736
X31217Y-41476
X31217Y-45020
X31988Y-42657
X31988Y-43839
X32283Y-38791
X32283Y-39791
X32244Y-54736
X32244Y-55736
X31693Y-46744
X31693Y-47744
T5
X67913Y-55236
X77264Y-55236
X40846Y-39252
X50197Y-39252
X94980Y-39252
T6
X77264Y-39252
X77264Y-47244
X23130Y-55236
X67913Y-39252
X67913Y-47244
X94980Y-47244
X94980Y-55236
X40846Y-47244
X40846Y-55236
X50197Y-47244
X50197Y-55236
X23130Y-39252
X23130Y-47244
T0
M30
