%TF.GenerationSoftware,KiCad,Pcbnew,(5.0.0-rc2-dev-733-g23a9fcd91)*%
%TF.CreationDate,2018-05-26T11:51:58+02:00*%
%TF.ProjectId,CellsBoard,43656C6C73426F6172642E6B69636164,rev?*%
%TF.SameCoordinates,Original*%
%TF.FileFunction,Legend,Top*%
%TF.FilePolarity,Positive*%
%FSLAX46Y46*%
G04 Gerber Fmt 4.6, Leading zero omitted, Abs format (unit mm)*
G04 Created by KiCad (PCBNEW (5.0.0-rc2-dev-733-g23a9fcd91)) date 05/26/18 11:51:58*
%MOMM*%
%LPD*%
G01*
G04 APERTURE LIST*
%ADD10C,0.300000*%
%ADD11C,0.150000*%
%ADD12C,0.120000*%
%ADD13C,0.010000*%
G04 APERTURE END LIST*
D10*
X114017857Y-118492857D02*
X114089285Y-118278571D01*
X114160714Y-118207142D01*
X114303571Y-118135714D01*
X114517857Y-118135714D01*
X114660714Y-118207142D01*
X114732142Y-118278571D01*
X114803571Y-118421428D01*
X114803571Y-118992857D01*
X113303571Y-118992857D01*
X113303571Y-118492857D01*
X113375000Y-118350000D01*
X113446428Y-118278571D01*
X113589285Y-118207142D01*
X113732142Y-118207142D01*
X113875000Y-118278571D01*
X113946428Y-118350000D01*
X114017857Y-118492857D01*
X114017857Y-118992857D01*
X114803571Y-117492857D02*
X113303571Y-117492857D01*
X114375000Y-116992857D01*
X113303571Y-116492857D01*
X114803571Y-116492857D01*
X114732142Y-115850000D02*
X114803571Y-115635714D01*
X114803571Y-115278571D01*
X114732142Y-115135714D01*
X114660714Y-115064285D01*
X114517857Y-114992857D01*
X114375000Y-114992857D01*
X114232142Y-115064285D01*
X114160714Y-115135714D01*
X114089285Y-115278571D01*
X114017857Y-115564285D01*
X113946428Y-115707142D01*
X113875000Y-115778571D01*
X113732142Y-115850000D01*
X113589285Y-115850000D01*
X113446428Y-115778571D01*
X113375000Y-115707142D01*
X113303571Y-115564285D01*
X113303571Y-115207142D01*
X113375000Y-114992857D01*
X114660714Y-112350000D02*
X114732142Y-112421428D01*
X114803571Y-112635714D01*
X114803571Y-112778571D01*
X114732142Y-112992857D01*
X114589285Y-113135714D01*
X114446428Y-113207142D01*
X114160714Y-113278571D01*
X113946428Y-113278571D01*
X113660714Y-113207142D01*
X113517857Y-113135714D01*
X113375000Y-112992857D01*
X113303571Y-112778571D01*
X113303571Y-112635714D01*
X113375000Y-112421428D01*
X113446428Y-112350000D01*
X114732142Y-111135714D02*
X114803571Y-111278571D01*
X114803571Y-111564285D01*
X114732142Y-111707142D01*
X114589285Y-111778571D01*
X114017857Y-111778571D01*
X113875000Y-111707142D01*
X113803571Y-111564285D01*
X113803571Y-111278571D01*
X113875000Y-111135714D01*
X114017857Y-111064285D01*
X114160714Y-111064285D01*
X114303571Y-111778571D01*
X114803571Y-110207142D02*
X114732142Y-110350000D01*
X114589285Y-110421428D01*
X113303571Y-110421428D01*
X114803571Y-109421428D02*
X114732142Y-109564285D01*
X114589285Y-109635714D01*
X113303571Y-109635714D01*
X114732142Y-108921428D02*
X114803571Y-108778571D01*
X114803571Y-108492857D01*
X114732142Y-108350000D01*
X114589285Y-108278571D01*
X114517857Y-108278571D01*
X114375000Y-108350000D01*
X114303571Y-108492857D01*
X114303571Y-108707142D01*
X114232142Y-108850000D01*
X114089285Y-108921428D01*
X114017857Y-108921428D01*
X113875000Y-108850000D01*
X113803571Y-108707142D01*
X113803571Y-108492857D01*
X113875000Y-108350000D01*
X114017857Y-105992857D02*
X114089285Y-105778571D01*
X114160714Y-105707142D01*
X114303571Y-105635714D01*
X114517857Y-105635714D01*
X114660714Y-105707142D01*
X114732142Y-105778571D01*
X114803571Y-105921428D01*
X114803571Y-106492857D01*
X113303571Y-106492857D01*
X113303571Y-105992857D01*
X113375000Y-105850000D01*
X113446428Y-105778571D01*
X113589285Y-105707142D01*
X113732142Y-105707142D01*
X113875000Y-105778571D01*
X113946428Y-105850000D01*
X114017857Y-105992857D01*
X114017857Y-106492857D01*
X114803571Y-104778571D02*
X114732142Y-104921428D01*
X114660714Y-104992857D01*
X114517857Y-105064285D01*
X114089285Y-105064285D01*
X113946428Y-104992857D01*
X113875000Y-104921428D01*
X113803571Y-104778571D01*
X113803571Y-104564285D01*
X113875000Y-104421428D01*
X113946428Y-104350000D01*
X114089285Y-104278571D01*
X114517857Y-104278571D01*
X114660714Y-104350000D01*
X114732142Y-104421428D01*
X114803571Y-104564285D01*
X114803571Y-104778571D01*
X114803571Y-102992857D02*
X114017857Y-102992857D01*
X113875000Y-103064285D01*
X113803571Y-103207142D01*
X113803571Y-103492857D01*
X113875000Y-103635714D01*
X114732142Y-102992857D02*
X114803571Y-103135714D01*
X114803571Y-103492857D01*
X114732142Y-103635714D01*
X114589285Y-103707142D01*
X114446428Y-103707142D01*
X114303571Y-103635714D01*
X114232142Y-103492857D01*
X114232142Y-103135714D01*
X114160714Y-102992857D01*
X114803571Y-102278571D02*
X113803571Y-102278571D01*
X114089285Y-102278571D02*
X113946428Y-102207142D01*
X113875000Y-102135714D01*
X113803571Y-101992857D01*
X113803571Y-101850000D01*
X114803571Y-100707142D02*
X113303571Y-100707142D01*
X114732142Y-100707142D02*
X114803571Y-100850000D01*
X114803571Y-101135714D01*
X114732142Y-101278571D01*
X114660714Y-101350000D01*
X114517857Y-101421428D01*
X114089285Y-101421428D01*
X113946428Y-101350000D01*
X113875000Y-101278571D01*
X113803571Y-101135714D01*
X113803571Y-100850000D01*
X113875000Y-100707142D01*
X117353571Y-119992857D02*
X115853571Y-119992857D01*
X116425000Y-119992857D02*
X116353571Y-119850000D01*
X116353571Y-119564285D01*
X116425000Y-119421428D01*
X116496428Y-119350000D01*
X116639285Y-119278571D01*
X117067857Y-119278571D01*
X117210714Y-119350000D01*
X117282142Y-119421428D01*
X117353571Y-119564285D01*
X117353571Y-119850000D01*
X117282142Y-119992857D01*
X116353571Y-118778571D02*
X117353571Y-118421428D01*
X116353571Y-118064285D02*
X117353571Y-118421428D01*
X117710714Y-118564285D01*
X117782142Y-118635714D01*
X117853571Y-118778571D01*
X115925000Y-115564285D02*
X115853571Y-115707142D01*
X115853571Y-115921428D01*
X115925000Y-116135714D01*
X116067857Y-116278571D01*
X116210714Y-116350000D01*
X116496428Y-116421428D01*
X116710714Y-116421428D01*
X116996428Y-116350000D01*
X117139285Y-116278571D01*
X117282142Y-116135714D01*
X117353571Y-115921428D01*
X117353571Y-115778571D01*
X117282142Y-115564285D01*
X117210714Y-115492857D01*
X116710714Y-115492857D01*
X116710714Y-115778571D01*
X117353571Y-114850000D02*
X116353571Y-114850000D01*
X116639285Y-114850000D02*
X116496428Y-114778571D01*
X116425000Y-114707142D01*
X116353571Y-114564285D01*
X116353571Y-114421428D01*
X117282142Y-113350000D02*
X117353571Y-113492857D01*
X117353571Y-113778571D01*
X117282142Y-113921428D01*
X117139285Y-113992857D01*
X116567857Y-113992857D01*
X116425000Y-113921428D01*
X116353571Y-113778571D01*
X116353571Y-113492857D01*
X116425000Y-113350000D01*
X116567857Y-113278571D01*
X116710714Y-113278571D01*
X116853571Y-113992857D01*
X116353571Y-111992857D02*
X117567857Y-111992857D01*
X117710714Y-112064285D01*
X117782142Y-112135714D01*
X117853571Y-112278571D01*
X117853571Y-112492857D01*
X117782142Y-112635714D01*
X117282142Y-111992857D02*
X117353571Y-112135714D01*
X117353571Y-112421428D01*
X117282142Y-112564285D01*
X117210714Y-112635714D01*
X117067857Y-112707142D01*
X116639285Y-112707142D01*
X116496428Y-112635714D01*
X116425000Y-112564285D01*
X116353571Y-112421428D01*
X116353571Y-112135714D01*
X116425000Y-111992857D01*
X117353571Y-111064285D02*
X117282142Y-111207142D01*
X117210714Y-111278571D01*
X117067857Y-111350000D01*
X116639285Y-111350000D01*
X116496428Y-111278571D01*
X116425000Y-111207142D01*
X116353571Y-111064285D01*
X116353571Y-110850000D01*
X116425000Y-110707142D01*
X116496428Y-110635714D01*
X116639285Y-110564285D01*
X117067857Y-110564285D01*
X117210714Y-110635714D01*
X117282142Y-110707142D01*
X117353571Y-110850000D01*
X117353571Y-111064285D01*
X117353571Y-109921428D02*
X116353571Y-109921428D01*
X116639285Y-109921428D02*
X116496428Y-109850000D01*
X116425000Y-109778571D01*
X116353571Y-109635714D01*
X116353571Y-109492857D01*
X115925000Y-107064285D02*
X115853571Y-107207142D01*
X115853571Y-107421428D01*
X115925000Y-107635714D01*
X116067857Y-107778571D01*
X116210714Y-107850000D01*
X116496428Y-107921428D01*
X116710714Y-107921428D01*
X116996428Y-107850000D01*
X117139285Y-107778571D01*
X117282142Y-107635714D01*
X117353571Y-107421428D01*
X117353571Y-107278571D01*
X117282142Y-107064285D01*
X117210714Y-106992857D01*
X116710714Y-106992857D01*
X116710714Y-107278571D01*
X117353571Y-106135714D02*
X117282142Y-106278571D01*
X117210714Y-106350000D01*
X117067857Y-106421428D01*
X116639285Y-106421428D01*
X116496428Y-106350000D01*
X116425000Y-106278571D01*
X116353571Y-106135714D01*
X116353571Y-105921428D01*
X116425000Y-105778571D01*
X116496428Y-105707142D01*
X116639285Y-105635714D01*
X117067857Y-105635714D01*
X117210714Y-105707142D01*
X117282142Y-105778571D01*
X117353571Y-105921428D01*
X117353571Y-106135714D01*
X117353571Y-104992857D02*
X116353571Y-104992857D01*
X116496428Y-104992857D02*
X116425000Y-104921428D01*
X116353571Y-104778571D01*
X116353571Y-104564285D01*
X116425000Y-104421428D01*
X116567857Y-104350000D01*
X117353571Y-104350000D01*
X116567857Y-104350000D02*
X116425000Y-104278571D01*
X116353571Y-104135714D01*
X116353571Y-103921428D01*
X116425000Y-103778571D01*
X116567857Y-103707142D01*
X117353571Y-103707142D01*
X117353571Y-102992857D02*
X115853571Y-102992857D01*
X116425000Y-102992857D02*
X116353571Y-102850000D01*
X116353571Y-102564285D01*
X116425000Y-102421428D01*
X116496428Y-102350000D01*
X116639285Y-102278571D01*
X117067857Y-102278571D01*
X117210714Y-102350000D01*
X117282142Y-102421428D01*
X117353571Y-102564285D01*
X117353571Y-102850000D01*
X117282142Y-102992857D01*
X117353571Y-100992857D02*
X116567857Y-100992857D01*
X116425000Y-101064285D01*
X116353571Y-101207142D01*
X116353571Y-101492857D01*
X116425000Y-101635714D01*
X117282142Y-100992857D02*
X117353571Y-101135714D01*
X117353571Y-101492857D01*
X117282142Y-101635714D01*
X117139285Y-101707142D01*
X116996428Y-101707142D01*
X116853571Y-101635714D01*
X116782142Y-101492857D01*
X116782142Y-101135714D01*
X116710714Y-100992857D01*
X117282142Y-99635714D02*
X117353571Y-99778571D01*
X117353571Y-100064285D01*
X117282142Y-100207142D01*
X117210714Y-100278571D01*
X117067857Y-100350000D01*
X116639285Y-100350000D01*
X116496428Y-100278571D01*
X116425000Y-100207142D01*
X116353571Y-100064285D01*
X116353571Y-99778571D01*
X116425000Y-99635714D01*
X115782142Y-100207142D02*
X115996428Y-99921428D01*
X115782142Y-99635714D01*
X74128571Y-123107142D02*
X73128571Y-123107142D01*
X72628571Y-123107142D02*
X72700000Y-123178571D01*
X72771428Y-123107142D01*
X72700000Y-123035714D01*
X72628571Y-123107142D01*
X72771428Y-123107142D01*
X74057142Y-122464285D02*
X74128571Y-122321428D01*
X74128571Y-122035714D01*
X74057142Y-121892857D01*
X73914285Y-121821428D01*
X73842857Y-121821428D01*
X73700000Y-121892857D01*
X73628571Y-122035714D01*
X73628571Y-122250000D01*
X73557142Y-122392857D01*
X73414285Y-122464285D01*
X73342857Y-122464285D01*
X73200000Y-122392857D01*
X73128571Y-122250000D01*
X73128571Y-122035714D01*
X73200000Y-121892857D01*
X74128571Y-120964285D02*
X74057142Y-121107142D01*
X73985714Y-121178571D01*
X73842857Y-121250000D01*
X73414285Y-121250000D01*
X73271428Y-121178571D01*
X73200000Y-121107142D01*
X73128571Y-120964285D01*
X73128571Y-120750000D01*
X73200000Y-120607142D01*
X73271428Y-120535714D01*
X73414285Y-120464285D01*
X73842857Y-120464285D01*
X73985714Y-120535714D01*
X74057142Y-120607142D01*
X74128571Y-120750000D01*
X74128571Y-120964285D01*
X74057142Y-119892857D02*
X74128571Y-119678571D01*
X74128571Y-119321428D01*
X74057142Y-119178571D01*
X73985714Y-119107142D01*
X73842857Y-119035714D01*
X73700000Y-119035714D01*
X73557142Y-119107142D01*
X73485714Y-119178571D01*
X73414285Y-119321428D01*
X73342857Y-119607142D01*
X73271428Y-119750000D01*
X73200000Y-119821428D01*
X73057142Y-119892857D01*
X72914285Y-119892857D01*
X72771428Y-119821428D01*
X72700000Y-119750000D01*
X72628571Y-119607142D01*
X72628571Y-119250000D01*
X72700000Y-119035714D01*
X74128571Y-118392857D02*
X72628571Y-118392857D01*
X72628571Y-117821428D01*
X72700000Y-117678571D01*
X72771428Y-117607142D01*
X72914285Y-117535714D01*
X73128571Y-117535714D01*
X73271428Y-117607142D01*
X73342857Y-117678571D01*
X73414285Y-117821428D01*
X73414285Y-118392857D01*
X74128571Y-116892857D02*
X72628571Y-116892857D01*
X67928571Y-104200000D02*
X66428571Y-104200000D01*
X66428571Y-103628571D01*
X66500000Y-103485714D01*
X66571428Y-103414285D01*
X66714285Y-103342857D01*
X66928571Y-103342857D01*
X67071428Y-103414285D01*
X67142857Y-103485714D01*
X67214285Y-103628571D01*
X67214285Y-104200000D01*
X66428571Y-102414285D02*
X66428571Y-102128571D01*
X66500000Y-101985714D01*
X66642857Y-101842857D01*
X66928571Y-101771428D01*
X67428571Y-101771428D01*
X67714285Y-101842857D01*
X67857142Y-101985714D01*
X67928571Y-102128571D01*
X67928571Y-102414285D01*
X67857142Y-102557142D01*
X67714285Y-102700000D01*
X67428571Y-102771428D01*
X66928571Y-102771428D01*
X66642857Y-102700000D01*
X66500000Y-102557142D01*
X66428571Y-102414285D01*
X67857142Y-101200000D02*
X67928571Y-100985714D01*
X67928571Y-100628571D01*
X67857142Y-100485714D01*
X67785714Y-100414285D01*
X67642857Y-100342857D01*
X67500000Y-100342857D01*
X67357142Y-100414285D01*
X67285714Y-100485714D01*
X67214285Y-100628571D01*
X67142857Y-100914285D01*
X67071428Y-101057142D01*
X67000000Y-101128571D01*
X66857142Y-101200000D01*
X66714285Y-101200000D01*
X66571428Y-101128571D01*
X66500000Y-101057142D01*
X66428571Y-100914285D01*
X66428571Y-100557142D01*
X66500000Y-100342857D01*
X67928571Y-99700000D02*
X66428571Y-99700000D01*
X66428571Y-99200000D02*
X66428571Y-98342857D01*
X67928571Y-98771428D02*
X66428571Y-98771428D01*
X67928571Y-97842857D02*
X66428571Y-97842857D01*
X66428571Y-97342857D02*
X67928571Y-96842857D01*
X66428571Y-96342857D01*
X67142857Y-95842857D02*
X67142857Y-95342857D01*
X67928571Y-95128571D02*
X67928571Y-95842857D01*
X66428571Y-95842857D01*
X66428571Y-95128571D01*
X224628571Y-145050000D02*
X223128571Y-145050000D01*
X224628571Y-144192857D01*
X223128571Y-144192857D01*
X223842857Y-143478571D02*
X223842857Y-142978571D01*
X224628571Y-142764285D02*
X224628571Y-143478571D01*
X223128571Y-143478571D01*
X223128571Y-142764285D01*
X223200000Y-141335714D02*
X223128571Y-141478571D01*
X223128571Y-141692857D01*
X223200000Y-141907142D01*
X223342857Y-142050000D01*
X223485714Y-142121428D01*
X223771428Y-142192857D01*
X223985714Y-142192857D01*
X224271428Y-142121428D01*
X224414285Y-142050000D01*
X224557142Y-141907142D01*
X224628571Y-141692857D01*
X224628571Y-141550000D01*
X224557142Y-141335714D01*
X224485714Y-141264285D01*
X223985714Y-141264285D01*
X223985714Y-141550000D01*
X224200000Y-140692857D02*
X224200000Y-139978571D01*
X224628571Y-140835714D02*
X223128571Y-140335714D01*
X224628571Y-139835714D01*
X223128571Y-139550000D02*
X223128571Y-138692857D01*
X224628571Y-139121428D02*
X223128571Y-139121428D01*
X224628571Y-138192857D02*
X223128571Y-138192857D01*
X223128571Y-137692857D02*
X224628571Y-137192857D01*
X223128571Y-136692857D01*
X223842857Y-136192857D02*
X223842857Y-135692857D01*
X224628571Y-135478571D02*
X224628571Y-136192857D01*
X223128571Y-136192857D01*
X223128571Y-135478571D01*
D11*
X226950000Y-132300000D02*
X229950000Y-132300000D01*
X225950000Y-147300000D02*
X225950000Y-133300000D01*
X229950000Y-148300000D02*
X226950000Y-148300000D01*
X230950000Y-133300000D02*
X230950000Y-147300000D01*
X226950000Y-148300000D02*
G75*
G02X225950000Y-147300000I0J1000000D01*
G01*
X225950000Y-133300000D02*
G75*
G02X226950000Y-132300000I1000000J0D01*
G01*
X229950000Y-132300000D02*
G75*
G02X230950000Y-133300000I0J-1000000D01*
G01*
X230950000Y-147300000D02*
G75*
G02X229950000Y-148300000I-1000000J0D01*
G01*
X247500000Y-90000000D02*
X52500000Y-90000000D01*
X247500000Y-90000000D02*
G75*
G02X250000000Y-92500000I0J-2500000D01*
G01*
X250000000Y-147500000D02*
X250000000Y-92500000D01*
X250000000Y-147500000D02*
G75*
G02X247500000Y-150000000I-2500000J0D01*
G01*
X52500000Y-150000000D02*
X247500000Y-150000000D01*
X52500000Y-150000000D02*
G75*
G02X50000000Y-147500000I0J2500000D01*
G01*
X50000000Y-92500000D02*
X50000000Y-147500000D01*
X50000000Y-92500000D02*
G75*
G02X52500000Y-90000000I2500000J0D01*
G01*
D12*
X70870000Y-106335000D02*
X70870000Y-106220000D01*
X71370000Y-106335000D02*
X70870000Y-106335000D01*
X71370000Y-113365000D02*
X71370000Y-106335000D01*
X70870000Y-113365000D02*
X71370000Y-113365000D01*
X70870000Y-113480000D02*
X70870000Y-113365000D01*
X75460000Y-104915000D02*
X72250000Y-104915000D01*
X75460000Y-114785000D02*
X75460000Y-104915000D01*
X72250000Y-114785000D02*
X75460000Y-114785000D01*
X70870000Y-126635000D02*
X70870000Y-126520000D01*
X71370000Y-126635000D02*
X70870000Y-126635000D01*
X71370000Y-133665000D02*
X71370000Y-126635000D01*
X70870000Y-133665000D02*
X71370000Y-133665000D01*
X70870000Y-133780000D02*
X70870000Y-133665000D01*
X75460000Y-125215000D02*
X72250000Y-125215000D01*
X75460000Y-135085000D02*
X75460000Y-125215000D01*
X72250000Y-135085000D02*
X75460000Y-135085000D01*
D13*
G36*
X153670160Y-128839360D02*
X153101200Y-128839360D01*
X153101200Y-128656480D01*
X153670160Y-128656480D01*
X153670160Y-128839360D01*
X153670160Y-128839360D01*
G37*
X153670160Y-128839360D02*
X153101200Y-128839360D01*
X153101200Y-128656480D01*
X153670160Y-128656480D01*
X153670160Y-128839360D01*
G36*
X162790619Y-128210428D02*
X162870922Y-128229610D01*
X162936867Y-128262873D01*
X162989555Y-128311113D01*
X163030089Y-128375225D01*
X163048435Y-128419951D01*
X163054389Y-128437611D01*
X163059290Y-128454554D01*
X163063260Y-128472935D01*
X163066425Y-128494909D01*
X163068908Y-128522632D01*
X163070833Y-128558258D01*
X163072322Y-128603943D01*
X163073501Y-128661843D01*
X163074493Y-128734111D01*
X163075422Y-128822904D01*
X163076162Y-128902860D01*
X163079911Y-129316880D01*
X162978168Y-129316880D01*
X162974300Y-128913020D01*
X162973209Y-128809056D01*
X162972049Y-128723327D01*
X162970723Y-128653749D01*
X162969132Y-128598236D01*
X162967179Y-128554704D01*
X162964766Y-128521067D01*
X162961794Y-128495240D01*
X162958166Y-128475140D01*
X162953784Y-128458680D01*
X162952820Y-128455676D01*
X162924362Y-128395829D01*
X162883371Y-128346300D01*
X162833703Y-128311653D01*
X162829487Y-128309668D01*
X162792281Y-128298841D01*
X162742653Y-128292452D01*
X162688073Y-128290786D01*
X162636012Y-128294130D01*
X162600195Y-128300879D01*
X162559663Y-128317038D01*
X162509835Y-128344389D01*
X162455771Y-128379745D01*
X162402532Y-128419921D01*
X162377397Y-128441179D01*
X162316320Y-128495118D01*
X162316320Y-129316880D01*
X162214720Y-129316880D01*
X162214720Y-128229760D01*
X162306160Y-128229760D01*
X162306160Y-128284370D01*
X162307365Y-128322426D01*
X162310428Y-128357388D01*
X162312461Y-128370485D01*
X162318762Y-128401991D01*
X162386121Y-128345836D01*
X162476921Y-128280699D01*
X162568755Y-128235811D01*
X162661575Y-128211186D01*
X162755333Y-128206841D01*
X162790619Y-128210428D01*
X162790619Y-128210428D01*
G37*
X162790619Y-128210428D02*
X162870922Y-128229610D01*
X162936867Y-128262873D01*
X162989555Y-128311113D01*
X163030089Y-128375225D01*
X163048435Y-128419951D01*
X163054389Y-128437611D01*
X163059290Y-128454554D01*
X163063260Y-128472935D01*
X163066425Y-128494909D01*
X163068908Y-128522632D01*
X163070833Y-128558258D01*
X163072322Y-128603943D01*
X163073501Y-128661843D01*
X163074493Y-128734111D01*
X163075422Y-128822904D01*
X163076162Y-128902860D01*
X163079911Y-129316880D01*
X162978168Y-129316880D01*
X162974300Y-128913020D01*
X162973209Y-128809056D01*
X162972049Y-128723327D01*
X162970723Y-128653749D01*
X162969132Y-128598236D01*
X162967179Y-128554704D01*
X162964766Y-128521067D01*
X162961794Y-128495240D01*
X162958166Y-128475140D01*
X162953784Y-128458680D01*
X162952820Y-128455676D01*
X162924362Y-128395829D01*
X162883371Y-128346300D01*
X162833703Y-128311653D01*
X162829487Y-128309668D01*
X162792281Y-128298841D01*
X162742653Y-128292452D01*
X162688073Y-128290786D01*
X162636012Y-128294130D01*
X162600195Y-128300879D01*
X162559663Y-128317038D01*
X162509835Y-128344389D01*
X162455771Y-128379745D01*
X162402532Y-128419921D01*
X162377397Y-128441179D01*
X162316320Y-128495118D01*
X162316320Y-129316880D01*
X162214720Y-129316880D01*
X162214720Y-128229760D01*
X162306160Y-128229760D01*
X162306160Y-128284370D01*
X162307365Y-128322426D01*
X162310428Y-128357388D01*
X162312461Y-128370485D01*
X162318762Y-128401991D01*
X162386121Y-128345836D01*
X162476921Y-128280699D01*
X162568755Y-128235811D01*
X162661575Y-128211186D01*
X162755333Y-128206841D01*
X162790619Y-128210428D01*
G36*
X160771066Y-128205528D02*
X160800914Y-128214348D01*
X160817257Y-128226406D01*
X160818373Y-128236801D01*
X160811207Y-128258849D01*
X160806670Y-128275405D01*
X160802650Y-128287034D01*
X160794871Y-128293594D01*
X160778857Y-128296020D01*
X160750130Y-128295249D01*
X160720819Y-128293361D01*
X160677959Y-128291227D01*
X160647439Y-128292746D01*
X160621417Y-128299179D01*
X160592055Y-128311786D01*
X160584986Y-128315211D01*
X160529889Y-128351054D01*
X160475734Y-128402731D01*
X160426647Y-128466004D01*
X160406561Y-128498437D01*
X160375760Y-128552273D01*
X160375760Y-129316880D01*
X160274160Y-129316880D01*
X160274160Y-128229760D01*
X160313712Y-128229760D01*
X160337002Y-128231242D01*
X160352060Y-128238094D01*
X160360675Y-128253921D01*
X160364636Y-128282330D01*
X160365729Y-128326927D01*
X160365755Y-128334730D01*
X160367016Y-128382697D01*
X160371153Y-128411355D01*
X160379069Y-128421619D01*
X160391669Y-128414405D01*
X160409857Y-128390628D01*
X160414292Y-128383892D01*
X160469445Y-128313581D01*
X160532774Y-128259011D01*
X160602128Y-128221620D01*
X160675358Y-128202847D01*
X160686411Y-128201737D01*
X160731602Y-128200980D01*
X160771066Y-128205528D01*
X160771066Y-128205528D01*
G37*
X160771066Y-128205528D02*
X160800914Y-128214348D01*
X160817257Y-128226406D01*
X160818373Y-128236801D01*
X160811207Y-128258849D01*
X160806670Y-128275405D01*
X160802650Y-128287034D01*
X160794871Y-128293594D01*
X160778857Y-128296020D01*
X160750130Y-128295249D01*
X160720819Y-128293361D01*
X160677959Y-128291227D01*
X160647439Y-128292746D01*
X160621417Y-128299179D01*
X160592055Y-128311786D01*
X160584986Y-128315211D01*
X160529889Y-128351054D01*
X160475734Y-128402731D01*
X160426647Y-128466004D01*
X160406561Y-128498437D01*
X160375760Y-128552273D01*
X160375760Y-129316880D01*
X160274160Y-129316880D01*
X160274160Y-128229760D01*
X160313712Y-128229760D01*
X160337002Y-128231242D01*
X160352060Y-128238094D01*
X160360675Y-128253921D01*
X160364636Y-128282330D01*
X160365729Y-128326927D01*
X160365755Y-128334730D01*
X160367016Y-128382697D01*
X160371153Y-128411355D01*
X160379069Y-128421619D01*
X160391669Y-128414405D01*
X160409857Y-128390628D01*
X160414292Y-128383892D01*
X160469445Y-128313581D01*
X160532774Y-128259011D01*
X160602128Y-128221620D01*
X160675358Y-128202847D01*
X160686411Y-128201737D01*
X160731602Y-128200980D01*
X160771066Y-128205528D01*
G36*
X159979520Y-127904640D02*
X159471520Y-127904640D01*
X159471520Y-129316880D01*
X159359760Y-129316880D01*
X159359760Y-127904640D01*
X158851760Y-127904640D01*
X158851760Y-127823360D01*
X159979520Y-127823360D01*
X159979520Y-127904640D01*
X159979520Y-127904640D01*
G37*
X159979520Y-127904640D02*
X159471520Y-127904640D01*
X159471520Y-129316880D01*
X159359760Y-129316880D01*
X159359760Y-127904640D01*
X158851760Y-127904640D01*
X158851760Y-127823360D01*
X159979520Y-127823360D01*
X159979520Y-127904640D01*
G36*
X154648537Y-127907180D02*
X154658367Y-127935714D01*
X154673700Y-127979927D01*
X154693871Y-128037914D01*
X154718213Y-128107774D01*
X154746062Y-128187605D01*
X154776751Y-128275503D01*
X154809614Y-128369567D01*
X154843987Y-128467894D01*
X154879202Y-128568581D01*
X154914594Y-128669725D01*
X154949498Y-128769426D01*
X154983248Y-128865779D01*
X155015177Y-128956883D01*
X155044621Y-129040835D01*
X155070914Y-129115732D01*
X155093389Y-129179673D01*
X155111381Y-129230754D01*
X155124224Y-129267073D01*
X155131252Y-129286728D01*
X155132173Y-129289210D01*
X155143062Y-129317421D01*
X154994707Y-129314610D01*
X154846352Y-129311800D01*
X154788854Y-129121546D01*
X154770549Y-129062180D01*
X154753549Y-129009280D01*
X154738931Y-128966024D01*
X154727772Y-128935590D01*
X154721149Y-128921155D01*
X154720775Y-128920711D01*
X154706604Y-128917110D01*
X154672562Y-128914503D01*
X154619072Y-128912900D01*
X154546559Y-128912316D01*
X154455449Y-128912761D01*
X154447096Y-128912844D01*
X154184000Y-128915560D01*
X154123288Y-129116220D01*
X154062575Y-129316880D01*
X153782540Y-129316880D01*
X153857061Y-129100980D01*
X153875210Y-129048369D01*
X153898995Y-128979374D01*
X153927441Y-128896828D01*
X153959572Y-128803560D01*
X153994414Y-128702403D01*
X153996794Y-128695490D01*
X154252653Y-128695490D01*
X154256818Y-128699965D01*
X154268154Y-128703143D01*
X154289156Y-128705244D01*
X154322321Y-128706487D01*
X154370145Y-128707090D01*
X154435124Y-128707274D01*
X154455772Y-128707280D01*
X154663633Y-128707280D01*
X154639019Y-128628540D01*
X154629318Y-128596872D01*
X154615030Y-128549380D01*
X154597249Y-128489748D01*
X154577073Y-128421661D01*
X154555596Y-128348802D01*
X154538919Y-128291963D01*
X154518578Y-128222964D01*
X154499900Y-128160522D01*
X154483689Y-128107250D01*
X154470749Y-128065763D01*
X154461884Y-128038676D01*
X154457956Y-128028650D01*
X154453115Y-128026151D01*
X154448003Y-128030289D01*
X154441729Y-128043504D01*
X154433402Y-128068236D01*
X154422130Y-128106926D01*
X154407023Y-128162016D01*
X154400725Y-128185395D01*
X154382597Y-128251400D01*
X154360796Y-128328502D01*
X154337704Y-128408399D01*
X154315704Y-128482790D01*
X154309282Y-128504080D01*
X154292219Y-128560341D01*
X154276962Y-128610697D01*
X154264598Y-128651554D01*
X154256216Y-128679318D01*
X154253163Y-128689500D01*
X154252653Y-128695490D01*
X153996794Y-128695490D01*
X154030990Y-128596187D01*
X154068327Y-128487743D01*
X154105448Y-128379903D01*
X154112539Y-128359300D01*
X154293496Y-127833520D01*
X154623363Y-127833520D01*
X154648537Y-127907180D01*
X154648537Y-127907180D01*
G37*
X154648537Y-127907180D02*
X154658367Y-127935714D01*
X154673700Y-127979927D01*
X154693871Y-128037914D01*
X154718213Y-128107774D01*
X154746062Y-128187605D01*
X154776751Y-128275503D01*
X154809614Y-128369567D01*
X154843987Y-128467894D01*
X154879202Y-128568581D01*
X154914594Y-128669725D01*
X154949498Y-128769426D01*
X154983248Y-128865779D01*
X155015177Y-128956883D01*
X155044621Y-129040835D01*
X155070914Y-129115732D01*
X155093389Y-129179673D01*
X155111381Y-129230754D01*
X155124224Y-129267073D01*
X155131252Y-129286728D01*
X155132173Y-129289210D01*
X155143062Y-129317421D01*
X154994707Y-129314610D01*
X154846352Y-129311800D01*
X154788854Y-129121546D01*
X154770549Y-129062180D01*
X154753549Y-129009280D01*
X154738931Y-128966024D01*
X154727772Y-128935590D01*
X154721149Y-128921155D01*
X154720775Y-128920711D01*
X154706604Y-128917110D01*
X154672562Y-128914503D01*
X154619072Y-128912900D01*
X154546559Y-128912316D01*
X154455449Y-128912761D01*
X154447096Y-128912844D01*
X154184000Y-128915560D01*
X154123288Y-129116220D01*
X154062575Y-129316880D01*
X153782540Y-129316880D01*
X153857061Y-129100980D01*
X153875210Y-129048369D01*
X153898995Y-128979374D01*
X153927441Y-128896828D01*
X153959572Y-128803560D01*
X153994414Y-128702403D01*
X153996794Y-128695490D01*
X154252653Y-128695490D01*
X154256818Y-128699965D01*
X154268154Y-128703143D01*
X154289156Y-128705244D01*
X154322321Y-128706487D01*
X154370145Y-128707090D01*
X154435124Y-128707274D01*
X154455772Y-128707280D01*
X154663633Y-128707280D01*
X154639019Y-128628540D01*
X154629318Y-128596872D01*
X154615030Y-128549380D01*
X154597249Y-128489748D01*
X154577073Y-128421661D01*
X154555596Y-128348802D01*
X154538919Y-128291963D01*
X154518578Y-128222964D01*
X154499900Y-128160522D01*
X154483689Y-128107250D01*
X154470749Y-128065763D01*
X154461884Y-128038676D01*
X154457956Y-128028650D01*
X154453115Y-128026151D01*
X154448003Y-128030289D01*
X154441729Y-128043504D01*
X154433402Y-128068236D01*
X154422130Y-128106926D01*
X154407023Y-128162016D01*
X154400725Y-128185395D01*
X154382597Y-128251400D01*
X154360796Y-128328502D01*
X154337704Y-128408399D01*
X154315704Y-128482790D01*
X154309282Y-128504080D01*
X154292219Y-128560341D01*
X154276962Y-128610697D01*
X154264598Y-128651554D01*
X154256216Y-128679318D01*
X154253163Y-128689500D01*
X154252653Y-128695490D01*
X153996794Y-128695490D01*
X154030990Y-128596187D01*
X154068327Y-128487743D01*
X154105448Y-128379903D01*
X154112539Y-128359300D01*
X154293496Y-127833520D01*
X154623363Y-127833520D01*
X154648537Y-127907180D01*
G36*
X152847200Y-128046880D02*
X152176640Y-128046880D01*
X152176640Y-128432960D01*
X152745600Y-128432960D01*
X152745600Y-128646320D01*
X152176251Y-128646320D01*
X152178985Y-128872380D01*
X152181720Y-129098440D01*
X152877680Y-129103786D01*
X152877680Y-129316880D01*
X151892160Y-129316880D01*
X151892160Y-127833520D01*
X152847200Y-127833520D01*
X152847200Y-128046880D01*
X152847200Y-128046880D01*
G37*
X152847200Y-128046880D02*
X152176640Y-128046880D01*
X152176640Y-128432960D01*
X152745600Y-128432960D01*
X152745600Y-128646320D01*
X152176251Y-128646320D01*
X152178985Y-128872380D01*
X152181720Y-129098440D01*
X152877680Y-129103786D01*
X152877680Y-129316880D01*
X151892160Y-129316880D01*
X151892160Y-127833520D01*
X152847200Y-127833520D01*
X152847200Y-128046880D01*
G36*
X164768175Y-128204097D02*
X164854530Y-128222768D01*
X164936792Y-128255705D01*
X165012646Y-128302898D01*
X165079784Y-128364337D01*
X165135891Y-128440015D01*
X165156196Y-128477226D01*
X165190476Y-128566565D01*
X165211942Y-128666096D01*
X165220104Y-128769857D01*
X165214470Y-128871882D01*
X165196038Y-128961280D01*
X165157506Y-129058640D01*
X165103768Y-129143926D01*
X165036236Y-129215725D01*
X164956320Y-129272630D01*
X164865430Y-129313230D01*
X164834664Y-129322441D01*
X164782594Y-129331536D01*
X164719114Y-129335626D01*
X164652502Y-129334739D01*
X164591036Y-129328900D01*
X164554207Y-129321537D01*
X164469349Y-129289244D01*
X164390055Y-129241016D01*
X164320248Y-129180077D01*
X164263852Y-129109650D01*
X164236198Y-129060215D01*
X164199198Y-128958016D01*
X164179400Y-128848991D01*
X164177474Y-128767353D01*
X164277200Y-128767353D01*
X164285435Y-128873473D01*
X164309648Y-128970574D01*
X164349101Y-129056964D01*
X164403055Y-129130954D01*
X164458137Y-129181596D01*
X164525477Y-129220803D01*
X164602444Y-129245117D01*
X164684385Y-129254104D01*
X164766647Y-129247327D01*
X164844577Y-129224350D01*
X164856810Y-129218919D01*
X164933303Y-129172365D01*
X164996277Y-129110765D01*
X165045513Y-129034429D01*
X165080793Y-128943673D01*
X165096681Y-128873997D01*
X165106000Y-128773435D01*
X165099451Y-128677536D01*
X165078324Y-128588044D01*
X165043908Y-128506702D01*
X164997493Y-128435252D01*
X164940368Y-128375438D01*
X164873823Y-128329003D01*
X164799148Y-128297690D01*
X164717632Y-128283241D01*
X164660063Y-128283844D01*
X164576178Y-128300547D01*
X164499792Y-128334844D01*
X164432328Y-128384939D01*
X164375207Y-128449035D01*
X164329852Y-128525337D01*
X164297685Y-128612048D01*
X164280129Y-128707372D01*
X164277200Y-128767353D01*
X164177474Y-128767353D01*
X164176758Y-128737055D01*
X164191225Y-128626124D01*
X164222753Y-128520112D01*
X164243206Y-128473600D01*
X164293501Y-128392156D01*
X164355881Y-128325043D01*
X164428036Y-128272249D01*
X164507655Y-128233768D01*
X164592425Y-128209588D01*
X164680036Y-128199701D01*
X164768175Y-128204097D01*
X164768175Y-128204097D01*
G37*
X164768175Y-128204097D02*
X164854530Y-128222768D01*
X164936792Y-128255705D01*
X165012646Y-128302898D01*
X165079784Y-128364337D01*
X165135891Y-128440015D01*
X165156196Y-128477226D01*
X165190476Y-128566565D01*
X165211942Y-128666096D01*
X165220104Y-128769857D01*
X165214470Y-128871882D01*
X165196038Y-128961280D01*
X165157506Y-129058640D01*
X165103768Y-129143926D01*
X165036236Y-129215725D01*
X164956320Y-129272630D01*
X164865430Y-129313230D01*
X164834664Y-129322441D01*
X164782594Y-129331536D01*
X164719114Y-129335626D01*
X164652502Y-129334739D01*
X164591036Y-129328900D01*
X164554207Y-129321537D01*
X164469349Y-129289244D01*
X164390055Y-129241016D01*
X164320248Y-129180077D01*
X164263852Y-129109650D01*
X164236198Y-129060215D01*
X164199198Y-128958016D01*
X164179400Y-128848991D01*
X164177474Y-128767353D01*
X164277200Y-128767353D01*
X164285435Y-128873473D01*
X164309648Y-128970574D01*
X164349101Y-129056964D01*
X164403055Y-129130954D01*
X164458137Y-129181596D01*
X164525477Y-129220803D01*
X164602444Y-129245117D01*
X164684385Y-129254104D01*
X164766647Y-129247327D01*
X164844577Y-129224350D01*
X164856810Y-129218919D01*
X164933303Y-129172365D01*
X164996277Y-129110765D01*
X165045513Y-129034429D01*
X165080793Y-128943673D01*
X165096681Y-128873997D01*
X165106000Y-128773435D01*
X165099451Y-128677536D01*
X165078324Y-128588044D01*
X165043908Y-128506702D01*
X164997493Y-128435252D01*
X164940368Y-128375438D01*
X164873823Y-128329003D01*
X164799148Y-128297690D01*
X164717632Y-128283241D01*
X164660063Y-128283844D01*
X164576178Y-128300547D01*
X164499792Y-128334844D01*
X164432328Y-128384939D01*
X164375207Y-128449035D01*
X164329852Y-128525337D01*
X164297685Y-128612048D01*
X164280129Y-128707372D01*
X164277200Y-128767353D01*
X164177474Y-128767353D01*
X164176758Y-128737055D01*
X164191225Y-128626124D01*
X164222753Y-128520112D01*
X164243206Y-128473600D01*
X164293501Y-128392156D01*
X164355881Y-128325043D01*
X164428036Y-128272249D01*
X164507655Y-128233768D01*
X164592425Y-128209588D01*
X164680036Y-128199701D01*
X164768175Y-128204097D01*
G36*
X157790707Y-128178690D02*
X157793111Y-128179038D01*
X157890378Y-128202389D01*
X157975453Y-128241767D01*
X158047785Y-128296542D01*
X158106825Y-128366085D01*
X158152022Y-128449769D01*
X158182825Y-128546964D01*
X158197375Y-128640770D01*
X158199847Y-128688112D01*
X158199546Y-128737044D01*
X158197013Y-128772249D01*
X158189897Y-128829200D01*
X157431519Y-128829200D01*
X157441084Y-128872380D01*
X157468422Y-128952798D01*
X157511226Y-129020749D01*
X157567973Y-129074908D01*
X157637138Y-129113952D01*
X157717196Y-129136557D01*
X157749972Y-129140547D01*
X157836050Y-129138690D01*
X157924490Y-129120914D01*
X158007379Y-129088829D01*
X158009581Y-129087722D01*
X158037909Y-129074086D01*
X158057742Y-129065899D01*
X158063857Y-129064736D01*
X158072922Y-129078568D01*
X158087864Y-129103634D01*
X158105804Y-129134824D01*
X158123863Y-129167029D01*
X158139163Y-129195138D01*
X158148824Y-129214042D01*
X158150720Y-129218911D01*
X158141771Y-129228080D01*
X158117683Y-129241905D01*
X158082591Y-129258610D01*
X158040630Y-129276419D01*
X157995936Y-129293554D01*
X157952643Y-129308240D01*
X157923034Y-129316718D01*
X157853126Y-129329421D01*
X157773440Y-129335684D01*
X157692008Y-129335407D01*
X157616864Y-129328487D01*
X157578086Y-129321091D01*
X157478432Y-129286992D01*
X157389558Y-129236292D01*
X157312978Y-129170476D01*
X157250206Y-129091026D01*
X157202753Y-128999426D01*
X157179968Y-128930800D01*
X157168428Y-128867045D01*
X157163059Y-128792104D01*
X157163861Y-128714143D01*
X157169383Y-128656480D01*
X157417585Y-128656480D01*
X157957680Y-128656480D01*
X157957680Y-128622764D01*
X157949741Y-128561192D01*
X157927778Y-128502404D01*
X157894574Y-128450625D01*
X157852909Y-128410085D01*
X157805565Y-128385009D01*
X157800166Y-128383386D01*
X157723924Y-128371803D01*
X157648859Y-128378487D01*
X157578950Y-128402698D01*
X157530396Y-128433405D01*
X157501226Y-128464222D01*
X157471881Y-128508033D01*
X157446229Y-128557920D01*
X157428139Y-128606962D01*
X157424147Y-128623460D01*
X157417585Y-128656480D01*
X157169383Y-128656480D01*
X157170835Y-128641327D01*
X157179978Y-128595520D01*
X157216058Y-128495394D01*
X157267456Y-128406398D01*
X157332265Y-128329827D01*
X157408577Y-128266975D01*
X157494485Y-128219141D01*
X157588081Y-128187618D01*
X157687458Y-128173702D01*
X157790707Y-128178690D01*
X157790707Y-128178690D01*
G37*
X157790707Y-128178690D02*
X157793111Y-128179038D01*
X157890378Y-128202389D01*
X157975453Y-128241767D01*
X158047785Y-128296542D01*
X158106825Y-128366085D01*
X158152022Y-128449769D01*
X158182825Y-128546964D01*
X158197375Y-128640770D01*
X158199847Y-128688112D01*
X158199546Y-128737044D01*
X158197013Y-128772249D01*
X158189897Y-128829200D01*
X157431519Y-128829200D01*
X157441084Y-128872380D01*
X157468422Y-128952798D01*
X157511226Y-129020749D01*
X157567973Y-129074908D01*
X157637138Y-129113952D01*
X157717196Y-129136557D01*
X157749972Y-129140547D01*
X157836050Y-129138690D01*
X157924490Y-129120914D01*
X158007379Y-129088829D01*
X158009581Y-129087722D01*
X158037909Y-129074086D01*
X158057742Y-129065899D01*
X158063857Y-129064736D01*
X158072922Y-129078568D01*
X158087864Y-129103634D01*
X158105804Y-129134824D01*
X158123863Y-129167029D01*
X158139163Y-129195138D01*
X158148824Y-129214042D01*
X158150720Y-129218911D01*
X158141771Y-129228080D01*
X158117683Y-129241905D01*
X158082591Y-129258610D01*
X158040630Y-129276419D01*
X157995936Y-129293554D01*
X157952643Y-129308240D01*
X157923034Y-129316718D01*
X157853126Y-129329421D01*
X157773440Y-129335684D01*
X157692008Y-129335407D01*
X157616864Y-129328487D01*
X157578086Y-129321091D01*
X157478432Y-129286992D01*
X157389558Y-129236292D01*
X157312978Y-129170476D01*
X157250206Y-129091026D01*
X157202753Y-128999426D01*
X157179968Y-128930800D01*
X157168428Y-128867045D01*
X157163059Y-128792104D01*
X157163861Y-128714143D01*
X157169383Y-128656480D01*
X157417585Y-128656480D01*
X157957680Y-128656480D01*
X157957680Y-128622764D01*
X157949741Y-128561192D01*
X157927778Y-128502404D01*
X157894574Y-128450625D01*
X157852909Y-128410085D01*
X157805565Y-128385009D01*
X157800166Y-128383386D01*
X157723924Y-128371803D01*
X157648859Y-128378487D01*
X157578950Y-128402698D01*
X157530396Y-128433405D01*
X157501226Y-128464222D01*
X157471881Y-128508033D01*
X157446229Y-128557920D01*
X157428139Y-128606962D01*
X157424147Y-128623460D01*
X157417585Y-128656480D01*
X157169383Y-128656480D01*
X157170835Y-128641327D01*
X157179978Y-128595520D01*
X157216058Y-128495394D01*
X157267456Y-128406398D01*
X157332265Y-128329827D01*
X157408577Y-128266975D01*
X157494485Y-128219141D01*
X157588081Y-128187618D01*
X157687458Y-128173702D01*
X157790707Y-128178690D01*
G36*
X163637120Y-128229760D02*
X163972400Y-128229760D01*
X163972400Y-128311040D01*
X163636263Y-128311040D01*
X163639231Y-128725060D01*
X163640007Y-128827902D01*
X163640791Y-128912426D01*
X163641688Y-128980633D01*
X163642805Y-129034523D01*
X163644247Y-129076098D01*
X163646122Y-129107359D01*
X163648534Y-129130307D01*
X163651590Y-129146944D01*
X163655397Y-129159270D01*
X163660060Y-129169286D01*
X163663069Y-129174605D01*
X163700675Y-129220221D01*
X163749803Y-129249465D01*
X163809566Y-129262060D01*
X163879080Y-129257726D01*
X163907826Y-129251593D01*
X163941692Y-129243565D01*
X163966571Y-129238573D01*
X163977197Y-129237670D01*
X163977234Y-129237709D01*
X163984961Y-129254017D01*
X163991518Y-129277439D01*
X163995025Y-129299375D01*
X163993598Y-129311228D01*
X163993365Y-129311401D01*
X163972889Y-129319251D01*
X163938667Y-129327854D01*
X163897175Y-129336006D01*
X163854891Y-129342499D01*
X163818294Y-129346129D01*
X163804760Y-129346502D01*
X163761884Y-129342796D01*
X163717019Y-129334232D01*
X163705266Y-129330978D01*
X163650565Y-129304091D01*
X163603839Y-129261474D01*
X163569245Y-129207353D01*
X163559534Y-129182819D01*
X163554991Y-129166908D01*
X163551219Y-129147926D01*
X163548121Y-129123800D01*
X163545601Y-129092453D01*
X163543561Y-129051811D01*
X163541906Y-128999799D01*
X163540537Y-128934342D01*
X163539358Y-128853364D01*
X163538273Y-128754792D01*
X163537937Y-128719980D01*
X163534086Y-128311040D01*
X163352640Y-128311040D01*
X163352640Y-128242540D01*
X163442944Y-128235476D01*
X163533249Y-128228412D01*
X163539464Y-128197336D01*
X163542060Y-128174276D01*
X163544124Y-128136757D01*
X163545397Y-128090634D01*
X163545680Y-128056600D01*
X163546229Y-128010036D01*
X163547716Y-127970050D01*
X163549894Y-127941629D01*
X163551847Y-127930870D01*
X163566794Y-127918583D01*
X163597567Y-127914800D01*
X163637120Y-127914800D01*
X163637120Y-128229760D01*
X163637120Y-128229760D01*
G37*
X163637120Y-128229760D02*
X163972400Y-128229760D01*
X163972400Y-128311040D01*
X163636263Y-128311040D01*
X163639231Y-128725060D01*
X163640007Y-128827902D01*
X163640791Y-128912426D01*
X163641688Y-128980633D01*
X163642805Y-129034523D01*
X163644247Y-129076098D01*
X163646122Y-129107359D01*
X163648534Y-129130307D01*
X163651590Y-129146944D01*
X163655397Y-129159270D01*
X163660060Y-129169286D01*
X163663069Y-129174605D01*
X163700675Y-129220221D01*
X163749803Y-129249465D01*
X163809566Y-129262060D01*
X163879080Y-129257726D01*
X163907826Y-129251593D01*
X163941692Y-129243565D01*
X163966571Y-129238573D01*
X163977197Y-129237670D01*
X163977234Y-129237709D01*
X163984961Y-129254017D01*
X163991518Y-129277439D01*
X163995025Y-129299375D01*
X163993598Y-129311228D01*
X163993365Y-129311401D01*
X163972889Y-129319251D01*
X163938667Y-129327854D01*
X163897175Y-129336006D01*
X163854891Y-129342499D01*
X163818294Y-129346129D01*
X163804760Y-129346502D01*
X163761884Y-129342796D01*
X163717019Y-129334232D01*
X163705266Y-129330978D01*
X163650565Y-129304091D01*
X163603839Y-129261474D01*
X163569245Y-129207353D01*
X163559534Y-129182819D01*
X163554991Y-129166908D01*
X163551219Y-129147926D01*
X163548121Y-129123800D01*
X163545601Y-129092453D01*
X163543561Y-129051811D01*
X163541906Y-128999799D01*
X163540537Y-128934342D01*
X163539358Y-128853364D01*
X163538273Y-128754792D01*
X163537937Y-128719980D01*
X163534086Y-128311040D01*
X163352640Y-128311040D01*
X163352640Y-128242540D01*
X163442944Y-128235476D01*
X163533249Y-128228412D01*
X163539464Y-128197336D01*
X163542060Y-128174276D01*
X163544124Y-128136757D01*
X163545397Y-128090634D01*
X163545680Y-128056600D01*
X163546229Y-128010036D01*
X163547716Y-127970050D01*
X163549894Y-127941629D01*
X163551847Y-127930870D01*
X163566794Y-127918583D01*
X163597567Y-127914800D01*
X163637120Y-127914800D01*
X163637120Y-128229760D01*
G36*
X161514323Y-128204861D02*
X161550738Y-128206213D01*
X161578470Y-128210006D01*
X161603335Y-128217370D01*
X161631152Y-128229438D01*
X161658438Y-128242743D01*
X161734682Y-128290708D01*
X161795486Y-128351758D01*
X161841154Y-128426269D01*
X161869116Y-128503473D01*
X161877669Y-128543562D01*
X161885022Y-128593042D01*
X161890547Y-128645370D01*
X161893616Y-128694003D01*
X161893603Y-128732399D01*
X161892317Y-128745267D01*
X161886941Y-128778400D01*
X161056480Y-128778400D01*
X161056480Y-128828129D01*
X161062312Y-128883004D01*
X161078124Y-128945876D01*
X161101382Y-129008730D01*
X161129555Y-129063549D01*
X161132106Y-129067597D01*
X161189016Y-129138561D01*
X161257566Y-129194114D01*
X161335562Y-129233730D01*
X161420809Y-129256881D01*
X161511113Y-129263040D01*
X161604281Y-129251681D01*
X161698117Y-129222277D01*
X161725554Y-129210103D01*
X161760557Y-129193693D01*
X161787790Y-129181310D01*
X161802666Y-129175025D01*
X161804033Y-129174640D01*
X161810664Y-129182594D01*
X161821382Y-129201152D01*
X161832005Y-129222353D01*
X161838353Y-129238238D01*
X161838800Y-129240836D01*
X161830234Y-129247650D01*
X161807417Y-129260362D01*
X161774670Y-129276625D01*
X161761928Y-129282599D01*
X161659876Y-129320035D01*
X161553571Y-129341045D01*
X161447779Y-129344986D01*
X161368509Y-129335762D01*
X161275294Y-129307962D01*
X161190899Y-129262983D01*
X161116866Y-129202617D01*
X161054733Y-129128654D01*
X161006042Y-129042887D01*
X160972333Y-128947107D01*
X160956319Y-128856299D01*
X160953083Y-128740323D01*
X160957142Y-128707280D01*
X161054218Y-128707280D01*
X161810687Y-128707280D01*
X161803346Y-128638700D01*
X161785697Y-128541024D01*
X161755458Y-128458170D01*
X161713006Y-128390649D01*
X161658718Y-128338970D01*
X161592972Y-128303643D01*
X161545798Y-128290005D01*
X161458786Y-128281469D01*
X161376064Y-128291828D01*
X161299222Y-128319838D01*
X161229854Y-128364254D01*
X161169550Y-128423831D01*
X161119903Y-128497325D01*
X161082503Y-128583490D01*
X161060922Y-128669180D01*
X161054218Y-128707280D01*
X160957142Y-128707280D01*
X160966539Y-128630784D01*
X160996006Y-128529495D01*
X161040804Y-128438267D01*
X161100253Y-128358913D01*
X161165448Y-128299352D01*
X161221954Y-128260182D01*
X161274747Y-128233050D01*
X161329835Y-128216047D01*
X161393227Y-128207268D01*
X161463406Y-128204818D01*
X161514323Y-128204861D01*
X161514323Y-128204861D01*
G37*
X161514323Y-128204861D02*
X161550738Y-128206213D01*
X161578470Y-128210006D01*
X161603335Y-128217370D01*
X161631152Y-128229438D01*
X161658438Y-128242743D01*
X161734682Y-128290708D01*
X161795486Y-128351758D01*
X161841154Y-128426269D01*
X161869116Y-128503473D01*
X161877669Y-128543562D01*
X161885022Y-128593042D01*
X161890547Y-128645370D01*
X161893616Y-128694003D01*
X161893603Y-128732399D01*
X161892317Y-128745267D01*
X161886941Y-128778400D01*
X161056480Y-128778400D01*
X161056480Y-128828129D01*
X161062312Y-128883004D01*
X161078124Y-128945876D01*
X161101382Y-129008730D01*
X161129555Y-129063549D01*
X161132106Y-129067597D01*
X161189016Y-129138561D01*
X161257566Y-129194114D01*
X161335562Y-129233730D01*
X161420809Y-129256881D01*
X161511113Y-129263040D01*
X161604281Y-129251681D01*
X161698117Y-129222277D01*
X161725554Y-129210103D01*
X161760557Y-129193693D01*
X161787790Y-129181310D01*
X161802666Y-129175025D01*
X161804033Y-129174640D01*
X161810664Y-129182594D01*
X161821382Y-129201152D01*
X161832005Y-129222353D01*
X161838353Y-129238238D01*
X161838800Y-129240836D01*
X161830234Y-129247650D01*
X161807417Y-129260362D01*
X161774670Y-129276625D01*
X161761928Y-129282599D01*
X161659876Y-129320035D01*
X161553571Y-129341045D01*
X161447779Y-129344986D01*
X161368509Y-129335762D01*
X161275294Y-129307962D01*
X161190899Y-129262983D01*
X161116866Y-129202617D01*
X161054733Y-129128654D01*
X161006042Y-129042887D01*
X160972333Y-128947107D01*
X160956319Y-128856299D01*
X160953083Y-128740323D01*
X160957142Y-128707280D01*
X161054218Y-128707280D01*
X161810687Y-128707280D01*
X161803346Y-128638700D01*
X161785697Y-128541024D01*
X161755458Y-128458170D01*
X161713006Y-128390649D01*
X161658718Y-128338970D01*
X161592972Y-128303643D01*
X161545798Y-128290005D01*
X161458786Y-128281469D01*
X161376064Y-128291828D01*
X161299222Y-128319838D01*
X161229854Y-128364254D01*
X161169550Y-128423831D01*
X161119903Y-128497325D01*
X161082503Y-128583490D01*
X161060922Y-128669180D01*
X161054218Y-128707280D01*
X160957142Y-128707280D01*
X160966539Y-128630784D01*
X160996006Y-128529495D01*
X161040804Y-128438267D01*
X161100253Y-128358913D01*
X161165448Y-128299352D01*
X161221954Y-128260182D01*
X161274747Y-128233050D01*
X161329835Y-128216047D01*
X161393227Y-128207268D01*
X161463406Y-128204818D01*
X161514323Y-128204861D01*
G36*
X156852442Y-128401419D02*
X156853025Y-128536734D01*
X156853595Y-128653196D01*
X156854197Y-128752271D01*
X156854876Y-128835427D01*
X156855679Y-128904129D01*
X156856652Y-128959846D01*
X156857840Y-129004043D01*
X156859289Y-129038188D01*
X156861046Y-129063746D01*
X156863155Y-129082186D01*
X156865663Y-129094973D01*
X156868616Y-129103574D01*
X156872059Y-129109456D01*
X156874674Y-129112619D01*
X156903128Y-129130323D01*
X156926258Y-129134000D01*
X156943659Y-129134940D01*
X156954374Y-129140760D01*
X156961432Y-129155961D01*
X156967862Y-129185043D01*
X156970634Y-129199923D01*
X156977974Y-129239371D01*
X156984723Y-129275000D01*
X156988687Y-129295375D01*
X156990935Y-129312786D01*
X156985815Y-129323025D01*
X156968899Y-129329974D01*
X156942236Y-129336131D01*
X156857300Y-129346375D01*
X156778551Y-129338715D01*
X156738480Y-129327488D01*
X156681534Y-129299036D01*
X156649413Y-129270055D01*
X156637677Y-129256403D01*
X156627489Y-129243372D01*
X156618738Y-129229496D01*
X156611316Y-129213308D01*
X156605113Y-129193342D01*
X156600021Y-129168131D01*
X156595928Y-129136209D01*
X156592727Y-129096109D01*
X156590307Y-129046366D01*
X156588560Y-128985512D01*
X156587375Y-128912081D01*
X156586644Y-128824607D01*
X156586258Y-128721623D01*
X156586106Y-128601664D01*
X156586079Y-128463262D01*
X156586080Y-128420955D01*
X156586080Y-127711600D01*
X156849564Y-127711600D01*
X156852442Y-128401419D01*
X156852442Y-128401419D01*
G37*
X156852442Y-128401419D02*
X156853025Y-128536734D01*
X156853595Y-128653196D01*
X156854197Y-128752271D01*
X156854876Y-128835427D01*
X156855679Y-128904129D01*
X156856652Y-128959846D01*
X156857840Y-129004043D01*
X156859289Y-129038188D01*
X156861046Y-129063746D01*
X156863155Y-129082186D01*
X156865663Y-129094973D01*
X156868616Y-129103574D01*
X156872059Y-129109456D01*
X156874674Y-129112619D01*
X156903128Y-129130323D01*
X156926258Y-129134000D01*
X156943659Y-129134940D01*
X156954374Y-129140760D01*
X156961432Y-129155961D01*
X156967862Y-129185043D01*
X156970634Y-129199923D01*
X156977974Y-129239371D01*
X156984723Y-129275000D01*
X156988687Y-129295375D01*
X156990935Y-129312786D01*
X156985815Y-129323025D01*
X156968899Y-129329974D01*
X156942236Y-129336131D01*
X156857300Y-129346375D01*
X156778551Y-129338715D01*
X156738480Y-129327488D01*
X156681534Y-129299036D01*
X156649413Y-129270055D01*
X156637677Y-129256403D01*
X156627489Y-129243372D01*
X156618738Y-129229496D01*
X156611316Y-129213308D01*
X156605113Y-129193342D01*
X156600021Y-129168131D01*
X156595928Y-129136209D01*
X156592727Y-129096109D01*
X156590307Y-129046366D01*
X156588560Y-128985512D01*
X156587375Y-128912081D01*
X156586644Y-128824607D01*
X156586258Y-128721623D01*
X156586106Y-128601664D01*
X156586079Y-128463262D01*
X156586080Y-128420955D01*
X156586080Y-127711600D01*
X156849564Y-127711600D01*
X156852442Y-128401419D01*
G36*
X155765589Y-128183299D02*
X155793614Y-128185251D01*
X155838280Y-128187438D01*
X155895910Y-128189722D01*
X155962828Y-128191967D01*
X156035357Y-128194034D01*
X156085700Y-128195262D01*
X156342240Y-128201073D01*
X156342240Y-128392320D01*
X156234713Y-128392320D01*
X156191231Y-128392985D01*
X156156936Y-128394786D01*
X156135811Y-128397430D01*
X156131060Y-128399940D01*
X156156083Y-128449912D01*
X156173023Y-128487166D01*
X156183269Y-128516960D01*
X156188214Y-128544553D01*
X156189248Y-128575202D01*
X156187761Y-128614165D01*
X156187755Y-128614284D01*
X156178435Y-128689904D01*
X156157554Y-128752436D01*
X156122929Y-128806820D01*
X156085079Y-128846666D01*
X156025062Y-128893383D01*
X155958702Y-128926846D01*
X155898455Y-128946088D01*
X155844966Y-128955696D01*
X155782529Y-128960297D01*
X155718798Y-128959865D01*
X155661428Y-128954372D01*
X155627627Y-128947050D01*
X155598862Y-128939102D01*
X155581757Y-128938721D01*
X155568546Y-128947528D01*
X155555753Y-128962046D01*
X155529891Y-129004729D01*
X155522997Y-129046510D01*
X155534595Y-129084580D01*
X155564207Y-129116128D01*
X155583906Y-129127755D01*
X155599131Y-129134016D01*
X155618091Y-129139031D01*
X155643530Y-129143060D01*
X155678197Y-129146362D01*
X155724837Y-129149196D01*
X155786198Y-129151822D01*
X155865026Y-129154498D01*
X155868386Y-129154603D01*
X155943804Y-129157436D01*
X156012483Y-129160911D01*
X156071344Y-129164813D01*
X156117309Y-129168926D01*
X156147301Y-129173033D01*
X156154280Y-129174669D01*
X156229010Y-129204809D01*
X156286085Y-129244676D01*
X156326024Y-129294908D01*
X156349346Y-129356147D01*
X156356581Y-129423922D01*
X156347348Y-129500652D01*
X156319299Y-129570782D01*
X156273026Y-129633727D01*
X156209121Y-129688905D01*
X156128177Y-129735732D01*
X156030785Y-129773623D01*
X155989646Y-129785542D01*
X155935252Y-129796373D01*
X155867312Y-129804488D01*
X155791665Y-129809695D01*
X155714152Y-129811806D01*
X155640613Y-129810629D01*
X155576887Y-129805974D01*
X155539600Y-129800203D01*
X155443831Y-129773486D01*
X155365929Y-129737470D01*
X155305976Y-129692218D01*
X155264052Y-129637789D01*
X155240238Y-129574247D01*
X155239863Y-129572482D01*
X155237203Y-129511694D01*
X155243735Y-129486671D01*
X155468480Y-129486671D01*
X155477914Y-129533511D01*
X155505989Y-129572768D01*
X155552363Y-129604112D01*
X155612199Y-129626028D01*
X155661020Y-129634990D01*
X155721467Y-129639985D01*
X155786580Y-129641018D01*
X155849401Y-129638090D01*
X155902968Y-129631205D01*
X155925394Y-129625903D01*
X155988541Y-129601183D01*
X156038616Y-129569482D01*
X156074322Y-129532789D01*
X156094367Y-129493093D01*
X156097456Y-129452384D01*
X156082294Y-129412651D01*
X156072642Y-129399588D01*
X156056938Y-129384345D01*
X156036733Y-129372275D01*
X156009550Y-129362957D01*
X155972910Y-129355968D01*
X155924337Y-129350887D01*
X155861352Y-129347293D01*
X155781480Y-129344764D01*
X155745919Y-129343990D01*
X155550919Y-129340116D01*
X155521078Y-129371678D01*
X155490430Y-129408790D01*
X155474010Y-129442702D01*
X155468554Y-129480551D01*
X155468480Y-129486671D01*
X155243735Y-129486671D01*
X155253168Y-129450544D01*
X155286346Y-129392034D01*
X155335321Y-129339167D01*
X155358402Y-129320725D01*
X155409388Y-129283297D01*
X155377692Y-129258492D01*
X155338063Y-129215070D01*
X155312393Y-129159695D01*
X155302728Y-129096877D01*
X155302702Y-129093360D01*
X155311495Y-129029386D01*
X155338515Y-128971944D01*
X155384719Y-128919019D01*
X155386464Y-128917433D01*
X155409286Y-128895957D01*
X155424313Y-128880173D01*
X155427840Y-128874920D01*
X155420935Y-128865825D01*
X155403186Y-128847926D01*
X155387298Y-128833160D01*
X155338259Y-128775749D01*
X155303354Y-128707233D01*
X155283071Y-128631566D01*
X155279103Y-128571050D01*
X155531064Y-128571050D01*
X155535369Y-128632156D01*
X155540265Y-128653776D01*
X155560795Y-128698567D01*
X155594122Y-128741615D01*
X155634444Y-128776644D01*
X155671784Y-128796082D01*
X155722201Y-128804289D01*
X155778401Y-128799866D01*
X155831119Y-128783835D01*
X155844646Y-128777040D01*
X155890854Y-128740127D01*
X155924655Y-128690892D01*
X155945402Y-128633584D01*
X155952446Y-128572454D01*
X155945140Y-128511752D01*
X155922836Y-128455726D01*
X155898706Y-128422396D01*
X155851467Y-128383495D01*
X155797055Y-128360332D01*
X155739314Y-128352512D01*
X155682088Y-128359642D01*
X155629220Y-128381329D01*
X155584554Y-128417178D01*
X155556446Y-128457443D01*
X155538333Y-128509861D01*
X155531064Y-128571050D01*
X155279103Y-128571050D01*
X155277899Y-128552698D01*
X155288325Y-128474581D01*
X155314838Y-128401167D01*
X155330514Y-128373275D01*
X155380032Y-128312904D01*
X155444621Y-128261993D01*
X155520614Y-128222143D01*
X155604344Y-128194957D01*
X155692144Y-128182034D01*
X155765589Y-128183299D01*
X155765589Y-128183299D01*
G37*
X155765589Y-128183299D02*
X155793614Y-128185251D01*
X155838280Y-128187438D01*
X155895910Y-128189722D01*
X155962828Y-128191967D01*
X156035357Y-128194034D01*
X156085700Y-128195262D01*
X156342240Y-128201073D01*
X156342240Y-128392320D01*
X156234713Y-128392320D01*
X156191231Y-128392985D01*
X156156936Y-128394786D01*
X156135811Y-128397430D01*
X156131060Y-128399940D01*
X156156083Y-128449912D01*
X156173023Y-128487166D01*
X156183269Y-128516960D01*
X156188214Y-128544553D01*
X156189248Y-128575202D01*
X156187761Y-128614165D01*
X156187755Y-128614284D01*
X156178435Y-128689904D01*
X156157554Y-128752436D01*
X156122929Y-128806820D01*
X156085079Y-128846666D01*
X156025062Y-128893383D01*
X155958702Y-128926846D01*
X155898455Y-128946088D01*
X155844966Y-128955696D01*
X155782529Y-128960297D01*
X155718798Y-128959865D01*
X155661428Y-128954372D01*
X155627627Y-128947050D01*
X155598862Y-128939102D01*
X155581757Y-128938721D01*
X155568546Y-128947528D01*
X155555753Y-128962046D01*
X155529891Y-129004729D01*
X155522997Y-129046510D01*
X155534595Y-129084580D01*
X155564207Y-129116128D01*
X155583906Y-129127755D01*
X155599131Y-129134016D01*
X155618091Y-129139031D01*
X155643530Y-129143060D01*
X155678197Y-129146362D01*
X155724837Y-129149196D01*
X155786198Y-129151822D01*
X155865026Y-129154498D01*
X155868386Y-129154603D01*
X155943804Y-129157436D01*
X156012483Y-129160911D01*
X156071344Y-129164813D01*
X156117309Y-129168926D01*
X156147301Y-129173033D01*
X156154280Y-129174669D01*
X156229010Y-129204809D01*
X156286085Y-129244676D01*
X156326024Y-129294908D01*
X156349346Y-129356147D01*
X156356581Y-129423922D01*
X156347348Y-129500652D01*
X156319299Y-129570782D01*
X156273026Y-129633727D01*
X156209121Y-129688905D01*
X156128177Y-129735732D01*
X156030785Y-129773623D01*
X155989646Y-129785542D01*
X155935252Y-129796373D01*
X155867312Y-129804488D01*
X155791665Y-129809695D01*
X155714152Y-129811806D01*
X155640613Y-129810629D01*
X155576887Y-129805974D01*
X155539600Y-129800203D01*
X155443831Y-129773486D01*
X155365929Y-129737470D01*
X155305976Y-129692218D01*
X155264052Y-129637789D01*
X155240238Y-129574247D01*
X155239863Y-129572482D01*
X155237203Y-129511694D01*
X155243735Y-129486671D01*
X155468480Y-129486671D01*
X155477914Y-129533511D01*
X155505989Y-129572768D01*
X155552363Y-129604112D01*
X155612199Y-129626028D01*
X155661020Y-129634990D01*
X155721467Y-129639985D01*
X155786580Y-129641018D01*
X155849401Y-129638090D01*
X155902968Y-129631205D01*
X155925394Y-129625903D01*
X155988541Y-129601183D01*
X156038616Y-129569482D01*
X156074322Y-129532789D01*
X156094367Y-129493093D01*
X156097456Y-129452384D01*
X156082294Y-129412651D01*
X156072642Y-129399588D01*
X156056938Y-129384345D01*
X156036733Y-129372275D01*
X156009550Y-129362957D01*
X155972910Y-129355968D01*
X155924337Y-129350887D01*
X155861352Y-129347293D01*
X155781480Y-129344764D01*
X155745919Y-129343990D01*
X155550919Y-129340116D01*
X155521078Y-129371678D01*
X155490430Y-129408790D01*
X155474010Y-129442702D01*
X155468554Y-129480551D01*
X155468480Y-129486671D01*
X155243735Y-129486671D01*
X155253168Y-129450544D01*
X155286346Y-129392034D01*
X155335321Y-129339167D01*
X155358402Y-129320725D01*
X155409388Y-129283297D01*
X155377692Y-129258492D01*
X155338063Y-129215070D01*
X155312393Y-129159695D01*
X155302728Y-129096877D01*
X155302702Y-129093360D01*
X155311495Y-129029386D01*
X155338515Y-128971944D01*
X155384719Y-128919019D01*
X155386464Y-128917433D01*
X155409286Y-128895957D01*
X155424313Y-128880173D01*
X155427840Y-128874920D01*
X155420935Y-128865825D01*
X155403186Y-128847926D01*
X155387298Y-128833160D01*
X155338259Y-128775749D01*
X155303354Y-128707233D01*
X155283071Y-128631566D01*
X155279103Y-128571050D01*
X155531064Y-128571050D01*
X155535369Y-128632156D01*
X155540265Y-128653776D01*
X155560795Y-128698567D01*
X155594122Y-128741615D01*
X155634444Y-128776644D01*
X155671784Y-128796082D01*
X155722201Y-128804289D01*
X155778401Y-128799866D01*
X155831119Y-128783835D01*
X155844646Y-128777040D01*
X155890854Y-128740127D01*
X155924655Y-128690892D01*
X155945402Y-128633584D01*
X155952446Y-128572454D01*
X155945140Y-128511752D01*
X155922836Y-128455726D01*
X155898706Y-128422396D01*
X155851467Y-128383495D01*
X155797055Y-128360332D01*
X155739314Y-128352512D01*
X155682088Y-128359642D01*
X155629220Y-128381329D01*
X155584554Y-128417178D01*
X155556446Y-128457443D01*
X155538333Y-128509861D01*
X155531064Y-128571050D01*
X155279103Y-128571050D01*
X155277899Y-128552698D01*
X155288325Y-128474581D01*
X155314838Y-128401167D01*
X155330514Y-128373275D01*
X155380032Y-128312904D01*
X155444621Y-128261993D01*
X155520614Y-128222143D01*
X155604344Y-128194957D01*
X155692144Y-128182034D01*
X155765589Y-128183299D01*
G36*
X155619252Y-130538298D02*
X155649172Y-130559659D01*
X155664038Y-130594282D01*
X155665584Y-130613370D01*
X155656918Y-130650491D01*
X155634101Y-130678248D01*
X155601898Y-130694694D01*
X155565077Y-130697881D01*
X155528404Y-130685860D01*
X155513750Y-130675430D01*
X155493630Y-130651107D01*
X155486896Y-130620053D01*
X155486768Y-130613228D01*
X155494241Y-130572462D01*
X155516624Y-130545494D01*
X155553863Y-130532373D01*
X155575160Y-130531000D01*
X155619252Y-130538298D01*
X155619252Y-130538298D01*
G37*
X155619252Y-130538298D02*
X155649172Y-130559659D01*
X155664038Y-130594282D01*
X155665584Y-130613370D01*
X155656918Y-130650491D01*
X155634101Y-130678248D01*
X155601898Y-130694694D01*
X155565077Y-130697881D01*
X155528404Y-130685860D01*
X155513750Y-130675430D01*
X155493630Y-130651107D01*
X155486896Y-130620053D01*
X155486768Y-130613228D01*
X155494241Y-130572462D01*
X155516624Y-130545494D01*
X155553863Y-130532373D01*
X155575160Y-130531000D01*
X155619252Y-130538298D01*
G36*
X147865413Y-131331946D02*
X147866629Y-131344004D01*
X147865413Y-131345493D01*
X147859373Y-131344098D01*
X147858640Y-131338720D01*
X147862357Y-131330357D01*
X147865413Y-131331946D01*
X147865413Y-131331946D01*
G37*
X147865413Y-131331946D02*
X147866629Y-131344004D01*
X147865413Y-131345493D01*
X147859373Y-131344098D01*
X147858640Y-131338720D01*
X147862357Y-131330357D01*
X147865413Y-131331946D01*
G36*
X163938866Y-130952247D02*
X164013354Y-130970275D01*
X164071946Y-130996835D01*
X164118109Y-131034309D01*
X164155314Y-131085082D01*
X164168698Y-131110120D01*
X164180107Y-131134635D01*
X164189544Y-131159065D01*
X164197194Y-131185563D01*
X164203240Y-131216284D01*
X164207869Y-131253382D01*
X164211265Y-131299011D01*
X164213612Y-131355324D01*
X164215096Y-131424477D01*
X164215901Y-131508623D01*
X164216211Y-131609916D01*
X164216240Y-131664340D01*
X164216240Y-132060080D01*
X164114640Y-132060080D01*
X164114640Y-131671054D01*
X164114469Y-131560097D01*
X164113811Y-131467385D01*
X164112443Y-131390844D01*
X164110145Y-131328403D01*
X164106694Y-131277988D01*
X164101871Y-131237526D01*
X164095454Y-131204944D01*
X164087222Y-131178168D01*
X164076953Y-131155126D01*
X164064426Y-131133744D01*
X164055967Y-131121184D01*
X164024338Y-131084469D01*
X163986999Y-131059708D01*
X163939862Y-131045224D01*
X163878838Y-131039340D01*
X163855560Y-131039000D01*
X163809907Y-131039618D01*
X163777366Y-131042541D01*
X163750741Y-131049371D01*
X163722836Y-131061710D01*
X163700439Y-131073531D01*
X163661247Y-131097894D01*
X163616677Y-131130270D01*
X163575585Y-131164174D01*
X163570899Y-131168411D01*
X163505040Y-131228760D01*
X163505040Y-132060080D01*
X163405229Y-132060080D01*
X163401013Y-131656220D01*
X163399792Y-131547851D01*
X163398432Y-131457687D01*
X163396687Y-131383613D01*
X163394312Y-131323513D01*
X163391061Y-131275271D01*
X163386689Y-131236774D01*
X163380949Y-131205905D01*
X163373597Y-131180549D01*
X163364386Y-131158592D01*
X163353070Y-131137917D01*
X163339405Y-131116411D01*
X163338086Y-131114414D01*
X163302707Y-131073910D01*
X163257844Y-131047074D01*
X163200579Y-131032622D01*
X163144211Y-131029115D01*
X163099001Y-131030049D01*
X163065079Y-131034533D01*
X163033472Y-131044549D01*
X162995523Y-131061919D01*
X162953950Y-131086172D01*
X162906800Y-131119558D01*
X162862230Y-131156231D01*
X162855972Y-131161930D01*
X162783680Y-131228862D01*
X162783680Y-132049920D01*
X162682080Y-132049920D01*
X162682080Y-130972960D01*
X162721450Y-130972960D01*
X162747515Y-130974632D01*
X162760288Y-130982869D01*
X162766720Y-131002497D01*
X162767170Y-131004710D01*
X162771142Y-131035155D01*
X162773355Y-131072671D01*
X162773520Y-131084296D01*
X162774780Y-131113916D01*
X162777975Y-131134262D01*
X162779953Y-131138566D01*
X162789769Y-131135109D01*
X162810486Y-131120375D01*
X162838344Y-131097157D01*
X162850959Y-131085830D01*
X162930460Y-131023722D01*
X163013076Y-130979614D01*
X163097118Y-130954120D01*
X163180899Y-130947849D01*
X163220770Y-130951887D01*
X163299401Y-130972130D01*
X163363580Y-131005864D01*
X163415094Y-131054368D01*
X163455732Y-131118919D01*
X163456404Y-131120295D01*
X163477527Y-131163774D01*
X163558036Y-131094204D01*
X163641785Y-131029403D01*
X163721606Y-130983628D01*
X163798995Y-130956319D01*
X163875450Y-130946919D01*
X163938866Y-130952247D01*
X163938866Y-130952247D01*
G37*
X163938866Y-130952247D02*
X164013354Y-130970275D01*
X164071946Y-130996835D01*
X164118109Y-131034309D01*
X164155314Y-131085082D01*
X164168698Y-131110120D01*
X164180107Y-131134635D01*
X164189544Y-131159065D01*
X164197194Y-131185563D01*
X164203240Y-131216284D01*
X164207869Y-131253382D01*
X164211265Y-131299011D01*
X164213612Y-131355324D01*
X164215096Y-131424477D01*
X164215901Y-131508623D01*
X164216211Y-131609916D01*
X164216240Y-131664340D01*
X164216240Y-132060080D01*
X164114640Y-132060080D01*
X164114640Y-131671054D01*
X164114469Y-131560097D01*
X164113811Y-131467385D01*
X164112443Y-131390844D01*
X164110145Y-131328403D01*
X164106694Y-131277988D01*
X164101871Y-131237526D01*
X164095454Y-131204944D01*
X164087222Y-131178168D01*
X164076953Y-131155126D01*
X164064426Y-131133744D01*
X164055967Y-131121184D01*
X164024338Y-131084469D01*
X163986999Y-131059708D01*
X163939862Y-131045224D01*
X163878838Y-131039340D01*
X163855560Y-131039000D01*
X163809907Y-131039618D01*
X163777366Y-131042541D01*
X163750741Y-131049371D01*
X163722836Y-131061710D01*
X163700439Y-131073531D01*
X163661247Y-131097894D01*
X163616677Y-131130270D01*
X163575585Y-131164174D01*
X163570899Y-131168411D01*
X163505040Y-131228760D01*
X163505040Y-132060080D01*
X163405229Y-132060080D01*
X163401013Y-131656220D01*
X163399792Y-131547851D01*
X163398432Y-131457687D01*
X163396687Y-131383613D01*
X163394312Y-131323513D01*
X163391061Y-131275271D01*
X163386689Y-131236774D01*
X163380949Y-131205905D01*
X163373597Y-131180549D01*
X163364386Y-131158592D01*
X163353070Y-131137917D01*
X163339405Y-131116411D01*
X163338086Y-131114414D01*
X163302707Y-131073910D01*
X163257844Y-131047074D01*
X163200579Y-131032622D01*
X163144211Y-131029115D01*
X163099001Y-131030049D01*
X163065079Y-131034533D01*
X163033472Y-131044549D01*
X162995523Y-131061919D01*
X162953950Y-131086172D01*
X162906800Y-131119558D01*
X162862230Y-131156231D01*
X162855972Y-131161930D01*
X162783680Y-131228862D01*
X162783680Y-132049920D01*
X162682080Y-132049920D01*
X162682080Y-130972960D01*
X162721450Y-130972960D01*
X162747515Y-130974632D01*
X162760288Y-130982869D01*
X162766720Y-131002497D01*
X162767170Y-131004710D01*
X162771142Y-131035155D01*
X162773355Y-131072671D01*
X162773520Y-131084296D01*
X162774780Y-131113916D01*
X162777975Y-131134262D01*
X162779953Y-131138566D01*
X162789769Y-131135109D01*
X162810486Y-131120375D01*
X162838344Y-131097157D01*
X162850959Y-131085830D01*
X162930460Y-131023722D01*
X163013076Y-130979614D01*
X163097118Y-130954120D01*
X163180899Y-130947849D01*
X163220770Y-130951887D01*
X163299401Y-130972130D01*
X163363580Y-131005864D01*
X163415094Y-131054368D01*
X163455732Y-131118919D01*
X163456404Y-131120295D01*
X163477527Y-131163774D01*
X163558036Y-131094204D01*
X163641785Y-131029403D01*
X163721606Y-130983628D01*
X163798995Y-130956319D01*
X163875450Y-130946919D01*
X163938866Y-130952247D01*
G36*
X160010000Y-130647840D02*
X159502000Y-130647840D01*
X159502000Y-132060080D01*
X159390240Y-132060080D01*
X159390240Y-130647840D01*
X158882240Y-130647840D01*
X158882240Y-130566560D01*
X160010000Y-130566560D01*
X160010000Y-130647840D01*
X160010000Y-130647840D01*
G37*
X160010000Y-130647840D02*
X159502000Y-130647840D01*
X159502000Y-132060080D01*
X159390240Y-132060080D01*
X159390240Y-130647840D01*
X158882240Y-130647840D01*
X158882240Y-130566560D01*
X160010000Y-130566560D01*
X160010000Y-130647840D01*
G36*
X156656349Y-130952630D02*
X156714716Y-130965084D01*
X156759444Y-130980923D01*
X156797211Y-131003078D01*
X156827356Y-131027732D01*
X156871084Y-131080582D01*
X156903974Y-131149959D01*
X156925647Y-131234971D01*
X156931097Y-131273193D01*
X156933619Y-131305552D01*
X156935926Y-131355023D01*
X156937942Y-131418401D01*
X156939589Y-131492478D01*
X156940791Y-131574048D01*
X156941471Y-131659904D01*
X156941596Y-131712100D01*
X156941680Y-132060080D01*
X156840080Y-132060080D01*
X156839996Y-131722260D01*
X156839641Y-131601745D01*
X156838471Y-131499622D01*
X156836233Y-131413972D01*
X156832677Y-131342875D01*
X156827548Y-131284410D01*
X156820596Y-131236657D01*
X156811567Y-131197697D01*
X156800210Y-131165610D01*
X156786271Y-131138475D01*
X156769500Y-131114373D01*
X156758348Y-131100997D01*
X156721540Y-131068029D01*
X156677666Y-131046983D01*
X156623002Y-131036713D01*
X156553823Y-131036074D01*
X156548300Y-131036362D01*
X156475954Y-131045310D01*
X156410485Y-131064922D01*
X156347808Y-131097218D01*
X156283843Y-131144216D01*
X156227940Y-131194781D01*
X156179680Y-131241436D01*
X156179680Y-132060080D01*
X156078080Y-132060080D01*
X156078080Y-130971791D01*
X156121260Y-130974915D01*
X156164440Y-130978040D01*
X156167055Y-131039000D01*
X156169411Y-131076495D01*
X156172732Y-131109002D01*
X156175233Y-131124272D01*
X156180796Y-131148584D01*
X156213258Y-131118424D01*
X156300186Y-131047974D01*
X156389255Y-130995688D01*
X156479175Y-130962049D01*
X156568655Y-130947538D01*
X156656349Y-130952630D01*
X156656349Y-130952630D01*
G37*
X156656349Y-130952630D02*
X156714716Y-130965084D01*
X156759444Y-130980923D01*
X156797211Y-131003078D01*
X156827356Y-131027732D01*
X156871084Y-131080582D01*
X156903974Y-131149959D01*
X156925647Y-131234971D01*
X156931097Y-131273193D01*
X156933619Y-131305552D01*
X156935926Y-131355023D01*
X156937942Y-131418401D01*
X156939589Y-131492478D01*
X156940791Y-131574048D01*
X156941471Y-131659904D01*
X156941596Y-131712100D01*
X156941680Y-132060080D01*
X156840080Y-132060080D01*
X156839996Y-131722260D01*
X156839641Y-131601745D01*
X156838471Y-131499622D01*
X156836233Y-131413972D01*
X156832677Y-131342875D01*
X156827548Y-131284410D01*
X156820596Y-131236657D01*
X156811567Y-131197697D01*
X156800210Y-131165610D01*
X156786271Y-131138475D01*
X156769500Y-131114373D01*
X156758348Y-131100997D01*
X156721540Y-131068029D01*
X156677666Y-131046983D01*
X156623002Y-131036713D01*
X156553823Y-131036074D01*
X156548300Y-131036362D01*
X156475954Y-131045310D01*
X156410485Y-131064922D01*
X156347808Y-131097218D01*
X156283843Y-131144216D01*
X156227940Y-131194781D01*
X156179680Y-131241436D01*
X156179680Y-132060080D01*
X156078080Y-132060080D01*
X156078080Y-130971791D01*
X156121260Y-130974915D01*
X156164440Y-130978040D01*
X156167055Y-131039000D01*
X156169411Y-131076495D01*
X156172732Y-131109002D01*
X156175233Y-131124272D01*
X156180796Y-131148584D01*
X156213258Y-131118424D01*
X156300186Y-131047974D01*
X156389255Y-130995688D01*
X156479175Y-130962049D01*
X156568655Y-130947538D01*
X156656349Y-130952630D01*
G36*
X155620880Y-132060080D02*
X155519280Y-132060080D01*
X155519280Y-130972960D01*
X155620880Y-130972960D01*
X155620880Y-132060080D01*
X155620880Y-132060080D01*
G37*
X155620880Y-132060080D02*
X155519280Y-132060080D01*
X155519280Y-130972960D01*
X155620880Y-130972960D01*
X155620880Y-132060080D01*
G36*
X152229980Y-130559202D02*
X152330103Y-130561103D01*
X152412531Y-130563478D01*
X152479885Y-130566669D01*
X152534789Y-130571016D01*
X152579866Y-130576861D01*
X152617738Y-130584546D01*
X152651030Y-130594412D01*
X152682363Y-130606802D01*
X152714362Y-130622056D01*
X152714939Y-130622348D01*
X152783409Y-130665633D01*
X152835362Y-130718639D01*
X152872297Y-130783496D01*
X152895710Y-130862333D01*
X152899727Y-130885123D01*
X152905428Y-130978968D01*
X152892559Y-131065789D01*
X152861418Y-131144642D01*
X152812305Y-131214583D01*
X152786929Y-131240571D01*
X152713835Y-131295276D01*
X152629112Y-131334422D01*
X152561960Y-131352248D01*
X152525042Y-131361179D01*
X152507615Y-131370370D01*
X152506305Y-131376552D01*
X152512660Y-131387753D01*
X152528663Y-131414183D01*
X152553104Y-131453893D01*
X152584774Y-131504934D01*
X152622464Y-131565359D01*
X152664964Y-131633219D01*
X152711065Y-131706567D01*
X152719847Y-131720512D01*
X152766229Y-131794239D01*
X152809027Y-131862473D01*
X152847069Y-131923331D01*
X152879185Y-131974929D01*
X152904203Y-132015383D01*
X152920950Y-132042810D01*
X152928255Y-132055326D01*
X152928480Y-132055879D01*
X152919267Y-132058107D01*
X152895408Y-132059556D01*
X152870060Y-132059894D01*
X152811640Y-132059709D01*
X152594313Y-131714454D01*
X152376987Y-131369200D01*
X152034400Y-131369200D01*
X152034400Y-132060080D01*
X151922640Y-132060080D01*
X151922640Y-131277242D01*
X152034111Y-131277242D01*
X152194275Y-131280976D01*
X152288000Y-131282696D01*
X152364321Y-131282918D01*
X152426114Y-131281461D01*
X152476252Y-131278144D01*
X152517608Y-131272787D01*
X152553058Y-131265210D01*
X152581277Y-131256689D01*
X152654263Y-131223755D01*
X152711705Y-131179407D01*
X152756025Y-131121725D01*
X152759800Y-131115200D01*
X152774395Y-131087859D01*
X152783627Y-131064478D01*
X152788714Y-131038978D01*
X152790873Y-131005278D01*
X152791320Y-130957720D01*
X152790861Y-130909841D01*
X152788678Y-130876192D01*
X152783554Y-130850687D01*
X152774276Y-130827242D01*
X152759893Y-130800240D01*
X152720813Y-130749391D01*
X152667145Y-130706177D01*
X152604306Y-130674658D01*
X152583179Y-130667715D01*
X152543802Y-130659520D01*
X152488509Y-130652312D01*
X152421693Y-130646399D01*
X152347745Y-130642086D01*
X152271059Y-130639679D01*
X152196027Y-130639484D01*
X152181720Y-130639735D01*
X152039480Y-130642760D01*
X152036795Y-130960001D01*
X152034111Y-131277242D01*
X151922640Y-131277242D01*
X151922640Y-130554226D01*
X152229980Y-130559202D01*
X152229980Y-130559202D01*
G37*
X152229980Y-130559202D02*
X152330103Y-130561103D01*
X152412531Y-130563478D01*
X152479885Y-130566669D01*
X152534789Y-130571016D01*
X152579866Y-130576861D01*
X152617738Y-130584546D01*
X152651030Y-130594412D01*
X152682363Y-130606802D01*
X152714362Y-130622056D01*
X152714939Y-130622348D01*
X152783409Y-130665633D01*
X152835362Y-130718639D01*
X152872297Y-130783496D01*
X152895710Y-130862333D01*
X152899727Y-130885123D01*
X152905428Y-130978968D01*
X152892559Y-131065789D01*
X152861418Y-131144642D01*
X152812305Y-131214583D01*
X152786929Y-131240571D01*
X152713835Y-131295276D01*
X152629112Y-131334422D01*
X152561960Y-131352248D01*
X152525042Y-131361179D01*
X152507615Y-131370370D01*
X152506305Y-131376552D01*
X152512660Y-131387753D01*
X152528663Y-131414183D01*
X152553104Y-131453893D01*
X152584774Y-131504934D01*
X152622464Y-131565359D01*
X152664964Y-131633219D01*
X152711065Y-131706567D01*
X152719847Y-131720512D01*
X152766229Y-131794239D01*
X152809027Y-131862473D01*
X152847069Y-131923331D01*
X152879185Y-131974929D01*
X152904203Y-132015383D01*
X152920950Y-132042810D01*
X152928255Y-132055326D01*
X152928480Y-132055879D01*
X152919267Y-132058107D01*
X152895408Y-132059556D01*
X152870060Y-132059894D01*
X152811640Y-132059709D01*
X152594313Y-131714454D01*
X152376987Y-131369200D01*
X152034400Y-131369200D01*
X152034400Y-132060080D01*
X151922640Y-132060080D01*
X151922640Y-131277242D01*
X152034111Y-131277242D01*
X152194275Y-131280976D01*
X152288000Y-131282696D01*
X152364321Y-131282918D01*
X152426114Y-131281461D01*
X152476252Y-131278144D01*
X152517608Y-131272787D01*
X152553058Y-131265210D01*
X152581277Y-131256689D01*
X152654263Y-131223755D01*
X152711705Y-131179407D01*
X152756025Y-131121725D01*
X152759800Y-131115200D01*
X152774395Y-131087859D01*
X152783627Y-131064478D01*
X152788714Y-131038978D01*
X152790873Y-131005278D01*
X152791320Y-130957720D01*
X152790861Y-130909841D01*
X152788678Y-130876192D01*
X152783554Y-130850687D01*
X152774276Y-130827242D01*
X152759893Y-130800240D01*
X152720813Y-130749391D01*
X152667145Y-130706177D01*
X152604306Y-130674658D01*
X152583179Y-130667715D01*
X152543802Y-130659520D01*
X152488509Y-130652312D01*
X152421693Y-130646399D01*
X152347745Y-130642086D01*
X152271059Y-130639679D01*
X152196027Y-130639484D01*
X152181720Y-130639735D01*
X152039480Y-130642760D01*
X152036795Y-130960001D01*
X152034111Y-131277242D01*
X151922640Y-131277242D01*
X151922640Y-130554226D01*
X152229980Y-130559202D01*
G36*
X155002257Y-130959109D02*
X155088291Y-130991219D01*
X155167044Y-131040276D01*
X155175692Y-131047175D01*
X155202945Y-131069480D01*
X155172962Y-131102872D01*
X155142980Y-131136264D01*
X155109721Y-131110896D01*
X155082117Y-131092683D01*
X155045084Y-131071785D01*
X155015931Y-131057184D01*
X154982404Y-131042856D01*
X154952340Y-131034310D01*
X154918211Y-131030148D01*
X154872491Y-131028972D01*
X154863960Y-131028967D01*
X154816635Y-131029852D01*
X154781766Y-131033410D01*
X154751516Y-131041231D01*
X154718049Y-131054903D01*
X154704033Y-131061409D01*
X154627223Y-131108536D01*
X154562321Y-131170734D01*
X154510431Y-131245866D01*
X154472656Y-131331793D01*
X154450100Y-131426378D01*
X154443866Y-131527484D01*
X154445593Y-131562091D01*
X154461803Y-131665416D01*
X154493194Y-131757487D01*
X154539133Y-131837008D01*
X154598987Y-131902682D01*
X154620288Y-131920042D01*
X154675571Y-131955817D01*
X154732540Y-131978835D01*
X154797189Y-131990912D01*
X154863960Y-131993935D01*
X154939977Y-131989862D01*
X155004200Y-131976202D01*
X155063748Y-131950791D01*
X155118520Y-131916583D01*
X155176933Y-131875665D01*
X155200421Y-131904372D01*
X155215982Y-131924881D01*
X155224001Y-131938349D01*
X155224274Y-131939506D01*
X155216214Y-131949521D01*
X155194225Y-131965952D01*
X155162608Y-131986242D01*
X155125666Y-132007832D01*
X155087700Y-132028165D01*
X155053013Y-132044683D01*
X155035554Y-132051703D01*
X154988179Y-132063981D01*
X154928386Y-132072557D01*
X154862833Y-132077142D01*
X154798177Y-132077446D01*
X154741076Y-132073181D01*
X154704579Y-132066075D01*
X154629717Y-132038686D01*
X154564983Y-132001082D01*
X154503174Y-131948935D01*
X154492935Y-131938810D01*
X154434798Y-131870979D01*
X154391411Y-131798121D01*
X154361660Y-131717151D01*
X154344429Y-131624982D01*
X154338604Y-131518528D01*
X154338594Y-131511440D01*
X154345269Y-131403703D01*
X154365665Y-131308178D01*
X154400751Y-131221254D01*
X154430242Y-131170198D01*
X154489214Y-131096562D01*
X154560412Y-131036654D01*
X154641049Y-130990931D01*
X154728339Y-130959856D01*
X154819494Y-130943887D01*
X154911729Y-130943485D01*
X155002257Y-130959109D01*
X155002257Y-130959109D01*
G37*
X155002257Y-130959109D02*
X155088291Y-130991219D01*
X155167044Y-131040276D01*
X155175692Y-131047175D01*
X155202945Y-131069480D01*
X155172962Y-131102872D01*
X155142980Y-131136264D01*
X155109721Y-131110896D01*
X155082117Y-131092683D01*
X155045084Y-131071785D01*
X155015931Y-131057184D01*
X154982404Y-131042856D01*
X154952340Y-131034310D01*
X154918211Y-131030148D01*
X154872491Y-131028972D01*
X154863960Y-131028967D01*
X154816635Y-131029852D01*
X154781766Y-131033410D01*
X154751516Y-131041231D01*
X154718049Y-131054903D01*
X154704033Y-131061409D01*
X154627223Y-131108536D01*
X154562321Y-131170734D01*
X154510431Y-131245866D01*
X154472656Y-131331793D01*
X154450100Y-131426378D01*
X154443866Y-131527484D01*
X154445593Y-131562091D01*
X154461803Y-131665416D01*
X154493194Y-131757487D01*
X154539133Y-131837008D01*
X154598987Y-131902682D01*
X154620288Y-131920042D01*
X154675571Y-131955817D01*
X154732540Y-131978835D01*
X154797189Y-131990912D01*
X154863960Y-131993935D01*
X154939977Y-131989862D01*
X155004200Y-131976202D01*
X155063748Y-131950791D01*
X155118520Y-131916583D01*
X155176933Y-131875665D01*
X155200421Y-131904372D01*
X155215982Y-131924881D01*
X155224001Y-131938349D01*
X155224274Y-131939506D01*
X155216214Y-131949521D01*
X155194225Y-131965952D01*
X155162608Y-131986242D01*
X155125666Y-132007832D01*
X155087700Y-132028165D01*
X155053013Y-132044683D01*
X155035554Y-132051703D01*
X154988179Y-132063981D01*
X154928386Y-132072557D01*
X154862833Y-132077142D01*
X154798177Y-132077446D01*
X154741076Y-132073181D01*
X154704579Y-132066075D01*
X154629717Y-132038686D01*
X154564983Y-132001082D01*
X154503174Y-131948935D01*
X154492935Y-131938810D01*
X154434798Y-131870979D01*
X154391411Y-131798121D01*
X154361660Y-131717151D01*
X154344429Y-131624982D01*
X154338604Y-131518528D01*
X154338594Y-131511440D01*
X154345269Y-131403703D01*
X154365665Y-131308178D01*
X154400751Y-131221254D01*
X154430242Y-131170198D01*
X154489214Y-131096562D01*
X154560412Y-131036654D01*
X154641049Y-130990931D01*
X154728339Y-130959856D01*
X154819494Y-130943887D01*
X154911729Y-130943485D01*
X155002257Y-130959109D01*
G36*
X160755838Y-130944952D02*
X160840050Y-130955956D01*
X160911737Y-130979412D01*
X160975785Y-131017300D01*
X161014657Y-131049696D01*
X161070963Y-131115530D01*
X161113637Y-131195638D01*
X161142254Y-131288848D01*
X161156385Y-131393989D01*
X161157903Y-131442860D01*
X161158080Y-131521600D01*
X160324960Y-131521600D01*
X160324960Y-131565185D01*
X160331231Y-131625712D01*
X160348564Y-131693743D01*
X160374740Y-131761405D01*
X160387582Y-131787340D01*
X160437422Y-131860473D01*
X160500138Y-131919460D01*
X160573433Y-131963671D01*
X160655012Y-131992479D01*
X160742578Y-132005255D01*
X160833836Y-132001371D01*
X160926491Y-131980199D01*
X160994034Y-131953303D01*
X161029037Y-131936893D01*
X161056270Y-131924510D01*
X161071146Y-131918225D01*
X161072513Y-131917840D01*
X161079144Y-131925794D01*
X161089862Y-131944352D01*
X161100485Y-131965553D01*
X161106833Y-131981438D01*
X161107280Y-131984036D01*
X161098288Y-131992973D01*
X161074189Y-132006168D01*
X161039294Y-132021901D01*
X160997916Y-132038448D01*
X160954366Y-132054090D01*
X160912957Y-132067103D01*
X160878000Y-132075766D01*
X160877114Y-132075938D01*
X160806146Y-132085715D01*
X160734666Y-132088906D01*
X160671502Y-132085203D01*
X160660240Y-132083540D01*
X160635622Y-132077968D01*
X160601791Y-132068618D01*
X160584040Y-132063199D01*
X160488698Y-132023907D01*
X160407731Y-131970664D01*
X160340448Y-131902785D01*
X160286158Y-131819586D01*
X160247042Y-131728776D01*
X160235142Y-131692505D01*
X160227164Y-131660849D01*
X160222346Y-131628008D01*
X160219924Y-131588186D01*
X160219136Y-131535585D01*
X160219104Y-131516520D01*
X160219556Y-131458915D01*
X160219920Y-131450480D01*
X160324960Y-131450480D01*
X161066640Y-131450480D01*
X161066489Y-131402220D01*
X161058444Y-131318888D01*
X161036060Y-131239292D01*
X161001185Y-131168228D01*
X160955666Y-131110493D01*
X160953204Y-131108100D01*
X160903370Y-131069234D01*
X160847446Y-131044163D01*
X160781067Y-131031364D01*
X160726280Y-131028891D01*
X160677775Y-131029807D01*
X160642098Y-131033527D01*
X160611805Y-131041406D01*
X160579455Y-131054803D01*
X160576393Y-131056230D01*
X160509621Y-131097103D01*
X160449184Y-131152335D01*
X160397805Y-131217900D01*
X160358208Y-131289769D01*
X160333120Y-131363912D01*
X160325208Y-131427620D01*
X160324960Y-131450480D01*
X160219920Y-131450480D01*
X160221418Y-131415835D01*
X160225448Y-131381497D01*
X160232402Y-131350115D01*
X160243040Y-131315907D01*
X160246825Y-131304909D01*
X160284166Y-131216561D01*
X160330838Y-131142139D01*
X160390421Y-131076080D01*
X160399466Y-131067666D01*
X160476064Y-131009256D01*
X160558083Y-130969700D01*
X160647481Y-130948324D01*
X160746217Y-130944453D01*
X160755838Y-130944952D01*
X160755838Y-130944952D01*
G37*
X160755838Y-130944952D02*
X160840050Y-130955956D01*
X160911737Y-130979412D01*
X160975785Y-131017300D01*
X161014657Y-131049696D01*
X161070963Y-131115530D01*
X161113637Y-131195638D01*
X161142254Y-131288848D01*
X161156385Y-131393989D01*
X161157903Y-131442860D01*
X161158080Y-131521600D01*
X160324960Y-131521600D01*
X160324960Y-131565185D01*
X160331231Y-131625712D01*
X160348564Y-131693743D01*
X160374740Y-131761405D01*
X160387582Y-131787340D01*
X160437422Y-131860473D01*
X160500138Y-131919460D01*
X160573433Y-131963671D01*
X160655012Y-131992479D01*
X160742578Y-132005255D01*
X160833836Y-132001371D01*
X160926491Y-131980199D01*
X160994034Y-131953303D01*
X161029037Y-131936893D01*
X161056270Y-131924510D01*
X161071146Y-131918225D01*
X161072513Y-131917840D01*
X161079144Y-131925794D01*
X161089862Y-131944352D01*
X161100485Y-131965553D01*
X161106833Y-131981438D01*
X161107280Y-131984036D01*
X161098288Y-131992973D01*
X161074189Y-132006168D01*
X161039294Y-132021901D01*
X160997916Y-132038448D01*
X160954366Y-132054090D01*
X160912957Y-132067103D01*
X160878000Y-132075766D01*
X160877114Y-132075938D01*
X160806146Y-132085715D01*
X160734666Y-132088906D01*
X160671502Y-132085203D01*
X160660240Y-132083540D01*
X160635622Y-132077968D01*
X160601791Y-132068618D01*
X160584040Y-132063199D01*
X160488698Y-132023907D01*
X160407731Y-131970664D01*
X160340448Y-131902785D01*
X160286158Y-131819586D01*
X160247042Y-131728776D01*
X160235142Y-131692505D01*
X160227164Y-131660849D01*
X160222346Y-131628008D01*
X160219924Y-131588186D01*
X160219136Y-131535585D01*
X160219104Y-131516520D01*
X160219556Y-131458915D01*
X160219920Y-131450480D01*
X160324960Y-131450480D01*
X161066640Y-131450480D01*
X161066489Y-131402220D01*
X161058444Y-131318888D01*
X161036060Y-131239292D01*
X161001185Y-131168228D01*
X160955666Y-131110493D01*
X160953204Y-131108100D01*
X160903370Y-131069234D01*
X160847446Y-131044163D01*
X160781067Y-131031364D01*
X160726280Y-131028891D01*
X160677775Y-131029807D01*
X160642098Y-131033527D01*
X160611805Y-131041406D01*
X160579455Y-131054803D01*
X160576393Y-131056230D01*
X160509621Y-131097103D01*
X160449184Y-131152335D01*
X160397805Y-131217900D01*
X160358208Y-131289769D01*
X160333120Y-131363912D01*
X160325208Y-131427620D01*
X160324960Y-131450480D01*
X160219920Y-131450480D01*
X160221418Y-131415835D01*
X160225448Y-131381497D01*
X160232402Y-131350115D01*
X160243040Y-131315907D01*
X160246825Y-131304909D01*
X160284166Y-131216561D01*
X160330838Y-131142139D01*
X160390421Y-131076080D01*
X160399466Y-131067666D01*
X160476064Y-131009256D01*
X160558083Y-130969700D01*
X160647481Y-130948324D01*
X160746217Y-130944453D01*
X160755838Y-130944952D01*
G36*
X161995277Y-130961762D02*
X162067887Y-130987639D01*
X162128861Y-131027003D01*
X162157619Y-131055567D01*
X162179408Y-131083322D01*
X162197765Y-131112732D01*
X162212971Y-131145730D01*
X162225309Y-131184250D01*
X162235064Y-131230226D01*
X162242517Y-131285591D01*
X162247951Y-131352279D01*
X162251650Y-131432223D01*
X162253896Y-131527357D01*
X162254973Y-131639615D01*
X162255179Y-131722260D01*
X162255360Y-132060080D01*
X162166742Y-132060080D01*
X162161141Y-131998317D01*
X162157454Y-131964981D01*
X162153525Y-131940699D01*
X162150723Y-131931736D01*
X162140655Y-131934700D01*
X162117851Y-131946722D01*
X162086448Y-131965541D01*
X162071453Y-131975081D01*
X161975816Y-132029384D01*
X161882232Y-132067725D01*
X161792950Y-132089385D01*
X161710220Y-132093647D01*
X161701640Y-132093025D01*
X161627249Y-132078835D01*
X161558065Y-132050853D01*
X161498155Y-132011490D01*
X161451586Y-131963160D01*
X161433219Y-131933796D01*
X161411218Y-131871742D01*
X161402911Y-131803989D01*
X161511248Y-131803989D01*
X161523709Y-131862401D01*
X161550097Y-131913534D01*
X161588552Y-131952966D01*
X161608119Y-131965111D01*
X161641898Y-131980974D01*
X161672926Y-131990723D01*
X161707711Y-131995500D01*
X161752762Y-131996448D01*
X161782920Y-131995792D01*
X161834773Y-131992934D01*
X161874404Y-131986893D01*
X161909849Y-131976060D01*
X161935320Y-131965292D01*
X161972994Y-131946146D01*
X162018754Y-131920043D01*
X162064163Y-131891853D01*
X162075020Y-131884682D01*
X162153760Y-131831854D01*
X162153760Y-131641167D01*
X162153624Y-131574333D01*
X162153050Y-131525148D01*
X162151791Y-131490945D01*
X162149595Y-131469054D01*
X162146216Y-131456806D01*
X162141403Y-131451532D01*
X162135980Y-131450539D01*
X162106830Y-131452738D01*
X162063046Y-131458588D01*
X162009793Y-131467178D01*
X161952237Y-131477594D01*
X161895543Y-131488922D01*
X161844877Y-131500249D01*
X161821523Y-131506130D01*
X161728251Y-131535760D01*
X161652878Y-131570566D01*
X161593411Y-131611573D01*
X161566647Y-131637264D01*
X161544137Y-131662787D01*
X161528465Y-131682654D01*
X161523397Y-131691552D01*
X161521336Y-131705632D01*
X161516691Y-131731604D01*
X161514575Y-131742722D01*
X161511248Y-131803989D01*
X161402911Y-131803989D01*
X161402622Y-131801639D01*
X161407930Y-131731132D01*
X161417524Y-131693222D01*
X161448404Y-131632366D01*
X161498428Y-131577659D01*
X161567331Y-131529229D01*
X161654850Y-131487208D01*
X161760720Y-131451726D01*
X161884677Y-131422912D01*
X162005862Y-131403523D01*
X162054560Y-131396917D01*
X162096562Y-131390870D01*
X162127377Y-131386051D01*
X162142508Y-131383133D01*
X162150209Y-131371045D01*
X162153108Y-131344157D01*
X162151669Y-131307292D01*
X162146355Y-131265278D01*
X162137630Y-131222938D01*
X162125957Y-131185098D01*
X162122729Y-131177131D01*
X162091038Y-131124341D01*
X162047380Y-131080599D01*
X161997029Y-131050851D01*
X161982478Y-131045711D01*
X161909266Y-131033207D01*
X161826632Y-131035579D01*
X161738279Y-131052189D01*
X161647908Y-131082399D01*
X161577606Y-131115418D01*
X161504372Y-131154538D01*
X161482159Y-131118595D01*
X161470948Y-131099879D01*
X161466939Y-131086720D01*
X161472565Y-131075638D01*
X161490256Y-131063152D01*
X161522446Y-131045782D01*
X161539080Y-131037128D01*
X161634985Y-130994524D01*
X161730883Y-130965755D01*
X161824448Y-130950751D01*
X161913355Y-130949443D01*
X161995277Y-130961762D01*
X161995277Y-130961762D01*
G37*
X161995277Y-130961762D02*
X162067887Y-130987639D01*
X162128861Y-131027003D01*
X162157619Y-131055567D01*
X162179408Y-131083322D01*
X162197765Y-131112732D01*
X162212971Y-131145730D01*
X162225309Y-131184250D01*
X162235064Y-131230226D01*
X162242517Y-131285591D01*
X162247951Y-131352279D01*
X162251650Y-131432223D01*
X162253896Y-131527357D01*
X162254973Y-131639615D01*
X162255179Y-131722260D01*
X162255360Y-132060080D01*
X162166742Y-132060080D01*
X162161141Y-131998317D01*
X162157454Y-131964981D01*
X162153525Y-131940699D01*
X162150723Y-131931736D01*
X162140655Y-131934700D01*
X162117851Y-131946722D01*
X162086448Y-131965541D01*
X162071453Y-131975081D01*
X161975816Y-132029384D01*
X161882232Y-132067725D01*
X161792950Y-132089385D01*
X161710220Y-132093647D01*
X161701640Y-132093025D01*
X161627249Y-132078835D01*
X161558065Y-132050853D01*
X161498155Y-132011490D01*
X161451586Y-131963160D01*
X161433219Y-131933796D01*
X161411218Y-131871742D01*
X161402911Y-131803989D01*
X161511248Y-131803989D01*
X161523709Y-131862401D01*
X161550097Y-131913534D01*
X161588552Y-131952966D01*
X161608119Y-131965111D01*
X161641898Y-131980974D01*
X161672926Y-131990723D01*
X161707711Y-131995500D01*
X161752762Y-131996448D01*
X161782920Y-131995792D01*
X161834773Y-131992934D01*
X161874404Y-131986893D01*
X161909849Y-131976060D01*
X161935320Y-131965292D01*
X161972994Y-131946146D01*
X162018754Y-131920043D01*
X162064163Y-131891853D01*
X162075020Y-131884682D01*
X162153760Y-131831854D01*
X162153760Y-131641167D01*
X162153624Y-131574333D01*
X162153050Y-131525148D01*
X162151791Y-131490945D01*
X162149595Y-131469054D01*
X162146216Y-131456806D01*
X162141403Y-131451532D01*
X162135980Y-131450539D01*
X162106830Y-131452738D01*
X162063046Y-131458588D01*
X162009793Y-131467178D01*
X161952237Y-131477594D01*
X161895543Y-131488922D01*
X161844877Y-131500249D01*
X161821523Y-131506130D01*
X161728251Y-131535760D01*
X161652878Y-131570566D01*
X161593411Y-131611573D01*
X161566647Y-131637264D01*
X161544137Y-131662787D01*
X161528465Y-131682654D01*
X161523397Y-131691552D01*
X161521336Y-131705632D01*
X161516691Y-131731604D01*
X161514575Y-131742722D01*
X161511248Y-131803989D01*
X161402911Y-131803989D01*
X161402622Y-131801639D01*
X161407930Y-131731132D01*
X161417524Y-131693222D01*
X161448404Y-131632366D01*
X161498428Y-131577659D01*
X161567331Y-131529229D01*
X161654850Y-131487208D01*
X161760720Y-131451726D01*
X161884677Y-131422912D01*
X162005862Y-131403523D01*
X162054560Y-131396917D01*
X162096562Y-131390870D01*
X162127377Y-131386051D01*
X162142508Y-131383133D01*
X162150209Y-131371045D01*
X162153108Y-131344157D01*
X162151669Y-131307292D01*
X162146355Y-131265278D01*
X162137630Y-131222938D01*
X162125957Y-131185098D01*
X162122729Y-131177131D01*
X162091038Y-131124341D01*
X162047380Y-131080599D01*
X161997029Y-131050851D01*
X161982478Y-131045711D01*
X161909266Y-131033207D01*
X161826632Y-131035579D01*
X161738279Y-131052189D01*
X161647908Y-131082399D01*
X161577606Y-131115418D01*
X161504372Y-131154538D01*
X161482159Y-131118595D01*
X161470948Y-131099879D01*
X161466939Y-131086720D01*
X161472565Y-131075638D01*
X161490256Y-131063152D01*
X161522446Y-131045782D01*
X161539080Y-131037128D01*
X161634985Y-130994524D01*
X161730883Y-130965755D01*
X161824448Y-130950751D01*
X161913355Y-130949443D01*
X161995277Y-130961762D01*
G36*
X153760222Y-130961581D02*
X153793850Y-130972202D01*
X153860628Y-131008127D01*
X153915454Y-131059986D01*
X153957600Y-131126772D01*
X153986335Y-131207481D01*
X153994927Y-131249486D01*
X153997327Y-131274427D01*
X153999535Y-131316904D01*
X154001484Y-131374131D01*
X154003107Y-131443324D01*
X154004339Y-131521699D01*
X154005113Y-131606471D01*
X154005363Y-131686700D01*
X154005440Y-132060080D01*
X153965887Y-132060080D01*
X153940047Y-132057907D01*
X153924480Y-132048739D01*
X153916675Y-132028602D01*
X153914119Y-131993523D01*
X153914000Y-131977969D01*
X153912330Y-131949261D01*
X153908067Y-131931192D01*
X153904860Y-131928000D01*
X153892261Y-131933309D01*
X153868408Y-131947162D01*
X153841360Y-131964643D01*
X153743007Y-132023672D01*
X153649905Y-132064182D01*
X153560262Y-132086713D01*
X153472288Y-132091806D01*
X153431400Y-132088379D01*
X153369544Y-132074479D01*
X153309409Y-132050313D01*
X153256824Y-132018867D01*
X153217623Y-131983126D01*
X153212242Y-131976196D01*
X153174734Y-131908628D01*
X153156046Y-131837773D01*
X153155696Y-131787305D01*
X153263760Y-131787305D01*
X153271184Y-131844090D01*
X153291628Y-131896220D01*
X153322350Y-131937591D01*
X153336663Y-131949590D01*
X153392823Y-131978263D01*
X153460652Y-131994617D01*
X153535357Y-131998242D01*
X153612144Y-131988728D01*
X153656206Y-131976878D01*
X153695120Y-131960972D01*
X153742973Y-131936833D01*
X153792382Y-131908328D01*
X153816440Y-131892931D01*
X153908920Y-131831226D01*
X153914448Y-131450480D01*
X153890097Y-131450480D01*
X153860633Y-131452732D01*
X153816366Y-131458861D01*
X153762231Y-131467927D01*
X153703165Y-131478988D01*
X153644104Y-131491105D01*
X153589986Y-131503336D01*
X153545746Y-131514742D01*
X153533000Y-131518523D01*
X153443584Y-131551666D01*
X153373210Y-131589669D01*
X153320992Y-131633416D01*
X153286044Y-131683791D01*
X153267480Y-131741678D01*
X153263760Y-131787305D01*
X153155696Y-131787305D01*
X153155549Y-131766234D01*
X153172615Y-131696614D01*
X153206616Y-131631518D01*
X153256924Y-131573548D01*
X153320699Y-131526596D01*
X153370768Y-131502373D01*
X153437142Y-131477944D01*
X153515842Y-131454304D01*
X153602886Y-131432447D01*
X153694296Y-131413368D01*
X153786092Y-131398063D01*
X153874295Y-131387527D01*
X153878440Y-131387152D01*
X153908920Y-131384440D01*
X153905954Y-131323480D01*
X153894812Y-131237389D01*
X153870532Y-131166633D01*
X153834854Y-131113191D01*
X153794431Y-131075517D01*
X153750837Y-131051181D01*
X153698748Y-131038088D01*
X153634194Y-131034143D01*
X153557458Y-131038369D01*
X153485129Y-131052622D01*
X153410672Y-131078597D01*
X153344524Y-131109288D01*
X153257611Y-131153121D01*
X153234313Y-131117580D01*
X153223220Y-131100392D01*
X153218361Y-131087923D01*
X153222100Y-131077393D01*
X153236802Y-131066019D01*
X153264833Y-131051020D01*
X153308556Y-131029615D01*
X153309480Y-131029164D01*
X153402472Y-130990837D01*
X153497877Y-130964464D01*
X153591860Y-130950496D01*
X153680587Y-130949385D01*
X153760222Y-130961581D01*
X153760222Y-130961581D01*
G37*
X153760222Y-130961581D02*
X153793850Y-130972202D01*
X153860628Y-131008127D01*
X153915454Y-131059986D01*
X153957600Y-131126772D01*
X153986335Y-131207481D01*
X153994927Y-131249486D01*
X153997327Y-131274427D01*
X153999535Y-131316904D01*
X154001484Y-131374131D01*
X154003107Y-131443324D01*
X154004339Y-131521699D01*
X154005113Y-131606471D01*
X154005363Y-131686700D01*
X154005440Y-132060080D01*
X153965887Y-132060080D01*
X153940047Y-132057907D01*
X153924480Y-132048739D01*
X153916675Y-132028602D01*
X153914119Y-131993523D01*
X153914000Y-131977969D01*
X153912330Y-131949261D01*
X153908067Y-131931192D01*
X153904860Y-131928000D01*
X153892261Y-131933309D01*
X153868408Y-131947162D01*
X153841360Y-131964643D01*
X153743007Y-132023672D01*
X153649905Y-132064182D01*
X153560262Y-132086713D01*
X153472288Y-132091806D01*
X153431400Y-132088379D01*
X153369544Y-132074479D01*
X153309409Y-132050313D01*
X153256824Y-132018867D01*
X153217623Y-131983126D01*
X153212242Y-131976196D01*
X153174734Y-131908628D01*
X153156046Y-131837773D01*
X153155696Y-131787305D01*
X153263760Y-131787305D01*
X153271184Y-131844090D01*
X153291628Y-131896220D01*
X153322350Y-131937591D01*
X153336663Y-131949590D01*
X153392823Y-131978263D01*
X153460652Y-131994617D01*
X153535357Y-131998242D01*
X153612144Y-131988728D01*
X153656206Y-131976878D01*
X153695120Y-131960972D01*
X153742973Y-131936833D01*
X153792382Y-131908328D01*
X153816440Y-131892931D01*
X153908920Y-131831226D01*
X153914448Y-131450480D01*
X153890097Y-131450480D01*
X153860633Y-131452732D01*
X153816366Y-131458861D01*
X153762231Y-131467927D01*
X153703165Y-131478988D01*
X153644104Y-131491105D01*
X153589986Y-131503336D01*
X153545746Y-131514742D01*
X153533000Y-131518523D01*
X153443584Y-131551666D01*
X153373210Y-131589669D01*
X153320992Y-131633416D01*
X153286044Y-131683791D01*
X153267480Y-131741678D01*
X153263760Y-131787305D01*
X153155696Y-131787305D01*
X153155549Y-131766234D01*
X153172615Y-131696614D01*
X153206616Y-131631518D01*
X153256924Y-131573548D01*
X153320699Y-131526596D01*
X153370768Y-131502373D01*
X153437142Y-131477944D01*
X153515842Y-131454304D01*
X153602886Y-131432447D01*
X153694296Y-131413368D01*
X153786092Y-131398063D01*
X153874295Y-131387527D01*
X153878440Y-131387152D01*
X153908920Y-131384440D01*
X153905954Y-131323480D01*
X153894812Y-131237389D01*
X153870532Y-131166633D01*
X153834854Y-131113191D01*
X153794431Y-131075517D01*
X153750837Y-131051181D01*
X153698748Y-131038088D01*
X153634194Y-131034143D01*
X153557458Y-131038369D01*
X153485129Y-131052622D01*
X153410672Y-131078597D01*
X153344524Y-131109288D01*
X153257611Y-131153121D01*
X153234313Y-131117580D01*
X153223220Y-131100392D01*
X153218361Y-131087923D01*
X153222100Y-131077393D01*
X153236802Y-131066019D01*
X153264833Y-131051020D01*
X153308556Y-131029615D01*
X153309480Y-131029164D01*
X153402472Y-130990837D01*
X153497877Y-130964464D01*
X153591860Y-130950496D01*
X153680587Y-130949385D01*
X153760222Y-130961581D01*
G36*
X157795120Y-130953768D02*
X157822546Y-130957516D01*
X157866155Y-130961225D01*
X157921808Y-130964646D01*
X157985367Y-130967529D01*
X158052695Y-130969624D01*
X158061820Y-130969833D01*
X158272640Y-130974431D01*
X158272640Y-131054240D01*
X158006375Y-131054240D01*
X158039420Y-131091876D01*
X158062832Y-131123194D01*
X158086806Y-131162412D01*
X158098892Y-131185856D01*
X158112344Y-131217825D01*
X158120318Y-131247735D01*
X158124107Y-131282897D01*
X158125001Y-131330624D01*
X158124992Y-131333640D01*
X158123855Y-131382289D01*
X158119865Y-131418482D01*
X158111540Y-131450037D01*
X158097394Y-131484771D01*
X158095518Y-131488905D01*
X158057398Y-131551904D01*
X158005049Y-131609686D01*
X157944016Y-131656975D01*
X157889451Y-131684978D01*
X157829285Y-131701140D01*
X157758723Y-131708871D01*
X157685931Y-131708003D01*
X157619075Y-131698371D01*
X157592804Y-131691032D01*
X157561204Y-131680916D01*
X157541830Y-131677597D01*
X157527729Y-131681155D01*
X157511949Y-131691672D01*
X157511524Y-131691987D01*
X157477488Y-131727797D01*
X157452216Y-131774640D01*
X157440134Y-131823786D01*
X157439687Y-131833666D01*
X157448978Y-131877351D01*
X157474464Y-131916973D01*
X157512051Y-131947376D01*
X157539415Y-131959266D01*
X157559786Y-131962755D01*
X157597194Y-131966468D01*
X157648363Y-131970188D01*
X157710015Y-131973698D01*
X157778872Y-131976780D01*
X157830680Y-131978600D01*
X157902582Y-131981235D01*
X157969532Y-131984439D01*
X158028274Y-131987999D01*
X158075553Y-131991699D01*
X158108110Y-131995323D01*
X158120590Y-131997760D01*
X158187712Y-132027412D01*
X158239026Y-132068797D01*
X158273737Y-132120920D01*
X158291053Y-132182786D01*
X158292960Y-132213877D01*
X158285031Y-132286458D01*
X158260186Y-132351513D01*
X158216840Y-132412988D01*
X158209560Y-132421144D01*
X158156374Y-132468157D01*
X158088755Y-132510802D01*
X158012549Y-132545987D01*
X157933603Y-132570621D01*
X157922120Y-132573166D01*
X157859917Y-132582075D01*
X157785732Y-132586390D01*
X157707367Y-132586143D01*
X157632626Y-132581365D01*
X157569311Y-132572089D01*
X157567550Y-132571715D01*
X157486756Y-132547530D01*
X157415222Y-132512535D01*
X157355902Y-132468759D01*
X157311752Y-132418231D01*
X157292696Y-132382986D01*
X157279760Y-132330868D01*
X157279208Y-132299160D01*
X157370825Y-132299160D01*
X157388041Y-132353439D01*
X157422489Y-132402105D01*
X157472724Y-132443763D01*
X157537299Y-132477018D01*
X157614770Y-132500474D01*
X157647800Y-132506608D01*
X157710519Y-132512134D01*
X157781428Y-132511660D01*
X157851955Y-132505667D01*
X157913533Y-132494638D01*
X157927521Y-132490858D01*
X158012389Y-132458915D01*
X158081869Y-132418514D01*
X158134973Y-132370699D01*
X158170715Y-132316513D01*
X158188107Y-132257000D01*
X158188987Y-132214484D01*
X158184193Y-132178747D01*
X158174419Y-132154297D01*
X158155536Y-132132118D01*
X158148021Y-132125057D01*
X158115443Y-132101525D01*
X158078346Y-132083318D01*
X158067716Y-132079855D01*
X158045380Y-132076217D01*
X158006114Y-132072361D01*
X157953300Y-132068515D01*
X157890323Y-132064903D01*
X157820567Y-132061753D01*
X157769720Y-132059949D01*
X157515720Y-132051971D01*
X157480160Y-132079617D01*
X157444793Y-132113604D01*
X157411925Y-132156416D01*
X157386201Y-132201117D01*
X157372287Y-132240664D01*
X157370825Y-132299160D01*
X157279208Y-132299160D01*
X157278730Y-132271768D01*
X157289376Y-132215002D01*
X157297310Y-132194021D01*
X157313848Y-132166041D01*
X157340160Y-132130547D01*
X157371314Y-132094047D01*
X157380282Y-132084483D01*
X157443351Y-132018803D01*
X157410504Y-131988802D01*
X157372721Y-131941669D01*
X157352089Y-131887292D01*
X157348395Y-131828979D01*
X157361428Y-131770041D01*
X157390974Y-131713786D01*
X157431088Y-131668566D01*
X157472269Y-131631362D01*
X157431164Y-131589181D01*
X157402444Y-131554899D01*
X157374317Y-131513750D01*
X157361449Y-131491120D01*
X157348334Y-131463656D01*
X157339958Y-131439164D01*
X157335280Y-131411718D01*
X157333255Y-131375389D01*
X157332840Y-131328560D01*
X157332893Y-131323480D01*
X157424689Y-131323480D01*
X157431014Y-131399768D01*
X157450902Y-131463616D01*
X157486056Y-131519082D01*
X157522429Y-131556695D01*
X157572657Y-131594795D01*
X157625137Y-131618588D01*
X157686077Y-131630334D01*
X157730732Y-131632557D01*
X157774064Y-131631622D01*
X157807302Y-131626081D01*
X157840551Y-131613544D01*
X157867578Y-131600190D01*
X157930521Y-131557387D01*
X157978447Y-131503861D01*
X158011441Y-131442488D01*
X158029588Y-131376138D01*
X158032973Y-131307686D01*
X158021683Y-131240004D01*
X157995803Y-131175965D01*
X157955417Y-131118441D01*
X157900612Y-131070307D01*
X157851000Y-131042500D01*
X157786286Y-131023287D01*
X157714771Y-131018569D01*
X157643743Y-131028201D01*
X157588792Y-131047759D01*
X157523198Y-131089764D01*
X157474233Y-131143439D01*
X157441921Y-131208749D01*
X157426282Y-131285656D01*
X157424689Y-131323480D01*
X157332893Y-131323480D01*
X157333373Y-131278304D01*
X157335662Y-131242323D01*
X157340741Y-131214582D01*
X157349644Y-131189050D01*
X157360923Y-131164715D01*
X157398437Y-131106508D01*
X157449761Y-131051957D01*
X157508540Y-131007199D01*
X157543984Y-130987944D01*
X157610600Y-130964609D01*
X157682975Y-130951152D01*
X157753064Y-130948670D01*
X157795120Y-130953768D01*
X157795120Y-130953768D01*
G37*
X157795120Y-130953768D02*
X157822546Y-130957516D01*
X157866155Y-130961225D01*
X157921808Y-130964646D01*
X157985367Y-130967529D01*
X158052695Y-130969624D01*
X158061820Y-130969833D01*
X158272640Y-130974431D01*
X158272640Y-131054240D01*
X158006375Y-131054240D01*
X158039420Y-131091876D01*
X158062832Y-131123194D01*
X158086806Y-131162412D01*
X158098892Y-131185856D01*
X158112344Y-131217825D01*
X158120318Y-131247735D01*
X158124107Y-131282897D01*
X158125001Y-131330624D01*
X158124992Y-131333640D01*
X158123855Y-131382289D01*
X158119865Y-131418482D01*
X158111540Y-131450037D01*
X158097394Y-131484771D01*
X158095518Y-131488905D01*
X158057398Y-131551904D01*
X158005049Y-131609686D01*
X157944016Y-131656975D01*
X157889451Y-131684978D01*
X157829285Y-131701140D01*
X157758723Y-131708871D01*
X157685931Y-131708003D01*
X157619075Y-131698371D01*
X157592804Y-131691032D01*
X157561204Y-131680916D01*
X157541830Y-131677597D01*
X157527729Y-131681155D01*
X157511949Y-131691672D01*
X157511524Y-131691987D01*
X157477488Y-131727797D01*
X157452216Y-131774640D01*
X157440134Y-131823786D01*
X157439687Y-131833666D01*
X157448978Y-131877351D01*
X157474464Y-131916973D01*
X157512051Y-131947376D01*
X157539415Y-131959266D01*
X157559786Y-131962755D01*
X157597194Y-131966468D01*
X157648363Y-131970188D01*
X157710015Y-131973698D01*
X157778872Y-131976780D01*
X157830680Y-131978600D01*
X157902582Y-131981235D01*
X157969532Y-131984439D01*
X158028274Y-131987999D01*
X158075553Y-131991699D01*
X158108110Y-131995323D01*
X158120590Y-131997760D01*
X158187712Y-132027412D01*
X158239026Y-132068797D01*
X158273737Y-132120920D01*
X158291053Y-132182786D01*
X158292960Y-132213877D01*
X158285031Y-132286458D01*
X158260186Y-132351513D01*
X158216840Y-132412988D01*
X158209560Y-132421144D01*
X158156374Y-132468157D01*
X158088755Y-132510802D01*
X158012549Y-132545987D01*
X157933603Y-132570621D01*
X157922120Y-132573166D01*
X157859917Y-132582075D01*
X157785732Y-132586390D01*
X157707367Y-132586143D01*
X157632626Y-132581365D01*
X157569311Y-132572089D01*
X157567550Y-132571715D01*
X157486756Y-132547530D01*
X157415222Y-132512535D01*
X157355902Y-132468759D01*
X157311752Y-132418231D01*
X157292696Y-132382986D01*
X157279760Y-132330868D01*
X157279208Y-132299160D01*
X157370825Y-132299160D01*
X157388041Y-132353439D01*
X157422489Y-132402105D01*
X157472724Y-132443763D01*
X157537299Y-132477018D01*
X157614770Y-132500474D01*
X157647800Y-132506608D01*
X157710519Y-132512134D01*
X157781428Y-132511660D01*
X157851955Y-132505667D01*
X157913533Y-132494638D01*
X157927521Y-132490858D01*
X158012389Y-132458915D01*
X158081869Y-132418514D01*
X158134973Y-132370699D01*
X158170715Y-132316513D01*
X158188107Y-132257000D01*
X158188987Y-132214484D01*
X158184193Y-132178747D01*
X158174419Y-132154297D01*
X158155536Y-132132118D01*
X158148021Y-132125057D01*
X158115443Y-132101525D01*
X158078346Y-132083318D01*
X158067716Y-132079855D01*
X158045380Y-132076217D01*
X158006114Y-132072361D01*
X157953300Y-132068515D01*
X157890323Y-132064903D01*
X157820567Y-132061753D01*
X157769720Y-132059949D01*
X157515720Y-132051971D01*
X157480160Y-132079617D01*
X157444793Y-132113604D01*
X157411925Y-132156416D01*
X157386201Y-132201117D01*
X157372287Y-132240664D01*
X157370825Y-132299160D01*
X157279208Y-132299160D01*
X157278730Y-132271768D01*
X157289376Y-132215002D01*
X157297310Y-132194021D01*
X157313848Y-132166041D01*
X157340160Y-132130547D01*
X157371314Y-132094047D01*
X157380282Y-132084483D01*
X157443351Y-132018803D01*
X157410504Y-131988802D01*
X157372721Y-131941669D01*
X157352089Y-131887292D01*
X157348395Y-131828979D01*
X157361428Y-131770041D01*
X157390974Y-131713786D01*
X157431088Y-131668566D01*
X157472269Y-131631362D01*
X157431164Y-131589181D01*
X157402444Y-131554899D01*
X157374317Y-131513750D01*
X157361449Y-131491120D01*
X157348334Y-131463656D01*
X157339958Y-131439164D01*
X157335280Y-131411718D01*
X157333255Y-131375389D01*
X157332840Y-131328560D01*
X157332893Y-131323480D01*
X157424689Y-131323480D01*
X157431014Y-131399768D01*
X157450902Y-131463616D01*
X157486056Y-131519082D01*
X157522429Y-131556695D01*
X157572657Y-131594795D01*
X157625137Y-131618588D01*
X157686077Y-131630334D01*
X157730732Y-131632557D01*
X157774064Y-131631622D01*
X157807302Y-131626081D01*
X157840551Y-131613544D01*
X157867578Y-131600190D01*
X157930521Y-131557387D01*
X157978447Y-131503861D01*
X158011441Y-131442488D01*
X158029588Y-131376138D01*
X158032973Y-131307686D01*
X158021683Y-131240004D01*
X157995803Y-131175965D01*
X157955417Y-131118441D01*
X157900612Y-131070307D01*
X157851000Y-131042500D01*
X157786286Y-131023287D01*
X157714771Y-131018569D01*
X157643743Y-131028201D01*
X157588792Y-131047759D01*
X157523198Y-131089764D01*
X157474233Y-131143439D01*
X157441921Y-131208749D01*
X157426282Y-131285656D01*
X157424689Y-131323480D01*
X157332893Y-131323480D01*
X157333373Y-131278304D01*
X157335662Y-131242323D01*
X157340741Y-131214582D01*
X157349644Y-131189050D01*
X157360923Y-131164715D01*
X157398437Y-131106508D01*
X157449761Y-131051957D01*
X157508540Y-131007199D01*
X157543984Y-130987944D01*
X157610600Y-130964609D01*
X157682975Y-130951152D01*
X157753064Y-130948670D01*
X157795120Y-130953768D01*
G36*
X149971920Y-136398400D02*
X149850000Y-136398400D01*
X149850000Y-123901600D01*
X149971920Y-123901600D01*
X149971920Y-136398400D01*
X149971920Y-136398400D01*
G37*
X149971920Y-136398400D02*
X149850000Y-136398400D01*
X149850000Y-123901600D01*
X149971920Y-123901600D01*
X149971920Y-136398400D01*
G36*
X141029195Y-123913949D02*
X141154752Y-123915360D01*
X141277164Y-123917931D01*
X141392764Y-123921608D01*
X141497886Y-123926338D01*
X141588865Y-123932068D01*
X141640720Y-123936502D01*
X141990001Y-123977468D01*
X142329140Y-124031175D01*
X142661686Y-124098481D01*
X142991183Y-124180240D01*
X143321180Y-124277310D01*
X143655223Y-124390547D01*
X143896240Y-124481012D01*
X143965877Y-124507993D01*
X144041717Y-124537111D01*
X144116726Y-124565682D01*
X144183871Y-124591023D01*
X144215941Y-124602998D01*
X144475107Y-124709654D01*
X144726903Y-124834056D01*
X144970042Y-124975188D01*
X145203236Y-125132035D01*
X145425196Y-125303579D01*
X145634635Y-125488806D01*
X145830264Y-125686699D01*
X146010797Y-125896243D01*
X146174945Y-126116422D01*
X146220911Y-126184563D01*
X146285684Y-126283220D01*
X146340382Y-126367412D01*
X146386333Y-126439497D01*
X146424862Y-126501832D01*
X146457295Y-126556774D01*
X146484958Y-126606680D01*
X146509177Y-126653907D01*
X146531277Y-126700812D01*
X146552585Y-126749752D01*
X146574427Y-126803084D01*
X146587779Y-126836749D01*
X146607740Y-126890212D01*
X146631911Y-126959345D01*
X146659050Y-127040241D01*
X146687912Y-127128995D01*
X146717254Y-127221703D01*
X146745833Y-127314458D01*
X146772405Y-127403355D01*
X146795727Y-127484490D01*
X146806721Y-127524398D01*
X146828211Y-127603055D01*
X146846015Y-127665722D01*
X146861363Y-127716125D01*
X146875482Y-127757992D01*
X146889603Y-127795049D01*
X146904954Y-127831022D01*
X146915360Y-127853838D01*
X146992470Y-127998681D01*
X147086817Y-128140129D01*
X147195321Y-128274431D01*
X147314901Y-128397837D01*
X147442477Y-128506597D01*
X147465857Y-128524184D01*
X147545416Y-128590001D01*
X147613407Y-128662833D01*
X147673662Y-128747302D01*
X147723184Y-128834650D01*
X147784485Y-128975122D01*
X147828826Y-129125248D01*
X147856309Y-129283651D01*
X147867039Y-129448954D01*
X147861120Y-129619778D01*
X147838655Y-129794748D01*
X147799747Y-129972486D01*
X147744502Y-130151614D01*
X147673023Y-130330755D01*
X147598895Y-130483304D01*
X147569321Y-130537644D01*
X147537698Y-130592803D01*
X147506153Y-130645358D01*
X147476815Y-130691887D01*
X147451811Y-130728969D01*
X147433270Y-130753180D01*
X147427364Y-130759164D01*
X147415596Y-130762701D01*
X147399435Y-130756083D01*
X147377838Y-130738163D01*
X147349759Y-130707798D01*
X147314153Y-130663842D01*
X147269976Y-130605150D01*
X147216181Y-130530576D01*
X147207119Y-130517810D01*
X147111438Y-130388504D01*
X147019539Y-130276758D01*
X146929267Y-130180696D01*
X146838469Y-130098447D01*
X146744988Y-130028136D01*
X146646671Y-129967888D01*
X146541362Y-129915832D01*
X146489750Y-129894028D01*
X146436398Y-129873483D01*
X146380134Y-129853832D01*
X146318133Y-129834264D01*
X146247569Y-129813966D01*
X146165619Y-129792126D01*
X146069455Y-129767934D01*
X145956253Y-129740576D01*
X145953640Y-129739953D01*
X145838977Y-129712014D01*
X145740586Y-129686497D01*
X145654731Y-129662281D01*
X145577676Y-129638243D01*
X145505684Y-129613261D01*
X145435018Y-129586215D01*
X145415829Y-129578473D01*
X145314898Y-129537349D01*
X145151669Y-129549097D01*
X145091045Y-129554276D01*
X145016280Y-129561933D01*
X144933306Y-129571385D01*
X144848056Y-129581951D01*
X144766460Y-129592947D01*
X144749443Y-129595377D01*
X144673227Y-129606165D01*
X144595586Y-129616755D01*
X144521479Y-129626499D01*
X144455867Y-129634751D01*
X144403707Y-129640861D01*
X144389931Y-129642335D01*
X144313728Y-129647823D01*
X144226901Y-129650173D01*
X144135189Y-129649544D01*
X144044331Y-129646099D01*
X143960063Y-129639999D01*
X143888125Y-129631403D01*
X143865760Y-129627619D01*
X143682872Y-129602881D01*
X143491604Y-129595206D01*
X143294197Y-129604334D01*
X143092895Y-129630006D01*
X142889942Y-129671964D01*
X142687581Y-129729948D01*
X142548142Y-129779679D01*
X142323405Y-129876445D01*
X142098322Y-129993038D01*
X141873632Y-130128997D01*
X141650073Y-130283858D01*
X141428384Y-130457158D01*
X141318101Y-130550901D01*
X141213863Y-130641923D01*
X141220064Y-130693141D01*
X141231722Y-130761251D01*
X141251498Y-130843829D01*
X141278263Y-130937247D01*
X141310889Y-131037880D01*
X141348249Y-131142098D01*
X141389217Y-131246276D01*
X141400203Y-131272631D01*
X141471756Y-131430992D01*
X141547214Y-131576755D01*
X141625671Y-131708582D01*
X141706221Y-131825136D01*
X141787958Y-131925079D01*
X141869977Y-132007072D01*
X141930445Y-132055496D01*
X141987474Y-132090674D01*
X142064246Y-132128964D01*
X142160444Y-132170228D01*
X142275752Y-132214327D01*
X142372240Y-132248378D01*
X142506223Y-132291007D01*
X142633630Y-132324245D01*
X142760159Y-132349096D01*
X142891512Y-132366566D01*
X143033387Y-132377659D01*
X143129160Y-132381775D01*
X143350538Y-132380158D01*
X143567079Y-132361433D01*
X143777653Y-132326128D01*
X143981130Y-132274770D01*
X144176380Y-132207887D01*
X144362275Y-132126007D01*
X144537685Y-132029656D01*
X144701480Y-131919364D01*
X144852530Y-131795656D01*
X144989707Y-131659060D01*
X145111881Y-131510105D01*
X145168105Y-131429464D01*
X145220358Y-131344877D01*
X145267104Y-131257338D01*
X145311035Y-131161347D01*
X145354844Y-131051404D01*
X145360212Y-131037034D01*
X145386793Y-130966402D01*
X145406981Y-130915002D01*
X145420839Y-130882801D01*
X145428435Y-130869764D01*
X145429835Y-130875859D01*
X145425103Y-130901052D01*
X145414306Y-130945309D01*
X145397509Y-131008596D01*
X145394542Y-131019488D01*
X145355056Y-131157629D01*
X145311781Y-131297515D01*
X145265942Y-131435732D01*
X145218763Y-131568864D01*
X145171469Y-131693496D01*
X145125284Y-131806212D01*
X145081432Y-131903597D01*
X145067048Y-131933055D01*
X144963018Y-132121683D01*
X144846243Y-132297924D01*
X144717762Y-132460828D01*
X144578613Y-132609449D01*
X144429835Y-132742840D01*
X144272467Y-132860051D01*
X144107547Y-132960136D01*
X143936113Y-133042147D01*
X143794363Y-133094302D01*
X143673063Y-133127837D01*
X143546912Y-133153091D01*
X143421688Y-133169269D01*
X143303170Y-133175577D01*
X143220600Y-133173242D01*
X143178116Y-133169526D01*
X143127127Y-133164008D01*
X143071174Y-133157196D01*
X143013798Y-133149596D01*
X142958542Y-133141716D01*
X142908947Y-133134063D01*
X142868554Y-133127143D01*
X142840906Y-133121464D01*
X142829544Y-133117533D01*
X142829440Y-133117250D01*
X142838727Y-133112925D01*
X142863835Y-133105843D01*
X142900628Y-133097083D01*
X142933580Y-133090027D01*
X143018746Y-133069054D01*
X143095052Y-133043386D01*
X143160950Y-133014126D01*
X143214894Y-132982381D01*
X143255336Y-132949255D01*
X143280731Y-132915855D01*
X143289531Y-132883285D01*
X143280191Y-132852650D01*
X143275210Y-132845868D01*
X143258175Y-132832263D01*
X143229871Y-132815952D01*
X143210440Y-132806695D01*
X143191788Y-132798874D01*
X143172099Y-132791614D01*
X143148838Y-132784266D01*
X143119470Y-132776184D01*
X143081459Y-132766721D01*
X143032271Y-132755230D01*
X142969370Y-132741065D01*
X142890221Y-132723578D01*
X142850630Y-132714892D01*
X142730161Y-132686299D01*
X142628256Y-132657138D01*
X142543159Y-132626660D01*
X142473115Y-132594117D01*
X142416369Y-132558758D01*
X142371165Y-132519836D01*
X142356867Y-132504210D01*
X142335402Y-132480601D01*
X142320595Y-132470313D01*
X142306712Y-132470561D01*
X142296161Y-132474735D01*
X142277399Y-132487024D01*
X142270640Y-132497911D01*
X142279520Y-132515387D01*
X142305036Y-132540327D01*
X142345500Y-132571415D01*
X142399224Y-132607331D01*
X142451129Y-132638954D01*
X142507298Y-132671973D01*
X142571621Y-132709817D01*
X142634753Y-132746985D01*
X142671960Y-132768907D01*
X142747204Y-132814836D01*
X142804177Y-132853300D01*
X142843309Y-132884784D01*
X142865029Y-132909769D01*
X142869768Y-132928738D01*
X142857956Y-132942175D01*
X142833302Y-132949978D01*
X142796512Y-132952934D01*
X142746264Y-132951666D01*
X142688855Y-132946709D01*
X142630579Y-132938596D01*
X142580520Y-132928542D01*
X142523567Y-132918205D01*
X142468388Y-132914221D01*
X142420912Y-132916698D01*
X142388644Y-132924997D01*
X142366563Y-132942631D01*
X142351020Y-132966491D01*
X142345983Y-133003475D01*
X142355876Y-133051108D01*
X142379650Y-133107484D01*
X142416258Y-133170695D01*
X142464654Y-133238835D01*
X142523789Y-133309997D01*
X142562817Y-133352134D01*
X142683963Y-133466864D01*
X142815210Y-133569313D01*
X142957625Y-133659932D01*
X143112274Y-133739169D01*
X143280223Y-133807474D01*
X143462539Y-133865298D01*
X143660288Y-133913090D01*
X143874537Y-133951300D01*
X144033400Y-133972412D01*
X144082357Y-133976540D01*
X144151336Y-133979888D01*
X144240053Y-133982450D01*
X144348225Y-133984219D01*
X144475568Y-133985189D01*
X144576960Y-133985388D01*
X144695478Y-133985215D01*
X144796482Y-133984524D01*
X144882776Y-133983053D01*
X144957164Y-133980540D01*
X145022450Y-133976721D01*
X145081438Y-133971332D01*
X145136931Y-133964112D01*
X145191735Y-133954796D01*
X145248653Y-133943122D01*
X145310489Y-133928827D01*
X145380047Y-133911647D01*
X145390177Y-133909094D01*
X145615817Y-133841743D01*
X145836615Y-133755168D01*
X146051776Y-133650059D01*
X146260503Y-133527106D01*
X146461999Y-133386997D01*
X146655468Y-133230424D01*
X146840114Y-133058075D01*
X147015140Y-132870640D01*
X147179751Y-132668809D01*
X147333149Y-132453270D01*
X147474539Y-132224715D01*
X147595358Y-131999473D01*
X147642521Y-131903241D01*
X147682250Y-131817814D01*
X147717390Y-131736467D01*
X147750786Y-131652476D01*
X147785284Y-131559118D01*
X147803998Y-131506360D01*
X147821924Y-131456546D01*
X147837355Y-131416058D01*
X147849195Y-131387581D01*
X147856348Y-131373799D01*
X147857977Y-131374280D01*
X147856190Y-131391034D01*
X147850945Y-131423645D01*
X147842950Y-131468079D01*
X147832917Y-131520306D01*
X147827576Y-131547000D01*
X147749353Y-131885251D01*
X147653694Y-132214634D01*
X147540882Y-132534558D01*
X147411198Y-132844433D01*
X147264924Y-133143668D01*
X147102344Y-133431672D01*
X146923738Y-133707856D01*
X146729390Y-133971628D01*
X146585128Y-134147404D01*
X146507387Y-134234286D01*
X146430902Y-134311212D01*
X146350288Y-134383070D01*
X146260163Y-134454749D01*
X146189158Y-134506988D01*
X145988261Y-134638696D01*
X145773742Y-134755613D01*
X145545981Y-134857678D01*
X145305355Y-134944828D01*
X145052246Y-135017000D01*
X144787030Y-135074131D01*
X144510087Y-135116158D01*
X144221796Y-135143019D01*
X143922537Y-135154652D01*
X143612686Y-135150993D01*
X143292625Y-135131979D01*
X142962731Y-135097549D01*
X142775915Y-135071821D01*
X142719234Y-135063629D01*
X142669891Y-135057015D01*
X142631239Y-135052384D01*
X142606629Y-135050145D01*
X142599302Y-135050351D01*
X142606449Y-135055677D01*
X142629022Y-135067245D01*
X142663702Y-135083458D01*
X142707166Y-135102718D01*
X142716847Y-135106892D01*
X142975408Y-135208663D01*
X143247218Y-135298028D01*
X143528650Y-135373898D01*
X143799720Y-135432125D01*
X143928628Y-135455518D01*
X144047846Y-135474995D01*
X144161377Y-135490936D01*
X144273223Y-135503716D01*
X144387387Y-135513714D01*
X144507870Y-135521307D01*
X144638676Y-135526871D01*
X144783807Y-135530785D01*
X144861440Y-135532216D01*
X144964149Y-135534093D01*
X145049006Y-135536108D01*
X145115571Y-135538243D01*
X145163405Y-135540479D01*
X145192070Y-135542797D01*
X145201125Y-135545178D01*
X145196720Y-135546673D01*
X145171264Y-135550937D01*
X145130196Y-135557403D01*
X145078014Y-135565381D01*
X145019219Y-135574179D01*
X144978280Y-135580203D01*
X144588710Y-135629810D01*
X144211182Y-135663070D01*
X143845699Y-135679981D01*
X143492263Y-135680545D01*
X143150877Y-135664763D01*
X142821545Y-135632633D01*
X142504270Y-135584157D01*
X142199055Y-135519335D01*
X141905903Y-135438167D01*
X141624816Y-135340654D01*
X141355799Y-135226796D01*
X141320680Y-135210302D01*
X141196319Y-135148265D01*
X141073961Y-135081637D01*
X140956766Y-135012402D01*
X140847894Y-134942544D01*
X140750504Y-134874047D01*
X140667757Y-134808894D01*
X140634072Y-134779303D01*
X140594889Y-134744381D01*
X140558190Y-134713499D01*
X140528013Y-134689940D01*
X140508398Y-134676990D01*
X140507988Y-134676786D01*
X140487072Y-134667726D01*
X140477826Y-134669308D01*
X140474103Y-134682153D01*
X140477842Y-134708273D01*
X140494080Y-134745898D01*
X140520870Y-134792244D01*
X140556265Y-134844525D01*
X140598319Y-134899955D01*
X140645086Y-134955749D01*
X140694619Y-135009121D01*
X140720328Y-135034520D01*
X140870078Y-135165334D01*
X141033469Y-135284309D01*
X141211023Y-135391669D01*
X141403262Y-135487634D01*
X141610707Y-135572428D01*
X141833882Y-135646274D01*
X142073307Y-135709392D01*
X142329506Y-135762007D01*
X142489080Y-135788264D01*
X142569212Y-135799358D01*
X142662372Y-135810637D01*
X142764908Y-135821791D01*
X142873172Y-135832505D01*
X142983512Y-135842467D01*
X143092281Y-135851364D01*
X143195828Y-135858884D01*
X143290503Y-135864714D01*
X143372658Y-135868540D01*
X143438641Y-135870051D01*
X143443612Y-135870063D01*
X143483409Y-135870959D01*
X143503803Y-135873478D01*
X143505629Y-135877403D01*
X143489718Y-135882516D01*
X143456906Y-135888599D01*
X143408025Y-135895435D01*
X143343909Y-135902806D01*
X143301880Y-135907065D01*
X143214981Y-135913891D01*
X143112298Y-135919264D01*
X142997691Y-135923185D01*
X142875016Y-135925651D01*
X142748132Y-135926663D01*
X142620899Y-135926219D01*
X142497174Y-135924318D01*
X142380816Y-135920959D01*
X142275683Y-135916141D01*
X142185633Y-135909863D01*
X142158880Y-135907369D01*
X141819399Y-135865211D01*
X141492791Y-135808304D01*
X141177501Y-135736212D01*
X140871976Y-135648499D01*
X140574663Y-135544728D01*
X140284010Y-135424462D01*
X140055465Y-135316193D01*
X139988931Y-135282118D01*
X139916018Y-135243486D01*
X139841268Y-135202814D01*
X139769223Y-135162616D01*
X139704423Y-135125407D01*
X139651411Y-135093701D01*
X139634120Y-135082865D01*
X139603640Y-135063390D01*
X139629040Y-135092025D01*
X139650833Y-135113421D01*
X139686176Y-135144402D01*
X139732145Y-135182657D01*
X139785817Y-135225874D01*
X139844266Y-135271741D01*
X139904572Y-135317946D01*
X139963808Y-135362177D01*
X140019053Y-135402124D01*
X140038266Y-135415613D01*
X140255943Y-135557519D01*
X140492869Y-135693974D01*
X140749150Y-135825033D01*
X141024893Y-135950753D01*
X141188600Y-136019149D01*
X141295561Y-136060964D01*
X141414549Y-136104850D01*
X141541515Y-136149487D01*
X141672410Y-136193560D01*
X141803186Y-136235749D01*
X141929795Y-136274737D01*
X142048188Y-136309207D01*
X142154317Y-136337841D01*
X142209680Y-136351497D01*
X142256384Y-136362895D01*
X142297990Y-136373749D01*
X142329066Y-136382603D01*
X142341760Y-136386879D01*
X142354056Y-136392800D01*
X142351407Y-136395776D01*
X142331633Y-136396636D01*
X142316360Y-136396553D01*
X142284094Y-136394921D01*
X142238938Y-136390992D01*
X142188103Y-136385443D01*
X142158880Y-136381753D01*
X141962376Y-136354519D01*
X141783182Y-136327458D01*
X141618303Y-136299967D01*
X141464743Y-136271448D01*
X141319507Y-136241299D01*
X141179600Y-136208919D01*
X141042026Y-136173708D01*
X140903790Y-136135064D01*
X140850396Y-136119335D01*
X140531196Y-136014774D01*
X140220973Y-135894550D01*
X139920527Y-135759252D01*
X139630660Y-135609467D01*
X139352173Y-135445782D01*
X139085867Y-135268785D01*
X138832543Y-135079064D01*
X138593002Y-134877206D01*
X138368045Y-134663798D01*
X138158474Y-134439428D01*
X137965089Y-134204684D01*
X137788693Y-133960152D01*
X137684259Y-133797440D01*
X137585121Y-133630104D01*
X137492839Y-133463839D01*
X137409249Y-133302181D01*
X137336188Y-133148665D01*
X137282512Y-133024216D01*
X137256698Y-132960887D01*
X137229337Y-132893829D01*
X137203172Y-132829759D01*
X137180944Y-132775391D01*
X137174473Y-132759584D01*
X137149205Y-132693925D01*
X137121157Y-132614051D01*
X137090884Y-132522056D01*
X137058940Y-132420033D01*
X137025878Y-132310074D01*
X136992252Y-132194272D01*
X136958617Y-132074721D01*
X136925527Y-131953511D01*
X136893534Y-131832738D01*
X136863194Y-131714493D01*
X136835060Y-131600869D01*
X136809687Y-131493959D01*
X136787627Y-131395856D01*
X136769435Y-131308653D01*
X136755666Y-131234442D01*
X136746872Y-131175317D01*
X136743608Y-131133369D01*
X136743600Y-131131711D01*
X136741970Y-131109957D01*
X136737138Y-131108010D01*
X136729190Y-131125624D01*
X136718213Y-131162553D01*
X136704292Y-131218552D01*
X136688696Y-131287920D01*
X136624410Y-131630679D01*
X136580433Y-131972801D01*
X136556767Y-132314306D01*
X136553411Y-132655215D01*
X136570365Y-132995552D01*
X136607631Y-133335337D01*
X136665208Y-133674593D01*
X136734606Y-133980320D01*
X136749523Y-134035301D01*
X136769674Y-134104206D01*
X136793762Y-134183050D01*
X136820491Y-134267848D01*
X136848566Y-134354615D01*
X136876690Y-134439366D01*
X136903569Y-134518116D01*
X136927905Y-134586880D01*
X136948405Y-134641673D01*
X136955122Y-134658500D01*
X136966280Y-134687257D01*
X136972591Y-134706623D01*
X136973028Y-134711840D01*
X136964759Y-134704165D01*
X136946039Y-134682727D01*
X136918763Y-134649905D01*
X136884823Y-134608077D01*
X136846111Y-134559624D01*
X136804521Y-134506924D01*
X136761943Y-134452356D01*
X136720272Y-134398300D01*
X136681400Y-134347135D01*
X136657822Y-134315600D01*
X136430750Y-133993995D01*
X136223548Y-133668309D01*
X136036225Y-133338558D01*
X135868787Y-133004764D01*
X135721244Y-132666945D01*
X135593601Y-132325120D01*
X135485868Y-131979308D01*
X135398051Y-131629529D01*
X135330159Y-131275802D01*
X135282199Y-130918146D01*
X135278945Y-130886600D01*
X135273962Y-130821488D01*
X135270230Y-130740447D01*
X135267749Y-130647828D01*
X135266518Y-130547984D01*
X135266538Y-130445266D01*
X135267807Y-130344027D01*
X135270325Y-130248617D01*
X135274094Y-130163390D01*
X135278983Y-130094120D01*
X135316803Y-129773319D01*
X135371725Y-129459378D01*
X135443368Y-129153063D01*
X135515289Y-128909532D01*
X140579000Y-128909532D01*
X142029398Y-128910006D01*
X143479797Y-128910480D01*
X143644838Y-128807201D01*
X143780922Y-128723734D01*
X143924418Y-128638792D01*
X144068645Y-128556230D01*
X144206921Y-128479901D01*
X144277210Y-128442397D01*
X144415497Y-128369648D01*
X144408787Y-128337804D01*
X144395785Y-128293647D01*
X144373959Y-128238373D01*
X144345883Y-128177686D01*
X144314132Y-128117292D01*
X144293225Y-128081676D01*
X144203551Y-127954799D01*
X144100459Y-127843020D01*
X143984348Y-127746539D01*
X143855616Y-127665555D01*
X143714664Y-127600267D01*
X143561890Y-127550875D01*
X143397694Y-127517579D01*
X143222474Y-127500576D01*
X143125061Y-127498240D01*
X142963142Y-127506881D01*
X142811151Y-127532698D01*
X142669503Y-127575533D01*
X142538614Y-127635227D01*
X142418901Y-127711621D01*
X142310779Y-127804556D01*
X142303518Y-127811815D01*
X142273128Y-127843028D01*
X142249333Y-127868476D01*
X142234983Y-127885048D01*
X142232128Y-127889775D01*
X142242396Y-127888067D01*
X142267029Y-127880958D01*
X142301247Y-127869858D01*
X142311280Y-127866439D01*
X142409267Y-127842961D01*
X142507238Y-127839600D01*
X142603981Y-127856187D01*
X142698285Y-127892553D01*
X142761152Y-127928992D01*
X142789165Y-127949578D01*
X142822331Y-127976921D01*
X142857096Y-128007689D01*
X142889908Y-128038553D01*
X142917214Y-128066183D01*
X142935459Y-128087249D01*
X142941200Y-128097737D01*
X142931831Y-128102146D01*
X142906502Y-128108433D01*
X142869377Y-128115670D01*
X142835902Y-128121223D01*
X142727780Y-128143135D01*
X142614038Y-128175335D01*
X142504475Y-128214872D01*
X142456860Y-128235310D01*
X142356258Y-128286186D01*
X142249152Y-128349237D01*
X142141410Y-128420519D01*
X142038899Y-128496085D01*
X141947486Y-128571992D01*
X141923221Y-128594131D01*
X141856151Y-128656871D01*
X141865189Y-128616647D01*
X141899392Y-128509524D01*
X141951273Y-128410899D01*
X142019531Y-128322006D01*
X142102865Y-128244080D01*
X142199976Y-128178356D01*
X142309563Y-128126070D01*
X142418271Y-128091400D01*
X142453471Y-128082127D01*
X142471410Y-128075701D01*
X142474655Y-128070530D01*
X142465776Y-128065024D01*
X142462879Y-128063788D01*
X142441181Y-128059325D01*
X142403328Y-128056102D01*
X142353444Y-128054101D01*
X142295656Y-128053302D01*
X142234090Y-128053685D01*
X142172869Y-128055230D01*
X142116121Y-128057917D01*
X142067970Y-128061728D01*
X142036960Y-128065822D01*
X141986703Y-128075097D01*
X141932357Y-128085840D01*
X141892054Y-128094349D01*
X141823349Y-128109525D01*
X141751461Y-128206435D01*
X141665314Y-128313547D01*
X141572814Y-128410265D01*
X141471974Y-128497886D01*
X141360805Y-128577705D01*
X141237320Y-128651020D01*
X141099532Y-128719127D01*
X140945452Y-128783322D01*
X140773095Y-128844901D01*
X140772040Y-128845252D01*
X140579000Y-128909532D01*
X135515289Y-128909532D01*
X135531352Y-128855142D01*
X135635294Y-128566383D01*
X135754813Y-128287553D01*
X135889530Y-128019419D01*
X136039061Y-127762749D01*
X136203026Y-127518311D01*
X136381044Y-127286872D01*
X136572734Y-127069199D01*
X136777715Y-126866060D01*
X136961962Y-126705516D01*
X137071403Y-126618638D01*
X137173178Y-126544530D01*
X137272350Y-126480125D01*
X137373983Y-126422354D01*
X137483137Y-126368148D01*
X137604877Y-126314439D01*
X137612280Y-126311338D01*
X137739800Y-126261232D01*
X137870492Y-126215822D01*
X138001160Y-126175913D01*
X138128608Y-126142312D01*
X138249642Y-126115823D01*
X138361065Y-126097252D01*
X138459683Y-126087406D01*
X138506099Y-126086000D01*
X138562329Y-126087242D01*
X138607379Y-126090728D01*
X138638461Y-126096097D01*
X138652786Y-126102990D01*
X138653420Y-126105050D01*
X138645315Y-126113025D01*
X138623949Y-126128746D01*
X138593365Y-126149298D01*
X138581399Y-126156986D01*
X138470010Y-126239664D01*
X138368711Y-126339429D01*
X138277999Y-126455454D01*
X138198372Y-126586913D01*
X138130326Y-126732978D01*
X138074360Y-126892822D01*
X138030970Y-127065620D01*
X138029032Y-127075115D01*
X138014098Y-127160205D01*
X138000530Y-127258781D01*
X137988633Y-127366509D01*
X137978712Y-127479055D01*
X137971073Y-127592086D01*
X137966021Y-127701266D01*
X137963862Y-127802262D01*
X137964900Y-127890739D01*
X137967803Y-127944307D01*
X137975073Y-128036169D01*
X138073076Y-127947387D01*
X138324900Y-127732071D01*
X138589322Y-127530595D01*
X138864727Y-127343861D01*
X139149497Y-127172772D01*
X139442018Y-127018232D01*
X139740674Y-126881142D01*
X140043848Y-126762405D01*
X140135031Y-126732769D01*
X143726448Y-126732769D01*
X143738864Y-126852642D01*
X143768602Y-126965455D01*
X143815085Y-127069524D01*
X143877738Y-127163165D01*
X143947332Y-127237005D01*
X144037028Y-127305329D01*
X144133938Y-127354736D01*
X144237485Y-127385078D01*
X144347090Y-127396204D01*
X144462178Y-127387966D01*
X144502598Y-127380697D01*
X144632788Y-127344767D01*
X144762845Y-127291454D01*
X144839057Y-127251688D01*
X144878773Y-127228260D01*
X144923137Y-127200635D01*
X144968895Y-127171019D01*
X145012793Y-127141623D01*
X145051574Y-127114653D01*
X145081983Y-127092320D01*
X145100766Y-127076830D01*
X145105267Y-127071078D01*
X145096903Y-127064462D01*
X145073750Y-127049664D01*
X145038731Y-127028464D01*
X144994770Y-127002642D01*
X144959597Y-126982402D01*
X144813914Y-126899246D01*
X144723377Y-126936950D01*
X144682752Y-126953399D01*
X144650965Y-126964215D01*
X144621528Y-126970584D01*
X144587956Y-126973691D01*
X144543759Y-126974721D01*
X144516000Y-126974827D01*
X144447895Y-126972912D01*
X144395566Y-126965999D01*
X144354791Y-126952684D01*
X144321345Y-126931560D01*
X144291005Y-126901220D01*
X144289467Y-126899403D01*
X144259402Y-126851004D01*
X144236041Y-126787514D01*
X144220164Y-126713280D01*
X144212547Y-126632648D01*
X144213971Y-126549965D01*
X144218880Y-126505244D01*
X144223291Y-126469956D01*
X144223243Y-126449871D01*
X144218257Y-126440267D01*
X144212038Y-126437379D01*
X144193497Y-126433626D01*
X144160031Y-126428219D01*
X144115236Y-126421624D01*
X144062707Y-126414305D01*
X144006042Y-126406730D01*
X143948837Y-126399362D01*
X143894687Y-126392667D01*
X143847189Y-126387111D01*
X143809940Y-126383159D01*
X143786534Y-126381277D01*
X143780237Y-126381495D01*
X143772952Y-126396964D01*
X143763996Y-126428143D01*
X143754320Y-126470590D01*
X143744872Y-126519864D01*
X143736602Y-126571524D01*
X143731931Y-126607520D01*
X143726448Y-126732769D01*
X140135031Y-126732769D01*
X140349925Y-126662925D01*
X140395481Y-126649862D01*
X140552474Y-126608812D01*
X140718714Y-126571134D01*
X140887382Y-126538156D01*
X141051661Y-126511207D01*
X141204733Y-126491614D01*
X141211460Y-126490904D01*
X141258957Y-126485471D01*
X141298098Y-126480090D01*
X141325020Y-126475356D01*
X141335862Y-126471867D01*
X141335920Y-126471671D01*
X141327177Y-126464400D01*
X141303552Y-126451195D01*
X141268950Y-126433861D01*
X141227278Y-126414206D01*
X141182440Y-126394037D01*
X141138343Y-126375160D01*
X141098891Y-126359382D01*
X141073469Y-126350261D01*
X140909574Y-126306563D01*
X140736406Y-126280060D01*
X140555427Y-126270695D01*
X140368101Y-126278411D01*
X140175891Y-126303149D01*
X139980258Y-126344854D01*
X139791600Y-126400460D01*
X139694770Y-126434931D01*
X139593113Y-126474841D01*
X139489779Y-126518678D01*
X139387920Y-126564930D01*
X139290686Y-126612086D01*
X139201228Y-126658632D01*
X139122698Y-126703059D01*
X139058247Y-126743853D01*
X139024223Y-126768626D01*
X138953084Y-126822783D01*
X138895291Y-126862591D01*
X138850208Y-126888445D01*
X138817196Y-126900740D01*
X138809475Y-126901850D01*
X138788763Y-126900509D01*
X138780033Y-126888444D01*
X138777773Y-126873400D01*
X138781803Y-126844940D01*
X138796851Y-126803191D01*
X138821366Y-126750831D01*
X138853797Y-126690539D01*
X138892595Y-126624992D01*
X138936207Y-126556868D01*
X138983084Y-126488846D01*
X139031676Y-126423603D01*
X139055729Y-126393352D01*
X139125806Y-126307701D01*
X139186075Y-126235449D01*
X139239298Y-126174031D01*
X139288241Y-126120880D01*
X139335666Y-126073434D01*
X139384337Y-126029126D01*
X139437019Y-125985392D01*
X139496476Y-125939666D01*
X139565470Y-125889385D01*
X139646766Y-125831982D01*
X139702540Y-125793097D01*
X139791357Y-125729677D01*
X139863083Y-125674599D01*
X139918661Y-125626835D01*
X139959032Y-125585358D01*
X139985138Y-125549143D01*
X139997920Y-125517162D01*
X139998320Y-125488388D01*
X139994249Y-125475070D01*
X139986206Y-125459355D01*
X139974586Y-125446033D01*
X139956560Y-125433707D01*
X139929302Y-125420984D01*
X139889982Y-125406468D01*
X139835773Y-125388764D01*
X139790999Y-125374820D01*
X139593108Y-125318480D01*
X139396065Y-125272197D01*
X139192969Y-125234513D01*
X138988858Y-125205440D01*
X138938407Y-125199821D01*
X138885796Y-125195393D01*
X138827913Y-125192039D01*
X138761645Y-125189641D01*
X138683878Y-125188081D01*
X138591500Y-125187242D01*
X138501280Y-125187008D01*
X138388000Y-125187280D01*
X138290988Y-125188392D01*
X138206199Y-125190608D01*
X138129590Y-125194190D01*
X138057116Y-125199403D01*
X137984734Y-125206508D01*
X137908399Y-125215769D01*
X137824067Y-125227449D01*
X137779920Y-125233938D01*
X137474218Y-125289199D01*
X137166561Y-125363892D01*
X136858268Y-125457393D01*
X136550659Y-125569081D01*
X136245055Y-125698332D01*
X135942777Y-125844524D01*
X135645142Y-126007035D01*
X135353474Y-126185242D01*
X135069090Y-126378522D01*
X134793312Y-126586252D01*
X134630435Y-126719327D01*
X134587784Y-126754878D01*
X134550802Y-126784985D01*
X134522136Y-126807548D01*
X134504436Y-126820471D01*
X134499997Y-126822664D01*
X134501571Y-126811038D01*
X134512308Y-126785456D01*
X134530487Y-126749126D01*
X134554390Y-126705252D01*
X134582299Y-126657041D01*
X134612493Y-126607699D01*
X134629403Y-126581315D01*
X134772685Y-126375974D01*
X134929042Y-126179481D01*
X135099918Y-125990327D01*
X135286761Y-125807005D01*
X135491016Y-125628007D01*
X135709276Y-125455481D01*
X135999309Y-125249508D01*
X136303451Y-125058111D01*
X136621627Y-124881313D01*
X136953763Y-124719138D01*
X137299785Y-124571608D01*
X137659619Y-124438748D01*
X138033191Y-124320580D01*
X138420427Y-124217129D01*
X138821253Y-124128416D01*
X139235595Y-124054467D01*
X139663379Y-123995303D01*
X140104532Y-123950949D01*
X140558978Y-123921428D01*
X140568840Y-123920959D01*
X140670316Y-123917201D01*
X140783311Y-123914816D01*
X140904160Y-123913750D01*
X141029195Y-123913949D01*
X141029195Y-123913949D01*
G37*
X141029195Y-123913949D02*
X141154752Y-123915360D01*
X141277164Y-123917931D01*
X141392764Y-123921608D01*
X141497886Y-123926338D01*
X141588865Y-123932068D01*
X141640720Y-123936502D01*
X141990001Y-123977468D01*
X142329140Y-124031175D01*
X142661686Y-124098481D01*
X142991183Y-124180240D01*
X143321180Y-124277310D01*
X143655223Y-124390547D01*
X143896240Y-124481012D01*
X143965877Y-124507993D01*
X144041717Y-124537111D01*
X144116726Y-124565682D01*
X144183871Y-124591023D01*
X144215941Y-124602998D01*
X144475107Y-124709654D01*
X144726903Y-124834056D01*
X144970042Y-124975188D01*
X145203236Y-125132035D01*
X145425196Y-125303579D01*
X145634635Y-125488806D01*
X145830264Y-125686699D01*
X146010797Y-125896243D01*
X146174945Y-126116422D01*
X146220911Y-126184563D01*
X146285684Y-126283220D01*
X146340382Y-126367412D01*
X146386333Y-126439497D01*
X146424862Y-126501832D01*
X146457295Y-126556774D01*
X146484958Y-126606680D01*
X146509177Y-126653907D01*
X146531277Y-126700812D01*
X146552585Y-126749752D01*
X146574427Y-126803084D01*
X146587779Y-126836749D01*
X146607740Y-126890212D01*
X146631911Y-126959345D01*
X146659050Y-127040241D01*
X146687912Y-127128995D01*
X146717254Y-127221703D01*
X146745833Y-127314458D01*
X146772405Y-127403355D01*
X146795727Y-127484490D01*
X146806721Y-127524398D01*
X146828211Y-127603055D01*
X146846015Y-127665722D01*
X146861363Y-127716125D01*
X146875482Y-127757992D01*
X146889603Y-127795049D01*
X146904954Y-127831022D01*
X146915360Y-127853838D01*
X146992470Y-127998681D01*
X147086817Y-128140129D01*
X147195321Y-128274431D01*
X147314901Y-128397837D01*
X147442477Y-128506597D01*
X147465857Y-128524184D01*
X147545416Y-128590001D01*
X147613407Y-128662833D01*
X147673662Y-128747302D01*
X147723184Y-128834650D01*
X147784485Y-128975122D01*
X147828826Y-129125248D01*
X147856309Y-129283651D01*
X147867039Y-129448954D01*
X147861120Y-129619778D01*
X147838655Y-129794748D01*
X147799747Y-129972486D01*
X147744502Y-130151614D01*
X147673023Y-130330755D01*
X147598895Y-130483304D01*
X147569321Y-130537644D01*
X147537698Y-130592803D01*
X147506153Y-130645358D01*
X147476815Y-130691887D01*
X147451811Y-130728969D01*
X147433270Y-130753180D01*
X147427364Y-130759164D01*
X147415596Y-130762701D01*
X147399435Y-130756083D01*
X147377838Y-130738163D01*
X147349759Y-130707798D01*
X147314153Y-130663842D01*
X147269976Y-130605150D01*
X147216181Y-130530576D01*
X147207119Y-130517810D01*
X147111438Y-130388504D01*
X147019539Y-130276758D01*
X146929267Y-130180696D01*
X146838469Y-130098447D01*
X146744988Y-130028136D01*
X146646671Y-129967888D01*
X146541362Y-129915832D01*
X146489750Y-129894028D01*
X146436398Y-129873483D01*
X146380134Y-129853832D01*
X146318133Y-129834264D01*
X146247569Y-129813966D01*
X146165619Y-129792126D01*
X146069455Y-129767934D01*
X145956253Y-129740576D01*
X145953640Y-129739953D01*
X145838977Y-129712014D01*
X145740586Y-129686497D01*
X145654731Y-129662281D01*
X145577676Y-129638243D01*
X145505684Y-129613261D01*
X145435018Y-129586215D01*
X145415829Y-129578473D01*
X145314898Y-129537349D01*
X145151669Y-129549097D01*
X145091045Y-129554276D01*
X145016280Y-129561933D01*
X144933306Y-129571385D01*
X144848056Y-129581951D01*
X144766460Y-129592947D01*
X144749443Y-129595377D01*
X144673227Y-129606165D01*
X144595586Y-129616755D01*
X144521479Y-129626499D01*
X144455867Y-129634751D01*
X144403707Y-129640861D01*
X144389931Y-129642335D01*
X144313728Y-129647823D01*
X144226901Y-129650173D01*
X144135189Y-129649544D01*
X144044331Y-129646099D01*
X143960063Y-129639999D01*
X143888125Y-129631403D01*
X143865760Y-129627619D01*
X143682872Y-129602881D01*
X143491604Y-129595206D01*
X143294197Y-129604334D01*
X143092895Y-129630006D01*
X142889942Y-129671964D01*
X142687581Y-129729948D01*
X142548142Y-129779679D01*
X142323405Y-129876445D01*
X142098322Y-129993038D01*
X141873632Y-130128997D01*
X141650073Y-130283858D01*
X141428384Y-130457158D01*
X141318101Y-130550901D01*
X141213863Y-130641923D01*
X141220064Y-130693141D01*
X141231722Y-130761251D01*
X141251498Y-130843829D01*
X141278263Y-130937247D01*
X141310889Y-131037880D01*
X141348249Y-131142098D01*
X141389217Y-131246276D01*
X141400203Y-131272631D01*
X141471756Y-131430992D01*
X141547214Y-131576755D01*
X141625671Y-131708582D01*
X141706221Y-131825136D01*
X141787958Y-131925079D01*
X141869977Y-132007072D01*
X141930445Y-132055496D01*
X141987474Y-132090674D01*
X142064246Y-132128964D01*
X142160444Y-132170228D01*
X142275752Y-132214327D01*
X142372240Y-132248378D01*
X142506223Y-132291007D01*
X142633630Y-132324245D01*
X142760159Y-132349096D01*
X142891512Y-132366566D01*
X143033387Y-132377659D01*
X143129160Y-132381775D01*
X143350538Y-132380158D01*
X143567079Y-132361433D01*
X143777653Y-132326128D01*
X143981130Y-132274770D01*
X144176380Y-132207887D01*
X144362275Y-132126007D01*
X144537685Y-132029656D01*
X144701480Y-131919364D01*
X144852530Y-131795656D01*
X144989707Y-131659060D01*
X145111881Y-131510105D01*
X145168105Y-131429464D01*
X145220358Y-131344877D01*
X145267104Y-131257338D01*
X145311035Y-131161347D01*
X145354844Y-131051404D01*
X145360212Y-131037034D01*
X145386793Y-130966402D01*
X145406981Y-130915002D01*
X145420839Y-130882801D01*
X145428435Y-130869764D01*
X145429835Y-130875859D01*
X145425103Y-130901052D01*
X145414306Y-130945309D01*
X145397509Y-131008596D01*
X145394542Y-131019488D01*
X145355056Y-131157629D01*
X145311781Y-131297515D01*
X145265942Y-131435732D01*
X145218763Y-131568864D01*
X145171469Y-131693496D01*
X145125284Y-131806212D01*
X145081432Y-131903597D01*
X145067048Y-131933055D01*
X144963018Y-132121683D01*
X144846243Y-132297924D01*
X144717762Y-132460828D01*
X144578613Y-132609449D01*
X144429835Y-132742840D01*
X144272467Y-132860051D01*
X144107547Y-132960136D01*
X143936113Y-133042147D01*
X143794363Y-133094302D01*
X143673063Y-133127837D01*
X143546912Y-133153091D01*
X143421688Y-133169269D01*
X143303170Y-133175577D01*
X143220600Y-133173242D01*
X143178116Y-133169526D01*
X143127127Y-133164008D01*
X143071174Y-133157196D01*
X143013798Y-133149596D01*
X142958542Y-133141716D01*
X142908947Y-133134063D01*
X142868554Y-133127143D01*
X142840906Y-133121464D01*
X142829544Y-133117533D01*
X142829440Y-133117250D01*
X142838727Y-133112925D01*
X142863835Y-133105843D01*
X142900628Y-133097083D01*
X142933580Y-133090027D01*
X143018746Y-133069054D01*
X143095052Y-133043386D01*
X143160950Y-133014126D01*
X143214894Y-132982381D01*
X143255336Y-132949255D01*
X143280731Y-132915855D01*
X143289531Y-132883285D01*
X143280191Y-132852650D01*
X143275210Y-132845868D01*
X143258175Y-132832263D01*
X143229871Y-132815952D01*
X143210440Y-132806695D01*
X143191788Y-132798874D01*
X143172099Y-132791614D01*
X143148838Y-132784266D01*
X143119470Y-132776184D01*
X143081459Y-132766721D01*
X143032271Y-132755230D01*
X142969370Y-132741065D01*
X142890221Y-132723578D01*
X142850630Y-132714892D01*
X142730161Y-132686299D01*
X142628256Y-132657138D01*
X142543159Y-132626660D01*
X142473115Y-132594117D01*
X142416369Y-132558758D01*
X142371165Y-132519836D01*
X142356867Y-132504210D01*
X142335402Y-132480601D01*
X142320595Y-132470313D01*
X142306712Y-132470561D01*
X142296161Y-132474735D01*
X142277399Y-132487024D01*
X142270640Y-132497911D01*
X142279520Y-132515387D01*
X142305036Y-132540327D01*
X142345500Y-132571415D01*
X142399224Y-132607331D01*
X142451129Y-132638954D01*
X142507298Y-132671973D01*
X142571621Y-132709817D01*
X142634753Y-132746985D01*
X142671960Y-132768907D01*
X142747204Y-132814836D01*
X142804177Y-132853300D01*
X142843309Y-132884784D01*
X142865029Y-132909769D01*
X142869768Y-132928738D01*
X142857956Y-132942175D01*
X142833302Y-132949978D01*
X142796512Y-132952934D01*
X142746264Y-132951666D01*
X142688855Y-132946709D01*
X142630579Y-132938596D01*
X142580520Y-132928542D01*
X142523567Y-132918205D01*
X142468388Y-132914221D01*
X142420912Y-132916698D01*
X142388644Y-132924997D01*
X142366563Y-132942631D01*
X142351020Y-132966491D01*
X142345983Y-133003475D01*
X142355876Y-133051108D01*
X142379650Y-133107484D01*
X142416258Y-133170695D01*
X142464654Y-133238835D01*
X142523789Y-133309997D01*
X142562817Y-133352134D01*
X142683963Y-133466864D01*
X142815210Y-133569313D01*
X142957625Y-133659932D01*
X143112274Y-133739169D01*
X143280223Y-133807474D01*
X143462539Y-133865298D01*
X143660288Y-133913090D01*
X143874537Y-133951300D01*
X144033400Y-133972412D01*
X144082357Y-133976540D01*
X144151336Y-133979888D01*
X144240053Y-133982450D01*
X144348225Y-133984219D01*
X144475568Y-133985189D01*
X144576960Y-133985388D01*
X144695478Y-133985215D01*
X144796482Y-133984524D01*
X144882776Y-133983053D01*
X144957164Y-133980540D01*
X145022450Y-133976721D01*
X145081438Y-133971332D01*
X145136931Y-133964112D01*
X145191735Y-133954796D01*
X145248653Y-133943122D01*
X145310489Y-133928827D01*
X145380047Y-133911647D01*
X145390177Y-133909094D01*
X145615817Y-133841743D01*
X145836615Y-133755168D01*
X146051776Y-133650059D01*
X146260503Y-133527106D01*
X146461999Y-133386997D01*
X146655468Y-133230424D01*
X146840114Y-133058075D01*
X147015140Y-132870640D01*
X147179751Y-132668809D01*
X147333149Y-132453270D01*
X147474539Y-132224715D01*
X147595358Y-131999473D01*
X147642521Y-131903241D01*
X147682250Y-131817814D01*
X147717390Y-131736467D01*
X147750786Y-131652476D01*
X147785284Y-131559118D01*
X147803998Y-131506360D01*
X147821924Y-131456546D01*
X147837355Y-131416058D01*
X147849195Y-131387581D01*
X147856348Y-131373799D01*
X147857977Y-131374280D01*
X147856190Y-131391034D01*
X147850945Y-131423645D01*
X147842950Y-131468079D01*
X147832917Y-131520306D01*
X147827576Y-131547000D01*
X147749353Y-131885251D01*
X147653694Y-132214634D01*
X147540882Y-132534558D01*
X147411198Y-132844433D01*
X147264924Y-133143668D01*
X147102344Y-133431672D01*
X146923738Y-133707856D01*
X146729390Y-133971628D01*
X146585128Y-134147404D01*
X146507387Y-134234286D01*
X146430902Y-134311212D01*
X146350288Y-134383070D01*
X146260163Y-134454749D01*
X146189158Y-134506988D01*
X145988261Y-134638696D01*
X145773742Y-134755613D01*
X145545981Y-134857678D01*
X145305355Y-134944828D01*
X145052246Y-135017000D01*
X144787030Y-135074131D01*
X144510087Y-135116158D01*
X144221796Y-135143019D01*
X143922537Y-135154652D01*
X143612686Y-135150993D01*
X143292625Y-135131979D01*
X142962731Y-135097549D01*
X142775915Y-135071821D01*
X142719234Y-135063629D01*
X142669891Y-135057015D01*
X142631239Y-135052384D01*
X142606629Y-135050145D01*
X142599302Y-135050351D01*
X142606449Y-135055677D01*
X142629022Y-135067245D01*
X142663702Y-135083458D01*
X142707166Y-135102718D01*
X142716847Y-135106892D01*
X142975408Y-135208663D01*
X143247218Y-135298028D01*
X143528650Y-135373898D01*
X143799720Y-135432125D01*
X143928628Y-135455518D01*
X144047846Y-135474995D01*
X144161377Y-135490936D01*
X144273223Y-135503716D01*
X144387387Y-135513714D01*
X144507870Y-135521307D01*
X144638676Y-135526871D01*
X144783807Y-135530785D01*
X144861440Y-135532216D01*
X144964149Y-135534093D01*
X145049006Y-135536108D01*
X145115571Y-135538243D01*
X145163405Y-135540479D01*
X145192070Y-135542797D01*
X145201125Y-135545178D01*
X145196720Y-135546673D01*
X145171264Y-135550937D01*
X145130196Y-135557403D01*
X145078014Y-135565381D01*
X145019219Y-135574179D01*
X144978280Y-135580203D01*
X144588710Y-135629810D01*
X144211182Y-135663070D01*
X143845699Y-135679981D01*
X143492263Y-135680545D01*
X143150877Y-135664763D01*
X142821545Y-135632633D01*
X142504270Y-135584157D01*
X142199055Y-135519335D01*
X141905903Y-135438167D01*
X141624816Y-135340654D01*
X141355799Y-135226796D01*
X141320680Y-135210302D01*
X141196319Y-135148265D01*
X141073961Y-135081637D01*
X140956766Y-135012402D01*
X140847894Y-134942544D01*
X140750504Y-134874047D01*
X140667757Y-134808894D01*
X140634072Y-134779303D01*
X140594889Y-134744381D01*
X140558190Y-134713499D01*
X140528013Y-134689940D01*
X140508398Y-134676990D01*
X140507988Y-134676786D01*
X140487072Y-134667726D01*
X140477826Y-134669308D01*
X140474103Y-134682153D01*
X140477842Y-134708273D01*
X140494080Y-134745898D01*
X140520870Y-134792244D01*
X140556265Y-134844525D01*
X140598319Y-134899955D01*
X140645086Y-134955749D01*
X140694619Y-135009121D01*
X140720328Y-135034520D01*
X140870078Y-135165334D01*
X141033469Y-135284309D01*
X141211023Y-135391669D01*
X141403262Y-135487634D01*
X141610707Y-135572428D01*
X141833882Y-135646274D01*
X142073307Y-135709392D01*
X142329506Y-135762007D01*
X142489080Y-135788264D01*
X142569212Y-135799358D01*
X142662372Y-135810637D01*
X142764908Y-135821791D01*
X142873172Y-135832505D01*
X142983512Y-135842467D01*
X143092281Y-135851364D01*
X143195828Y-135858884D01*
X143290503Y-135864714D01*
X143372658Y-135868540D01*
X143438641Y-135870051D01*
X143443612Y-135870063D01*
X143483409Y-135870959D01*
X143503803Y-135873478D01*
X143505629Y-135877403D01*
X143489718Y-135882516D01*
X143456906Y-135888599D01*
X143408025Y-135895435D01*
X143343909Y-135902806D01*
X143301880Y-135907065D01*
X143214981Y-135913891D01*
X143112298Y-135919264D01*
X142997691Y-135923185D01*
X142875016Y-135925651D01*
X142748132Y-135926663D01*
X142620899Y-135926219D01*
X142497174Y-135924318D01*
X142380816Y-135920959D01*
X142275683Y-135916141D01*
X142185633Y-135909863D01*
X142158880Y-135907369D01*
X141819399Y-135865211D01*
X141492791Y-135808304D01*
X141177501Y-135736212D01*
X140871976Y-135648499D01*
X140574663Y-135544728D01*
X140284010Y-135424462D01*
X140055465Y-135316193D01*
X139988931Y-135282118D01*
X139916018Y-135243486D01*
X139841268Y-135202814D01*
X139769223Y-135162616D01*
X139704423Y-135125407D01*
X139651411Y-135093701D01*
X139634120Y-135082865D01*
X139603640Y-135063390D01*
X139629040Y-135092025D01*
X139650833Y-135113421D01*
X139686176Y-135144402D01*
X139732145Y-135182657D01*
X139785817Y-135225874D01*
X139844266Y-135271741D01*
X139904572Y-135317946D01*
X139963808Y-135362177D01*
X140019053Y-135402124D01*
X140038266Y-135415613D01*
X140255943Y-135557519D01*
X140492869Y-135693974D01*
X140749150Y-135825033D01*
X141024893Y-135950753D01*
X141188600Y-136019149D01*
X141295561Y-136060964D01*
X141414549Y-136104850D01*
X141541515Y-136149487D01*
X141672410Y-136193560D01*
X141803186Y-136235749D01*
X141929795Y-136274737D01*
X142048188Y-136309207D01*
X142154317Y-136337841D01*
X142209680Y-136351497D01*
X142256384Y-136362895D01*
X142297990Y-136373749D01*
X142329066Y-136382603D01*
X142341760Y-136386879D01*
X142354056Y-136392800D01*
X142351407Y-136395776D01*
X142331633Y-136396636D01*
X142316360Y-136396553D01*
X142284094Y-136394921D01*
X142238938Y-136390992D01*
X142188103Y-136385443D01*
X142158880Y-136381753D01*
X141962376Y-136354519D01*
X141783182Y-136327458D01*
X141618303Y-136299967D01*
X141464743Y-136271448D01*
X141319507Y-136241299D01*
X141179600Y-136208919D01*
X141042026Y-136173708D01*
X140903790Y-136135064D01*
X140850396Y-136119335D01*
X140531196Y-136014774D01*
X140220973Y-135894550D01*
X139920527Y-135759252D01*
X139630660Y-135609467D01*
X139352173Y-135445782D01*
X139085867Y-135268785D01*
X138832543Y-135079064D01*
X138593002Y-134877206D01*
X138368045Y-134663798D01*
X138158474Y-134439428D01*
X137965089Y-134204684D01*
X137788693Y-133960152D01*
X137684259Y-133797440D01*
X137585121Y-133630104D01*
X137492839Y-133463839D01*
X137409249Y-133302181D01*
X137336188Y-133148665D01*
X137282512Y-133024216D01*
X137256698Y-132960887D01*
X137229337Y-132893829D01*
X137203172Y-132829759D01*
X137180944Y-132775391D01*
X137174473Y-132759584D01*
X137149205Y-132693925D01*
X137121157Y-132614051D01*
X137090884Y-132522056D01*
X137058940Y-132420033D01*
X137025878Y-132310074D01*
X136992252Y-132194272D01*
X136958617Y-132074721D01*
X136925527Y-131953511D01*
X136893534Y-131832738D01*
X136863194Y-131714493D01*
X136835060Y-131600869D01*
X136809687Y-131493959D01*
X136787627Y-131395856D01*
X136769435Y-131308653D01*
X136755666Y-131234442D01*
X136746872Y-131175317D01*
X136743608Y-131133369D01*
X136743600Y-131131711D01*
X136741970Y-131109957D01*
X136737138Y-131108010D01*
X136729190Y-131125624D01*
X136718213Y-131162553D01*
X136704292Y-131218552D01*
X136688696Y-131287920D01*
X136624410Y-131630679D01*
X136580433Y-131972801D01*
X136556767Y-132314306D01*
X136553411Y-132655215D01*
X136570365Y-132995552D01*
X136607631Y-133335337D01*
X136665208Y-133674593D01*
X136734606Y-133980320D01*
X136749523Y-134035301D01*
X136769674Y-134104206D01*
X136793762Y-134183050D01*
X136820491Y-134267848D01*
X136848566Y-134354615D01*
X136876690Y-134439366D01*
X136903569Y-134518116D01*
X136927905Y-134586880D01*
X136948405Y-134641673D01*
X136955122Y-134658500D01*
X136966280Y-134687257D01*
X136972591Y-134706623D01*
X136973028Y-134711840D01*
X136964759Y-134704165D01*
X136946039Y-134682727D01*
X136918763Y-134649905D01*
X136884823Y-134608077D01*
X136846111Y-134559624D01*
X136804521Y-134506924D01*
X136761943Y-134452356D01*
X136720272Y-134398300D01*
X136681400Y-134347135D01*
X136657822Y-134315600D01*
X136430750Y-133993995D01*
X136223548Y-133668309D01*
X136036225Y-133338558D01*
X135868787Y-133004764D01*
X135721244Y-132666945D01*
X135593601Y-132325120D01*
X135485868Y-131979308D01*
X135398051Y-131629529D01*
X135330159Y-131275802D01*
X135282199Y-130918146D01*
X135278945Y-130886600D01*
X135273962Y-130821488D01*
X135270230Y-130740447D01*
X135267749Y-130647828D01*
X135266518Y-130547984D01*
X135266538Y-130445266D01*
X135267807Y-130344027D01*
X135270325Y-130248617D01*
X135274094Y-130163390D01*
X135278983Y-130094120D01*
X135316803Y-129773319D01*
X135371725Y-129459378D01*
X135443368Y-129153063D01*
X135515289Y-128909532D01*
X140579000Y-128909532D01*
X142029398Y-128910006D01*
X143479797Y-128910480D01*
X143644838Y-128807201D01*
X143780922Y-128723734D01*
X143924418Y-128638792D01*
X144068645Y-128556230D01*
X144206921Y-128479901D01*
X144277210Y-128442397D01*
X144415497Y-128369648D01*
X144408787Y-128337804D01*
X144395785Y-128293647D01*
X144373959Y-128238373D01*
X144345883Y-128177686D01*
X144314132Y-128117292D01*
X144293225Y-128081676D01*
X144203551Y-127954799D01*
X144100459Y-127843020D01*
X143984348Y-127746539D01*
X143855616Y-127665555D01*
X143714664Y-127600267D01*
X143561890Y-127550875D01*
X143397694Y-127517579D01*
X143222474Y-127500576D01*
X143125061Y-127498240D01*
X142963142Y-127506881D01*
X142811151Y-127532698D01*
X142669503Y-127575533D01*
X142538614Y-127635227D01*
X142418901Y-127711621D01*
X142310779Y-127804556D01*
X142303518Y-127811815D01*
X142273128Y-127843028D01*
X142249333Y-127868476D01*
X142234983Y-127885048D01*
X142232128Y-127889775D01*
X142242396Y-127888067D01*
X142267029Y-127880958D01*
X142301247Y-127869858D01*
X142311280Y-127866439D01*
X142409267Y-127842961D01*
X142507238Y-127839600D01*
X142603981Y-127856187D01*
X142698285Y-127892553D01*
X142761152Y-127928992D01*
X142789165Y-127949578D01*
X142822331Y-127976921D01*
X142857096Y-128007689D01*
X142889908Y-128038553D01*
X142917214Y-128066183D01*
X142935459Y-128087249D01*
X142941200Y-128097737D01*
X142931831Y-128102146D01*
X142906502Y-128108433D01*
X142869377Y-128115670D01*
X142835902Y-128121223D01*
X142727780Y-128143135D01*
X142614038Y-128175335D01*
X142504475Y-128214872D01*
X142456860Y-128235310D01*
X142356258Y-128286186D01*
X142249152Y-128349237D01*
X142141410Y-128420519D01*
X142038899Y-128496085D01*
X141947486Y-128571992D01*
X141923221Y-128594131D01*
X141856151Y-128656871D01*
X141865189Y-128616647D01*
X141899392Y-128509524D01*
X141951273Y-128410899D01*
X142019531Y-128322006D01*
X142102865Y-128244080D01*
X142199976Y-128178356D01*
X142309563Y-128126070D01*
X142418271Y-128091400D01*
X142453471Y-128082127D01*
X142471410Y-128075701D01*
X142474655Y-128070530D01*
X142465776Y-128065024D01*
X142462879Y-128063788D01*
X142441181Y-128059325D01*
X142403328Y-128056102D01*
X142353444Y-128054101D01*
X142295656Y-128053302D01*
X142234090Y-128053685D01*
X142172869Y-128055230D01*
X142116121Y-128057917D01*
X142067970Y-128061728D01*
X142036960Y-128065822D01*
X141986703Y-128075097D01*
X141932357Y-128085840D01*
X141892054Y-128094349D01*
X141823349Y-128109525D01*
X141751461Y-128206435D01*
X141665314Y-128313547D01*
X141572814Y-128410265D01*
X141471974Y-128497886D01*
X141360805Y-128577705D01*
X141237320Y-128651020D01*
X141099532Y-128719127D01*
X140945452Y-128783322D01*
X140773095Y-128844901D01*
X140772040Y-128845252D01*
X140579000Y-128909532D01*
X135515289Y-128909532D01*
X135531352Y-128855142D01*
X135635294Y-128566383D01*
X135754813Y-128287553D01*
X135889530Y-128019419D01*
X136039061Y-127762749D01*
X136203026Y-127518311D01*
X136381044Y-127286872D01*
X136572734Y-127069199D01*
X136777715Y-126866060D01*
X136961962Y-126705516D01*
X137071403Y-126618638D01*
X137173178Y-126544530D01*
X137272350Y-126480125D01*
X137373983Y-126422354D01*
X137483137Y-126368148D01*
X137604877Y-126314439D01*
X137612280Y-126311338D01*
X137739800Y-126261232D01*
X137870492Y-126215822D01*
X138001160Y-126175913D01*
X138128608Y-126142312D01*
X138249642Y-126115823D01*
X138361065Y-126097252D01*
X138459683Y-126087406D01*
X138506099Y-126086000D01*
X138562329Y-126087242D01*
X138607379Y-126090728D01*
X138638461Y-126096097D01*
X138652786Y-126102990D01*
X138653420Y-126105050D01*
X138645315Y-126113025D01*
X138623949Y-126128746D01*
X138593365Y-126149298D01*
X138581399Y-126156986D01*
X138470010Y-126239664D01*
X138368711Y-126339429D01*
X138277999Y-126455454D01*
X138198372Y-126586913D01*
X138130326Y-126732978D01*
X138074360Y-126892822D01*
X138030970Y-127065620D01*
X138029032Y-127075115D01*
X138014098Y-127160205D01*
X138000530Y-127258781D01*
X137988633Y-127366509D01*
X137978712Y-127479055D01*
X137971073Y-127592086D01*
X137966021Y-127701266D01*
X137963862Y-127802262D01*
X137964900Y-127890739D01*
X137967803Y-127944307D01*
X137975073Y-128036169D01*
X138073076Y-127947387D01*
X138324900Y-127732071D01*
X138589322Y-127530595D01*
X138864727Y-127343861D01*
X139149497Y-127172772D01*
X139442018Y-127018232D01*
X139740674Y-126881142D01*
X140043848Y-126762405D01*
X140135031Y-126732769D01*
X143726448Y-126732769D01*
X143738864Y-126852642D01*
X143768602Y-126965455D01*
X143815085Y-127069524D01*
X143877738Y-127163165D01*
X143947332Y-127237005D01*
X144037028Y-127305329D01*
X144133938Y-127354736D01*
X144237485Y-127385078D01*
X144347090Y-127396204D01*
X144462178Y-127387966D01*
X144502598Y-127380697D01*
X144632788Y-127344767D01*
X144762845Y-127291454D01*
X144839057Y-127251688D01*
X144878773Y-127228260D01*
X144923137Y-127200635D01*
X144968895Y-127171019D01*
X145012793Y-127141623D01*
X145051574Y-127114653D01*
X145081983Y-127092320D01*
X145100766Y-127076830D01*
X145105267Y-127071078D01*
X145096903Y-127064462D01*
X145073750Y-127049664D01*
X145038731Y-127028464D01*
X144994770Y-127002642D01*
X144959597Y-126982402D01*
X144813914Y-126899246D01*
X144723377Y-126936950D01*
X144682752Y-126953399D01*
X144650965Y-126964215D01*
X144621528Y-126970584D01*
X144587956Y-126973691D01*
X144543759Y-126974721D01*
X144516000Y-126974827D01*
X144447895Y-126972912D01*
X144395566Y-126965999D01*
X144354791Y-126952684D01*
X144321345Y-126931560D01*
X144291005Y-126901220D01*
X144289467Y-126899403D01*
X144259402Y-126851004D01*
X144236041Y-126787514D01*
X144220164Y-126713280D01*
X144212547Y-126632648D01*
X144213971Y-126549965D01*
X144218880Y-126505244D01*
X144223291Y-126469956D01*
X144223243Y-126449871D01*
X144218257Y-126440267D01*
X144212038Y-126437379D01*
X144193497Y-126433626D01*
X144160031Y-126428219D01*
X144115236Y-126421624D01*
X144062707Y-126414305D01*
X144006042Y-126406730D01*
X143948837Y-126399362D01*
X143894687Y-126392667D01*
X143847189Y-126387111D01*
X143809940Y-126383159D01*
X143786534Y-126381277D01*
X143780237Y-126381495D01*
X143772952Y-126396964D01*
X143763996Y-126428143D01*
X143754320Y-126470590D01*
X143744872Y-126519864D01*
X143736602Y-126571524D01*
X143731931Y-126607520D01*
X143726448Y-126732769D01*
X140135031Y-126732769D01*
X140349925Y-126662925D01*
X140395481Y-126649862D01*
X140552474Y-126608812D01*
X140718714Y-126571134D01*
X140887382Y-126538156D01*
X141051661Y-126511207D01*
X141204733Y-126491614D01*
X141211460Y-126490904D01*
X141258957Y-126485471D01*
X141298098Y-126480090D01*
X141325020Y-126475356D01*
X141335862Y-126471867D01*
X141335920Y-126471671D01*
X141327177Y-126464400D01*
X141303552Y-126451195D01*
X141268950Y-126433861D01*
X141227278Y-126414206D01*
X141182440Y-126394037D01*
X141138343Y-126375160D01*
X141098891Y-126359382D01*
X141073469Y-126350261D01*
X140909574Y-126306563D01*
X140736406Y-126280060D01*
X140555427Y-126270695D01*
X140368101Y-126278411D01*
X140175891Y-126303149D01*
X139980258Y-126344854D01*
X139791600Y-126400460D01*
X139694770Y-126434931D01*
X139593113Y-126474841D01*
X139489779Y-126518678D01*
X139387920Y-126564930D01*
X139290686Y-126612086D01*
X139201228Y-126658632D01*
X139122698Y-126703059D01*
X139058247Y-126743853D01*
X139024223Y-126768626D01*
X138953084Y-126822783D01*
X138895291Y-126862591D01*
X138850208Y-126888445D01*
X138817196Y-126900740D01*
X138809475Y-126901850D01*
X138788763Y-126900509D01*
X138780033Y-126888444D01*
X138777773Y-126873400D01*
X138781803Y-126844940D01*
X138796851Y-126803191D01*
X138821366Y-126750831D01*
X138853797Y-126690539D01*
X138892595Y-126624992D01*
X138936207Y-126556868D01*
X138983084Y-126488846D01*
X139031676Y-126423603D01*
X139055729Y-126393352D01*
X139125806Y-126307701D01*
X139186075Y-126235449D01*
X139239298Y-126174031D01*
X139288241Y-126120880D01*
X139335666Y-126073434D01*
X139384337Y-126029126D01*
X139437019Y-125985392D01*
X139496476Y-125939666D01*
X139565470Y-125889385D01*
X139646766Y-125831982D01*
X139702540Y-125793097D01*
X139791357Y-125729677D01*
X139863083Y-125674599D01*
X139918661Y-125626835D01*
X139959032Y-125585358D01*
X139985138Y-125549143D01*
X139997920Y-125517162D01*
X139998320Y-125488388D01*
X139994249Y-125475070D01*
X139986206Y-125459355D01*
X139974586Y-125446033D01*
X139956560Y-125433707D01*
X139929302Y-125420984D01*
X139889982Y-125406468D01*
X139835773Y-125388764D01*
X139790999Y-125374820D01*
X139593108Y-125318480D01*
X139396065Y-125272197D01*
X139192969Y-125234513D01*
X138988858Y-125205440D01*
X138938407Y-125199821D01*
X138885796Y-125195393D01*
X138827913Y-125192039D01*
X138761645Y-125189641D01*
X138683878Y-125188081D01*
X138591500Y-125187242D01*
X138501280Y-125187008D01*
X138388000Y-125187280D01*
X138290988Y-125188392D01*
X138206199Y-125190608D01*
X138129590Y-125194190D01*
X138057116Y-125199403D01*
X137984734Y-125206508D01*
X137908399Y-125215769D01*
X137824067Y-125227449D01*
X137779920Y-125233938D01*
X137474218Y-125289199D01*
X137166561Y-125363892D01*
X136858268Y-125457393D01*
X136550659Y-125569081D01*
X136245055Y-125698332D01*
X135942777Y-125844524D01*
X135645142Y-126007035D01*
X135353474Y-126185242D01*
X135069090Y-126378522D01*
X134793312Y-126586252D01*
X134630435Y-126719327D01*
X134587784Y-126754878D01*
X134550802Y-126784985D01*
X134522136Y-126807548D01*
X134504436Y-126820471D01*
X134499997Y-126822664D01*
X134501571Y-126811038D01*
X134512308Y-126785456D01*
X134530487Y-126749126D01*
X134554390Y-126705252D01*
X134582299Y-126657041D01*
X134612493Y-126607699D01*
X134629403Y-126581315D01*
X134772685Y-126375974D01*
X134929042Y-126179481D01*
X135099918Y-125990327D01*
X135286761Y-125807005D01*
X135491016Y-125628007D01*
X135709276Y-125455481D01*
X135999309Y-125249508D01*
X136303451Y-125058111D01*
X136621627Y-124881313D01*
X136953763Y-124719138D01*
X137299785Y-124571608D01*
X137659619Y-124438748D01*
X138033191Y-124320580D01*
X138420427Y-124217129D01*
X138821253Y-124128416D01*
X139235595Y-124054467D01*
X139663379Y-123995303D01*
X140104532Y-123950949D01*
X140558978Y-123921428D01*
X140568840Y-123920959D01*
X140670316Y-123917201D01*
X140783311Y-123914816D01*
X140904160Y-123913750D01*
X141029195Y-123913949D01*
D11*
X147100000Y-104350000D02*
X147850000Y-103600000D01*
X147850000Y-103600000D02*
X152600000Y-103600000D01*
X152600000Y-103600000D02*
X152600000Y-116100000D01*
X152600000Y-116100000D02*
X147100000Y-116100000D01*
X147100000Y-116100000D02*
X147100000Y-104350000D01*
X233950000Y-138800000D02*
G75*
G02X247950000Y-138800000I7000000J0D01*
G01*
X247950000Y-140300000D02*
X247950000Y-138800000D01*
X233950000Y-140300000D02*
X233950000Y-138800000D01*
X247950000Y-140300000D02*
G75*
G02X233950000Y-140300000I-7000000J0D01*
G01*
X103150000Y-147300000D02*
G75*
G02X103150000Y-133300000I0J7000000D01*
G01*
X104650000Y-133300000D02*
G75*
G02X104650000Y-147300000I0J-7000000D01*
G01*
X103150000Y-133300000D02*
X104650000Y-133300000D01*
X103150000Y-147300000D02*
X104650000Y-147300000D01*
X126150000Y-147300000D02*
G75*
G02X126150000Y-133300000I0J7000000D01*
G01*
X126150000Y-133300000D02*
X127650000Y-133300000D01*
X126150000Y-147300000D02*
X127650000Y-147300000D01*
X127650000Y-133300000D02*
G75*
G02X127650000Y-147300000I0J-7000000D01*
G01*
X172050000Y-106700000D02*
G75*
G02X172050000Y-92700000I0J7000000D01*
G01*
X173550000Y-92700000D02*
G75*
G02X173550000Y-106700000I0J-7000000D01*
G01*
X172050000Y-92700000D02*
X173550000Y-92700000D01*
X172050000Y-106700000D02*
X173550000Y-106700000D01*
X195050000Y-106700000D02*
G75*
G02X195050000Y-92700000I0J7000000D01*
G01*
X195050000Y-92700000D02*
X196550000Y-92700000D01*
X195050000Y-106700000D02*
X196550000Y-106700000D01*
X196550000Y-92700000D02*
G75*
G02X196550000Y-106700000I0J-7000000D01*
G01*
X110150000Y-101200000D02*
X110150000Y-99700000D01*
X96150000Y-101200000D02*
X96150000Y-99700000D01*
X96150000Y-99700000D02*
G75*
G02X110150000Y-99700000I7000000J0D01*
G01*
X110150000Y-101200000D02*
G75*
G02X96150000Y-101200000I-7000000J0D01*
G01*
X110150000Y-120000000D02*
X110150000Y-118500000D01*
X96150000Y-120000000D02*
X96150000Y-118500000D01*
X110150000Y-120000000D02*
G75*
G02X96150000Y-120000000I-7000000J0D01*
G01*
X96150000Y-118500000D02*
G75*
G02X110150000Y-118500000I7000000J0D01*
G01*
X65750000Y-121500000D02*
X65750000Y-120000000D01*
X51750000Y-121500000D02*
X51750000Y-120000000D01*
X51750000Y-120000000D02*
G75*
G02X65750000Y-120000000I7000000J0D01*
G01*
X65750000Y-121500000D02*
G75*
G02X51750000Y-121500000I-7000000J0D01*
G01*
X65750000Y-140300000D02*
X65750000Y-138800000D01*
X51750000Y-140300000D02*
X51750000Y-138800000D01*
X65750000Y-140300000D02*
G75*
G02X51750000Y-140300000I-7000000J0D01*
G01*
X51750000Y-138800000D02*
G75*
G02X65750000Y-138800000I7000000J0D01*
G01*
X165050000Y-138800000D02*
X165050000Y-140300000D01*
X179050000Y-138800000D02*
X179050000Y-140300000D01*
X179050000Y-140300000D02*
G75*
G02X165050000Y-140300000I-7000000J0D01*
G01*
X165050000Y-138800000D02*
G75*
G02X179050000Y-138800000I7000000J0D01*
G01*
X165050000Y-120000000D02*
X165050000Y-121500000D01*
X179050000Y-120000000D02*
X179050000Y-121500000D01*
X165050000Y-120000000D02*
G75*
G02X179050000Y-120000000I7000000J0D01*
G01*
X179050000Y-121500000D02*
G75*
G02X165050000Y-121500000I-7000000J0D01*
G01*
X120650000Y-118500000D02*
X120650000Y-120000000D01*
X134650000Y-118500000D02*
X134650000Y-120000000D01*
X134650000Y-120000000D02*
G75*
G02X120650000Y-120000000I-7000000J0D01*
G01*
X120650000Y-118500000D02*
G75*
G02X134650000Y-118500000I7000000J0D01*
G01*
X120650000Y-99700000D02*
X120650000Y-101200000D01*
X134650000Y-99700000D02*
X134650000Y-101200000D01*
X120650000Y-99700000D02*
G75*
G02X134650000Y-99700000I7000000J0D01*
G01*
X134650000Y-101200000D02*
G75*
G02X120650000Y-101200000I-7000000J0D01*
G01*
X247950000Y-101200000D02*
X247950000Y-99700000D01*
X233950000Y-101200000D02*
X233950000Y-99700000D01*
X233950000Y-99700000D02*
G75*
G02X247950000Y-99700000I7000000J0D01*
G01*
X247950000Y-101200000D02*
G75*
G02X233950000Y-101200000I-7000000J0D01*
G01*
X247950000Y-120000000D02*
X247950000Y-118500000D01*
X233950000Y-120000000D02*
X233950000Y-118500000D01*
X247950000Y-120000000D02*
G75*
G02X233950000Y-120000000I-7000000J0D01*
G01*
X233950000Y-118500000D02*
G75*
G02X247950000Y-118500000I7000000J0D01*
G01*
X203550000Y-121500000D02*
X203550000Y-120000000D01*
X189550000Y-121500000D02*
X189550000Y-120000000D01*
X189550000Y-120000000D02*
G75*
G02X203550000Y-120000000I7000000J0D01*
G01*
X203550000Y-121500000D02*
G75*
G02X189550000Y-121500000I-7000000J0D01*
G01*
X203550000Y-140300000D02*
X203550000Y-138800000D01*
X189550000Y-140300000D02*
X189550000Y-138800000D01*
X203550000Y-140300000D02*
G75*
G02X189550000Y-140300000I-7000000J0D01*
G01*
X189550000Y-138800000D02*
G75*
G02X203550000Y-138800000I7000000J0D01*
G01*
X51750000Y-99700000D02*
G75*
G02X65750000Y-99700000I7000000J0D01*
G01*
X65750000Y-101200000D02*
X65750000Y-99700000D01*
X51750000Y-101200000D02*
X51750000Y-99700000D01*
X65750000Y-101200000D02*
G75*
G02X51750000Y-101200000I-7000000J0D01*
G01*
X85100000Y-106835000D02*
X85900000Y-106035000D01*
X85900000Y-106035000D02*
X91800000Y-106035000D01*
X91800000Y-106035000D02*
X91800000Y-113665000D01*
X91800000Y-113665000D02*
X85100000Y-113665000D01*
X85100000Y-113665000D02*
X85100000Y-106835000D01*
D12*
X157545000Y-107160000D02*
X157545000Y-107460000D01*
X156125000Y-107160000D02*
X156125000Y-107460000D01*
X159935000Y-112240000D02*
X159935000Y-112540000D01*
X161355000Y-112240000D02*
X161355000Y-112540000D01*
X157545000Y-112240000D02*
X157545000Y-112540000D01*
X156125000Y-112240000D02*
X156125000Y-112540000D01*
X219870000Y-93910000D02*
X220170000Y-93910000D01*
X219870000Y-95330000D02*
X220170000Y-95330000D01*
X161355000Y-107460000D02*
X161355000Y-107160000D01*
X159935000Y-107460000D02*
X159935000Y-107160000D01*
X95975000Y-109140000D02*
X95675000Y-109140000D01*
X95975000Y-110560000D02*
X95675000Y-110560000D01*
X71410000Y-98790000D02*
X72710000Y-98790000D01*
X71410000Y-100610000D02*
X72710000Y-100610000D01*
X90490000Y-120910000D02*
X89190000Y-120910000D01*
X90490000Y-119090000D02*
X89190000Y-119090000D01*
X71410000Y-139390000D02*
X72710000Y-139390000D01*
X71410000Y-141210000D02*
X72710000Y-141210000D01*
X140310000Y-141210000D02*
X141610000Y-141210000D01*
X140310000Y-139390000D02*
X141610000Y-139390000D01*
X159390000Y-120910000D02*
X158090000Y-120910000D01*
X159390000Y-119090000D02*
X158090000Y-119090000D01*
X140310000Y-100610000D02*
X141610000Y-100610000D01*
X140310000Y-98790000D02*
X141610000Y-98790000D01*
X209210000Y-98790000D02*
X210510000Y-98790000D01*
X209210000Y-100610000D02*
X210510000Y-100610000D01*
X228290000Y-119090000D02*
X226990000Y-119090000D01*
X228290000Y-120910000D02*
X226990000Y-120910000D01*
X209210000Y-141210000D02*
X210510000Y-141210000D01*
X209210000Y-139390000D02*
X210510000Y-139390000D01*
X228290000Y-129240000D02*
X226990000Y-129240000D01*
X228290000Y-131060000D02*
X226990000Y-131060000D01*
X141350000Y-95480000D02*
X141350000Y-91380000D01*
X141350000Y-91380000D02*
X143350000Y-91380000D01*
X143350000Y-91380000D02*
X143350000Y-95480000D01*
X143350000Y-95480000D02*
X141350000Y-95480000D01*
X143550000Y-94730000D02*
X143850000Y-95030000D01*
X143850000Y-95030000D02*
X143850000Y-94430000D01*
X143550000Y-94730000D02*
X143850000Y-94430000D01*
X148550000Y-94730000D02*
X148850000Y-94430000D01*
X148850000Y-95030000D02*
X148850000Y-94430000D01*
X148550000Y-94730000D02*
X148850000Y-95030000D01*
X148350000Y-95480000D02*
X146350000Y-95480000D01*
X148350000Y-91380000D02*
X148350000Y-95480000D01*
X146350000Y-91380000D02*
X148350000Y-91380000D01*
X146350000Y-95480000D02*
X146350000Y-91380000D01*
X151350000Y-95480000D02*
X151350000Y-91380000D01*
X151350000Y-91380000D02*
X153350000Y-91380000D01*
X153350000Y-91380000D02*
X153350000Y-95480000D01*
X153350000Y-95480000D02*
X151350000Y-95480000D01*
X153550000Y-94730000D02*
X153850000Y-95030000D01*
X153850000Y-95030000D02*
X153850000Y-94430000D01*
X153550000Y-94730000D02*
X153850000Y-94430000D01*
X156350000Y-95480000D02*
X156350000Y-91380000D01*
X156350000Y-91380000D02*
X158350000Y-91380000D01*
X158350000Y-91380000D02*
X158350000Y-95480000D01*
X158350000Y-95480000D02*
X156350000Y-95480000D01*
X158550000Y-94730000D02*
X158850000Y-95030000D01*
X158850000Y-95030000D02*
X158850000Y-94430000D01*
X158550000Y-94730000D02*
X158850000Y-94430000D01*
X210620000Y-96200000D02*
X210620000Y-95270000D01*
X210620000Y-93040000D02*
X210620000Y-93970000D01*
X210620000Y-93040000D02*
X208460000Y-93040000D01*
X210620000Y-96200000D02*
X209160000Y-96200000D01*
X215085000Y-95330000D02*
X214785000Y-95330000D01*
X215085000Y-93910000D02*
X214785000Y-93910000D01*
X76990000Y-93910000D02*
X77290000Y-93910000D01*
X76990000Y-95330000D02*
X77290000Y-95330000D01*
X76990000Y-100410000D02*
X77290000Y-100410000D01*
X76990000Y-98990000D02*
X77290000Y-98990000D01*
X84910000Y-120710000D02*
X84610000Y-120710000D01*
X84910000Y-119290000D02*
X84610000Y-119290000D01*
X76990000Y-139590000D02*
X77290000Y-139590000D01*
X76990000Y-141010000D02*
X77290000Y-141010000D01*
X145890000Y-141010000D02*
X146190000Y-141010000D01*
X145890000Y-139590000D02*
X146190000Y-139590000D01*
X153810000Y-120710000D02*
X153510000Y-120710000D01*
X153810000Y-119290000D02*
X153510000Y-119290000D01*
X145890000Y-100410000D02*
X146190000Y-100410000D01*
X145890000Y-98990000D02*
X146190000Y-98990000D01*
X214790000Y-98990000D02*
X215090000Y-98990000D01*
X214790000Y-100410000D02*
X215090000Y-100410000D01*
X222710000Y-119290000D02*
X222410000Y-119290000D01*
X222710000Y-120710000D02*
X222410000Y-120710000D01*
X165165000Y-112240000D02*
X165165000Y-112540000D01*
X163745000Y-112240000D02*
X163745000Y-112540000D01*
X165165000Y-107160000D02*
X165165000Y-107460000D01*
X163745000Y-107160000D02*
X163745000Y-107460000D01*
X214790000Y-141010000D02*
X215090000Y-141010000D01*
X214790000Y-139590000D02*
X215090000Y-139590000D01*
X81225000Y-105965000D02*
X80925000Y-105965000D01*
X81225000Y-107385000D02*
X80925000Y-107385000D01*
X79095000Y-109700000D02*
X79095000Y-110000000D01*
X80515000Y-109700000D02*
X80515000Y-110000000D01*
X222710000Y-129450000D02*
X222410000Y-129450000D01*
X222710000Y-130870000D02*
X222410000Y-130870000D01*
X81225000Y-113735000D02*
X80925000Y-113735000D01*
X81225000Y-112315000D02*
X80925000Y-112315000D01*
D11*
X149088095Y-102052380D02*
X149088095Y-102861904D01*
X149135714Y-102957142D01*
X149183333Y-103004761D01*
X149278571Y-103052380D01*
X149469047Y-103052380D01*
X149564285Y-103004761D01*
X149611904Y-102957142D01*
X149659523Y-102861904D01*
X149659523Y-102052380D01*
X150659523Y-103052380D02*
X150088095Y-103052380D01*
X150373809Y-103052380D02*
X150373809Y-102052380D01*
X150278571Y-102195238D01*
X150183333Y-102290476D01*
X150088095Y-102338095D01*
X87688095Y-104487380D02*
X87688095Y-105296904D01*
X87735714Y-105392142D01*
X87783333Y-105439761D01*
X87878571Y-105487380D01*
X88069047Y-105487380D01*
X88164285Y-105439761D01*
X88211904Y-105392142D01*
X88259523Y-105296904D01*
X88259523Y-104487380D01*
X88688095Y-104582619D02*
X88735714Y-104535000D01*
X88830952Y-104487380D01*
X89069047Y-104487380D01*
X89164285Y-104535000D01*
X89211904Y-104582619D01*
X89259523Y-104677857D01*
X89259523Y-104773095D01*
X89211904Y-104915952D01*
X88640476Y-105487380D01*
X89259523Y-105487380D01*
X159097142Y-107476666D02*
X159144761Y-107524285D01*
X159192380Y-107667142D01*
X159192380Y-107762380D01*
X159144761Y-107905238D01*
X159049523Y-108000476D01*
X158954285Y-108048095D01*
X158763809Y-108095714D01*
X158620952Y-108095714D01*
X158430476Y-108048095D01*
X158335238Y-108000476D01*
X158240000Y-107905238D01*
X158192380Y-107762380D01*
X158192380Y-107667142D01*
X158240000Y-107524285D01*
X158287619Y-107476666D01*
X159192380Y-106524285D02*
X159192380Y-107095714D01*
X159192380Y-106810000D02*
X158192380Y-106810000D01*
X158335238Y-106905238D01*
X158430476Y-107000476D01*
X158478095Y-107095714D01*
X162907142Y-112556666D02*
X162954761Y-112604285D01*
X163002380Y-112747142D01*
X163002380Y-112842380D01*
X162954761Y-112985238D01*
X162859523Y-113080476D01*
X162764285Y-113128095D01*
X162573809Y-113175714D01*
X162430952Y-113175714D01*
X162240476Y-113128095D01*
X162145238Y-113080476D01*
X162050000Y-112985238D01*
X162002380Y-112842380D01*
X162002380Y-112747142D01*
X162050000Y-112604285D01*
X162097619Y-112556666D01*
X162097619Y-112175714D02*
X162050000Y-112128095D01*
X162002380Y-112032857D01*
X162002380Y-111794761D01*
X162050000Y-111699523D01*
X162097619Y-111651904D01*
X162192857Y-111604285D01*
X162288095Y-111604285D01*
X162430952Y-111651904D01*
X163002380Y-112223333D01*
X163002380Y-111604285D01*
X159097142Y-112556666D02*
X159144761Y-112604285D01*
X159192380Y-112747142D01*
X159192380Y-112842380D01*
X159144761Y-112985238D01*
X159049523Y-113080476D01*
X158954285Y-113128095D01*
X158763809Y-113175714D01*
X158620952Y-113175714D01*
X158430476Y-113128095D01*
X158335238Y-113080476D01*
X158240000Y-112985238D01*
X158192380Y-112842380D01*
X158192380Y-112747142D01*
X158240000Y-112604285D01*
X158287619Y-112556666D01*
X158192380Y-112223333D02*
X158192380Y-111604285D01*
X158573333Y-111937619D01*
X158573333Y-111794761D01*
X158620952Y-111699523D01*
X158668571Y-111651904D01*
X158763809Y-111604285D01*
X159001904Y-111604285D01*
X159097142Y-111651904D01*
X159144761Y-111699523D01*
X159192380Y-111794761D01*
X159192380Y-112080476D01*
X159144761Y-112175714D01*
X159097142Y-112223333D01*
X219853333Y-93072142D02*
X219805714Y-93119761D01*
X219662857Y-93167380D01*
X219567619Y-93167380D01*
X219424761Y-93119761D01*
X219329523Y-93024523D01*
X219281904Y-92929285D01*
X219234285Y-92738809D01*
X219234285Y-92595952D01*
X219281904Y-92405476D01*
X219329523Y-92310238D01*
X219424761Y-92215000D01*
X219567619Y-92167380D01*
X219662857Y-92167380D01*
X219805714Y-92215000D01*
X219853333Y-92262619D01*
X220710476Y-92500714D02*
X220710476Y-93167380D01*
X220472380Y-92119761D02*
X220234285Y-92834047D01*
X220853333Y-92834047D01*
X162907142Y-107476666D02*
X162954761Y-107524285D01*
X163002380Y-107667142D01*
X163002380Y-107762380D01*
X162954761Y-107905238D01*
X162859523Y-108000476D01*
X162764285Y-108048095D01*
X162573809Y-108095714D01*
X162430952Y-108095714D01*
X162240476Y-108048095D01*
X162145238Y-108000476D01*
X162050000Y-107905238D01*
X162002380Y-107762380D01*
X162002380Y-107667142D01*
X162050000Y-107524285D01*
X162097619Y-107476666D01*
X162002380Y-106571904D02*
X162002380Y-107048095D01*
X162478571Y-107095714D01*
X162430952Y-107048095D01*
X162383333Y-106952857D01*
X162383333Y-106714761D01*
X162430952Y-106619523D01*
X162478571Y-106571904D01*
X162573809Y-106524285D01*
X162811904Y-106524285D01*
X162907142Y-106571904D01*
X162954761Y-106619523D01*
X163002380Y-106714761D01*
X163002380Y-106952857D01*
X162954761Y-107048095D01*
X162907142Y-107095714D01*
X95658333Y-108302142D02*
X95610714Y-108349761D01*
X95467857Y-108397380D01*
X95372619Y-108397380D01*
X95229761Y-108349761D01*
X95134523Y-108254523D01*
X95086904Y-108159285D01*
X95039285Y-107968809D01*
X95039285Y-107825952D01*
X95086904Y-107635476D01*
X95134523Y-107540238D01*
X95229761Y-107445000D01*
X95372619Y-107397380D01*
X95467857Y-107397380D01*
X95610714Y-107445000D01*
X95658333Y-107492619D01*
X96515476Y-107397380D02*
X96325000Y-107397380D01*
X96229761Y-107445000D01*
X96182142Y-107492619D01*
X96086904Y-107635476D01*
X96039285Y-107825952D01*
X96039285Y-108206904D01*
X96086904Y-108302142D01*
X96134523Y-108349761D01*
X96229761Y-108397380D01*
X96420238Y-108397380D01*
X96515476Y-108349761D01*
X96563095Y-108302142D01*
X96610714Y-108206904D01*
X96610714Y-107968809D01*
X96563095Y-107873571D01*
X96515476Y-107825952D01*
X96420238Y-107778333D01*
X96229761Y-107778333D01*
X96134523Y-107825952D01*
X96086904Y-107873571D01*
X96039285Y-107968809D01*
X71726666Y-97723571D02*
X71393333Y-97723571D01*
X71393333Y-98247380D02*
X71393333Y-97247380D01*
X71869523Y-97247380D01*
X72774285Y-98247380D02*
X72202857Y-98247380D01*
X72488571Y-98247380D02*
X72488571Y-97247380D01*
X72393333Y-97390238D01*
X72298095Y-97485476D01*
X72202857Y-97533095D01*
X89506666Y-118023571D02*
X89173333Y-118023571D01*
X89173333Y-118547380D02*
X89173333Y-117547380D01*
X89649523Y-117547380D01*
X89982857Y-117642619D02*
X90030476Y-117595000D01*
X90125714Y-117547380D01*
X90363809Y-117547380D01*
X90459047Y-117595000D01*
X90506666Y-117642619D01*
X90554285Y-117737857D01*
X90554285Y-117833095D01*
X90506666Y-117975952D01*
X89935238Y-118547380D01*
X90554285Y-118547380D01*
X71726666Y-138323571D02*
X71393333Y-138323571D01*
X71393333Y-138847380D02*
X71393333Y-137847380D01*
X71869523Y-137847380D01*
X72155238Y-137847380D02*
X72774285Y-137847380D01*
X72440952Y-138228333D01*
X72583809Y-138228333D01*
X72679047Y-138275952D01*
X72726666Y-138323571D01*
X72774285Y-138418809D01*
X72774285Y-138656904D01*
X72726666Y-138752142D01*
X72679047Y-138799761D01*
X72583809Y-138847380D01*
X72298095Y-138847380D01*
X72202857Y-138799761D01*
X72155238Y-138752142D01*
X140626666Y-138323571D02*
X140293333Y-138323571D01*
X140293333Y-138847380D02*
X140293333Y-137847380D01*
X140769523Y-137847380D01*
X141579047Y-138180714D02*
X141579047Y-138847380D01*
X141340952Y-137799761D02*
X141102857Y-138514047D01*
X141721904Y-138514047D01*
X158406666Y-118023571D02*
X158073333Y-118023571D01*
X158073333Y-118547380D02*
X158073333Y-117547380D01*
X158549523Y-117547380D01*
X159406666Y-117547380D02*
X158930476Y-117547380D01*
X158882857Y-118023571D01*
X158930476Y-117975952D01*
X159025714Y-117928333D01*
X159263809Y-117928333D01*
X159359047Y-117975952D01*
X159406666Y-118023571D01*
X159454285Y-118118809D01*
X159454285Y-118356904D01*
X159406666Y-118452142D01*
X159359047Y-118499761D01*
X159263809Y-118547380D01*
X159025714Y-118547380D01*
X158930476Y-118499761D01*
X158882857Y-118452142D01*
X140626666Y-97723571D02*
X140293333Y-97723571D01*
X140293333Y-98247380D02*
X140293333Y-97247380D01*
X140769523Y-97247380D01*
X141579047Y-97247380D02*
X141388571Y-97247380D01*
X141293333Y-97295000D01*
X141245714Y-97342619D01*
X141150476Y-97485476D01*
X141102857Y-97675952D01*
X141102857Y-98056904D01*
X141150476Y-98152142D01*
X141198095Y-98199761D01*
X141293333Y-98247380D01*
X141483809Y-98247380D01*
X141579047Y-98199761D01*
X141626666Y-98152142D01*
X141674285Y-98056904D01*
X141674285Y-97818809D01*
X141626666Y-97723571D01*
X141579047Y-97675952D01*
X141483809Y-97628333D01*
X141293333Y-97628333D01*
X141198095Y-97675952D01*
X141150476Y-97723571D01*
X141102857Y-97818809D01*
X209526666Y-97723571D02*
X209193333Y-97723571D01*
X209193333Y-98247380D02*
X209193333Y-97247380D01*
X209669523Y-97247380D01*
X209955238Y-97247380D02*
X210621904Y-97247380D01*
X210193333Y-98247380D01*
X227306666Y-118023571D02*
X226973333Y-118023571D01*
X226973333Y-118547380D02*
X226973333Y-117547380D01*
X227449523Y-117547380D01*
X227973333Y-117975952D02*
X227878095Y-117928333D01*
X227830476Y-117880714D01*
X227782857Y-117785476D01*
X227782857Y-117737857D01*
X227830476Y-117642619D01*
X227878095Y-117595000D01*
X227973333Y-117547380D01*
X228163809Y-117547380D01*
X228259047Y-117595000D01*
X228306666Y-117642619D01*
X228354285Y-117737857D01*
X228354285Y-117785476D01*
X228306666Y-117880714D01*
X228259047Y-117928333D01*
X228163809Y-117975952D01*
X227973333Y-117975952D01*
X227878095Y-118023571D01*
X227830476Y-118071190D01*
X227782857Y-118166428D01*
X227782857Y-118356904D01*
X227830476Y-118452142D01*
X227878095Y-118499761D01*
X227973333Y-118547380D01*
X228163809Y-118547380D01*
X228259047Y-118499761D01*
X228306666Y-118452142D01*
X228354285Y-118356904D01*
X228354285Y-118166428D01*
X228306666Y-118071190D01*
X228259047Y-118023571D01*
X228163809Y-117975952D01*
X209526666Y-138323571D02*
X209193333Y-138323571D01*
X209193333Y-138847380D02*
X209193333Y-137847380D01*
X209669523Y-137847380D01*
X210098095Y-138847380D02*
X210288571Y-138847380D01*
X210383809Y-138799761D01*
X210431428Y-138752142D01*
X210526666Y-138609285D01*
X210574285Y-138418809D01*
X210574285Y-138037857D01*
X210526666Y-137942619D01*
X210479047Y-137895000D01*
X210383809Y-137847380D01*
X210193333Y-137847380D01*
X210098095Y-137895000D01*
X210050476Y-137942619D01*
X210002857Y-138037857D01*
X210002857Y-138275952D01*
X210050476Y-138371190D01*
X210098095Y-138418809D01*
X210193333Y-138466428D01*
X210383809Y-138466428D01*
X210479047Y-138418809D01*
X210526666Y-138371190D01*
X210574285Y-138275952D01*
X226830476Y-128173571D02*
X226497142Y-128173571D01*
X226497142Y-128697380D02*
X226497142Y-127697380D01*
X226973333Y-127697380D01*
X227878095Y-128697380D02*
X227306666Y-128697380D01*
X227592380Y-128697380D02*
X227592380Y-127697380D01*
X227497142Y-127840238D01*
X227401904Y-127935476D01*
X227306666Y-127983095D01*
X228497142Y-127697380D02*
X228592380Y-127697380D01*
X228687619Y-127745000D01*
X228735238Y-127792619D01*
X228782857Y-127887857D01*
X228830476Y-128078333D01*
X228830476Y-128316428D01*
X228782857Y-128506904D01*
X228735238Y-128602142D01*
X228687619Y-128649761D01*
X228592380Y-128697380D01*
X228497142Y-128697380D01*
X228401904Y-128649761D01*
X228354285Y-128602142D01*
X228306666Y-128506904D01*
X228259047Y-128316428D01*
X228259047Y-128078333D01*
X228306666Y-127887857D01*
X228354285Y-127792619D01*
X228401904Y-127745000D01*
X228497142Y-127697380D01*
X145016666Y-94144285D02*
X145016666Y-93668095D01*
X145302380Y-94239523D02*
X144302380Y-93906190D01*
X145302380Y-93572857D01*
X144302380Y-93334761D02*
X144302380Y-92715714D01*
X144683333Y-93049047D01*
X144683333Y-92906190D01*
X144730952Y-92810952D01*
X144778571Y-92763333D01*
X144873809Y-92715714D01*
X145111904Y-92715714D01*
X145207142Y-92763333D01*
X145254761Y-92810952D01*
X145302380Y-92906190D01*
X145302380Y-93191904D01*
X145254761Y-93287142D01*
X145207142Y-93334761D01*
X150016666Y-94144285D02*
X150016666Y-93668095D01*
X150302380Y-94239523D02*
X149302380Y-93906190D01*
X150302380Y-93572857D01*
X149397619Y-93287142D02*
X149350000Y-93239523D01*
X149302380Y-93144285D01*
X149302380Y-92906190D01*
X149350000Y-92810952D01*
X149397619Y-92763333D01*
X149492857Y-92715714D01*
X149588095Y-92715714D01*
X149730952Y-92763333D01*
X150302380Y-93334761D01*
X150302380Y-92715714D01*
X155016666Y-94144285D02*
X155016666Y-93668095D01*
X155302380Y-94239523D02*
X154302380Y-93906190D01*
X155302380Y-93572857D01*
X155302380Y-92715714D02*
X155302380Y-93287142D01*
X155302380Y-93001428D02*
X154302380Y-93001428D01*
X154445238Y-93096666D01*
X154540476Y-93191904D01*
X154588095Y-93287142D01*
X160016666Y-94144285D02*
X160016666Y-93668095D01*
X160302380Y-94239523D02*
X159302380Y-93906190D01*
X160302380Y-93572857D01*
X159302380Y-93049047D02*
X159302380Y-92953809D01*
X159350000Y-92858571D01*
X159397619Y-92810952D01*
X159492857Y-92763333D01*
X159683333Y-92715714D01*
X159921428Y-92715714D01*
X160111904Y-92763333D01*
X160207142Y-92810952D01*
X160254761Y-92858571D01*
X160302380Y-92953809D01*
X160302380Y-93049047D01*
X160254761Y-93144285D01*
X160207142Y-93191904D01*
X160111904Y-93239523D01*
X159921428Y-93287142D01*
X159683333Y-93287142D01*
X159492857Y-93239523D01*
X159397619Y-93191904D01*
X159350000Y-93144285D01*
X159302380Y-93049047D01*
X209764761Y-92417619D02*
X209669523Y-92370000D01*
X209574285Y-92274761D01*
X209431428Y-92131904D01*
X209336190Y-92084285D01*
X209240952Y-92084285D01*
X209288571Y-92322380D02*
X209193333Y-92274761D01*
X209098095Y-92179523D01*
X209050476Y-91989047D01*
X209050476Y-91655714D01*
X209098095Y-91465238D01*
X209193333Y-91370000D01*
X209288571Y-91322380D01*
X209479047Y-91322380D01*
X209574285Y-91370000D01*
X209669523Y-91465238D01*
X209717142Y-91655714D01*
X209717142Y-91989047D01*
X209669523Y-92179523D01*
X209574285Y-92274761D01*
X209479047Y-92322380D01*
X209288571Y-92322380D01*
X210669523Y-92322380D02*
X210098095Y-92322380D01*
X210383809Y-92322380D02*
X210383809Y-91322380D01*
X210288571Y-91465238D01*
X210193333Y-91560476D01*
X210098095Y-91608095D01*
X214768333Y-93167380D02*
X214435000Y-92691190D01*
X214196904Y-93167380D02*
X214196904Y-92167380D01*
X214577857Y-92167380D01*
X214673095Y-92215000D01*
X214720714Y-92262619D01*
X214768333Y-92357857D01*
X214768333Y-92500714D01*
X214720714Y-92595952D01*
X214673095Y-92643571D01*
X214577857Y-92691190D01*
X214196904Y-92691190D01*
X215720714Y-93167380D02*
X215149285Y-93167380D01*
X215435000Y-93167380D02*
X215435000Y-92167380D01*
X215339761Y-92310238D01*
X215244523Y-92405476D01*
X215149285Y-92453095D01*
X76973333Y-93167380D02*
X76640000Y-92691190D01*
X76401904Y-93167380D02*
X76401904Y-92167380D01*
X76782857Y-92167380D01*
X76878095Y-92215000D01*
X76925714Y-92262619D01*
X76973333Y-92357857D01*
X76973333Y-92500714D01*
X76925714Y-92595952D01*
X76878095Y-92643571D01*
X76782857Y-92691190D01*
X76401904Y-92691190D01*
X77354285Y-92262619D02*
X77401904Y-92215000D01*
X77497142Y-92167380D01*
X77735238Y-92167380D01*
X77830476Y-92215000D01*
X77878095Y-92262619D01*
X77925714Y-92357857D01*
X77925714Y-92453095D01*
X77878095Y-92595952D01*
X77306666Y-93167380D01*
X77925714Y-93167380D01*
X76973333Y-98247380D02*
X76640000Y-97771190D01*
X76401904Y-98247380D02*
X76401904Y-97247380D01*
X76782857Y-97247380D01*
X76878095Y-97295000D01*
X76925714Y-97342619D01*
X76973333Y-97437857D01*
X76973333Y-97580714D01*
X76925714Y-97675952D01*
X76878095Y-97723571D01*
X76782857Y-97771190D01*
X76401904Y-97771190D01*
X77306666Y-97247380D02*
X77925714Y-97247380D01*
X77592380Y-97628333D01*
X77735238Y-97628333D01*
X77830476Y-97675952D01*
X77878095Y-97723571D01*
X77925714Y-97818809D01*
X77925714Y-98056904D01*
X77878095Y-98152142D01*
X77830476Y-98199761D01*
X77735238Y-98247380D01*
X77449523Y-98247380D01*
X77354285Y-98199761D01*
X77306666Y-98152142D01*
X84593333Y-118547380D02*
X84260000Y-118071190D01*
X84021904Y-118547380D02*
X84021904Y-117547380D01*
X84402857Y-117547380D01*
X84498095Y-117595000D01*
X84545714Y-117642619D01*
X84593333Y-117737857D01*
X84593333Y-117880714D01*
X84545714Y-117975952D01*
X84498095Y-118023571D01*
X84402857Y-118071190D01*
X84021904Y-118071190D01*
X85450476Y-117880714D02*
X85450476Y-118547380D01*
X85212380Y-117499761D02*
X84974285Y-118214047D01*
X85593333Y-118214047D01*
X76973333Y-138847380D02*
X76640000Y-138371190D01*
X76401904Y-138847380D02*
X76401904Y-137847380D01*
X76782857Y-137847380D01*
X76878095Y-137895000D01*
X76925714Y-137942619D01*
X76973333Y-138037857D01*
X76973333Y-138180714D01*
X76925714Y-138275952D01*
X76878095Y-138323571D01*
X76782857Y-138371190D01*
X76401904Y-138371190D01*
X77878095Y-137847380D02*
X77401904Y-137847380D01*
X77354285Y-138323571D01*
X77401904Y-138275952D01*
X77497142Y-138228333D01*
X77735238Y-138228333D01*
X77830476Y-138275952D01*
X77878095Y-138323571D01*
X77925714Y-138418809D01*
X77925714Y-138656904D01*
X77878095Y-138752142D01*
X77830476Y-138799761D01*
X77735238Y-138847380D01*
X77497142Y-138847380D01*
X77401904Y-138799761D01*
X77354285Y-138752142D01*
X145873333Y-138847380D02*
X145540000Y-138371190D01*
X145301904Y-138847380D02*
X145301904Y-137847380D01*
X145682857Y-137847380D01*
X145778095Y-137895000D01*
X145825714Y-137942619D01*
X145873333Y-138037857D01*
X145873333Y-138180714D01*
X145825714Y-138275952D01*
X145778095Y-138323571D01*
X145682857Y-138371190D01*
X145301904Y-138371190D01*
X146730476Y-137847380D02*
X146540000Y-137847380D01*
X146444761Y-137895000D01*
X146397142Y-137942619D01*
X146301904Y-138085476D01*
X146254285Y-138275952D01*
X146254285Y-138656904D01*
X146301904Y-138752142D01*
X146349523Y-138799761D01*
X146444761Y-138847380D01*
X146635238Y-138847380D01*
X146730476Y-138799761D01*
X146778095Y-138752142D01*
X146825714Y-138656904D01*
X146825714Y-138418809D01*
X146778095Y-138323571D01*
X146730476Y-138275952D01*
X146635238Y-138228333D01*
X146444761Y-138228333D01*
X146349523Y-138275952D01*
X146301904Y-138323571D01*
X146254285Y-138418809D01*
X153493333Y-118547380D02*
X153160000Y-118071190D01*
X152921904Y-118547380D02*
X152921904Y-117547380D01*
X153302857Y-117547380D01*
X153398095Y-117595000D01*
X153445714Y-117642619D01*
X153493333Y-117737857D01*
X153493333Y-117880714D01*
X153445714Y-117975952D01*
X153398095Y-118023571D01*
X153302857Y-118071190D01*
X152921904Y-118071190D01*
X153826666Y-117547380D02*
X154493333Y-117547380D01*
X154064761Y-118547380D01*
X145873333Y-98247380D02*
X145540000Y-97771190D01*
X145301904Y-98247380D02*
X145301904Y-97247380D01*
X145682857Y-97247380D01*
X145778095Y-97295000D01*
X145825714Y-97342619D01*
X145873333Y-97437857D01*
X145873333Y-97580714D01*
X145825714Y-97675952D01*
X145778095Y-97723571D01*
X145682857Y-97771190D01*
X145301904Y-97771190D01*
X146444761Y-97675952D02*
X146349523Y-97628333D01*
X146301904Y-97580714D01*
X146254285Y-97485476D01*
X146254285Y-97437857D01*
X146301904Y-97342619D01*
X146349523Y-97295000D01*
X146444761Y-97247380D01*
X146635238Y-97247380D01*
X146730476Y-97295000D01*
X146778095Y-97342619D01*
X146825714Y-97437857D01*
X146825714Y-97485476D01*
X146778095Y-97580714D01*
X146730476Y-97628333D01*
X146635238Y-97675952D01*
X146444761Y-97675952D01*
X146349523Y-97723571D01*
X146301904Y-97771190D01*
X146254285Y-97866428D01*
X146254285Y-98056904D01*
X146301904Y-98152142D01*
X146349523Y-98199761D01*
X146444761Y-98247380D01*
X146635238Y-98247380D01*
X146730476Y-98199761D01*
X146778095Y-98152142D01*
X146825714Y-98056904D01*
X146825714Y-97866428D01*
X146778095Y-97771190D01*
X146730476Y-97723571D01*
X146635238Y-97675952D01*
X214773333Y-98247380D02*
X214440000Y-97771190D01*
X214201904Y-98247380D02*
X214201904Y-97247380D01*
X214582857Y-97247380D01*
X214678095Y-97295000D01*
X214725714Y-97342619D01*
X214773333Y-97437857D01*
X214773333Y-97580714D01*
X214725714Y-97675952D01*
X214678095Y-97723571D01*
X214582857Y-97771190D01*
X214201904Y-97771190D01*
X215249523Y-98247380D02*
X215440000Y-98247380D01*
X215535238Y-98199761D01*
X215582857Y-98152142D01*
X215678095Y-98009285D01*
X215725714Y-97818809D01*
X215725714Y-97437857D01*
X215678095Y-97342619D01*
X215630476Y-97295000D01*
X215535238Y-97247380D01*
X215344761Y-97247380D01*
X215249523Y-97295000D01*
X215201904Y-97342619D01*
X215154285Y-97437857D01*
X215154285Y-97675952D01*
X215201904Y-97771190D01*
X215249523Y-97818809D01*
X215344761Y-97866428D01*
X215535238Y-97866428D01*
X215630476Y-97818809D01*
X215678095Y-97771190D01*
X215725714Y-97675952D01*
X221917142Y-118547380D02*
X221583809Y-118071190D01*
X221345714Y-118547380D02*
X221345714Y-117547380D01*
X221726666Y-117547380D01*
X221821904Y-117595000D01*
X221869523Y-117642619D01*
X221917142Y-117737857D01*
X221917142Y-117880714D01*
X221869523Y-117975952D01*
X221821904Y-118023571D01*
X221726666Y-118071190D01*
X221345714Y-118071190D01*
X222869523Y-118547380D02*
X222298095Y-118547380D01*
X222583809Y-118547380D02*
X222583809Y-117547380D01*
X222488571Y-117690238D01*
X222393333Y-117785476D01*
X222298095Y-117833095D01*
X223488571Y-117547380D02*
X223583809Y-117547380D01*
X223679047Y-117595000D01*
X223726666Y-117642619D01*
X223774285Y-117737857D01*
X223821904Y-117928333D01*
X223821904Y-118166428D01*
X223774285Y-118356904D01*
X223726666Y-118452142D01*
X223679047Y-118499761D01*
X223583809Y-118547380D01*
X223488571Y-118547380D01*
X223393333Y-118499761D01*
X223345714Y-118452142D01*
X223298095Y-118356904D01*
X223250476Y-118166428D01*
X223250476Y-117928333D01*
X223298095Y-117737857D01*
X223345714Y-117642619D01*
X223393333Y-117595000D01*
X223488571Y-117547380D01*
X166812380Y-113032857D02*
X166336190Y-113366190D01*
X166812380Y-113604285D02*
X165812380Y-113604285D01*
X165812380Y-113223333D01*
X165860000Y-113128095D01*
X165907619Y-113080476D01*
X166002857Y-113032857D01*
X166145714Y-113032857D01*
X166240952Y-113080476D01*
X166288571Y-113128095D01*
X166336190Y-113223333D01*
X166336190Y-113604285D01*
X166812380Y-112080476D02*
X166812380Y-112651904D01*
X166812380Y-112366190D02*
X165812380Y-112366190D01*
X165955238Y-112461428D01*
X166050476Y-112556666D01*
X166098095Y-112651904D01*
X166812380Y-111128095D02*
X166812380Y-111699523D01*
X166812380Y-111413809D02*
X165812380Y-111413809D01*
X165955238Y-111509047D01*
X166050476Y-111604285D01*
X166098095Y-111699523D01*
X166812380Y-107952857D02*
X166336190Y-108286190D01*
X166812380Y-108524285D02*
X165812380Y-108524285D01*
X165812380Y-108143333D01*
X165860000Y-108048095D01*
X165907619Y-108000476D01*
X166002857Y-107952857D01*
X166145714Y-107952857D01*
X166240952Y-108000476D01*
X166288571Y-108048095D01*
X166336190Y-108143333D01*
X166336190Y-108524285D01*
X166812380Y-107000476D02*
X166812380Y-107571904D01*
X166812380Y-107286190D02*
X165812380Y-107286190D01*
X165955238Y-107381428D01*
X166050476Y-107476666D01*
X166098095Y-107571904D01*
X165907619Y-106619523D02*
X165860000Y-106571904D01*
X165812380Y-106476666D01*
X165812380Y-106238571D01*
X165860000Y-106143333D01*
X165907619Y-106095714D01*
X166002857Y-106048095D01*
X166098095Y-106048095D01*
X166240952Y-106095714D01*
X166812380Y-106667142D01*
X166812380Y-106048095D01*
X214297142Y-138847380D02*
X213963809Y-138371190D01*
X213725714Y-138847380D02*
X213725714Y-137847380D01*
X214106666Y-137847380D01*
X214201904Y-137895000D01*
X214249523Y-137942619D01*
X214297142Y-138037857D01*
X214297142Y-138180714D01*
X214249523Y-138275952D01*
X214201904Y-138323571D01*
X214106666Y-138371190D01*
X213725714Y-138371190D01*
X215249523Y-138847380D02*
X214678095Y-138847380D01*
X214963809Y-138847380D02*
X214963809Y-137847380D01*
X214868571Y-137990238D01*
X214773333Y-138085476D01*
X214678095Y-138133095D01*
X215582857Y-137847380D02*
X216201904Y-137847380D01*
X215868571Y-138228333D01*
X216011428Y-138228333D01*
X216106666Y-138275952D01*
X216154285Y-138323571D01*
X216201904Y-138418809D01*
X216201904Y-138656904D01*
X216154285Y-138752142D01*
X216106666Y-138799761D01*
X216011428Y-138847380D01*
X215725714Y-138847380D01*
X215630476Y-138799761D01*
X215582857Y-138752142D01*
X80432142Y-105222380D02*
X80098809Y-104746190D01*
X79860714Y-105222380D02*
X79860714Y-104222380D01*
X80241666Y-104222380D01*
X80336904Y-104270000D01*
X80384523Y-104317619D01*
X80432142Y-104412857D01*
X80432142Y-104555714D01*
X80384523Y-104650952D01*
X80336904Y-104698571D01*
X80241666Y-104746190D01*
X79860714Y-104746190D01*
X81384523Y-105222380D02*
X80813095Y-105222380D01*
X81098809Y-105222380D02*
X81098809Y-104222380D01*
X81003571Y-104365238D01*
X80908333Y-104460476D01*
X80813095Y-104508095D01*
X82241666Y-104555714D02*
X82241666Y-105222380D01*
X82003571Y-104174761D02*
X81765476Y-104889047D01*
X82384523Y-104889047D01*
X78352380Y-110492857D02*
X77876190Y-110826190D01*
X78352380Y-111064285D02*
X77352380Y-111064285D01*
X77352380Y-110683333D01*
X77400000Y-110588095D01*
X77447619Y-110540476D01*
X77542857Y-110492857D01*
X77685714Y-110492857D01*
X77780952Y-110540476D01*
X77828571Y-110588095D01*
X77876190Y-110683333D01*
X77876190Y-111064285D01*
X78352380Y-109540476D02*
X78352380Y-110111904D01*
X78352380Y-109826190D02*
X77352380Y-109826190D01*
X77495238Y-109921428D01*
X77590476Y-110016666D01*
X77638095Y-110111904D01*
X77352380Y-108635714D02*
X77352380Y-109111904D01*
X77828571Y-109159523D01*
X77780952Y-109111904D01*
X77733333Y-109016666D01*
X77733333Y-108778571D01*
X77780952Y-108683333D01*
X77828571Y-108635714D01*
X77923809Y-108588095D01*
X78161904Y-108588095D01*
X78257142Y-108635714D01*
X78304761Y-108683333D01*
X78352380Y-108778571D01*
X78352380Y-109016666D01*
X78304761Y-109111904D01*
X78257142Y-109159523D01*
X221917142Y-128707380D02*
X221583809Y-128231190D01*
X221345714Y-128707380D02*
X221345714Y-127707380D01*
X221726666Y-127707380D01*
X221821904Y-127755000D01*
X221869523Y-127802619D01*
X221917142Y-127897857D01*
X221917142Y-128040714D01*
X221869523Y-128135952D01*
X221821904Y-128183571D01*
X221726666Y-128231190D01*
X221345714Y-128231190D01*
X222869523Y-128707380D02*
X222298095Y-128707380D01*
X222583809Y-128707380D02*
X222583809Y-127707380D01*
X222488571Y-127850238D01*
X222393333Y-127945476D01*
X222298095Y-127993095D01*
X223726666Y-127707380D02*
X223536190Y-127707380D01*
X223440952Y-127755000D01*
X223393333Y-127802619D01*
X223298095Y-127945476D01*
X223250476Y-128135952D01*
X223250476Y-128516904D01*
X223298095Y-128612142D01*
X223345714Y-128659761D01*
X223440952Y-128707380D01*
X223631428Y-128707380D01*
X223726666Y-128659761D01*
X223774285Y-128612142D01*
X223821904Y-128516904D01*
X223821904Y-128278809D01*
X223774285Y-128183571D01*
X223726666Y-128135952D01*
X223631428Y-128088333D01*
X223440952Y-128088333D01*
X223345714Y-128135952D01*
X223298095Y-128183571D01*
X223250476Y-128278809D01*
X80432142Y-115382380D02*
X80098809Y-114906190D01*
X79860714Y-115382380D02*
X79860714Y-114382380D01*
X80241666Y-114382380D01*
X80336904Y-114430000D01*
X80384523Y-114477619D01*
X80432142Y-114572857D01*
X80432142Y-114715714D01*
X80384523Y-114810952D01*
X80336904Y-114858571D01*
X80241666Y-114906190D01*
X79860714Y-114906190D01*
X81384523Y-115382380D02*
X80813095Y-115382380D01*
X81098809Y-115382380D02*
X81098809Y-114382380D01*
X81003571Y-114525238D01*
X80908333Y-114620476D01*
X80813095Y-114668095D01*
X81717857Y-114382380D02*
X82384523Y-114382380D01*
X81955952Y-115382380D01*
M02*
