M48
;DRILL file {KiCad (5.0.0-rc2-dev-733-g23a9fcd91)} date 05/26/18 11:47:13
;FORMAT={-:-/ absolute / inch / decimal}
FMAT,2
INCH,TZ
T1C0.0157
T2C0.0236
T3C0.0315
T4C0.0394
T5C0.2165
%
G90
G05
M72
T1
X3.2618Y-5.065
X3.2815Y-5.0256
X3.498Y-5.0748
X3.5177Y-5.0354
X3.6791Y-4.1339
X5.5418Y-3.7295
X5.5453Y-4.187
X5.5846Y-4.187
X5.7028Y-4.4724
X5.7028Y-4.5315
X5.7387Y-3.7295
X5.8209Y-4.0984
X5.8209Y-4.5217
X5.8406Y-4.2559
X5.8799Y-4.4626
X5.9355Y-3.7295
X5.9587Y-4.1476
X5.9587Y-4.1969
X5.9587Y-4.2362
X5.9783Y-4.3445
X6.0965Y-4.2264
X6.0965Y-4.2657
X6.1161Y-4.187
X6.1752Y-4.1476
X6.1949Y-3.7736
X6.2539Y-4.2362
X6.2539Y-4.4823
X6.372Y-4.2067
X6.4114Y-4.1476
X6.4508Y-4.1181
X6.5492Y-4.315
X6.5492Y-4.3642
X6.5886Y-4.2854
X6.6083Y-4.2165
X6.628Y-4.1772
X6.628Y-4.2559
T2
X3.8986Y-5.5236
X3.9458Y-5.4084
X3.9458Y-5.6389
X4.061Y-5.3612
X4.061Y-5.686
X4.1763Y-5.4084
X4.1763Y-5.6389
X4.2234Y-5.5236
X4.8632Y-5.5236
X4.9104Y-5.4084
X4.9104Y-5.6389
X5.0256Y-5.3612
X5.0256Y-5.686
X5.1408Y-5.4084
X5.1408Y-5.6389
X5.188Y-5.5236
X9.3238Y-3.9252
X9.3238Y-4.7244
X9.371Y-3.81
X9.371Y-4.0404
X9.371Y-4.6092
X9.371Y-4.8396
X9.4862Y-3.7628
X9.4862Y-4.0876
X9.4862Y-4.562
X9.4862Y-4.8868
X9.6014Y-3.81
X9.6014Y-4.0404
X9.6014Y-4.6092
X9.6014Y-4.8396
X9.6486Y-3.9252
X9.6486Y-4.7244
X6.6112Y-3.9252
X6.6584Y-3.81
X6.6584Y-4.0404
X6.7736Y-3.7628
X6.7736Y-4.0876
X6.8889Y-3.81
X6.8889Y-4.0404
X6.936Y-3.9252
X7.5758Y-3.9252
X7.623Y-3.81
X7.623Y-4.0404
X7.7382Y-3.7628
X7.7382Y-4.0876
X7.8534Y-3.81
X7.8534Y-4.0404
X7.9006Y-3.9252
X6.6112Y-4.7244
X6.6112Y-5.5236
X6.6584Y-4.6092
X6.6584Y-4.8396
X6.6584Y-5.4084
X6.6584Y-5.6389
X6.7736Y-4.562
X6.7736Y-4.8868
X6.7736Y-5.3612
X6.7736Y-5.686
X6.8889Y-4.6092
X6.8889Y-4.8396
X6.8889Y-5.4084
X6.8889Y-5.6389
X6.936Y-4.7244
X6.936Y-5.5236
X9.3238Y-5.5236
X9.371Y-5.4084
X9.371Y-5.6389
X9.4862Y-5.3612
X9.4862Y-5.686
X9.6014Y-5.4084
X9.6014Y-5.6389
X9.6486Y-5.5236
X4.8632Y-3.9252
X4.8632Y-4.7244
X4.9104Y-3.81
X4.9104Y-4.0404
X4.9104Y-4.6092
X4.9104Y-4.8396
X5.0256Y-3.7628
X5.0256Y-4.0876
X5.0256Y-4.562
X5.0256Y-4.8868
X5.1408Y-3.81
X5.1408Y-4.0404
X5.1408Y-4.6092
X5.1408Y-4.8396
X5.188Y-3.9252
X5.188Y-4.7244
X2.1506Y-4.7244
X2.1506Y-5.5236
X2.1978Y-4.6092
X2.1978Y-4.8396
X2.1978Y-5.4084
X2.1978Y-5.6389
X2.313Y-4.562
X2.313Y-4.8868
X2.313Y-5.3612
X2.313Y-5.686
X2.4282Y-4.6092
X2.4282Y-4.8396
X2.4282Y-5.4084
X2.4282Y-5.6389
X2.4754Y-4.7244
X2.4754Y-5.5236
X7.5758Y-4.7244
X7.5758Y-5.5236
X7.623Y-4.6092
X7.623Y-4.8396
X7.623Y-5.4084
X7.623Y-5.6389
X7.7382Y-4.562
X7.7382Y-4.8868
X7.7382Y-5.3612
X7.7382Y-5.686
X7.8534Y-4.6092
X7.8534Y-4.8396
X7.8534Y-5.4084
X7.8534Y-5.6389
X7.9006Y-4.7244
X7.9006Y-5.5236
X3.8986Y-3.9252
X3.8986Y-4.7244
X3.9458Y-3.81
X3.9458Y-4.0404
X3.9458Y-4.6092
X3.9458Y-4.8396
X4.061Y-3.7628
X4.061Y-4.0876
X4.061Y-4.562
X4.061Y-4.8868
X4.1763Y-3.81
X4.1763Y-4.0404
X4.1763Y-4.6092
X4.1763Y-4.8396
X4.2234Y-3.9252
X4.2234Y-4.7244
X2.1506Y-3.9252
X2.1978Y-3.81
X2.1978Y-4.0404
X2.313Y-3.7628
X2.313Y-4.0876
X2.4282Y-3.81
X2.4282Y-4.0404
X2.4754Y-3.9252
T3
X2.687Y-5.5236
X2.712Y-3.9252
X3.6762Y-4.723
X5.3996Y-5.5236
X5.4066Y-3.9252
X6.3996Y-4.7252
X8.1122Y-5.5236
X8.1299Y-3.9469
X9.1122Y-4.7244
X9.1122Y-5.124
T4
X2.8146Y-4.9469
X2.8146Y-5.3012
X2.8917Y-5.065
X2.8917Y-5.1831
X3.187Y-3.8752
X3.187Y-3.9752
X8.6122Y-4.6744
X8.6122Y-4.7744
X5.8996Y-3.8752
X5.8996Y-3.9752
X5.8996Y-5.4736
X5.8996Y-5.5736
X3.187Y-5.4736
X3.187Y-5.5736
X8.6122Y-5.4736
X8.6122Y-5.5736
X5.8996Y-4.6744
X5.8996Y-4.7744
X3.187Y-4.6744
X3.187Y-4.7744
X8.6122Y-3.8752
X8.6122Y-3.9752
X2.8146Y-4.1476
X2.8146Y-4.502
X2.8917Y-4.2657
X2.8917Y-4.3839
T5
X6.7736Y-4.7244
X6.7736Y-5.5236
X9.4862Y-5.5236
X5.0256Y-3.9252
X5.0256Y-4.7244
X2.313Y-4.7244
X2.313Y-5.5236
X7.7382Y-4.7244
X7.7382Y-5.5236
X4.061Y-3.9252
X4.061Y-4.7244
X2.313Y-3.9252
X4.061Y-5.5236
X5.0256Y-5.5236
X9.4862Y-3.9252
X9.4862Y-4.7244
X6.7736Y-3.9252
X7.7382Y-3.9252
T0
M30
