%TF.GenerationSoftware,KiCad,Pcbnew,(5.0.0-rc2-dev-632-g76d3b6f04)*%
%TF.CreationDate,2018-06-22T22:14:38+02:00*%
%TF.ProjectId,MainBoard,4D61696E426F6172642E6B696361645F,rev?*%
%TF.SameCoordinates,Original*%
%TF.FileFunction,Soldermask,Bot*%
%TF.FilePolarity,Negative*%
%FSLAX46Y46*%
G04 Gerber Fmt 4.6, Leading zero omitted, Abs format (unit mm)*
G04 Created by KiCad (PCBNEW (5.0.0-rc2-dev-632-g76d3b6f04)) date 06/22/18 22:14:38*
%MOMM*%
%LPD*%
G01*
G04 APERTURE LIST*
%ADD10C,0.200000*%
%ADD11C,1.000000*%
%ADD12R,2.000000X1.500000*%
%ADD13O,2.000000X1.500000*%
%ADD14C,3.500000*%
%ADD15C,2.500000*%
%ADD16O,1.700000X1.700000*%
%ADD17C,1.700000*%
%ADD18R,1.700000X1.700000*%
%ADD19C,1.524000*%
%ADD20C,6.000000*%
%ADD21C,4.300000*%
%ADD22R,0.970000X1.500000*%
%ADD23R,1.500000X0.970000*%
%ADD24R,0.900000X1.200000*%
%ADD25R,1.500000X2.000000*%
%ADD26O,1.500000X2.000000*%
%ADD27R,1.500000X1.500000*%
%ADD28C,1.500000*%
%ADD29R,3.700000X3.700000*%
%ADD30C,3.700000*%
%ADD31C,1.800000*%
%ADD32R,1.900000X1.900000*%
%ADD33R,1.070000X2.700000*%
%ADD34R,1.170000X3.400000*%
%ADD35R,0.900000X0.800000*%
G04 APERTURE END LIST*
D10*
X141000000Y-81500000D02*
X148500000Y-81500000D01*
X141000000Y-80500000D02*
X148500000Y-80500000D01*
X148500000Y-80500000D02*
G75*
G02X148500000Y-81500000I0J-500000D01*
G01*
X141000000Y-81500000D02*
G75*
G02X141000000Y-80500000I0J500000D01*
G01*
X139500000Y-71000000D02*
X139500000Y-79000000D01*
X138500000Y-71000000D02*
X138500000Y-79000000D01*
X139500000Y-79000000D02*
G75*
G02X138500000Y-79000000I-500000J0D01*
G01*
X138500000Y-71000000D02*
G75*
G02X139500000Y-71000000I500000J0D01*
G01*
X151500000Y-69500000D02*
X159500000Y-69500000D01*
X151500000Y-68500000D02*
X159500000Y-68500000D01*
X141000000Y-69500000D02*
X148500000Y-69500000D01*
X141000000Y-68500000D02*
X148500000Y-68500000D01*
X151500000Y-69500000D02*
G75*
G02X151500000Y-68500000I0J500000D01*
G01*
X148500000Y-68500000D02*
G75*
G02X148500000Y-69500000I0J-500000D01*
G01*
X159500000Y-68500000D02*
G75*
G02X159500000Y-69500000I0J-500000D01*
G01*
X141000000Y-69500000D02*
G75*
G02X141000000Y-68500000I0J500000D01*
G01*
X264000000Y-84000000D02*
X265000000Y-84000000D01*
X266500000Y-82500000D02*
X266500000Y-78500000D01*
X266500000Y-82500000D02*
G75*
G02X265000000Y-84000000I-1500000J0D01*
G01*
X265500000Y-82500000D02*
G75*
G02X265000000Y-83000000I-500000J0D01*
G01*
X260000000Y-84000000D02*
X261000000Y-84000000D01*
X258500000Y-78500000D02*
X258500000Y-82500000D01*
X260000000Y-84000000D02*
G75*
G02X258500000Y-82500000I0J1500000D01*
G01*
X265000000Y-83000000D02*
X264000000Y-83000000D01*
X265500000Y-78500000D02*
X265500000Y-82500000D01*
X265500000Y-78500000D02*
G75*
G02X266500000Y-78500000I500000J0D01*
G01*
X264000000Y-84000000D02*
G75*
G02X264000000Y-83000000I0J500000D01*
G01*
X260000000Y-83000000D02*
X261000000Y-83000000D01*
X259500000Y-78500000D02*
X259500000Y-82500000D01*
X260000000Y-83000000D02*
G75*
G02X259500000Y-82500000I0J500000D01*
G01*
X261000000Y-83000000D02*
G75*
G02X261000000Y-84000000I0J-500000D01*
G01*
X258500000Y-78500000D02*
G75*
G02X259500000Y-78500000I500000J0D01*
G01*
X72500000Y-106000000D02*
G75*
G02X75000000Y-108500000I0J-2500000D01*
G01*
X75000000Y-108500000D02*
X75000000Y-117500000D01*
X-22500000Y-106000000D02*
X72500000Y-106000000D01*
X6000000Y-86000000D02*
G75*
G03X6000000Y-86000000I-11000000J0D01*
G01*
X-25000000Y-62500000D02*
G75*
G02X-22500000Y-60000000I2500000J0D01*
G01*
X-22500000Y-106000000D02*
G75*
G02X-25000000Y-103500000I0J2500000D01*
G01*
X-25000000Y-62500000D02*
X-25000000Y-103500000D01*
X-22500000Y-60000000D02*
X337500000Y-60000000D01*
X337500000Y-60000000D02*
G75*
G02X340000000Y-62500000I0J-2500000D01*
G01*
X340000000Y-117500000D02*
G75*
G02X337500000Y-120000000I-2500000J0D01*
G01*
X77500000Y-120000000D02*
G75*
G02X75000000Y-117500000I0J2500000D01*
G01*
X337500000Y-120000000D02*
X77500000Y-120000000D01*
X340000000Y-62500000D02*
X340000000Y-117500000D01*
D11*
X69460000Y-84500000D03*
X69460000Y-93500000D03*
D12*
X67500000Y-87500000D03*
D13*
X67500000Y-90500000D03*
D14*
X289075000Y-115000000D03*
X299275000Y-115000000D03*
D15*
X303225000Y-110400000D03*
X285125000Y-110400000D03*
D14*
X262400000Y-115000000D03*
X272600000Y-115000000D03*
D15*
X276550000Y-110400000D03*
X258450000Y-110400000D03*
D16*
X181500000Y-112181000D03*
D17*
X178500000Y-112181000D03*
D16*
X193000000Y-112181000D03*
D17*
X190000000Y-112181000D03*
D18*
X82821000Y-100500000D03*
D16*
X82821000Y-97500000D03*
X82821000Y-94500000D03*
X82821000Y-91500000D03*
X82821000Y-88500000D03*
X82821000Y-85500000D03*
X82821000Y-82500000D03*
X82821000Y-79500000D03*
D19*
X18620000Y-86000000D03*
X16080000Y-86000000D03*
X13540000Y-86000000D03*
X11000000Y-86000000D03*
D20*
X-21500000Y-69500000D03*
X-21500000Y-102500000D03*
X11500000Y-102500000D03*
X11500000Y-69500000D03*
D21*
X80000000Y-65000000D03*
X80000000Y-115000000D03*
X210000000Y-65000000D03*
X210000000Y-115000000D03*
D22*
X166545000Y-85000000D03*
X168455000Y-85000000D03*
X168455000Y-90000000D03*
X166545000Y-90000000D03*
D23*
X17350000Y-83155000D03*
X17350000Y-81245000D03*
X14810000Y-83155000D03*
X14810000Y-81245000D03*
X12270000Y-81245000D03*
X12270000Y-83155000D03*
D22*
X107795000Y-65000000D03*
X109705000Y-65000000D03*
D23*
X147500000Y-85955000D03*
X147500000Y-84045000D03*
D24*
X233350000Y-102500000D03*
X236650000Y-102500000D03*
D11*
X269500000Y-83040000D03*
X278500000Y-83040000D03*
D25*
X272500000Y-85000000D03*
D26*
X275500000Y-85000000D03*
D18*
X222500000Y-87420000D03*
D16*
X222500000Y-89960000D03*
X222500000Y-92500000D03*
X222500000Y-95040000D03*
X222500000Y-97580000D03*
D11*
X30060000Y-66500000D03*
X30060000Y-93500000D03*
D27*
X34000000Y-69500000D03*
D28*
X34000000Y-72500000D03*
X34000000Y-75500000D03*
X34000000Y-78500000D03*
X34000000Y-81500000D03*
X34000000Y-84500000D03*
X34000000Y-87500000D03*
X34000000Y-90500000D03*
X31000000Y-69500000D03*
X31000000Y-72500000D03*
X31000000Y-75500000D03*
X31000000Y-78500000D03*
X31000000Y-81500000D03*
X31000000Y-84500000D03*
X31000000Y-87500000D03*
X31000000Y-90500000D03*
D13*
X50000000Y-90500000D03*
D12*
X50000000Y-87500000D03*
D11*
X51960000Y-93500000D03*
X51960000Y-84500000D03*
D26*
X320000000Y-85000000D03*
D25*
X317000000Y-85000000D03*
D11*
X323000000Y-83040000D03*
X314000000Y-83040000D03*
D29*
X299100000Y-85000000D03*
D30*
X299100000Y-90700000D03*
X293400000Y-85000000D03*
X293400000Y-90700000D03*
D31*
X290630000Y-93180000D03*
D32*
X224850000Y-103650000D03*
X245150000Y-103650000D03*
X221030000Y-116350000D03*
X248970000Y-116350000D03*
D23*
X22500000Y-87545000D03*
X22500000Y-89455000D03*
X22500000Y-82545000D03*
X22500000Y-84455000D03*
D22*
X97795000Y-95000000D03*
X99705000Y-95000000D03*
X89705000Y-95000000D03*
X87795000Y-95000000D03*
X107795000Y-80000000D03*
X109705000Y-80000000D03*
X89705000Y-65000000D03*
X87795000Y-65000000D03*
X129705000Y-72500000D03*
X127795000Y-72500000D03*
X127795000Y-65000000D03*
X129705000Y-65000000D03*
X127795000Y-80000000D03*
X129705000Y-80000000D03*
X99705000Y-65000000D03*
X97795000Y-65000000D03*
X107795000Y-72500000D03*
X109705000Y-72500000D03*
X119705000Y-65000000D03*
X117795000Y-65000000D03*
X117795000Y-72500000D03*
X119705000Y-72500000D03*
X97795000Y-72500000D03*
X99705000Y-72500000D03*
X89705000Y-80000000D03*
X87795000Y-80000000D03*
D23*
X152500000Y-85955000D03*
X152500000Y-84045000D03*
D22*
X89705000Y-72500000D03*
X87795000Y-72500000D03*
X117795000Y-80000000D03*
X119705000Y-80000000D03*
X97795000Y-80000000D03*
X99705000Y-80000000D03*
X117795000Y-95000000D03*
X119705000Y-95000000D03*
X119705000Y-87500000D03*
X117795000Y-87500000D03*
X109705000Y-87500000D03*
X107795000Y-87500000D03*
X99705000Y-87500000D03*
X97795000Y-87500000D03*
X129705000Y-95000000D03*
X127795000Y-95000000D03*
X109705000Y-95000000D03*
X107795000Y-95000000D03*
X129705000Y-87500000D03*
X127795000Y-87500000D03*
X87795000Y-87500000D03*
X89705000Y-87500000D03*
D33*
X276505000Y-67500000D03*
X273495000Y-67500000D03*
D22*
X270955000Y-67500000D03*
X269045000Y-67500000D03*
D33*
X273495000Y-77500000D03*
X276505000Y-77500000D03*
D22*
X269045000Y-77500000D03*
X270955000Y-77500000D03*
D34*
X280505000Y-102500000D03*
X274495000Y-102500000D03*
D22*
X258455000Y-102500000D03*
X256545000Y-102500000D03*
D34*
X280505000Y-92500000D03*
X274495000Y-92500000D03*
X268005000Y-102500000D03*
X261995000Y-102500000D03*
X268005000Y-92500000D03*
X261995000Y-92500000D03*
D35*
X13810000Y-90760000D03*
X13810000Y-88860000D03*
X15810000Y-89810000D03*
D16*
X222500000Y-75715000D03*
X222500000Y-73175000D03*
X222500000Y-70635000D03*
D18*
X222500000Y-68095000D03*
M02*
