  0
SECTION
  2
HEADER
  9
$ANGBASE
  50
0.0
  9
$ANGDIR
  70
  1
  9
$MEASUREMENT
  70
0
  0
ENDSEC
  0
SECTION
  2
TABLES
  0
TABLE
  2
LTYPE
  70
4
  0
LTYPE
  5
40F
  2
CONTINUOUS
  70
0
  3
Solid line
  72
65
  73
0
  40
0.0
  0
LTYPE
  5
410
  2
DASHDOT
 70
0
  3
Dash Dot ____ _ ____ _
 72
65
 73
4
 40
2.0
 49
1.25
 49
-0.25
 49
0.25
 49
-0.25
  0
LTYPE
  5
411
  2
DASHED
 70
0
  3
Dashed __ __ __ __ __
 72
65
 73
2
 40
0.75
 49
0.5
 49
-0.25
  0
LTYPE
  5
43B
  2
DOTTED
 70
0
  3
Dotted .  .  .  .
 72
65
 73
2
 40
0.2
 49
0.0
 49
-0.2
  0
ENDTAB
  0
TABLE
  2
STYLE
  70
4
  0
STYLE
  2
KICAD
  70
0
  40
0
  41
1
  42
1
  50
0
  71
0
  3
isocp.shx
  0
STYLE
  2
KICADB
  70
0
  40
0
  41
1
  42
1
  50
0
  71
0
  3
isocp.shx
  0
STYLE
  2
KICADI
  70
0
  40
0
  41
1
  42
1
  50
15
  71
0
  3
isocp.shx
  0
STYLE
  2
KICADBI
  70
0
  40
0
  41
1
  42
1
  50
15
  71
0
  3
isocp.shx
  0
ENDTAB
  0
TABLE
  2
LAYER
  70
30
  0
LAYER
  2
BLACK
  70
0
  62
7
  6
CONTINUOUS
  0
LAYER
  2
GRAY1
  70
0
  62
251
  6
CONTINUOUS
  0
LAYER
  2
GRAY2
  70
0
  62
8
  6
CONTINUOUS
  0
LAYER
  2
GRAY3
  70
0
  62
9
  6
CONTINUOUS
  0
LAYER
  2
WHITE
  70
0
  62
7
  6
CONTINUOUS
  0
LAYER
  2
LYELLOW
  70
0
  62
51
  6
CONTINUOUS
  0
LAYER
  2
BLUE1
  70
0
  62
178
  6
CONTINUOUS
  0
LAYER
  2
GREEN1
  70
0
  62
98
  6
CONTINUOUS
  0
LAYER
  2
CYAN1
  70
0
  62
138
  6
CONTINUOUS
  0
LAYER
  2
RED1
  70
0
  62
18
  6
CONTINUOUS
  0
LAYER
  2
MAGENTA1
  70
0
  62
228
  6
CONTINUOUS
  0
LAYER
  2
BROWN1
  70
0
  62
58
  6
CONTINUOUS
  0
LAYER
  2
BLUE2
  70
0
  62
5
  6
CONTINUOUS
  0
LAYER
  2
GREEN2
  70
0
  62
3
  6
CONTINUOUS
  0
LAYER
  2
CYAN2
  70
0
  62
4
  6
CONTINUOUS
  0
LAYER
  2
RED2
  70
0
  62
1
  6
CONTINUOUS
  0
LAYER
  2
MAGENTA2
  70
0
  62
6
  6
CONTINUOUS
  0
LAYER
  2
BROWN2
  70
0
  62
54
  6
CONTINUOUS
  0
LAYER
  2
BLUE3
  70
0
  62
171
  6
CONTINUOUS
  0
LAYER
  2
GREEN3
  70
0
  62
91
  6
CONTINUOUS
  0
LAYER
  2
CYAN3
  70
0
  62
131
  6
CONTINUOUS
  0
LAYER
  2
RED3
  70
0
  62
11
  6
CONTINUOUS
  0
LAYER
  2
MAGENTA3
  70
0
  62
221
  6
CONTINUOUS
  0
LAYER
  2
YELLOW3
  70
0
  62
2
  6
CONTINUOUS
  0
LAYER
  2
BLUE4
  70
0
  62
5
  6
CONTINUOUS
  0
LAYER
  2
GREEN4
  70
0
  62
3
  6
CONTINUOUS
  0
LAYER
  2
CYAN4
  70
0
  62
4
  6
CONTINUOUS
  0
LAYER
  2
RED4
  70
0
  62
1
  6
CONTINUOUS
  0
LAYER
  2
MAGENTA4
  70
0
  62
6
  6
CONTINUOUS
  0
LAYER
  2
YELLOW4
  70
0
  62
2
  6
CONTINUOUS
  0
ENDTAB
  0
ENDSEC
  0
SECTION
  2
ENTITIES
0
LINE
8
BLACK
6
CONTINUOUS
10
330.3
20
-117.605
11
328.9
21
-117.605
0
LINE
8
BLACK
6
CONTINUOUS
10
328.9
20
-117.605
11
328.9
21
-103.405
0
LINE
8
BLACK
6
CONTINUOUS
10
328.9
20
-103.405
11
330.3
21
-103.405
0
LINE
8
BLACK
6
CONTINUOUS
10
330.3
20
-103.405
11
330.3
21
-117.605
0
LINE
8
BLACK
6
CONTINUOUS
10
316.1
20
-117.605
11
314.7
21
-117.605
0
LINE
8
BLACK
6
CONTINUOUS
10
314.7
20
-117.605
11
314.7
21
-103.405
0
LINE
8
BLACK
6
CONTINUOUS
10
314.7
20
-103.405
11
316.1
21
-103.405
0
LINE
8
BLACK
6
CONTINUOUS
10
316.1
20
-103.405
11
316.1
21
-117.605
0
LINE
8
BLACK
6
CONTINUOUS
10
335.75
20
-113.94
11
334.25
21
-113.94
0
LINE
8
BLACK
6
CONTINUOUS
10
334.25
20
-113.94
11
334.25
21
-112.97
0
LINE
8
BLACK
6
CONTINUOUS
10
334.25
20
-112.97
11
335.75
21
-112.97
0
LINE
8
BLACK
6
CONTINUOUS
10
335.75
20
-112.97
11
335.75
21
-113.94
0
LINE
8
BLACK
6
CONTINUOUS
10
328.1
20
-113.205
11
316.9
21
-113.205
0
LINE
8
BLACK
6
CONTINUOUS
10
316.9
20
-113.205
11
316.9
21
-103.405
0
LINE
8
BLACK
6
CONTINUOUS
10
316.9
20
-103.405
11
328.1
21
-103.405
0
LINE
8
BLACK
6
CONTINUOUS
10
328.1
20
-103.405
11
328.1
21
-113.205
0
LINE
8
BLACK
6
CONTINUOUS
10
102.95
20
-112.875
11
97.05
21
-112.875
0
LINE
8
BLACK
6
CONTINUOUS
10
97.05
20
-112.875
11
97.05
21
-107.125
0
LINE
8
BLACK
6
CONTINUOUS
10
97.05
20
-107.125
11
102.95
21
-107.125
0
LINE
8
BLACK
6
CONTINUOUS
10
102.95
20
-107.125
11
102.95
21
-112.875
0
LINE
8
BLACK
6
CONTINUOUS
10
120.45
20
-112.875
11
114.55
21
-112.875
0
LINE
8
BLACK
6
CONTINUOUS
10
114.55
20
-112.875
11
114.55
21
-107.125
0
LINE
8
BLACK
6
CONTINUOUS
10
114.55
20
-107.125
11
120.45
21
-107.125
0
LINE
8
BLACK
6
CONTINUOUS
10
120.45
20
-107.125
11
120.45
21
-112.875
0
LINE
8
BLACK
6
CONTINUOUS
10
335.75
20
-112.03
11
334.25
21
-112.03
0
LINE
8
BLACK
6
CONTINUOUS
10
334.25
20
-112.03
11
334.25
21
-111.06
0
LINE
8
BLACK
6
CONTINUOUS
10
334.25
20
-111.06
11
335.75
21
-111.06
0
LINE
8
BLACK
6
CONTINUOUS
10
335.75
20
-111.06
11
335.75
21
-112.03
0
LINE
8
BLACK
6
CONTINUOUS
10
336.35
20
-106.45
11
335.55
21
-106.45
0
LINE
8
BLACK
6
CONTINUOUS
10
335.55
20
-106.45
11
335.55
21
-105.55
0
LINE
8
BLACK
6
CONTINUOUS
10
335.55
20
-105.55
11
336.35
21
-105.55
0
LINE
8
BLACK
6
CONTINUOUS
10
336.35
20
-105.55
11
336.35
21
-106.45
0
LINE
8
BLACK
6
CONTINUOUS
10
334.45
20
-106.45
11
333.65
21
-106.45
0
LINE
8
BLACK
6
CONTINUOUS
10
333.65
20
-106.45
11
333.65
21
-105.55
0
LINE
8
BLACK
6
CONTINUOUS
10
333.65
20
-105.55
11
334.45
21
-105.55
0
LINE
8
BLACK
6
CONTINUOUS
10
334.45
20
-105.55
11
334.45
21
-106.45
0
LINE
8
BLACK
6
CONTINUOUS
10
102.985
20
-104.7
11
101.585
21
-104.7
0
LINE
8
BLACK
6
CONTINUOUS
10
101.585
20
-104.7
11
101.585
21
-102.3
0
LINE
8
BLACK
6
CONTINUOUS
10
101.585
20
-102.3
11
102.985
21
-102.3
0
LINE
8
BLACK
6
CONTINUOUS
10
102.985
20
-102.3
11
102.985
21
-104.7
0
LINE
8
BLACK
6
CONTINUOUS
10
98.415
20
-104.7
11
97.015
21
-104.7
0
LINE
8
BLACK
6
CONTINUOUS
10
97.015
20
-104.7
11
97.015
21
-102.3
0
LINE
8
BLACK
6
CONTINUOUS
10
97.015
20
-102.3
11
98.415
21
-102.3
0
LINE
8
BLACK
6
CONTINUOUS
10
98.415
20
-102.3
11
98.415
21
-104.7
0
LINE
8
BLACK
6
CONTINUOUS
10
115.915
20
-104.7
11
114.515
21
-104.7
0
LINE
8
BLACK
6
CONTINUOUS
10
114.515
20
-104.7
11
114.515
21
-102.3
0
LINE
8
BLACK
6
CONTINUOUS
10
114.515
20
-102.3
11
115.915
21
-102.3
0
LINE
8
BLACK
6
CONTINUOUS
10
115.915
20
-102.3
11
115.915
21
-104.7
0
LINE
8
BLACK
6
CONTINUOUS
10
120.485
20
-104.7
11
119.085
21
-104.7
0
LINE
8
BLACK
6
CONTINUOUS
10
119.085
20
-104.7
11
119.085
21
-102.3
0
LINE
8
BLACK
6
CONTINUOUS
10
119.085
20
-102.3
11
120.485
21
-102.3
0
LINE
8
BLACK
6
CONTINUOUS
10
120.485
20
-102.3
11
120.485
21
-104.7
0
LINE
8
BLACK
6
CONTINUOUS
10
335.4
20
-104.45
11
334.6
21
-104.45
0
LINE
8
BLACK
6
CONTINUOUS
10
334.6
20
-104.45
11
334.6
21
-103.55
0
LINE
8
BLACK
6
CONTINUOUS
10
334.6
20
-103.55
11
335.4
21
-103.55
0
LINE
8
BLACK
6
CONTINUOUS
10
335.4
20
-103.55
11
335.4
21
-104.45
0
LINE
8
BLACK
6
CONTINUOUS
10
243.94
20
-100.75
11
242.97
21
-100.75
0
LINE
8
BLACK
6
CONTINUOUS
10
242.97
20
-100.75
11
242.97
21
-99.25
0
LINE
8
BLACK
6
CONTINUOUS
10
242.97
20
-99.25
11
243.94
21
-99.25
0
LINE
8
BLACK
6
CONTINUOUS
10
243.94
20
-99.25
11
243.94
21
-100.75
0
LINE
8
BLACK
6
CONTINUOUS
10
242.03
20
-100.75
11
241.06
21
-100.75
0
LINE
8
BLACK
6
CONTINUOUS
10
241.06
20
-100.75
11
241.06
21
-99.25
0
LINE
8
BLACK
6
CONTINUOUS
10
241.06
20
-99.25
11
242.03
21
-99.25
0
LINE
8
BLACK
6
CONTINUOUS
10
242.03
20
-99.25
11
242.03
21
-100.75
0
LINE
8
BLACK
6
CONTINUOUS
10
325.82
20
-99.755
11
324.22
21
-99.755
0
LINE
8
BLACK
6
CONTINUOUS
10
324.22
20
-99.755
11
324.22
21
-96.255
0
LINE
8
BLACK
6
CONTINUOUS
10
324.22
20
-96.255
11
325.82
21
-96.255
0
LINE
8
BLACK
6
CONTINUOUS
10
325.82
20
-96.255
11
325.82
21
-99.755
0
LINE
8
BLACK
6
CONTINUOUS
10
320.78
20
-99.755
11
319.18
21
-99.755
0
LINE
8
BLACK
6
CONTINUOUS
10
319.18
20
-99.755
11
319.18
21
-96.255
0
LINE
8
BLACK
6
CONTINUOUS
10
319.18
20
-96.255
11
320.78
21
-96.255
0
LINE
8
BLACK
6
CONTINUOUS
10
320.78
20
-96.255
11
320.78
21
-99.755
0
LINE
8
BLACK
6
CONTINUOUS
10
256.825
20
-99.35
11
256.275
21
-99.35
0
LINE
8
BLACK
6
CONTINUOUS
10
256.275
20
-99.35
11
256.275
21
-98.35
0
LINE
8
BLACK
6
CONTINUOUS
10
256.275
20
-98.35
11
256.825
21
-98.35
0
LINE
8
BLACK
6
CONTINUOUS
10
256.825
20
-98.35
11
256.825
21
-99.35
0
LINE
8
BLACK
6
CONTINUOUS
10
257.775
20
-99.35
11
257.225
21
-99.35
0
LINE
8
BLACK
6
CONTINUOUS
10
257.225
20
-99.35
11
257.225
21
-98.35
0
LINE
8
BLACK
6
CONTINUOUS
10
257.225
20
-98.35
11
257.775
21
-98.35
0
LINE
8
BLACK
6
CONTINUOUS
10
257.775
20
-98.35
11
257.775
21
-99.35
0
LINE
8
BLACK
6
CONTINUOUS
10
258.725
20
-99.35
11
258.175
21
-99.35
0
LINE
8
BLACK
6
CONTINUOUS
10
258.175
20
-99.35
11
258.175
21
-98.35
0
LINE
8
BLACK
6
CONTINUOUS
10
258.175
20
-98.35
11
258.725
21
-98.35
0
LINE
8
BLACK
6
CONTINUOUS
10
258.725
20
-98.35
11
258.725
21
-99.35
0
LINE
8
BLACK
6
CONTINUOUS
10
281.09
20
-99.2
11
279.92
21
-99.2
0
LINE
8
BLACK
6
CONTINUOUS
10
279.92
20
-99.2
11
279.92
21
-95.8
0
LINE
8
BLACK
6
CONTINUOUS
10
279.92
20
-95.8
11
281.09
21
-95.8
0
LINE
8
BLACK
6
CONTINUOUS
10
281.09
20
-95.8
11
281.09
21
-99.2
0
LINE
8
BLACK
6
CONTINUOUS
10
275.08
20
-99.2
11
273.91
21
-99.2
0
LINE
8
BLACK
6
CONTINUOUS
10
273.91
20
-99.2
11
273.91
21
-95.8
0
LINE
8
BLACK
6
CONTINUOUS
10
273.91
20
-95.8
11
275.08
21
-95.8
0
LINE
8
BLACK
6
CONTINUOUS
10
275.08
20
-95.8
11
275.08
21
-99.2
0
LINE
8
BLACK
6
CONTINUOUS
10
265.08
20
-99.2
11
263.91
21
-99.2
0
LINE
8
BLACK
6
CONTINUOUS
10
263.91
20
-99.2
11
263.91
21
-95.8
0
LINE
8
BLACK
6
CONTINUOUS
10
263.91
20
-95.8
11
265.08
21
-95.8
0
LINE
8
BLACK
6
CONTINUOUS
10
265.08
20
-95.8
11
265.08
21
-99.2
0
LINE
8
BLACK
6
CONTINUOUS
10
271.09
20
-99.2
11
269.92
21
-99.2
0
LINE
8
BLACK
6
CONTINUOUS
10
269.92
20
-99.2
11
269.92
21
-95.8
0
LINE
8
BLACK
6
CONTINUOUS
10
269.92
20
-95.8
11
271.09
21
-95.8
0
LINE
8
BLACK
6
CONTINUOUS
10
271.09
20
-95.8
11
271.09
21
-99.2
0
LINE
8
BLACK
6
CONTINUOUS
10
247.4
20
-99.07
11
245.95
21
-99.07
0
LINE
8
BLACK
6
CONTINUOUS
10
245.95
20
-99.07
11
245.95
21
-98.47
0
LINE
8
BLACK
6
CONTINUOUS
10
245.95
20
-98.47
11
247.4
21
-98.47
0
LINE
8
BLACK
6
CONTINUOUS
10
247.4
20
-98.47
11
247.4
21
-99.07
0
LINE
8
BLACK
6
CONTINUOUS
10
254.05
20
-99.07
11
252.6
21
-99.07
0
LINE
8
BLACK
6
CONTINUOUS
10
252.6
20
-99.07
11
252.6
21
-98.47
0
LINE
8
BLACK
6
CONTINUOUS
10
252.6
20
-98.47
11
254.05
21
-98.47
0
LINE
8
BLACK
6
CONTINUOUS
10
254.05
20
-98.47
11
254.05
21
-99.07
0
LINE
8
BLACK
6
CONTINUOUS
10
331.7
20
-98.59
11
328.3
21
-98.59
0
LINE
8
BLACK
6
CONTINUOUS
10
328.3
20
-98.59
11
328.3
21
-97.42
0
LINE
8
BLACK
6
CONTINUOUS
10
328.3
20
-97.42
11
331.7
21
-97.42
0
LINE
8
BLACK
6
CONTINUOUS
10
331.7
20
-97.42
11
331.7
21
-98.59
0
LINE
8
BLACK
6
CONTINUOUS
10
336.7
20
-98.59
11
333.3
21
-98.59
0
LINE
8
BLACK
6
CONTINUOUS
10
333.3
20
-98.59
11
333.3
21
-97.42
0
LINE
8
BLACK
6
CONTINUOUS
10
333.3
20
-97.42
11
336.7
21
-97.42
0
LINE
8
BLACK
6
CONTINUOUS
10
336.7
20
-97.42
11
336.7
21
-98.59
0
LINE
8
BLACK
6
CONTINUOUS
10
247.4
20
-97.8
11
245.95
21
-97.8
0
LINE
8
BLACK
6
CONTINUOUS
10
245.95
20
-97.8
11
245.95
21
-97.2
0
LINE
8
BLACK
6
CONTINUOUS
10
245.95
20
-97.2
11
247.4
21
-97.2
0
LINE
8
BLACK
6
CONTINUOUS
10
247.4
20
-97.2
11
247.4
21
-97.8
0
LINE
8
BLACK
6
CONTINUOUS
10
148.075
20
-97.205
11
146.525
21
-97.205
0
LINE
8
BLACK
6
CONTINUOUS
10
146.525
20
-97.205
11
146.525
21
-96.605
0
LINE
8
BLACK
6
CONTINUOUS
10
146.525
20
-96.605
11
148.075
21
-96.605
0
LINE
8
BLACK
6
CONTINUOUS
10
148.075
20
-96.605
11
148.075
21
-97.205
0
LINE
8
BLACK
6
CONTINUOUS
10
153.475
20
-97.205
11
151.925
21
-97.205
0
LINE
8
BLACK
6
CONTINUOUS
10
151.925
20
-97.205
11
151.925
21
-96.605
0
LINE
8
BLACK
6
CONTINUOUS
10
151.925
20
-96.605
11
153.475
21
-96.605
0
LINE
8
BLACK
6
CONTINUOUS
10
153.475
20
-96.605
11
153.475
21
-97.205
0
LINE
8
BLACK
6
CONTINUOUS
10
258.725
20
-96.65
11
258.175
21
-96.65
0
LINE
8
BLACK
6
CONTINUOUS
10
258.175
20
-96.65
11
258.175
21
-95.65
0
LINE
8
BLACK
6
CONTINUOUS
10
258.175
20
-95.65
11
258.725
21
-95.65
0
LINE
8
BLACK
6
CONTINUOUS
10
258.725
20
-95.65
11
258.725
21
-96.65
0
LINE
8
BLACK
6
CONTINUOUS
10
257.775
20
-96.65
11
257.225
21
-96.65
0
LINE
8
BLACK
6
CONTINUOUS
10
257.225
20
-96.65
11
257.225
21
-95.65
0
LINE
8
BLACK
6
CONTINUOUS
10
257.225
20
-95.65
11
257.775
21
-95.65
0
LINE
8
BLACK
6
CONTINUOUS
10
257.775
20
-95.65
11
257.775
21
-96.65
0
LINE
8
BLACK
6
CONTINUOUS
10
256.825
20
-96.65
11
256.275
21
-96.65
0
LINE
8
BLACK
6
CONTINUOUS
10
256.275
20
-96.65
11
256.275
21
-95.65
0
LINE
8
BLACK
6
CONTINUOUS
10
256.275
20
-95.65
11
256.825
21
-95.65
0
LINE
8
BLACK
6
CONTINUOUS
10
256.825
20
-95.65
11
256.825
21
-96.65
0
LINE
8
BLACK
6
CONTINUOUS
10
254.05
20
-96.53
11
252.6
21
-96.53
0
LINE
8
BLACK
6
CONTINUOUS
10
252.6
20
-96.53
11
252.6
21
-95.93
0
LINE
8
BLACK
6
CONTINUOUS
10
252.6
20
-95.93
11
254.05
21
-95.93
0
LINE
8
BLACK
6
CONTINUOUS
10
254.05
20
-95.93
11
254.05
21
-96.53
0
LINE
8
BLACK
6
CONTINUOUS
10
247.4
20
-96.53
11
245.95
21
-96.53
0
LINE
8
BLACK
6
CONTINUOUS
10
245.95
20
-96.53
11
245.95
21
-95.93
0
LINE
8
BLACK
6
CONTINUOUS
10
245.95
20
-95.93
11
247.4
21
-95.93
0
LINE
8
BLACK
6
CONTINUOUS
10
247.4
20
-95.93
11
247.4
21
-96.53
0
LINE
8
BLACK
6
CONTINUOUS
10
155.75
20
-96.44
11
154.25
21
-96.44
0
LINE
8
BLACK
6
CONTINUOUS
10
154.25
20
-96.44
11
154.25
21
-95.47
0
LINE
8
BLACK
6
CONTINUOUS
10
154.25
20
-95.47
11
155.75
21
-95.47
0
LINE
8
BLACK
6
CONTINUOUS
10
155.75
20
-95.47
11
155.75
21
-96.44
0
LINE
8
BLACK
6
CONTINUOUS
10
145.75
20
-96.44
11
144.25
21
-96.44
0
LINE
8
BLACK
6
CONTINUOUS
10
144.25
20
-96.44
11
144.25
21
-95.47
0
LINE
8
BLACK
6
CONTINUOUS
10
144.25
20
-95.47
11
145.75
21
-95.47
0
LINE
8
BLACK
6
CONTINUOUS
10
145.75
20
-95.47
11
145.75
21
-96.44
0
LINE
8
BLACK
6
CONTINUOUS
10
89.45
20
-96.35
11
88.55
21
-96.35
0
LINE
8
BLACK
6
CONTINUOUS
10
88.55
20
-96.35
11
88.55
21
-95.55
0
LINE
8
BLACK
6
CONTINUOUS
10
88.55
20
-95.55
11
89.45
21
-95.55
0
LINE
8
BLACK
6
CONTINUOUS
10
89.45
20
-95.55
11
89.45
21
-96.35
0
LINE
8
BLACK
6
CONTINUOUS
10
101.95
20
-96.35
11
101.05
21
-96.35
0
LINE
8
BLACK
6
CONTINUOUS
10
101.05
20
-96.35
11
101.05
21
-95.55
0
LINE
8
BLACK
6
CONTINUOUS
10
101.05
20
-95.55
11
101.95
21
-95.55
0
LINE
8
BLACK
6
CONTINUOUS
10
101.95
20
-95.55
11
101.95
21
-96.35
0
LINE
8
BLACK
6
CONTINUOUS
10
126.95
20
-96.35
11
126.05
21
-96.35
0
LINE
8
BLACK
6
CONTINUOUS
10
126.05
20
-96.35
11
126.05
21
-95.55
0
LINE
8
BLACK
6
CONTINUOUS
10
126.05
20
-95.55
11
126.95
21
-95.55
0
LINE
8
BLACK
6
CONTINUOUS
10
126.95
20
-95.55
11
126.95
21
-96.35
0
LINE
8
BLACK
6
CONTINUOUS
10
243.95
20
-96.35
11
243.05
21
-96.35
0
LINE
8
BLACK
6
CONTINUOUS
10
243.05
20
-96.35
11
243.05
21
-95.55
0
LINE
8
BLACK
6
CONTINUOUS
10
243.05
20
-95.55
11
243.95
21
-95.55
0
LINE
8
BLACK
6
CONTINUOUS
10
243.95
20
-95.55
11
243.95
21
-96.35
0
LINE
8
BLACK
6
CONTINUOUS
10
114.45
20
-96.35
11
113.55
21
-96.35
0
LINE
8
BLACK
6
CONTINUOUS
10
113.55
20
-96.35
11
113.55
21
-95.55
0
LINE
8
BLACK
6
CONTINUOUS
10
113.55
20
-95.55
11
114.45
21
-95.55
0
LINE
8
BLACK
6
CONTINUOUS
10
114.45
20
-95.55
11
114.45
21
-96.35
0
LINE
8
BLACK
6
CONTINUOUS
10
148.075
20
-95.935
11
146.525
21
-95.935
0
LINE
8
BLACK
6
CONTINUOUS
10
146.525
20
-95.935
11
146.525
21
-95.335
0
LINE
8
BLACK
6
CONTINUOUS
10
146.525
20
-95.335
11
148.075
21
-95.335
0
LINE
8
BLACK
6
CONTINUOUS
10
148.075
20
-95.335
11
148.075
21
-95.935
0
LINE
8
BLACK
6
CONTINUOUS
10
153.475
20
-95.935
11
151.925
21
-95.935
0
LINE
8
BLACK
6
CONTINUOUS
10
151.925
20
-95.935
11
151.925
21
-95.335
0
LINE
8
BLACK
6
CONTINUOUS
10
151.925
20
-95.335
11
153.475
21
-95.335
0
LINE
8
BLACK
6
CONTINUOUS
10
153.475
20
-95.335
11
153.475
21
-95.935
0
LINE
8
BLACK
6
CONTINUOUS
10
116.45
20
-95.4
11
115.55
21
-95.4
0
LINE
8
BLACK
6
CONTINUOUS
10
115.55
20
-95.4
11
115.55
21
-94.6
0
LINE
8
BLACK
6
CONTINUOUS
10
115.55
20
-94.6
11
116.45
21
-94.6
0
LINE
8
BLACK
6
CONTINUOUS
10
116.45
20
-94.6
11
116.45
21
-95.4
0
LINE
8
BLACK
6
CONTINUOUS
10
91.45
20
-95.4
11
90.55
21
-95.4
0
LINE
8
BLACK
6
CONTINUOUS
10
90.55
20
-95.4
11
90.55
21
-94.6
0
LINE
8
BLACK
6
CONTINUOUS
10
90.55
20
-94.6
11
91.45
21
-94.6
0
LINE
8
BLACK
6
CONTINUOUS
10
91.45
20
-94.6
11
91.45
21
-95.4
0
LINE
8
BLACK
6
CONTINUOUS
10
241.95
20
-95.4
11
241.05
21
-95.4
0
LINE
8
BLACK
6
CONTINUOUS
10
241.05
20
-95.4
11
241.05
21
-94.6
0
LINE
8
BLACK
6
CONTINUOUS
10
241.05
20
-94.6
11
241.95
21
-94.6
0
LINE
8
BLACK
6
CONTINUOUS
10
241.95
20
-94.6
11
241.95
21
-95.4
0
LINE
8
BLACK
6
CONTINUOUS
10
128.95
20
-95.4
11
128.05
21
-95.4
0
LINE
8
BLACK
6
CONTINUOUS
10
128.05
20
-95.4
11
128.05
21
-94.6
0
LINE
8
BLACK
6
CONTINUOUS
10
128.05
20
-94.6
11
128.95
21
-94.6
0
LINE
8
BLACK
6
CONTINUOUS
10
128.95
20
-94.6
11
128.95
21
-95.4
0
LINE
8
BLACK
6
CONTINUOUS
10
103.95
20
-95.4
11
103.05
21
-95.4
0
LINE
8
BLACK
6
CONTINUOUS
10
103.05
20
-95.4
11
103.05
21
-94.6
0
LINE
8
BLACK
6
CONTINUOUS
10
103.05
20
-94.6
11
103.95
21
-94.6
0
LINE
8
BLACK
6
CONTINUOUS
10
103.95
20
-94.6
11
103.95
21
-95.4
0
LINE
8
BLACK
6
CONTINUOUS
10
148.075
20
-94.665
11
146.525
21
-94.665
0
LINE
8
BLACK
6
CONTINUOUS
10
146.525
20
-94.665
11
146.525
21
-94.065
0
LINE
8
BLACK
6
CONTINUOUS
10
146.525
20
-94.065
11
148.075
21
-94.065
0
LINE
8
BLACK
6
CONTINUOUS
10
148.075
20
-94.065
11
148.075
21
-94.665
0
LINE
8
BLACK
6
CONTINUOUS
10
153.475
20
-94.665
11
151.925
21
-94.665
0
LINE
8
BLACK
6
CONTINUOUS
10
151.925
20
-94.665
11
151.925
21
-94.065
0
LINE
8
BLACK
6
CONTINUOUS
10
151.925
20
-94.065
11
153.475
21
-94.065
0
LINE
8
BLACK
6
CONTINUOUS
10
153.475
20
-94.065
11
153.475
21
-94.665
0
LINE
8
BLACK
6
CONTINUOUS
10
145.75
20
-94.53
11
144.25
21
-94.53
0
LINE
8
BLACK
6
CONTINUOUS
10
144.25
20
-94.53
11
144.25
21
-93.56
0
LINE
8
BLACK
6
CONTINUOUS
10
144.25
20
-93.56
11
145.75
21
-93.56
0
LINE
8
BLACK
6
CONTINUOUS
10
145.75
20
-93.56
11
145.75
21
-94.53
0
LINE
8
BLACK
6
CONTINUOUS
10
155.75
20
-94.53
11
154.25
21
-94.53
0
LINE
8
BLACK
6
CONTINUOUS
10
154.25
20
-94.53
11
154.25
21
-93.56
0
LINE
8
BLACK
6
CONTINUOUS
10
154.25
20
-93.56
11
155.75
21
-93.56
0
LINE
8
BLACK
6
CONTINUOUS
10
155.75
20
-93.56
11
155.75
21
-94.53
0
LINE
8
BLACK
6
CONTINUOUS
10
89.45
20
-94.45
11
88.55
21
-94.45
0
LINE
8
BLACK
6
CONTINUOUS
10
88.55
20
-94.45
11
88.55
21
-93.65
0
LINE
8
BLACK
6
CONTINUOUS
10
88.55
20
-93.65
11
89.45
21
-93.65
0
LINE
8
BLACK
6
CONTINUOUS
10
89.45
20
-93.65
11
89.45
21
-94.45
0
LINE
8
BLACK
6
CONTINUOUS
10
101.95
20
-94.45
11
101.05
21
-94.45
0
LINE
8
BLACK
6
CONTINUOUS
10
101.05
20
-94.45
11
101.05
21
-93.65
0
LINE
8
BLACK
6
CONTINUOUS
10
101.05
20
-93.65
11
101.95
21
-93.65
0
LINE
8
BLACK
6
CONTINUOUS
10
101.95
20
-93.65
11
101.95
21
-94.45
0
LINE
8
BLACK
6
CONTINUOUS
10
243.95
20
-94.45
11
243.05
21
-94.45
0
LINE
8
BLACK
6
CONTINUOUS
10
243.05
20
-94.45
11
243.05
21
-93.65
0
LINE
8
BLACK
6
CONTINUOUS
10
243.05
20
-93.65
11
243.95
21
-93.65
0
LINE
8
BLACK
6
CONTINUOUS
10
243.95
20
-93.65
11
243.95
21
-94.45
0
LINE
8
BLACK
6
CONTINUOUS
10
126.95
20
-94.45
11
126.05
21
-94.45
0
LINE
8
BLACK
6
CONTINUOUS
10
126.05
20
-94.45
11
126.05
21
-93.65
0
LINE
8
BLACK
6
CONTINUOUS
10
126.05
20
-93.65
11
126.95
21
-93.65
0
LINE
8
BLACK
6
CONTINUOUS
10
126.95
20
-93.65
11
126.95
21
-94.45
0
LINE
8
BLACK
6
CONTINUOUS
10
114.45
20
-94.45
11
113.55
21
-94.45
0
LINE
8
BLACK
6
CONTINUOUS
10
113.55
20
-94.45
11
113.55
21
-93.65
0
LINE
8
BLACK
6
CONTINUOUS
10
113.55
20
-93.65
11
114.45
21
-93.65
0
LINE
8
BLACK
6
CONTINUOUS
10
114.45
20
-93.65
11
114.45
21
-94.45
0
LINE
8
BLACK
6
CONTINUOUS
10
318.95
20
-93.85
11
318.05
21
-93.85
0
LINE
8
BLACK
6
CONTINUOUS
10
318.05
20
-93.85
11
318.05
21
-93.05
0
LINE
8
BLACK
6
CONTINUOUS
10
318.05
20
-93.05
11
318.95
21
-93.05
0
LINE
8
BLACK
6
CONTINUOUS
10
318.95
20
-93.05
11
318.95
21
-93.85
0
LINE
8
BLACK
6
CONTINUOUS
10
153.475
20
-93.395
11
151.925
21
-93.395
0
LINE
8
BLACK
6
CONTINUOUS
10
151.925
20
-93.395
11
151.925
21
-92.795
0
LINE
8
BLACK
6
CONTINUOUS
10
151.925
20
-92.795
11
153.475
21
-92.795
0
LINE
8
BLACK
6
CONTINUOUS
10
153.475
20
-92.795
11
153.475
21
-93.395
0
LINE
8
BLACK
6
CONTINUOUS
10
148.075
20
-93.395
11
146.525
21
-93.395
0
LINE
8
BLACK
6
CONTINUOUS
10
146.525
20
-93.395
11
146.525
21
-92.795
0
LINE
8
BLACK
6
CONTINUOUS
10
146.525
20
-92.795
11
148.075
21
-92.795
0
LINE
8
BLACK
6
CONTINUOUS
10
148.075
20
-92.795
11
148.075
21
-93.395
0
LINE
8
BLACK
6
CONTINUOUS
10
316.95
20
-92.9
11
316.05
21
-92.9
0
LINE
8
BLACK
6
CONTINUOUS
10
316.05
20
-92.9
11
316.05
21
-92.1
0
LINE
8
BLACK
6
CONTINUOUS
10
316.05
20
-92.1
11
316.95
21
-92.1
0
LINE
8
BLACK
6
CONTINUOUS
10
316.95
20
-92.1
11
316.95
21
-92.9
0
LINE
8
BLACK
6
CONTINUOUS
10
336.7
20
-92.58
11
333.3
21
-92.58
0
LINE
8
BLACK
6
CONTINUOUS
10
333.3
20
-92.58
11
333.3
21
-91.41
0
LINE
8
BLACK
6
CONTINUOUS
10
333.3
20
-91.41
11
336.7
21
-91.41
0
LINE
8
BLACK
6
CONTINUOUS
10
336.7
20
-91.41
11
336.7
21
-92.58
0
LINE
8
BLACK
6
CONTINUOUS
10
331.7
20
-92.58
11
328.3
21
-92.58
0
LINE
8
BLACK
6
CONTINUOUS
10
328.3
20
-92.58
11
328.3
21
-91.41
0
LINE
8
BLACK
6
CONTINUOUS
10
328.3
20
-91.41
11
331.7
21
-91.41
0
LINE
8
BLACK
6
CONTINUOUS
10
331.7
20
-91.41
11
331.7
21
-92.58
0
LINE
8
BLACK
6
CONTINUOUS
10
168.2
20
-92.35
11
167.6
21
-92.35
0
LINE
8
BLACK
6
CONTINUOUS
10
167.6
20
-92.35
11
167.6
21
-91.15
0
LINE
8
BLACK
6
CONTINUOUS
10
167.6
20
-91.15
11
168.2
21
-91.15
0
LINE
8
BLACK
6
CONTINUOUS
10
168.2
20
-91.15
11
168.2
21
-92.35
0
LINE
8
BLACK
6
CONTINUOUS
10
170.6
20
-92.35
11
170
21
-92.35
0
LINE
8
BLACK
6
CONTINUOUS
10
170
20
-92.35
11
170
21
-91.15
0
LINE
8
BLACK
6
CONTINUOUS
10
170
20
-91.15
11
170.6
21
-91.15
0
LINE
8
BLACK
6
CONTINUOUS
10
170.6
20
-91.15
11
170.6
21
-92.35
0
LINE
8
BLACK
6
CONTINUOUS
10
169.8
20
-92.35
11
169.2
21
-92.35
0
LINE
8
BLACK
6
CONTINUOUS
10
169.2
20
-92.35
11
169.2
21
-91.15
0
LINE
8
BLACK
6
CONTINUOUS
10
169.2
20
-91.15
11
169.8
21
-91.15
0
LINE
8
BLACK
6
CONTINUOUS
10
169.8
20
-91.15
11
169.8
21
-92.35
0
LINE
8
BLACK
6
CONTINUOUS
10
165
20
-92.35
11
164.4
21
-92.35
0
LINE
8
BLACK
6
CONTINUOUS
10
164.4
20
-92.35
11
164.4
21
-91.15
0
LINE
8
BLACK
6
CONTINUOUS
10
164.4
20
-91.15
11
165
21
-91.15
0
LINE
8
BLACK
6
CONTINUOUS
10
165
20
-91.15
11
165
21
-92.35
0
LINE
8
BLACK
6
CONTINUOUS
10
165.8
20
-92.35
11
165.2
21
-92.35
0
LINE
8
BLACK
6
CONTINUOUS
10
165.2
20
-92.35
11
165.2
21
-91.15
0
LINE
8
BLACK
6
CONTINUOUS
10
165.2
20
-91.15
11
165.8
21
-91.15
0
LINE
8
BLACK
6
CONTINUOUS
10
165.8
20
-91.15
11
165.8
21
-92.35
0
LINE
8
BLACK
6
CONTINUOUS
10
166.6
20
-92.35
11
166
21
-92.35
0
LINE
8
BLACK
6
CONTINUOUS
10
166
20
-92.35
11
166
21
-91.15
0
LINE
8
BLACK
6
CONTINUOUS
10
166
20
-91.15
11
166.6
21
-91.15
0
LINE
8
BLACK
6
CONTINUOUS
10
166.6
20
-91.15
11
166.6
21
-92.35
0
LINE
8
BLACK
6
CONTINUOUS
10
167.4
20
-92.35
11
166.8
21
-92.35
0
LINE
8
BLACK
6
CONTINUOUS
10
166.8
20
-92.35
11
166.8
21
-91.15
0
LINE
8
BLACK
6
CONTINUOUS
10
166.8
20
-91.15
11
167.4
21
-91.15
0
LINE
8
BLACK
6
CONTINUOUS
10
167.4
20
-91.15
11
167.4
21
-92.35
0
LINE
8
BLACK
6
CONTINUOUS
10
169
20
-92.35
11
168.4
21
-92.35
0
LINE
8
BLACK
6
CONTINUOUS
10
168.4
20
-92.35
11
168.4
21
-91.15
0
LINE
8
BLACK
6
CONTINUOUS
10
168.4
20
-91.15
11
169
21
-91.15
0
LINE
8
BLACK
6
CONTINUOUS
10
169
20
-91.15
11
169
21
-92.35
0
LINE
8
BLACK
6
CONTINUOUS
10
318.95
20
-91.95
11
318.05
21
-91.95
0
LINE
8
BLACK
6
CONTINUOUS
10
318.05
20
-91.95
11
318.05
21
-91.15
0
LINE
8
BLACK
6
CONTINUOUS
10
318.05
20
-91.15
11
318.95
21
-91.15
0
LINE
8
BLACK
6
CONTINUOUS
10
318.95
20
-91.15
11
318.95
21
-91.95
0
LINE
8
BLACK
6
CONTINUOUS
10
151.44
20
-91.75
11
150.47
21
-91.75
0
LINE
8
BLACK
6
CONTINUOUS
10
150.47
20
-91.75
11
150.47
21
-90.25
0
LINE
8
BLACK
6
CONTINUOUS
10
150.47
20
-90.25
11
151.44
21
-90.25
0
LINE
8
BLACK
6
CONTINUOUS
10
151.44
20
-90.25
11
151.44
21
-91.75
0
LINE
8
BLACK
6
CONTINUOUS
10
149.53
20
-91.75
11
148.56
21
-91.75
0
LINE
8
BLACK
6
CONTINUOUS
10
148.56
20
-91.75
11
148.56
21
-90.25
0
LINE
8
BLACK
6
CONTINUOUS
10
148.56
20
-90.25
11
149.53
21
-90.25
0
LINE
8
BLACK
6
CONTINUOUS
10
149.53
20
-90.25
11
149.53
21
-91.75
0
LINE
8
BLACK
6
CONTINUOUS
10
175.75
20
-91.44
11
174.25
21
-91.44
0
LINE
8
BLACK
6
CONTINUOUS
10
174.25
20
-91.44
11
174.25
21
-90.47
0
LINE
8
BLACK
6
CONTINUOUS
10
174.25
20
-90.47
11
175.75
21
-90.47
0
LINE
8
BLACK
6
CONTINUOUS
10
175.75
20
-90.47
11
175.75
21
-91.44
0
LINE
8
BLACK
6
CONTINUOUS
10
160.75
20
-91.44
11
159.25
21
-91.44
0
LINE
8
BLACK
6
CONTINUOUS
10
159.25
20
-91.44
11
159.25
21
-90.47
0
LINE
8
BLACK
6
CONTINUOUS
10
159.25
20
-90.47
11
160.75
21
-90.47
0
LINE
8
BLACK
6
CONTINUOUS
10
160.75
20
-90.47
11
160.75
21
-91.44
0
LINE
8
BLACK
6
CONTINUOUS
10
257.03
20
-90.79
11
256.06
21
-90.79
0
LINE
8
BLACK
6
CONTINUOUS
10
256.06
20
-90.79
11
256.06
21
-89.29
0
LINE
8
BLACK
6
CONTINUOUS
10
256.06
20
-89.29
11
257.03
21
-89.29
0
LINE
8
BLACK
6
CONTINUOUS
10
257.03
20
-89.29
11
257.03
21
-90.79
0
LINE
8
BLACK
6
CONTINUOUS
10
258.94
20
-90.79
11
257.97
21
-90.79
0
LINE
8
BLACK
6
CONTINUOUS
10
257.97
20
-90.79
11
257.97
21
-89.29
0
LINE
8
BLACK
6
CONTINUOUS
10
257.97
20
-89.29
11
258.94
21
-89.29
0
LINE
8
BLACK
6
CONTINUOUS
10
258.94
20
-89.29
11
258.94
21
-90.79
0
LINE
8
BLACK
6
CONTINUOUS
10
172.35
20
-90.6
11
171.15
21
-90.6
0
LINE
8
BLACK
6
CONTINUOUS
10
171.15
20
-90.6
11
171.15
21
-90
0
LINE
8
BLACK
6
CONTINUOUS
10
171.15
20
-90
11
172.35
21
-90
0
LINE
8
BLACK
6
CONTINUOUS
10
172.35
20
-90
11
172.35
21
-90.6
0
LINE
8
BLACK
6
CONTINUOUS
10
163.85
20
-90.6
11
162.65
21
-90.6
0
LINE
8
BLACK
6
CONTINUOUS
10
162.65
20
-90.6
11
162.65
21
-90
0
LINE
8
BLACK
6
CONTINUOUS
10
162.65
20
-90
11
163.85
21
-90
0
LINE
8
BLACK
6
CONTINUOUS
10
163.85
20
-90
11
163.85
21
-90.6
0
LINE
8
BLACK
6
CONTINUOUS
10
254.85
20
-90.415
11
253.55
21
-90.415
0
LINE
8
BLACK
6
CONTINUOUS
10
253.55
20
-90.415
11
253.55
21
-89.665
0
LINE
8
BLACK
6
CONTINUOUS
10
253.55
20
-89.665
11
254.85
21
-89.665
0
LINE
8
BLACK
6
CONTINUOUS
10
254.85
20
-89.665
11
254.85
21
-90.415
0
LINE
8
BLACK
6
CONTINUOUS
10
246.45
20
-90.415
11
245.15
21
-90.415
0
LINE
8
BLACK
6
CONTINUOUS
10
245.15
20
-90.415
11
245.15
21
-89.665
0
LINE
8
BLACK
6
CONTINUOUS
10
245.15
20
-89.665
11
246.45
21
-89.665
0
LINE
8
BLACK
6
CONTINUOUS
10
246.45
20
-89.665
11
246.45
21
-90.415
0
LINE
8
BLACK
6
CONTINUOUS
10
163.85
20
-89.8
11
162.65
21
-89.8
0
LINE
8
BLACK
6
CONTINUOUS
10
162.65
20
-89.8
11
162.65
21
-89.2
0
LINE
8
BLACK
6
CONTINUOUS
10
162.65
20
-89.2
11
163.85
21
-89.2
0
LINE
8
BLACK
6
CONTINUOUS
10
163.85
20
-89.2
11
163.85
21
-89.8
0
LINE
8
BLACK
6
CONTINUOUS
10
172.35
20
-89.8
11
171.15
21
-89.8
0
LINE
8
BLACK
6
CONTINUOUS
10
171.15
20
-89.8
11
171.15
21
-89.2
0
LINE
8
BLACK
6
CONTINUOUS
10
171.15
20
-89.2
11
172.35
21
-89.2
0
LINE
8
BLACK
6
CONTINUOUS
10
172.35
20
-89.2
11
172.35
21
-89.8
0
LINE
8
BLACK
6
CONTINUOUS
10
175.75
20
-89.53
11
174.25
21
-89.53
0
LINE
8
BLACK
6
CONTINUOUS
10
174.25
20
-89.53
11
174.25
21
-88.56
0
LINE
8
BLACK
6
CONTINUOUS
10
174.25
20
-88.56
11
175.75
21
-88.56
0
LINE
8
BLACK
6
CONTINUOUS
10
175.75
20
-88.56
11
175.75
21
-89.53
0
LINE
8
BLACK
6
CONTINUOUS
10
160.75
20
-89.53
11
159.25
21
-89.53
0
LINE
8
BLACK
6
CONTINUOUS
10
159.25
20
-89.53
11
159.25
21
-88.56
0
LINE
8
BLACK
6
CONTINUOUS
10
159.25
20
-88.56
11
160.75
21
-88.56
0
LINE
8
BLACK
6
CONTINUOUS
10
160.75
20
-88.56
11
160.75
21
-89.53
0
LINE
8
BLACK
6
CONTINUOUS
10
163.85
20
-89
11
162.65
21
-89
0
LINE
8
BLACK
6
CONTINUOUS
10
162.65
20
-89
11
162.65
21
-88.4
0
LINE
8
BLACK
6
CONTINUOUS
10
162.65
20
-88.4
11
163.85
21
-88.4
0
LINE
8
BLACK
6
CONTINUOUS
10
163.85
20
-88.4
11
163.85
21
-89
0
LINE
8
BLACK
6
CONTINUOUS
10
172.35
20
-89
11
171.15
21
-89
0
LINE
8
BLACK
6
CONTINUOUS
10
171.15
20
-89
11
171.15
21
-88.4
0
LINE
8
BLACK
6
CONTINUOUS
10
171.15
20
-88.4
11
172.35
21
-88.4
0
LINE
8
BLACK
6
CONTINUOUS
10
172.35
20
-88.4
11
172.35
21
-89
0
LINE
8
BLACK
6
CONTINUOUS
10
260.75
20
-88.94
11
259.25
21
-88.94
0
LINE
8
BLACK
6
CONTINUOUS
10
259.25
20
-88.94
11
259.25
21
-87.97
0
LINE
8
BLACK
6
CONTINUOUS
10
259.25
20
-87.97
11
260.75
21
-87.97
0
LINE
8
BLACK
6
CONTINUOUS
10
260.75
20
-87.97
11
260.75
21
-88.94
0
LINE
8
BLACK
6
CONTINUOUS
10
163.85
20
-88.2
11
162.65
21
-88.2
0
LINE
8
BLACK
6
CONTINUOUS
10
162.65
20
-88.2
11
162.65
21
-87.6
0
LINE
8
BLACK
6
CONTINUOUS
10
162.65
20
-87.6
11
163.85
21
-87.6
0
LINE
8
BLACK
6
CONTINUOUS
10
163.85
20
-87.6
11
163.85
21
-88.2
0
LINE
8
BLACK
6
CONTINUOUS
10
172.35
20
-88.2
11
171.15
21
-88.2
0
LINE
8
BLACK
6
CONTINUOUS
10
171.15
20
-88.2
11
171.15
21
-87.6
0
LINE
8
BLACK
6
CONTINUOUS
10
171.15
20
-87.6
11
172.35
21
-87.6
0
LINE
8
BLACK
6
CONTINUOUS
10
172.35
20
-87.6
11
172.35
21
-88.2
0
LINE
8
BLACK
6
CONTINUOUS
10
254.85
20
-87.875
11
253.55
21
-87.875
0
LINE
8
BLACK
6
CONTINUOUS
10
253.55
20
-87.875
11
253.55
21
-87.125
0
LINE
8
BLACK
6
CONTINUOUS
10
253.55
20
-87.125
11
254.85
21
-87.125
0
LINE
8
BLACK
6
CONTINUOUS
10
254.85
20
-87.125
11
254.85
21
-87.875
0
LINE
8
BLACK
6
CONTINUOUS
10
246.45
20
-87.875
11
245.15
21
-87.875
0
LINE
8
BLACK
6
CONTINUOUS
10
245.15
20
-87.875
11
245.15
21
-87.125
0
LINE
8
BLACK
6
CONTINUOUS
10
245.15
20
-87.125
11
246.45
21
-87.125
0
LINE
8
BLACK
6
CONTINUOUS
10
246.45
20
-87.125
11
246.45
21
-87.875
0
LINE
8
BLACK
6
CONTINUOUS
10
163.85
20
-87.4
11
162.65
21
-87.4
0
LINE
8
BLACK
6
CONTINUOUS
10
162.65
20
-87.4
11
162.65
21
-86.8
0
LINE
8
BLACK
6
CONTINUOUS
10
162.65
20
-86.8
11
163.85
21
-86.8
0
LINE
8
BLACK
6
CONTINUOUS
10
163.85
20
-86.8
11
163.85
21
-87.4
0
LINE
8
BLACK
6
CONTINUOUS
10
172.35
20
-87.4
11
171.15
21
-87.4
0
LINE
8
BLACK
6
CONTINUOUS
10
171.15
20
-87.4
11
171.15
21
-86.8
0
LINE
8
BLACK
6
CONTINUOUS
10
171.15
20
-86.8
11
172.35
21
-86.8
0
LINE
8
BLACK
6
CONTINUOUS
10
172.35
20
-86.8
11
172.35
21
-87.4
0
LINE
8
BLACK
6
CONTINUOUS
10
260.75
20
-87.03
11
259.25
21
-87.03
0
LINE
8
BLACK
6
CONTINUOUS
10
259.25
20
-87.03
11
259.25
21
-86.06
0
LINE
8
BLACK
6
CONTINUOUS
10
259.25
20
-86.06
11
260.75
21
-86.06
0
LINE
8
BLACK
6
CONTINUOUS
10
260.75
20
-86.06
11
260.75
21
-87.03
0
LINE
8
BLACK
6
CONTINUOUS
10
163.85
20
-86.6
11
162.65
21
-86.6
0
LINE
8
BLACK
6
CONTINUOUS
10
162.65
20
-86.6
11
162.65
21
-86
0
LINE
8
BLACK
6
CONTINUOUS
10
162.65
20
-86
11
163.85
21
-86
0
LINE
8
BLACK
6
CONTINUOUS
10
163.85
20
-86
11
163.85
21
-86.6
0
LINE
8
BLACK
6
CONTINUOUS
10
172.35
20
-86.6
11
171.15
21
-86.6
0
LINE
8
BLACK
6
CONTINUOUS
10
171.15
20
-86.6
11
171.15
21
-86
0
LINE
8
BLACK
6
CONTINUOUS
10
171.15
20
-86
11
172.35
21
-86
0
LINE
8
BLACK
6
CONTINUOUS
10
172.35
20
-86
11
172.35
21
-86.6
0
LINE
8
BLACK
6
CONTINUOUS
10
160.75
20
-86.44
11
159.25
21
-86.44
0
LINE
8
BLACK
6
CONTINUOUS
10
159.25
20
-86.44
11
159.25
21
-85.47
0
LINE
8
BLACK
6
CONTINUOUS
10
159.25
20
-85.47
11
160.75
21
-85.47
0
LINE
8
BLACK
6
CONTINUOUS
10
160.75
20
-85.47
11
160.75
21
-86.44
0
LINE
8
BLACK
6
CONTINUOUS
10
155.75
20
-86.44
11
154.25
21
-86.44
0
LINE
8
BLACK
6
CONTINUOUS
10
154.25
20
-86.44
11
154.25
21
-85.47
0
LINE
8
BLACK
6
CONTINUOUS
10
154.25
20
-85.47
11
155.75
21
-85.47
0
LINE
8
BLACK
6
CONTINUOUS
10
155.75
20
-85.47
11
155.75
21
-86.44
0
LINE
8
BLACK
6
CONTINUOUS
10
89.45
20
-86.35
11
88.55
21
-86.35
0
LINE
8
BLACK
6
CONTINUOUS
10
88.55
20
-86.35
11
88.55
21
-85.55
0
LINE
8
BLACK
6
CONTINUOUS
10
88.55
20
-85.55
11
89.45
21
-85.55
0
LINE
8
BLACK
6
CONTINUOUS
10
89.45
20
-85.55
11
89.45
21
-86.35
0
LINE
8
BLACK
6
CONTINUOUS
10
114.45
20
-86.35
11
113.55
21
-86.35
0
LINE
8
BLACK
6
CONTINUOUS
10
113.55
20
-86.35
11
113.55
21
-85.55
0
LINE
8
BLACK
6
CONTINUOUS
10
113.55
20
-85.55
11
114.45
21
-85.55
0
LINE
8
BLACK
6
CONTINUOUS
10
114.45
20
-85.55
11
114.45
21
-86.35
0
LINE
8
BLACK
6
CONTINUOUS
10
126.95
20
-86.35
11
126.05
21
-86.35
0
LINE
8
BLACK
6
CONTINUOUS
10
126.05
20
-86.35
11
126.05
21
-85.55
0
LINE
8
BLACK
6
CONTINUOUS
10
126.05
20
-85.55
11
126.95
21
-85.55
0
LINE
8
BLACK
6
CONTINUOUS
10
126.95
20
-85.55
11
126.95
21
-86.35
0
LINE
8
BLACK
6
CONTINUOUS
10
101.95
20
-86.35
11
101.05
21
-86.35
0
LINE
8
BLACK
6
CONTINUOUS
10
101.05
20
-86.35
11
101.05
21
-85.55
0
LINE
8
BLACK
6
CONTINUOUS
10
101.05
20
-85.55
11
101.95
21
-85.55
0
LINE
8
BLACK
6
CONTINUOUS
10
101.95
20
-85.55
11
101.95
21
-86.35
0
LINE
8
BLACK
6
CONTINUOUS
10
148.85
20
-85.9
11
148.05
21
-85.9
0
LINE
8
BLACK
6
CONTINUOUS
10
148.05
20
-85.9
11
148.05
21
-85.6
0
LINE
8
BLACK
6
CONTINUOUS
10
148.05
20
-85.6
11
148.85
21
-85.6
0
LINE
8
BLACK
6
CONTINUOUS
10
148.85
20
-85.6
11
148.85
21
-85.9
0
LINE
8
BLACK
6
CONTINUOUS
10
151.95
20
-85.9
11
151.15
21
-85.9
0
LINE
8
BLACK
6
CONTINUOUS
10
151.15
20
-85.9
11
151.15
21
-85.6
0
LINE
8
BLACK
6
CONTINUOUS
10
151.15
20
-85.6
11
151.95
21
-85.6
0
LINE
8
BLACK
6
CONTINUOUS
10
151.95
20
-85.6
11
151.95
21
-85.9
0
LINE
8
BLACK
6
CONTINUOUS
10
172.35
20
-85.8
11
171.15
21
-85.8
0
LINE
8
BLACK
6
CONTINUOUS
10
171.15
20
-85.8
11
171.15
21
-85.2
0
LINE
8
BLACK
6
CONTINUOUS
10
171.15
20
-85.2
11
172.35
21
-85.2
0
LINE
8
BLACK
6
CONTINUOUS
10
172.35
20
-85.2
11
172.35
21
-85.8
0
LINE
8
BLACK
6
CONTINUOUS
10
163.85
20
-85.8
11
162.65
21
-85.8
0
LINE
8
BLACK
6
CONTINUOUS
10
162.65
20
-85.8
11
162.65
21
-85.2
0
LINE
8
BLACK
6
CONTINUOUS
10
162.65
20
-85.2
11
163.85
21
-85.2
0
LINE
8
BLACK
6
CONTINUOUS
10
163.85
20
-85.2
11
163.85
21
-85.8
0
LINE
8
BLACK
6
CONTINUOUS
10
187.03
20
-85.75
11
186.06
21
-85.75
0
LINE
8
BLACK
6
CONTINUOUS
10
186.06
20
-85.75
11
186.06
21
-84.25
0
LINE
8
BLACK
6
CONTINUOUS
10
186.06
20
-84.25
11
187.03
21
-84.25
0
LINE
8
BLACK
6
CONTINUOUS
10
187.03
20
-84.25
11
187.03
21
-85.75
0
LINE
8
BLACK
6
CONTINUOUS
10
188.94
20
-85.75
11
187.97
21
-85.75
0
LINE
8
BLACK
6
CONTINUOUS
10
187.97
20
-85.75
11
187.97
21
-84.25
0
LINE
8
BLACK
6
CONTINUOUS
10
187.97
20
-84.25
11
188.94
21
-84.25
0
LINE
8
BLACK
6
CONTINUOUS
10
188.94
20
-84.25
11
188.94
21
-85.75
0
LINE
8
BLACK
6
CONTINUOUS
10
258.94
20
-85.71
11
257.97
21
-85.71
0
LINE
8
BLACK
6
CONTINUOUS
10
257.97
20
-85.71
11
257.97
21
-84.21
0
LINE
8
BLACK
6
CONTINUOUS
10
257.97
20
-84.21
11
258.94
21
-84.21
0
LINE
8
BLACK
6
CONTINUOUS
10
258.94
20
-84.21
11
258.94
21
-85.71
0
LINE
8
BLACK
6
CONTINUOUS
10
257.03
20
-85.71
11
256.06
21
-85.71
0
LINE
8
BLACK
6
CONTINUOUS
10
256.06
20
-85.71
11
256.06
21
-84.21
0
LINE
8
BLACK
6
CONTINUOUS
10
256.06
20
-84.21
11
257.03
21
-84.21
0
LINE
8
BLACK
6
CONTINUOUS
10
257.03
20
-84.21
11
257.03
21
-85.71
0
LINE
8
BLACK
6
CONTINUOUS
10
334.6
20
-85.7
11
333.3
21
-85.7
0
LINE
8
BLACK
6
CONTINUOUS
10
333.3
20
-85.7
11
333.3
21
-84.3
0
LINE
8
BLACK
6
CONTINUOUS
10
333.3
20
-84.3
11
334.6
21
-84.3
0
LINE
8
BLACK
6
CONTINUOUS
10
334.6
20
-84.3
11
334.6
21
-85.7
0
LINE
8
BLACK
6
CONTINUOUS
10
331.7
20
-85.7
11
330.4
21
-85.7
0
LINE
8
BLACK
6
CONTINUOUS
10
330.4
20
-85.7
11
330.4
21
-84.3
0
LINE
8
BLACK
6
CONTINUOUS
10
330.4
20
-84.3
11
331.7
21
-84.3
0
LINE
8
BLACK
6
CONTINUOUS
10
331.7
20
-84.3
11
331.7
21
-85.7
0
LINE
8
BLACK
6
CONTINUOUS
10
148.85
20
-85.4
11
148.05
21
-85.4
0
LINE
8
BLACK
6
CONTINUOUS
10
148.05
20
-85.4
11
148.05
21
-85.1
0
LINE
8
BLACK
6
CONTINUOUS
10
148.05
20
-85.1
11
148.85
21
-85.1
0
LINE
8
BLACK
6
CONTINUOUS
10
148.85
20
-85.1
11
148.85
21
-85.4
0
LINE
8
BLACK
6
CONTINUOUS
10
128.95
20
-85.4
11
128.05
21
-85.4
0
LINE
8
BLACK
6
CONTINUOUS
10
128.05
20
-85.4
11
128.05
21
-84.6
0
LINE
8
BLACK
6
CONTINUOUS
10
128.05
20
-84.6
11
128.95
21
-84.6
0
LINE
8
BLACK
6
CONTINUOUS
10
128.95
20
-84.6
11
128.95
21
-85.4
0
LINE
8
BLACK
6
CONTINUOUS
10
91.45
20
-85.4
11
90.55
21
-85.4
0
LINE
8
BLACK
6
CONTINUOUS
10
90.55
20
-85.4
11
90.55
21
-84.6
0
LINE
8
BLACK
6
CONTINUOUS
10
90.55
20
-84.6
11
91.45
21
-84.6
0
LINE
8
BLACK
6
CONTINUOUS
10
91.45
20
-84.6
11
91.45
21
-85.4
0
LINE
8
BLACK
6
CONTINUOUS
10
151.95
20
-85.4
11
151.15
21
-85.4
0
LINE
8
BLACK
6
CONTINUOUS
10
151.15
20
-85.4
11
151.15
21
-85.1
0
LINE
8
BLACK
6
CONTINUOUS
10
151.15
20
-85.1
11
151.95
21
-85.1
0
LINE
8
BLACK
6
CONTINUOUS
10
151.95
20
-85.1
11
151.95
21
-85.4
0
LINE
8
BLACK
6
CONTINUOUS
10
116.45
20
-85.4
11
115.55
21
-85.4
0
LINE
8
BLACK
6
CONTINUOUS
10
115.55
20
-85.4
11
115.55
21
-84.6
0
LINE
8
BLACK
6
CONTINUOUS
10
115.55
20
-84.6
11
116.45
21
-84.6
0
LINE
8
BLACK
6
CONTINUOUS
10
116.45
20
-84.6
11
116.45
21
-85.4
0
LINE
8
BLACK
6
CONTINUOUS
10
103.95
20
-85.4
11
103.05
21
-85.4
0
LINE
8
BLACK
6
CONTINUOUS
10
103.05
20
-85.4
11
103.05
21
-84.6
0
LINE
8
BLACK
6
CONTINUOUS
10
103.05
20
-84.6
11
103.95
21
-84.6
0
LINE
8
BLACK
6
CONTINUOUS
10
103.95
20
-84.6
11
103.95
21
-85.4
0
LINE
8
BLACK
6
CONTINUOUS
10
246.45
20
-85.335
11
245.15
21
-85.335
0
LINE
8
BLACK
6
CONTINUOUS
10
245.15
20
-85.335
11
245.15
21
-84.585
0
LINE
8
BLACK
6
CONTINUOUS
10
245.15
20
-84.585
11
246.45
21
-84.585
0
LINE
8
BLACK
6
CONTINUOUS
10
246.45
20
-84.585
11
246.45
21
-85.335
0
LINE
8
BLACK
6
CONTINUOUS
10
254.85
20
-85.335
11
253.55
21
-85.335
0
LINE
8
BLACK
6
CONTINUOUS
10
253.55
20
-85.335
11
253.55
21
-84.585
0
LINE
8
BLACK
6
CONTINUOUS
10
253.55
20
-84.585
11
254.85
21
-84.585
0
LINE
8
BLACK
6
CONTINUOUS
10
254.85
20
-84.585
11
254.85
21
-85.335
0
LINE
8
BLACK
6
CONTINUOUS
10
163.85
20
-85
11
162.65
21
-85
0
LINE
8
BLACK
6
CONTINUOUS
10
162.65
20
-85
11
162.65
21
-84.4
0
LINE
8
BLACK
6
CONTINUOUS
10
162.65
20
-84.4
11
163.85
21
-84.4
0
LINE
8
BLACK
6
CONTINUOUS
10
163.85
20
-84.4
11
163.85
21
-85
0
LINE
8
BLACK
6
CONTINUOUS
10
172.35
20
-85
11
171.15
21
-85
0
LINE
8
BLACK
6
CONTINUOUS
10
171.15
20
-85
11
171.15
21
-84.4
0
LINE
8
BLACK
6
CONTINUOUS
10
171.15
20
-84.4
11
172.35
21
-84.4
0
LINE
8
BLACK
6
CONTINUOUS
10
172.35
20
-84.4
11
172.35
21
-85
0
LINE
8
BLACK
6
CONTINUOUS
10
151.95
20
-84.9
11
151.15
21
-84.9
0
LINE
8
BLACK
6
CONTINUOUS
10
151.15
20
-84.9
11
151.15
21
-84.6
0
LINE
8
BLACK
6
CONTINUOUS
10
151.15
20
-84.6
11
151.95
21
-84.6
0
LINE
8
BLACK
6
CONTINUOUS
10
151.95
20
-84.6
11
151.95
21
-84.9
0
LINE
8
BLACK
6
CONTINUOUS
10
148.85
20
-84.9
11
148.05
21
-84.9
0
LINE
8
BLACK
6
CONTINUOUS
10
148.05
20
-84.9
11
148.05
21
-84.6
0
LINE
8
BLACK
6
CONTINUOUS
10
148.05
20
-84.6
11
148.85
21
-84.6
0
LINE
8
BLACK
6
CONTINUOUS
10
148.85
20
-84.6
11
148.85
21
-84.9
0
LINE
8
BLACK
6
CONTINUOUS
10
160.75
20
-84.53
11
159.25
21
-84.53
0
LINE
8
BLACK
6
CONTINUOUS
10
159.25
20
-84.53
11
159.25
21
-83.56
0
LINE
8
BLACK
6
CONTINUOUS
10
159.25
20
-83.56
11
160.75
21
-83.56
0
LINE
8
BLACK
6
CONTINUOUS
10
160.75
20
-83.56
11
160.75
21
-84.53
0
LINE
8
BLACK
6
CONTINUOUS
10
155.75
20
-84.53
11
154.25
21
-84.53
0
LINE
8
BLACK
6
CONTINUOUS
10
154.25
20
-84.53
11
154.25
21
-83.56
0
LINE
8
BLACK
6
CONTINUOUS
10
154.25
20
-83.56
11
155.75
21
-83.56
0
LINE
8
BLACK
6
CONTINUOUS
10
155.75
20
-83.56
11
155.75
21
-84.53
0
LINE
8
BLACK
6
CONTINUOUS
10
126.95
20
-84.45
11
126.05
21
-84.45
0
LINE
8
BLACK
6
CONTINUOUS
10
126.05
20
-84.45
11
126.05
21
-83.65
0
LINE
8
BLACK
6
CONTINUOUS
10
126.05
20
-83.65
11
126.95
21
-83.65
0
LINE
8
BLACK
6
CONTINUOUS
10
126.95
20
-83.65
11
126.95
21
-84.45
0
LINE
8
BLACK
6
CONTINUOUS
10
89.45
20
-84.45
11
88.55
21
-84.45
0
LINE
8
BLACK
6
CONTINUOUS
10
88.55
20
-84.45
11
88.55
21
-83.65
0
LINE
8
BLACK
6
CONTINUOUS
10
88.55
20
-83.65
11
89.45
21
-83.65
0
LINE
8
BLACK
6
CONTINUOUS
10
89.45
20
-83.65
11
89.45
21
-84.45
0
LINE
8
BLACK
6
CONTINUOUS
10
114.45
20
-84.45
11
113.55
21
-84.45
0
LINE
8
BLACK
6
CONTINUOUS
10
113.55
20
-84.45
11
113.55
21
-83.65
0
LINE
8
BLACK
6
CONTINUOUS
10
113.55
20
-83.65
11
114.45
21
-83.65
0
LINE
8
BLACK
6
CONTINUOUS
10
114.45
20
-83.65
11
114.45
21
-84.45
0
LINE
8
BLACK
6
CONTINUOUS
10
101.95
20
-84.45
11
101.05
21
-84.45
0
LINE
8
BLACK
6
CONTINUOUS
10
101.05
20
-84.45
11
101.05
21
-83.65
0
LINE
8
BLACK
6
CONTINUOUS
10
101.05
20
-83.65
11
101.95
21
-83.65
0
LINE
8
BLACK
6
CONTINUOUS
10
101.95
20
-83.65
11
101.95
21
-84.45
0
LINE
8
BLACK
6
CONTINUOUS
10
180.85
20
-84.4
11
179.95
21
-84.4
0
LINE
8
BLACK
6
CONTINUOUS
10
179.95
20
-84.4
11
179.95
21
-84.1
0
LINE
8
BLACK
6
CONTINUOUS
10
179.95
20
-84.1
11
180.85
21
-84.1
0
LINE
8
BLACK
6
CONTINUOUS
10
180.85
20
-84.1
11
180.85
21
-84.4
0
LINE
8
BLACK
6
CONTINUOUS
10
185.05
20
-84.4
11
184.15
21
-84.4
0
LINE
8
BLACK
6
CONTINUOUS
10
184.15
20
-84.4
11
184.15
21
-84.1
0
LINE
8
BLACK
6
CONTINUOUS
10
184.15
20
-84.1
11
185.05
21
-84.1
0
LINE
8
BLACK
6
CONTINUOUS
10
185.05
20
-84.1
11
185.05
21
-84.4
0
LINE
8
BLACK
6
CONTINUOUS
10
151.95
20
-84.4
11
151.15
21
-84.4
0
LINE
8
BLACK
6
CONTINUOUS
10
151.15
20
-84.4
11
151.15
21
-84.1
0
LINE
8
BLACK
6
CONTINUOUS
10
151.15
20
-84.1
11
151.95
21
-84.1
0
LINE
8
BLACK
6
CONTINUOUS
10
151.95
20
-84.1
11
151.95
21
-84.4
0
LINE
8
BLACK
6
CONTINUOUS
10
148.85
20
-84.4
11
148.05
21
-84.4
0
LINE
8
BLACK
6
CONTINUOUS
10
148.05
20
-84.4
11
148.05
21
-84.1
0
LINE
8
BLACK
6
CONTINUOUS
10
148.05
20
-84.1
11
148.85
21
-84.1
0
LINE
8
BLACK
6
CONTINUOUS
10
148.85
20
-84.1
11
148.85
21
-84.4
0
LINE
8
BLACK
6
CONTINUOUS
10
178.25
20
-83.94
11
176.75
21
-83.94
0
LINE
8
BLACK
6
CONTINUOUS
10
176.75
20
-83.94
11
176.75
21
-82.97
0
LINE
8
BLACK
6
CONTINUOUS
10
176.75
20
-82.97
11
178.25
21
-82.97
0
LINE
8
BLACK
6
CONTINUOUS
10
178.25
20
-82.97
11
178.25
21
-83.94
0
LINE
8
BLACK
6
CONTINUOUS
10
185.05
20
-83.9
11
184.15
21
-83.9
0
LINE
8
BLACK
6
CONTINUOUS
10
184.15
20
-83.9
11
184.15
21
-83.6
0
LINE
8
BLACK
6
CONTINUOUS
10
184.15
20
-83.6
11
185.05
21
-83.6
0
LINE
8
BLACK
6
CONTINUOUS
10
185.05
20
-83.6
11
185.05
21
-83.9
0
LINE
8
BLACK
6
CONTINUOUS
10
180.85
20
-83.9
11
179.95
21
-83.9
0
LINE
8
BLACK
6
CONTINUOUS
10
179.95
20
-83.9
11
179.95
21
-83.6
0
LINE
8
BLACK
6
CONTINUOUS
10
179.95
20
-83.6
11
180.85
21
-83.6
0
LINE
8
BLACK
6
CONTINUOUS
10
180.85
20
-83.6
11
180.85
21
-83.9
0
LINE
8
BLACK
6
CONTINUOUS
10
169.8
20
-83.85
11
169.2
21
-83.85
0
LINE
8
BLACK
6
CONTINUOUS
10
169.2
20
-83.85
11
169.2
21
-82.65
0
LINE
8
BLACK
6
CONTINUOUS
10
169.2
20
-82.65
11
169.8
21
-82.65
0
LINE
8
BLACK
6
CONTINUOUS
10
169.8
20
-82.65
11
169.8
21
-83.85
0
LINE
8
BLACK
6
CONTINUOUS
10
170.6
20
-83.85
11
170
21
-83.85
0
LINE
8
BLACK
6
CONTINUOUS
10
170
20
-83.85
11
170
21
-82.65
0
LINE
8
BLACK
6
CONTINUOUS
10
170
20
-82.65
11
170.6
21
-82.65
0
LINE
8
BLACK
6
CONTINUOUS
10
170.6
20
-82.65
11
170.6
21
-83.85
0
LINE
8
BLACK
6
CONTINUOUS
10
169
20
-83.85
11
168.4
21
-83.85
0
LINE
8
BLACK
6
CONTINUOUS
10
168.4
20
-83.85
11
168.4
21
-82.65
0
LINE
8
BLACK
6
CONTINUOUS
10
168.4
20
-82.65
11
169
21
-82.65
0
LINE
8
BLACK
6
CONTINUOUS
10
169
20
-82.65
11
169
21
-83.85
0
LINE
8
BLACK
6
CONTINUOUS
10
168.2
20
-83.85
11
167.6
21
-83.85
0
LINE
8
BLACK
6
CONTINUOUS
10
167.6
20
-83.85
11
167.6
21
-82.65
0
LINE
8
BLACK
6
CONTINUOUS
10
167.6
20
-82.65
11
168.2
21
-82.65
0
LINE
8
BLACK
6
CONTINUOUS
10
168.2
20
-82.65
11
168.2
21
-83.85
0
LINE
8
BLACK
6
CONTINUOUS
10
167.4
20
-83.85
11
166.8
21
-83.85
0
LINE
8
BLACK
6
CONTINUOUS
10
166.8
20
-83.85
11
166.8
21
-82.65
0
LINE
8
BLACK
6
CONTINUOUS
10
166.8
20
-82.65
11
167.4
21
-82.65
0
LINE
8
BLACK
6
CONTINUOUS
10
167.4
20
-82.65
11
167.4
21
-83.85
0
LINE
8
BLACK
6
CONTINUOUS
10
166.6
20
-83.85
11
166
21
-83.85
0
LINE
8
BLACK
6
CONTINUOUS
10
166
20
-83.85
11
166
21
-82.65
0
LINE
8
BLACK
6
CONTINUOUS
10
166
20
-82.65
11
166.6
21
-82.65
0
LINE
8
BLACK
6
CONTINUOUS
10
166.6
20
-82.65
11
166.6
21
-83.85
0
LINE
8
BLACK
6
CONTINUOUS
10
165.8
20
-83.85
11
165.2
21
-83.85
0
LINE
8
BLACK
6
CONTINUOUS
10
165.2
20
-83.85
11
165.2
21
-82.65
0
LINE
8
BLACK
6
CONTINUOUS
10
165.2
20
-82.65
11
165.8
21
-82.65
0
LINE
8
BLACK
6
CONTINUOUS
10
165.8
20
-82.65
11
165.8
21
-83.85
0
LINE
8
BLACK
6
CONTINUOUS
10
165
20
-83.85
11
164.4
21
-83.85
0
LINE
8
BLACK
6
CONTINUOUS
10
164.4
20
-83.85
11
164.4
21
-82.65
0
LINE
8
BLACK
6
CONTINUOUS
10
164.4
20
-82.65
11
165
21
-82.65
0
LINE
8
BLACK
6
CONTINUOUS
10
165
20
-82.65
11
165
21
-83.85
0
LINE
8
BLACK
6
CONTINUOUS
10
185.05
20
-83.4
11
184.15
21
-83.4
0
LINE
8
BLACK
6
CONTINUOUS
10
184.15
20
-83.4
11
184.15
21
-83.1
0
LINE
8
BLACK
6
CONTINUOUS
10
184.15
20
-83.1
11
185.05
21
-83.1
0
LINE
8
BLACK
6
CONTINUOUS
10
185.05
20
-83.1
11
185.05
21
-83.4
0
LINE
8
BLACK
6
CONTINUOUS
10
180.85
20
-83.4
11
179.95
21
-83.4
0
LINE
8
BLACK
6
CONTINUOUS
10
179.95
20
-83.4
11
179.95
21
-83.1
0
LINE
8
BLACK
6
CONTINUOUS
10
179.95
20
-83.1
11
180.85
21
-83.1
0
LINE
8
BLACK
6
CONTINUOUS
10
180.85
20
-83.1
11
180.85
21
-83.4
0
LINE
8
BLACK
6
CONTINUOUS
10
187.03
20
-83.25
11
186.06
21
-83.25
0
LINE
8
BLACK
6
CONTINUOUS
10
186.06
20
-83.25
11
186.06
21
-81.75
0
LINE
8
BLACK
6
CONTINUOUS
10
186.06
20
-81.75
11
187.03
21
-81.75
0
LINE
8
BLACK
6
CONTINUOUS
10
187.03
20
-81.75
11
187.03
21
-83.25
0
LINE
8
BLACK
6
CONTINUOUS
10
188.94
20
-83.25
11
187.97
21
-83.25
0
LINE
8
BLACK
6
CONTINUOUS
10
187.97
20
-83.25
11
187.97
21
-81.75
0
LINE
8
BLACK
6
CONTINUOUS
10
187.97
20
-81.75
11
188.94
21
-81.75
0
LINE
8
BLACK
6
CONTINUOUS
10
188.94
20
-81.75
11
188.94
21
-83.25
0
LINE
8
BLACK
6
CONTINUOUS
10
185.05
20
-82.9
11
184.15
21
-82.9
0
LINE
8
BLACK
6
CONTINUOUS
10
184.15
20
-82.9
11
184.15
21
-82.6
0
LINE
8
BLACK
6
CONTINUOUS
10
184.15
20
-82.6
11
185.05
21
-82.6
0
LINE
8
BLACK
6
CONTINUOUS
10
185.05
20
-82.6
11
185.05
21
-82.9
0
LINE
8
BLACK
6
CONTINUOUS
10
180.85
20
-82.9
11
179.95
21
-82.9
0
LINE
8
BLACK
6
CONTINUOUS
10
179.95
20
-82.9
11
179.95
21
-82.6
0
LINE
8
BLACK
6
CONTINUOUS
10
179.95
20
-82.6
11
180.85
21
-82.6
0
LINE
8
BLACK
6
CONTINUOUS
10
180.85
20
-82.6
11
180.85
21
-82.9
0
LINE
8
BLACK
6
CONTINUOUS
10
180.85
20
-82.4
11
179.95
21
-82.4
0
LINE
8
BLACK
6
CONTINUOUS
10
179.95
20
-82.4
11
179.95
21
-82.1
0
LINE
8
BLACK
6
CONTINUOUS
10
179.95
20
-82.1
11
180.85
21
-82.1
0
LINE
8
BLACK
6
CONTINUOUS
10
180.85
20
-82.1
11
180.85
21
-82.4
0
LINE
8
BLACK
6
CONTINUOUS
10
185.05
20
-82.4
11
184.15
21
-82.4
0
LINE
8
BLACK
6
CONTINUOUS
10
184.15
20
-82.4
11
184.15
21
-82.1
0
LINE
8
BLACK
6
CONTINUOUS
10
184.15
20
-82.1
11
185.05
21
-82.1
0
LINE
8
BLACK
6
CONTINUOUS
10
185.05
20
-82.1
11
185.05
21
-82.4
0
LINE
8
BLACK
6
CONTINUOUS
10
178.25
20
-82.03
11
176.75
21
-82.03
0
LINE
8
BLACK
6
CONTINUOUS
10
176.75
20
-82.03
11
176.75
21
-81.06
0
LINE
8
BLACK
6
CONTINUOUS
10
176.75
20
-81.06
11
178.25
21
-81.06
0
LINE
8
BLACK
6
CONTINUOUS
10
178.25
20
-81.06
11
178.25
21
-82.03
0
LINE
8
BLACK
6
CONTINUOUS
10
185.05
20
-81.9
11
184.15
21
-81.9
0
LINE
8
BLACK
6
CONTINUOUS
10
184.15
20
-81.9
11
184.15
21
-81.6
0
LINE
8
BLACK
6
CONTINUOUS
10
184.15
20
-81.6
11
185.05
21
-81.6
0
LINE
8
BLACK
6
CONTINUOUS
10
185.05
20
-81.6
11
185.05
21
-81.9
0
LINE
8
BLACK
6
CONTINUOUS
10
180.85
20
-81.9
11
179.95
21
-81.9
0
LINE
8
BLACK
6
CONTINUOUS
10
179.95
20
-81.9
11
179.95
21
-81.6
0
LINE
8
BLACK
6
CONTINUOUS
10
179.95
20
-81.6
11
180.85
21
-81.6
0
LINE
8
BLACK
6
CONTINUOUS
10
180.85
20
-81.6
11
180.85
21
-81.9
0
LINE
8
BLACK
6
CONTINUOUS
10
180.85
20
-81.4
11
179.95
21
-81.4
0
LINE
8
BLACK
6
CONTINUOUS
10
179.95
20
-81.4
11
179.95
21
-81.1
0
LINE
8
BLACK
6
CONTINUOUS
10
179.95
20
-81.1
11
180.85
21
-81.1
0
LINE
8
BLACK
6
CONTINUOUS
10
180.85
20
-81.1
11
180.85
21
-81.4
0
LINE
8
BLACK
6
CONTINUOUS
10
185.05
20
-81.4
11
184.15
21
-81.4
0
LINE
8
BLACK
6
CONTINUOUS
10
184.15
20
-81.4
11
184.15
21
-81.1
0
LINE
8
BLACK
6
CONTINUOUS
10
184.15
20
-81.1
11
185.05
21
-81.1
0
LINE
8
BLACK
6
CONTINUOUS
10
185.05
20
-81.1
11
185.05
21
-81.4
0
LINE
8
BLACK
6
CONTINUOUS
10
264.35
20
-81.225
11
263.35
21
-81.225
0
LINE
8
BLACK
6
CONTINUOUS
10
263.35
20
-81.225
11
263.35
21
-80.675
0
LINE
8
BLACK
6
CONTINUOUS
10
263.35
20
-80.675
11
264.35
21
-80.675
0
LINE
8
BLACK
6
CONTINUOUS
10
264.35
20
-80.675
11
264.35
21
-81.225
0
LINE
8
BLACK
6
CONTINUOUS
10
261.65
20
-81.225
11
260.65
21
-81.225
0
LINE
8
BLACK
6
CONTINUOUS
10
260.65
20
-81.225
11
260.65
21
-80.675
0
LINE
8
BLACK
6
CONTINUOUS
10
260.65
20
-80.675
11
261.65
21
-80.675
0
LINE
8
BLACK
6
CONTINUOUS
10
261.65
20
-80.675
11
261.65
21
-81.225
0
LINE
8
BLACK
6
CONTINUOUS
10
180.85
20
-80.9
11
179.95
21
-80.9
0
LINE
8
BLACK
6
CONTINUOUS
10
179.95
20
-80.9
11
179.95
21
-80.6
0
LINE
8
BLACK
6
CONTINUOUS
10
179.95
20
-80.6
11
180.85
21
-80.6
0
LINE
8
BLACK
6
CONTINUOUS
10
180.85
20
-80.6
11
180.85
21
-80.9
0
LINE
8
BLACK
6
CONTINUOUS
10
185.05
20
-80.9
11
184.15
21
-80.9
0
LINE
8
BLACK
6
CONTINUOUS
10
184.15
20
-80.9
11
184.15
21
-80.6
0
LINE
8
BLACK
6
CONTINUOUS
10
184.15
20
-80.6
11
185.05
21
-80.6
0
LINE
8
BLACK
6
CONTINUOUS
10
185.05
20
-80.6
11
185.05
21
-80.9
0
LINE
8
BLACK
6
CONTINUOUS
10
187.03
20
-80.75
11
186.06
21
-80.75
0
LINE
8
BLACK
6
CONTINUOUS
10
186.06
20
-80.75
11
186.06
21
-79.25
0
LINE
8
BLACK
6
CONTINUOUS
10
186.06
20
-79.25
11
187.03
21
-79.25
0
LINE
8
BLACK
6
CONTINUOUS
10
187.03
20
-79.25
11
187.03
21
-80.75
0
LINE
8
BLACK
6
CONTINUOUS
10
188.94
20
-80.75
11
187.97
21
-80.75
0
LINE
8
BLACK
6
CONTINUOUS
10
187.97
20
-80.75
11
187.97
21
-79.25
0
LINE
8
BLACK
6
CONTINUOUS
10
187.97
20
-79.25
11
188.94
21
-79.25
0
LINE
8
BLACK
6
CONTINUOUS
10
188.94
20
-79.25
11
188.94
21
-80.75
0
LINE
8
BLACK
6
CONTINUOUS
10
264.35
20
-80.275
11
263.35
21
-80.275
0
LINE
8
BLACK
6
CONTINUOUS
10
263.35
20
-80.275
11
263.35
21
-79.725
0
LINE
8
BLACK
6
CONTINUOUS
10
263.35
20
-79.725
11
264.35
21
-79.725
0
LINE
8
BLACK
6
CONTINUOUS
10
264.35
20
-79.725
11
264.35
21
-80.275
0
LINE
8
BLACK
6
CONTINUOUS
10
261.65
20
-80.275
11
260.65
21
-80.275
0
LINE
8
BLACK
6
CONTINUOUS
10
260.65
20
-80.275
11
260.65
21
-79.725
0
LINE
8
BLACK
6
CONTINUOUS
10
260.65
20
-79.725
11
261.65
21
-79.725
0
LINE
8
BLACK
6
CONTINUOUS
10
261.65
20
-79.725
11
261.65
21
-80.275
0
LINE
8
BLACK
6
CONTINUOUS
10
261.65
20
-79.325
11
260.65
21
-79.325
0
LINE
8
BLACK
6
CONTINUOUS
10
260.65
20
-79.325
11
260.65
21
-78.775
0
LINE
8
BLACK
6
CONTINUOUS
10
260.65
20
-78.775
11
261.65
21
-78.775
0
LINE
8
BLACK
6
CONTINUOUS
10
261.65
20
-78.775
11
261.65
21
-79.325
0
LINE
8
BLACK
6
CONTINUOUS
10
264.35
20
-79.325
11
263.35
21
-79.325
0
LINE
8
BLACK
6
CONTINUOUS
10
263.35
20
-79.325
11
263.35
21
-78.775
0
LINE
8
BLACK
6
CONTINUOUS
10
263.35
20
-78.775
11
264.35
21
-78.775
0
LINE
8
BLACK
6
CONTINUOUS
10
264.35
20
-78.775
11
264.35
21
-79.325
0
LINE
8
BLACK
6
CONTINUOUS
10
333.05
20
-78.615
11
327.45
21
-78.615
0
LINE
8
BLACK
6
CONTINUOUS
10
327.45
20
-78.615
11
327.45
21
-71.385
0
LINE
8
BLACK
6
CONTINUOUS
10
327.45
20
-71.385
11
333.05
21
-71.385
0
LINE
8
BLACK
6
CONTINUOUS
10
333.05
20
-71.385
11
333.05
21
-78.615
0
LINE
8
BLACK
6
CONTINUOUS
10
322.55
20
-78.615
11
316.95
21
-78.615
0
LINE
8
BLACK
6
CONTINUOUS
10
316.95
20
-78.615
11
316.95
21
-71.385
0
LINE
8
BLACK
6
CONTINUOUS
10
316.95
20
-71.385
11
322.55
21
-71.385
0
LINE
8
BLACK
6
CONTINUOUS
10
322.55
20
-71.385
11
322.55
21
-78.615
0
LINE
8
BLACK
6
CONTINUOUS
10
188.94
20
-78.25
11
187.97
21
-78.25
0
LINE
8
BLACK
6
CONTINUOUS
10
187.97
20
-78.25
11
187.97
21
-76.75
0
LINE
8
BLACK
6
CONTINUOUS
10
187.97
20
-76.75
11
188.94
21
-76.75
0
LINE
8
BLACK
6
CONTINUOUS
10
188.94
20
-76.75
11
188.94
21
-78.25
0
LINE
8
BLACK
6
CONTINUOUS
10
187.03
20
-78.25
11
186.06
21
-78.25
0
LINE
8
BLACK
6
CONTINUOUS
10
186.06
20
-78.25
11
186.06
21
-76.75
0
LINE
8
BLACK
6
CONTINUOUS
10
186.06
20
-76.75
11
187.03
21
-76.75
0
LINE
8
BLACK
6
CONTINUOUS
10
187.03
20
-76.75
11
187.03
21
-78.25
0
LINE
8
BLACK
6
CONTINUOUS
10
262.03
20
-77.25
11
261.06
21
-77.25
0
LINE
8
BLACK
6
CONTINUOUS
10
261.06
20
-77.25
11
261.06
21
-75.75
0
LINE
8
BLACK
6
CONTINUOUS
10
261.06
20
-75.75
11
262.03
21
-75.75
0
LINE
8
BLACK
6
CONTINUOUS
10
262.03
20
-75.75
11
262.03
21
-77.25
0
LINE
8
BLACK
6
CONTINUOUS
10
263.94
20
-77.25
11
262.97
21
-77.25
0
LINE
8
BLACK
6
CONTINUOUS
10
262.97
20
-77.25
11
262.97
21
-75.75
0
LINE
8
BLACK
6
CONTINUOUS
10
262.97
20
-75.75
11
263.94
21
-75.75
0
LINE
8
BLACK
6
CONTINUOUS
10
263.94
20
-75.75
11
263.94
21
-77.25
0
LINE
8
BLACK
6
CONTINUOUS
10
170.85
20
-77.205
11
169.45
21
-77.205
0
LINE
8
BLACK
6
CONTINUOUS
10
169.45
20
-77.205
11
169.45
21
-76.605
0
LINE
8
BLACK
6
CONTINUOUS
10
169.45
20
-76.605
11
170.85
21
-76.605
0
LINE
8
BLACK
6
CONTINUOUS
10
170.85
20
-76.605
11
170.85
21
-77.205
0
LINE
8
BLACK
6
CONTINUOUS
10
165.55
20
-77.205
11
164.15
21
-77.205
0
LINE
8
BLACK
6
CONTINUOUS
10
164.15
20
-77.205
11
164.15
21
-76.605
0
LINE
8
BLACK
6
CONTINUOUS
10
164.15
20
-76.605
11
165.55
21
-76.605
0
LINE
8
BLACK
6
CONTINUOUS
10
165.55
20
-76.605
11
165.55
21
-77.205
0
LINE
8
BLACK
6
CONTINUOUS
10
155.9
20
-76.885
11
154.1
21
-76.885
0
LINE
8
BLACK
6
CONTINUOUS
10
154.1
20
-76.885
11
154.1
21
-75.815
0
LINE
8
BLACK
6
CONTINUOUS
10
154.1
20
-75.815
11
155.9
21
-75.815
0
LINE
8
BLACK
6
CONTINUOUS
10
155.9
20
-75.815
11
155.9
21
-76.885
0
LINE
8
BLACK
6
CONTINUOUS
10
70.21
20
-76.75
11
69.14
21
-76.75
0
LINE
8
BLACK
6
CONTINUOUS
10
69.14
20
-76.75
11
69.14
21
-73.25
0
LINE
8
BLACK
6
CONTINUOUS
10
69.14
20
-73.25
11
70.21
21
-73.25
0
LINE
8
BLACK
6
CONTINUOUS
10
70.21
20
-73.25
11
70.21
21
-76.75
0
LINE
8
BLACK
6
CONTINUOUS
10
65.86
20
-76.75
11
64.79
21
-76.75
0
LINE
8
BLACK
6
CONTINUOUS
10
64.79
20
-76.75
11
64.79
21
-73.25
0
LINE
8
BLACK
6
CONTINUOUS
10
64.79
20
-73.25
11
65.86
21
-73.25
0
LINE
8
BLACK
6
CONTINUOUS
10
65.86
20
-73.25
11
65.86
21
-76.75
0
LINE
8
BLACK
6
CONTINUOUS
10
55.21
20
-76.75
11
54.14
21
-76.75
0
LINE
8
BLACK
6
CONTINUOUS
10
54.14
20
-76.75
11
54.14
21
-73.25
0
LINE
8
BLACK
6
CONTINUOUS
10
54.14
20
-73.25
11
55.21
21
-73.25
0
LINE
8
BLACK
6
CONTINUOUS
10
55.21
20
-73.25
11
55.21
21
-76.75
0
LINE
8
BLACK
6
CONTINUOUS
10
50.86
20
-76.75
11
49.79
21
-76.75
0
LINE
8
BLACK
6
CONTINUOUS
10
49.79
20
-76.75
11
49.79
21
-73.25
0
LINE
8
BLACK
6
CONTINUOUS
10
49.79
20
-73.25
11
50.86
21
-73.25
0
LINE
8
BLACK
6
CONTINUOUS
10
50.86
20
-73.25
11
50.86
21
-76.75
0
LINE
8
BLACK
6
CONTINUOUS
10
146.44
20
-76.705
11
145.47
21
-76.705
0
LINE
8
BLACK
6
CONTINUOUS
10
145.47
20
-76.705
11
145.47
21
-75.205
0
LINE
8
BLACK
6
CONTINUOUS
10
145.47
20
-75.205
11
146.44
21
-75.205
0
LINE
8
BLACK
6
CONTINUOUS
10
146.44
20
-75.205
11
146.44
21
-76.705
0
LINE
8
BLACK
6
CONTINUOUS
10
144.53
20
-76.705
11
143.56
21
-76.705
0
LINE
8
BLACK
6
CONTINUOUS
10
143.56
20
-76.705
11
143.56
21
-75.205
0
LINE
8
BLACK
6
CONTINUOUS
10
143.56
20
-75.205
11
144.53
21
-75.205
0
LINE
8
BLACK
6
CONTINUOUS
10
144.53
20
-75.205
11
144.53
21
-76.705
0
LINE
8
BLACK
6
CONTINUOUS
10
173.25
20
-76.44
11
171.75
21
-76.44
0
LINE
8
BLACK
6
CONTINUOUS
10
171.75
20
-76.44
11
171.75
21
-75.47
0
LINE
8
BLACK
6
CONTINUOUS
10
171.75
20
-75.47
11
173.25
21
-75.47
0
LINE
8
BLACK
6
CONTINUOUS
10
173.25
20
-75.47
11
173.25
21
-76.44
0
LINE
8
BLACK
6
CONTINUOUS
10
101.95
20
-76.35
11
101.05
21
-76.35
0
LINE
8
BLACK
6
CONTINUOUS
10
101.05
20
-76.35
11
101.05
21
-75.55
0
LINE
8
BLACK
6
CONTINUOUS
10
101.05
20
-75.55
11
101.95
21
-75.55
0
LINE
8
BLACK
6
CONTINUOUS
10
101.95
20
-75.55
11
101.95
21
-76.35
0
LINE
8
BLACK
6
CONTINUOUS
10
89.45
20
-76.35
11
88.55
21
-76.35
0
LINE
8
BLACK
6
CONTINUOUS
10
88.55
20
-76.35
11
88.55
21
-75.55
0
LINE
8
BLACK
6
CONTINUOUS
10
88.55
20
-75.55
11
89.45
21
-75.55
0
LINE
8
BLACK
6
CONTINUOUS
10
89.45
20
-75.55
11
89.45
21
-76.35
0
LINE
8
BLACK
6
CONTINUOUS
10
114.45
20
-76.35
11
113.55
21
-76.35
0
LINE
8
BLACK
6
CONTINUOUS
10
113.55
20
-76.35
11
113.55
21
-75.55
0
LINE
8
BLACK
6
CONTINUOUS
10
113.55
20
-75.55
11
114.45
21
-75.55
0
LINE
8
BLACK
6
CONTINUOUS
10
114.45
20
-75.55
11
114.45
21
-76.35
0
LINE
8
BLACK
6
CONTINUOUS
10
126.95
20
-76.35
11
126.05
21
-76.35
0
LINE
8
BLACK
6
CONTINUOUS
10
126.05
20
-76.35
11
126.05
21
-75.55
0
LINE
8
BLACK
6
CONTINUOUS
10
126.05
20
-75.55
11
126.95
21
-75.55
0
LINE
8
BLACK
6
CONTINUOUS
10
126.95
20
-75.55
11
126.95
21
-76.35
0
LINE
8
BLACK
6
CONTINUOUS
10
148.525
20
-76.2
11
147.075
21
-76.2
0
LINE
8
BLACK
6
CONTINUOUS
10
147.075
20
-76.2
11
147.075
21
-75.75
0
LINE
8
BLACK
6
CONTINUOUS
10
147.075
20
-75.75
11
148.525
21
-75.75
0
LINE
8
BLACK
6
CONTINUOUS
10
148.525
20
-75.75
11
148.525
21
-76.2
0
LINE
8
BLACK
6
CONTINUOUS
10
152.925
20
-76.2
11
151.475
21
-76.2
0
LINE
8
BLACK
6
CONTINUOUS
10
151.475
20
-76.2
11
151.475
21
-75.75
0
LINE
8
BLACK
6
CONTINUOUS
10
151.475
20
-75.75
11
152.925
21
-75.75
0
LINE
8
BLACK
6
CONTINUOUS
10
152.925
20
-75.75
11
152.925
21
-76.2
0
LINE
8
BLACK
6
CONTINUOUS
10
170.85
20
-75.935
11
169.45
21
-75.935
0
LINE
8
BLACK
6
CONTINUOUS
10
169.45
20
-75.935
11
169.45
21
-75.335
0
LINE
8
BLACK
6
CONTINUOUS
10
169.45
20
-75.335
11
170.85
21
-75.335
0
LINE
8
BLACK
6
CONTINUOUS
10
170.85
20
-75.335
11
170.85
21
-75.935
0
LINE
8
BLACK
6
CONTINUOUS
10
165.55
20
-75.935
11
164.15
21
-75.935
0
LINE
8
BLACK
6
CONTINUOUS
10
164.15
20
-75.935
11
164.15
21
-75.335
0
LINE
8
BLACK
6
CONTINUOUS
10
164.15
20
-75.335
11
165.55
21
-75.335
0
LINE
8
BLACK
6
CONTINUOUS
10
165.55
20
-75.335
11
165.55
21
-75.935
0
LINE
8
BLACK
6
CONTINUOUS
10
148.525
20
-75.55
11
147.075
21
-75.55
0
LINE
8
BLACK
6
CONTINUOUS
10
147.075
20
-75.55
11
147.075
21
-75.1
0
LINE
8
BLACK
6
CONTINUOUS
10
147.075
20
-75.1
11
148.525
21
-75.1
0
LINE
8
BLACK
6
CONTINUOUS
10
148.525
20
-75.1
11
148.525
21
-75.55
0
LINE
8
BLACK
6
CONTINUOUS
10
152.925
20
-75.55
11
151.475
21
-75.55
0
LINE
8
BLACK
6
CONTINUOUS
10
151.475
20
-75.55
11
151.475
21
-75.1
0
LINE
8
BLACK
6
CONTINUOUS
10
151.475
20
-75.1
11
152.925
21
-75.1
0
LINE
8
BLACK
6
CONTINUOUS
10
152.925
20
-75.1
11
152.925
21
-75.55
0
LINE
8
BLACK
6
CONTINUOUS
10
116.45
20
-75.4
11
115.55
21
-75.4
0
LINE
8
BLACK
6
CONTINUOUS
10
115.55
20
-75.4
11
115.55
21
-74.6
0
LINE
8
BLACK
6
CONTINUOUS
10
115.55
20
-74.6
11
116.45
21
-74.6
0
LINE
8
BLACK
6
CONTINUOUS
10
116.45
20
-74.6
11
116.45
21
-75.4
0
LINE
8
BLACK
6
CONTINUOUS
10
103.95
20
-75.4
11
103.05
21
-75.4
0
LINE
8
BLACK
6
CONTINUOUS
10
103.05
20
-75.4
11
103.05
21
-74.6
0
LINE
8
BLACK
6
CONTINUOUS
10
103.05
20
-74.6
11
103.95
21
-74.6
0
LINE
8
BLACK
6
CONTINUOUS
10
103.95
20
-74.6
11
103.95
21
-75.4
0
LINE
8
BLACK
6
CONTINUOUS
10
91.45
20
-75.4
11
90.55
21
-75.4
0
LINE
8
BLACK
6
CONTINUOUS
10
90.55
20
-75.4
11
90.55
21
-74.6
0
LINE
8
BLACK
6
CONTINUOUS
10
90.55
20
-74.6
11
91.45
21
-74.6
0
LINE
8
BLACK
6
CONTINUOUS
10
91.45
20
-74.6
11
91.45
21
-75.4
0
LINE
8
BLACK
6
CONTINUOUS
10
128.95
20
-75.4
11
128.05
21
-75.4
0
LINE
8
BLACK
6
CONTINUOUS
10
128.05
20
-75.4
11
128.05
21
-74.6
0
LINE
8
BLACK
6
CONTINUOUS
10
128.05
20
-74.6
11
128.95
21
-74.6
0
LINE
8
BLACK
6
CONTINUOUS
10
128.95
20
-74.6
11
128.95
21
-75.4
0
LINE
8
BLACK
6
CONTINUOUS
10
269.235
20
-75
11
268.815
21
-75
0
LINE
8
BLACK
6
CONTINUOUS
10
268.815
20
-75
11
268.815
21
-74.1
0
LINE
8
BLACK
6
CONTINUOUS
10
268.815
20
-74.1
11
269.235
21
-74.1
0
LINE
8
BLACK
6
CONTINUOUS
10
269.235
20
-74.1
11
269.235
21
-75
0
LINE
8
BLACK
6
CONTINUOUS
10
269.885
20
-75
11
269.465
21
-75
0
LINE
8
BLACK
6
CONTINUOUS
10
269.465
20
-75
11
269.465
21
-74.1
0
LINE
8
BLACK
6
CONTINUOUS
10
269.465
20
-74.1
11
269.885
21
-74.1
0
LINE
8
BLACK
6
CONTINUOUS
10
269.885
20
-74.1
11
269.885
21
-75
0
LINE
8
BLACK
6
CONTINUOUS
10
270.535
20
-75
11
270.115
21
-75
0
LINE
8
BLACK
6
CONTINUOUS
10
270.115
20
-75
11
270.115
21
-74.1
0
LINE
8
BLACK
6
CONTINUOUS
10
270.115
20
-74.1
11
270.535
21
-74.1
0
LINE
8
BLACK
6
CONTINUOUS
10
270.535
20
-74.1
11
270.535
21
-75
0
LINE
8
BLACK
6
CONTINUOUS
10
271.185
20
-75
11
270.765
21
-75
0
LINE
8
BLACK
6
CONTINUOUS
10
270.765
20
-75
11
270.765
21
-74.1
0
LINE
8
BLACK
6
CONTINUOUS
10
270.765
20
-74.1
11
271.185
21
-74.1
0
LINE
8
BLACK
6
CONTINUOUS
10
271.185
20
-74.1
11
271.185
21
-75
0
LINE
8
BLACK
6
CONTINUOUS
10
152.925
20
-74.9
11
151.475
21
-74.9
0
LINE
8
BLACK
6
CONTINUOUS
10
151.475
20
-74.9
11
151.475
21
-74.45
0
LINE
8
BLACK
6
CONTINUOUS
10
151.475
20
-74.45
11
152.925
21
-74.45
0
LINE
8
BLACK
6
CONTINUOUS
10
152.925
20
-74.45
11
152.925
21
-74.9
0
LINE
8
BLACK
6
CONTINUOUS
10
148.525
20
-74.9
11
147.075
21
-74.9
0
LINE
8
BLACK
6
CONTINUOUS
10
147.075
20
-74.9
11
147.075
21
-74.45
0
LINE
8
BLACK
6
CONTINUOUS
10
147.075
20
-74.45
11
148.525
21
-74.45
0
LINE
8
BLACK
6
CONTINUOUS
10
148.525
20
-74.45
11
148.525
21
-74.9
0
LINE
8
BLACK
6
CONTINUOUS
10
255.65
20
-74.745
11
253.65
21
-74.745
0
LINE
8
BLACK
6
CONTINUOUS
10
253.65
20
-74.745
11
253.65
21
-74.145
0
LINE
8
BLACK
6
CONTINUOUS
10
253.65
20
-74.145
11
255.65
21
-74.145
0
LINE
8
BLACK
6
CONTINUOUS
10
255.65
20
-74.145
11
255.65
21
-74.745
0
LINE
8
BLACK
6
CONTINUOUS
10
246.35
20
-74.745
11
244.35
21
-74.745
0
LINE
8
BLACK
6
CONTINUOUS
10
244.35
20
-74.745
11
244.35
21
-74.145
0
LINE
8
BLACK
6
CONTINUOUS
10
244.35
20
-74.145
11
246.35
21
-74.145
0
LINE
8
BLACK
6
CONTINUOUS
10
246.35
20
-74.145
11
246.35
21
-74.745
0
LINE
8
BLACK
6
CONTINUOUS
10
265.85
20
-74.705
11
264.45
21
-74.705
0
LINE
8
BLACK
6
CONTINUOUS
10
264.45
20
-74.705
11
264.45
21
-74.105
0
LINE
8
BLACK
6
CONTINUOUS
10
264.45
20
-74.105
11
265.85
21
-74.105
0
LINE
8
BLACK
6
CONTINUOUS
10
265.85
20
-74.105
11
265.85
21
-74.705
0
LINE
8
BLACK
6
CONTINUOUS
10
260.55
20
-74.705
11
259.15
21
-74.705
0
LINE
8
BLACK
6
CONTINUOUS
10
259.15
20
-74.705
11
259.15
21
-74.105
0
LINE
8
BLACK
6
CONTINUOUS
10
259.15
20
-74.105
11
260.55
21
-74.105
0
LINE
8
BLACK
6
CONTINUOUS
10
260.55
20
-74.105
11
260.55
21
-74.705
0
LINE
8
BLACK
6
CONTINUOUS
10
165.55
20
-74.665
11
164.15
21
-74.665
0
LINE
8
BLACK
6
CONTINUOUS
10
164.15
20
-74.665
11
164.15
21
-74.065
0
LINE
8
BLACK
6
CONTINUOUS
10
164.15
20
-74.065
11
165.55
21
-74.065
0
LINE
8
BLACK
6
CONTINUOUS
10
165.55
20
-74.065
11
165.55
21
-74.665
0
LINE
8
BLACK
6
CONTINUOUS
10
170.85
20
-74.665
11
169.45
21
-74.665
0
LINE
8
BLACK
6
CONTINUOUS
10
169.45
20
-74.665
11
169.45
21
-74.065
0
LINE
8
BLACK
6
CONTINUOUS
10
169.45
20
-74.065
11
170.85
21
-74.065
0
LINE
8
BLACK
6
CONTINUOUS
10
170.85
20
-74.065
11
170.85
21
-74.665
0
LINE
8
BLACK
6
CONTINUOUS
10
173.25
20
-74.53
11
171.75
21
-74.53
0
LINE
8
BLACK
6
CONTINUOUS
10
171.75
20
-74.53
11
171.75
21
-73.56
0
LINE
8
BLACK
6
CONTINUOUS
10
171.75
20
-73.56
11
173.25
21
-73.56
0
LINE
8
BLACK
6
CONTINUOUS
10
173.25
20
-73.56
11
173.25
21
-74.53
0
LINE
8
BLACK
6
CONTINUOUS
10
146.44
20
-74.5
11
145.47
21
-74.5
0
LINE
8
BLACK
6
CONTINUOUS
10
145.47
20
-74.5
11
145.47
21
-73
0
LINE
8
BLACK
6
CONTINUOUS
10
145.47
20
-73
11
146.44
21
-73
0
LINE
8
BLACK
6
CONTINUOUS
10
146.44
20
-73
11
146.44
21
-74.5
0
LINE
8
BLACK
6
CONTINUOUS
10
144.53
20
-74.5
11
143.56
21
-74.5
0
LINE
8
BLACK
6
CONTINUOUS
10
143.56
20
-74.5
11
143.56
21
-73
0
LINE
8
BLACK
6
CONTINUOUS
10
143.56
20
-73
11
144.53
21
-73
0
LINE
8
BLACK
6
CONTINUOUS
10
144.53
20
-73
11
144.53
21
-74.5
0
LINE
8
BLACK
6
CONTINUOUS
10
114.45
20
-74.45
11
113.55
21
-74.45
0
LINE
8
BLACK
6
CONTINUOUS
10
113.55
20
-74.45
11
113.55
21
-73.65
0
LINE
8
BLACK
6
CONTINUOUS
10
113.55
20
-73.65
11
114.45
21
-73.65
0
LINE
8
BLACK
6
CONTINUOUS
10
114.45
20
-73.65
11
114.45
21
-74.45
0
LINE
8
BLACK
6
CONTINUOUS
10
126.95
20
-74.45
11
126.05
21
-74.45
0
LINE
8
BLACK
6
CONTINUOUS
10
126.05
20
-74.45
11
126.05
21
-73.65
0
LINE
8
BLACK
6
CONTINUOUS
10
126.05
20
-73.65
11
126.95
21
-73.65
0
LINE
8
BLACK
6
CONTINUOUS
10
126.95
20
-73.65
11
126.95
21
-74.45
0
LINE
8
BLACK
6
CONTINUOUS
10
101.95
20
-74.45
11
101.05
21
-74.45
0
LINE
8
BLACK
6
CONTINUOUS
10
101.05
20
-74.45
11
101.05
21
-73.65
0
LINE
8
BLACK
6
CONTINUOUS
10
101.05
20
-73.65
11
101.95
21
-73.65
0
LINE
8
BLACK
6
CONTINUOUS
10
101.95
20
-73.65
11
101.95
21
-74.45
0
LINE
8
BLACK
6
CONTINUOUS
10
89.45
20
-74.45
11
88.55
21
-74.45
0
LINE
8
BLACK
6
CONTINUOUS
10
88.55
20
-74.45
11
88.55
21
-73.65
0
LINE
8
BLACK
6
CONTINUOUS
10
88.55
20
-73.65
11
89.45
21
-73.65
0
LINE
8
BLACK
6
CONTINUOUS
10
89.45
20
-73.65
11
89.45
21
-74.45
0
LINE
8
BLACK
6
CONTINUOUS
10
152.925
20
-74.25
11
151.475
21
-74.25
0
LINE
8
BLACK
6
CONTINUOUS
10
151.475
20
-74.25
11
151.475
21
-73.8
0
LINE
8
BLACK
6
CONTINUOUS
10
151.475
20
-73.8
11
152.925
21
-73.8
0
LINE
8
BLACK
6
CONTINUOUS
10
152.925
20
-73.8
11
152.925
21
-74.25
0
LINE
8
BLACK
6
CONTINUOUS
10
148.525
20
-74.25
11
147.075
21
-74.25
0
LINE
8
BLACK
6
CONTINUOUS
10
147.075
20
-74.25
11
147.075
21
-73.8
0
LINE
8
BLACK
6
CONTINUOUS
10
147.075
20
-73.8
11
148.525
21
-73.8
0
LINE
8
BLACK
6
CONTINUOUS
10
148.525
20
-73.8
11
148.525
21
-74.25
0
LINE
8
BLACK
6
CONTINUOUS
10
197.2
20
-74
11
195.3
21
-74
0
LINE
8
BLACK
6
CONTINUOUS
10
195.3
20
-74
11
195.3
21
-72.65
0
LINE
8
BLACK
6
CONTINUOUS
10
195.3
20
-72.65
11
197.2
21
-72.65
0
LINE
8
BLACK
6
CONTINUOUS
10
197.2
20
-72.65
11
197.2
21
-74
0
LINE
8
BLACK
6
CONTINUOUS
10
191.21
20
-74
11
189.31
21
-74
0
LINE
8
BLACK
6
CONTINUOUS
10
189.31
20
-74
11
189.31
21
-72.65
0
LINE
8
BLACK
6
CONTINUOUS
10
189.31
20
-72.65
11
191.21
21
-72.65
0
LINE
8
BLACK
6
CONTINUOUS
10
191.21
20
-72.65
11
191.21
21
-74
0
LINE
8
BLACK
6
CONTINUOUS
10
275.75
20
-73.94
11
274.25
21
-73.94
0
LINE
8
BLACK
6
CONTINUOUS
10
274.25
20
-73.94
11
274.25
21
-72.97
0
LINE
8
BLACK
6
CONTINUOUS
10
274.25
20
-72.97
11
275.75
21
-72.97
0
LINE
8
BLACK
6
CONTINUOUS
10
275.75
20
-72.97
11
275.75
21
-73.94
0
LINE
8
BLACK
6
CONTINUOUS
10
155.9
20
-73.875
11
154.1
21
-73.875
0
LINE
8
BLACK
6
CONTINUOUS
10
154.1
20
-73.875
11
154.1
21
-72.805
0
LINE
8
BLACK
6
CONTINUOUS
10
154.1
20
-72.805
11
155.9
21
-72.805
0
LINE
8
BLACK
6
CONTINUOUS
10
155.9
20
-72.805
11
155.9
21
-73.875
0
LINE
8
BLACK
6
CONTINUOUS
10
279.45
20
-73.85
11
278.55
21
-73.85
0
LINE
8
BLACK
6
CONTINUOUS
10
278.55
20
-73.85
11
278.55
21
-73.05
0
LINE
8
BLACK
6
CONTINUOUS
10
278.55
20
-73.05
11
279.45
21
-73.05
0
LINE
8
BLACK
6
CONTINUOUS
10
279.45
20
-73.05
11
279.45
21
-73.85
0
LINE
8
BLACK
6
CONTINUOUS
10
246.35
20
-73.475
11
244.35
21
-73.475
0
LINE
8
BLACK
6
CONTINUOUS
10
244.35
20
-73.475
11
244.35
21
-72.875
0
LINE
8
BLACK
6
CONTINUOUS
10
244.35
20
-72.875
11
246.35
21
-72.875
0
LINE
8
BLACK
6
CONTINUOUS
10
246.35
20
-72.875
11
246.35
21
-73.475
0
LINE
8
BLACK
6
CONTINUOUS
10
255.65
20
-73.475
11
253.65
21
-73.475
0
LINE
8
BLACK
6
CONTINUOUS
10
253.65
20
-73.475
11
253.65
21
-72.875
0
LINE
8
BLACK
6
CONTINUOUS
10
253.65
20
-72.875
11
255.65
21
-72.875
0
LINE
8
BLACK
6
CONTINUOUS
10
255.65
20
-72.875
11
255.65
21
-73.475
0
LINE
8
BLACK
6
CONTINUOUS
10
260.55
20
-73.435
11
259.15
21
-73.435
0
LINE
8
BLACK
6
CONTINUOUS
10
259.15
20
-73.435
11
259.15
21
-72.835
0
LINE
8
BLACK
6
CONTINUOUS
10
259.15
20
-72.835
11
260.55
21
-72.835
0
LINE
8
BLACK
6
CONTINUOUS
10
260.55
20
-72.835
11
260.55
21
-73.435
0
LINE
8
BLACK
6
CONTINUOUS
10
265.85
20
-73.435
11
264.45
21
-73.435
0
LINE
8
BLACK
6
CONTINUOUS
10
264.45
20
-73.435
11
264.45
21
-72.835
0
LINE
8
BLACK
6
CONTINUOUS
10
264.45
20
-72.835
11
265.85
21
-72.835
0
LINE
8
BLACK
6
CONTINUOUS
10
265.85
20
-72.835
11
265.85
21
-73.435
0
LINE
8
BLACK
6
CONTINUOUS
10
165.55
20
-73.395
11
164.15
21
-73.395
0
LINE
8
BLACK
6
CONTINUOUS
10
164.15
20
-73.395
11
164.15
21
-72.795
0
LINE
8
BLACK
6
CONTINUOUS
10
164.15
20
-72.795
11
165.55
21
-72.795
0
LINE
8
BLACK
6
CONTINUOUS
10
165.55
20
-72.795
11
165.55
21
-73.395
0
LINE
8
BLACK
6
CONTINUOUS
10
170.85
20
-73.395
11
169.45
21
-73.395
0
LINE
8
BLACK
6
CONTINUOUS
10
169.45
20
-73.395
11
169.45
21
-72.795
0
LINE
8
BLACK
6
CONTINUOUS
10
169.45
20
-72.795
11
170.85
21
-72.795
0
LINE
8
BLACK
6
CONTINUOUS
10
170.85
20
-72.795
11
170.85
21
-73.395
0
LINE
8
BLACK
6
CONTINUOUS
10
281.45
20
-72.9
11
280.55
21
-72.9
0
LINE
8
BLACK
6
CONTINUOUS
10
280.55
20
-72.9
11
280.55
21
-72.1
0
LINE
8
BLACK
6
CONTINUOUS
10
280.55
20
-72.1
11
281.45
21
-72.1
0
LINE
8
BLACK
6
CONTINUOUS
10
281.45
20
-72.1
11
281.45
21
-72.9
0
LINE
8
BLACK
6
CONTINUOUS
10
187.36
20
-72.85
11
186.16
21
-72.85
0
LINE
8
BLACK
6
CONTINUOUS
10
186.16
20
-72.85
11
186.16
21
-71.85
0
LINE
8
BLACK
6
CONTINUOUS
10
186.16
20
-71.85
11
187.36
21
-71.85
0
LINE
8
BLACK
6
CONTINUOUS
10
187.36
20
-71.85
11
187.36
21
-72.85
0
LINE
8
BLACK
6
CONTINUOUS
10
246.35
20
-72.205
11
244.35
21
-72.205
0
LINE
8
BLACK
6
CONTINUOUS
10
244.35
20
-72.205
11
244.35
21
-71.605
0
LINE
8
BLACK
6
CONTINUOUS
10
244.35
20
-71.605
11
246.35
21
-71.605
0
LINE
8
BLACK
6
CONTINUOUS
10
246.35
20
-71.605
11
246.35
21
-72.205
0
LINE
8
BLACK
6
CONTINUOUS
10
255.65
20
-72.205
11
253.65
21
-72.205
0
LINE
8
BLACK
6
CONTINUOUS
10
253.65
20
-72.205
11
253.65
21
-71.605
0
LINE
8
BLACK
6
CONTINUOUS
10
253.65
20
-71.605
11
255.65
21
-71.605
0
LINE
8
BLACK
6
CONTINUOUS
10
255.65
20
-71.605
11
255.65
21
-72.205
0
LINE
8
BLACK
6
CONTINUOUS
10
265.85
20
-72.165
11
264.45
21
-72.165
0
LINE
8
BLACK
6
CONTINUOUS
10
264.45
20
-72.165
11
264.45
21
-71.565
0
LINE
8
BLACK
6
CONTINUOUS
10
264.45
20
-71.565
11
265.85
21
-71.565
0
LINE
8
BLACK
6
CONTINUOUS
10
265.85
20
-71.565
11
265.85
21
-72.165
0
LINE
8
BLACK
6
CONTINUOUS
10
260.55
20
-72.165
11
259.15
21
-72.165
0
LINE
8
BLACK
6
CONTINUOUS
10
259.15
20
-72.165
11
259.15
21
-71.565
0
LINE
8
BLACK
6
CONTINUOUS
10
259.15
20
-71.565
11
260.55
21
-71.565
0
LINE
8
BLACK
6
CONTINUOUS
10
260.55
20
-71.565
11
260.55
21
-72.165
0
LINE
8
BLACK
6
CONTINUOUS
10
275.75
20
-72.03
11
274.25
21
-72.03
0
LINE
8
BLACK
6
CONTINUOUS
10
274.25
20
-72.03
11
274.25
21
-71.06
0
LINE
8
BLACK
6
CONTINUOUS
10
274.25
20
-71.06
11
275.75
21
-71.06
0
LINE
8
BLACK
6
CONTINUOUS
10
275.75
20
-71.06
11
275.75
21
-72.03
0
LINE
8
BLACK
6
CONTINUOUS
10
279.45
20
-71.95
11
278.55
21
-71.95
0
LINE
8
BLACK
6
CONTINUOUS
10
278.55
20
-71.95
11
278.55
21
-71.15
0
LINE
8
BLACK
6
CONTINUOUS
10
278.55
20
-71.15
11
279.45
21
-71.15
0
LINE
8
BLACK
6
CONTINUOUS
10
279.45
20
-71.15
11
279.45
21
-71.95
0
LINE
8
BLACK
6
CONTINUOUS
10
246.35
20
-70.935
11
244.35
21
-70.935
0
LINE
8
BLACK
6
CONTINUOUS
10
244.35
20
-70.935
11
244.35
21
-70.335
0
LINE
8
BLACK
6
CONTINUOUS
10
244.35
20
-70.335
11
246.35
21
-70.335
0
LINE
8
BLACK
6
CONTINUOUS
10
246.35
20
-70.335
11
246.35
21
-70.935
0
LINE
8
BLACK
6
CONTINUOUS
10
255.65
20
-70.935
11
253.65
21
-70.935
0
LINE
8
BLACK
6
CONTINUOUS
10
253.65
20
-70.935
11
253.65
21
-70.335
0
LINE
8
BLACK
6
CONTINUOUS
10
253.65
20
-70.335
11
255.65
21
-70.335
0
LINE
8
BLACK
6
CONTINUOUS
10
255.65
20
-70.335
11
255.65
21
-70.935
0
LINE
8
BLACK
6
CONTINUOUS
10
269.885
20
-70.9
11
269.465
21
-70.9
0
LINE
8
BLACK
6
CONTINUOUS
10
269.465
20
-70.9
11
269.465
21
-70
0
LINE
8
BLACK
6
CONTINUOUS
10
269.465
20
-70
11
269.885
21
-70
0
LINE
8
BLACK
6
CONTINUOUS
10
269.885
20
-70
11
269.885
21
-70.9
0
LINE
8
BLACK
6
CONTINUOUS
10
270.535
20
-70.9
11
270.115
21
-70.9
0
LINE
8
BLACK
6
CONTINUOUS
10
270.115
20
-70.9
11
270.115
21
-70
0
LINE
8
BLACK
6
CONTINUOUS
10
270.115
20
-70
11
270.535
21
-70
0
LINE
8
BLACK
6
CONTINUOUS
10
270.535
20
-70
11
270.535
21
-70.9
0
LINE
8
BLACK
6
CONTINUOUS
10
271.185
20
-70.9
11
270.765
21
-70.9
0
LINE
8
BLACK
6
CONTINUOUS
10
270.765
20
-70.9
11
270.765
21
-70
0
LINE
8
BLACK
6
CONTINUOUS
10
270.765
20
-70
11
271.185
21
-70
0
LINE
8
BLACK
6
CONTINUOUS
10
271.185
20
-70
11
271.185
21
-70.9
0
LINE
8
BLACK
6
CONTINUOUS
10
269.235
20
-70.9
11
268.815
21
-70.9
0
LINE
8
BLACK
6
CONTINUOUS
10
268.815
20
-70.9
11
268.815
21
-70
0
LINE
8
BLACK
6
CONTINUOUS
10
268.815
20
-70
11
269.235
21
-70
0
LINE
8
BLACK
6
CONTINUOUS
10
269.235
20
-70
11
269.235
21
-70.9
0
LINE
8
BLACK
6
CONTINUOUS
10
265.85
20
-70.895
11
264.45
21
-70.895
0
LINE
8
BLACK
6
CONTINUOUS
10
264.45
20
-70.895
11
264.45
21
-70.295
0
LINE
8
BLACK
6
CONTINUOUS
10
264.45
20
-70.295
11
265.85
21
-70.295
0
LINE
8
BLACK
6
CONTINUOUS
10
265.85
20
-70.295
11
265.85
21
-70.895
0
LINE
8
BLACK
6
CONTINUOUS
10
260.55
20
-70.895
11
259.15
21
-70.895
0
LINE
8
BLACK
6
CONTINUOUS
10
259.15
20
-70.895
11
259.15
21
-70.295
0
LINE
8
BLACK
6
CONTINUOUS
10
259.15
20
-70.295
11
260.55
21
-70.295
0
LINE
8
BLACK
6
CONTINUOUS
10
260.55
20
-70.295
11
260.55
21
-70.895
0
LINE
8
BLACK
6
CONTINUOUS
10
165.55
20
-69.705
11
164.15
21
-69.705
0
LINE
8
BLACK
6
CONTINUOUS
10
164.15
20
-69.705
11
164.15
21
-69.105
0
LINE
8
BLACK
6
CONTINUOUS
10
164.15
20
-69.105
11
165.55
21
-69.105
0
LINE
8
BLACK
6
CONTINUOUS
10
165.55
20
-69.105
11
165.55
21
-69.705
0
LINE
8
BLACK
6
CONTINUOUS
10
170.85
20
-69.705
11
169.45
21
-69.705
0
LINE
8
BLACK
6
CONTINUOUS
10
169.45
20
-69.705
11
169.45
21
-69.105
0
LINE
8
BLACK
6
CONTINUOUS
10
169.45
20
-69.105
11
170.85
21
-69.105
0
LINE
8
BLACK
6
CONTINUOUS
10
170.85
20
-69.105
11
170.85
21
-69.705
0
LINE
8
BLACK
6
CONTINUOUS
10
246.35
20
-69.665
11
244.35
21
-69.665
0
LINE
8
BLACK
6
CONTINUOUS
10
244.35
20
-69.665
11
244.35
21
-69.065
0
LINE
8
BLACK
6
CONTINUOUS
10
244.35
20
-69.065
11
246.35
21
-69.065
0
LINE
8
BLACK
6
CONTINUOUS
10
246.35
20
-69.065
11
246.35
21
-69.665
0
LINE
8
BLACK
6
CONTINUOUS
10
255.65
20
-69.665
11
253.65
21
-69.665
0
LINE
8
BLACK
6
CONTINUOUS
10
253.65
20
-69.665
11
253.65
21
-69.065
0
LINE
8
BLACK
6
CONTINUOUS
10
253.65
20
-69.065
11
255.65
21
-69.065
0
LINE
8
BLACK
6
CONTINUOUS
10
255.65
20
-69.065
11
255.65
21
-69.665
0
LINE
8
BLACK
6
CONTINUOUS
10
187.36
20
-69.15
11
186.16
21
-69.15
0
LINE
8
BLACK
6
CONTINUOUS
10
186.16
20
-69.15
11
186.16
21
-68.15
0
LINE
8
BLACK
6
CONTINUOUS
10
186.16
20
-68.15
11
187.36
21
-68.15
0
LINE
8
BLACK
6
CONTINUOUS
10
187.36
20
-68.15
11
187.36
21
-69.15
0
LINE
8
BLACK
6
CONTINUOUS
10
173.25
20
-68.94
11
171.75
21
-68.94
0
LINE
8
BLACK
6
CONTINUOUS
10
171.75
20
-68.94
11
171.75
21
-67.97
0
LINE
8
BLACK
6
CONTINUOUS
10
171.75
20
-67.97
11
173.25
21
-67.97
0
LINE
8
BLACK
6
CONTINUOUS
10
173.25
20
-67.97
11
173.25
21
-68.94
0
LINE
8
BLACK
6
CONTINUOUS
10
165.55
20
-68.435
11
164.15
21
-68.435
0
LINE
8
BLACK
6
CONTINUOUS
10
164.15
20
-68.435
11
164.15
21
-67.835
0
LINE
8
BLACK
6
CONTINUOUS
10
164.15
20
-67.835
11
165.55
21
-67.835
0
LINE
8
BLACK
6
CONTINUOUS
10
165.55
20
-67.835
11
165.55
21
-68.435
0
LINE
8
BLACK
6
CONTINUOUS
10
170.85
20
-68.435
11
169.45
21
-68.435
0
LINE
8
BLACK
6
CONTINUOUS
10
169.45
20
-68.435
11
169.45
21
-67.835
0
LINE
8
BLACK
6
CONTINUOUS
10
169.45
20
-67.835
11
170.85
21
-67.835
0
LINE
8
BLACK
6
CONTINUOUS
10
170.85
20
-67.835
11
170.85
21
-68.435
0
LINE
8
BLACK
6
CONTINUOUS
10
246.35
20
-68.395
11
244.35
21
-68.395
0
LINE
8
BLACK
6
CONTINUOUS
10
244.35
20
-68.395
11
244.35
21
-67.795
0
LINE
8
BLACK
6
CONTINUOUS
10
244.35
20
-67.795
11
246.35
21
-67.795
0
LINE
8
BLACK
6
CONTINUOUS
10
246.35
20
-67.795
11
246.35
21
-68.395
0
LINE
8
BLACK
6
CONTINUOUS
10
255.65
20
-68.395
11
253.65
21
-68.395
0
LINE
8
BLACK
6
CONTINUOUS
10
253.65
20
-68.395
11
253.65
21
-67.795
0
LINE
8
BLACK
6
CONTINUOUS
10
253.65
20
-67.795
11
255.65
21
-67.795
0
LINE
8
BLACK
6
CONTINUOUS
10
255.65
20
-67.795
11
255.65
21
-68.395
0
LINE
8
BLACK
6
CONTINUOUS
10
241.655
20
-67.63
11
240.155
21
-67.63
0
LINE
8
BLACK
6
CONTINUOUS
10
240.155
20
-67.63
11
240.155
21
-66.66
0
LINE
8
BLACK
6
CONTINUOUS
10
240.155
20
-66.66
11
241.655
21
-66.66
0
LINE
8
BLACK
6
CONTINUOUS
10
241.655
20
-66.66
11
241.655
21
-67.63
0
LINE
8
BLACK
6
CONTINUOUS
10
237.21
20
-67.63
11
235.71
21
-67.63
0
LINE
8
BLACK
6
CONTINUOUS
10
235.71
20
-67.63
11
235.71
21
-66.66
0
LINE
8
BLACK
6
CONTINUOUS
10
235.71
20
-66.66
11
237.21
21
-66.66
0
LINE
8
BLACK
6
CONTINUOUS
10
237.21
20
-66.66
11
237.21
21
-67.63
0
LINE
8
BLACK
6
CONTINUOUS
10
165.55
20
-67.165
11
164.15
21
-67.165
0
LINE
8
BLACK
6
CONTINUOUS
10
164.15
20
-67.165
11
164.15
21
-66.565
0
LINE
8
BLACK
6
CONTINUOUS
10
164.15
20
-66.565
11
165.55
21
-66.565
0
LINE
8
BLACK
6
CONTINUOUS
10
165.55
20
-66.565
11
165.55
21
-67.165
0
LINE
8
BLACK
6
CONTINUOUS
10
170.85
20
-67.165
11
169.45
21
-67.165
0
LINE
8
BLACK
6
CONTINUOUS
10
169.45
20
-67.165
11
169.45
21
-66.565
0
LINE
8
BLACK
6
CONTINUOUS
10
169.45
20
-66.565
11
170.85
21
-66.565
0
LINE
8
BLACK
6
CONTINUOUS
10
170.85
20
-66.565
11
170.85
21
-67.165
0
LINE
8
BLACK
6
CONTINUOUS
10
246.35
20
-67.125
11
244.35
21
-67.125
0
LINE
8
BLACK
6
CONTINUOUS
10
244.35
20
-67.125
11
244.35
21
-66.525
0
LINE
8
BLACK
6
CONTINUOUS
10
244.35
20
-66.525
11
246.35
21
-66.525
0
LINE
8
BLACK
6
CONTINUOUS
10
246.35
20
-66.525
11
246.35
21
-67.125
0
LINE
8
BLACK
6
CONTINUOUS
10
255.65
20
-67.125
11
253.65
21
-67.125
0
LINE
8
BLACK
6
CONTINUOUS
10
253.65
20
-67.125
11
253.65
21
-66.525
0
LINE
8
BLACK
6
CONTINUOUS
10
253.65
20
-66.525
11
255.65
21
-66.525
0
LINE
8
BLACK
6
CONTINUOUS
10
255.65
20
-66.525
11
255.65
21
-67.125
0
LINE
8
BLACK
6
CONTINUOUS
10
173.25
20
-67.03
11
171.75
21
-67.03
0
LINE
8
BLACK
6
CONTINUOUS
10
171.75
20
-67.03
11
171.75
21
-66.06
0
LINE
8
BLACK
6
CONTINUOUS
10
171.75
20
-66.06
11
173.25
21
-66.06
0
LINE
8
BLACK
6
CONTINUOUS
10
173.25
20
-66.06
11
173.25
21
-67.03
0
LINE
8
BLACK
6
CONTINUOUS
10
260.75
20
-66.44
11
259.25
21
-66.44
0
LINE
8
BLACK
6
CONTINUOUS
10
259.25
20
-66.44
11
259.25
21
-65.47
0
LINE
8
BLACK
6
CONTINUOUS
10
259.25
20
-65.47
11
260.75
21
-65.47
0
LINE
8
BLACK
6
CONTINUOUS
10
260.75
20
-65.47
11
260.75
21
-66.44
0
LINE
8
BLACK
6
CONTINUOUS
10
265.75
20
-66.44
11
264.25
21
-66.44
0
LINE
8
BLACK
6
CONTINUOUS
10
264.25
20
-66.44
11
264.25
21
-65.47
0
LINE
8
BLACK
6
CONTINUOUS
10
264.25
20
-65.47
11
265.75
21
-65.47
0
LINE
8
BLACK
6
CONTINUOUS
10
265.75
20
-65.47
11
265.75
21
-66.44
0
LINE
8
BLACK
6
CONTINUOUS
10
89.45
20
-66.35
11
88.55
21
-66.35
0
LINE
8
BLACK
6
CONTINUOUS
10
88.55
20
-66.35
11
88.55
21
-65.55
0
LINE
8
BLACK
6
CONTINUOUS
10
88.55
20
-65.55
11
89.45
21
-65.55
0
LINE
8
BLACK
6
CONTINUOUS
10
89.45
20
-65.55
11
89.45
21
-66.35
0
LINE
8
BLACK
6
CONTINUOUS
10
101.95
20
-66.35
11
101.05
21
-66.35
0
LINE
8
BLACK
6
CONTINUOUS
10
101.05
20
-66.35
11
101.05
21
-65.55
0
LINE
8
BLACK
6
CONTINUOUS
10
101.05
20
-65.55
11
101.95
21
-65.55
0
LINE
8
BLACK
6
CONTINUOUS
10
101.95
20
-65.55
11
101.95
21
-66.35
0
LINE
8
BLACK
6
CONTINUOUS
10
114.45
20
-66.35
11
113.55
21
-66.35
0
LINE
8
BLACK
6
CONTINUOUS
10
113.55
20
-66.35
11
113.55
21
-65.55
0
LINE
8
BLACK
6
CONTINUOUS
10
113.55
20
-65.55
11
114.45
21
-65.55
0
LINE
8
BLACK
6
CONTINUOUS
10
114.45
20
-65.55
11
114.45
21
-66.35
0
LINE
8
BLACK
6
CONTINUOUS
10
126.93
20
-66.275
11
125.87
21
-66.275
0
LINE
8
BLACK
6
CONTINUOUS
10
125.87
20
-66.275
11
125.87
21
-65.625
0
LINE
8
BLACK
6
CONTINUOUS
10
125.87
20
-65.625
11
126.93
21
-65.625
0
LINE
8
BLACK
6
CONTINUOUS
10
126.93
20
-65.625
11
126.93
21
-66.275
0
LINE
8
BLACK
6
CONTINUOUS
10
129.13
20
-66.275
11
128.07
21
-66.275
0
LINE
8
BLACK
6
CONTINUOUS
10
128.07
20
-66.275
11
128.07
21
-65.625
0
LINE
8
BLACK
6
CONTINUOUS
10
128.07
20
-65.625
11
129.13
21
-65.625
0
LINE
8
BLACK
6
CONTINUOUS
10
129.13
20
-65.625
11
129.13
21
-66.275
0
LINE
8
BLACK
6
CONTINUOUS
10
165.55
20
-65.895
11
164.15
21
-65.895
0
LINE
8
BLACK
6
CONTINUOUS
10
164.15
20
-65.895
11
164.15
21
-65.295
0
LINE
8
BLACK
6
CONTINUOUS
10
164.15
20
-65.295
11
165.55
21
-65.295
0
LINE
8
BLACK
6
CONTINUOUS
10
165.55
20
-65.295
11
165.55
21
-65.895
0
LINE
8
BLACK
6
CONTINUOUS
10
170.85
20
-65.895
11
169.45
21
-65.895
0
LINE
8
BLACK
6
CONTINUOUS
10
169.45
20
-65.895
11
169.45
21
-65.295
0
LINE
8
BLACK
6
CONTINUOUS
10
169.45
20
-65.295
11
170.85
21
-65.295
0
LINE
8
BLACK
6
CONTINUOUS
10
170.85
20
-65.295
11
170.85
21
-65.895
0
LINE
8
BLACK
6
CONTINUOUS
10
255.65
20
-65.855
11
253.65
21
-65.855
0
LINE
8
BLACK
6
CONTINUOUS
10
253.65
20
-65.855
11
253.65
21
-65.255
0
LINE
8
BLACK
6
CONTINUOUS
10
253.65
20
-65.255
11
255.65
21
-65.255
0
LINE
8
BLACK
6
CONTINUOUS
10
255.65
20
-65.255
11
255.65
21
-65.855
0
LINE
8
BLACK
6
CONTINUOUS
10
246.35
20
-65.855
11
244.35
21
-65.855
0
LINE
8
BLACK
6
CONTINUOUS
10
244.35
20
-65.855
11
244.35
21
-65.255
0
LINE
8
BLACK
6
CONTINUOUS
10
244.35
20
-65.255
11
246.35
21
-65.255
0
LINE
8
BLACK
6
CONTINUOUS
10
246.35
20
-65.255
11
246.35
21
-65.855
0
LINE
8
BLACK
6
CONTINUOUS
10
241.655
20
-65.72
11
240.155
21
-65.72
0
LINE
8
BLACK
6
CONTINUOUS
10
240.155
20
-65.72
11
240.155
21
-64.75
0
LINE
8
BLACK
6
CONTINUOUS
10
240.155
20
-64.75
11
241.655
21
-64.75
0
LINE
8
BLACK
6
CONTINUOUS
10
241.655
20
-64.75
11
241.655
21
-65.72
0
LINE
8
BLACK
6
CONTINUOUS
10
237.21
20
-65.72
11
235.71
21
-65.72
0
LINE
8
BLACK
6
CONTINUOUS
10
235.71
20
-65.72
11
235.71
21
-64.75
0
LINE
8
BLACK
6
CONTINUOUS
10
235.71
20
-64.75
11
237.21
21
-64.75
0
LINE
8
BLACK
6
CONTINUOUS
10
237.21
20
-64.75
11
237.21
21
-65.72
0
LINE
8
BLACK
6
CONTINUOUS
10
116.45
20
-65.4
11
115.55
21
-65.4
0
LINE
8
BLACK
6
CONTINUOUS
10
115.55
20
-65.4
11
115.55
21
-64.6
0
LINE
8
BLACK
6
CONTINUOUS
10
115.55
20
-64.6
11
116.45
21
-64.6
0
LINE
8
BLACK
6
CONTINUOUS
10
116.45
20
-64.6
11
116.45
21
-65.4
0
LINE
8
BLACK
6
CONTINUOUS
10
103.95
20
-65.4
11
103.05
21
-65.4
0
LINE
8
BLACK
6
CONTINUOUS
10
103.05
20
-65.4
11
103.05
21
-64.6
0
LINE
8
BLACK
6
CONTINUOUS
10
103.05
20
-64.6
11
103.95
21
-64.6
0
LINE
8
BLACK
6
CONTINUOUS
10
103.95
20
-64.6
11
103.95
21
-65.4
0
LINE
8
BLACK
6
CONTINUOUS
10
91.45
20
-65.4
11
90.55
21
-65.4
0
LINE
8
BLACK
6
CONTINUOUS
10
90.55
20
-65.4
11
90.55
21
-64.6
0
LINE
8
BLACK
6
CONTINUOUS
10
90.55
20
-64.6
11
91.45
21
-64.6
0
LINE
8
BLACK
6
CONTINUOUS
10
91.45
20
-64.6
11
91.45
21
-65.4
0
LINE
8
BLACK
6
CONTINUOUS
10
126.93
20
-65.325
11
125.87
21
-65.325
0
LINE
8
BLACK
6
CONTINUOUS
10
125.87
20
-65.325
11
125.87
21
-64.675
0
LINE
8
BLACK
6
CONTINUOUS
10
125.87
20
-64.675
11
126.93
21
-64.675
0
LINE
8
BLACK
6
CONTINUOUS
10
126.93
20
-64.675
11
126.93
21
-65.325
0
LINE
8
BLACK
6
CONTINUOUS
10
129.13
20
-65.325
11
128.07
21
-65.325
0
LINE
8
BLACK
6
CONTINUOUS
10
128.07
20
-65.325
11
128.07
21
-64.675
0
LINE
8
BLACK
6
CONTINUOUS
10
128.07
20
-64.675
11
129.13
21
-64.675
0
LINE
8
BLACK
6
CONTINUOUS
10
129.13
20
-64.675
11
129.13
21
-65.325
0
LINE
8
BLACK
6
CONTINUOUS
10
265.75
20
-64.53
11
264.25
21
-64.53
0
LINE
8
BLACK
6
CONTINUOUS
10
264.25
20
-64.53
11
264.25
21
-63.56
0
LINE
8
BLACK
6
CONTINUOUS
10
264.25
20
-63.56
11
265.75
21
-63.56
0
LINE
8
BLACK
6
CONTINUOUS
10
265.75
20
-63.56
11
265.75
21
-64.53
0
LINE
8
BLACK
6
CONTINUOUS
10
260.75
20
-64.53
11
259.25
21
-64.53
0
LINE
8
BLACK
6
CONTINUOUS
10
259.25
20
-64.53
11
259.25
21
-63.56
0
LINE
8
BLACK
6
CONTINUOUS
10
259.25
20
-63.56
11
260.75
21
-63.56
0
LINE
8
BLACK
6
CONTINUOUS
10
260.75
20
-63.56
11
260.75
21
-64.53
0
LINE
8
BLACK
6
CONTINUOUS
10
114.45
20
-64.45
11
113.55
21
-64.45
0
LINE
8
BLACK
6
CONTINUOUS
10
113.55
20
-64.45
11
113.55
21
-63.65
0
LINE
8
BLACK
6
CONTINUOUS
10
113.55
20
-63.65
11
114.45
21
-63.65
0
LINE
8
BLACK
6
CONTINUOUS
10
114.45
20
-63.65
11
114.45
21
-64.45
0
LINE
8
BLACK
6
CONTINUOUS
10
101.95
20
-64.45
11
101.05
21
-64.45
0
LINE
8
BLACK
6
CONTINUOUS
10
101.05
20
-64.45
11
101.05
21
-63.65
0
LINE
8
BLACK
6
CONTINUOUS
10
101.05
20
-63.65
11
101.95
21
-63.65
0
LINE
8
BLACK
6
CONTINUOUS
10
101.95
20
-63.65
11
101.95
21
-64.45
0
LINE
8
BLACK
6
CONTINUOUS
10
89.45
20
-64.45
11
88.55
21
-64.45
0
LINE
8
BLACK
6
CONTINUOUS
10
88.55
20
-64.45
11
88.55
21
-63.65
0
LINE
8
BLACK
6
CONTINUOUS
10
88.55
20
-63.65
11
89.45
21
-63.65
0
LINE
8
BLACK
6
CONTINUOUS
10
89.45
20
-63.65
11
89.45
21
-64.45
0
LINE
8
BLACK
6
CONTINUOUS
10
129.13
20
-64.375
11
128.07
21
-64.375
0
LINE
8
BLACK
6
CONTINUOUS
10
128.07
20
-64.375
11
128.07
21
-63.725
0
LINE
8
BLACK
6
CONTINUOUS
10
128.07
20
-63.725
11
129.13
21
-63.725
0
LINE
8
BLACK
6
CONTINUOUS
10
129.13
20
-63.725
11
129.13
21
-64.375
0
LINE
8
BLACK
6
CONTINUOUS
10
126.93
20
-64.375
11
125.87
21
-64.375
0
LINE
8
BLACK
6
CONTINUOUS
10
125.87
20
-64.375
11
125.87
21
-63.725
0
LINE
8
BLACK
6
CONTINUOUS
10
125.87
20
-63.725
11
126.93
21
-63.725
0
LINE
8
BLACK
6
CONTINUOUS
10
126.93
20
-63.725
11
126.93
21
-64.375
0
LINE
8
BLACK
6
CONTINUOUS
10
198.84
20
-63.75
11
197.67
21
-63.75
0
LINE
8
BLACK
6
CONTINUOUS
10
197.67
20
-63.75
11
197.67
21
-61.95
0
LINE
8
BLACK
6
CONTINUOUS
10
197.67
20
-61.95
11
198.84
21
-61.95
0
LINE
8
BLACK
6
CONTINUOUS
10
198.84
20
-61.95
11
198.84
21
-63.75
0
LINE
8
BLACK
6
CONTINUOUS
10
187.71
20
-63.3
11
186.16
21
-63.3
0
LINE
8
BLACK
6
CONTINUOUS
10
186.16
20
-63.3
11
186.16
21
-61.95
0
LINE
8
BLACK
6
CONTINUOUS
10
186.16
20
-61.95
11
187.71
21
-61.95
0
LINE
8
BLACK
6
CONTINUOUS
10
187.71
20
-61.95
11
187.71
21
-63.3
0
LINE
8
BLACK
6
CONTINUOUS
10
189.82
20
-63.05
11
188.97
21
-63.05
0
LINE
8
BLACK
6
CONTINUOUS
10
188.97
20
-63.05
11
188.97
21
-61.95
0
LINE
8
BLACK
6
CONTINUOUS
10
188.97
20
-61.95
11
189.82
21
-61.95
0
LINE
8
BLACK
6
CONTINUOUS
10
189.82
20
-61.95
11
189.82
21
-63.05
0
LINE
8
BLACK
6
CONTINUOUS
10
190.92
20
-63.05
11
190.07
21
-63.05
0
LINE
8
BLACK
6
CONTINUOUS
10
190.07
20
-63.05
11
190.07
21
-61.95
0
LINE
8
BLACK
6
CONTINUOUS
10
190.07
20
-61.95
11
190.92
21
-61.95
0
LINE
8
BLACK
6
CONTINUOUS
10
190.92
20
-61.95
11
190.92
21
-63.05
0
LINE
8
BLACK
6
CONTINUOUS
10
192.02
20
-63.05
11
191.17
21
-63.05
0
LINE
8
BLACK
6
CONTINUOUS
10
191.17
20
-63.05
11
191.17
21
-61.95
0
LINE
8
BLACK
6
CONTINUOUS
10
191.17
20
-61.95
11
192.02
21
-61.95
0
LINE
8
BLACK
6
CONTINUOUS
10
192.02
20
-61.95
11
192.02
21
-63.05
0
LINE
8
BLACK
6
CONTINUOUS
10
193.12
20
-63.05
11
192.27
21
-63.05
0
LINE
8
BLACK
6
CONTINUOUS
10
192.27
20
-63.05
11
192.27
21
-61.95
0
LINE
8
BLACK
6
CONTINUOUS
10
192.27
20
-61.95
11
193.12
21
-61.95
0
LINE
8
BLACK
6
CONTINUOUS
10
193.12
20
-61.95
11
193.12
21
-63.05
0
LINE
8
BLACK
6
CONTINUOUS
10
194.22
20
-63.05
11
193.37
21
-63.05
0
LINE
8
BLACK
6
CONTINUOUS
10
193.37
20
-63.05
11
193.37
21
-61.95
0
LINE
8
BLACK
6
CONTINUOUS
10
193.37
20
-61.95
11
194.22
21
-61.95
0
LINE
8
BLACK
6
CONTINUOUS
10
194.22
20
-61.95
11
194.22
21
-63.05
0
LINE
8
BLACK
6
CONTINUOUS
10
195.32
20
-63.05
11
194.47
21
-63.05
0
LINE
8
BLACK
6
CONTINUOUS
10
194.47
20
-63.05
11
194.47
21
-61.95
0
LINE
8
BLACK
6
CONTINUOUS
10
194.47
20
-61.95
11
195.32
21
-61.95
0
LINE
8
BLACK
6
CONTINUOUS
10
195.32
20
-61.95
11
195.32
21
-63.05
0
LINE
8
BLACK
6
CONTINUOUS
10
196.42
20
-63.05
11
195.57
21
-63.05
0
LINE
8
BLACK
6
CONTINUOUS
10
195.57
20
-63.05
11
195.57
21
-61.95
0
LINE
8
BLACK
6
CONTINUOUS
10
195.57
20
-61.95
11
196.42
21
-61.95
0
LINE
8
BLACK
6
CONTINUOUS
10
196.42
20
-61.95
11
196.42
21
-63.05
0
LINE
8
BLACK
6
CONTINUOUS
10
197.42
20
-63.05
11
196.67
21
-63.05
0
LINE
8
BLACK
6
CONTINUOUS
10
196.67
20
-63.05
11
196.67
21
-61.95
0
LINE
8
BLACK
6
CONTINUOUS
10
196.67
20
-61.95
11
197.42
21
-61.95
0
LINE
8
BLACK
6
CONTINUOUS
10
197.42
20
-61.95
11
197.42
21
-63.05
0
LINE
8
BLACK
6
CONTINUOUS
10
337.515
20
-59.9011
11
338.134
21
-59.9793
0
LINE
8
BLACK
6
CONTINUOUS
10
338.134
20
-59.9793
11
338.147
21
-59.9817
0
LINE
8
BLACK
6
CONTINUOUS
10
338.147
20
-59.9817
11
338.152
21
-59.984
0
LINE
8
BLACK
6
CONTINUOUS
10
338.152
20
-59.984
11
338.159
21
-59.9856
0
LINE
8
BLACK
6
CONTINUOUS
10
338.159
20
-59.9856
11
338.741
21
-60.2163
0
LINE
8
BLACK
6
CONTINUOUS
10
338.741
20
-60.2163
11
338.753
21
-60.2216
0
LINE
8
BLACK
6
CONTINUOUS
10
338.753
20
-60.2216
11
338.758
21
-60.2253
0
LINE
8
BLACK
6
CONTINUOUS
10
338.758
20
-60.2253
11
338.763
21
-60.2283
0
LINE
8
BLACK
6
CONTINUOUS
10
338.763
20
-60.2283
11
339.27
21
-60.5967
0
LINE
8
BLACK
6
CONTINUOUS
10
339.27
20
-60.5967
11
339.28
21
-60.6047
0
LINE
8
BLACK
6
CONTINUOUS
10
339.28
20
-60.6047
11
339.284
21
-60.6095
0
LINE
8
BLACK
6
CONTINUOUS
10
339.284
20
-60.6095
11
339.288
21
-60.6138
0
LINE
8
BLACK
6
CONTINUOUS
10
339.288
20
-60.6138
11
339.688
21
-61.0967
0
LINE
8
BLACK
6
CONTINUOUS
10
339.688
20
-61.0967
11
339.695
21
-61.1068
0
LINE
8
BLACK
6
CONTINUOUS
10
339.695
20
-61.1068
11
339.698
21
-61.1125
0
LINE
8
BLACK
6
CONTINUOUS
10
339.698
20
-61.1125
11
339.701
21
-61.1179
0
LINE
8
BLACK
6
CONTINUOUS
10
339.701
20
-61.1179
11
339.968
21
-61.6849
0
LINE
8
BLACK
6
CONTINUOUS
10
339.968
20
-61.6849
11
339.973
21
-61.6966
0
LINE
8
BLACK
6
CONTINUOUS
10
339.973
20
-61.6966
11
339.974
21
-61.7027
0
LINE
8
BLACK
6
CONTINUOUS
10
339.974
20
-61.7027
11
339.976
21
-61.7087
0
LINE
8
BLACK
6
CONTINUOUS
10
339.976
20
-61.7087
11
340.093
21
-62.3243
0
LINE
8
BLACK
6
CONTINUOUS
10
340.093
20
-62.3243
11
340.095
21
-62.3367
0
LINE
8
BLACK
6
CONTINUOUS
10
340.095
20
-62.3367
11
340.095
21
-62.3383
0
LINE
8
BLACK
6
CONTINUOUS
10
340.095
20
-62.3383
11
340.095
21
-62.3399
0
LINE
8
BLACK
6
CONTINUOUS
10
340.095
20
-62.3399
11
340.1
21
-62.4897
0
LINE
8
BLACK
6
CONTINUOUS
10
340.1
20
-62.4897
11
340.1
21
-62.4913
0
LINE
8
BLACK
6
CONTINUOUS
10
340.1
20
-62.4913
11
340.1
21
-117.509
0
LINE
8
BLACK
6
CONTINUOUS
10
340.1
20
-117.509
11
340.099
21
-117.515
0
LINE
8
BLACK
6
CONTINUOUS
10
340.099
20
-117.515
11
340.021
21
-118.134
0
LINE
8
BLACK
6
CONTINUOUS
10
340.021
20
-118.134
11
340.018
21
-118.147
0
LINE
8
BLACK
6
CONTINUOUS
10
340.018
20
-118.147
11
340.016
21
-118.152
0
LINE
8
BLACK
6
CONTINUOUS
10
340.016
20
-118.152
11
340.014
21
-118.159
0
LINE
8
BLACK
6
CONTINUOUS
10
340.014
20
-118.159
11
339.784
21
-118.741
0
LINE
8
BLACK
6
CONTINUOUS
10
339.784
20
-118.741
11
339.778
21
-118.753
0
LINE
8
BLACK
6
CONTINUOUS
10
339.778
20
-118.753
11
339.775
21
-118.758
0
LINE
8
BLACK
6
CONTINUOUS
10
339.775
20
-118.758
11
339.772
21
-118.763
0
LINE
8
BLACK
6
CONTINUOUS
10
339.772
20
-118.763
11
339.403
21
-119.27
0
LINE
8
BLACK
6
CONTINUOUS
10
339.403
20
-119.27
11
339.395
21
-119.28
0
LINE
8
BLACK
6
CONTINUOUS
10
339.395
20
-119.28
11
339.39
21
-119.284
0
LINE
8
BLACK
6
CONTINUOUS
10
339.39
20
-119.284
11
339.386
21
-119.288
0
LINE
8
BLACK
6
CONTINUOUS
10
339.386
20
-119.288
11
338.903
21
-119.688
0
LINE
8
BLACK
6
CONTINUOUS
10
338.903
20
-119.688
11
338.893
21
-119.695
0
LINE
8
BLACK
6
CONTINUOUS
10
338.893
20
-119.695
11
338.887
21
-119.698
0
LINE
8
BLACK
6
CONTINUOUS
10
338.887
20
-119.698
11
338.882
21
-119.701
0
LINE
8
BLACK
6
CONTINUOUS
10
338.882
20
-119.701
11
338.315
21
-119.968
0
LINE
8
BLACK
6
CONTINUOUS
10
338.315
20
-119.968
11
338.303
21
-119.973
0
LINE
8
BLACK
6
CONTINUOUS
10
338.303
20
-119.973
11
338.297
21
-119.974
0
LINE
8
BLACK
6
CONTINUOUS
10
338.297
20
-119.974
11
338.291
21
-119.976
0
LINE
8
BLACK
6
CONTINUOUS
10
338.291
20
-119.976
11
337.676
21
-120.093
0
LINE
8
BLACK
6
CONTINUOUS
10
337.676
20
-120.093
11
337.663
21
-120.095
0
LINE
8
BLACK
6
CONTINUOUS
10
337.663
20
-120.095
11
337.662
21
-120.095
0
LINE
8
BLACK
6
CONTINUOUS
10
337.662
20
-120.095
11
337.66
21
-120.095
0
LINE
8
BLACK
6
CONTINUOUS
10
337.66
20
-120.095
11
337.51
21
-120.1
0
LINE
8
BLACK
6
CONTINUOUS
10
337.51
20
-120.1
11
337.509
21
-120.1
0
LINE
8
BLACK
6
CONTINUOUS
10
337.509
20
-120.1
11
77.4913
21
-120.1
0
LINE
8
BLACK
6
CONTINUOUS
10
77.4913
20
-120.1
11
77.485
21
-120.099
0
LINE
8
BLACK
6
CONTINUOUS
10
77.485
20
-120.099
11
76.8657
21
-120.021
0
LINE
8
BLACK
6
CONTINUOUS
10
76.8657
20
-120.021
11
76.8534
21
-120.018
0
LINE
8
BLACK
6
CONTINUOUS
10
76.8534
20
-120.018
11
76.8476
21
-120.016
0
LINE
8
BLACK
6
CONTINUOUS
10
76.8476
20
-120.016
11
76.8415
21
-120.014
0
LINE
8
BLACK
6
CONTINUOUS
10
76.8415
20
-120.014
11
76.2588
21
-119.784
0
LINE
8
BLACK
6
CONTINUOUS
10
76.2588
20
-119.784
11
76.2474
21
-119.778
0
LINE
8
BLACK
6
CONTINUOUS
10
76.2474
20
-119.778
11
76.2424
21
-119.775
0
LINE
8
BLACK
6
CONTINUOUS
10
76.2424
20
-119.775
11
76.2368
21
-119.772
0
LINE
8
BLACK
6
CONTINUOUS
10
76.2368
20
-119.772
11
75.7299
21
-119.403
0
LINE
8
BLACK
6
CONTINUOUS
10
75.7299
20
-119.403
11
75.7202
21
-119.395
0
LINE
8
BLACK
6
CONTINUOUS
10
75.7202
20
-119.395
11
75.7162
21
-119.39
0
LINE
8
BLACK
6
CONTINUOUS
10
75.7162
20
-119.39
11
75.7116
21
-119.386
0
LINE
8
BLACK
6
CONTINUOUS
10
75.7116
20
-119.386
11
75.3121
21
-118.903
0
LINE
8
BLACK
6
CONTINUOUS
10
75.3121
20
-118.903
11
75.3047
21
-118.893
0
LINE
8
BLACK
6
CONTINUOUS
10
75.3047
20
-118.893
11
75.3021
21
-118.887
0
LINE
8
BLACK
6
CONTINUOUS
10
75.3021
20
-118.887
11
75.2987
21
-118.882
0
LINE
8
BLACK
6
CONTINUOUS
10
75.2987
20
-118.882
11
75.0319
21
-118.315
0
LINE
8
BLACK
6
CONTINUOUS
10
75.0319
20
-118.315
11
75.0273
21
-118.303
0
LINE
8
BLACK
6
CONTINUOUS
10
75.0273
20
-118.303
11
75.0261
21
-118.297
0
LINE
8
BLACK
6
CONTINUOUS
10
75.0261
20
-118.297
11
75.0241
21
-118.291
0
LINE
8
BLACK
6
CONTINUOUS
10
75.0241
20
-118.291
11
74.9067
21
-117.676
0
LINE
8
BLACK
6
CONTINUOUS
10
74.9067
20
-117.676
11
74.9051
21
-117.663
0
LINE
8
BLACK
6
CONTINUOUS
10
74.9051
20
-117.663
11
74.9052
21
-117.662
0
LINE
8
BLACK
6
CONTINUOUS
10
74.9052
20
-117.662
11
74.905
21
-117.66
0
LINE
8
BLACK
6
CONTINUOUS
10
74.905
20
-117.66
11
74.9003
21
-117.51
0
LINE
8
BLACK
6
CONTINUOUS
10
74.9003
20
-117.51
11
74.9
21
-117.509
0
LINE
8
BLACK
6
CONTINUOUS
10
74.9
20
-117.509
11
74.9
21
-108.502
0
LINE
8
BLACK
6
CONTINUOUS
10
74.9
20
-108.502
11
74.8954
21
-108.354
0
LINE
8
BLACK
6
CONTINUOUS
10
74.8954
20
-108.354
11
74.7818
21
-107.759
0
LINE
8
BLACK
6
CONTINUOUS
10
74.7818
20
-107.759
11
74.5257
21
-107.214
0
LINE
8
BLACK
6
CONTINUOUS
10
74.5257
20
-107.214
11
74.1424
21
-106.751
0
LINE
8
BLACK
6
CONTINUOUS
10
74.1424
20
-106.751
11
73.6558
21
-106.398
0
LINE
8
BLACK
6
CONTINUOUS
10
73.6558
20
-106.398
11
73.0967
21
-106.176
0
LINE
8
BLACK
6
CONTINUOUS
10
73.0967
20
-106.176
11
72.4937
21
-106.1
0
LINE
8
BLACK
6
CONTINUOUS
10
72.4937
20
-106.1
11
-22.5087
21
-106.1
0
LINE
8
BLACK
6
CONTINUOUS
10
-22.5087
20
-106.1
11
-22.515
21
-106.099
0
LINE
8
BLACK
6
CONTINUOUS
10
-22.515
20
-106.099
11
-23.1343
21
-106.021
0
LINE
8
BLACK
6
CONTINUOUS
10
-23.1343
20
-106.021
11
-23.1466
21
-106.018
0
LINE
8
BLACK
6
CONTINUOUS
10
-23.1466
20
-106.018
11
-23.1524
21
-106.016
0
LINE
8
BLACK
6
CONTINUOUS
10
-23.1524
20
-106.016
11
-23.1585
21
-106.014
0
LINE
8
BLACK
6
CONTINUOUS
10
-23.1585
20
-106.014
11
-23.7412
21
-105.784
0
LINE
8
BLACK
6
CONTINUOUS
10
-23.7412
20
-105.784
11
-23.7526
21
-105.778
0
LINE
8
BLACK
6
CONTINUOUS
10
-23.7526
20
-105.778
11
-23.7576
21
-105.775
0
LINE
8
BLACK
6
CONTINUOUS
10
-23.7576
20
-105.775
11
-23.7632
21
-105.772
0
LINE
8
BLACK
6
CONTINUOUS
10
-23.7632
20
-105.772
11
-24.2701
21
-105.403
0
LINE
8
BLACK
6
CONTINUOUS
10
-24.2701
20
-105.403
11
-24.2798
21
-105.395
0
LINE
8
BLACK
6
CONTINUOUS
10
-24.2798
20
-105.395
11
-24.2838
21
-105.39
0
LINE
8
BLACK
6
CONTINUOUS
10
-24.2838
20
-105.39
11
-24.2884
21
-105.386
0
LINE
8
BLACK
6
CONTINUOUS
10
-24.2884
20
-105.386
11
-24.6879
21
-104.903
0
LINE
8
BLACK
6
CONTINUOUS
10
-24.6879
20
-104.903
11
-24.6953
21
-104.893
0
LINE
8
BLACK
6
CONTINUOUS
10
-24.6953
20
-104.893
11
-24.6979
21
-104.887
0
LINE
8
BLACK
6
CONTINUOUS
10
-24.6979
20
-104.887
11
-24.7013
21
-104.882
0
LINE
8
BLACK
6
CONTINUOUS
10
-24.7013
20
-104.882
11
-24.9681
21
-104.315
0
LINE
8
BLACK
6
CONTINUOUS
10
-24.9681
20
-104.315
11
-24.9727
21
-104.303
0
LINE
8
BLACK
6
CONTINUOUS
10
-24.9727
20
-104.303
11
-24.9739
21
-104.297
0
LINE
8
BLACK
6
CONTINUOUS
10
-24.9739
20
-104.297
11
-24.9759
21
-104.291
0
LINE
8
BLACK
6
CONTINUOUS
10
-24.9759
20
-104.291
11
-25.0933
21
-103.676
0
LINE
8
BLACK
6
CONTINUOUS
10
-25.0933
20
-103.676
11
-25.0949
21
-103.663
0
LINE
8
BLACK
6
CONTINUOUS
10
-25.0949
20
-103.663
11
-25.0948
21
-103.662
0
LINE
8
BLACK
6
CONTINUOUS
10
-25.0948
20
-103.662
11
-25.095
21
-103.66
0
LINE
8
BLACK
6
CONTINUOUS
10
-25.095
20
-103.66
11
-25.0997
21
-103.51
0
LINE
8
BLACK
6
CONTINUOUS
10
-25.0997
20
-103.51
11
-25.1
21
-103.509
0
LINE
8
BLACK
6
CONTINUOUS
10
-25.1
20
-103.509
11
-25.1
21
-62.4913
0
LINE
8
BLACK
6
CONTINUOUS
10
-25.1
20
-62.4913
11
-25.0989
21
-62.4851
0
LINE
8
BLACK
6
CONTINUOUS
10
-25.0989
20
-62.4851
11
-25.0207
21
-61.8657
0
LINE
8
BLACK
6
CONTINUOUS
10
-25.0207
20
-61.8657
11
-25.0183
21
-61.8534
0
LINE
8
BLACK
6
CONTINUOUS
10
-25.0183
20
-61.8534
11
-25.016
21
-61.8476
0
LINE
8
BLACK
6
CONTINUOUS
10
-25.016
20
-61.8476
11
-25.0144
21
-61.8415
0
LINE
8
BLACK
6
CONTINUOUS
10
-25.0144
20
-61.8415
11
-24.7837
21
-61.2588
0
LINE
8
BLACK
6
CONTINUOUS
10
-24.7837
20
-61.2588
11
-24.7784
21
-61.2474
0
LINE
8
BLACK
6
CONTINUOUS
10
-24.7784
20
-61.2474
11
-24.7747
21
-61.2424
0
LINE
8
BLACK
6
CONTINUOUS
10
-24.7747
20
-61.2424
11
-24.7717
21
-61.2368
0
LINE
8
BLACK
6
CONTINUOUS
10
-24.7717
20
-61.2368
11
-24.4033
21
-60.7299
0
LINE
8
BLACK
6
CONTINUOUS
10
-24.4033
20
-60.7299
11
-24.3953
21
-60.7202
0
LINE
8
BLACK
6
CONTINUOUS
10
-24.3953
20
-60.7202
11
-24.3905
21
-60.7162
0
LINE
8
BLACK
6
CONTINUOUS
10
-24.3905
20
-60.7162
11
-24.3862
21
-60.7116
0
LINE
8
BLACK
6
CONTINUOUS
10
-24.3862
20
-60.7116
11
-23.9033
21
-60.3121
0
LINE
8
BLACK
6
CONTINUOUS
10
-23.9033
20
-60.3121
11
-23.8931
21
-60.3047
0
LINE
8
BLACK
6
CONTINUOUS
10
-23.8931
20
-60.3047
11
-23.8875
21
-60.3021
0
LINE
8
BLACK
6
CONTINUOUS
10
-23.8875
20
-60.3021
11
-23.8821
21
-60.2987
0
LINE
8
BLACK
6
CONTINUOUS
10
-23.8821
20
-60.2987
11
-23.3151
21
-60.0319
0
LINE
8
BLACK
6
CONTINUOUS
10
-23.3151
20
-60.0319
11
-23.3034
21
-60.0273
0
LINE
8
BLACK
6
CONTINUOUS
10
-23.3034
20
-60.0273
11
-23.2973
21
-60.0261
0
LINE
8
BLACK
6
CONTINUOUS
10
-23.2973
20
-60.0261
11
-23.2913
21
-60.0241
0
LINE
8
BLACK
6
CONTINUOUS
10
-23.2913
20
-60.0241
11
-22.6757
21
-59.9067
0
LINE
8
BLACK
6
CONTINUOUS
10
-22.6757
20
-59.9067
11
-22.6633
21
-59.9051
0
LINE
8
BLACK
6
CONTINUOUS
10
-22.6633
20
-59.9051
11
-22.6617
21
-59.9052
0
LINE
8
BLACK
6
CONTINUOUS
10
-22.6617
20
-59.9052
11
-22.6601
21
-59.905
0
LINE
8
BLACK
6
CONTINUOUS
10
-22.6601
20
-59.905
11
-22.5103
21
-59.9003
0
LINE
8
BLACK
6
CONTINUOUS
10
-22.5103
20
-59.9003
11
-22.5087
21
-59.9
0
LINE
8
BLACK
6
CONTINUOUS
10
-22.5087
20
-59.9
11
337.509
21
-59.9
0
LINE
8
BLACK
6
CONTINUOUS
10
337.509
20
-59.9
11
337.515
21
-59.9011
0
LINE
8
BLACK
6
CONTINUOUS
10
-22.4984
20
-60.1
11
-22.646
21
-60.1046
0
LINE
8
BLACK
6
CONTINUOUS
10
-22.646
20
-60.1046
11
-23.2414
21
-60.2182
0
LINE
8
BLACK
6
CONTINUOUS
10
-23.2414
20
-60.2182
11
-23.7856
21
-60.4743
0
LINE
8
BLACK
6
CONTINUOUS
10
-23.7856
20
-60.4743
11
-24.2489
21
-60.8576
0
LINE
8
BLACK
6
CONTINUOUS
10
-24.2489
20
-60.8576
11
-24.6024
21
-61.3442
0
LINE
8
BLACK
6
CONTINUOUS
10
-24.6024
20
-61.3442
11
-24.8238
21
-61.9033
0
LINE
8
BLACK
6
CONTINUOUS
10
-24.8238
20
-61.9033
11
-24.9
21
-62.5063
0
LINE
8
BLACK
6
CONTINUOUS
10
-24.9
20
-62.5063
11
-24.9
21
-103.498
0
LINE
8
BLACK
6
CONTINUOUS
10
-24.9
20
-103.498
11
-24.8954
21
-103.646
0
LINE
8
BLACK
6
CONTINUOUS
10
-24.8954
20
-103.646
11
-24.7818
21
-104.241
0
LINE
8
BLACK
6
CONTINUOUS
10
-24.7818
20
-104.241
11
-24.5257
21
-104.786
0
LINE
8
BLACK
6
CONTINUOUS
10
-24.5257
20
-104.786
11
-24.1424
21
-105.249
0
LINE
8
BLACK
6
CONTINUOUS
10
-24.1424
20
-105.249
11
-23.6558
21
-105.602
0
LINE
8
BLACK
6
CONTINUOUS
10
-23.6558
20
-105.602
11
-23.0967
21
-105.824
0
LINE
8
BLACK
6
CONTINUOUS
10
-23.0967
20
-105.824
11
-22.4937
21
-105.9
0
LINE
8
BLACK
6
CONTINUOUS
10
-22.4937
20
-105.9
11
72.5087
21
-105.9
0
LINE
8
BLACK
6
CONTINUOUS
10
72.5087
20
-105.9
11
72.515
21
-105.901
0
LINE
8
BLACK
6
CONTINUOUS
10
72.515
20
-105.901
11
73.1343
21
-105.979
0
LINE
8
BLACK
6
CONTINUOUS
10
73.1343
20
-105.979
11
73.1466
21
-105.982
0
LINE
8
BLACK
6
CONTINUOUS
10
73.1466
20
-105.982
11
73.1524
21
-105.984
0
LINE
8
BLACK
6
CONTINUOUS
10
73.1524
20
-105.984
11
73.1585
21
-105.986
0
LINE
8
BLACK
6
CONTINUOUS
10
73.1585
20
-105.986
11
73.7412
21
-106.216
0
LINE
8
BLACK
6
CONTINUOUS
10
73.7412
20
-106.216
11
73.7526
21
-106.222
0
LINE
8
BLACK
6
CONTINUOUS
10
73.7526
20
-106.222
11
73.7576
21
-106.225
0
LINE
8
BLACK
6
CONTINUOUS
10
73.7576
20
-106.225
11
73.7632
21
-106.228
0
LINE
8
BLACK
6
CONTINUOUS
10
73.7632
20
-106.228
11
74.2701
21
-106.597
0
LINE
8
BLACK
6
CONTINUOUS
10
74.2701
20
-106.597
11
74.2798
21
-106.605
0
LINE
8
BLACK
6
CONTINUOUS
10
74.2798
20
-106.605
11
74.2838
21
-106.61
0
LINE
8
BLACK
6
CONTINUOUS
10
74.2838
20
-106.61
11
74.2884
21
-106.614
0
LINE
8
BLACK
6
CONTINUOUS
10
74.2884
20
-106.614
11
74.6879
21
-107.097
0
LINE
8
BLACK
6
CONTINUOUS
10
74.6879
20
-107.097
11
74.6953
21
-107.107
0
LINE
8
BLACK
6
CONTINUOUS
10
74.6953
20
-107.107
11
74.6979
21
-107.113
0
LINE
8
BLACK
6
CONTINUOUS
10
74.6979
20
-107.113
11
74.7013
21
-107.118
0
LINE
8
BLACK
6
CONTINUOUS
10
74.7013
20
-107.118
11
74.9681
21
-107.685
0
LINE
8
BLACK
6
CONTINUOUS
10
74.9681
20
-107.685
11
74.9727
21
-107.697
0
LINE
8
BLACK
6
CONTINUOUS
10
74.9727
20
-107.697
11
74.9739
21
-107.703
0
LINE
8
BLACK
6
CONTINUOUS
10
74.9739
20
-107.703
11
74.9759
21
-107.709
0
LINE
8
BLACK
6
CONTINUOUS
10
74.9759
20
-107.709
11
75.0933
21
-108.324
0
LINE
8
BLACK
6
CONTINUOUS
10
75.0933
20
-108.324
11
75.0949
21
-108.337
0
LINE
8
BLACK
6
CONTINUOUS
10
75.0949
20
-108.337
11
75.0948
21
-108.338
0
LINE
8
BLACK
6
CONTINUOUS
10
75.0948
20
-108.338
11
75.095
21
-108.34
0
LINE
8
BLACK
6
CONTINUOUS
10
75.095
20
-108.34
11
75.0997
21
-108.49
0
LINE
8
BLACK
6
CONTINUOUS
10
75.0997
20
-108.49
11
75.1
21
-108.491
0
LINE
8
BLACK
6
CONTINUOUS
10
75.1
20
-108.491
11
75.1
21
-117.498
0
LINE
8
BLACK
6
CONTINUOUS
10
75.1
20
-117.498
11
75.1046
21
-117.646
0
LINE
8
BLACK
6
CONTINUOUS
10
75.1046
20
-117.646
11
75.2182
21
-118.241
0
LINE
8
BLACK
6
CONTINUOUS
10
75.2182
20
-118.241
11
75.4743
21
-118.786
0
LINE
8
BLACK
6
CONTINUOUS
10
75.4743
20
-118.786
11
75.8576
21
-119.249
0
LINE
8
BLACK
6
CONTINUOUS
10
75.8576
20
-119.249
11
76.3442
21
-119.602
0
LINE
8
BLACK
6
CONTINUOUS
10
76.3442
20
-119.602
11
76.9033
21
-119.824
0
LINE
8
BLACK
6
CONTINUOUS
10
76.9033
20
-119.824
11
77.5063
21
-119.9
0
LINE
8
BLACK
6
CONTINUOUS
10
77.5063
20
-119.9
11
337.498
21
-119.9
0
LINE
8
BLACK
6
CONTINUOUS
10
337.498
20
-119.9
11
337.646
21
-119.895
0
LINE
8
BLACK
6
CONTINUOUS
10
337.646
20
-119.895
11
338.241
21
-119.782
0
LINE
8
BLACK
6
CONTINUOUS
10
338.241
20
-119.782
11
338.786
21
-119.526
0
LINE
8
BLACK
6
CONTINUOUS
10
338.786
20
-119.526
11
339.249
21
-119.142
0
LINE
8
BLACK
6
CONTINUOUS
10
339.249
20
-119.142
11
339.602
21
-118.656
0
LINE
8
BLACK
6
CONTINUOUS
10
339.602
20
-118.656
11
339.824
21
-118.097
0
LINE
8
BLACK
6
CONTINUOUS
10
339.824
20
-118.097
11
339.9
21
-117.494
0
LINE
8
BLACK
6
CONTINUOUS
10
339.9
20
-117.494
11
339.9
21
-62.5016
0
LINE
8
BLACK
6
CONTINUOUS
10
339.9
20
-62.5016
11
339.895
21
-62.354
0
LINE
8
BLACK
6
CONTINUOUS
10
339.895
20
-62.354
11
339.782
21
-61.7586
0
LINE
8
BLACK
6
CONTINUOUS
10
339.782
20
-61.7586
11
339.526
21
-61.2144
0
LINE
8
BLACK
6
CONTINUOUS
10
339.526
20
-61.2144
11
339.142
21
-60.7511
0
LINE
8
BLACK
6
CONTINUOUS
10
339.142
20
-60.7511
11
338.656
21
-60.3976
0
LINE
8
BLACK
6
CONTINUOUS
10
338.656
20
-60.3976
11
338.097
21
-60.1762
0
LINE
8
BLACK
6
CONTINUOUS
10
338.097
20
-60.1762
11
337.494
21
-60.1
0
LINE
8
BLACK
6
CONTINUOUS
10
337.494
20
-60.1
11
-22.4984
21
-60.1
0
LINE
8
BLACK
6
CONTINUOUS
10
5.79901
20
-88.6525
11
5.40214
21
-89.9306
0
LINE
8
BLACK
6
CONTINUOUS
10
5.40214
20
-89.9306
11
4.85458
21
-91.1519
0
LINE
8
BLACK
6
CONTINUOUS
10
4.85458
20
-91.1519
11
4.16428
21
-92.2984
0
LINE
8
BLACK
6
CONTINUOUS
10
4.16428
20
-92.2984
11
3.34123
21
-93.3538
0
LINE
8
BLACK
6
CONTINUOUS
10
3.34123
20
-93.3538
11
2.39736
21
-94.3026
0
LINE
8
BLACK
6
CONTINUOUS
10
2.39736
20
-94.3026
11
1.34633
21
-95.1312
0
LINE
8
BLACK
6
CONTINUOUS
10
1.34633
20
-95.1312
11
0.20338
21
-95.8275
0
LINE
8
BLACK
6
CONTINUOUS
10
0.20338
20
-95.8275
11
-1.01495
21
-96.3814
0
LINE
8
BLACK
6
CONTINUOUS
10
-1.01495
20
-96.3814
11
-2.291
21
-96.785
0
LINE
8
BLACK
6
CONTINUOUS
10
-2.291
20
-96.785
11
-3.60629
21
-97.0323
0
LINE
8
BLACK
6
CONTINUOUS
10
-3.60629
20
-97.0323
11
-4.94178
21
-97.1198
0
LINE
8
BLACK
6
CONTINUOUS
10
-4.94178
20
-97.1198
11
-6.2781
21
-97.0463
0
LINE
8
BLACK
6
CONTINUOUS
10
-6.2781
20
-97.0463
11
-7.59591
21
-96.8128
0
LINE
8
BLACK
6
CONTINUOUS
10
-7.59591
20
-96.8128
11
-8.87612
21
-96.4226
0
LINE
8
BLACK
6
CONTINUOUS
10
-8.87612
20
-96.4226
11
-10.1002
21
-95.8814
0
LINE
8
BLACK
6
CONTINUOUS
10
-10.1002
20
-95.8814
11
-11.2504
21
-95.1971
0
LINE
8
BLACK
6
CONTINUOUS
10
-11.2504
20
-95.1971
11
-12.31
21
-94.3796
0
LINE
8
BLACK
6
CONTINUOUS
10
-12.31
20
-94.3796
11
-13.2638
21
-93.4407
0
LINE
8
BLACK
6
CONTINUOUS
10
-13.2638
20
-93.4407
11
-14.0978
21
-92.3941
0
LINE
8
BLACK
6
CONTINUOUS
10
-14.0978
20
-92.3941
11
-14.8001
21
-91.2548
0
LINE
8
BLACK
6
CONTINUOUS
10
-14.8001
20
-91.2548
11
-15.3604
21
-90.0394
0
LINE
8
BLACK
6
CONTINUOUS
10
-15.3604
20
-90.0394
11
-15.7706
21
-88.7654
0
LINE
8
BLACK
6
CONTINUOUS
10
-15.7706
20
-88.7654
11
-16.0249
21
-87.4515
0
LINE
8
BLACK
6
CONTINUOUS
10
-16.0249
20
-87.4515
11
-16.1194
21
-86.1164
0
LINE
8
BLACK
6
CONTINUOUS
10
-16.1194
20
-86.1164
11
-16.0528
21
-84.7798
0
LINE
8
BLACK
6
CONTINUOUS
10
-16.0528
20
-84.7798
11
-15.8262
21
-83.4607
0
LINE
8
BLACK
6
CONTINUOUS
10
-15.8262
20
-83.4607
11
-15.4427
21
-82.1785
0
LINE
8
BLACK
6
CONTINUOUS
10
-15.4427
20
-82.1785
11
-14.908
21
-80.9516
0
LINE
8
BLACK
6
CONTINUOUS
10
-14.908
20
-80.9516
11
-14.2297
21
-79.7979
0
LINE
8
BLACK
6
CONTINUOUS
10
-14.2297
20
-79.7979
11
-13.4178
21
-78.734
0
LINE
8
BLACK
6
CONTINUOUS
10
-13.4178
20
-78.734
11
-12.4839
21
-77.7753
0
LINE
8
BLACK
6
CONTINUOUS
10
-12.4839
20
-77.7753
11
-11.4416
21
-76.9358
0
LINE
8
BLACK
6
CONTINUOUS
10
-11.4416
20
-76.9358
11
-10.306
21
-76.2276
0
LINE
8
BLACK
6
CONTINUOUS
10
-10.306
20
-76.2276
11
-9.09354
21
-75.6609
0
LINE
8
BLACK
6
CONTINUOUS
10
-9.09354
20
-75.6609
11
-7.82179
21
-75.244
0
LINE
8
BLACK
6
CONTINUOUS
10
-7.82179
20
-75.244
11
-6.50916
21
-74.9829
0
LINE
8
BLACK
6
CONTINUOUS
10
-6.50916
20
-74.9829
11
-5.17467
21
-74.8814
0
LINE
8
BLACK
6
CONTINUOUS
10
-5.17467
20
-74.8814
11
-3.83764
21
-74.9409
0
LINE
8
BLACK
6
CONTINUOUS
10
-3.83764
20
-74.9409
11
-2.51746
21
-75.1607
0
LINE
8
BLACK
6
CONTINUOUS
10
-2.51746
20
-75.1607
11
-1.23323
21
-75.5374
0
LINE
8
BLACK
6
CONTINUOUS
10
-1.23323
20
-75.5374
11
-0.003573
21
-76.0657
0
LINE
8
BLACK
6
CONTINUOUS
10
-0.003573
20
-76.0657
11
1.15371
21
-76.7379
0
LINE
8
BLACK
6
CONTINUOUS
10
1.15371
20
-76.7379
11
2.22186
21
-77.5443
0
LINE
8
BLACK
6
CONTINUOUS
10
2.22186
20
-77.5443
11
3.1854
21
-78.4731
0
LINE
8
BLACK
6
CONTINUOUS
10
3.1854
20
-78.4731
11
4.03037
21
-79.511
0
LINE
8
BLACK
6
CONTINUOUS
10
4.03037
20
-79.511
11
4.74453
21
-80.6429
0
LINE
8
BLACK
6
CONTINUOUS
10
4.74453
20
-80.6429
11
5.31754
21
-81.8524
0
LINE
8
BLACK
6
CONTINUOUS
10
5.31754
20
-81.8524
11
5.74109
21
-83.1219
0
LINE
8
BLACK
6
CONTINUOUS
10
5.74109
20
-83.1219
11
6.00906
21
-84.4332
0
LINE
8
BLACK
6
CONTINUOUS
10
6.00906
20
-84.4332
11
6.11756
21
-85.7671
0
LINE
8
BLACK
6
CONTINUOUS
10
6.11756
20
-85.7671
11
6.12
21
-86
0
LINE
8
BLACK
6
CONTINUOUS
10
6.12
20
-86
11
6.03946
21
-87.3359
0
LINE
8
BLACK
6
CONTINUOUS
10
6.03946
20
-87.3359
11
5.79901
21
-88.6525
0
LINE
8
BLACK
6
CONTINUOUS
10
5.58536
20
-83.4
11
5.19634
21
-82.1471
0
LINE
8
BLACK
6
CONTINUOUS
10
5.19634
20
-82.1471
11
4.65962
21
-80.9501
0
LINE
8
BLACK
6
CONTINUOUS
10
4.65962
20
-80.9501
11
3.98297
21
-79.8262
0
LINE
8
BLACK
6
CONTINUOUS
10
3.98297
20
-79.8262
11
3.17621
21
-78.7917
0
LINE
8
BLACK
6
CONTINUOUS
10
3.17621
20
-78.7917
11
2.25101
21
-77.8616
0
LINE
8
BLACK
6
CONTINUOUS
10
2.25101
20
-77.8616
11
1.22078
21
-77.0495
0
LINE
8
BLACK
6
CONTINUOUS
10
1.22078
20
-77.0495
11
0.100435
21
-76.367
0
LINE
8
BLACK
6
CONTINUOUS
10
0.100435
20
-76.367
11
-1.09379
21
-75.824
0
LINE
8
BLACK
6
CONTINUOUS
10
-1.09379
20
-75.824
11
-2.3446
21
-75.4284
0
LINE
8
BLACK
6
CONTINUOUS
10
-2.3446
20
-75.4284
11
-3.63387
21
-75.1859
0
LINE
8
BLACK
6
CONTINUOUS
10
-3.63387
20
-75.1859
11
-4.94293
21
-75.1001
0
LINE
8
BLACK
6
CONTINUOUS
10
-4.94293
20
-75.1001
11
-6.25282
21
-75.1722
0
LINE
8
BLACK
6
CONTINUOUS
10
-6.25282
20
-75.1722
11
-7.54455
21
-75.4012
0
LINE
8
BLACK
6
CONTINUOUS
10
-7.54455
20
-75.4012
11
-8.79943
21
-75.7836
0
LINE
8
BLACK
6
CONTINUOUS
10
-8.79943
20
-75.7836
11
-9.99928
21
-76.3141
0
LINE
8
BLACK
6
CONTINUOUS
10
-9.99928
20
-76.3141
11
-11.1267
21
-76.9848
0
LINE
8
BLACK
6
CONTINUOUS
10
-11.1267
20
-76.9848
11
-12.1654
21
-77.7862
0
LINE
8
BLACK
6
CONTINUOUS
10
-12.1654
20
-77.7862
11
-13.1003
21
-78.7065
0
LINE
8
BLACK
6
CONTINUOUS
10
-13.1003
20
-78.7065
11
-13.9178
21
-79.7324
0
LINE
8
BLACK
6
CONTINUOUS
10
-13.9178
20
-79.7324
11
-14.6062
21
-80.8492
0
LINE
8
BLACK
6
CONTINUOUS
10
-14.6062
20
-80.8492
11
-15.1554
21
-82.0406
0
LINE
8
BLACK
6
CONTINUOUS
10
-15.1554
20
-82.0406
11
-15.5576
21
-83.2893
0
LINE
8
BLACK
6
CONTINUOUS
10
-15.5576
20
-83.2893
11
-15.8067
21
-84.5773
0
LINE
8
BLACK
6
CONTINUOUS
10
-15.8067
20
-84.5773
11
-15.8994
21
-85.8859
0
LINE
8
BLACK
6
CONTINUOUS
10
-15.8994
20
-85.8859
11
-15.8342
21
-87.1961
0
LINE
8
BLACK
6
CONTINUOUS
10
-15.8342
20
-87.1961
11
-15.612
21
-88.489
0
LINE
8
BLACK
6
CONTINUOUS
10
-15.612
20
-88.489
11
-15.2361
21
-89.7459
0
LINE
8
BLACK
6
CONTINUOUS
10
-15.2361
20
-89.7459
11
-14.712
21
-90.9485
0
LINE
8
BLACK
6
CONTINUOUS
10
-14.712
20
-90.9485
11
-14.0471
21
-92.0794
0
LINE
8
BLACK
6
CONTINUOUS
10
-14.0471
20
-92.0794
11
-13.2512
21
-93.1223
0
LINE
8
BLACK
6
CONTINUOUS
10
-13.2512
20
-93.1223
11
-12.3358
21
-94.062
0
LINE
8
BLACK
6
CONTINUOUS
10
-12.3358
20
-94.062
11
-11.3142
21
-94.8849
0
LINE
8
BLACK
6
CONTINUOUS
10
-11.3142
20
-94.8849
11
-10.201
21
-95.5791
0
LINE
8
BLACK
6
CONTINUOUS
10
-10.201
20
-95.5791
11
-9.01256
21
-96.1346
0
LINE
8
BLACK
6
CONTINUOUS
10
-9.01256
20
-96.1346
11
-7.76596
21
-96.5432
0
LINE
8
BLACK
6
CONTINUOUS
10
-7.76596
20
-96.5432
11
-6.4793
21
-96.7992
0
LINE
8
BLACK
6
CONTINUOUS
10
-6.4793
20
-96.7992
11
-5.17121
21
-96.8987
0
LINE
8
BLACK
6
CONTINUOUS
10
-5.17121
20
-96.8987
11
-3.86064
21
-96.8403
0
LINE
8
BLACK
6
CONTINUOUS
10
-3.86064
20
-96.8403
11
-2.56657
21
-96.6249
0
LINE
8
BLACK
6
CONTINUOUS
10
-2.56657
20
-96.6249
11
-1.30776
21
-96.2556
0
LINE
8
BLACK
6
CONTINUOUS
10
-1.30776
20
-96.2556
11
-0.102423
21
-95.7377
0
LINE
8
BLACK
6
CONTINUOUS
10
-0.102423
20
-95.7377
11
1.03197
21
-95.0788
0
LINE
8
BLACK
6
CONTINUOUS
10
1.03197
20
-95.0788
11
2.07898
21
-94.2884
0
LINE
8
BLACK
6
CONTINUOUS
10
2.07898
20
-94.2884
11
3.02346
21
-93.3779
0
LINE
8
BLACK
6
CONTINUOUS
10
3.02346
20
-93.3779
11
3.85171
21
-92.3606
0
LINE
8
BLACK
6
CONTINUOUS
10
3.85171
20
-92.3606
11
4.55174
21
-91.2511
0
LINE
8
BLACK
6
CONTINUOUS
10
4.55174
20
-91.2511
11
5.11341
21
-90.0656
0
LINE
8
BLACK
6
CONTINUOUS
10
5.11341
20
-90.0656
11
5.52859
21
-88.8211
0
LINE
8
BLACK
6
CONTINUOUS
10
5.52859
20
-88.8211
11
5.79126
21
-87.5358
0
LINE
8
BLACK
6
CONTINUOUS
10
5.79126
20
-87.5358
11
5.89761
21
-86.2283
0
LINE
8
BLACK
6
CONTINUOUS
10
5.89761
20
-86.2283
11
5.9
21
-86
0
LINE
8
BLACK
6
CONTINUOUS
10
5.9
20
-86
11
5.82105
21
-84.6905
0
LINE
8
BLACK
6
CONTINUOUS
10
5.82105
20
-84.6905
11
5.58536
21
-83.4
0
LINE
8
BLACK
6
CONTINUOUS
10
266.121
20
-77.9136
11
266.284
21
-77.973
0
LINE
8
BLACK
6
CONTINUOUS
10
266.284
20
-77.973
11
266.314
21
-77.9904
0
LINE
8
BLACK
6
CONTINUOUS
10
266.314
20
-77.9904
11
266.447
21
-78.102
0
LINE
8
BLACK
6
CONTINUOUS
10
266.447
20
-78.102
11
266.47
21
-78.1286
0
LINE
8
BLACK
6
CONTINUOUS
10
266.47
20
-78.1286
11
266.556
21
-78.279
0
LINE
8
BLACK
6
CONTINUOUS
10
266.556
20
-78.279
11
266.568
21
-78.3116
0
LINE
8
BLACK
6
CONTINUOUS
10
266.568
20
-78.3116
11
266.598
21
-78.4826
0
LINE
8
BLACK
6
CONTINUOUS
10
266.598
20
-78.4826
11
266.598
21
-78.4826
0
LINE
8
BLACK
6
CONTINUOUS
10
266.598
20
-78.4826
11
266.6
21
-78.4913
0
LINE
8
BLACK
6
CONTINUOUS
10
266.6
20
-78.4913
11
266.6
21
-82.5087
0
LINE
8
BLACK
6
CONTINUOUS
10
266.6
20
-82.5087
11
266.599
21
-82.5168
0
LINE
8
BLACK
6
CONTINUOUS
10
266.599
20
-82.5168
11
266.518
21
-83.0023
0
LINE
8
BLACK
6
CONTINUOUS
10
266.518
20
-83.0023
11
266.518
21
-83.0023
0
LINE
8
BLACK
6
CONTINUOUS
10
266.518
20
-83.0023
11
266.518
21
-83.0023
0
LINE
8
BLACK
6
CONTINUOUS
10
266.518
20
-83.0023
11
266.513
21
-83.019
0
LINE
8
BLACK
6
CONTINUOUS
10
266.513
20
-83.019
11
266.51
21
-83.0259
0
LINE
8
BLACK
6
CONTINUOUS
10
266.51
20
-83.0259
11
266.507
21
-83.0334
0
LINE
8
BLACK
6
CONTINUOUS
10
266.507
20
-83.0334
11
266.273
21
-83.4668
0
LINE
8
BLACK
6
CONTINUOUS
10
266.273
20
-83.4668
11
266.273
21
-83.4668
0
LINE
8
BLACK
6
CONTINUOUS
10
266.273
20
-83.4668
11
266.273
21
-83.4669
0
LINE
8
BLACK
6
CONTINUOUS
10
266.273
20
-83.4669
11
266.264
21
-83.4813
0
LINE
8
BLACK
6
CONTINUOUS
10
266.264
20
-83.4813
11
266.258
21
-83.4866
0
LINE
8
BLACK
6
CONTINUOUS
10
266.258
20
-83.4866
11
266.253
21
-83.4928
0
LINE
8
BLACK
6
CONTINUOUS
10
266.253
20
-83.4928
11
265.891
21
-83.8271
0
LINE
8
BLACK
6
CONTINUOUS
10
265.891
20
-83.8271
11
265.891
21
-83.8271
0
LINE
8
BLACK
6
CONTINUOUS
10
265.891
20
-83.8271
11
265.891
21
-83.8272
0
LINE
8
BLACK
6
CONTINUOUS
10
265.891
20
-83.8272
11
265.878
21
-83.8377
0
LINE
8
BLACK
6
CONTINUOUS
10
265.878
20
-83.8377
11
265.871
21
-83.8408
0
LINE
8
BLACK
6
CONTINUOUS
10
265.871
20
-83.8408
11
265.864
21
-83.8452
0
LINE
8
BLACK
6
CONTINUOUS
10
265.864
20
-83.8452
11
265.413
21
-84.0443
0
LINE
8
BLACK
6
CONTINUOUS
10
265.413
20
-84.0443
11
265.397
21
-84.0499
0
LINE
8
BLACK
6
CONTINUOUS
10
265.397
20
-84.0499
11
265.391
21
-84.0504
0
LINE
8
BLACK
6
CONTINUOUS
10
265.391
20
-84.0504
11
265.386
21
-84.0521
0
LINE
8
BLACK
6
CONTINUOUS
10
265.386
20
-84.0521
11
265.015
21
-84.0989
0
LINE
8
BLACK
6
CONTINUOUS
10
265.015
20
-84.0989
11
265.009
21
-84.1
0
LINE
8
BLACK
6
CONTINUOUS
10
265.009
20
-84.1
11
263.991
21
-84.1
0
LINE
8
BLACK
6
CONTINUOUS
10
263.991
20
-84.1
11
263.983
21
-84.0985
0
LINE
8
BLACK
6
CONTINUOUS
10
263.983
20
-84.0985
11
263.983
21
-84.0985
0
LINE
8
BLACK
6
CONTINUOUS
10
263.983
20
-84.0985
11
263.812
21
-84.0683
0
LINE
8
BLACK
6
CONTINUOUS
10
263.812
20
-84.0683
11
263.779
21
-84.0564
0
LINE
8
BLACK
6
CONTINUOUS
10
263.779
20
-84.0564
11
263.629
21
-83.9696
0
LINE
8
BLACK
6
CONTINUOUS
10
263.629
20
-83.9696
11
263.602
21
-83.9473
0
LINE
8
BLACK
6
CONTINUOUS
10
263.602
20
-83.9473
11
263.49
21
-83.8143
0
LINE
8
BLACK
6
CONTINUOUS
10
263.49
20
-83.8143
11
263.473
21
-83.7842
0
LINE
8
BLACK
6
CONTINUOUS
10
263.473
20
-83.7842
11
263.414
21
-83.621
0
LINE
8
BLACK
6
CONTINUOUS
10
263.414
20
-83.621
11
263.408
21
-83.5868
0
LINE
8
BLACK
6
CONTINUOUS
10
263.408
20
-83.5868
11
263.408
21
-83.4132
0
LINE
8
BLACK
6
CONTINUOUS
10
263.408
20
-83.4132
11
263.414
21
-83.379
0
LINE
8
BLACK
6
CONTINUOUS
10
263.414
20
-83.379
11
263.473
21
-83.2158
0
LINE
8
BLACK
6
CONTINUOUS
10
263.473
20
-83.2158
11
263.48
21
-83.2036
0
LINE
8
BLACK
6
CONTINUOUS
10
263.48
20
-83.2036
11
263.49
21
-83.1857
0
LINE
8
BLACK
6
CONTINUOUS
10
263.49
20
-83.1857
11
263.602
21
-83.0527
0
LINE
8
BLACK
6
CONTINUOUS
10
263.602
20
-83.0527
11
263.614
21
-83.0424
0
LINE
8
BLACK
6
CONTINUOUS
10
263.614
20
-83.0424
11
263.629
21
-83.0304
0
LINE
8
BLACK
6
CONTINUOUS
10
263.629
20
-83.0304
11
263.779
21
-82.9436
0
LINE
8
BLACK
6
CONTINUOUS
10
263.779
20
-82.9436
11
263.782
21
-82.9424
0
LINE
8
BLACK
6
CONTINUOUS
10
263.782
20
-82.9424
11
263.812
21
-82.9317
0
LINE
8
BLACK
6
CONTINUOUS
10
263.812
20
-82.9317
11
263.983
21
-82.9015
0
LINE
8
BLACK
6
CONTINUOUS
10
263.983
20
-82.9015
11
263.983
21
-82.9015
0
LINE
8
BLACK
6
CONTINUOUS
10
263.983
20
-82.9015
11
263.991
21
-82.9
0
LINE
8
BLACK
6
CONTINUOUS
10
263.991
20
-82.9
11
264.996
21
-82.9
0
LINE
8
BLACK
6
CONTINUOUS
10
264.996
20
-82.9
11
265.065
21
-82.8939
0
LINE
8
BLACK
6
CONTINUOUS
10
265.065
20
-82.8939
11
265.199
21
-82.8451
0
LINE
8
BLACK
6
CONTINUOUS
10
265.199
20
-82.8451
11
265.305
21
-82.7561
0
LINE
8
BLACK
6
CONTINUOUS
10
265.305
20
-82.7561
11
265.374
21
-82.6363
0
LINE
8
BLACK
6
CONTINUOUS
10
265.374
20
-82.6363
11
265.4
21
-82.4912
0
LINE
8
BLACK
6
CONTINUOUS
10
265.4
20
-82.4912
11
265.4
21
-78.4913
0
LINE
8
BLACK
6
CONTINUOUS
10
265.4
20
-78.4913
11
265.402
21
-78.4826
0
LINE
8
BLACK
6
CONTINUOUS
10
265.402
20
-78.4826
11
265.402
21
-78.4826
0
LINE
8
BLACK
6
CONTINUOUS
10
265.402
20
-78.4826
11
265.432
21
-78.3116
0
LINE
8
BLACK
6
CONTINUOUS
10
265.432
20
-78.3116
11
265.444
21
-78.279
0
LINE
8
BLACK
6
CONTINUOUS
10
265.444
20
-78.279
11
265.53
21
-78.1286
0
LINE
8
BLACK
6
CONTINUOUS
10
265.53
20
-78.1286
11
265.553
21
-78.102
0
LINE
8
BLACK
6
CONTINUOUS
10
265.553
20
-78.102
11
265.686
21
-77.9904
0
LINE
8
BLACK
6
CONTINUOUS
10
265.686
20
-77.9904
11
265.716
21
-77.973
0
LINE
8
BLACK
6
CONTINUOUS
10
265.716
20
-77.973
11
265.879
21
-77.9136
0
LINE
8
BLACK
6
CONTINUOUS
10
265.879
20
-77.9136
11
265.913
21
-77.9076
0
LINE
8
BLACK
6
CONTINUOUS
10
265.913
20
-77.9076
11
266.087
21
-77.9076
0
LINE
8
BLACK
6
CONTINUOUS
10
266.087
20
-77.9076
11
266.121
21
-77.9136
0
LINE
8
BLACK
6
CONTINUOUS
10
265.931
20
-78.1076
11
265.801
21
-78.1549
0
LINE
8
BLACK
6
CONTINUOUS
10
265.801
20
-78.1549
11
265.695
21
-78.2439
0
LINE
8
BLACK
6
CONTINUOUS
10
265.695
20
-78.2439
11
265.626
21
-78.3637
0
LINE
8
BLACK
6
CONTINUOUS
10
265.626
20
-78.3637
11
265.6
21
-78.5087
0
LINE
8
BLACK
6
CONTINUOUS
10
265.6
20
-78.5087
11
265.6
21
-82.5087
0
LINE
8
BLACK
6
CONTINUOUS
10
265.6
20
-82.5087
11
265.598
21
-82.5174
0
LINE
8
BLACK
6
CONTINUOUS
10
265.598
20
-82.5174
11
265.598
21
-82.5174
0
LINE
8
BLACK
6
CONTINUOUS
10
265.598
20
-82.5174
11
265.568
21
-82.6884
0
LINE
8
BLACK
6
CONTINUOUS
10
265.568
20
-82.6884
11
265.558
21
-82.7158
0
LINE
8
BLACK
6
CONTINUOUS
10
265.558
20
-82.7158
11
265.556
21
-82.721
0
LINE
8
BLACK
6
CONTINUOUS
10
265.556
20
-82.721
11
265.47
21
-82.8714
0
LINE
8
BLACK
6
CONTINUOUS
10
265.47
20
-82.8714
11
265.449
21
-82.8958
0
LINE
8
BLACK
6
CONTINUOUS
10
265.449
20
-82.8958
11
265.447
21
-82.898
0
LINE
8
BLACK
6
CONTINUOUS
10
265.447
20
-82.898
11
265.314
21
-83.0096
0
LINE
8
BLACK
6
CONTINUOUS
10
265.314
20
-83.0096
11
265.286
21
-83.0259
0
LINE
8
BLACK
6
CONTINUOUS
10
265.286
20
-83.0259
11
265.284
21
-83.027
0
LINE
8
BLACK
6
CONTINUOUS
10
265.284
20
-83.027
11
265.121
21
-83.0864
0
LINE
8
BLACK
6
CONTINUOUS
10
265.121
20
-83.0864
11
265.108
21
-83.0886
0
LINE
8
BLACK
6
CONTINUOUS
10
265.108
20
-83.0886
11
265.096
21
-83.092
0
LINE
8
BLACK
6
CONTINUOUS
10
265.096
20
-83.092
11
265.013
21
-83.0992
0
LINE
8
BLACK
6
CONTINUOUS
10
265.013
20
-83.0992
11
265.009
21
-83.1
0
LINE
8
BLACK
6
CONTINUOUS
10
265.009
20
-83.1
11
264.009
21
-83.1
0
LINE
8
BLACK
6
CONTINUOUS
10
264.009
20
-83.1
11
263.864
21
-83.1256
0
LINE
8
BLACK
6
CONTINUOUS
10
263.864
20
-83.1256
11
263.744
21
-83.1948
0
LINE
8
BLACK
6
CONTINUOUS
10
263.744
20
-83.1948
11
263.655
21
-83.3008
0
LINE
8
BLACK
6
CONTINUOUS
10
263.655
20
-83.3008
11
263.608
21
-83.4308
0
LINE
8
BLACK
6
CONTINUOUS
10
263.608
20
-83.4308
11
263.608
21
-83.5692
0
LINE
8
BLACK
6
CONTINUOUS
10
263.608
20
-83.5692
11
263.655
21
-83.6992
0
LINE
8
BLACK
6
CONTINUOUS
10
263.655
20
-83.6992
11
263.744
21
-83.8052
0
LINE
8
BLACK
6
CONTINUOUS
10
263.744
20
-83.8052
11
263.864
21
-83.8744
0
LINE
8
BLACK
6
CONTINUOUS
10
263.864
20
-83.8744
11
264.009
21
-83.9
0
LINE
8
BLACK
6
CONTINUOUS
10
264.009
20
-83.9
11
264.994
21
-83.9
0
LINE
8
BLACK
6
CONTINUOUS
10
264.994
20
-83.9
11
265.346
21
-83.8555
0
LINE
8
BLACK
6
CONTINUOUS
10
265.346
20
-83.8555
11
265.768
21
-83.669
0
LINE
8
BLACK
6
CONTINUOUS
10
265.768
20
-83.669
11
266.105
21
-83.3572
0
LINE
8
BLACK
6
CONTINUOUS
10
266.105
20
-83.3572
11
266.323
21
-82.953
0
LINE
8
BLACK
6
CONTINUOUS
10
266.323
20
-82.953
11
266.4
21
-82.4917
0
LINE
8
BLACK
6
CONTINUOUS
10
266.4
20
-82.4917
11
266.4
21
-78.5088
0
LINE
8
BLACK
6
CONTINUOUS
10
266.4
20
-78.5088
11
266.374
21
-78.3637
0
LINE
8
BLACK
6
CONTINUOUS
10
266.374
20
-78.3637
11
266.305
21
-78.2439
0
LINE
8
BLACK
6
CONTINUOUS
10
266.305
20
-78.2439
11
266.199
21
-78.1549
0
LINE
8
BLACK
6
CONTINUOUS
10
266.199
20
-78.1549
11
266.069
21
-78.1076
0
LINE
8
BLACK
6
CONTINUOUS
10
266.069
20
-78.1076
11
265.931
21
-78.1076
0
LINE
8
BLACK
6
CONTINUOUS
10
259.121
20
-77.9136
11
259.284
21
-77.973
0
LINE
8
BLACK
6
CONTINUOUS
10
259.284
20
-77.973
11
259.314
21
-77.9904
0
LINE
8
BLACK
6
CONTINUOUS
10
259.314
20
-77.9904
11
259.447
21
-78.102
0
LINE
8
BLACK
6
CONTINUOUS
10
259.447
20
-78.102
11
259.47
21
-78.1286
0
LINE
8
BLACK
6
CONTINUOUS
10
259.47
20
-78.1286
11
259.556
21
-78.279
0
LINE
8
BLACK
6
CONTINUOUS
10
259.556
20
-78.279
11
259.568
21
-78.3116
0
LINE
8
BLACK
6
CONTINUOUS
10
259.568
20
-78.3116
11
259.598
21
-78.4826
0
LINE
8
BLACK
6
CONTINUOUS
10
259.598
20
-78.4826
11
259.598
21
-78.4826
0
LINE
8
BLACK
6
CONTINUOUS
10
259.598
20
-78.4826
11
259.6
21
-78.4913
0
LINE
8
BLACK
6
CONTINUOUS
10
259.6
20
-78.4913
11
259.6
21
-82.4956
0
LINE
8
BLACK
6
CONTINUOUS
10
259.6
20
-82.4956
11
259.606
21
-82.565
0
LINE
8
BLACK
6
CONTINUOUS
10
259.606
20
-82.565
11
259.655
21
-82.6992
0
LINE
8
BLACK
6
CONTINUOUS
10
259.655
20
-82.6992
11
259.744
21
-82.8052
0
LINE
8
BLACK
6
CONTINUOUS
10
259.744
20
-82.8052
11
259.864
21
-82.8744
0
LINE
8
BLACK
6
CONTINUOUS
10
259.864
20
-82.8744
11
260.009
21
-82.9
0
LINE
8
BLACK
6
CONTINUOUS
10
260.009
20
-82.9
11
261.009
21
-82.9
0
LINE
8
BLACK
6
CONTINUOUS
10
261.009
20
-82.9
11
261.017
21
-82.9015
0
LINE
8
BLACK
6
CONTINUOUS
10
261.017
20
-82.9015
11
261.017
21
-82.9015
0
LINE
8
BLACK
6
CONTINUOUS
10
261.017
20
-82.9015
11
261.188
21
-82.9317
0
LINE
8
BLACK
6
CONTINUOUS
10
261.188
20
-82.9317
11
261.221
21
-82.9436
0
LINE
8
BLACK
6
CONTINUOUS
10
261.221
20
-82.9436
11
261.371
21
-83.0304
0
LINE
8
BLACK
6
CONTINUOUS
10
261.371
20
-83.0304
11
261.386
21
-83.0424
0
LINE
8
BLACK
6
CONTINUOUS
10
261.386
20
-83.0424
11
261.398
21
-83.0527
0
LINE
8
BLACK
6
CONTINUOUS
10
261.398
20
-83.0527
11
261.51
21
-83.1857
0
LINE
8
BLACK
6
CONTINUOUS
10
261.51
20
-83.1857
11
261.527
21
-83.2158
0
LINE
8
BLACK
6
CONTINUOUS
10
261.527
20
-83.2158
11
261.586
21
-83.379
0
LINE
8
BLACK
6
CONTINUOUS
10
261.586
20
-83.379
11
261.592
21
-83.4132
0
LINE
8
BLACK
6
CONTINUOUS
10
261.592
20
-83.4132
11
261.592
21
-83.5868
0
LINE
8
BLACK
6
CONTINUOUS
10
261.592
20
-83.5868
11
261.586
21
-83.621
0
LINE
8
BLACK
6
CONTINUOUS
10
261.586
20
-83.621
11
261.527
21
-83.7842
0
LINE
8
BLACK
6
CONTINUOUS
10
261.527
20
-83.7842
11
261.51
21
-83.8143
0
LINE
8
BLACK
6
CONTINUOUS
10
261.51
20
-83.8143
11
261.398
21
-83.9473
0
LINE
8
BLACK
6
CONTINUOUS
10
261.398
20
-83.9473
11
261.371
21
-83.9696
0
LINE
8
BLACK
6
CONTINUOUS
10
261.371
20
-83.9696
11
261.221
21
-84.0564
0
LINE
8
BLACK
6
CONTINUOUS
10
261.221
20
-84.0564
11
261.188
21
-84.0683
0
LINE
8
BLACK
6
CONTINUOUS
10
261.188
20
-84.0683
11
261.017
21
-84.0985
0
LINE
8
BLACK
6
CONTINUOUS
10
261.017
20
-84.0985
11
261.017
21
-84.0985
0
LINE
8
BLACK
6
CONTINUOUS
10
261.017
20
-84.0985
11
261.009
21
-84.1
0
LINE
8
BLACK
6
CONTINUOUS
10
261.009
20
-84.1
11
259.991
21
-84.1
0
LINE
8
BLACK
6
CONTINUOUS
10
259.991
20
-84.1
11
259.983
21
-84.0986
0
LINE
8
BLACK
6
CONTINUOUS
10
259.983
20
-84.0986
11
259.498
21
-84.0178
0
LINE
8
BLACK
6
CONTINUOUS
10
259.498
20
-84.0178
11
259.498
21
-84.0178
0
LINE
8
BLACK
6
CONTINUOUS
10
259.498
20
-84.0178
11
259.498
21
-84.0178
0
LINE
8
BLACK
6
CONTINUOUS
10
259.498
20
-84.0178
11
259.481
21
-84.0135
0
LINE
8
BLACK
6
CONTINUOUS
10
259.481
20
-84.0135
11
259.474
21
-84.0097
0
LINE
8
BLACK
6
CONTINUOUS
10
259.474
20
-84.0097
11
259.467
21
-84.0071
0
LINE
8
BLACK
6
CONTINUOUS
10
259.467
20
-84.0071
11
259.033
21
-83.7732
0
LINE
8
BLACK
6
CONTINUOUS
10
259.033
20
-83.7732
11
259.033
21
-83.7732
0
LINE
8
BLACK
6
CONTINUOUS
10
259.033
20
-83.7732
11
259.033
21
-83.7732
0
LINE
8
BLACK
6
CONTINUOUS
10
259.033
20
-83.7732
11
259.019
21
-83.7638
0
LINE
8
BLACK
6
CONTINUOUS
10
259.019
20
-83.7638
11
259.013
21
-83.7579
0
LINE
8
BLACK
6
CONTINUOUS
10
259.013
20
-83.7579
11
259.007
21
-83.7531
0
LINE
8
BLACK
6
CONTINUOUS
10
259.007
20
-83.7531
11
258.673
21
-83.3914
0
LINE
8
BLACK
6
CONTINUOUS
10
258.673
20
-83.3914
11
258.673
21
-83.3914
0
LINE
8
BLACK
6
CONTINUOUS
10
258.673
20
-83.3914
11
258.673
21
-83.3914
0
LINE
8
BLACK
6
CONTINUOUS
10
258.673
20
-83.3914
11
258.662
21
-83.3778
0
LINE
8
BLACK
6
CONTINUOUS
10
258.662
20
-83.3778
11
258.659
21
-83.3705
0
LINE
8
BLACK
6
CONTINUOUS
10
258.659
20
-83.3705
11
258.655
21
-83.364
0
LINE
8
BLACK
6
CONTINUOUS
10
258.655
20
-83.364
11
258.456
21
-82.9135
0
LINE
8
BLACK
6
CONTINUOUS
10
258.456
20
-82.9135
11
258.45
21
-82.8971
0
LINE
8
BLACK
6
CONTINUOUS
10
258.45
20
-82.8971
11
258.45
21
-82.8912
0
LINE
8
BLACK
6
CONTINUOUS
10
258.45
20
-82.8912
11
258.448
21
-82.8856
0
LINE
8
BLACK
6
CONTINUOUS
10
258.448
20
-82.8856
11
258.401
21
-82.5149
0
LINE
8
BLACK
6
CONTINUOUS
10
258.401
20
-82.5149
11
258.4
21
-82.5087
0
LINE
8
BLACK
6
CONTINUOUS
10
258.4
20
-82.5087
11
258.4
21
-78.4913
0
LINE
8
BLACK
6
CONTINUOUS
10
258.4
20
-78.4913
11
258.402
21
-78.4826
0
LINE
8
BLACK
6
CONTINUOUS
10
258.402
20
-78.4826
11
258.402
21
-78.4826
0
LINE
8
BLACK
6
CONTINUOUS
10
258.402
20
-78.4826
11
258.432
21
-78.3116
0
LINE
8
BLACK
6
CONTINUOUS
10
258.432
20
-78.3116
11
258.444
21
-78.279
0
LINE
8
BLACK
6
CONTINUOUS
10
258.444
20
-78.279
11
258.53
21
-78.1286
0
LINE
8
BLACK
6
CONTINUOUS
10
258.53
20
-78.1286
11
258.553
21
-78.102
0
LINE
8
BLACK
6
CONTINUOUS
10
258.553
20
-78.102
11
258.686
21
-77.9904
0
LINE
8
BLACK
6
CONTINUOUS
10
258.686
20
-77.9904
11
258.716
21
-77.973
0
LINE
8
BLACK
6
CONTINUOUS
10
258.716
20
-77.973
11
258.879
21
-77.9136
0
LINE
8
BLACK
6
CONTINUOUS
10
258.879
20
-77.9136
11
258.913
21
-77.9076
0
LINE
8
BLACK
6
CONTINUOUS
10
258.913
20
-77.9076
11
259.087
21
-77.9076
0
LINE
8
BLACK
6
CONTINUOUS
10
259.087
20
-77.9076
11
259.121
21
-77.9136
0
LINE
8
BLACK
6
CONTINUOUS
10
258.931
20
-78.1076
11
258.801
21
-78.1549
0
LINE
8
BLACK
6
CONTINUOUS
10
258.801
20
-78.1549
11
258.695
21
-78.2439
0
LINE
8
BLACK
6
CONTINUOUS
10
258.695
20
-78.2439
11
258.626
21
-78.3637
0
LINE
8
BLACK
6
CONTINUOUS
10
258.626
20
-78.3637
11
258.6
21
-78.5087
0
LINE
8
BLACK
6
CONTINUOUS
10
258.6
20
-78.5087
11
258.6
21
-82.4937
0
LINE
8
BLACK
6
CONTINUOUS
10
258.6
20
-82.4937
11
258.645
21
-82.846
0
LINE
8
BLACK
6
CONTINUOUS
10
258.645
20
-82.846
11
258.831
21
-83.2679
0
LINE
8
BLACK
6
CONTINUOUS
10
258.831
20
-83.2679
11
259.143
21
-83.6051
0
LINE
8
BLACK
6
CONTINUOUS
10
259.143
20
-83.6051
11
259.547
21
-83.8232
0
LINE
8
BLACK
6
CONTINUOUS
10
259.547
20
-83.8232
11
260.008
21
-83.9
0
LINE
8
BLACK
6
CONTINUOUS
10
260.008
20
-83.9
11
260.991
21
-83.9
0
LINE
8
BLACK
6
CONTINUOUS
10
260.991
20
-83.9
11
261.136
21
-83.8744
0
LINE
8
BLACK
6
CONTINUOUS
10
261.136
20
-83.8744
11
261.256
21
-83.8052
0
LINE
8
BLACK
6
CONTINUOUS
10
261.256
20
-83.8052
11
261.345
21
-83.6992
0
LINE
8
BLACK
6
CONTINUOUS
10
261.345
20
-83.6992
11
261.392
21
-83.5692
0
LINE
8
BLACK
6
CONTINUOUS
10
261.392
20
-83.5692
11
261.392
21
-83.4308
0
LINE
8
BLACK
6
CONTINUOUS
10
261.392
20
-83.4308
11
261.345
21
-83.3008
0
LINE
8
BLACK
6
CONTINUOUS
10
261.345
20
-83.3008
11
261.256
21
-83.1948
0
LINE
8
BLACK
6
CONTINUOUS
10
261.256
20
-83.1948
11
261.136
21
-83.1256
0
LINE
8
BLACK
6
CONTINUOUS
10
261.136
20
-83.1256
11
260.991
21
-83.1
0
LINE
8
BLACK
6
CONTINUOUS
10
260.991
20
-83.1
11
259.991
21
-83.1
0
LINE
8
BLACK
6
CONTINUOUS
10
259.991
20
-83.1
11
259.983
21
-83.0985
0
LINE
8
BLACK
6
CONTINUOUS
10
259.983
20
-83.0985
11
259.983
21
-83.0985
0
LINE
8
BLACK
6
CONTINUOUS
10
259.983
20
-83.0985
11
259.812
21
-83.0683
0
LINE
8
BLACK
6
CONTINUOUS
10
259.812
20
-83.0683
11
259.779
21
-83.0564
0
LINE
8
BLACK
6
CONTINUOUS
10
259.779
20
-83.0564
11
259.629
21
-82.9696
0
LINE
8
BLACK
6
CONTINUOUS
10
259.629
20
-82.9696
11
259.602
21
-82.9473
0
LINE
8
BLACK
6
CONTINUOUS
10
259.602
20
-82.9473
11
259.49
21
-82.8143
0
LINE
8
BLACK
6
CONTINUOUS
10
259.49
20
-82.8143
11
259.473
21
-82.7842
0
LINE
8
BLACK
6
CONTINUOUS
10
259.473
20
-82.7842
11
259.414
21
-82.621
0
LINE
8
BLACK
6
CONTINUOUS
10
259.414
20
-82.621
11
259.411
21
-82.6082
0
LINE
8
BLACK
6
CONTINUOUS
10
259.411
20
-82.6082
11
259.408
21
-82.5955
0
LINE
8
BLACK
6
CONTINUOUS
10
259.408
20
-82.5955
11
259.401
21
-82.5131
0
LINE
8
BLACK
6
CONTINUOUS
10
259.401
20
-82.5131
11
259.4
21
-82.5087
0
LINE
8
BLACK
6
CONTINUOUS
10
259.4
20
-82.5087
11
259.4
21
-78.5087
0
LINE
8
BLACK
6
CONTINUOUS
10
259.4
20
-78.5087
11
259.374
21
-78.3637
0
LINE
8
BLACK
6
CONTINUOUS
10
259.374
20
-78.3637
11
259.305
21
-78.2439
0
LINE
8
BLACK
6
CONTINUOUS
10
259.305
20
-78.2439
11
259.199
21
-78.1549
0
LINE
8
BLACK
6
CONTINUOUS
10
259.199
20
-78.1549
11
259.069
21
-78.1076
0
LINE
8
BLACK
6
CONTINUOUS
10
259.069
20
-78.1076
11
258.931
21
-78.1076
0
LINE
8
BLACK
6
CONTINUOUS
10
148.517
20
-80.4015
11
148.517
21
-80.4015
0
LINE
8
BLACK
6
CONTINUOUS
10
148.517
20
-80.4015
11
148.688
21
-80.4317
0
LINE
8
BLACK
6
CONTINUOUS
10
148.688
20
-80.4317
11
148.721
21
-80.4436
0
LINE
8
BLACK
6
CONTINUOUS
10
148.721
20
-80.4436
11
148.871
21
-80.5304
0
LINE
8
BLACK
6
CONTINUOUS
10
148.871
20
-80.5304
11
148.896
21
-80.5508
0
LINE
8
BLACK
6
CONTINUOUS
10
148.896
20
-80.5508
11
148.898
21
-80.5527
0
LINE
8
BLACK
6
CONTINUOUS
10
148.898
20
-80.5527
11
149.01
21
-80.6857
0
LINE
8
BLACK
6
CONTINUOUS
10
149.01
20
-80.6857
11
149.027
21
-80.7158
0
LINE
8
BLACK
6
CONTINUOUS
10
149.027
20
-80.7158
11
149.086
21
-80.879
0
LINE
8
BLACK
6
CONTINUOUS
10
149.086
20
-80.879
11
149.092
21
-80.9132
0
LINE
8
BLACK
6
CONTINUOUS
10
149.092
20
-80.9132
11
149.092
21
-81.0868
0
LINE
8
BLACK
6
CONTINUOUS
10
149.092
20
-81.0868
11
149.086
21
-81.121
0
LINE
8
BLACK
6
CONTINUOUS
10
149.086
20
-81.121
11
149.027
21
-81.2842
0
LINE
8
BLACK
6
CONTINUOUS
10
149.027
20
-81.2842
11
149.01
21
-81.3143
0
LINE
8
BLACK
6
CONTINUOUS
10
149.01
20
-81.3143
11
148.898
21
-81.4473
0
LINE
8
BLACK
6
CONTINUOUS
10
148.898
20
-81.4473
11
148.871
21
-81.4696
0
LINE
8
BLACK
6
CONTINUOUS
10
148.871
20
-81.4696
11
148.721
21
-81.5564
0
LINE
8
BLACK
6
CONTINUOUS
10
148.721
20
-81.5564
11
148.688
21
-81.5683
0
LINE
8
BLACK
6
CONTINUOUS
10
148.688
20
-81.5683
11
148.517
21
-81.5985
0
LINE
8
BLACK
6
CONTINUOUS
10
148.517
20
-81.5985
11
148.517
21
-81.5985
0
LINE
8
BLACK
6
CONTINUOUS
10
148.517
20
-81.5985
11
148.509
21
-81.6
0
LINE
8
BLACK
6
CONTINUOUS
10
148.509
20
-81.6
11
140.991
21
-81.6
0
LINE
8
BLACK
6
CONTINUOUS
10
140.991
20
-81.6
11
140.983
21
-81.5985
0
LINE
8
BLACK
6
CONTINUOUS
10
140.983
20
-81.5985
11
140.983
21
-81.5985
0
LINE
8
BLACK
6
CONTINUOUS
10
140.983
20
-81.5985
11
140.812
21
-81.5683
0
LINE
8
BLACK
6
CONTINUOUS
10
140.812
20
-81.5683
11
140.779
21
-81.5564
0
LINE
8
BLACK
6
CONTINUOUS
10
140.779
20
-81.5564
11
140.629
21
-81.4696
0
LINE
8
BLACK
6
CONTINUOUS
10
140.629
20
-81.4696
11
140.602
21
-81.4473
0
LINE
8
BLACK
6
CONTINUOUS
10
140.602
20
-81.4473
11
140.49
21
-81.3143
0
LINE
8
BLACK
6
CONTINUOUS
10
140.49
20
-81.3143
11
140.473
21
-81.2842
0
LINE
8
BLACK
6
CONTINUOUS
10
140.473
20
-81.2842
11
140.414
21
-81.121
0
LINE
8
BLACK
6
CONTINUOUS
10
140.414
20
-81.121
11
140.408
21
-81.0868
0
LINE
8
BLACK
6
CONTINUOUS
10
140.408
20
-81.0868
11
140.408
21
-80.9132
0
LINE
8
BLACK
6
CONTINUOUS
10
140.408
20
-80.9132
11
140.414
21
-80.879
0
LINE
8
BLACK
6
CONTINUOUS
10
140.414
20
-80.879
11
140.473
21
-80.7158
0
LINE
8
BLACK
6
CONTINUOUS
10
140.473
20
-80.7158
11
140.48
21
-80.7036
0
LINE
8
BLACK
6
CONTINUOUS
10
140.48
20
-80.7036
11
140.49
21
-80.6857
0
LINE
8
BLACK
6
CONTINUOUS
10
140.49
20
-80.6857
11
140.602
21
-80.5527
0
LINE
8
BLACK
6
CONTINUOUS
10
140.602
20
-80.5527
11
140.604
21
-80.5508
0
LINE
8
BLACK
6
CONTINUOUS
10
140.604
20
-80.5508
11
140.629
21
-80.5304
0
LINE
8
BLACK
6
CONTINUOUS
10
140.629
20
-80.5304
11
140.779
21
-80.4436
0
LINE
8
BLACK
6
CONTINUOUS
10
140.779
20
-80.4436
11
140.779
21
-80.4436
0
LINE
8
BLACK
6
CONTINUOUS
10
140.779
20
-80.4436
11
140.812
21
-80.4317
0
LINE
8
BLACK
6
CONTINUOUS
10
140.812
20
-80.4317
11
140.983
21
-80.4015
0
LINE
8
BLACK
6
CONTINUOUS
10
140.983
20
-80.4015
11
140.983
21
-80.4015
0
LINE
8
BLACK
6
CONTINUOUS
10
140.983
20
-80.4015
11
140.991
21
-80.4
0
LINE
8
BLACK
6
CONTINUOUS
10
140.991
20
-80.4
11
148.509
21
-80.4
0
LINE
8
BLACK
6
CONTINUOUS
10
148.509
20
-80.4
11
148.517
21
-80.4015
0
LINE
8
BLACK
6
CONTINUOUS
10
141.009
20
-80.6
11
140.864
21
-80.6256
0
LINE
8
BLACK
6
CONTINUOUS
10
140.864
20
-80.6256
11
140.744
21
-80.6948
0
LINE
8
BLACK
6
CONTINUOUS
10
140.744
20
-80.6948
11
140.655
21
-80.8008
0
LINE
8
BLACK
6
CONTINUOUS
10
140.655
20
-80.8008
11
140.608
21
-80.9308
0
LINE
8
BLACK
6
CONTINUOUS
10
140.608
20
-80.9308
11
140.608
21
-81.0692
0
LINE
8
BLACK
6
CONTINUOUS
10
140.608
20
-81.0692
11
140.655
21
-81.1992
0
LINE
8
BLACK
6
CONTINUOUS
10
140.655
20
-81.1992
11
140.744
21
-81.3052
0
LINE
8
BLACK
6
CONTINUOUS
10
140.744
20
-81.3052
11
140.864
21
-81.3744
0
LINE
8
BLACK
6
CONTINUOUS
10
140.864
20
-81.3744
11
141.009
21
-81.4
0
LINE
8
BLACK
6
CONTINUOUS
10
141.009
20
-81.4
11
148.491
21
-81.4
0
LINE
8
BLACK
6
CONTINUOUS
10
148.491
20
-81.4
11
148.636
21
-81.3744
0
LINE
8
BLACK
6
CONTINUOUS
10
148.636
20
-81.3744
11
148.756
21
-81.3052
0
LINE
8
BLACK
6
CONTINUOUS
10
148.756
20
-81.3052
11
148.845
21
-81.1992
0
LINE
8
BLACK
6
CONTINUOUS
10
148.845
20
-81.1992
11
148.892
21
-81.0692
0
LINE
8
BLACK
6
CONTINUOUS
10
148.892
20
-81.0692
11
148.892
21
-80.9308
0
LINE
8
BLACK
6
CONTINUOUS
10
148.892
20
-80.9308
11
148.845
21
-80.8008
0
LINE
8
BLACK
6
CONTINUOUS
10
148.845
20
-80.8008
11
148.756
21
-80.6948
0
LINE
8
BLACK
6
CONTINUOUS
10
148.756
20
-80.6948
11
148.636
21
-80.6256
0
LINE
8
BLACK
6
CONTINUOUS
10
148.636
20
-80.6256
11
148.491
21
-80.6
0
LINE
8
BLACK
6
CONTINUOUS
10
148.491
20
-80.6
11
141.009
21
-80.6
0
LINE
8
BLACK
6
CONTINUOUS
10
138.879
20
-79.5864
11
138.716
21
-79.527
0
LINE
8
BLACK
6
CONTINUOUS
10
138.716
20
-79.527
11
138.686
21
-79.5096
0
LINE
8
BLACK
6
CONTINUOUS
10
138.686
20
-79.5096
11
138.553
21
-79.398
0
LINE
8
BLACK
6
CONTINUOUS
10
138.553
20
-79.398
11
138.54
21
-79.383
0
LINE
8
BLACK
6
CONTINUOUS
10
138.54
20
-79.383
11
138.53
21
-79.3714
0
LINE
8
BLACK
6
CONTINUOUS
10
138.53
20
-79.3714
11
138.444
21
-79.221
0
LINE
8
BLACK
6
CONTINUOUS
10
138.444
20
-79.221
11
138.432
21
-79.1884
0
LINE
8
BLACK
6
CONTINUOUS
10
138.432
20
-79.1884
11
138.402
21
-79.0174
0
LINE
8
BLACK
6
CONTINUOUS
10
138.402
20
-79.0174
11
138.402
21
-79.0174
0
LINE
8
BLACK
6
CONTINUOUS
10
138.402
20
-79.0174
11
138.4
21
-79.0087
0
LINE
8
BLACK
6
CONTINUOUS
10
138.4
20
-79.0087
11
138.4
21
-70.9913
0
LINE
8
BLACK
6
CONTINUOUS
10
138.4
20
-70.9913
11
138.402
21
-70.9826
0
LINE
8
BLACK
6
CONTINUOUS
10
138.402
20
-70.9826
11
138.402
21
-70.9826
0
LINE
8
BLACK
6
CONTINUOUS
10
138.402
20
-70.9826
11
138.432
21
-70.8116
0
LINE
8
BLACK
6
CONTINUOUS
10
138.432
20
-70.8116
11
138.444
21
-70.779
0
LINE
8
BLACK
6
CONTINUOUS
10
138.444
20
-70.779
11
138.53
21
-70.6286
0
LINE
8
BLACK
6
CONTINUOUS
10
138.53
20
-70.6286
11
138.553
21
-70.602
0
LINE
8
BLACK
6
CONTINUOUS
10
138.553
20
-70.602
11
138.686
21
-70.4904
0
LINE
8
BLACK
6
CONTINUOUS
10
138.686
20
-70.4904
11
138.716
21
-70.473
0
LINE
8
BLACK
6
CONTINUOUS
10
138.716
20
-70.473
11
138.879
21
-70.4136
0
LINE
8
BLACK
6
CONTINUOUS
10
138.879
20
-70.4136
11
138.913
21
-70.4076
0
LINE
8
BLACK
6
CONTINUOUS
10
138.913
20
-70.4076
11
139.087
21
-70.4076
0
LINE
8
BLACK
6
CONTINUOUS
10
139.087
20
-70.4076
11
139.121
21
-70.4136
0
LINE
8
BLACK
6
CONTINUOUS
10
139.121
20
-70.4136
11
139.284
21
-70.473
0
LINE
8
BLACK
6
CONTINUOUS
10
139.284
20
-70.473
11
139.314
21
-70.4904
0
LINE
8
BLACK
6
CONTINUOUS
10
139.314
20
-70.4904
11
139.447
21
-70.602
0
LINE
8
BLACK
6
CONTINUOUS
10
139.447
20
-70.602
11
139.47
21
-70.6286
0
LINE
8
BLACK
6
CONTINUOUS
10
139.47
20
-70.6286
11
139.556
21
-70.779
0
LINE
8
BLACK
6
CONTINUOUS
10
139.556
20
-70.779
11
139.568
21
-70.8116
0
LINE
8
BLACK
6
CONTINUOUS
10
139.568
20
-70.8116
11
139.598
21
-70.9826
0
LINE
8
BLACK
6
CONTINUOUS
10
139.598
20
-70.9826
11
139.598
21
-70.9826
0
LINE
8
BLACK
6
CONTINUOUS
10
139.598
20
-70.9826
11
139.6
21
-70.9913
0
LINE
8
BLACK
6
CONTINUOUS
10
139.6
20
-70.9913
11
139.6
21
-79.0087
0
LINE
8
BLACK
6
CONTINUOUS
10
139.6
20
-79.0087
11
139.598
21
-79.0174
0
LINE
8
BLACK
6
CONTINUOUS
10
139.598
20
-79.0174
11
139.598
21
-79.0174
0
LINE
8
BLACK
6
CONTINUOUS
10
139.598
20
-79.0174
11
139.568
21
-79.1884
0
LINE
8
BLACK
6
CONTINUOUS
10
139.568
20
-79.1884
11
139.556
21
-79.221
0
LINE
8
BLACK
6
CONTINUOUS
10
139.556
20
-79.221
11
139.47
21
-79.3714
0
LINE
8
BLACK
6
CONTINUOUS
10
139.47
20
-79.3714
11
139.46
21
-79.383
0
LINE
8
BLACK
6
CONTINUOUS
10
139.46
20
-79.383
11
139.447
21
-79.398
0
LINE
8
BLACK
6
CONTINUOUS
10
139.447
20
-79.398
11
139.314
21
-79.5096
0
LINE
8
BLACK
6
CONTINUOUS
10
139.314
20
-79.5096
11
139.312
21
-79.511
0
LINE
8
BLACK
6
CONTINUOUS
10
139.312
20
-79.511
11
139.284
21
-79.527
0
LINE
8
BLACK
6
CONTINUOUS
10
139.284
20
-79.527
11
139.121
21
-79.5864
0
LINE
8
BLACK
6
CONTINUOUS
10
139.121
20
-79.5864
11
139.087
21
-79.5924
0
LINE
8
BLACK
6
CONTINUOUS
10
139.087
20
-79.5924
11
138.913
21
-79.5924
0
LINE
8
BLACK
6
CONTINUOUS
10
138.913
20
-79.5924
11
138.879
21
-79.5864
0
LINE
8
BLACK
6
CONTINUOUS
10
138.931
20
-70.6076
11
138.801
21
-70.6549
0
LINE
8
BLACK
6
CONTINUOUS
10
138.801
20
-70.6549
11
138.695
21
-70.7439
0
LINE
8
BLACK
6
CONTINUOUS
10
138.695
20
-70.7439
11
138.626
21
-70.8637
0
LINE
8
BLACK
6
CONTINUOUS
10
138.626
20
-70.8637
11
138.6
21
-71.0087
0
LINE
8
BLACK
6
CONTINUOUS
10
138.6
20
-71.0087
11
138.6
21
-78.9912
0
LINE
8
BLACK
6
CONTINUOUS
10
138.6
20
-78.9912
11
138.626
21
-79.1363
0
LINE
8
BLACK
6
CONTINUOUS
10
138.626
20
-79.1363
11
138.695
21
-79.2561
0
LINE
8
BLACK
6
CONTINUOUS
10
138.695
20
-79.2561
11
138.801
21
-79.3451
0
LINE
8
BLACK
6
CONTINUOUS
10
138.801
20
-79.3451
11
138.931
21
-79.3924
0
LINE
8
BLACK
6
CONTINUOUS
10
138.931
20
-79.3924
11
139.069
21
-79.3924
0
LINE
8
BLACK
6
CONTINUOUS
10
139.069
20
-79.3924
11
139.199
21
-79.3451
0
LINE
8
BLACK
6
CONTINUOUS
10
139.199
20
-79.3451
11
139.305
21
-79.2561
0
LINE
8
BLACK
6
CONTINUOUS
10
139.305
20
-79.2561
11
139.374
21
-79.1363
0
LINE
8
BLACK
6
CONTINUOUS
10
139.374
20
-79.1363
11
139.4
21
-78.9912
0
LINE
8
BLACK
6
CONTINUOUS
10
139.4
20
-78.9912
11
139.4
21
-71.0087
0
LINE
8
BLACK
6
CONTINUOUS
10
139.4
20
-71.0087
11
139.374
21
-70.8637
0
LINE
8
BLACK
6
CONTINUOUS
10
139.374
20
-70.8637
11
139.305
21
-70.7439
0
LINE
8
BLACK
6
CONTINUOUS
10
139.305
20
-70.7439
11
139.199
21
-70.6549
0
LINE
8
BLACK
6
CONTINUOUS
10
139.199
20
-70.6549
11
139.069
21
-70.6076
0
LINE
8
BLACK
6
CONTINUOUS
10
139.069
20
-70.6076
11
138.931
21
-70.6076
0
LINE
8
BLACK
6
CONTINUOUS
10
159.517
20
-68.4015
11
159.517
21
-68.4015
0
LINE
8
BLACK
6
CONTINUOUS
10
159.517
20
-68.4015
11
159.688
21
-68.4317
0
LINE
8
BLACK
6
CONTINUOUS
10
159.688
20
-68.4317
11
159.721
21
-68.4436
0
LINE
8
BLACK
6
CONTINUOUS
10
159.721
20
-68.4436
11
159.871
21
-68.5304
0
LINE
8
BLACK
6
CONTINUOUS
10
159.871
20
-68.5304
11
159.896
21
-68.5508
0
LINE
8
BLACK
6
CONTINUOUS
10
159.896
20
-68.5508
11
159.898
21
-68.5527
0
LINE
8
BLACK
6
CONTINUOUS
10
159.898
20
-68.5527
11
160.01
21
-68.6857
0
LINE
8
BLACK
6
CONTINUOUS
10
160.01
20
-68.6857
11
160.027
21
-68.7158
0
LINE
8
BLACK
6
CONTINUOUS
10
160.027
20
-68.7158
11
160.086
21
-68.879
0
LINE
8
BLACK
6
CONTINUOUS
10
160.086
20
-68.879
11
160.092
21
-68.9132
0
LINE
8
BLACK
6
CONTINUOUS
10
160.092
20
-68.9132
11
160.092
21
-69.0868
0
LINE
8
BLACK
6
CONTINUOUS
10
160.092
20
-69.0868
11
160.086
21
-69.121
0
LINE
8
BLACK
6
CONTINUOUS
10
160.086
20
-69.121
11
160.027
21
-69.2842
0
LINE
8
BLACK
6
CONTINUOUS
10
160.027
20
-69.2842
11
160.01
21
-69.3143
0
LINE
8
BLACK
6
CONTINUOUS
10
160.01
20
-69.3143
11
159.898
21
-69.4473
0
LINE
8
BLACK
6
CONTINUOUS
10
159.898
20
-69.4473
11
159.871
21
-69.4696
0
LINE
8
BLACK
6
CONTINUOUS
10
159.871
20
-69.4696
11
159.721
21
-69.5564
0
LINE
8
BLACK
6
CONTINUOUS
10
159.721
20
-69.5564
11
159.688
21
-69.5683
0
LINE
8
BLACK
6
CONTINUOUS
10
159.688
20
-69.5683
11
159.517
21
-69.5985
0
LINE
8
BLACK
6
CONTINUOUS
10
159.517
20
-69.5985
11
159.517
21
-69.5985
0
LINE
8
BLACK
6
CONTINUOUS
10
159.517
20
-69.5985
11
159.509
21
-69.6
0
LINE
8
BLACK
6
CONTINUOUS
10
159.509
20
-69.6
11
151.491
21
-69.6
0
LINE
8
BLACK
6
CONTINUOUS
10
151.491
20
-69.6
11
151.483
21
-69.5985
0
LINE
8
BLACK
6
CONTINUOUS
10
151.483
20
-69.5985
11
151.483
21
-69.5985
0
LINE
8
BLACK
6
CONTINUOUS
10
151.483
20
-69.5985
11
151.312
21
-69.5683
0
LINE
8
BLACK
6
CONTINUOUS
10
151.312
20
-69.5683
11
151.279
21
-69.5564
0
LINE
8
BLACK
6
CONTINUOUS
10
151.279
20
-69.5564
11
151.129
21
-69.4696
0
LINE
8
BLACK
6
CONTINUOUS
10
151.129
20
-69.4696
11
151.102
21
-69.4473
0
LINE
8
BLACK
6
CONTINUOUS
10
151.102
20
-69.4473
11
150.99
21
-69.3143
0
LINE
8
BLACK
6
CONTINUOUS
10
150.99
20
-69.3143
11
150.973
21
-69.2842
0
LINE
8
BLACK
6
CONTINUOUS
10
150.973
20
-69.2842
11
150.914
21
-69.121
0
LINE
8
BLACK
6
CONTINUOUS
10
150.914
20
-69.121
11
150.908
21
-69.0868
0
LINE
8
BLACK
6
CONTINUOUS
10
150.908
20
-69.0868
11
150.908
21
-68.9132
0
LINE
8
BLACK
6
CONTINUOUS
10
150.908
20
-68.9132
11
150.914
21
-68.879
0
LINE
8
BLACK
6
CONTINUOUS
10
150.914
20
-68.879
11
150.973
21
-68.7158
0
LINE
8
BLACK
6
CONTINUOUS
10
150.973
20
-68.7158
11
150.98
21
-68.7036
0
LINE
8
BLACK
6
CONTINUOUS
10
150.98
20
-68.7036
11
150.99
21
-68.6857
0
LINE
8
BLACK
6
CONTINUOUS
10
150.99
20
-68.6857
11
151.102
21
-68.5527
0
LINE
8
BLACK
6
CONTINUOUS
10
151.102
20
-68.5527
11
151.104
21
-68.5508
0
LINE
8
BLACK
6
CONTINUOUS
10
151.104
20
-68.5508
11
151.129
21
-68.5304
0
LINE
8
BLACK
6
CONTINUOUS
10
151.129
20
-68.5304
11
151.279
21
-68.4436
0
LINE
8
BLACK
6
CONTINUOUS
10
151.279
20
-68.4436
11
151.279
21
-68.4436
0
LINE
8
BLACK
6
CONTINUOUS
10
151.279
20
-68.4436
11
151.312
21
-68.4317
0
LINE
8
BLACK
6
CONTINUOUS
10
151.312
20
-68.4317
11
151.483
21
-68.4015
0
LINE
8
BLACK
6
CONTINUOUS
10
151.483
20
-68.4015
11
151.483
21
-68.4015
0
LINE
8
BLACK
6
CONTINUOUS
10
151.483
20
-68.4015
11
151.491
21
-68.4
0
LINE
8
BLACK
6
CONTINUOUS
10
151.491
20
-68.4
11
159.509
21
-68.4
0
LINE
8
BLACK
6
CONTINUOUS
10
159.509
20
-68.4
11
159.517
21
-68.4015
0
LINE
8
BLACK
6
CONTINUOUS
10
151.509
20
-68.6
11
151.364
21
-68.6256
0
LINE
8
BLACK
6
CONTINUOUS
10
151.364
20
-68.6256
11
151.244
21
-68.6948
0
LINE
8
BLACK
6
CONTINUOUS
10
151.244
20
-68.6948
11
151.155
21
-68.8008
0
LINE
8
BLACK
6
CONTINUOUS
10
151.155
20
-68.8008
11
151.108
21
-68.9308
0
LINE
8
BLACK
6
CONTINUOUS
10
151.108
20
-68.9308
11
151.108
21
-69.0692
0
LINE
8
BLACK
6
CONTINUOUS
10
151.108
20
-69.0692
11
151.155
21
-69.1992
0
LINE
8
BLACK
6
CONTINUOUS
10
151.155
20
-69.1992
11
151.244
21
-69.3052
0
LINE
8
BLACK
6
CONTINUOUS
10
151.244
20
-69.3052
11
151.364
21
-69.3744
0
LINE
8
BLACK
6
CONTINUOUS
10
151.364
20
-69.3744
11
151.509
21
-69.4
0
LINE
8
BLACK
6
CONTINUOUS
10
151.509
20
-69.4
11
159.491
21
-69.4
0
LINE
8
BLACK
6
CONTINUOUS
10
159.491
20
-69.4
11
159.636
21
-69.3744
0
LINE
8
BLACK
6
CONTINUOUS
10
159.636
20
-69.3744
11
159.756
21
-69.3052
0
LINE
8
BLACK
6
CONTINUOUS
10
159.756
20
-69.3052
11
159.845
21
-69.1992
0
LINE
8
BLACK
6
CONTINUOUS
10
159.845
20
-69.1992
11
159.892
21
-69.0692
0
LINE
8
BLACK
6
CONTINUOUS
10
159.892
20
-69.0692
11
159.892
21
-68.9308
0
LINE
8
BLACK
6
CONTINUOUS
10
159.892
20
-68.9308
11
159.845
21
-68.8008
0
LINE
8
BLACK
6
CONTINUOUS
10
159.845
20
-68.8008
11
159.756
21
-68.6948
0
LINE
8
BLACK
6
CONTINUOUS
10
159.756
20
-68.6948
11
159.636
21
-68.6256
0
LINE
8
BLACK
6
CONTINUOUS
10
159.636
20
-68.6256
11
159.491
21
-68.6
0
LINE
8
BLACK
6
CONTINUOUS
10
159.491
20
-68.6
11
151.509
21
-68.6
0
LINE
8
BLACK
6
CONTINUOUS
10
148.517
20
-68.4015
11
148.517
21
-68.4015
0
LINE
8
BLACK
6
CONTINUOUS
10
148.517
20
-68.4015
11
148.688
21
-68.4317
0
LINE
8
BLACK
6
CONTINUOUS
10
148.688
20
-68.4317
11
148.721
21
-68.4436
0
LINE
8
BLACK
6
CONTINUOUS
10
148.721
20
-68.4436
11
148.871
21
-68.5304
0
LINE
8
BLACK
6
CONTINUOUS
10
148.871
20
-68.5304
11
148.896
21
-68.5508
0
LINE
8
BLACK
6
CONTINUOUS
10
148.896
20
-68.5508
11
148.898
21
-68.5527
0
LINE
8
BLACK
6
CONTINUOUS
10
148.898
20
-68.5527
11
149.01
21
-68.6857
0
LINE
8
BLACK
6
CONTINUOUS
10
149.01
20
-68.6857
11
149.027
21
-68.7158
0
LINE
8
BLACK
6
CONTINUOUS
10
149.027
20
-68.7158
11
149.086
21
-68.879
0
LINE
8
BLACK
6
CONTINUOUS
10
149.086
20
-68.879
11
149.092
21
-68.9132
0
LINE
8
BLACK
6
CONTINUOUS
10
149.092
20
-68.9132
11
149.092
21
-69.0868
0
LINE
8
BLACK
6
CONTINUOUS
10
149.092
20
-69.0868
11
149.086
21
-69.121
0
LINE
8
BLACK
6
CONTINUOUS
10
149.086
20
-69.121
11
149.027
21
-69.2842
0
LINE
8
BLACK
6
CONTINUOUS
10
149.027
20
-69.2842
11
149.01
21
-69.3143
0
LINE
8
BLACK
6
CONTINUOUS
10
149.01
20
-69.3143
11
148.898
21
-69.4473
0
LINE
8
BLACK
6
CONTINUOUS
10
148.898
20
-69.4473
11
148.871
21
-69.4696
0
LINE
8
BLACK
6
CONTINUOUS
10
148.871
20
-69.4696
11
148.721
21
-69.5564
0
LINE
8
BLACK
6
CONTINUOUS
10
148.721
20
-69.5564
11
148.688
21
-69.5683
0
LINE
8
BLACK
6
CONTINUOUS
10
148.688
20
-69.5683
11
148.517
21
-69.5985
0
LINE
8
BLACK
6
CONTINUOUS
10
148.517
20
-69.5985
11
148.517
21
-69.5985
0
LINE
8
BLACK
6
CONTINUOUS
10
148.517
20
-69.5985
11
148.509
21
-69.6
0
LINE
8
BLACK
6
CONTINUOUS
10
148.509
20
-69.6
11
140.991
21
-69.6
0
LINE
8
BLACK
6
CONTINUOUS
10
140.991
20
-69.6
11
140.983
21
-69.5985
0
LINE
8
BLACK
6
CONTINUOUS
10
140.983
20
-69.5985
11
140.983
21
-69.5985
0
LINE
8
BLACK
6
CONTINUOUS
10
140.983
20
-69.5985
11
140.812
21
-69.5683
0
LINE
8
BLACK
6
CONTINUOUS
10
140.812
20
-69.5683
11
140.779
21
-69.5564
0
LINE
8
BLACK
6
CONTINUOUS
10
140.779
20
-69.5564
11
140.629
21
-69.4696
0
LINE
8
BLACK
6
CONTINUOUS
10
140.629
20
-69.4696
11
140.602
21
-69.4473
0
LINE
8
BLACK
6
CONTINUOUS
10
140.602
20
-69.4473
11
140.49
21
-69.3143
0
LINE
8
BLACK
6
CONTINUOUS
10
140.49
20
-69.3143
11
140.473
21
-69.2842
0
LINE
8
BLACK
6
CONTINUOUS
10
140.473
20
-69.2842
11
140.414
21
-69.121
0
LINE
8
BLACK
6
CONTINUOUS
10
140.414
20
-69.121
11
140.408
21
-69.0868
0
LINE
8
BLACK
6
CONTINUOUS
10
140.408
20
-69.0868
11
140.408
21
-68.9132
0
LINE
8
BLACK
6
CONTINUOUS
10
140.408
20
-68.9132
11
140.414
21
-68.879
0
LINE
8
BLACK
6
CONTINUOUS
10
140.414
20
-68.879
11
140.473
21
-68.7158
0
LINE
8
BLACK
6
CONTINUOUS
10
140.473
20
-68.7158
11
140.48
21
-68.7036
0
LINE
8
BLACK
6
CONTINUOUS
10
140.48
20
-68.7036
11
140.49
21
-68.6857
0
LINE
8
BLACK
6
CONTINUOUS
10
140.49
20
-68.6857
11
140.602
21
-68.5527
0
LINE
8
BLACK
6
CONTINUOUS
10
140.602
20
-68.5527
11
140.604
21
-68.5508
0
LINE
8
BLACK
6
CONTINUOUS
10
140.604
20
-68.5508
11
140.629
21
-68.5304
0
LINE
8
BLACK
6
CONTINUOUS
10
140.629
20
-68.5304
11
140.779
21
-68.4436
0
LINE
8
BLACK
6
CONTINUOUS
10
140.779
20
-68.4436
11
140.779
21
-68.4436
0
LINE
8
BLACK
6
CONTINUOUS
10
140.779
20
-68.4436
11
140.812
21
-68.4317
0
LINE
8
BLACK
6
CONTINUOUS
10
140.812
20
-68.4317
11
140.983
21
-68.4015
0
LINE
8
BLACK
6
CONTINUOUS
10
140.983
20
-68.4015
11
140.983
21
-68.4015
0
LINE
8
BLACK
6
CONTINUOUS
10
140.983
20
-68.4015
11
140.991
21
-68.4
0
LINE
8
BLACK
6
CONTINUOUS
10
140.991
20
-68.4
11
148.509
21
-68.4
0
LINE
8
BLACK
6
CONTINUOUS
10
148.509
20
-68.4
11
148.517
21
-68.4015
0
LINE
8
BLACK
6
CONTINUOUS
10
141.009
20
-68.6
11
140.864
21
-68.6256
0
LINE
8
BLACK
6
CONTINUOUS
10
140.864
20
-68.6256
11
140.744
21
-68.6948
0
LINE
8
BLACK
6
CONTINUOUS
10
140.744
20
-68.6948
11
140.655
21
-68.8008
0
LINE
8
BLACK
6
CONTINUOUS
10
140.655
20
-68.8008
11
140.608
21
-68.9308
0
LINE
8
BLACK
6
CONTINUOUS
10
140.608
20
-68.9308
11
140.608
21
-69.0692
0
LINE
8
BLACK
6
CONTINUOUS
10
140.608
20
-69.0692
11
140.655
21
-69.1992
0
LINE
8
BLACK
6
CONTINUOUS
10
140.655
20
-69.1992
11
140.744
21
-69.3052
0
LINE
8
BLACK
6
CONTINUOUS
10
140.744
20
-69.3052
11
140.864
21
-69.3744
0
LINE
8
BLACK
6
CONTINUOUS
10
140.864
20
-69.3744
11
141.009
21
-69.4
0
LINE
8
BLACK
6
CONTINUOUS
10
141.009
20
-69.4
11
148.491
21
-69.4
0
LINE
8
BLACK
6
CONTINUOUS
10
148.491
20
-69.4
11
148.636
21
-69.3744
0
LINE
8
BLACK
6
CONTINUOUS
10
148.636
20
-69.3744
11
148.756
21
-69.3052
0
LINE
8
BLACK
6
CONTINUOUS
10
148.756
20
-69.3052
11
148.845
21
-69.1992
0
LINE
8
BLACK
6
CONTINUOUS
10
148.845
20
-69.1992
11
148.892
21
-69.0692
0
LINE
8
BLACK
6
CONTINUOUS
10
148.892
20
-69.0692
11
148.892
21
-68.9308
0
LINE
8
BLACK
6
CONTINUOUS
10
148.892
20
-68.9308
11
148.845
21
-68.8008
0
LINE
8
BLACK
6
CONTINUOUS
10
148.845
20
-68.8008
11
148.756
21
-68.6948
0
LINE
8
BLACK
6
CONTINUOUS
10
148.756
20
-68.6948
11
148.636
21
-68.6256
0
LINE
8
BLACK
6
CONTINUOUS
10
148.636
20
-68.6256
11
148.491
21
-68.6
0
LINE
8
BLACK
6
CONTINUOUS
10
148.491
20
-68.6
11
141.009
21
-68.6
  0
ENDSEC
  0
EOF
