M48
;DRILL file {KiCad (5.0.0-rc2-dev-632-g76d3b6f04)} date 06/22/18 22:14:40
;FORMAT={2:4/ absolute / inch / suppress leading zeros}
FMAT,2
INCH,TZ
T1C0.0079
T2C0.0118
T3C0.0157
T4C0.0300
T5C0.0335
T6C0.0394
T7C0.0709
T8C0.0787
T9C0.1378
T10C0.0394
T11C0.0709
T12C0.1693
%
G90
G05
M72
T1
X8268Y-35219
X8858Y-32283
X35039Y-32697
X37089Y-38878
X39961Y-32500
X43585Y-35433
X43585Y-37402
X50984Y-36319
X53740Y-35236
X54134Y-30906
X54134Y-35039
X54134Y-38583
X56299Y-41339
X56496Y-41535
X56693Y-41732
X56890Y-41929
X57874Y-27756
X57874Y-28051
X57874Y-28346
X57874Y-28642
X57874Y-30413
X57874Y-30709
X57874Y-31004
X57874Y-31299
X58051Y-32697
X58051Y-34921
X58169Y-27756
X58169Y-28051
X58169Y-28346
X58169Y-28642
X58169Y-30413
X58169Y-30709
X58169Y-31004
X58169Y-31299
X58465Y-27756
X58465Y-28051
X58465Y-28346
X58465Y-28642
X58465Y-30413
X58465Y-30709
X58465Y-31004
X58465Y-31299
X58740Y-33169
X58740Y-33858
X58760Y-27756
X58760Y-28051
X58760Y-28937
X58760Y-29528
X58760Y-30118
X58760Y-30413
X58760Y-30709
X58760Y-31004
X58760Y-31299
X59055Y-27756
X59055Y-28051
X59055Y-28937
X59055Y-30118
X59055Y-30413
X59055Y-30709
X59055Y-31004
X59055Y-31299
X59154Y-33563
X59350Y-27756
X59350Y-28051
X59350Y-28937
X59350Y-29528
X59350Y-30118
X59350Y-30413
X59350Y-30709
X59350Y-31004
X59350Y-31299
X59350Y-33366
X59646Y-27756
X59646Y-28051
X59646Y-28346
X59646Y-28642
X59744Y-30413
X59744Y-30709
X59744Y-31004
X59744Y-31299
X59941Y-27756
X59941Y-28051
X59941Y-28346
X59941Y-28642
X59941Y-33169
X60039Y-30413
X60039Y-30709
X60039Y-31004
X60039Y-31299
X60236Y-27756
X60236Y-28051
X60236Y-28346
X60236Y-28642
X60335Y-30413
X60335Y-30709
X60335Y-31004
X60335Y-31299
X60512Y-36652
X60512Y-38152
X60630Y-30413
X60630Y-30709
X60630Y-31004
X60630Y-31299
X60925Y-30413
X60925Y-30709
X60925Y-31004
X60925Y-31299
X61024Y-34234
X61220Y-30413
X61220Y-30709
X61220Y-31004
X61220Y-31299
X61516Y-29823
X61516Y-30118
X61516Y-30413
X61516Y-30709
X61516Y-31004
X61516Y-31299
X61811Y-30118
X61811Y-30413
X61811Y-30709
X61811Y-31004
X61811Y-31299
X61929Y-31988
X61929Y-38878
X62106Y-29823
X62106Y-30118
X62106Y-30413
X62106Y-30709
X62106Y-31004
X62106Y-31299
X62402Y-29823
X62402Y-30118
X62402Y-30413
X62402Y-30709
X62402Y-31004
X62402Y-31299
X62402Y-32500
X62402Y-34409
X63780Y-35236
X63878Y-33346
X63878Y-34606
X64665Y-34291
X64665Y-35236
X64764Y-37008
X64961Y-36811
X65157Y-37402
X65472Y-27325
X65472Y-30278
X65472Y-37205
X65787Y-26825
X65787Y-29778
X65787Y-36516
X66339Y-31496
X66417Y-32185
X66594Y-26825
X66594Y-27325
X66594Y-29778
X66594Y-30278
X66732Y-32382
X67047Y-31988
X67224Y-34606
X67224Y-34921
X67323Y-38583
X68209Y-33346
X68406Y-33661
X69685Y-37598
X69882Y-37795
X70472Y-31496
X70630Y-32382
X70768Y-31791
X71260Y-33071
X71358Y-32185
X71457Y-31299
X71457Y-36811
X71654Y-31102
X71654Y-37008
X71850Y-37205
X72047Y-37402
X72244Y-32677
X72244Y-33071
X72835Y-31299
X73031Y-32480
X73134Y-28484
X73819Y-30512
X73917Y-32480
X76100Y-31496
X76297Y-31693
X76494Y-31299
X95217Y-27809
X95413Y-27309
X95610Y-28309
X95807Y-26809
X96004Y-27809
X96362Y-35433
X96378Y-33449
X102657Y-29232
X103051Y-31398
X103642Y-31398
X103740Y-27953
T2
X4831Y-31658
X5831Y-31658
X6531Y-35358
X6831Y-31658
X26575Y-30512
X27953Y-33071
X32561Y-26181
X32561Y-27756
X33197Y-27756
X33268Y-39764
X33591Y-28150
X33591Y-36220
X34171Y-31496
X34171Y-34449
X34171Y-37402
X34646Y-25217
X34762Y-28543
X35039Y-25571
X35039Y-33445
X35827Y-28543
X35827Y-31496
X35827Y-43307
X37089Y-37402
X37598Y-34449
X37598Y-37992
X38108Y-25591
X38108Y-28543
X38108Y-30906
X38108Y-34449
X38502Y-29134
X38502Y-31102
X39370Y-33465
X39567Y-29154
X39648Y-28543
X39648Y-34449
X39961Y-26358
X39961Y-29508
X39961Y-34232
X39961Y-38366
X40270Y-40157
X40354Y-26181
X40354Y-37028
X40748Y-24803
X40748Y-27953
X40748Y-31496
X40864Y-28543
X41258Y-32087
X41258Y-36634
X42045Y-31496
X42045Y-34449
X43191Y-26555
X43191Y-30906
X43585Y-25591
X44569Y-34449
X44882Y-25571
X44882Y-28543
X44882Y-31496
X44882Y-34232
X44882Y-36634
X44882Y-43307
X45276Y-28543
X45315Y-26358
X45356Y-37795
X45669Y-25984
X45669Y-31496
X45669Y-36811
X45982Y-34449
X45982Y-37008
X46063Y-26752
X46376Y-25197
X47159Y-39961
X47522Y-28543
X47522Y-31496
X47522Y-34449
X47915Y-33858
X47915Y-37402
X49016Y-27165
X49213Y-40807
X49370Y-25591
X49370Y-25965
X49803Y-30295
X49803Y-35039
X49803Y-38169
X49919Y-28543
X49919Y-37402
X50000Y-31496
X50000Y-34449
X50157Y-25217
X50591Y-33071
X50630Y-24823
X50630Y-26358
X50868Y-37402
X51220Y-26181
X51459Y-28543
X51459Y-31496
X53740Y-29921
X55593Y-25591
X58386Y-36652
X58386Y-38152
X59136Y-33858
X59331Y-37652
X59724Y-37652
X59825Y-35827
X64508Y-26825
X64508Y-27325
X64508Y-29778
X64508Y-30278
X67382Y-25825
X67382Y-28778
X67913Y-27264
X67913Y-30217
X68012Y-35551
X69882Y-31791
X70669Y-32776
X72343Y-32283
X73031Y-33268
X73917Y-33465
X75864Y-25000
X76730Y-25000
X96094Y-25809
X96094Y-26309
X96594Y-29703
X100787Y-39764
X100984Y-27362
X101181Y-27953
X101240Y-28809
X101378Y-37598
X101378Y-39173
X101575Y-28740
X101969Y-40354
X102756Y-30906
X103937Y-30906
X103937Y-32087
X104134Y-29134
X105709Y-26575
X105709Y-27953
X105709Y-30512
X106102Y-29724
X106299Y-27362
X108268Y-27953
X109252Y-30512
X109449Y-28169
X110236Y-28543
T3
X21919Y-29528
X31959Y-29528
X54528Y-32087
X62992Y-32776
X62992Y-36122
X65000Y-32382
X65256Y-33465
X65256Y-35433
X66614Y-33366
X66732Y-35433
X67047Y-36516
X68898Y-36122
X95421Y-39370
X96260Y-37028
X96526Y-37886
X96526Y-38886
X100846Y-25809
X100846Y-26309
X100846Y-29309
X102362Y-24803
X102362Y-26378
X103148Y-37203
X103740Y-39173
X104331Y-24803
X104331Y-26378
X104724Y-27657
X105906Y-36417
X106890Y-38386
X107677Y-36417
X107677Y-39764
X110433Y-39370
X110827Y-36417
X131516Y-42126
T4
X4331Y-33858
X5331Y-33858
X6331Y-33858
X7331Y-33858
T5
X87020Y-45807
X88524Y-40807
X96516Y-40807
X98020Y-45807
T6
X70276Y-44166
X71457Y-44166
X107283Y-33465
X108465Y-33465
X74803Y-44166
X75984Y-44166
X32607Y-31299
X32607Y-32480
X32607Y-33661
X32607Y-34843
X32607Y-36024
X32607Y-37205
X32607Y-38386
X32607Y-39567
X124803Y-33465
X125984Y-33465
X87598Y-34417
X87598Y-35417
X87598Y-36417
X87598Y-37417
X87598Y-38417
X26575Y-34449
X26575Y-35630
X19685Y-34449
X19685Y-35630
X87598Y-26809
X87598Y-27809
X87598Y-28809
X87598Y-29809
X12205Y-27362
X12205Y-28543
X12205Y-29724
X12205Y-30906
X12205Y-32087
X12205Y-33268
X12205Y-34449
X12205Y-35630
X13386Y-27362
X13386Y-28543
X13386Y-29724
X13386Y-30906
X13386Y-32087
X13386Y-33268
X13386Y-34449
X13386Y-35630
T7
X115512Y-33465
X115512Y-35709
X117756Y-33465
X117756Y-35709
X112254Y-43465
X119380Y-43465
X101752Y-43465
X108878Y-43465
T8
X113809Y-45276
X117825Y-45276
X103307Y-45276
X107323Y-45276
T9
X-8465Y-27362
X-8465Y-40354
X4528Y-27362
X4528Y-40354
T10
X27346Y-33268
X27346Y-36811
X20457Y-33268
X20457Y-36811
X11835Y-26181
X11835Y-36811
X106102Y-32693
X109646Y-32693
X123622Y-32693
X127165Y-32693
T11
X114421Y-36685
T12
X82677Y-45276
X82677Y-25591
X31496Y-45276
X31496Y-25591
T0
M30
