%TF.GenerationSoftware,KiCad,Pcbnew,(5.0.0-rc2-dev-632-g76d3b6f04)*%
%TF.CreationDate,2018-06-22T22:14:38+02:00*%
%TF.ProjectId,MainBoard,4D61696E426F6172642E6B696361645F,rev?*%
%TF.SameCoordinates,Original*%
%TF.FileFunction,Legend,Bot*%
%TF.FilePolarity,Positive*%
%FSLAX46Y46*%
G04 Gerber Fmt 4.6, Leading zero omitted, Abs format (unit mm)*
G04 Created by KiCad (PCBNEW (5.0.0-rc2-dev-632-g76d3b6f04)) date 06/22/18 22:14:38*
%MOMM*%
%LPD*%
G01*
G04 APERTURE LIST*
%ADD10C,0.200000*%
%ADD11C,0.750000*%
%ADD12C,0.500000*%
%ADD13C,0.120000*%
%ADD14C,0.150000*%
G04 APERTURE END LIST*
D10*
X141000000Y-81500000D02*
X148500000Y-81500000D01*
X141000000Y-80500000D02*
X148500000Y-80500000D01*
X148500000Y-80500000D02*
G75*
G02X148500000Y-81500000I0J-500000D01*
G01*
X141000000Y-81500000D02*
G75*
G02X141000000Y-80500000I0J500000D01*
G01*
X139500000Y-71000000D02*
X139500000Y-79000000D01*
X138500000Y-71000000D02*
X138500000Y-79000000D01*
X139500000Y-79000000D02*
G75*
G02X138500000Y-79000000I-500000J0D01*
G01*
X138500000Y-71000000D02*
G75*
G02X139500000Y-71000000I500000J0D01*
G01*
X151500000Y-69500000D02*
X159500000Y-69500000D01*
X151500000Y-68500000D02*
X159500000Y-68500000D01*
X141000000Y-69500000D02*
X148500000Y-69500000D01*
X141000000Y-68500000D02*
X148500000Y-68500000D01*
X151500000Y-69500000D02*
G75*
G02X151500000Y-68500000I0J500000D01*
G01*
X148500000Y-68500000D02*
G75*
G02X148500000Y-69500000I0J-500000D01*
G01*
X159500000Y-68500000D02*
G75*
G02X159500000Y-69500000I0J-500000D01*
G01*
X141000000Y-69500000D02*
G75*
G02X141000000Y-68500000I0J500000D01*
G01*
D11*
X227500000Y-74761904D02*
X227261904Y-74285714D01*
X227261904Y-73571428D01*
X227500000Y-72857142D01*
X227976190Y-72380952D01*
X228452380Y-72142857D01*
X229404761Y-71904761D01*
X230119047Y-71904761D01*
X231071428Y-72142857D01*
X231547619Y-72380952D01*
X232023809Y-72857142D01*
X232261904Y-73571428D01*
X232261904Y-74047619D01*
X232023809Y-74761904D01*
X231785714Y-75000000D01*
X230119047Y-75000000D01*
X230119047Y-74047619D01*
X232261904Y-79523809D02*
X232261904Y-77142857D01*
X227261904Y-77142857D01*
X227261904Y-80476190D02*
X232261904Y-82142857D01*
X227261904Y-83809523D01*
X232023809Y-85238095D02*
X232261904Y-85952380D01*
X232261904Y-87142857D01*
X232023809Y-87619047D01*
X231785714Y-87857142D01*
X231309523Y-88095238D01*
X230833333Y-88095238D01*
X230357142Y-87857142D01*
X230119047Y-87619047D01*
X229880952Y-87142857D01*
X229642857Y-86190476D01*
X229404761Y-85714285D01*
X229166666Y-85476190D01*
X228690476Y-85238095D01*
X228214285Y-85238095D01*
X227738095Y-85476190D01*
X227500000Y-85714285D01*
X227261904Y-86190476D01*
X227261904Y-87380952D01*
X227500000Y-88095238D01*
X303809523Y-67261904D02*
X300952380Y-67261904D01*
X302380952Y-72261904D02*
X302380952Y-67261904D01*
X299523809Y-72023809D02*
X298809523Y-72261904D01*
X297619047Y-72261904D01*
X297142857Y-72023809D01*
X296904761Y-71785714D01*
X296666666Y-71309523D01*
X296666666Y-70833333D01*
X296904761Y-70357142D01*
X297142857Y-70119047D01*
X297619047Y-69880952D01*
X298571428Y-69642857D01*
X299047619Y-69404761D01*
X299285714Y-69166666D01*
X299523809Y-68690476D01*
X299523809Y-68214285D01*
X299285714Y-67738095D01*
X299047619Y-67500000D01*
X298571428Y-67261904D01*
X297380952Y-67261904D01*
X296666666Y-67500000D01*
D12*
X252500000Y-109000000D02*
G75*
G02X251500000Y-110000000I-1000000J0D01*
G01*
X247500000Y-104000000D02*
G75*
G02X246500000Y-105000000I-1000000J0D01*
G01*
X176500000Y-111000000D02*
G75*
G02X177500000Y-110000000I1000000J0D01*
G01*
X171500000Y-106000000D02*
G75*
G02X172500000Y-105000000I1000000J0D01*
G01*
X176500000Y-111000000D02*
X176500000Y-120000000D01*
X251500000Y-110000000D02*
X177500000Y-110000000D01*
X252500000Y-60000000D02*
X252500000Y-109000000D01*
X247500000Y-104000000D02*
X247500000Y-60000000D01*
X172500000Y-105000000D02*
X246500000Y-105000000D01*
X171500000Y-120000000D02*
X171500000Y-106000000D01*
D10*
X264000000Y-84000000D02*
X265000000Y-84000000D01*
X266500000Y-82500000D02*
X266500000Y-78500000D01*
X266500000Y-82500000D02*
G75*
G02X265000000Y-84000000I-1500000J0D01*
G01*
X265500000Y-82500000D02*
G75*
G02X265000000Y-83000000I-500000J0D01*
G01*
X260000000Y-84000000D02*
X261000000Y-84000000D01*
X258500000Y-78500000D02*
X258500000Y-82500000D01*
X260000000Y-84000000D02*
G75*
G02X258500000Y-82500000I0J1500000D01*
G01*
X265000000Y-83000000D02*
X264000000Y-83000000D01*
X265500000Y-78500000D02*
X265500000Y-82500000D01*
X265500000Y-78500000D02*
G75*
G02X266500000Y-78500000I500000J0D01*
G01*
X264000000Y-84000000D02*
G75*
G02X264000000Y-83000000I0J500000D01*
G01*
X260000000Y-83000000D02*
X261000000Y-83000000D01*
X259500000Y-78500000D02*
X259500000Y-82500000D01*
X260000000Y-83000000D02*
G75*
G02X259500000Y-82500000I0J500000D01*
G01*
X261000000Y-83000000D02*
G75*
G02X261000000Y-84000000I0J-500000D01*
G01*
X258500000Y-78500000D02*
G75*
G02X259500000Y-78500000I500000J0D01*
G01*
X72500000Y-106000000D02*
G75*
G02X75000000Y-108500000I0J-2500000D01*
G01*
X75000000Y-108500000D02*
X75000000Y-117500000D01*
X-22500000Y-106000000D02*
X72500000Y-106000000D01*
X6000000Y-86000000D02*
G75*
G03X6000000Y-86000000I-11000000J0D01*
G01*
X-25000000Y-62500000D02*
G75*
G02X-22500000Y-60000000I2500000J0D01*
G01*
X-22500000Y-106000000D02*
G75*
G02X-25000000Y-103500000I0J2500000D01*
G01*
X-25000000Y-62500000D02*
X-25000000Y-103500000D01*
X-22500000Y-60000000D02*
X337500000Y-60000000D01*
X337500000Y-60000000D02*
G75*
G02X340000000Y-62500000I0J-2500000D01*
G01*
X340000000Y-117500000D02*
G75*
G02X337500000Y-120000000I-2500000J0D01*
G01*
X77500000Y-120000000D02*
G75*
G02X75000000Y-117500000I0J2500000D01*
G01*
X337500000Y-120000000D02*
X77500000Y-120000000D01*
X340000000Y-62500000D02*
X340000000Y-117500000D01*
D13*
X167350000Y-85710000D02*
X167650000Y-85710000D01*
X167350000Y-84290000D02*
X167650000Y-84290000D01*
X167350000Y-89290000D02*
X167650000Y-89290000D01*
X167350000Y-90710000D02*
X167650000Y-90710000D01*
X18060000Y-82350000D02*
X18060000Y-82050000D01*
X16640000Y-82350000D02*
X16640000Y-82050000D01*
X15520000Y-82350000D02*
X15520000Y-82050000D01*
X14100000Y-82350000D02*
X14100000Y-82050000D01*
X11560000Y-82350000D02*
X11560000Y-82050000D01*
X12980000Y-82350000D02*
X12980000Y-82050000D01*
X108600000Y-65710000D02*
X108900000Y-65710000D01*
X108600000Y-64290000D02*
X108900000Y-64290000D01*
X148210000Y-84850000D02*
X148210000Y-85150000D01*
X146790000Y-84850000D02*
X146790000Y-85150000D01*
X232750000Y-103500000D02*
X232750000Y-101500000D01*
X232750000Y-101500000D02*
X236650000Y-101500000D01*
X232750000Y-103500000D02*
X236650000Y-103500000D01*
X21790000Y-88650000D02*
X21790000Y-88350000D01*
X23210000Y-88650000D02*
X23210000Y-88350000D01*
X21790000Y-83350000D02*
X21790000Y-83650000D01*
X23210000Y-83350000D02*
X23210000Y-83650000D01*
X98900000Y-95710000D02*
X98600000Y-95710000D01*
X98900000Y-94290000D02*
X98600000Y-94290000D01*
X88900000Y-94290000D02*
X88600000Y-94290000D01*
X88900000Y-95710000D02*
X88600000Y-95710000D01*
X108600000Y-80710000D02*
X108900000Y-80710000D01*
X108600000Y-79290000D02*
X108900000Y-79290000D01*
X88600000Y-64290000D02*
X88900000Y-64290000D01*
X88600000Y-65710000D02*
X88900000Y-65710000D01*
X128900000Y-71790000D02*
X128600000Y-71790000D01*
X128900000Y-73210000D02*
X128600000Y-73210000D01*
X128900000Y-65710000D02*
X128600000Y-65710000D01*
X128900000Y-64290000D02*
X128600000Y-64290000D01*
X128600000Y-80710000D02*
X128900000Y-80710000D01*
X128600000Y-79290000D02*
X128900000Y-79290000D01*
X98900000Y-64290000D02*
X98600000Y-64290000D01*
X98900000Y-65710000D02*
X98600000Y-65710000D01*
X108900000Y-73210000D02*
X108600000Y-73210000D01*
X108900000Y-71790000D02*
X108600000Y-71790000D01*
X118900000Y-64290000D02*
X118600000Y-64290000D01*
X118900000Y-65710000D02*
X118600000Y-65710000D01*
X118900000Y-73210000D02*
X118600000Y-73210000D01*
X118900000Y-71790000D02*
X118600000Y-71790000D01*
X98600000Y-73210000D02*
X98900000Y-73210000D01*
X98600000Y-71790000D02*
X98900000Y-71790000D01*
X88900000Y-79290000D02*
X88600000Y-79290000D01*
X88900000Y-80710000D02*
X88600000Y-80710000D01*
X153210000Y-85150000D02*
X153210000Y-84850000D01*
X151790000Y-85150000D02*
X151790000Y-84850000D01*
X88600000Y-71790000D02*
X88900000Y-71790000D01*
X88600000Y-73210000D02*
X88900000Y-73210000D01*
X118600000Y-80710000D02*
X118900000Y-80710000D01*
X118600000Y-79290000D02*
X118900000Y-79290000D01*
X98600000Y-80710000D02*
X98900000Y-80710000D01*
X98600000Y-79290000D02*
X98900000Y-79290000D01*
X118600000Y-95710000D02*
X118900000Y-95710000D01*
X118600000Y-94290000D02*
X118900000Y-94290000D01*
X118600000Y-86790000D02*
X118900000Y-86790000D01*
X118600000Y-88210000D02*
X118900000Y-88210000D01*
X108600000Y-86790000D02*
X108900000Y-86790000D01*
X108600000Y-88210000D02*
X108900000Y-88210000D01*
X98900000Y-86790000D02*
X98600000Y-86790000D01*
X98900000Y-88210000D02*
X98600000Y-88210000D01*
X128600000Y-94290000D02*
X128900000Y-94290000D01*
X128600000Y-95710000D02*
X128900000Y-95710000D01*
X108600000Y-94290000D02*
X108900000Y-94290000D01*
X108600000Y-95710000D02*
X108900000Y-95710000D01*
X128900000Y-86790000D02*
X128600000Y-86790000D01*
X128900000Y-88210000D02*
X128600000Y-88210000D01*
X88900000Y-88210000D02*
X88600000Y-88210000D01*
X88900000Y-86790000D02*
X88600000Y-86790000D01*
X274350000Y-66140000D02*
X275650000Y-66140000D01*
X274350000Y-68860000D02*
X275650000Y-68860000D01*
X270150000Y-66790000D02*
X269850000Y-66790000D01*
X270150000Y-68210000D02*
X269850000Y-68210000D01*
X274350000Y-78860000D02*
X275650000Y-78860000D01*
X274350000Y-76140000D02*
X275650000Y-76140000D01*
X270150000Y-78210000D02*
X269850000Y-78210000D01*
X270150000Y-76790000D02*
X269850000Y-76790000D01*
X275400000Y-100790000D02*
X279600000Y-100790000D01*
X275400000Y-104210000D02*
X279600000Y-104210000D01*
X257650000Y-101790000D02*
X257350000Y-101790000D01*
X257650000Y-103210000D02*
X257350000Y-103210000D01*
X275400000Y-90790000D02*
X279600000Y-90790000D01*
X275400000Y-94210000D02*
X279600000Y-94210000D01*
X262900000Y-100790000D02*
X267100000Y-100790000D01*
X262900000Y-104210000D02*
X267100000Y-104210000D01*
X267100000Y-90790000D02*
X262900000Y-90790000D01*
X267100000Y-94210000D02*
X262900000Y-94210000D01*
X15570000Y-88230000D02*
X15570000Y-89160000D01*
X15570000Y-91390000D02*
X15570000Y-90460000D01*
X15570000Y-91390000D02*
X13410000Y-91390000D01*
X15570000Y-88230000D02*
X14110000Y-88230000D01*
D14*
X167666666Y-83357142D02*
X167714285Y-83404761D01*
X167857142Y-83452380D01*
X167952380Y-83452380D01*
X168095238Y-83404761D01*
X168190476Y-83309523D01*
X168238095Y-83214285D01*
X168285714Y-83023809D01*
X168285714Y-82880952D01*
X168238095Y-82690476D01*
X168190476Y-82595238D01*
X168095238Y-82500000D01*
X167952380Y-82452380D01*
X167857142Y-82452380D01*
X167714285Y-82500000D01*
X167666666Y-82547619D01*
X167285714Y-82547619D02*
X167238095Y-82500000D01*
X167142857Y-82452380D01*
X166904761Y-82452380D01*
X166809523Y-82500000D01*
X166761904Y-82547619D01*
X166714285Y-82642857D01*
X166714285Y-82738095D01*
X166761904Y-82880952D01*
X167333333Y-83452380D01*
X166714285Y-83452380D01*
X167666666Y-88357142D02*
X167714285Y-88404761D01*
X167857142Y-88452380D01*
X167952380Y-88452380D01*
X168095238Y-88404761D01*
X168190476Y-88309523D01*
X168238095Y-88214285D01*
X168285714Y-88023809D01*
X168285714Y-87880952D01*
X168238095Y-87690476D01*
X168190476Y-87595238D01*
X168095238Y-87500000D01*
X167952380Y-87452380D01*
X167857142Y-87452380D01*
X167714285Y-87500000D01*
X167666666Y-87547619D01*
X166761904Y-87452380D02*
X167238095Y-87452380D01*
X167285714Y-87928571D01*
X167238095Y-87880952D01*
X167142857Y-87833333D01*
X166904761Y-87833333D01*
X166809523Y-87880952D01*
X166761904Y-87928571D01*
X166714285Y-88023809D01*
X166714285Y-88261904D01*
X166761904Y-88357142D01*
X166809523Y-88404761D01*
X166904761Y-88452380D01*
X167142857Y-88452380D01*
X167238095Y-88404761D01*
X167285714Y-88357142D01*
X17707142Y-77747142D02*
X17754761Y-77699523D01*
X17802380Y-77556666D01*
X17802380Y-77461428D01*
X17754761Y-77318571D01*
X17659523Y-77223333D01*
X17564285Y-77175714D01*
X17373809Y-77128095D01*
X17230952Y-77128095D01*
X17040476Y-77175714D01*
X16945238Y-77223333D01*
X16850000Y-77318571D01*
X16802380Y-77461428D01*
X16802380Y-77556666D01*
X16850000Y-77699523D01*
X16897619Y-77747142D01*
X17802380Y-78699523D02*
X17802380Y-78128095D01*
X17802380Y-78413809D02*
X16802380Y-78413809D01*
X16945238Y-78318571D01*
X17040476Y-78223333D01*
X17088095Y-78128095D01*
X17230952Y-79270952D02*
X17183333Y-79175714D01*
X17135714Y-79128095D01*
X17040476Y-79080476D01*
X16992857Y-79080476D01*
X16897619Y-79128095D01*
X16850000Y-79175714D01*
X16802380Y-79270952D01*
X16802380Y-79461428D01*
X16850000Y-79556666D01*
X16897619Y-79604285D01*
X16992857Y-79651904D01*
X17040476Y-79651904D01*
X17135714Y-79604285D01*
X17183333Y-79556666D01*
X17230952Y-79461428D01*
X17230952Y-79270952D01*
X17278571Y-79175714D01*
X17326190Y-79128095D01*
X17421428Y-79080476D01*
X17611904Y-79080476D01*
X17707142Y-79128095D01*
X17754761Y-79175714D01*
X17802380Y-79270952D01*
X17802380Y-79461428D01*
X17754761Y-79556666D01*
X17707142Y-79604285D01*
X17611904Y-79651904D01*
X17421428Y-79651904D01*
X17326190Y-79604285D01*
X17278571Y-79556666D01*
X17230952Y-79461428D01*
X15167142Y-77747142D02*
X15214761Y-77699523D01*
X15262380Y-77556666D01*
X15262380Y-77461428D01*
X15214761Y-77318571D01*
X15119523Y-77223333D01*
X15024285Y-77175714D01*
X14833809Y-77128095D01*
X14690952Y-77128095D01*
X14500476Y-77175714D01*
X14405238Y-77223333D01*
X14310000Y-77318571D01*
X14262380Y-77461428D01*
X14262380Y-77556666D01*
X14310000Y-77699523D01*
X14357619Y-77747142D01*
X14357619Y-78128095D02*
X14310000Y-78175714D01*
X14262380Y-78270952D01*
X14262380Y-78509047D01*
X14310000Y-78604285D01*
X14357619Y-78651904D01*
X14452857Y-78699523D01*
X14548095Y-78699523D01*
X14690952Y-78651904D01*
X15262380Y-78080476D01*
X15262380Y-78699523D01*
X14262380Y-79318571D02*
X14262380Y-79413809D01*
X14310000Y-79509047D01*
X14357619Y-79556666D01*
X14452857Y-79604285D01*
X14643333Y-79651904D01*
X14881428Y-79651904D01*
X15071904Y-79604285D01*
X15167142Y-79556666D01*
X15214761Y-79509047D01*
X15262380Y-79413809D01*
X15262380Y-79318571D01*
X15214761Y-79223333D01*
X15167142Y-79175714D01*
X15071904Y-79128095D01*
X14881428Y-79080476D01*
X14643333Y-79080476D01*
X14452857Y-79128095D01*
X14357619Y-79175714D01*
X14310000Y-79223333D01*
X14262380Y-79318571D01*
X12627142Y-77747142D02*
X12674761Y-77699523D01*
X12722380Y-77556666D01*
X12722380Y-77461428D01*
X12674761Y-77318571D01*
X12579523Y-77223333D01*
X12484285Y-77175714D01*
X12293809Y-77128095D01*
X12150952Y-77128095D01*
X11960476Y-77175714D01*
X11865238Y-77223333D01*
X11770000Y-77318571D01*
X11722380Y-77461428D01*
X11722380Y-77556666D01*
X11770000Y-77699523D01*
X11817619Y-77747142D01*
X11817619Y-78128095D02*
X11770000Y-78175714D01*
X11722380Y-78270952D01*
X11722380Y-78509047D01*
X11770000Y-78604285D01*
X11817619Y-78651904D01*
X11912857Y-78699523D01*
X12008095Y-78699523D01*
X12150952Y-78651904D01*
X12722380Y-78080476D01*
X12722380Y-78699523D01*
X11817619Y-79080476D02*
X11770000Y-79128095D01*
X11722380Y-79223333D01*
X11722380Y-79461428D01*
X11770000Y-79556666D01*
X11817619Y-79604285D01*
X11912857Y-79651904D01*
X12008095Y-79651904D01*
X12150952Y-79604285D01*
X12722380Y-79032857D01*
X12722380Y-79651904D01*
X109392857Y-63357142D02*
X109440476Y-63404761D01*
X109583333Y-63452380D01*
X109678571Y-63452380D01*
X109821428Y-63404761D01*
X109916666Y-63309523D01*
X109964285Y-63214285D01*
X110011904Y-63023809D01*
X110011904Y-62880952D01*
X109964285Y-62690476D01*
X109916666Y-62595238D01*
X109821428Y-62500000D01*
X109678571Y-62452380D01*
X109583333Y-62452380D01*
X109440476Y-62500000D01*
X109392857Y-62547619D01*
X109011904Y-62547619D02*
X108964285Y-62500000D01*
X108869047Y-62452380D01*
X108630952Y-62452380D01*
X108535714Y-62500000D01*
X108488095Y-62547619D01*
X108440476Y-62642857D01*
X108440476Y-62738095D01*
X108488095Y-62880952D01*
X109059523Y-63452380D01*
X108440476Y-63452380D01*
X108107142Y-62452380D02*
X107488095Y-62452380D01*
X107821428Y-62833333D01*
X107678571Y-62833333D01*
X107583333Y-62880952D01*
X107535714Y-62928571D01*
X107488095Y-63023809D01*
X107488095Y-63261904D01*
X107535714Y-63357142D01*
X107583333Y-63404761D01*
X107678571Y-63452380D01*
X107964285Y-63452380D01*
X108059523Y-63404761D01*
X108107142Y-63357142D01*
X145857142Y-84357142D02*
X145904761Y-84309523D01*
X145952380Y-84166666D01*
X145952380Y-84071428D01*
X145904761Y-83928571D01*
X145809523Y-83833333D01*
X145714285Y-83785714D01*
X145523809Y-83738095D01*
X145380952Y-83738095D01*
X145190476Y-83785714D01*
X145095238Y-83833333D01*
X145000000Y-83928571D01*
X144952380Y-84071428D01*
X144952380Y-84166666D01*
X145000000Y-84309523D01*
X145047619Y-84357142D01*
X145047619Y-84738095D02*
X145000000Y-84785714D01*
X144952380Y-84880952D01*
X144952380Y-85119047D01*
X145000000Y-85214285D01*
X145047619Y-85261904D01*
X145142857Y-85309523D01*
X145238095Y-85309523D01*
X145380952Y-85261904D01*
X145952380Y-84690476D01*
X145952380Y-85309523D01*
X145285714Y-86166666D02*
X145952380Y-86166666D01*
X144904761Y-85928571D02*
X145619047Y-85690476D01*
X145619047Y-86309523D01*
X235738095Y-100952380D02*
X235738095Y-99952380D01*
X235500000Y-99952380D01*
X235357142Y-100000000D01*
X235261904Y-100095238D01*
X235214285Y-100190476D01*
X235166666Y-100380952D01*
X235166666Y-100523809D01*
X235214285Y-100714285D01*
X235261904Y-100809523D01*
X235357142Y-100904761D01*
X235500000Y-100952380D01*
X235738095Y-100952380D01*
X234785714Y-100047619D02*
X234738095Y-100000000D01*
X234642857Y-99952380D01*
X234404761Y-99952380D01*
X234309523Y-100000000D01*
X234261904Y-100047619D01*
X234214285Y-100142857D01*
X234214285Y-100238095D01*
X234261904Y-100380952D01*
X234833333Y-100952380D01*
X234214285Y-100952380D01*
X20952380Y-88333333D02*
X20476190Y-88000000D01*
X20952380Y-87761904D02*
X19952380Y-87761904D01*
X19952380Y-88142857D01*
X20000000Y-88238095D01*
X20047619Y-88285714D01*
X20142857Y-88333333D01*
X20285714Y-88333333D01*
X20380952Y-88285714D01*
X20428571Y-88238095D01*
X20476190Y-88142857D01*
X20476190Y-87761904D01*
X19952380Y-89190476D02*
X19952380Y-89000000D01*
X20000000Y-88904761D01*
X20047619Y-88857142D01*
X20190476Y-88761904D01*
X20380952Y-88714285D01*
X20761904Y-88714285D01*
X20857142Y-88761904D01*
X20904761Y-88809523D01*
X20952380Y-88904761D01*
X20952380Y-89095238D01*
X20904761Y-89190476D01*
X20857142Y-89238095D01*
X20761904Y-89285714D01*
X20523809Y-89285714D01*
X20428571Y-89238095D01*
X20380952Y-89190476D01*
X20333333Y-89095238D01*
X20333333Y-88904761D01*
X20380952Y-88809523D01*
X20428571Y-88761904D01*
X20523809Y-88714285D01*
X20952380Y-83333333D02*
X20476190Y-83000000D01*
X20952380Y-82761904D02*
X19952380Y-82761904D01*
X19952380Y-83142857D01*
X20000000Y-83238095D01*
X20047619Y-83285714D01*
X20142857Y-83333333D01*
X20285714Y-83333333D01*
X20380952Y-83285714D01*
X20428571Y-83238095D01*
X20476190Y-83142857D01*
X20476190Y-82761904D01*
X19952380Y-83666666D02*
X19952380Y-84333333D01*
X20952380Y-83904761D01*
X98916666Y-93452380D02*
X99250000Y-92976190D01*
X99488095Y-93452380D02*
X99488095Y-92452380D01*
X99107142Y-92452380D01*
X99011904Y-92500000D01*
X98964285Y-92547619D01*
X98916666Y-92642857D01*
X98916666Y-92785714D01*
X98964285Y-92880952D01*
X99011904Y-92928571D01*
X99107142Y-92976190D01*
X99488095Y-92976190D01*
X98440476Y-93452380D02*
X98250000Y-93452380D01*
X98154761Y-93404761D01*
X98107142Y-93357142D01*
X98011904Y-93214285D01*
X97964285Y-93023809D01*
X97964285Y-92642857D01*
X98011904Y-92547619D01*
X98059523Y-92500000D01*
X98154761Y-92452380D01*
X98345238Y-92452380D01*
X98440476Y-92500000D01*
X98488095Y-92547619D01*
X98535714Y-92642857D01*
X98535714Y-92880952D01*
X98488095Y-92976190D01*
X98440476Y-93023809D01*
X98345238Y-93071428D01*
X98154761Y-93071428D01*
X98059523Y-93023809D01*
X98011904Y-92976190D01*
X97964285Y-92880952D01*
X89392857Y-93452380D02*
X89726190Y-92976190D01*
X89964285Y-93452380D02*
X89964285Y-92452380D01*
X89583333Y-92452380D01*
X89488095Y-92500000D01*
X89440476Y-92547619D01*
X89392857Y-92642857D01*
X89392857Y-92785714D01*
X89440476Y-92880952D01*
X89488095Y-92928571D01*
X89583333Y-92976190D01*
X89964285Y-92976190D01*
X88440476Y-93452380D02*
X89011904Y-93452380D01*
X88726190Y-93452380D02*
X88726190Y-92452380D01*
X88821428Y-92595238D01*
X88916666Y-92690476D01*
X89011904Y-92738095D01*
X87821428Y-92452380D02*
X87726190Y-92452380D01*
X87630952Y-92500000D01*
X87583333Y-92547619D01*
X87535714Y-92642857D01*
X87488095Y-92833333D01*
X87488095Y-93071428D01*
X87535714Y-93261904D01*
X87583333Y-93357142D01*
X87630952Y-93404761D01*
X87726190Y-93452380D01*
X87821428Y-93452380D01*
X87916666Y-93404761D01*
X87964285Y-93357142D01*
X88011904Y-93261904D01*
X88059523Y-93071428D01*
X88059523Y-92833333D01*
X88011904Y-92642857D01*
X87964285Y-92547619D01*
X87916666Y-92500000D01*
X87821428Y-92452380D01*
X109392857Y-78452380D02*
X109726190Y-77976190D01*
X109964285Y-78452380D02*
X109964285Y-77452380D01*
X109583333Y-77452380D01*
X109488095Y-77500000D01*
X109440476Y-77547619D01*
X109392857Y-77642857D01*
X109392857Y-77785714D01*
X109440476Y-77880952D01*
X109488095Y-77928571D01*
X109583333Y-77976190D01*
X109964285Y-77976190D01*
X108440476Y-78452380D02*
X109011904Y-78452380D01*
X108726190Y-78452380D02*
X108726190Y-77452380D01*
X108821428Y-77595238D01*
X108916666Y-77690476D01*
X109011904Y-77738095D01*
X107488095Y-78452380D02*
X108059523Y-78452380D01*
X107773809Y-78452380D02*
X107773809Y-77452380D01*
X107869047Y-77595238D01*
X107964285Y-77690476D01*
X108059523Y-77738095D01*
X89392857Y-63452380D02*
X89726190Y-62976190D01*
X89964285Y-63452380D02*
X89964285Y-62452380D01*
X89583333Y-62452380D01*
X89488095Y-62500000D01*
X89440476Y-62547619D01*
X89392857Y-62642857D01*
X89392857Y-62785714D01*
X89440476Y-62880952D01*
X89488095Y-62928571D01*
X89583333Y-62976190D01*
X89964285Y-62976190D01*
X88440476Y-63452380D02*
X89011904Y-63452380D01*
X88726190Y-63452380D02*
X88726190Y-62452380D01*
X88821428Y-62595238D01*
X88916666Y-62690476D01*
X89011904Y-62738095D01*
X88059523Y-62547619D02*
X88011904Y-62500000D01*
X87916666Y-62452380D01*
X87678571Y-62452380D01*
X87583333Y-62500000D01*
X87535714Y-62547619D01*
X87488095Y-62642857D01*
X87488095Y-62738095D01*
X87535714Y-62880952D01*
X88107142Y-63452380D01*
X87488095Y-63452380D01*
X129392857Y-70952380D02*
X129726190Y-70476190D01*
X129964285Y-70952380D02*
X129964285Y-69952380D01*
X129583333Y-69952380D01*
X129488095Y-70000000D01*
X129440476Y-70047619D01*
X129392857Y-70142857D01*
X129392857Y-70285714D01*
X129440476Y-70380952D01*
X129488095Y-70428571D01*
X129583333Y-70476190D01*
X129964285Y-70476190D01*
X128440476Y-70952380D02*
X129011904Y-70952380D01*
X128726190Y-70952380D02*
X128726190Y-69952380D01*
X128821428Y-70095238D01*
X128916666Y-70190476D01*
X129011904Y-70238095D01*
X128107142Y-69952380D02*
X127488095Y-69952380D01*
X127821428Y-70333333D01*
X127678571Y-70333333D01*
X127583333Y-70380952D01*
X127535714Y-70428571D01*
X127488095Y-70523809D01*
X127488095Y-70761904D01*
X127535714Y-70857142D01*
X127583333Y-70904761D01*
X127678571Y-70952380D01*
X127964285Y-70952380D01*
X128059523Y-70904761D01*
X128107142Y-70857142D01*
X129392857Y-63452380D02*
X129726190Y-62976190D01*
X129964285Y-63452380D02*
X129964285Y-62452380D01*
X129583333Y-62452380D01*
X129488095Y-62500000D01*
X129440476Y-62547619D01*
X129392857Y-62642857D01*
X129392857Y-62785714D01*
X129440476Y-62880952D01*
X129488095Y-62928571D01*
X129583333Y-62976190D01*
X129964285Y-62976190D01*
X128440476Y-63452380D02*
X129011904Y-63452380D01*
X128726190Y-63452380D02*
X128726190Y-62452380D01*
X128821428Y-62595238D01*
X128916666Y-62690476D01*
X129011904Y-62738095D01*
X127583333Y-62785714D02*
X127583333Y-63452380D01*
X127821428Y-62404761D02*
X128059523Y-63119047D01*
X127440476Y-63119047D01*
X129392857Y-78452380D02*
X129726190Y-77976190D01*
X129964285Y-78452380D02*
X129964285Y-77452380D01*
X129583333Y-77452380D01*
X129488095Y-77500000D01*
X129440476Y-77547619D01*
X129392857Y-77642857D01*
X129392857Y-77785714D01*
X129440476Y-77880952D01*
X129488095Y-77928571D01*
X129583333Y-77976190D01*
X129964285Y-77976190D01*
X128440476Y-78452380D02*
X129011904Y-78452380D01*
X128726190Y-78452380D02*
X128726190Y-77452380D01*
X128821428Y-77595238D01*
X128916666Y-77690476D01*
X129011904Y-77738095D01*
X127535714Y-77452380D02*
X128011904Y-77452380D01*
X128059523Y-77928571D01*
X128011904Y-77880952D01*
X127916666Y-77833333D01*
X127678571Y-77833333D01*
X127583333Y-77880952D01*
X127535714Y-77928571D01*
X127488095Y-78023809D01*
X127488095Y-78261904D01*
X127535714Y-78357142D01*
X127583333Y-78404761D01*
X127678571Y-78452380D01*
X127916666Y-78452380D01*
X128011904Y-78404761D01*
X128059523Y-78357142D01*
X99392857Y-63452380D02*
X99726190Y-62976190D01*
X99964285Y-63452380D02*
X99964285Y-62452380D01*
X99583333Y-62452380D01*
X99488095Y-62500000D01*
X99440476Y-62547619D01*
X99392857Y-62642857D01*
X99392857Y-62785714D01*
X99440476Y-62880952D01*
X99488095Y-62928571D01*
X99583333Y-62976190D01*
X99964285Y-62976190D01*
X98440476Y-63452380D02*
X99011904Y-63452380D01*
X98726190Y-63452380D02*
X98726190Y-62452380D01*
X98821428Y-62595238D01*
X98916666Y-62690476D01*
X99011904Y-62738095D01*
X97583333Y-62452380D02*
X97773809Y-62452380D01*
X97869047Y-62500000D01*
X97916666Y-62547619D01*
X98011904Y-62690476D01*
X98059523Y-62880952D01*
X98059523Y-63261904D01*
X98011904Y-63357142D01*
X97964285Y-63404761D01*
X97869047Y-63452380D01*
X97678571Y-63452380D01*
X97583333Y-63404761D01*
X97535714Y-63357142D01*
X97488095Y-63261904D01*
X97488095Y-63023809D01*
X97535714Y-62928571D01*
X97583333Y-62880952D01*
X97678571Y-62833333D01*
X97869047Y-62833333D01*
X97964285Y-62880952D01*
X98011904Y-62928571D01*
X98059523Y-63023809D01*
X109392857Y-70952380D02*
X109726190Y-70476190D01*
X109964285Y-70952380D02*
X109964285Y-69952380D01*
X109583333Y-69952380D01*
X109488095Y-70000000D01*
X109440476Y-70047619D01*
X109392857Y-70142857D01*
X109392857Y-70285714D01*
X109440476Y-70380952D01*
X109488095Y-70428571D01*
X109583333Y-70476190D01*
X109964285Y-70476190D01*
X108440476Y-70952380D02*
X109011904Y-70952380D01*
X108726190Y-70952380D02*
X108726190Y-69952380D01*
X108821428Y-70095238D01*
X108916666Y-70190476D01*
X109011904Y-70238095D01*
X108107142Y-69952380D02*
X107440476Y-69952380D01*
X107869047Y-70952380D01*
X119392857Y-63452380D02*
X119726190Y-62976190D01*
X119964285Y-63452380D02*
X119964285Y-62452380D01*
X119583333Y-62452380D01*
X119488095Y-62500000D01*
X119440476Y-62547619D01*
X119392857Y-62642857D01*
X119392857Y-62785714D01*
X119440476Y-62880952D01*
X119488095Y-62928571D01*
X119583333Y-62976190D01*
X119964285Y-62976190D01*
X118440476Y-63452380D02*
X119011904Y-63452380D01*
X118726190Y-63452380D02*
X118726190Y-62452380D01*
X118821428Y-62595238D01*
X118916666Y-62690476D01*
X119011904Y-62738095D01*
X117869047Y-62880952D02*
X117964285Y-62833333D01*
X118011904Y-62785714D01*
X118059523Y-62690476D01*
X118059523Y-62642857D01*
X118011904Y-62547619D01*
X117964285Y-62500000D01*
X117869047Y-62452380D01*
X117678571Y-62452380D01*
X117583333Y-62500000D01*
X117535714Y-62547619D01*
X117488095Y-62642857D01*
X117488095Y-62690476D01*
X117535714Y-62785714D01*
X117583333Y-62833333D01*
X117678571Y-62880952D01*
X117869047Y-62880952D01*
X117964285Y-62928571D01*
X118011904Y-62976190D01*
X118059523Y-63071428D01*
X118059523Y-63261904D01*
X118011904Y-63357142D01*
X117964285Y-63404761D01*
X117869047Y-63452380D01*
X117678571Y-63452380D01*
X117583333Y-63404761D01*
X117535714Y-63357142D01*
X117488095Y-63261904D01*
X117488095Y-63071428D01*
X117535714Y-62976190D01*
X117583333Y-62928571D01*
X117678571Y-62880952D01*
X119392857Y-70952380D02*
X119726190Y-70476190D01*
X119964285Y-70952380D02*
X119964285Y-69952380D01*
X119583333Y-69952380D01*
X119488095Y-70000000D01*
X119440476Y-70047619D01*
X119392857Y-70142857D01*
X119392857Y-70285714D01*
X119440476Y-70380952D01*
X119488095Y-70428571D01*
X119583333Y-70476190D01*
X119964285Y-70476190D01*
X118440476Y-70952380D02*
X119011904Y-70952380D01*
X118726190Y-70952380D02*
X118726190Y-69952380D01*
X118821428Y-70095238D01*
X118916666Y-70190476D01*
X119011904Y-70238095D01*
X117964285Y-70952380D02*
X117773809Y-70952380D01*
X117678571Y-70904761D01*
X117630952Y-70857142D01*
X117535714Y-70714285D01*
X117488095Y-70523809D01*
X117488095Y-70142857D01*
X117535714Y-70047619D01*
X117583333Y-70000000D01*
X117678571Y-69952380D01*
X117869047Y-69952380D01*
X117964285Y-70000000D01*
X118011904Y-70047619D01*
X118059523Y-70142857D01*
X118059523Y-70380952D01*
X118011904Y-70476190D01*
X117964285Y-70523809D01*
X117869047Y-70571428D01*
X117678571Y-70571428D01*
X117583333Y-70523809D01*
X117535714Y-70476190D01*
X117488095Y-70380952D01*
X99392857Y-70952380D02*
X99726190Y-70476190D01*
X99964285Y-70952380D02*
X99964285Y-69952380D01*
X99583333Y-69952380D01*
X99488095Y-70000000D01*
X99440476Y-70047619D01*
X99392857Y-70142857D01*
X99392857Y-70285714D01*
X99440476Y-70380952D01*
X99488095Y-70428571D01*
X99583333Y-70476190D01*
X99964285Y-70476190D01*
X99011904Y-70047619D02*
X98964285Y-70000000D01*
X98869047Y-69952380D01*
X98630952Y-69952380D01*
X98535714Y-70000000D01*
X98488095Y-70047619D01*
X98440476Y-70142857D01*
X98440476Y-70238095D01*
X98488095Y-70380952D01*
X99059523Y-70952380D01*
X98440476Y-70952380D01*
X97821428Y-69952380D02*
X97726190Y-69952380D01*
X97630952Y-70000000D01*
X97583333Y-70047619D01*
X97535714Y-70142857D01*
X97488095Y-70333333D01*
X97488095Y-70571428D01*
X97535714Y-70761904D01*
X97583333Y-70857142D01*
X97630952Y-70904761D01*
X97726190Y-70952380D01*
X97821428Y-70952380D01*
X97916666Y-70904761D01*
X97964285Y-70857142D01*
X98011904Y-70761904D01*
X98059523Y-70571428D01*
X98059523Y-70333333D01*
X98011904Y-70142857D01*
X97964285Y-70047619D01*
X97916666Y-70000000D01*
X97821428Y-69952380D01*
X89392857Y-78452380D02*
X89726190Y-77976190D01*
X89964285Y-78452380D02*
X89964285Y-77452380D01*
X89583333Y-77452380D01*
X89488095Y-77500000D01*
X89440476Y-77547619D01*
X89392857Y-77642857D01*
X89392857Y-77785714D01*
X89440476Y-77880952D01*
X89488095Y-77928571D01*
X89583333Y-77976190D01*
X89964285Y-77976190D01*
X89011904Y-77547619D02*
X88964285Y-77500000D01*
X88869047Y-77452380D01*
X88630952Y-77452380D01*
X88535714Y-77500000D01*
X88488095Y-77547619D01*
X88440476Y-77642857D01*
X88440476Y-77738095D01*
X88488095Y-77880952D01*
X89059523Y-78452380D01*
X88440476Y-78452380D01*
X87488095Y-78452380D02*
X88059523Y-78452380D01*
X87773809Y-78452380D02*
X87773809Y-77452380D01*
X87869047Y-77595238D01*
X87964285Y-77690476D01*
X88059523Y-77738095D01*
X150952380Y-84357142D02*
X150476190Y-84023809D01*
X150952380Y-83785714D02*
X149952380Y-83785714D01*
X149952380Y-84166666D01*
X150000000Y-84261904D01*
X150047619Y-84309523D01*
X150142857Y-84357142D01*
X150285714Y-84357142D01*
X150380952Y-84309523D01*
X150428571Y-84261904D01*
X150476190Y-84166666D01*
X150476190Y-83785714D01*
X150047619Y-84738095D02*
X150000000Y-84785714D01*
X149952380Y-84880952D01*
X149952380Y-85119047D01*
X150000000Y-85214285D01*
X150047619Y-85261904D01*
X150142857Y-85309523D01*
X150238095Y-85309523D01*
X150380952Y-85261904D01*
X150952380Y-84690476D01*
X150952380Y-85309523D01*
X150047619Y-85690476D02*
X150000000Y-85738095D01*
X149952380Y-85833333D01*
X149952380Y-86071428D01*
X150000000Y-86166666D01*
X150047619Y-86214285D01*
X150142857Y-86261904D01*
X150238095Y-86261904D01*
X150380952Y-86214285D01*
X150952380Y-85642857D01*
X150952380Y-86261904D01*
X89392857Y-70952380D02*
X89726190Y-70476190D01*
X89964285Y-70952380D02*
X89964285Y-69952380D01*
X89583333Y-69952380D01*
X89488095Y-70000000D01*
X89440476Y-70047619D01*
X89392857Y-70142857D01*
X89392857Y-70285714D01*
X89440476Y-70380952D01*
X89488095Y-70428571D01*
X89583333Y-70476190D01*
X89964285Y-70476190D01*
X89011904Y-70047619D02*
X88964285Y-70000000D01*
X88869047Y-69952380D01*
X88630952Y-69952380D01*
X88535714Y-70000000D01*
X88488095Y-70047619D01*
X88440476Y-70142857D01*
X88440476Y-70238095D01*
X88488095Y-70380952D01*
X89059523Y-70952380D01*
X88440476Y-70952380D01*
X88107142Y-69952380D02*
X87488095Y-69952380D01*
X87821428Y-70333333D01*
X87678571Y-70333333D01*
X87583333Y-70380952D01*
X87535714Y-70428571D01*
X87488095Y-70523809D01*
X87488095Y-70761904D01*
X87535714Y-70857142D01*
X87583333Y-70904761D01*
X87678571Y-70952380D01*
X87964285Y-70952380D01*
X88059523Y-70904761D01*
X88107142Y-70857142D01*
X119392857Y-78452380D02*
X119726190Y-77976190D01*
X119964285Y-78452380D02*
X119964285Y-77452380D01*
X119583333Y-77452380D01*
X119488095Y-77500000D01*
X119440476Y-77547619D01*
X119392857Y-77642857D01*
X119392857Y-77785714D01*
X119440476Y-77880952D01*
X119488095Y-77928571D01*
X119583333Y-77976190D01*
X119964285Y-77976190D01*
X119011904Y-77547619D02*
X118964285Y-77500000D01*
X118869047Y-77452380D01*
X118630952Y-77452380D01*
X118535714Y-77500000D01*
X118488095Y-77547619D01*
X118440476Y-77642857D01*
X118440476Y-77738095D01*
X118488095Y-77880952D01*
X119059523Y-78452380D01*
X118440476Y-78452380D01*
X117583333Y-77785714D02*
X117583333Y-78452380D01*
X117821428Y-77404761D02*
X118059523Y-78119047D01*
X117440476Y-78119047D01*
X99392857Y-78452380D02*
X99726190Y-77976190D01*
X99964285Y-78452380D02*
X99964285Y-77452380D01*
X99583333Y-77452380D01*
X99488095Y-77500000D01*
X99440476Y-77547619D01*
X99392857Y-77642857D01*
X99392857Y-77785714D01*
X99440476Y-77880952D01*
X99488095Y-77928571D01*
X99583333Y-77976190D01*
X99964285Y-77976190D01*
X99011904Y-77547619D02*
X98964285Y-77500000D01*
X98869047Y-77452380D01*
X98630952Y-77452380D01*
X98535714Y-77500000D01*
X98488095Y-77547619D01*
X98440476Y-77642857D01*
X98440476Y-77738095D01*
X98488095Y-77880952D01*
X99059523Y-78452380D01*
X98440476Y-78452380D01*
X97535714Y-77452380D02*
X98011904Y-77452380D01*
X98059523Y-77928571D01*
X98011904Y-77880952D01*
X97916666Y-77833333D01*
X97678571Y-77833333D01*
X97583333Y-77880952D01*
X97535714Y-77928571D01*
X97488095Y-78023809D01*
X97488095Y-78261904D01*
X97535714Y-78357142D01*
X97583333Y-78404761D01*
X97678571Y-78452380D01*
X97916666Y-78452380D01*
X98011904Y-78404761D01*
X98059523Y-78357142D01*
X119392857Y-93452380D02*
X119726190Y-92976190D01*
X119964285Y-93452380D02*
X119964285Y-92452380D01*
X119583333Y-92452380D01*
X119488095Y-92500000D01*
X119440476Y-92547619D01*
X119392857Y-92642857D01*
X119392857Y-92785714D01*
X119440476Y-92880952D01*
X119488095Y-92928571D01*
X119583333Y-92976190D01*
X119964285Y-92976190D01*
X119011904Y-92547619D02*
X118964285Y-92500000D01*
X118869047Y-92452380D01*
X118630952Y-92452380D01*
X118535714Y-92500000D01*
X118488095Y-92547619D01*
X118440476Y-92642857D01*
X118440476Y-92738095D01*
X118488095Y-92880952D01*
X119059523Y-93452380D01*
X118440476Y-93452380D01*
X117583333Y-92452380D02*
X117773809Y-92452380D01*
X117869047Y-92500000D01*
X117916666Y-92547619D01*
X118011904Y-92690476D01*
X118059523Y-92880952D01*
X118059523Y-93261904D01*
X118011904Y-93357142D01*
X117964285Y-93404761D01*
X117869047Y-93452380D01*
X117678571Y-93452380D01*
X117583333Y-93404761D01*
X117535714Y-93357142D01*
X117488095Y-93261904D01*
X117488095Y-93023809D01*
X117535714Y-92928571D01*
X117583333Y-92880952D01*
X117678571Y-92833333D01*
X117869047Y-92833333D01*
X117964285Y-92880952D01*
X118011904Y-92928571D01*
X118059523Y-93023809D01*
X119392857Y-85952380D02*
X119726190Y-85476190D01*
X119964285Y-85952380D02*
X119964285Y-84952380D01*
X119583333Y-84952380D01*
X119488095Y-85000000D01*
X119440476Y-85047619D01*
X119392857Y-85142857D01*
X119392857Y-85285714D01*
X119440476Y-85380952D01*
X119488095Y-85428571D01*
X119583333Y-85476190D01*
X119964285Y-85476190D01*
X119011904Y-85047619D02*
X118964285Y-85000000D01*
X118869047Y-84952380D01*
X118630952Y-84952380D01*
X118535714Y-85000000D01*
X118488095Y-85047619D01*
X118440476Y-85142857D01*
X118440476Y-85238095D01*
X118488095Y-85380952D01*
X119059523Y-85952380D01*
X118440476Y-85952380D01*
X118107142Y-84952380D02*
X117440476Y-84952380D01*
X117869047Y-85952380D01*
X109392857Y-85952380D02*
X109726190Y-85476190D01*
X109964285Y-85952380D02*
X109964285Y-84952380D01*
X109583333Y-84952380D01*
X109488095Y-85000000D01*
X109440476Y-85047619D01*
X109392857Y-85142857D01*
X109392857Y-85285714D01*
X109440476Y-85380952D01*
X109488095Y-85428571D01*
X109583333Y-85476190D01*
X109964285Y-85476190D01*
X109011904Y-85047619D02*
X108964285Y-85000000D01*
X108869047Y-84952380D01*
X108630952Y-84952380D01*
X108535714Y-85000000D01*
X108488095Y-85047619D01*
X108440476Y-85142857D01*
X108440476Y-85238095D01*
X108488095Y-85380952D01*
X109059523Y-85952380D01*
X108440476Y-85952380D01*
X107869047Y-85380952D02*
X107964285Y-85333333D01*
X108011904Y-85285714D01*
X108059523Y-85190476D01*
X108059523Y-85142857D01*
X108011904Y-85047619D01*
X107964285Y-85000000D01*
X107869047Y-84952380D01*
X107678571Y-84952380D01*
X107583333Y-85000000D01*
X107535714Y-85047619D01*
X107488095Y-85142857D01*
X107488095Y-85190476D01*
X107535714Y-85285714D01*
X107583333Y-85333333D01*
X107678571Y-85380952D01*
X107869047Y-85380952D01*
X107964285Y-85428571D01*
X108011904Y-85476190D01*
X108059523Y-85571428D01*
X108059523Y-85761904D01*
X108011904Y-85857142D01*
X107964285Y-85904761D01*
X107869047Y-85952380D01*
X107678571Y-85952380D01*
X107583333Y-85904761D01*
X107535714Y-85857142D01*
X107488095Y-85761904D01*
X107488095Y-85571428D01*
X107535714Y-85476190D01*
X107583333Y-85428571D01*
X107678571Y-85380952D01*
X99392857Y-85952380D02*
X99726190Y-85476190D01*
X99964285Y-85952380D02*
X99964285Y-84952380D01*
X99583333Y-84952380D01*
X99488095Y-85000000D01*
X99440476Y-85047619D01*
X99392857Y-85142857D01*
X99392857Y-85285714D01*
X99440476Y-85380952D01*
X99488095Y-85428571D01*
X99583333Y-85476190D01*
X99964285Y-85476190D01*
X99011904Y-85047619D02*
X98964285Y-85000000D01*
X98869047Y-84952380D01*
X98630952Y-84952380D01*
X98535714Y-85000000D01*
X98488095Y-85047619D01*
X98440476Y-85142857D01*
X98440476Y-85238095D01*
X98488095Y-85380952D01*
X99059523Y-85952380D01*
X98440476Y-85952380D01*
X97964285Y-85952380D02*
X97773809Y-85952380D01*
X97678571Y-85904761D01*
X97630952Y-85857142D01*
X97535714Y-85714285D01*
X97488095Y-85523809D01*
X97488095Y-85142857D01*
X97535714Y-85047619D01*
X97583333Y-85000000D01*
X97678571Y-84952380D01*
X97869047Y-84952380D01*
X97964285Y-85000000D01*
X98011904Y-85047619D01*
X98059523Y-85142857D01*
X98059523Y-85380952D01*
X98011904Y-85476190D01*
X97964285Y-85523809D01*
X97869047Y-85571428D01*
X97678571Y-85571428D01*
X97583333Y-85523809D01*
X97535714Y-85476190D01*
X97488095Y-85380952D01*
X129392857Y-93452380D02*
X129726190Y-92976190D01*
X129964285Y-93452380D02*
X129964285Y-92452380D01*
X129583333Y-92452380D01*
X129488095Y-92500000D01*
X129440476Y-92547619D01*
X129392857Y-92642857D01*
X129392857Y-92785714D01*
X129440476Y-92880952D01*
X129488095Y-92928571D01*
X129583333Y-92976190D01*
X129964285Y-92976190D01*
X129059523Y-92452380D02*
X128440476Y-92452380D01*
X128773809Y-92833333D01*
X128630952Y-92833333D01*
X128535714Y-92880952D01*
X128488095Y-92928571D01*
X128440476Y-93023809D01*
X128440476Y-93261904D01*
X128488095Y-93357142D01*
X128535714Y-93404761D01*
X128630952Y-93452380D01*
X128916666Y-93452380D01*
X129011904Y-93404761D01*
X129059523Y-93357142D01*
X127821428Y-92452380D02*
X127726190Y-92452380D01*
X127630952Y-92500000D01*
X127583333Y-92547619D01*
X127535714Y-92642857D01*
X127488095Y-92833333D01*
X127488095Y-93071428D01*
X127535714Y-93261904D01*
X127583333Y-93357142D01*
X127630952Y-93404761D01*
X127726190Y-93452380D01*
X127821428Y-93452380D01*
X127916666Y-93404761D01*
X127964285Y-93357142D01*
X128011904Y-93261904D01*
X128059523Y-93071428D01*
X128059523Y-92833333D01*
X128011904Y-92642857D01*
X127964285Y-92547619D01*
X127916666Y-92500000D01*
X127821428Y-92452380D01*
X109392857Y-93452380D02*
X109726190Y-92976190D01*
X109964285Y-93452380D02*
X109964285Y-92452380D01*
X109583333Y-92452380D01*
X109488095Y-92500000D01*
X109440476Y-92547619D01*
X109392857Y-92642857D01*
X109392857Y-92785714D01*
X109440476Y-92880952D01*
X109488095Y-92928571D01*
X109583333Y-92976190D01*
X109964285Y-92976190D01*
X109059523Y-92452380D02*
X108440476Y-92452380D01*
X108773809Y-92833333D01*
X108630952Y-92833333D01*
X108535714Y-92880952D01*
X108488095Y-92928571D01*
X108440476Y-93023809D01*
X108440476Y-93261904D01*
X108488095Y-93357142D01*
X108535714Y-93404761D01*
X108630952Y-93452380D01*
X108916666Y-93452380D01*
X109011904Y-93404761D01*
X109059523Y-93357142D01*
X107488095Y-93452380D02*
X108059523Y-93452380D01*
X107773809Y-93452380D02*
X107773809Y-92452380D01*
X107869047Y-92595238D01*
X107964285Y-92690476D01*
X108059523Y-92738095D01*
X129392857Y-85952380D02*
X129726190Y-85476190D01*
X129964285Y-85952380D02*
X129964285Y-84952380D01*
X129583333Y-84952380D01*
X129488095Y-85000000D01*
X129440476Y-85047619D01*
X129392857Y-85142857D01*
X129392857Y-85285714D01*
X129440476Y-85380952D01*
X129488095Y-85428571D01*
X129583333Y-85476190D01*
X129964285Y-85476190D01*
X129059523Y-84952380D02*
X128440476Y-84952380D01*
X128773809Y-85333333D01*
X128630952Y-85333333D01*
X128535714Y-85380952D01*
X128488095Y-85428571D01*
X128440476Y-85523809D01*
X128440476Y-85761904D01*
X128488095Y-85857142D01*
X128535714Y-85904761D01*
X128630952Y-85952380D01*
X128916666Y-85952380D01*
X129011904Y-85904761D01*
X129059523Y-85857142D01*
X128059523Y-85047619D02*
X128011904Y-85000000D01*
X127916666Y-84952380D01*
X127678571Y-84952380D01*
X127583333Y-85000000D01*
X127535714Y-85047619D01*
X127488095Y-85142857D01*
X127488095Y-85238095D01*
X127535714Y-85380952D01*
X128107142Y-85952380D01*
X127488095Y-85952380D01*
X89392857Y-85952380D02*
X89726190Y-85476190D01*
X89964285Y-85952380D02*
X89964285Y-84952380D01*
X89583333Y-84952380D01*
X89488095Y-85000000D01*
X89440476Y-85047619D01*
X89392857Y-85142857D01*
X89392857Y-85285714D01*
X89440476Y-85380952D01*
X89488095Y-85428571D01*
X89583333Y-85476190D01*
X89964285Y-85476190D01*
X89059523Y-84952380D02*
X88440476Y-84952380D01*
X88773809Y-85333333D01*
X88630952Y-85333333D01*
X88535714Y-85380952D01*
X88488095Y-85428571D01*
X88440476Y-85523809D01*
X88440476Y-85761904D01*
X88488095Y-85857142D01*
X88535714Y-85904761D01*
X88630952Y-85952380D01*
X88916666Y-85952380D01*
X89011904Y-85904761D01*
X89059523Y-85857142D01*
X88107142Y-84952380D02*
X87488095Y-84952380D01*
X87821428Y-85333333D01*
X87678571Y-85333333D01*
X87583333Y-85380952D01*
X87535714Y-85428571D01*
X87488095Y-85523809D01*
X87488095Y-85761904D01*
X87535714Y-85857142D01*
X87583333Y-85904761D01*
X87678571Y-85952380D01*
X87964285Y-85952380D01*
X88059523Y-85904761D01*
X88107142Y-85857142D01*
X275642857Y-65452380D02*
X275976190Y-64976190D01*
X276214285Y-65452380D02*
X276214285Y-64452380D01*
X275833333Y-64452380D01*
X275738095Y-64500000D01*
X275690476Y-64547619D01*
X275642857Y-64642857D01*
X275642857Y-64785714D01*
X275690476Y-64880952D01*
X275738095Y-64928571D01*
X275833333Y-64976190D01*
X276214285Y-64976190D01*
X275309523Y-64452380D02*
X274690476Y-64452380D01*
X275023809Y-64833333D01*
X274880952Y-64833333D01*
X274785714Y-64880952D01*
X274738095Y-64928571D01*
X274690476Y-65023809D01*
X274690476Y-65261904D01*
X274738095Y-65357142D01*
X274785714Y-65404761D01*
X274880952Y-65452380D01*
X275166666Y-65452380D01*
X275261904Y-65404761D01*
X275309523Y-65357142D01*
X274214285Y-65452380D02*
X274023809Y-65452380D01*
X273928571Y-65404761D01*
X273880952Y-65357142D01*
X273785714Y-65214285D01*
X273738095Y-65023809D01*
X273738095Y-64642857D01*
X273785714Y-64547619D01*
X273833333Y-64500000D01*
X273928571Y-64452380D01*
X274119047Y-64452380D01*
X274214285Y-64500000D01*
X274261904Y-64547619D01*
X274309523Y-64642857D01*
X274309523Y-64880952D01*
X274261904Y-64976190D01*
X274214285Y-65023809D01*
X274119047Y-65071428D01*
X273928571Y-65071428D01*
X273833333Y-65023809D01*
X273785714Y-64976190D01*
X273738095Y-64880952D01*
X270642857Y-65952380D02*
X270976190Y-65476190D01*
X271214285Y-65952380D02*
X271214285Y-64952380D01*
X270833333Y-64952380D01*
X270738095Y-65000000D01*
X270690476Y-65047619D01*
X270642857Y-65142857D01*
X270642857Y-65285714D01*
X270690476Y-65380952D01*
X270738095Y-65428571D01*
X270833333Y-65476190D01*
X271214285Y-65476190D01*
X269785714Y-65285714D02*
X269785714Y-65952380D01*
X270023809Y-64904761D02*
X270261904Y-65619047D01*
X269642857Y-65619047D01*
X269071428Y-64952380D02*
X268976190Y-64952380D01*
X268880952Y-65000000D01*
X268833333Y-65047619D01*
X268785714Y-65142857D01*
X268738095Y-65333333D01*
X268738095Y-65571428D01*
X268785714Y-65761904D01*
X268833333Y-65857142D01*
X268880952Y-65904761D01*
X268976190Y-65952380D01*
X269071428Y-65952380D01*
X269166666Y-65904761D01*
X269214285Y-65857142D01*
X269261904Y-65761904D01*
X269309523Y-65571428D01*
X269309523Y-65333333D01*
X269261904Y-65142857D01*
X269214285Y-65047619D01*
X269166666Y-65000000D01*
X269071428Y-64952380D01*
X275642857Y-75452380D02*
X275976190Y-74976190D01*
X276214285Y-75452380D02*
X276214285Y-74452380D01*
X275833333Y-74452380D01*
X275738095Y-74500000D01*
X275690476Y-74547619D01*
X275642857Y-74642857D01*
X275642857Y-74785714D01*
X275690476Y-74880952D01*
X275738095Y-74928571D01*
X275833333Y-74976190D01*
X276214285Y-74976190D01*
X274785714Y-74785714D02*
X274785714Y-75452380D01*
X275023809Y-74404761D02*
X275261904Y-75119047D01*
X274642857Y-75119047D01*
X273738095Y-75452380D02*
X274309523Y-75452380D01*
X274023809Y-75452380D02*
X274023809Y-74452380D01*
X274119047Y-74595238D01*
X274214285Y-74690476D01*
X274309523Y-74738095D01*
X270642857Y-75952380D02*
X270976190Y-75476190D01*
X271214285Y-75952380D02*
X271214285Y-74952380D01*
X270833333Y-74952380D01*
X270738095Y-75000000D01*
X270690476Y-75047619D01*
X270642857Y-75142857D01*
X270642857Y-75285714D01*
X270690476Y-75380952D01*
X270738095Y-75428571D01*
X270833333Y-75476190D01*
X271214285Y-75476190D01*
X269785714Y-75285714D02*
X269785714Y-75952380D01*
X270023809Y-74904761D02*
X270261904Y-75619047D01*
X269642857Y-75619047D01*
X269309523Y-75047619D02*
X269261904Y-75000000D01*
X269166666Y-74952380D01*
X268928571Y-74952380D01*
X268833333Y-75000000D01*
X268785714Y-75047619D01*
X268738095Y-75142857D01*
X268738095Y-75238095D01*
X268785714Y-75380952D01*
X269357142Y-75952380D01*
X268738095Y-75952380D01*
X278142857Y-99952380D02*
X278476190Y-99476190D01*
X278714285Y-99952380D02*
X278714285Y-98952380D01*
X278333333Y-98952380D01*
X278238095Y-99000000D01*
X278190476Y-99047619D01*
X278142857Y-99142857D01*
X278142857Y-99285714D01*
X278190476Y-99380952D01*
X278238095Y-99428571D01*
X278333333Y-99476190D01*
X278714285Y-99476190D01*
X277285714Y-99285714D02*
X277285714Y-99952380D01*
X277523809Y-98904761D02*
X277761904Y-99619047D01*
X277142857Y-99619047D01*
X276857142Y-98952380D02*
X276238095Y-98952380D01*
X276571428Y-99333333D01*
X276428571Y-99333333D01*
X276333333Y-99380952D01*
X276285714Y-99428571D01*
X276238095Y-99523809D01*
X276238095Y-99761904D01*
X276285714Y-99857142D01*
X276333333Y-99904761D01*
X276428571Y-99952380D01*
X276714285Y-99952380D01*
X276809523Y-99904761D01*
X276857142Y-99857142D01*
X258142857Y-100952380D02*
X258476190Y-100476190D01*
X258714285Y-100952380D02*
X258714285Y-99952380D01*
X258333333Y-99952380D01*
X258238095Y-100000000D01*
X258190476Y-100047619D01*
X258142857Y-100142857D01*
X258142857Y-100285714D01*
X258190476Y-100380952D01*
X258238095Y-100428571D01*
X258333333Y-100476190D01*
X258714285Y-100476190D01*
X257285714Y-100285714D02*
X257285714Y-100952380D01*
X257523809Y-99904761D02*
X257761904Y-100619047D01*
X257142857Y-100619047D01*
X256333333Y-100285714D02*
X256333333Y-100952380D01*
X256571428Y-99904761D02*
X256809523Y-100619047D01*
X256190476Y-100619047D01*
X278142857Y-95952380D02*
X278476190Y-95476190D01*
X278714285Y-95952380D02*
X278714285Y-94952380D01*
X278333333Y-94952380D01*
X278238095Y-95000000D01*
X278190476Y-95047619D01*
X278142857Y-95142857D01*
X278142857Y-95285714D01*
X278190476Y-95380952D01*
X278238095Y-95428571D01*
X278333333Y-95476190D01*
X278714285Y-95476190D01*
X277285714Y-95285714D02*
X277285714Y-95952380D01*
X277523809Y-94904761D02*
X277761904Y-95619047D01*
X277142857Y-95619047D01*
X276619047Y-95380952D02*
X276714285Y-95333333D01*
X276761904Y-95285714D01*
X276809523Y-95190476D01*
X276809523Y-95142857D01*
X276761904Y-95047619D01*
X276714285Y-95000000D01*
X276619047Y-94952380D01*
X276428571Y-94952380D01*
X276333333Y-95000000D01*
X276285714Y-95047619D01*
X276238095Y-95142857D01*
X276238095Y-95190476D01*
X276285714Y-95285714D01*
X276333333Y-95333333D01*
X276428571Y-95380952D01*
X276619047Y-95380952D01*
X276714285Y-95428571D01*
X276761904Y-95476190D01*
X276809523Y-95571428D01*
X276809523Y-95761904D01*
X276761904Y-95857142D01*
X276714285Y-95904761D01*
X276619047Y-95952380D01*
X276428571Y-95952380D01*
X276333333Y-95904761D01*
X276285714Y-95857142D01*
X276238095Y-95761904D01*
X276238095Y-95571428D01*
X276285714Y-95476190D01*
X276333333Y-95428571D01*
X276428571Y-95380952D01*
X265642857Y-99952380D02*
X265976190Y-99476190D01*
X266214285Y-99952380D02*
X266214285Y-98952380D01*
X265833333Y-98952380D01*
X265738095Y-99000000D01*
X265690476Y-99047619D01*
X265642857Y-99142857D01*
X265642857Y-99285714D01*
X265690476Y-99380952D01*
X265738095Y-99428571D01*
X265833333Y-99476190D01*
X266214285Y-99476190D01*
X264785714Y-99285714D02*
X264785714Y-99952380D01*
X265023809Y-98904761D02*
X265261904Y-99619047D01*
X264642857Y-99619047D01*
X264214285Y-99952380D02*
X264023809Y-99952380D01*
X263928571Y-99904761D01*
X263880952Y-99857142D01*
X263785714Y-99714285D01*
X263738095Y-99523809D01*
X263738095Y-99142857D01*
X263785714Y-99047619D01*
X263833333Y-99000000D01*
X263928571Y-98952380D01*
X264119047Y-98952380D01*
X264214285Y-99000000D01*
X264261904Y-99047619D01*
X264309523Y-99142857D01*
X264309523Y-99380952D01*
X264261904Y-99476190D01*
X264214285Y-99523809D01*
X264119047Y-99571428D01*
X263928571Y-99571428D01*
X263833333Y-99523809D01*
X263785714Y-99476190D01*
X263738095Y-99380952D01*
X265642857Y-95952380D02*
X265976190Y-95476190D01*
X266214285Y-95952380D02*
X266214285Y-94952380D01*
X265833333Y-94952380D01*
X265738095Y-95000000D01*
X265690476Y-95047619D01*
X265642857Y-95142857D01*
X265642857Y-95285714D01*
X265690476Y-95380952D01*
X265738095Y-95428571D01*
X265833333Y-95476190D01*
X266214285Y-95476190D01*
X264738095Y-94952380D02*
X265214285Y-94952380D01*
X265261904Y-95428571D01*
X265214285Y-95380952D01*
X265119047Y-95333333D01*
X264880952Y-95333333D01*
X264785714Y-95380952D01*
X264738095Y-95428571D01*
X264690476Y-95523809D01*
X264690476Y-95761904D01*
X264738095Y-95857142D01*
X264785714Y-95904761D01*
X264880952Y-95952380D01*
X265119047Y-95952380D01*
X265214285Y-95904761D01*
X265261904Y-95857142D01*
X264071428Y-94952380D02*
X263976190Y-94952380D01*
X263880952Y-95000000D01*
X263833333Y-95047619D01*
X263785714Y-95142857D01*
X263738095Y-95333333D01*
X263738095Y-95571428D01*
X263785714Y-95761904D01*
X263833333Y-95857142D01*
X263880952Y-95904761D01*
X263976190Y-95952380D01*
X264071428Y-95952380D01*
X264166666Y-95904761D01*
X264214285Y-95857142D01*
X264261904Y-95761904D01*
X264309523Y-95571428D01*
X264309523Y-95333333D01*
X264261904Y-95142857D01*
X264214285Y-95047619D01*
X264166666Y-95000000D01*
X264071428Y-94952380D01*
X14262380Y-92381904D02*
X15071904Y-92381904D01*
X15167142Y-92429523D01*
X15214761Y-92477142D01*
X15262380Y-92572380D01*
X15262380Y-92762857D01*
X15214761Y-92858095D01*
X15167142Y-92905714D01*
X15071904Y-92953333D01*
X14262380Y-92953333D01*
X15262380Y-93953333D02*
X15262380Y-93381904D01*
X15262380Y-93667619D02*
X14262380Y-93667619D01*
X14405238Y-93572380D01*
X14500476Y-93477142D01*
X14548095Y-93381904D01*
X14262380Y-94572380D02*
X14262380Y-94667619D01*
X14310000Y-94762857D01*
X14357619Y-94810476D01*
X14452857Y-94858095D01*
X14643333Y-94905714D01*
X14881428Y-94905714D01*
X15071904Y-94858095D01*
X15167142Y-94810476D01*
X15214761Y-94762857D01*
X15262380Y-94667619D01*
X15262380Y-94572380D01*
X15214761Y-94477142D01*
X15167142Y-94429523D01*
X15071904Y-94381904D01*
X14881428Y-94334285D01*
X14643333Y-94334285D01*
X14452857Y-94381904D01*
X14357619Y-94429523D01*
X14310000Y-94477142D01*
X14262380Y-94572380D01*
M02*
